<?xml version="1.0" encoding="utf-8"?>
<!-- Generator: Adobe Illustrator 25.4.1, SVG Export Plug-In . SVG Version: 6.00 Build 0)  -->
<svg version="1.1" id="Layer_1" xmlns="http://www.w3.org/2000/svg" xmlns:xlink="http://www.w3.org/1999/xlink" x="0px" y="0px"
	 viewBox="0 0 735.4 100" style="enable-background:new 0 0 735.4 100;" xml:space="preserve">
<style type="text/css">
	.st0{fill:#FFFFFF;}
</style>
<g>
	<path class="st0" d="M98.1,92.5c-0.7-0.5-1.6-0.7-2.5-0.7c-3.6-0.7-5.6-2-6.3-4.1c-0.7-2.7-1-5.5-0.9-8.4L84.8,9.9
		c0-2.1-0.2-4.2-0.7-6.3c-0.5-1.6-2-2.5-5-2.7c-2.1-0.1-4,0.7-5.4,2.2c-1.1,1.4-2.3,3.2-3.6,5L25.5,70.8L18,81.5
		c-1.6,2.3-3.2,4.3-4.7,6.3c-1.8,2-4.2,3.2-6.8,3.6c-1.5,0.2-2.9,0.5-4.3,0.9C0.9,92.8,0,94.2,0,95.7c0,1.1,0.5,1.8,1.1,2
		c0.8,0.3,1.6,0.4,2.5,0.5c2.5,0,5.2-0.2,7.9-0.5c2.7-0.2,5.2-0.4,7.9-0.4c2.3,0,4.7,0.2,7,0.4c2.3,0.2,4.7,0.2,7,0.5
		c1,0,2-0.2,2.9-0.7c0.9-0.5,1.4-1.4,1.3-2.4c0-1.7-1.4-3-3.1-2.9c0,0-0.1,0-0.1,0c-2-0.3-3.9-0.6-5.9-1.1c-2-0.5-2.9-1.8-3.2-4.3
		c1-3.8,2.7-7.4,5-10.6c2.9-4.5,5-7.9,6.3-9.7h27.7c0.2,2.9,0.2,5.9,0.4,8.8c0.2,2.9,0.2,5.9,0.2,8.8C65,88,64.1,90.5,62,91.2
		c-1.9,0.7-3.9,1.1-5.9,1.1c-1.7-0.1-3.1,1.2-3.1,2.9c0,0,0,0,0,0c0,0.2,0,0.3,0,0.5c-0.1,0.8,0.3,1.5,0.9,2
		c0.7,0.4,1.5,0.6,2.2,0.5c3.8,0,7.7-0.2,11.5-0.5c3.8-0.2,7.7-0.4,11.5-0.4c2.5,0,5.2,0.2,7.7,0.2c2.5,0.2,5.2,0.2,7.7,0.2
		c1,0,2-0.2,2.9-0.5c1-0.4,1.6-1.4,1.6-2.5C99,93.6,98.8,92.8,98.1,92.5z M41.5,59.1l22.1-32.3l1.1,32.3H41.5z"/>
	<path class="st0" d="M298.7,9.7c1.1-0.8,1.8-2,2-3.4h0c0.1-0.7-0.3-1.4-0.9-1.8c-0.5-0.5-1.3-0.7-2-0.7c-1.2,0-2.4,0-3.6,0.2
		c-1.2,0-2.4,0.2-3.6,0.5l-9.2,0.7c-3.2,0-6.3,0.2-9.5,0c-2.2,0-4.5-0.2-7-0.2c-2.3-0.2-4.7-0.3-7-0.2c-1.1,0-2.1,0.3-2.9,0.9
		c-0.9,0.6-1.4,1.6-1.4,2.7c0.5,2,2,3.2,4.7,2.9c2.2-0.4,4.3,1,4.7,3.2c0,0,0,0,0,0c0,0.1,0,0.3,0.1,0.4c0,0.8-0.1,1.5-0.2,2.3
		c-0.2,0.7-0.5,1.4-0.7,2.2l-17.6,60.9c-0.5,2.5-1.3,5-2.3,7.5c-1.1,2.2-3.2,3.7-5.6,4.1c-1.4,0.2-2.9,0.4-4.7,0.9
		c-1.6,0.2-2.8,1.5-2.9,3.2c0,0.8,0.4,1.6,1.1,2c0.7,0.5,1.6,0.7,2.5,0.7c2.9,0,6.1-0.2,9-0.5c3.2-0.2,6.1-0.5,9.2-0.5
		c3.4,0,6.5,0.2,9.9,0.5c3.4,0.2,6.5,0.2,9.9,0.2c1.6,0,3.2,0,4.7-0.2c1.6,0.1,3-1.2,3-2.8c0.1-1.6-1.2-3-2.8-3
		c-1.7-0.2-3.4-0.5-5-0.9c-1.6-0.4-2.5-2-2.7-4.7c0-1.1,0.2-2.3,0.5-3.4c0.2-1.1,0.7-2.3,0.9-3.4L287,18.7c0.4-1.9,1.2-3.8,2.2-5.4
		c1.4-1.4,3.2-2.3,5.2-2.5C295.9,10.6,297.4,10.3,298.7,9.7z"/>
	<path class="st0" d="M376.7,70.7c1.6-5,3.6-8.1,5.9-9c1.9-0.8,4-1.3,6.1-1.3c1.8,0,2.7-1.1,2.7-3.4c0-0.8-0.4-1.6-1.1-2
		c-0.7-0.4-1.5-0.7-2.3-0.7c-3.4,0-7,0.2-10.4,0.5c-3.6,0.2-7,0.4-10.6,0.4c-3.4,0-6.8-0.2-9.9-0.4c-3.4-0.2-6.8-0.5-9.9-0.5
		c-1.1,0-2.2,0.2-3.2,0.7c-1,0.4-1.7,1.4-1.6,2.5c0.2,1.4,1.3,2.5,2.7,2.6c1.8,0.2,3.5,0.5,5.2,1.1c1.8,0.5,2.7,2,2.7,4.5
		c-0.4,3.7-1.2,7.3-2.5,10.8c-1.3,4.5-2.7,8.1-3.6,11.1c-0.3,1.7-1.1,3.2-2.3,4.5c-1.3,1-3,1.5-4.7,1.4c-8.1-0.2-14.4-2.7-18.5-7.9
		c-4.4-5.5-6.6-12.4-6.3-19.4c0-7.3,1.6-14.5,4.5-21.2c2.9-6.7,7-12.8,12-18c5.4-5.3,11.6-9.6,18.4-12.9c6.8-3.4,14.3-5.3,21.9-5.6
		c3.4,0,5.4,0.7,6.3,2c0.9,2.1,1.2,4.5,0.9,6.8c0,0.8,0,1.7-0.2,2.5c0,0.9-0.2,1.6-0.2,2.5c0,1.3,0.2,2.6,0.7,3.8
		c0.6,1.2,1.8,1.9,3.2,1.8c1.6-0.1,3.1-1,3.8-2.5c0.8-1.4,1.4-2.9,1.8-4.5c0.5-1.1,1.1-3.4,2.2-7c0.9-3.6,1.6-5.8,1.8-6.8
		c-0.2-1.6-1.8-2.5-4.5-3.1c-3-0.6-6-1-9-1.1c-3.1-0.2-5.2-0.2-6.3-0.2c-12.5,0.2-24.9,2.6-36.5,7c-12.2,4.4-23.3,11.4-32.5,20.5
		c-8.9,8.7-14,20.7-14,33.2c-0.1,7.5,2.4,14.8,7.2,20.5c4.7,5.5,10.8,9.7,17.6,12.2c7,2.7,14.4,4.1,21.9,4.1c4.6,0,9.2-0.3,13.8-0.9
		c4.6-0.5,9.1-1.3,13.5-2.5c1.5-0.2,3-0.6,4.3-1.4c1.3-0.7,2.3-1.9,2.7-3.4c1.1-3.4,2.2-7,3.4-10.6
		C374.7,77.7,375.8,74.1,376.7,70.7z"/>
	<polygon class="st0" points="392.3,7 392.3,7 392.3,7 	"/>
	<path class="st0" d="M471.2,92.5c-0.7-0.5-1.6-0.7-2.5-0.7c-3.6-0.7-5.6-2-6.3-4.1c-0.7-2.7-1-5.5-0.9-8.4l-3.6-69.5
		c0-2.1-0.2-4.2-0.7-6.3c-0.5-1.6-2-2.5-5-2.7c-2.1-0.1-4,0.7-5.4,2.2c-1.1,1.4-2.3,3.2-3.6,5l-44.6,62.7l-7.5,10.6
		c-1.6,2.3-3.2,4.3-4.7,6.3c-1.8,2-4.2,3.2-6.8,3.6c-1.5,0.2-2.9,0.5-4.3,0.9c-1.4,0.5-2.3,1.9-2.3,3.4c0,1.1,0.5,1.8,1.1,2
		c0.8,0.3,1.6,0.4,2.5,0.5c2.5,0,5.2-0.2,7.9-0.5c2.7-0.2,5.2-0.4,7.9-0.4c2.3,0,4.7,0.2,7,0.4c2.5,0.2,4.7,0.2,7,0.5
		c1,0,2-0.2,2.9-0.7c0.9-0.5,1.4-1.4,1.3-2.4c-0.1-1.7-1.5-3-3.1-2.9c-2-0.3-3.9-0.6-5.9-1.1c-2-0.5-2.9-1.8-3.2-4.3
		c1-3.8,2.7-7.4,5-10.6c2.9-4.5,5-7.9,6.3-9.7h28c0.2,2.9,0.2,5.9,0.5,8.8c0.2,2.9,0.2,5.9,0.2,8.8c-0.2,4.1-1.1,6.5-3.2,7.2
		c-1.9,0.7-3.9,1.1-5.9,1.1c-1.7-0.1-3.1,1.2-3.2,2.8c0,0,0,0,0,0.1c0,0.2,0,0.3,0,0.5c-0.1,0.8,0.3,1.5,0.9,2
		c0.7,0.4,1.5,0.5,2.3,0.5c3.8,0,7.7-0.2,11.5-0.5c3.8-0.2,7.7-0.4,11.5-0.4c2.5,0,5.2,0.2,7.7,0.2c2.5,0.2,5.2,0.2,7.7,0.2
		c1,0,2-0.2,2.9-0.4c0.9-0.5,1.4-1.5,1.3-2.5C472.2,93.6,471.9,92.8,471.2,92.5z M414.4,59.1l22.1-32.3l1.1,32.3H414.4z"/>
	<path class="st0" d="M214.5,75.5l14.2-57.1c0.3-2.1,1-4.1,2-5.9C232,11,234,10,236,9.9c1.4-0.1,2.7-0.4,4-0.9
		c0.7,0.5,1.6-0.7,1.6-2.3l0,0c0.1-0.8-0.3-1.5-0.9-2c-0.6-0.5-1.3-0.7-2-0.7c-2.9,0-5.9,0-8.8,0.2c-2.9,0.2-5.9,0.2-8.8,0.2
		c-1.6,0-3.8-0.2-7-0.2c-2.2-0.3-4.4,0.1-6.3,1.1c-0.2,0.2-0.4,0.6-0.4,0.9c-0.2,0.5-0.5,0.7-0.5,0.9l-38.3,58l-1.6-57.1
		c0.1-0.9,0-1.8-0.2-2.7c-0.2-0.9-0.9-1.1-2-1.4c-3.2,0-6.5,0-9.7,0.2h-9.7c-1.8,0-3.6-0.2-5.4-0.2c-1.8-0.2-3.6-0.3-5.4-0.2
		c-1.1,0-2.3,0.2-3.4,0.5c-1.1,0.4-1.8,1.4-1.8,2.5c0.4,2.3,2.3,3.4,5.2,3.2c3.2,0,4.7,1.1,5.2,3.2c-0.1,1.6-0.4,3.2-0.9,4.7
		c-0.7,1.6-1.1,3.1-1.6,4.5c-3.4,9.5-6.8,18.7-10.1,28.2c-3.4,9.5-6.8,18.7-10.4,28.2c-0.8,3-2.2,5.8-4.1,8.4
		c-1.4,1.6-4.1,2.7-8.4,3.4c-1.1,0.1-2.2,0.5-3.2,1.1c-1,0.6-1.5,1.6-1.3,2.7c-0.1,0.9,0.4,1.8,1.1,2.3c0.9,0.3,1.8,0.4,2.7,0.5
		c2.5,0,5,0,7.4-0.2c2.4-0.2,5-0.2,7.4-0.2c2.3,0,4.5,0.2,6.8,0.5c2.3,0.2,4.5,0.2,6.8,0.4c1.1,0,2.1-0.3,2.9-0.9
		c0.9-0.5,1.5-1.5,1.6-2.5c0-1.7-1.3-3.1-3-3.2h-0.1c-2-0.2-4.1-0.5-6.1-0.9c-2-0.4-3.2-2.2-3.2-5.4c0.8-6.7,2.4-13.3,4.7-19.6
		c2.9-8.6,5.9-17.1,9.2-25.3c3.2-8.1,5.4-13.5,6.5-16.5l1.6,66.3c0,1.7,0.2,3.4,0.7,5c0.5,1.1,1.8,1.8,4.1,1.8
		c2.1,0,4.1-0.9,5.4-2.5c1.3-1.6,2.5-3.2,3.6-5l44.7-65.6L190,78.7c-0.5,2.5-1.1,4.9-2,7.2c-0.8,2.3-2.8,4-5.2,4.5
		c-1.7,0.1-3.3,0.4-5,0.7c-1.7,0.3-3,1.7-3.1,3.4c-0.1,0.9,0.4,1.8,1.1,2.2c0.7,0.5,1.6,0.7,2.5,0.7c3.1,0,6.5-0.2,9.7-0.4
		c3.2-0.2,6.5-0.5,9.7-0.5c3.4,0,6.8,0.2,9.9,0.5c3.4,0.2,6.8,0.4,9.9,0.4c1.2,0,2.3-0.2,3.4-0.7c1-0.5,1.6-1.6,1.6-2.7
		c-0.2-1.6-0.9-2.7-2.5-2.9c-1.6-0.3-3.2-0.7-4.8-1.2c-1.6-0.5-2.5-1.8-2.5-4.3c0-1.8,0.2-3.5,0.7-5.2
		C213.9,78.7,214.1,77.2,214.5,75.5z"/>
	<path class="st0" d="M726.4,14.2c-6-9.2-16.3-14.6-27.3-14.2c-10.9-0.3-21.2,5-27.3,14c-7.2,10.2-9.2,23.5-9.2,35.6
		c0,12.4,2,25.5,9.2,35.9c10.5,15.1,31.3,18.7,46.3,8.2c3.1-2.2,5.8-4.9,8.1-8c7.2-10.2,9.2-23,9.2-35.2S733.6,24.6,726.4,14.2z
		 M673.9,15.6c5.6-8.3,15-13.2,25-13.1c10.1-0.3,19.7,4.6,25.3,13.1c7,9.9,8.8,23,8.8,35c0,8.1-1,16.6-4,24.2
		c2.8-7.6,3.7-15.9,3.7-23.8c0.3-12.2-1.5-25.3-8.5-35.2C718.6,7.4,709,2.4,698.9,2.7c-10-0.3-19.5,4.7-25,13.1
		c-0.8,1.1-1.5,2.2-2.1,3.4C672.4,17.9,673.1,16.7,673.9,15.6z M712.6,74.2c-0.7,1.3-1.6,2.5-2.6,3.5c0.9-1,1.8-2.1,2.4-3.3
		c6.6-11.5,9.5-56-13.8-56.6c-3.5-0.1-6.4,0.9-8.7,2.6c2.4-1.9,5.3-2.9,8.9-2.8C721.9,18.5,719,63,712.6,74.2z M689.9,70.4
		c-2.3-6.6-3.4-13.5-3.4-20.5c0-8.6,0.9-16.9,3.8-21.7c1.8-2.9,4.9-4.7,8.3-4.7c3.6,0.3,6.7,2.4,8.3,5.6c2.7,4.7,3.8,12.4,3.8,20.8
		c0.2,7.4-0.5,15.6-2.7,20.3h0c-1.5,3.8-5.2,6.2-9.2,6.1C694.9,76.7,691.1,74.3,689.9,70.4z M698.6,79.2c4.8,0.4,9.3-2.1,11.5-6.3
		c1.6-3.3,2.7-6.9,3.2-10.6c0.9-5.1,1.2-10.4,0.9-15.6c-0.1-7.5-1.8-18.9-8.4-23.9c6.8,4.9,8.5,16.6,8.9,24.4
		c0,5.1-0.4,10.2-1.1,15.3c-0.5,3.7-1.6,7.3-3.2,10.6c-2.2,4.2-6.8,6.7-11.5,6.3c-2.9,0.2-5.7-0.8-7.8-2.7
		C693.1,78.4,695.8,79.4,698.6,79.2z M676.1,17.2c-5.6,7.9-8.3,18.7-8.3,32.7s2.7,24.8,8.3,32.7c5.6,7.9,14.5,12,23.4,11.9
		c-5.9,0.1-12-1.6-17.2-5.4c-2.5-1.8-4.7-4-6.5-6.6c-5.6-7.9-8.3-18.9-8.3-32.7s2.7-24.8,8.3-32.7c4.8-7.2,12.8-11.7,21.4-12
		C688.8,5.6,680.9,10,676.1,17.2z"/>
	<path class="st0" d="M597.2,6.1c-3.1,2.2-5.8,4.8-8,7.9C582,24.2,580,37.5,580,49.6c0,12.4,2,25.5,9.2,35.9
		c10.5,15.1,31.3,18.7,46.3,8.2c3.1-2.2,5.8-4.9,8-8c7.2-10.2,9.2-23,9.2-35.2c0.2-12.2-1.8-26-9-36.3
		C633.2-0.9,612.3-4.5,597.2,6.1z M604.4,49.9c0-8.6,0.9-16.9,3.8-21.7c1.8-2.9,4.9-4.7,8.3-4.7c3.6,0.3,6.7,2.4,8.3,5.6
		c2.7,4.7,3.8,12.4,3.8,20.8c0.2,7.4-0.5,15.6-2.7,20.3c-1.5,3.8-5.2,6.2-9.2,6.1c-4,0.5-7.8-2-9-5.9
		C605.5,63.8,604.3,56.9,604.4,49.9z M631,62.5c-0.5,3.7-1.6,7.3-3.2,10.6c-2.2,4.2-6.7,6.7-11.5,6.3h-0.9c-2.9-0.1-5.6-1.3-7.5-3.4
		c1.9,1.9,4.5,3.1,7.2,3.1h0.9c4.8,0.4,9.3-2.1,11.5-6.3c1.6-3.3,2.7-6.9,3.2-10.6c0.9-5.1,1.2-10.4,0.9-15.6
		c0-6.9-1.4-17.1-6.7-22.5c5.6,5.4,7.1,15.9,7.4,23.1C632.3,52.3,631.9,57.4,631,62.5z M616.3,17.8c-14.4-0.4-18.3,17-17.6,33.1
		c-0.6-16,3.3-33.6,17.6-33.3c13,0.5,17.8,14.8,18.3,29.3C634.1,32.4,629.2,18.2,616.3,17.8z M602.6,90.8c-0.1,0-0.1-0.1-0.2-0.1
		C602.4,90.7,602.5,90.7,602.6,90.8z M601.3,90c0,0-0.1,0-0.1-0.1C601.2,90,601.3,90,601.3,90z M600.1,89.2
		C600.1,89.2,600.1,89.2,600.1,89.2C600,89.2,600,89.1,600.1,89.2C600,89.2,600.1,89.2,600.1,89.2z M606.5,92.7
		c-0.2-0.1-0.4-0.2-0.7-0.3C606,92.5,606.3,92.6,606.5,92.7z M605.2,92.1c-0.2-0.1-0.3-0.2-0.5-0.2C604.8,92,605,92,605.2,92.1z
		 M603.8,91.5c-0.1-0.1-0.2-0.1-0.3-0.2C603.6,91.4,603.7,91.4,603.8,91.5z M614.4,94.4c-0.1,0-0.1,0-0.2,0
		C614.2,94.4,614.3,94.4,614.4,94.4z M613.1,94.3c-0.2,0-0.4-0.1-0.7-0.1C612.6,94.2,612.8,94.3,613.1,94.3z M611.8,94.1
		c-0.3-0.1-0.6-0.1-0.9-0.2C611.2,94,611.5,94.1,611.8,94.1z M610.5,93.8c-0.3-0.1-0.7-0.2-1-0.2C609.8,93.7,610.1,93.8,610.5,93.8z
		 M609.1,93.5c-0.3-0.1-0.6-0.2-0.9-0.3C608.5,93.3,608.8,93.4,609.1,93.5z M607.8,93.1c-0.3-0.1-0.6-0.2-0.8-0.3
		C607.3,92.9,607.5,93,607.8,93.1z M634.5,88.1c-0.4,0.3-0.8,0.7-1.3,1C633.7,88.8,634.1,88.5,634.5,88.1z M632.5,89.6
		c-0.1,0.1-0.2,0.1-0.2,0.2C632.4,89.7,632.5,89.7,632.5,89.6z M631.3,90.4c0,0-0.1,0-0.1,0.1C631.3,90.4,631.3,90.4,631.3,90.4z
		 M639.1,83.4c-0.2,0.3-0.4,0.6-0.6,0.8C638.7,83.9,638.9,83.6,639.1,83.4z M637.8,85c-0.3,0.4-0.7,0.8-1.1,1.1
		C637.1,85.7,637.5,85.4,637.8,85z M636.1,86.8c-0.3,0.3-0.6,0.5-0.8,0.8C635.5,87.3,635.8,87,636.1,86.8z M596.7,86.3
		c-0.1-0.1-0.1-0.1-0.2-0.2C596.5,86.1,596.6,86.2,596.7,86.3z M595.1,84.6c-0.1-0.1-0.3-0.3-0.4-0.5
		C594.9,84.3,595,84.5,595.1,84.6z M593.8,82.9c-0.1-0.1-0.1-0.2-0.2-0.3c-0.7-1-1.4-2.1-2-3.2c0.6,1.1,1.3,2.2,2,3.2
		C593.6,82.7,593.7,82.8,593.8,82.9z M585.2,50.6c0-0.2,0-0.4,0-0.7c0,0,0,0,0,0C585.2,50.1,585.2,50.3,585.2,50.6z M648.2,69.9
		c1.6-6.2,2.1-12.7,2.1-18.9c0-12.2-1.8-25.3-8.5-35.2c-5.6-8.5-15.1-13.4-25.3-13.1c-10-0.3-19.5,4.7-25,13.1
		c-0.8,1-1.4,2.1-2.1,3.2c0.7-1.2,1.4-2.4,2.1-3.5c5.6-8.3,15-13.2,25-13.1c10.1-0.3,19.7,4.6,25.2,13.1c7,9.9,8.8,23,8.8,35
		C650.5,57,649.9,63.6,648.2,69.9z"/>
	<path class="st0" d="M559,40.4c-3.9-3.4-8.4-6.1-13.3-7.7c-3-1-6.1-1.5-9.2-1.6H536c1.1-2,2.2-4.1,3.4-5.9c1.6-2.8,3.5-5.5,5.4-8.1
		c1.4-2.1,3-4.2,4.7-6.1l5.9-6.8l-23.9-3.8l-1.8,1.8c-3.6,3.8-6.8,7.9-9.5,12.4c-3.7,5.5-7,11.2-9.9,17.1c-4.7,9.7-10.8,24.1-9.9,35
		c0.5,18,14.9,32.5,32.9,33.2c4.6,0.3,9.3-0.5,13.5-2.3c4.2-1.6,8-4,11.3-7c6.5-6,10.5-14.4,11-23.2c0-0.9,0.2-1.8,0.2-2.5
		c0.6-5-0.4-10-2.7-14.5C564.8,46.7,562.2,43.3,559,40.4z M520.7,65.2C521,57,527.8,50.7,536,51c0.3,0,0.6,0,0.9,0.1
		c-0.2,0-0.4,0-0.7,0H536c-7.8,0.1-14.1,6.4-14.1,14.3c0.1,7.8,6.4,14.1,14.3,14.1c7.5-0.1,13.5-5.9,14-13.2c0,0.1,0,0.1,0,0.2
		c0,0,0,0,0,0c-0.3,8.2-7.2,14.5-15.3,14.2c0,0,0,0,0,0v0C526.7,80.2,520.3,73.3,520.7,65.2z M547,65.9C547,65.9,547,65.9,547,65.9
		c0,6.5-5.3,11.7-11.7,11.7c-6.5,0-11.7-5.3-11.7-11.7c0-6.5,5.3-11.7,11.7-11.7C541.8,54.2,547,59.4,547,65.9z M518.4,65
		c-0.4,9.5,7,17.4,16.4,17.8c0,0-0.1,0-0.1,0l0,0c-9.5-0.4-16.8-8.4-16.4-17.8c0.4-8.9,7.5-16,16.2-16.4
		C525.8,49.1,518.7,56.1,518.4,65z M555.8,44.3c-3.3-3-7.2-5.3-11.5-6.6c-0.2-0.1-0.4-0.1-0.6-0.2c0.2,0.1,0.4,0.1,0.6,0.1
		C548.6,39,552.6,41.2,555.8,44.3c6,5.2,9.3,12.8,9,20.7c0.1,0.8,0,1.5-0.2,2.3h0c-0.3,6.3-2.5,12-6.1,16.6
		c3.6-4.6,5.8-10.4,6.1-16.6c0-0.7,0.2-1.6,0.2-2.3C565.1,57.1,561.8,49.5,555.8,44.3z M558.4,84c-0.2,0.3-0.5,0.6-0.7,0.9
		C558,84.6,558.2,84.3,558.4,84z M557.5,85.2c-0.2,0.2-0.4,0.5-0.6,0.7C557.1,85.6,557.3,85.4,557.5,85.2z M556.4,86.3
		c-0.2,0.2-0.3,0.3-0.5,0.5C556.1,86.6,556.3,86.5,556.4,86.3z M555.3,87.4c-0.1,0.1-0.2,0.2-0.3,0.3
		C555.1,87.6,555.2,87.5,555.3,87.4z M554.1,88.5c0,0-0.1,0.1-0.1,0.1C554,88.6,554,88.5,554.1,88.5z M536.5,36.3h-3.8
		c-1.6,0.2-3.2,0.5-4.7,0.9c4.7-10.6,10.9-20.4,18.3-29.3l-12.4-2c0,0,0,0,0,0l12.4,2c-7.3,9-13.4,18.8-18.3,29.3
		c1.6-0.4,3.1-0.7,4.7-0.9C533.9,36.1,535.2,36.1,536.5,36.3c0.2,0,0.4,0,0.5,0C536.8,36.3,536.6,36.3,536.5,36.3z M507.3,54.1
		C512,36.8,525.6,14.3,533.7,6C525.7,14.4,512,36.8,507.3,54.1z M567.6,65c-0.3,0.8-0.5,1.6-0.5,2.5c-0.4,8.3-4.1,16-10.1,21.6
		c-3,2.8-6.5,4.9-10.4,6.3c-1.6,0.6-3.3,1.1-4.9,1.5c1.5-0.3,3-0.8,4.5-1.4c3.8-1.4,7.4-3.5,10.4-6.3c6.1-5.6,9.7-13.4,10.2-21.7
		c0-0.9,0.2-1.6,0.2-2.5c0.3-8.5-3.2-16.8-9.5-22.6l0-0.1c-3.6-3.2-7.8-5.6-12.4-7c-2.8-0.9-5.7-1.4-8.6-1.6h-4.5
		c1.6-3.4,3.6-6.8,5.4-9.9c1.8-2.9,3.6-5.6,5.4-8.3c1.5-2.2,3.2-4.3,5-6.3l2.9-3.2l-17.5-2.9l0.1-0.1L551.1,6l-2.9,3.2
		c-1.8,2-3.4,4.3-5,6.3c-1.8,2.7-3.6,5.4-5.4,8.3c-2,3.2-3.8,6.5-5.4,9.9h0.5c1.3-0.2,2.7-0.2,4.1,0c2.9,0.2,5.8,0.7,8.6,1.6
		c4.6,1.4,8.8,3.8,12.4,7c2.8,2.7,5.2,5.8,7,9.2C566.9,55.8,567.8,60.4,567.6,65z"/>
</g>
</svg>
