<svg id="Layer_1" data-name="Layer 1" xmlns="http://www.w3.org/2000/svg" width="571.87" height="100" viewBox="0 0 571.87 100"><g id="Ebene_1" data-name="Ebene 1"><path d="M89.15,0l-16,88.18a3,3,0,0,1-2.75,2.37H61a2,2,0,0,1-2-1.9,1.83,1.83,0,0,1,0-.47L74.69,0H62.09L46.34,90.74a7.61,7.61,0,0,0,5.76,9.08,8,8,0,0,0,2,.17h18.8a11.82,11.82,0,0,0,11.22-9.25L101,0Z" transform="translate(0)" fill="#fff"/><path d="M214.64,0H186.19L167.3,100h12.6l8.56-45.27h9a7.08,7.08,0,0,1,1.47,4.13,19.49,19.49,0,0,1,.3,4.82c-.17,1.47-6.9,36.32-6.9,36.32h12.6S212,62,212,61.41a7.5,7.5,0,0,0-.69-3.64,9.89,9.89,0,0,0-2.17-2.85A22.18,22.18,0,0,0,205.38,53h-.89c3.61-1.42,10.41-3.76,11.13-7.57l6.89-35.53C223.55,4.43,220,0,214.64,0Zm-6.7,16.34-5.22,24.6c-.23,1.29-3.43,4.33-4.72,4.33h-5.42a1.85,1.85,0,0,1-2-1.76h0a5.8,5.8,0,0,1,0-.59l5.8-30.21.1-.1.1-.1.19-.1h.1l.1-.09.1-.1h.09l.1-.1h.1l.2-.1h.29v-.1H204C205.35,11.91,208.2,15,207.94,16.34Z" transform="translate(0)" fill="#fff"/><polygon points="154.7 53.83 168.68 53.83 170.64 43.4 156.67 43.4 162.87 12.4 176.85 12.4 178.81 0 152.34 0 132.66 99.99 161 99.99 162.97 87.59 148.99 87.59 154.7 53.83" fill="#fff"/><path d="M136.79,45.47l6.88-35.53c1-5.51-2.47-9.94-7.86-9.94H107.36l-19,100H101l8.66-45.27h16A11.72,11.72,0,0,0,136.79,45.47Zm-7.28-29.13L124.29,41c-.25,1.28-2,4.23-3.25,4.23h-7.58l-.1-.1H113v-.1h-.2l-.1-.09h-.09l-.1-.1-.1-.1h-.1v-.1l-.1-.1-.1-.1v-.09l-.09-.1-.1-.1V44l-.1-.1V43.7l-.1-.1v-.1a5.8,5.8,0,0,1,0-.59l5.9-30.21a3.06,3.06,0,0,1,1.87-.79h6.11C126.91,11.91,129.75,15,129.51,16.34Z" transform="translate(0)" fill="#fff"/><polygon points="282.54 0 272.7 52.26 266.2 0 253.61 0 234.61 99.99 249.08 99.99 260.79 42.02 265.42 99.99 278.02 99.99 297.01 0 282.54 0" fill="#fff"/><path d="M42.21,63.48c0-1.93-15.72-27.88-17.32-28.84-.69-.4-1.26-3-1.28-4.53S25.67,18.2,25.67,18.2a8.3,8.3,0,0,1,7.88-6.69c3.71,0,5.26,3,4.62,6.69L35.32,34.64H48.6l4.63-24.7C54.28,4.44,50.76,0,45.36,0H25.87A12.35,12.35,0,0,0,14.26,9.94v.29l-.1.1v.3l-.1.2V11l-.09.2v.3l-.1.19V12l-.1.29-.1.3-.1.59-.2.69-.09.69-.2.68L13,16l-.2.79-.19.88-.2.79-.3,1.67-.19.89-.2.78-.1.79-.2.79-.19.79-.1.78-.1.69-.2.59-.1.69v.3l-.09.19V28l-.1.29v.4l-.1.19V29c-.1,2.41.23,5.69,1,6.3,1,5.3,18.62,29.82,18.11,33.56S27,83.65,27,83.65c-.64,3.72-3.17,6.69-6.88,6.69a5.51,5.51,0,0,1-5.74-5.27,5.22,5.22,0,0,1,.13-1.42l3.34-18.3H4.62L.19,90.74a7.59,7.59,0,0,0,5.74,9.07A7.72,7.72,0,0,0,8,100h18.8a11.7,11.7,0,0,0,11.12-9.25S42.72,67,42.7,65.35,42.21,63.48,42.21,63.48Z" transform="translate(0)" fill="#fff"/><path d="M516.67,0H488.33l-19,100h28.74a11.8,11.8,0,0,0,11.22-9.25l15.25-80.8C525.58,4.43,522.07,0,516.67,0Zm-6.2,18.21-12.4,65.44a8.51,8.51,0,0,1-8,6.8h-5.71l14.67-78.93h5.81a5.51,5.51,0,0,1,5.73,5.28A5.62,5.62,0,0,1,510.47,18.21Z" transform="translate(0)" fill="#fff"/><polygon points="467.17 0 457.43 52.26 450.93 0 438.24 0 419.24 99.99 433.81 99.99 445.52 42.02 450.14 99.99 462.74 99.99 481.74 0 467.17 0" fill="#fff"/><path d="M563.82,0H542.36a12.25,12.25,0,0,0-11.52,9.94l-14.07,80.8a7.53,7.53,0,0,0,7.68,9.25h20.76a11.83,11.83,0,0,0,11.23-9.25l15.25-80.8C572.73,4.44,569.2,0,563.82,0Zm-8.18,18.21-11.8,65.44a8.31,8.31,0,0,1-7.78,6.8c-3.72,0-5.26-3.08-4.63-6.8l11.71-65.44.1-.3.1-.3.09-.39.1-.29.1-.4.1-.29.1-.3.19-.29.1-.3.2-.29.1-.3.19-.3.2-.19.2-.3.2-.29.29-.2.2-.2.2-.2.29-.19.3-.2.2-.2.29-.2.3-.09.29-.2.2-.1.39-.1.29-.1h.3l.29-.09h.4l.3-.09h.4a5.43,5.43,0,0,1,5.64,5.23A5.14,5.14,0,0,1,555.64,18.21Z" transform="translate(0)" fill="#fff"/><polygon points="351.73 0 341.99 52.26 335.49 0 322.79 0 303.8 99.99 318.36 99.99 330.08 42.02 334.7 99.99 347.3 99.99 366.29 0 351.73 0" fill="#fff"/><polygon points="408.71 53.83 422.69 53.83 424.65 43.4 410.68 43.4 416.78 12.4 430.76 12.4 432.73 0 406.25 0 386.57 99.99 414.91 99.99 416.88 87.59 402.9 87.59 408.71 53.83" fill="#fff"/><polygon points="303.6 0 284.61 99.99 297.21 99.99 316.2 0 303.6 0" fill="#fff"/><polygon points="399.36 12.4 401.33 0 371.61 0 369.25 12.4 377.12 12.4 361.57 99.99 375.94 99.99 391.78 12.4 399.36 12.4" fill="#fff"/></g></svg>