<svg id="Layer_1" data-name="Layer 1" xmlns="http://www.w3.org/2000/svg" width="390.57" height="100" viewBox="0 0 390.57 100"><path d="M290.39,46.52c-4.91.13-9.83,0-14.74,0H260.3c-.52,0-.95-.09-.95.73q0,10.5,0,21c0,.66.24.76.82.75,1.82,0,3.64-.05,5.45,0,.84,0,1.07-.2,1.06-1,0-4.57,0-9.15,0-13.73,0-1.94.74-2.66,2.7-2.66H272c2,0,2.79.84,2.79,2.84,0,4.51,0,9,0,13.53,0,.81.14,1.13,1,1.07,1.38-.08,2.76,0,4.14,0,2.15,0,2.15,0,2.15-2.12V54.39c0-2,.76-2.78,2.81-2.78h2.32c2.25,0,3,.77,3,3,0,4.41,0,8.82,0,13.23,0,1,.29,1.24,1.24,1.18,1.54-.08,3.1-.07,4.64,0,.88,0,1.2-.14,1.18-1.12-.05-4.85-.16-9.7,0-14.54A6.89,6.89,0,0,0,290.39,46.52Z" fill="#fff" fill-rule="evenodd"/><path d="M281.21,77.29c-4.88.17-9.76,0-14.65,0q-7.77,0-15.55,0c-.55,0-.91,0-.9.76,0,7,0,14,0,21,0,.58.17.73.73.72,1.61,0,3.23,0,4.85,0s1.72,0,1.72-1.73c0-4.38,0-8.76,0-13.13,0-1.75.81-2.53,2.52-2.54h2.72c2.13,0,2.89.77,2.9,2.91,0,4.51,0,9,0,13.54,0,.72.12,1,.92,1,1.85-.07,3.71-.06,5.56,0,.74,0,.88-.24.87-.92,0-4.27,0-8.55,0-12.83a16.27,16.27,0,0,1,0-1.71v-.11a2,2,0,0,1,2.13-1.85c1,0,2.09,0,3.13,0,2.05,0,2.83.8,2.84,2.88,0,4.55,0,9.1,0,13.64,0,.7.16.92.88.9,1.75-.06,3.5-.07,5.25,0,.81,0,.92-.26.92-1,0-4.92-.1-9.84,0-14.75A6.87,6.87,0,0,0,281.21,77.29Z" fill="#fff" fill-rule="evenodd"/><path d="M205.15,47.59a3.91,3.91,0,0,0-2.85-1.05c-2.66,0-5.32,0-8,0h-8.08a2.79,2.79,0,0,0-1.48.21A7.73,7.73,0,0,0,180.53,53c-.17,5.08,0,10.16-.06,15.24,0,.63.19.81.81.79,1.91,0,3.83,0,5.75,0,.64,0,.8-.2.79-.81,0-1.55,0-3.1,0-4.64,0-.65.19-.78.8-.77,3.87,0,7.74,0,11.61,0,.7,0,.83.24.81.87,0,1.44,0,2.89,0,4.34,0,.87.26,1,1.08,1,1.74-.06,3.5-.06,5.25,0,.76,0,1-.15,1-1,0-4.61-.12-9.22,0-13.83A8.32,8.32,0,0,0,205.15,47.59ZM200.33,57.8c-2,0-4,0-6,0s-3.83,0-5.74,0c-.62,0-.9-.1-.85-.8.06-1,0-2,0-3a2,2,0,0,1,0-.49,2.14,2.14,0,0,1,2.38-1.87h8.53A2.33,2.33,0,0,1,201,54c0,1,0,2.08,0,3.12C201,57.66,200.85,57.81,200.33,57.8Z" fill="#fff" fill-rule="evenodd"/><path d="M139.53,62.83a2.15,2.15,0,0,1,1.93,2.34c0,1.07,0,2.15,0,3.23,0,.48.15.65.64.64,1.64,0,3.29,0,4.94,0,.6,0,.64-.27.64-.73,0-1.52,0-3,0-4.55a4.91,4.91,0,0,0-.44-2.35,3,3,0,0,1,.28-3.21c2.41-3.82,1.42-7.79-1.82-10.66a3.73,3.73,0,0,0-2.66-1c-3.46,0-6.93,0-10.4,0s-7.2,0-10.8,0c-.51,0-.86,0-.86.7q0,10.56,0,21.1c0,.52.13.7.67.69,2,0,4,0,6,0,.53,0,.7-.15.68-.68,0-1.08,0-2.16,0-3.23a2,2,0,0,1,0-.35,2.17,2.17,0,0,1,2.36-1.94H139A2.69,2.69,0,0,1,139.53,62.83Zm-9.11-5H130a1.94,1.94,0,0,1-1.75-2.12c-.13-3.51.42-4.21,4-4.07,2.24.09,4.5,0,6.75,0a2.11,2.11,0,0,1,.56,0A2.15,2.15,0,0,1,141.46,54q0,.85,0,1.71a1.77,1.77,0,0,1,0,.46,1.9,1.9,0,0,1-2.15,1.62c-1.48,0-3,0-4.44,0S131.9,57.8,130.42,57.78Z" fill="#fff" fill-rule="evenodd"/><path d="M23.74,64.23c-5.09,0-10.17,0-15.25,0a2.3,2.3,0,0,1-2.23-1.83,2.18,2.18,0,0,1,1.37-2.23A2.84,2.84,0,0,1,8.82,60c4.65,0,9.29,0,13.94,0,.72,0,.91-.19.86-.89a20.72,20.72,0,0,1,0-2.73c.05-.69-.13-.9-.86-.89-2.59,0-5.18,0-7.77,0-2.23,0-4.45,0-6.67,0H8.15a2,2,0,1,1,.07-3.93c.3,0,.6,0,.91,0,4.84,0,9.69,0,14.54,0,.93,0,1.14-.27,1.08-1.12a28.2,28.2,0,0,1,0-3.44c0-.69-.23-.82-.86-.81-3.84,0-7.68,0-11.51,0H.86c-.51,0-.86,0-.86.71,0,5.65,0,11.31,0,17A4.52,4.52,0,0,0,2,67.7,6.65,6.65,0,0,0,6,69c6,0,12.05,0,18.07,0,.57,0,.68-.22.67-.72a29.52,29.52,0,0,1,0-3.12C24.82,64.35,24.48,64.23,23.74,64.23Z" fill="#fff" fill-rule="evenodd"/><path d="M244.17,95c-5.12,0-10.24,0-15.35,0a2.26,2.26,0,0,1-2.2-2.07,2.22,2.22,0,0,1,2-2.11,7.09,7.09,0,0,1,.8,0c4.55,0,9.09,0,13.64,0,.69,0,1-.15.9-.88a19.13,19.13,0,0,1,0-2.73c.07-.8-.25-.93-1-.92-3.3,0-6.6,0-9.9,0-1.51,0-3,0-4.54,0a2,2,0,0,1-2-1.69,2,2,0,0,1,1.27-2.07,3.06,3.06,0,0,1,1.2-.12c5,0,10,0,15,0,.72,0,1-.12,1-.92a29.69,29.69,0,0,1,0-3.53c0-.74-.14-1-.93-1q-11.41,0-22.82,0c-.84,0-1,.27-1,1q.06,8.19,0,16.36a4.83,4.83,0,0,0,2.69,4.51,7.51,7.51,0,0,0,3.77.91h8.49c3,0,5.92,0,8.88,0,.73,0,.92-.2.88-.9a21.89,21.89,0,0,1,0-3C245.18,95.1,244.9,95,244.17,95Z" fill="#fff" fill-rule="evenodd"/><path d="M116,68.4c0-1.07-.06-2.15,0-3.23,0-.72-.12-1-.91-1-5.12,0-10.23,0-15.35,0a2.29,2.29,0,0,1-2.23-1.94A2.2,2.2,0,0,1,99,60.14a3,3,0,0,1,1.19-.12c4.61,0,9.23,0,13.84,0,.63,0,.9-.12.85-.82a16.37,16.37,0,0,1,0-2.62c.07-.81-.14-1.07-1-1.06-4.54,0-9.09,0-13.63,0-1.7,0-2.77-.76-2.76-2s1-2,2.77-2c4.92,0,9.84,0,14.75,0,.74,0,1.08-.1,1-1a27.71,27.71,0,0,1,0-3.53c0-.71-.17-.89-.88-.88-3.8,0-7.61,0-11.41,0s-7.75,0-11.62,0c-.57,0-.81.07-.81.74q0,8.45,0,16.87a4.54,4.54,0,0,0,2,3.79,6.55,6.55,0,0,0,4,1.35c6,0,12.06,0,18.08,0C115.84,69,116,68.88,116,68.4Z" fill="#fff" fill-rule="evenodd"/><path d="M311.37,51.61c4.88,0,9.76,0,14.64,0,.82,0,1.22-.1,1.13-1.07a23.1,23.1,0,0,1,0-3.43c0-.72-.18-.89-.88-.88-3.81,0-7.61,0-11.42,0s-7.74,0-11.61,0c-.59,0-.8.1-.8.75,0,5.66,0,11.32,0,17a4.49,4.49,0,0,0,2,3.75A6.77,6.77,0,0,0,308.53,69c6,0,11.92,0,17.88,0,.6,0,.74-.19.72-.75a29.71,29.71,0,0,1,0-3.13c.06-.76-.17-.94-.93-.93-5.08,0-10.16,0-15.25,0a2.34,2.34,0,0,1-2.33-1.95,2.27,2.27,0,0,1,1.51-2.16,3.07,3.07,0,0,1,1.09-.11c4.65,0,9.3,0,13.94,0,.65,0,.88-.16.84-.83a16.37,16.37,0,0,1,0-2.62c.07-.81-.14-1.07-1-1.06-4.55,0-9.09,0-13.64,0-1.69,0-2.77-.77-2.76-2S309.65,51.61,311.37,51.61Z" fill="#fff" fill-rule="evenodd"/><path d="M182.18,86.44H171a3.76,3.76,0,0,1-1.49-.19,1.86,1.86,0,0,1,.05-3.6,4.17,4.17,0,0,1,1.49-.17c5.55,0,11.11,0,16.66,0,.68,0,.95-.14.91-.87a24.87,24.87,0,0,1,0-3.23c0-.79-.18-1-1-1-6,0-12,.09-18.07,0a8.5,8.5,0,0,0-6.73,3.27,6.68,6.68,0,0,0-.49,6,8,8,0,0,0,6.75,4h5.25c2.05,0,4.11,0,6.16,0a2.23,2.23,0,0,1,2.19,2,2.34,2.34,0,0,1-2.23,2.18c-.3,0-.6,0-.91,0-5.55,0-11.1,0-16.66,0-.74,0-1,.15-1,.94a30.82,30.82,0,0,1,0,3.33c0,.68.2.84.85.84,3.3,0,6.6,0,9.9,0,2.92,0,5.86-.09,8.78,0a7.75,7.75,0,0,0,5.65-2.44,5.45,5.45,0,0,0,1.51-4.69A6.85,6.85,0,0,0,182.18,86.44Z" fill="#fff" fill-rule="evenodd"/><path d="M122.65,86.39c-3.73.17-7.47,0-11.21,0a3.47,3.47,0,0,1-1.39-.19,1.86,1.86,0,0,1,0-3.59,3.77,3.77,0,0,1,1.49-.18c5.56,0,11.11,0,16.67,0,.78,0,1-.22.92-1a24.87,24.87,0,0,1,0-3.23c.06-.8-.23-.93-1-.93-6,0-11.92.11-17.88,0a8.6,8.6,0,0,0-6.54,2.81,6.33,6.33,0,0,0-1,6.3,7.67,7.67,0,0,0,6.51,4.14c3.63.09,7.27,0,10.91,0,.33,0,.67,0,1,0a2.33,2.33,0,0,1,2,1.94,2.36,2.36,0,0,1-2,2.18,6.81,6.81,0,0,1-1,0c-5.59,0-11.18,0-16.77,0-.81,0-1,.22-1,1a21.8,21.8,0,0,1,0,3.13c-.07.85.28,1,1,1,3.23,0,6.47,0,9.7,0s6.35.25,9.49-.05c5.1-.5,7.44-4.14,6.3-8.91A8.05,8.05,0,0,0,122.65,86.39Z" fill="#fff" fill-rule="evenodd"/><path d="M59.58,53.32a6.88,6.88,0,0,0-7-6.8c-3.53.14-7.06,0-10.6,0-3.8,0-7.6,0-11.41,0-.54,0-.85,0-.85.74q0,10.5,0,21c0,.65.23.78.81.76,1.79,0,3.57-.05,5.35,0,.89,0,1.2-.16,1.19-1.13-.06-4.58,0-9.16,0-13.73,0-1.83.76-2.58,2.58-2.58h10c2,0,2.84.89,2.84,2.83,0,4.54,0,9.09,0,13.63,0,.82.23,1,1,1,1.64-.06,3.3-.06,4.94,0,.85,0,1.14-.13,1.13-1.08,0-4.84-.14-9.69,0-14.54Z" fill="#fff" fill-rule="evenodd"/><path d="M253.38,69.05c.77,0,1-.21.94-1,0-4.92,0-9.83,0-14.75a3.69,3.69,0,0,0,0-.47,6.57,6.57,0,0,0-6.82-6.32H236.77c-3.81,0-7.61,0-11.42,0-.55,0-.85.05-.84.75q0,10.5,0,21c0,.58.17.75.74.74,1.86,0,3.71-.05,5.56,0,.85,0,1.05-.24,1-1.06,0-4.58,0-9.16,0-13.74,0-1.89.77-2.64,2.63-2.64h9.9c2,0,2.91.89,2.91,2.88,0,4.51,0,9,0,13.53,0,.86.24,1.07,1.07,1C250,69,251.69,69,253.38,69.05Z" fill="#fff" fill-rule="evenodd"/><path d="M360.88,53.33a4.51,4.51,0,0,0,0-.52,6.54,6.54,0,0,0-6.8-6.26H343.37c-3.81,0-7.61,0-11.42,0-.58,0-.82.08-.82.75q0,10.51,0,21c0,.57.15.75.73.73,1.89,0,3.77-.05,5.66,0,.78,0,.93-.21.93-1,0-4.62,0-9.23,0-13.84,0-1.87.77-2.65,2.62-2.65h9.8c2.17,0,3,.82,3,3,0,4.47,0,8.95,0,13.43,0,.76.13,1.07,1,1,1.71-.07,3.43-.07,5.15,0,.8,0,.92-.25.92-1C360.87,63.17,360.89,58.25,360.88,53.33Z" fill="#fff" fill-rule="evenodd"/><path d="M158.9,78.22c0-.71-.25-.83-.87-.82-1.75,0-3.5.07-5.25,0-.81,0-.93.26-.92,1,0,2.22,0,4.44,0,6.66a2.44,2.44,0,0,1,0,.27,2.28,2.28,0,0,1-2.33,2.22q-4.45.06-8.89,0h-.21a2.24,2.24,0,0,1-2.06-2.41c0-2.32,0-4.64,0-7,0-.58-.16-.75-.73-.73-1.85,0-3.7,0-5.55,0-.67,0-.78.24-.77.82,0,1.48,0,3,0,4.45s.1,3,0,4.44c-.19,2.27,3.34,5.77,5.52,5.51,1.26-.16,2.56,0,3.84,0,.63,0,.79.18.78.79,0,1.92,0,3.84,0,5.76,0,.63.19.8.8.79,1.92,0,3.84,0,5.75,0,.63,0,.81-.16.8-.79,0-1.92,0-3.84,0-5.76,0-.62.18-.81.8-.79,1.28,0,2.57-.12,3.83,0,2.14.26,5.61-3.17,5.52-5.42C158.8,84.21,158.86,81.21,158.9,78.22Z" fill="#fff" fill-rule="evenodd"/><path d="M87.1,46.52c-3.91.07-7.81,0-11.72,0s-7.87,0-11.81,0c-.69,0-1,.08-1,.9a28.46,28.46,0,0,1,0,3.33c0,.65.14.87.82.85,2.19,0,4.37,0,6.56,0,1.78,0,1.9.13,1.91,1.88,0,4.81,0,9.62,0,14.44,0,.83.11,1.18,1.07,1.13a47.88,47.88,0,0,1,4.94,0c.87,0,1.05-.24,1.05-1.07,0-4.84,0-9.69,0-14.54,0-1.72.12-1.81,1.85-1.83q3.33,0,6.66,0c.58,0,.77-.16.74-.74a31.64,31.64,0,0,1,0-3.23C88.24,46.8,88,46.51,87.1,46.52Z" fill="#fff" fill-rule="evenodd"/><path d="M167.11,69.05c.79,0,1-.19,1-1,0-4.88,0-9.76,0-14.64,0-1.63.14-1.79,1.78-1.8q3.39,0,6.76,0c.56,0,.77-.14.75-.73a30.82,30.82,0,0,1,0-3.33c.07-.88-.26-1-1.07-1-3.9,0-7.81,0-11.71,0s-7.94,0-11.91,0c-.68,0-1,.13-.92.87a32.7,32.7,0,0,1,0,3.43c0,.66.22.79.81.78,2.25,0,4.51,0,6.76,0,1.59,0,1.7.14,1.71,1.75,0,4.94,0,9.89,0,14.84,0,.66.17.86.84.85C163.61,69,165.36,69,167.11,69.05Z" fill="#fff" fill-rule="evenodd"/><path d="M390.57,50.66a29,29,0,0,1,0-3.23c0-.71-.19-.9-.89-.89-4,0-7.95,0-11.92,0s-7.94,0-11.92,0c-.65,0-.89.14-.86.83a32.7,32.7,0,0,1,0,3.43c0,.72.25.83.88.82,2.15,0,4.3,0,6.46,0,1.85,0,1.92.07,1.92,1.93,0,4.88,0,9.77,0,14.65,0,.65.15.87.83.86,1.75,0,3.5-.06,5.25,0,.81,0,1-.22,1-1,0-4.85,0-9.69,0-14.54,0-1.75.13-1.88,1.9-1.9,2.16,0,4.31,0,6.47,0C390.43,51.65,390.61,51.39,390.57,50.66Z" fill="#fff" fill-rule="evenodd"/><path d="M216.43,77.32c-3.94,0-7.88,0-11.82,0s-8,0-12,0c-.64,0-.89.12-.85.82,0,1.14,0,2.29,0,3.43,0,.67.17.86.84.84,2.25,0,4.51,0,6.77,0,1.55,0,1.67.11,1.67,1.65,0,4.89,0,9.77,0,14.65,0,1,.29,1.16,1.17,1.12,1.57-.07,3.16-.07,4.74,0,.88,0,1.19-.16,1.18-1.13-.06-4.71,0-9.42,0-14.14,0-2.15,0-2.15,2.11-2.15s4.24,0,6.36,0c.61,0,.83-.16.8-.79-.05-1.14-.06-2.29,0-3.43C217.38,77.45,217.1,77.31,216.43,77.32Z" fill="#fff" fill-rule="evenodd"/><path d="M219.62,46.54c-1.78,0-3.56.05-5.34,0-.74,0-1,.15-1,.93.05,3.43,0,6.86,0,10.3s0,7,0,10.49c0,.61.13.81.77.8,1.82,0,3.64,0,5.45,0,.59,0,.82-.11.82-.77q0-10.48,0-21C220.37,46.7,220.19,46.53,219.62,46.54Z" fill="#fff" fill-rule="evenodd"/><path d="M64.71,37.5c3,0,6,0,9,0,1,0,1.29-.16,1.29-1.23-.06-8.15,0-16.3,0-24.45v-1a3.48,3.48,0,0,1,.79.92q8.09,12.48,16.13,25a1.39,1.39,0,0,0,1.35.78c3.16,0,6.33,0,9.49,0,.71,0,.9-.19.9-.9q0-17.83,0-35.66c0-.67-.19-.84-.84-.83-3.13,0-6.26.05-9.39,0-.83,0-1.06.2-1.06,1,0,7.87,0,15.75,0,23.63v1.07l-.2,0Q84.22,13.41,76.33.92A1.47,1.47,0,0,0,74.9.12c-3.4,0-6.8,0-10.2,0-.7,0-1,.09-1,.91q0,17.78,0,35.55C63.73,37.38,64,37.51,64.71,37.5Z" fill="#fff" fill-rule="evenodd"/><path d="M272.38,38.29A20.17,20.17,0,0,0,278.56,37c.18-.07.6-.57.68,0s.51.5.88.5c3.19,0,6.39,0,9.59,0,.69,0,.83-.22.83-.86q0-17.83,0-35.67c0-.75-.26-.86-.92-.85-2.46,0-4.92,0-7.38,0-1,0-2.23-.43-2.8.19s-.16,1.86-.16,2.83c0,3.49,0,7,0,10.65l-1-.58A13,13,0,0,0,260.92,32,12.37,12.37,0,0,0,272.38,38.29Zm-1.75-18.68a4.31,4.31,0,0,1,8.62.29c.05,1.78,0,3.57,0,5.35s0,3.57,0,5.35a2.9,2.9,0,0,1-2.7,3.09,9.44,9.44,0,0,1-3.31,0,2.8,2.8,0,0,1-2.63-2.85C270.54,27.07,270.49,23.33,270.63,19.61Z" fill="#fff" fill-rule="evenodd"/><path d="M222.8,38.35c3.16,0,6.33,0,9.49,0,.7,0,.9-.15.89-.87,0-5,.09-10-.07-15a4,4,0,0,1,2.54-4.12,10.57,10.57,0,0,1,2.24-.89l.3-.05a4.86,4.86,0,0,1,5.34,4.33c0,5.25,0,10.5,0,15.75,0,.7.17.91.88.9,3.27,0,6.53,0,9.8,0,.76,0,.85-.26.85-.92q0-8.07,0-16.16a4.53,4.53,0,0,0-.71-2.58c-3.78-5.67-11.28-8.65-17.78-4.9a23.61,23.61,0,0,1-3.39,1.75,14.42,14.42,0,0,1,0-1.47c.08-.74-.1-1-.95-1-3.13.06-6.26,0-9.39,0-.67,0-.92.12-.92.86q0,11.78,0,23.53C221.91,38.15,222.08,38.36,222.8,38.35Z" fill="#fff" fill-rule="evenodd"/><path d="M128.93,37.5c3,0,6.06,0,9.09,0,.94,0,1.24-.17,1.23-1.18-.06-4.95.07-9.9-.07-14.85a3.94,3.94,0,0,1,2.43-4,11.73,11.73,0,0,1,2.13-.9,7,7,0,0,1,.78-.11A4.82,4.82,0,0,1,149.63,21c0,5.15,0,10.3,0,15.46,0,.85.24,1.05,1.07,1q4.65-.07,9.29,0c.89,0,1.2-.17,1.19-1.14-.06-4.81-.17-9.63,0-14.44a8.33,8.33,0,0,0-3-6.73A13.06,13.06,0,0,0,142,13.26c-.84.53-1.75,1-2.78,1.49a16.67,16.67,0,0,1,0-1.73c.07-.69-.22-.82-.85-.82q-4.8,0-9.6,0c-.63,0-.78.18-.78.8q0,11.81,0,23.63C128,37.37,128.25,37.51,128.93,37.5Z" fill="#fff" fill-rule="evenodd"/><path d="M322.72,15a18,18,0,0,0-11.12-3.64,18.3,18.3,0,0,0-11.05,3.45,12.78,12.78,0,0,0-3.1,2.95,12.53,12.53,0,0,0,2.62,17.52,18.86,18.86,0,0,0,23-.12C329.94,29.53,329.78,20.39,322.72,15ZM312.4,35.72a9.46,9.46,0,0,1-2.71-.12,2.93,2.93,0,0,1-2.58-3.11c0-2.42,0-4.84,0-7.27h0c0-2.32,0-4.64,0-7a4,4,0,0,1,0-.69,4.09,4.09,0,0,1,4.43-3.69,5.28,5.28,0,0,1,.56,0,4,4,0,0,1,3.68,4.35q.06,7,0,14a3,3,0,0,1,0,.52A3.17,3.17,0,0,1,312.4,35.72Z" fill="#fff" fill-rule="evenodd"/><path d="M189.15,34.91a18.93,18.93,0,0,0,21.43,1.69,14,14,0,0,0,6.12-7c.15-.41.39-.83-.43-.82q-5.09,0-10.19,0c-.5,0-.63.16-.62.63,0,.95,0,1.89,0,2.83a3.18,3.18,0,0,1-2.73,3.36,8.85,8.85,0,0,1-2.62.12,2.9,2.9,0,0,1-.51,0,3.17,3.17,0,0,1-2.83-3.47c0-2.09,0-4.18,0-6.26,0-.74.24-.87.91-.86,3.17,0,6.33,0,9.49,0s6.33,0,9.49,0c.81,0,.94-.25.86-1a12.76,12.76,0,0,0-4.35-8.39,18.92,18.92,0,0,0-24-.18A12.1,12.1,0,0,0,187,17.68,12.28,12.28,0,0,0,189.15,34.91Zm7.68-17.33a.76.76,0,0,1,0-.15,4,4,0,0,1,4.33-3.54A4.24,4.24,0,0,1,205.46,18c.2,3,.2,3-2.72,3h-1.61c-1.24,0-2.49,0-3.73,0-.38,0-.65,0-.63-.52C196.81,19.46,196.72,18.51,196.83,17.58Z" fill="#fff" fill-rule="evenodd"/><path d="M162.75,12.23c1.41,0,2.83,0,4.24,0,.69,0,.91.16.9.88,0,3.91,0,7.81,0,11.72s0,7.88,0,11.82c0,.72.2.89.9.89,3.2,0,6.4,0,9.6,0,.84,0,1-.23,1-1.06,0-7,0-14,0-21,0-1-.35-2.44.17-3s2-.18,3.09-.2c2.69,0,2.67,0,2.63-2.68,0-.57-.16-.74-.73-.72-1.48,0-3,0-4.45,0-.56,0-.75-.14-.73-.72,0-1.28,0-2.56,0-3.84,0-.64-.2-.79-.8-.78q-5,0-10,0c-.58,0-.76.16-.74.73,0,1.31,0,2.63,0,3.94,0,.54-.17.69-.69.67-.87,0-1.75,0-2.63,0-2.7,0-2.68,0-2.6,2.68C162,12.12,162.21,12.24,162.75,12.23Z" fill="#fff" fill-rule="evenodd"/><path d="M111.51,37.5c3.13,0,6.26,0,9.39,0,.76,0,.95-.19.95-.95,0-3.9,0-7.81,0-11.71s0-7.88,0-11.82c0-.67-.19-.84-.84-.83-3.16,0-6.33,0-9.49,0-.69,0-.92.14-.91.88q0,11.76,0,23.53C110.6,37.33,110.81,37.51,111.51,37.5Z" fill="#fff" fill-rule="evenodd"/><path d="M111.33,6.86c1.62,0,3.24,0,4.85,0s3.3,0,4.95,0c.49,0,.72-.08.71-.65q0-2.73,0-5.46c0-.47-.13-.63-.62-.63-3.33,0-6.67,0-10,0-.51,0-.62.18-.61.64,0,1.79,0,3.57,0,5.36C110.59,6.68,110.75,6.87,111.33,6.86Z" fill="#fff" fill-rule="evenodd"/></svg>