<svg id="Layer_1" data-name="Layer 1" xmlns="http://www.w3.org/2000/svg" width="150.36" height="100" viewBox="0 0 150.36 100"><path d="M71,37.13s-2.74,8.67-6.57,17.69-4.35,13-2.26,15.78c2.36,3.18,4.62,0,6.58,1.35s13.17-7.42,9.73-10.49c-2-1.78-2.65,2.9-5.71,2.54-2.47-.28,1.56-9.86,3.22-14.08,1.45-6.75,7.61-21.18.86-22.35C73.6,27,65.69,35,61.12,40.73c-3.78,4.78-12.2,16-12.2,16s2.25-8,3.77-13.79C54,38,58.18,27.73,57.24,26.05s-.73-3.66-1.51-5.23h.09c-1-2-2.74-2.54-5.91,0-9,7.2-41.81,50.49-45.46,57C2.2,81.92-.73,78.78.17,87.32A36,36,0,0,0,7.37,86c7.21-11.24,22.51-35.72,39.16-54A180,180,0,0,0,41,50.41c-1.57,6.31-2.93,15.75-2.93,15.75s2.53,4,5,3.38c4.72-1.1,9-7.21,16.2-17.56A146.94,146.94,0,0,1,71,37.13Z" transform="translate(0 0)" fill="#fff"/><path d="M147.54,55.38c-5.75-9.25-22.37-12.65-40-5.81l0-.07c13.9-9.73,25.4-26.56,22.11-36.93C127.18,4.76,119.88-.4,109.68,0c-8.08.3-19,6.83-21.67,12.81a4.11,4.11,0,0,1-.94,1.26,3.44,3.44,0,0,1-1.4.77c-1.83.38-6.94,3.56-6.83,6.82a4.15,4.15,0,0,0,.81,2.16,5.52,5.52,0,0,0,3.18,2.25,7.62,7.62,0,0,0,5.49-1.19l.58-.41a9.11,9.11,0,0,0,1.3-1.18c.26-.26.62-.57,1.34-1.17,1.29-1.07,2.58-2,3.12-2.36a32.51,32.51,0,0,1,9.15-4.12,18.26,18.26,0,0,1,7.31-.68,9.55,9.55,0,0,1,3.66,1,10,10,0,0,1,4.15,8.54c-.38,11.08-23.79,21.67-29.41,23.77a5.15,5.15,0,0,0-2.43,1.38c-2,2.21-1.31,6.45.17,9.14A10.56,10.56,0,0,0,94,64.53c5.25.57,8.91,0,27.64-2.58a22.33,22.33,0,0,1,9.65.71,5.82,5.82,0,0,1,3.29,2,7,7,0,0,1,.5,5.8c-2.2,7.1-17.25,8.78-18.78,8.93-4.76.47-10.9-.46-23-2.29-10-1.52-9.76-1.79-13.17-2S63.34,75,56.35,81c-.57.47-2.36,3.31-1.46,5.25.27.58,1.35,2.32,2.3,2.63a1.23,1.23,0,0,1,.71.51,1.06,1.06,0,0,1,.19.62,13.28,13.28,0,0,0,1.48,4,9.91,9.91,0,0,0,3.89,4.41,11.24,11.24,0,0,0,4.06,1.56,2.75,2.75,0,0,0,1.58-.13,2.82,2.82,0,0,0,1.26-1.48c1-2.14,6.53-4.36,7.31-4.67,6-2.23,22.21-.67,31.35-.67,7.22,0,20.54-.28,31.27-8.76a24.17,24.17,0,0,0,9.53-13.48A21.36,21.36,0,0,0,147.54,55.38Z" transform="translate(0 0)" fill="#fff"/></svg>