<?xml version="1.0" encoding="utf-8"?>
<!-- Generator: Adobe Illustrator 25.4.1, SVG Export Plug-In . SVG Version: 6.00 Build 0)  -->
<svg version="1.1" id="Calque_2" xmlns="http://www.w3.org/2000/svg" xmlns:xlink="http://www.w3.org/1999/xlink" x="0px" y="0px"
	 viewBox="0 0 311.3 100" style="enable-background:new 0 0 311.3 100;" xml:space="preserve">
<style type="text/css">
	.st0{fill:#FFFFFF;}
</style>
<g>
	<path class="st0" d="M36.7,51c0.9,0.9,1.6,2.1,2.4,2.3c6.6,1.5,9,0.2,11.8-6c0.9-2.4,2-4.7,3.2-7c0.7-1.2,1.9-2,3.2-2.3
		c3.3-0.3,6.6-0.1,10-0.1c1,5.4,1.9,10.4,2.9,15.4h18c3-9.2,5.9-18.3,8.8-27.4l0.8,0.1c1.9,9,3.8,18.1,5.6,27
		c5.1,1.5,8.3,0.3,9.5-4.8c0.3-0.9,0.6-1.7,1-2.5c3.3-7.7,6.7-15.3,10-23l0.7,0.2l1.4,30.2h10.5c-0.7-17.4-1.5-34.4-2.2-51.7
		c-2.7,0.2-5.5,0.1-8.2-0.1c-3.7-0.5-5.3,1.1-6.6,4.4c-3,7.7-6.4,15.3-10.1,24l-5.2-27.7c-9.7-1.9-10.3-1.6-13.1,7
		c-0.4,1.2-0.7,2.3-1.1,3.5c-3.2,9.7-6.3,19.3-9.5,29l-0.9-0.1C77.5,28,75.3,14.7,73,1.3c-2.8,0.2-5.6,0.1-8.3-0.1
		c-3.7-0.5-5.3,1-6.7,4.3c-4.7,11.2-9.7,22.2-14.6,33.3c-0.6,1.3-1.4,2.6-2,3.9l-0.9-0.4c0.7-4.7,1.5-9.3,2.3-14.3H23
		c-0.4,3.2-0.8,6.1-1.2,9.5h7.9c-0.3,2-0.5,3.4-0.7,4.8c-5.7,1-11.2,2.1-15.2-3.2c-3.4-4.3-4-10.2-1.6-15.1
		c2.8-6.8,9.1-11.5,16.4-12.3c5.5-0.8,11.2-0.2,17.2-0.2c0.4-2.9,0.8-6.2,1.2-9.2c-14.1-5.5-31.5-1-40.6,10.1
		c-11.3,13.8-7.2,33.6,8.1,39.7C22.2,55.1,29.8,54.1,36.7,51z M59.6,27.3c1.3-3,2.5-5.9,3.8-8.7l1,0.3c0.5,2.8,1,5.5,1.6,8.7h-6.4
		C59.5,27.4,59.5,27.3,59.6,27.3z"/>
	<path class="st0" d="M145.2,63.6c-10.2-1.5-10.2-1.5-14.6,6.6L121.3,87c-3.3-5.7-6.9-10.5-9.1-15.9c-3-7.2-7.9-9.2-14.9-7.9
		c-0.3,0.1-0.6,0.2-0.8,0.3c-0.1,0.9-0.2,1.8-0.3,2.5c-1.9-0.7-3.8-1.2-5.6-1.7c-1.3-0.5-2.7-0.8-4.2-0.9c-0.4,0-0.8,0-1.3-0.1
		c-9.2-1.1-18.3,0-27.4,0.1c-0.1,7.6-0.1,15.1-0.2,22.7v6.6L55.4,89c-4.7-7.6-9.3-15.2-14-22.8c-2.8-4.6-10.2-4.7-12.9-0.1
		c-6,10-11.9,20.1-17.8,30.1c-0.6,1-1,2-1.5,3.1h25.1v-7.9H24c3.6-6.5,6.9-12.4,10.5-18.8c4.8,8.5,9.2,16.4,13.8,24.2
		c0.7,1.2,2.3,2.8,3.5,2.8c4.9,0,9.9,0,14.8-0.1c0.6,0.1,1.3,0.2,1.9,0.2c0,0,0,0,0,0h0.6c1.8-0.2,3.7-0.2,5.6-0.4
		c0.4,0,0.7,0,1.1-0.1c4.1-0.1,8.2-0.3,12.3-0.6c9.1-0.7,14.5-6.5,15.4-14.6c0.1-2,0-3.9-0.3-5.9c1.4,0.6,2.6,1.7,3.3,3
		c3.1,5.1,6.1,10.2,9.1,15.2c2.9,4.8,8,4.7,10.8-0.2c5.5-9.4,10.9-18.9,16.4-28.3C143.6,66.6,144.3,65.2,145.2,63.6z M86.8,90
		c-5.9,1-11.9,1-18.3,1.5V71.7c5.9,0,11.6-0.3,17.2,0.1c4.4,0.3,6.8,3.5,7.2,8c0,0.3,0,0.7,0,1C93.1,85.8,91.1,89.2,86.8,90z"/>
	<path class="st0" d="M214.3,84.3c-2.1-1.4-3.3-2.1-4.4-3c-6.6-5.1-13.3-10.1-19.6-15.5c-3.3-2.8-6.5-3.2-10.8-2.2v29.6
		c-6-10-11.2-18.8-16.6-27.5c-2.4-3.9-10.1-3.9-12.4,0.1c-6.1,10.3-12.2,20.6-18.2,30.9c-0.4,0.8-0.8,1.7-1,2.6h24.7v-7.9h-10.2
		l10.4-18.9c4.7,8.4,9,16.2,13.5,23.9c0.7,1.3,2.1,3,3.3,3.1c5.4,0.3,10.8,0.2,16.6,0.2V77.7c8.4,6.7,16.3,12.7,23.8,19.2
		c2.8,2.6,6.7,3.5,10.3,2.4V63.4h-9.4L214.3,84.3z"/>
	<path class="st0" d="M212.5,1.7c-6.7-0.5-13.6-0.1-20.7-0.1l-8.2,51.7c7.5,0,14.5-0.1,21.4,0c7.3,0.5,14.2-3.6,17.5-10.2
		c3.4-6.3,0.9-11.7-3.5-16.5c1.3-1.8,2.7-3.5,3.7-5.3C227.4,13.1,222,2.5,212.5,1.7z M204.8,12.3c0.8,0.1,1.8,0.2,3.1,0.4
		c1.8,0.2,4.7,2.3,4.7,3.5c-0.1,1.4-1,3.4-2.2,4.5c-0.4,0.4-0.8,0.7-1.2,0.8c-2.8,1.1-6.1,0.7-9.8,1c0.3-1.9,0.3-3,0.5-4
		c0-0.3,0.1-0.5,0.1-0.7c0.4-2.2,0.7-3.6,1.3-4.4c0-0.1,0.1-0.1,0.1-0.2c0,0,0.1-0.1,0.1-0.1c0.1-0.1,0.2-0.2,0.3-0.2c0,0,0,0,0,0
		C202.4,12.3,203.3,12.2,204.8,12.3C204.7,12.3,204.8,12.3,204.8,12.3z M208.4,42.6c-3.7,1-7.7,0.7-12.3,1c0.5-3.8,1-7.1,1.5-10.8h0
		c3.7,0,7-0.6,9.9,0.2c2,0.5,4.5,2.8,4.9,4.7c0,0.2,0,0.4,0,0.6C212,39.8,209.9,42.2,208.4,42.6z"/>
	<path class="st0" d="M238,5.3c-10.5,7.8-14.9,21.5-10.8,34c5.4,16.2,22.5,20.2,34.5,8c5.9-6,8.3-13.5,8.8-24
		c-0.7-2.3-1.5-6.9-3.5-10.9C261.4,0.8,248.5-2.2,238,5.3z M245.3,44c-0.2,0-0.4-0.1-0.7-0.1c0,0-0.1,0-0.1,0
		c-0.2-0.1-0.5-0.1-0.7-0.2c-4.4-1.3-6-4.8-6.9-8.8c-0.2-1.4-0.4-2.7-0.4-4.1c0.3-6.5,2.2-12,6.7-16.3c0.2-0.2,0.4-0.4,0.6-0.6
		c0.1,0,0.1-0.1,0.2-0.1c0.2-0.1,0.3-0.3,0.5-0.4c0.1-0.1,0.3-0.2,0.4-0.3c1.6-1,3.4-1.6,5.3-1.7l0,0c1.7,0,3.4,0.6,4.8,1.7
		c0,0,0,0,0,0c0.3,0.2,0.6,0.5,0.9,0.8c0.1,0.1,0.1,0.1,0.2,0.2c0.2,0.3,0.4,0.5,0.6,0.8c0.1,0.1,0.2,0.2,0.2,0.3
		c0.2,0.3,0.3,0.6,0.5,0.9c0.1,0.1,0.1,0.3,0.2,0.4c0.2,0.4,0.4,0.8,0.5,1.2c0,0.1,0,0.1,0.1,0.2c2.8,8.1,1.1,15.6-4.5,22
		c-0.6,0.7-1.3,1.4-2,2c0,0,0,0,0,0c-0.2,0.2-0.4,0.3-0.6,0.5c-0.2,0.1-0.4,0.3-0.6,0.4c-0.1,0-0.1,0.1-0.2,0.1
		c-0.6,0.3-1.2,0.6-1.8,0.8c0,0,0,0-0.1,0c-0.3,0.1-0.7,0.2-1,0.2c0,0-0.1,0-0.1,0c-0.3,0-0.6,0.1-0.8,0.1c-0.1,0-0.2,0-0.3,0
		C245.9,44.1,245.6,44,245.3,44z"/>
	<path class="st0" d="M169.1,42.3h-18.5c0.5-3.4,1-6.3,1.5-9.6h16.2c0.6-3.8,1-7.2,1.6-11h-16.2l1.4-9.3h18.7
		c0.5-3.8,1-7.2,1.5-10.8h-29.4c-2.8,17.4-5.5,34.4-8.2,51.5h29.6C167.9,49.5,168.5,46.1,169.1,42.3z"/>
	<polygon class="st0" points="282.8,90.9 282.8,84.5 299,84.5 299,76.5 282.9,76.5 282.9,71.3 310.9,71.3 310.9,63.4 272.5,63.4 
		272.5,99.4 311.3,99.4 311.3,90.9 	"/>
	<path class="st0" d="M257.8,71.8c0.2,1.6,0.4,2.9,0.5,4.4l9.9,0c1.2-8.6-0.5-12.6-6.2-12.8c-9.4-0.4-18.8-0.2-28.2,0
		c-3.8,0.1-6.2,2.5-6.3,6.4c-0.2,7.7-0.2,15.4,0,23.2c0,0.1,0,0.3,0,0.4c0.1,3.2,2.8,5.8,6,5.7c9.5,0.2,19.1,0.2,28.6,0
		c4-0.1,5.9-2.8,6.3-6.5c0.1-2.4,0.1-4.7,0-7.1h-10.3c-0.2,1.8-0.3,3.3-0.4,4.9H238V71.8H257.8z"/>
	<path class="st0" d="M276.1,33.1c-0.7,6.6-2,13.1-3,19.9h10.6c0.2-1.2,0.4-2.1,0.5-3c1.3-10.9,3-21.4,10.2-30.4
		c4.3-5.3,7.5-11.6,11.6-18.3c-2.2,0.1-4.4,0.1-6.6,0c-4.1-0.5-6.8,0.8-8.7,4.6c-2,4-4.7,7.7-7.1,11.5c-0.5-0.3-0.9-0.4-1-0.6
		c-0.9-2.1-1.7-4.2-2.5-6.3c-3.9-9.9-3.9-9.9-14.6-8.9c-0.3,0.1-0.6,0.2-0.9,0.4c3.5,7.5,7.1,15,10.2,22.6
		C276,27.2,276.4,30.2,276.1,33.1z"/>
</g>
</svg>
