<svg id="Layer_1" data-name="Layer 1" xmlns="http://www.w3.org/2000/svg" width="693.1" height="100" viewBox="0 0 693.1 100"><path d="M466.42,22.66H433V98h35.27c21.75,0,35.93-14.17,35.93-37C504.15,38.83,495.08,22.66,466.42,22.66Zm6.25,54c-1.78,3.13-4.9,4.5-9.39,4.5h-2.81V39.72h2.81c4.6,0,7.63,1.44,9.39,4.49s2.09,8.9,2.09,16.17S474.45,73.52,472.67,76.64Z" fill="#fff"/><path d="M548.22,20.63c-24.79,0-36.92,16.22-36.92,39.66s12.51,39.71,37,39.71c24.92,0,37-16.21,37-39.71S572.73,20.63,548.22,20.63Zm0,60.15v-.06c-4.47,0-7.6-2.35-7.6-20.69s3.11-20.74,7.6-20.74,7.62,2.77,7.62,20.74C555.84,78.69,552.71,80.78,548.22,80.78Z" fill="#fff"/><polygon points="309.04 70.09 334.96 70.09 334.96 50.7 309.02 50.7 309.02 42.78 337.37 42.67 337.37 22.73 281.42 22.73 281.42 98.19 338.11 98.19 338.11 78.42 309.04 78.42 309.04 70.09" fill="#fff"/><rect x="86.09" y="22.66" width="28.35" height="75.37" fill="#fff"/><polygon points="208.41 43.08 226.37 43.08 226.37 98.02 254.72 98.02 254.72 43.08 272.69 43.08 272.69 22.66 208.41 22.66 208.41 43.08" fill="#fff"/><polygon points="49.41 65.92 49.1 65.92 33.88 22.66 0 22.66 0 98.02 22.84 98.02 22.84 54.46 23.14 54.46 38.36 98.02 72.24 98.02 72.24 22.66 49.41 22.66 49.41 65.92" fill="#fff"/><polygon points="177.4 65.92 177.09 65.92 161.77 22.66 127.9 22.66 127.9 98.02 150.72 98.02 150.72 54.46 151.02 54.46 166.24 98.02 200.13 98.02 200.13 22.66 177.4 22.66 177.4 65.92" fill="#fff"/><polygon points="397.52 65.92 397.21 65.92 382 22.66 348.15 22.66 348.15 98.02 370.99 98.02 370.99 54.46 371.29 54.46 386.51 98.02 420.37 98.02 420.37 22.66 397.52 22.66 397.52 65.92" fill="#fff"/><path d="M686.92,35.48V.86h-20l-20,35.93V47.57H672V61l-.41.33h15.22V47.88h6.25V35.48ZM672,24.74V35H661.73v-.25l4.8-10c2.08-4.17,3.72-7.91,5.51-12.07h.31C672.35,16.83,672,21,672,24.74Z" fill="#fff"/><path d="M624.2,20.27c-4.78,0-8.23.93-11.35,3.75h-.31c1.76-5.84,6.25-10.64,18.34-11.37h4.73V0h-5.43c-9.7.32-17.6,3.14-23.87,9-6.67,5.82-10.42,15.53-10.42,26.58,0,13.76,7.2,26.57,24.18,26.57H621A21.66,21.66,0,0,0,642.17,40C642.17,27.15,633.58,20.27,624.2,20.27ZM620.14,50c-5.21,0-7.6-5.21-7.92-10.06a9.26,9.26,0,0,1,.32-3.43A7.19,7.19,0,0,1,619.1,32c5.21,0,7.29,4.81,7.29,9C626.39,46.21,623.9,50,620.14,50Z" fill="#fff"/><polygon points="636.09 12.65 635.61 12.65 635.61 12.7 636.09 12.65" fill="#fff"/></svg>