<svg id="svg2" xmlns="http://www.w3.org/2000/svg" width="1235.43" height="100" viewBox="0 0 1235.43 100"><path d="M301.07,76.7c-10.06,0-12.93-3.66-11.44-15.14H387V40.2H375.22c-23.86,0-47.67-.21-71.49,0-7.33,0-13.65-.86-15.79-8.74H247.18V68.34c0,21.19,9.65,31.11,31.11,31.11H384.65c3,0,6-.49,9-.49V76.7H301.07Z" fill="#fff"/><rect x="181.85" y="31.32" width="41.48" height="67.65" fill="#fff"/><path d="M581.47,48.7a22.16,22.16,0,0,0-15.17-7.64c-25.13-1.1-50.37-.38-75.56-.38-.39,0-.83.7-1.28,1v20h11.23c12.76,0,25.54-.38,38.26.35a10.84,10.84,0,0,1,7.75,6.63c1.31,5.08-2.8,7.47-7.61,7.81h-68c-12.59,0-13.83-1.24-13.83-14.24V30.63H415.76V71c.1,17.74,10.61,28.59,28.55,28.59H494.5c22.37,0,44.77.38,67.13,0A29,29,0,0,0,589.91,71.9l-.11-.07A32,32,0,0,0,581.47,48.7Z" fill="#fff"/><rect x="247.56" y="0.86" width="146.28" height="22.92" fill="#fff"/><path d="M200,.21H6.91c-2,0-4.25.41-6.91.65V23.78H223.09C223.75,9.4,214.79.21,200,.21Z" fill="#fff"/><polygon points="91.39 98.96 131.49 98.96 131.59 31.32 91.39 31.32 91.39 98.96" fill="#fff"/><path d="M589.56,23.71V.31H487.87C471.41.31,455,0,438.54.31l.07.07c-14.35.21-23.4,10-21.88,23.33Z" fill="#fff"/><rect x="610.47" y="31.25" width="41" height="67.72" fill="#fff"/><polygon points="0 98.96 40.3 98.96 40.41 31.04 0 31.04 0 98.96" fill="#fff"/><path d="M942.2,69.89V30.52H911.82V80.78A19.35,19.35,0,0,0,931.28,100h100a19.35,19.35,0,0,0,19.46-19.22V77.32H949.53A7.39,7.39,0,0,1,942.2,69.89Z" fill="#fff"/><path d="M1193.71,31.59v33.6c-.07,9.3-2.22,11.48-11.69,11.48h-61.25c-3.46,0-6.67.34-10.37.55V99.34c34.46,0,67.89.59,101.28-.24,14-.34,23.16-12.2,23.37-26.55l0,0c.14-7.92.35-15.83.35-23.71V31.59Z" fill="#fff"/><path d="M775.14,31.18H734V51.64h-73.8V79.29h73.55c.32,7.3.63,13.38.87,19.67h40.54V31.18Z" fill="#fff"/><polygon points="1062.94 31.18 1062.94 98.96 1103.73 98.96 1103.69 31.18 1062.94 31.18" fill="#fff"/><path d="M1234.53,23.78c.72-14.31-8.16-23.5-22.5-23.5H1069.16a54.42,54.42,0,0,0-6.6.86l-.14,0V15.69c.11,2.49.38,5,.59,8.09Z" fill="#fff"/><path d="M754.44.38q-61.11-.45-122.26,0h0c-13,.1-20.84,9.23-21.09,23.3H775.18C775.84,10.75,767.3.38,754.44.38Z" fill="#fff"/><path d="M1031.31,0h-100a19.53,19.53,0,0,0-19.46,19.46v3.46h138.95V19.46A19.52,19.52,0,0,0,1031.31,0Z" fill="#fff"/></svg>