<?xml version="1.0" encoding="utf-8"?>
<!-- Generator: Adobe Illustrator 25.4.1, SVG Export Plug-In . SVG Version: 6.00 Build 0)  -->
<svg version="1.1" id="Layer_1" xmlns="http://www.w3.org/2000/svg" xmlns:xlink="http://www.w3.org/1999/xlink" x="0px" y="0px"
	 viewBox="0 0 950 100" style="enable-background:new 0 0 950 100;" xml:space="preserve">
<style type="text/css">
	.st0{fill:#FFFFFF;}
</style>
<rect id="rect58" x="754.3" class="st0" width="34.3" height="100"/>
<polygon class="st0" points="407.1,35.9 342.9,0 307.1,0 307.1,100 341.4,100 341.4,26.3 407.1,63.1 407.1,100 441.4,100 441.4,0 
	407.1,0 "/>
<polygon class="st0" points="492.9,60 528.6,60 561.4,40 492.9,40 492.9,20 550,20 582.9,0 492.9,0 458.6,22.9 458.6,100 552.9,100 
	585.7,80 492.9,80 "/>
<polygon class="st0" points="190,60 225.7,60 258.6,40 190,40 190,20 247.1,20 280,0 190,0 155.7,22.9 155.7,100 250,100 282.9,80 
	190,80 "/>
<polygon class="st0" points="105.7,20 138.6,0 34.3,0 0,22.9 0,100 98.6,100 132.9,77.1 132.9,35.7 91.4,35.7 58.6,55.7 98.6,55.7 
	98.6,80 34.3,80 34.3,20 "/>
<polygon class="st0" points="631.4,21.4 698.6,21.4 731.4,1.4 628.6,1.4 595.7,21.4 595.7,60 692.9,60 692.9,80 628.6,80 595.7,100 
	697.1,100 730,80 730,40 631.4,40 "/>
<polygon id="polygon163" class="st0" points="911.4,80 911.4,60 814.3,60 814.3,21.4 847.1,1.4 950,1.4 917.1,21.4 850,21.4 850,40 
	948.6,40 948.6,80 915.7,100 814.3,100 847.1,80 "/>
</svg>
