<svg id="Layer_1" data-name="Layer 1" xmlns="http://www.w3.org/2000/svg" width="537.21" height="100" viewBox="0 0 537.21 100"><path d="M142.58,40.48c-4.55.1-9.09.23-13.63.23.07,5.82.24,11.69.42,17.57l-5.35.06q.35,5.28.65,10.56h5c.11,8.37-.32,16.79.62,25.11a5.09,5.09,0,0,0,4.09,5.27c5.71,1.11,11.45.57,17.17.7q-.12-5.24-.23-10.46l-8.15-.1q-.1-10.32-.22-20.65,5,.12,10,.12,0-5.37.12-10.74H142.73C142.69,52.25,142.58,46.37,142.58,40.48Z" fill="#fff"/><path d="M211.14,99.93h13.54q0-29.93.69-59.81c-4.61,0-9.21.16-13.81.23C211.51,60.21,211.51,80.07,211.14,99.93Z" fill="#fff"/><path d="M230.29,99.93c4.56-.08,9.12-.12,13.68-.19q0-29.71,1-59.36c-4.6-.09-9.19-.19-13.79-.19C231.12,60.11,230.61,80,230.29,99.93Z" fill="#fff"/><path d="M370.1,35.46c-3.26,1.53-4.92,6-3.47,9.84,3.85,5.33,13.35,4.4,14.17-3.47C381.28,35.36,374.2,32.91,370.1,35.46Z" fill="#fff"/><path d="M58.54,66.87c-14.35-5-34.75-.52-44.15-3.65A6.39,6.39,0,0,1,13.32,55c2.26-3.31,8.53-2.8,11.71-3.11,11.95.09,23.87-.24,35.79,0-.09-3.82-.2-7.64-.28-11.46-14.7.36-29.4,0-44.08.59C9.54,41.16,1.62,45.63.34,54.34c-1.77,8.83,3.51,17.81,11,19.73,12.38,3.43,25.3-.41,37.77,2,2.42,1,5.73,4.52,3.94,7.78-1.52,4.42-6.17,4.25-9.55,4.55-13.71.23-27.43.29-41.16.43.31,3.69.58,7.39.89,11.1,14.85-.61,29.71-.32,44.58-.49,5.41-.2,11.35-.58,15.86-4.54C70.91,87.25,68.5,69.94,58.54,66.87Z" fill="#fff"/><path d="M286.26,58.11c-11-1-22,.09-33-.34h.07l-.3,11c8.54.15,17.09-.25,25.62,0,2.88,0,5.58,1.45,8.13,2.72-10.95,4.24-22.77,4.61-33.58,9.34-5,2.2-4.84,9.81-2.36,14.33,2.86,4.16,7.85,4.46,12.07,4.69,8,.07,16.16.4,24.2-.87,5.09-.85,10.91-4.13,11.7-11s1.28-14.14,0-21C297.38,60.48,291.12,58.79,286.26,58.11Zm-4.8,31.34a81.56,81.56,0,0,1-20.65-.34c8.21-4.49,17.35-5.18,26-7.4C285.28,84.35,285,89.45,281.46,89.45Z" fill="#fff"/><path d="M329.59,89.55c-5.33-11-11-21.7-16.34-32.68q-7.35,0-14.7.14c6.56,12.28,12.2,25.25,19.15,37.3,3.47,6.37,10.7,6.2,16.3,5.1,4.94-1,7.81-6.41,10.57-10.78q9.36-15.93,18.88-31.76h-14.9C342.45,67.89,335.59,78.4,329.59,89.55Z" fill="#fff"/><path d="M363.77,99.71c4.58.05,9.16.14,13.74.22.77-14.2,1.46-28.41,2.23-42.6-4.57.17-9.16.33-13.73.53C365.08,71.79,364.6,85.76,363.77,99.71Z" fill="#fff"/><path d="M431.56,59.91c-7.26-3.84-15.54-2-23.26-2.49-7.45.26-16.83-.19-21.78,7.65V65c-2.74,7.57-2.57,16.16-2.45,24.21.18,6.72,6.52,9.36,11.3,10,12.12,1.23,24.32.47,36.47.72.2-3.72.4-7.45.61-11.17-9-.21-18,.5-27,.38-3.21.2-6.22-1.27-9-3.1,10.4-3.33,21.22-4.31,31.65-7.46,2.88-.93,6.37-2.66,6.95-6.57C435.51,67.73,435.38,62,431.56,59.91Zm-34.77,16c1.68-2.79,2.42-7.72,6-7.72A55.46,55.46,0,0,1,423,69.28C414.47,72.58,405.57,74.11,396.79,75.89Z" fill="#fff"/><path d="M522,56.43c-7.12,10.64-13.69,21.78-20.76,32.48-2.6-11-5.43-21.78-8.26-32.61q-7,0-14-.1C474,67,469.34,78,464.69,89c-4.81-11-10-21.8-14.69-32.89H434.6C441,67.46,445.51,80.2,451.52,91.73a13.75,13.75,0,0,0,25.37-.93c2.79-5.9,5.1-12.11,7.65-18.12,2,8,2.61,17,7.08,23.83,6.62,6,17.13,3.5,22.11-4.15,8.09-11.64,15.45-24.08,23.48-35.84C532.2,56.52,527.11,56.43,522,56.43Z" fill="#fff"/><path d="M198.92,59.12c-9-1.84-18.14-.91-27.19-.56-5.69.38-13.14,2-15.08,9.4h0a85.66,85.66,0,0,0,0,22.28c1.56,7.08,8.49,9,13.91,9.41,11.31.58,22.63.06,34,.24q.1-5.3.11-10.61c-9.09,0-18.18.25-27.28.25-3.15.21-6.07-1.31-8.8-3,10.84-4.16,22.43-4.62,33.21-8.92C209.35,74.58,206.18,60,198.92,59.12ZM168.38,76.59c1.06-2.52,1.54-5.59,3.39-7.53,7.39-1.4,15.15-1.8,22.41.74C185.78,73,177,74.57,168.38,76.59Z" fill="#fff"/><path d="M107.64,58.28c-11.32-.59-22.64-.07-34-.26q-.11,5.31-.11,10.62c9.09,0,18.18-.25,27.28-.25,3.16-.2,6.07,1.31,8.8,3C98.81,75.56,87.22,76,76.44,80.33c-7.62,3-4.45,17.6,2.82,18.48,8.94,1.84,18.13.9,27.18.57,5.68-.38,13.13-2,15.08-9.41l0,0a86.39,86.39,0,0,0,0-22.26C120,60.61,113.05,58.65,107.64,58.28ZM106.4,88.86h0C99,90.27,91.23,90.63,84,88.12c8.4-3.22,17.16-4.76,25.8-6.8C108.73,83.85,108.25,86.92,106.4,88.86Z" fill="#fff"/><path d="M255.57,30h7.84V6.46a41.43,41.43,0,0,1,4.17,0c2.46.25,3.92,2.18,3.92,5V30H279V9.66C278.78,4,274.9,0,269.87,0H240.68V30h7.93V6.22h7Z" fill="#fff"/><path d="M388.09,6.46c2.45.25,3.92,2.18,3.92,5V30h7.44V9.66C399.24,4,395.42,0,390.33,0H361.16V30h7.92V6.22h7V30h7.83V6.46A41.43,41.43,0,0,1,388.09,6.46Z" fill="#fff"/><path d="M137.12,18.9h7.58L151.52,30h8.91l-7.74-11.46c.52-.17.92-.28,1.34-.43a8,8,0,0,0,5.36-6.46C160.51,5.62,156.52,0,151,0H129.32V30h7.8Zm0-12.76h9.49a6.72,6.72,0,0,1,2.45.55,3.36,3.36,0,0,1,1.9,3.45A3.06,3.06,0,0,1,149.06,13a4.21,4.21,0,0,1-1.62.51H137.16Z" fill="#fff"/><path d="M216.35,30h19.9V12.19C236.06,5.22,231.18,0,224.94,0H208.71V5.76h13.88a5.78,5.78,0,0,1,5.53,5.93H215.39a11.48,11.48,0,0,0-2.55.31c-3.63.8-6.05,4.25-6.27,8.44s1.69,7.46,5.36,8.73A13.65,13.65,0,0,0,216.35,30Zm-1.21-9.52a3.32,3.32,0,0,1,3.51-3.12h9.73v6.81h-9.81a1.85,1.85,0,0,1-.47,0h0a3.16,3.16,0,0,1-2.93-3.37Z" fill="#fff"/><path d="M7.4,17.81H18.22a5.42,5.42,0,0,1,2,.42,2.91,2.91,0,0,1,1.89,3.23,2.84,2.84,0,0,1-2.94,2.69H1.67V30L22.93,30c7.54-.13,9.5-8.09,7-13.65-1.47-3.17-4.19-4-7.07-4.09H11.16A1.92,1.92,0,0,1,10,11.94a3.52,3.52,0,0,1-1.27-3.3,2.84,2.84,0,0,1,2.33-2.39,7,7,0,0,1,1.45-.15H29.07v-6H6C2.39.87-.28,5.52,0,9.58.42,14.8,3,17.73,7.4,17.81Z" fill="#fff"/><path d="M330.65,28.75a19.6,19.6,0,0,0,13.72,2.39,15.68,15.68,0,0,0,8.48-4c4.21-4.19,5.12-9.68,4.12-15.54a13.13,13.13,0,0,0-7.42-9.69A19.88,19.88,0,0,0,340.93,0,21.89,21.89,0,0,0,335,.88a13,13,0,0,0-10.11,9.59,19.63,19.63,0,0,0-.5,7.2C324.88,22.48,326.57,26.46,330.65,28.75Zm1.82-17.13A7.28,7.28,0,0,1,338,5.88a11.43,11.43,0,0,1,5.92,0c3.34,1,5.49,4.07,5.72,8.17v1.63h0c.14,6-2.84,9.6-8.15,9.8a15.51,15.51,0,0,1-4.74-.6,6.57,6.57,0,0,1-4.55-5.71A18.48,18.48,0,0,1,332.47,11.62Z" fill="#fff"/><path d="M110,30h15V24H111.92c-3.07,0-5.39-2.56-5.39-6.17h18.59V12l-18.45.1c.39-3.44,2.88-6,5.86-6h12.59V.09H110.3c-5,0-9.2,3.23-11,8.44A25,25,0,0,0,98.17,16C97.93,23.73,102.48,29.64,110,30Z" fill="#fff"/><path d="M35.92,26.81A7.1,7.1,0,0,0,42,30H62.1V0H54.45V23.87l-9.55-.06c-2.33-.24-3.67-1.89-3.67-4.7V0H33.59s.15,13.88,0,19.87A10.82,10.82,0,0,0,35.92,26.81Z" fill="#fff"/><path d="M74.11,19.86H86.76c6,0,10.11-6,8.56-12.5C94.25,2.9,90.63-.1,87,0H66.64v30h7.47Zm.28-13.81h9.53a3.48,3.48,0,0,1,3.56,3,5.06,5.06,0,0,1-1.54,4.44,2.24,2.24,0,0,1-1.27.57H74.35Z" fill="#fff"/><path d="M185.13,18.2h19V11.83H185.2A5.71,5.71,0,0,1,186,9a6.63,6.63,0,0,1,5.43-3.28h13.07V0h-17c-5.73.21-10.08,5.9-10.08,12.27V30h7.72Z" fill="#fff"/><path d="M307.94,30H322V24.15H309.8a5.57,5.57,0,0,1-5.59-4.55,17,17,0,0,1,.23-9.7c.82-2.69,2.4-4,4.95-4h12.83V.09H307.15a10,10,0,0,0-9,5.4,19.69,19.69,0,0,0-1.91,14.36C297.62,26.21,302.08,30,307.94,30Z" fill="#fff"/><rect x="283.74" y="0.01" width="8.27" height="30.01" fill="#fff"/></svg>