<?xml version="1.0" encoding="utf-8"?>
<!-- Generator: Adobe Illustrator 25.4.1, SVG Export Plug-In . SVG Version: 6.00 Build 0)  -->
<svg version="1.1" id="Layer_1" xmlns="http://www.w3.org/2000/svg" xmlns:xlink="http://www.w3.org/1999/xlink" x="0px" y="0px"
	 viewBox="0 0 419.7 85.9" style="enable-background:new 0 0 419.7 85.9;" xml:space="preserve">
<style type="text/css">
	.st0{fill:#FFFFFF;}
</style>
<polygon class="st0" points="387.7,35 387.7,0 372.5,0 372.5,35 340.5,35 340.5,50.9 372.5,50.9 372.5,85.9 387.7,85.9 387.7,50.9 
	419.7,50.9 419.7,35 "/>
<path class="st0" d="M244.3,0h-27l-14.4,20.1L189,0.1l-68.8,0.1c-14.7,0.3-26.4,12.5-26,27.2c0.1,3.2,0.7,6.3,1.9,9.3
	c3.7,9.6,13.6,16.1,23.5,16.4h21c1.3-0.1,2.5,0.3,3.5,1.1c1.1,1.1,1.5,2.6,1,4c-1.1,3.3-4.9,2.6-7.6,2.7h-39L81.7,0.2H62.1L52.5,35
	L43.1,0.2h-20C21.7,5.3,0,83.6,0,83.6h23.6L33,51.1l8.6,32.5H63l9-32.4c0.1,0.1,9,32.4,9,32.4h58.6c10.1,0.4,19.7-4.7,24.9-13.5
	c7.3-12.6,2.9-28.8-9.7-36c-3.7-2.2-8-3.4-12.3-3.5h-21.1l-1.7-0.1c-1.1-0.4-2.1-1.2-2.5-2.3c-0.4-1-0.4-2.2,0.1-3.2
	c1.2-2.8,4.2-2,6.7-2.2l52.6-0.1L189,39.9c0,0-29.1,42.1-29.8,43.7h27.3l16.5-23.4l16.3,23.3h27.4L217,39.9L244.3,0z"/>
<path class="st0" d="M331.7,28.1c0-22.1-15.4-27.7-28.8-27.7s-27.7,10.2-27.7,26.8v6.3h20.2V29c0-5.7,2.8-9.3,7.8-9.3
	c5,0,7.3,2.9,7.3,8.9c0,13.4-22.7,18.8-32.2,35.7c-4.1,7.2-4.3,21.6-4.3,21.6h56.5V68.4h-27.6C304.5,57.8,331.7,51.3,331.7,28.1z"/>
</svg>
