<?xml version="1.0" encoding="utf-8"?>
<!-- Generator: Adobe Illustrator 25.4.1, SVG Export Plug-In . SVG Version: 6.00 Build 0)  -->
<svg version="1.1" id="Layer_1" xmlns="http://www.w3.org/2000/svg" xmlns:xlink="http://www.w3.org/1999/xlink" x="0px" y="0px"
	 viewBox="0 0 363.9 100" style="enable-background:new 0 0 363.9 100;" xml:space="preserve">
<style type="text/css">
	.st0{fill:#FFFFFF;}
</style>
<g>
	<path class="st0" d="M182.5,3.9c-2.7-2.5-6.2-3.9-9.9-3.9c-3.3,0-6.5,1.3-8.8,3.7c-2.5,2.4-4.3,5.4-5.2,8.7l-26.3,87.3h21.3
		l5.5-18.8h28.5l5.2,18.8h21.1l-25.3-86.2C187.4,9.8,185.4,6.5,182.5,3.9z M164,62.6l9.3-42.6l8.5,42.6H164z"/>
	<path class="st0" d="M50.3,3.9C47.6,1.3,44-0.1,40.4,0c-3.3,0-6.5,1.3-8.8,3.7C29.1,6,27.3,9,26.3,12.3L0,99.7h21.2l5.5-18.8h28.5
		l5.2,18.8h21.1L56.2,13.5C55.2,9.8,53.1,6.5,50.3,3.9z M31.7,62.6L41,20l8.5,42.6H31.7z"/>
	<path class="st0" d="M276.2,44.9c3.4-4.3,5.1-9.6,5-15c0-7.4-3-13.9-8.8-19.6C267,4.8,259.7,1.8,252,1.8h-20
		c-2.7,0-5.4,1.3-8.2,4.2c-2.7,2.9-4.1,5.8-4.1,8.8v84.8h20.1V20.2h11.9c2.3,0,4.3,1.3,6.3,3.7c1.8,2.1,2.8,4.8,2.9,7.5
		c0,4.1-3.3,7.6-10.2,10.4c-6.8,2.7-10.1,6.3-10.1,10.6c0.1,1.2,0.4,2.4,0.9,3.5c0.7,1.8,1.4,3.5,2.3,5.1l20.2,38.7h23.9l-25.4-44.5
		C267.7,52.9,272.4,49.3,276.2,44.9z"/>
	<rect x="295.5" y="1.8" class="st0" width="20.9" height="98.2"/>
	<polygon class="st0" points="135.8,1.5 77.9,1.5 77.9,20.2 96.6,20.2 96.6,99.7 117.3,99.7 117.3,20.2 135.8,20.2 	"/>
	<path class="st0" d="M350.4,59.2c3.7,0.2,7.2-1.4,9.6-4.2c2.4-2.8,3.7-6.3,3.6-10l0.1,0.1c0.1-3.6-1.4-7.2-4.1-9.6
		c-2.6-2.4-6-3.8-9.6-3.8c-3.6,0-7,1.5-9.5,4.1c-2.6,2.5-4.1,6-4.1,9.6C336.5,53.1,342.8,59.2,350.4,59.2z M349.9,37.2L349.9,37.2
		c2.2,0,4.4,0.7,6.1,2.2c1.5,1.5,2.3,3.5,2.3,5.5c0.1,2.2-0.7,4.4-2.2,6c-1.4,1.6-3.5,2.5-5.7,2.4c-2.2,0-4.3-0.9-5.8-2.4
		c-1.7-1.5-2.6-3.7-2.5-5.9C342.2,40.8,345.7,37.4,349.9,37.2z"/>
	<path class="st0" d="M350.4,29.3c3.7,0.2,7.2-1.4,9.6-4.2c2.4-2.8,3.7-6.3,3.6-10l0,0c0.1-3.6-1.4-7.2-4.1-9.6
		c-2.6-2.4-6-3.8-9.6-3.8c-3.6,0-7,1.5-9.5,4.1c-2.6,2.5-4.1,6-4.1,9.6c0,3.7,1.5,7.2,4.1,9.7C343.1,27.9,346.7,29.4,350.4,29.3z
		 M344.5,9.8c1.4-1.5,3.4-2.4,5.5-2.4h0.1c2.2,0,4.3,0.7,6,2.2c1.5,1.5,2.3,3.5,2.3,5.6c0.1,2.2-0.7,4.3-2.2,5.9
		c-1.4,1.7-3.5,2.6-5.7,2.5c-2.2,0-4.3-0.9-5.8-2.4c-1.7-1.5-2.6-3.7-2.5-5.9C342.1,13.2,342.9,11.2,344.5,9.8z"/>
	<path class="st0" d="M358.2,92.6c-2-2.1-4.2-4.1-6.5-6.3c-1.7-2-4.2-3.2-6.8-3.3c-2.2,0-4.3,0.8-5.8,2.4c-1.6,1.5-2.6,3.6-2.5,5.8
		c0,2.2,0.9,4.4,2.5,5.9c1.5,1.6,3.7,2.6,5.9,2.5v-5.5c-0.8,0.1-1.6-0.2-2.2-0.8c-0.5-0.5-0.8-1.3-0.8-2.1c-0.1-0.7,0.2-1.5,0.8-1.9
		c0.4-0.5,1.1-0.8,1.7-0.8c1.1,0,2.7,0.9,4.7,2.8s3.9,3.8,5.9,5.6s3.7,2.7,4.9,2.7c0.9,0,1.7-0.3,2.4-0.8c0.6-0.4,1.1-1,1.1-1.7
		V83.1V83h-5.2L358.2,92.6z"/>
	<path class="st0" d="M348.5,77.8c2.7,1.2,4.6,1.8,5.6,1.8c2.5,0,4.8-0.9,6.7-2.5c1.9-1.5,3-3.8,3-6.2c0.1-2.5-0.9-5-2.6-6.8
		c-1.7-1.9-4.1-2.9-6.6-2.9h0c-2.2,0-4.4,0.9-5.9,2.5c-1.6,1.8-2.5,4.1-2.4,6.5l-9.8-4.7V72c0,0,1.4,0.6,4,2S345.8,76.6,348.5,77.8z
		 M352.2,67.9c0.7-0.7,1.6-1,2.6-1h0c0.9,0,1.7,0.3,2.4,0.9c0.7,0.7,1.1,1.6,1,2.6c0,0.2,0,0.5,0,0.7c0,0,0,0,0,0
		c-0.2,1.7-1.8,3-3.5,2.8c-0.9,0-1.8-0.4-2.5-1c-0.7-0.6-1.2-1.6-1.1-2.6C351.1,69.5,351.5,68.6,352.2,67.9z"/>
</g>
</svg>
