<svg id="Layer_1" data-name="Layer 1" xmlns="http://www.w3.org/2000/svg" width="402.9" height="100" viewBox="0 0 402.9 100"><path d="M401.22,10.66,393.48,10l-1.14-.1L388,9.5A3.11,3.11,0,0,0,385.25,11l-6.74,12.3-.61,1.15L352.5,70.88c-.49.89-1.15.81-1.38-.17L346.3,52.84,346,51.69l-8.13-30-.3-1.15-4-14.91a2.92,2.92,0,0,0-2.3-2L316.69,2.22a2,2,0,0,0-2.11,1.64l-3.56,24L310.85,29l-5.74,38.64-.17,1.15-1.15,7.35-.16,1.15-1.76,11.86A1.72,1.72,0,0,0,303.44,91h0l11.75,1a2,2,0,0,0,2.1-1.67L318.89,79l.15-1.15,1.07-7.67.16-1.15,4.12-29.69c.15-1,.49-1,.78-.05l9.65,33.16.32,1.14L340.79,93a3,3,0,0,0,2.36,2l7.84.82a3,3,0,0,0,2.75-1.39l27.19-47.15c.51-.88.85-.77.76.24l-1.62,18.86L380,67.49l-2.5,29a1.88,1.88,0,0,0,1.71,2l6.17.63,1.15.11,6.81.72a1.82,1.82,0,0,0,1.93-1.66l1-11.38.09-1.15,4.28-48,.11-1.15,2.14-24A1.86,1.86,0,0,0,401.22,10.66Z" transform="translate(0 0)" fill="#fff"/><path d="M303.92.07a1.13,1.13,0,0,0-.81,0l-7.29,1.46-1.15.23-5.14,1A2.8,2.8,0,0,0,287.47,5l-2.3,17L285,23.17l-5.2,37.72c-.13,1-.66,1.15-1.14.22l-6.57-11.67-.55-1L254.81,18.62l-.69-1.1-3.26-5.8a2.68,2.68,0,0,0-2.71-1.24L232.56,13.7a1.23,1.23,0,0,0-.86,2l6.42,10.81.65,1.15,11.32,19.07a19.76,19.76,0,0,0-8.29-1.48,12.94,12.94,0,0,0-6.88,1.71,14.56,14.56,0,0,0-1.43.93,13.15,13.15,0,0,0-1.25,1c-.3.27-.66.86-1.25.86a2.09,2.09,0,0,1-.9-.79,8.14,8.14,0,0,0-1.93-1.82,9.14,9.14,0,0,0-5.23-1.42,8.93,8.93,0,0,0-3,.49,10.11,10.11,0,0,0-2.52,1.27,8.82,8.82,0,0,0-1.83,1.62,1.55,1.55,0,0,1-.24.27.68.68,0,0,1-.48.24.63.63,0,0,1-.39-.54,8.12,8.12,0,0,1-.13-1c0-.43-.12-.86-.12-1.28a1.79,1.79,0,0,0-1.77-1.53l-11.92.29c.16,3.18.28,6.49.37,9.53s.17,6.13.17,9.25V84.16a1.55,1.55,0,0,0,1.58,1.52l11.58-.19a1.67,1.67,0,0,0,1.63-1.6l.46-22.39a5.08,5.08,0,0,1,.58-2.29c.44-.76,1.3-1.15,2.73-1.15a1.92,1.92,0,0,1,1.59.72,6.25,6.25,0,0,1,1,2,12.83,12.83,0,0,1,.49,2.81,27,27,0,0,1,.13,3.31v6.93c0,1.8,0,3.44,0,4.69s0,2.57-.12,3.74-.11,2.47-.11,2.47v0a1.57,1.57,0,0,0,1.57,1.58h4.16l3.44.06,3.24.07c.45,0,1,.08,1.43.08a2.76,2.76,0,0,0,.7-.06c.55-.13.41-.56.41-1,0-.66-.18-1.31-.18-2-.09-1.19-.15-2.38-.18-3.67s-.08-2.43-.08-3.58V73.46a74.5,74.5,0,0,1,.67-11.66q.62-3.82,3.44-3.82a3.06,3.06,0,0,1,2.7,1.42,8.93,8.93,0,0,1,1,4.76,52.42,52.42,0,0,1-.79,8.11c-.53,3.3-2.09,10.06-2.18,10.41a.76.76,0,0,0,0,.21,1.39,1.39,0,0,0,1.27,1.51l1.15.15,5.61.69,3.55.4c.73.08,1.44.24,2.16.32a6.54,6.54,0,0,0,.79.11.74.74,0,0,0,.58-.23c.4-.37.32-1.06.4-1.52a13.65,13.65,0,0,0,.24-2.1c.09-1.09.26-2.31.39-3.21s.25-1.8.37-2.7a72.23,72.23,0,0,0,.63-9.18,52.85,52.85,0,0,0-.33-6l12.11,20.35.59,1,5.57,9.4a2.83,2.83,0,0,0,2.76,1.24l7.89-1.48a2.91,2.91,0,0,0,2.12-2.17l3.65-21.54.28-1.63h0l2-11.94.18-1.15,2.61-15.35.18-1.15,6-35.12A1.15,1.15,0,0,0,303.92.07Z" transform="translate(0 0)" fill="#fff"/><path d="M193,51.37l0,.08a13,13,0,0,0-5.23-4.59,19.79,19.79,0,0,0-8.62-1.62A13.13,13.13,0,0,0,172.26,47a16.48,16.48,0,0,0-1.48,1,13.2,13.2,0,0,0-1.23,1c-.29.26-.55.67-1,.74a1,1,0,0,1-.34,0c-.38,0-.49-.28-.69-.56a8,8,0,0,0-2.06-2,9.1,9.1,0,0,0-5.22-1.42,8.83,8.83,0,0,0-3,.49,10.41,10.41,0,0,0-2.54,1.27c-.63.43-1.17,1-1.78,1.42-.27.23-.42.56-.82.53s-.41-.58-.41-.86l-.1-1-.08-.74a1.77,1.77,0,0,0-1.76-1.53l-11.93.29c.17,3.32.3,6.49.38,9.53s.16,6.13.16,9.25V84.15a1.56,1.56,0,0,0,1.6,1.53l11.56-.2a1.63,1.63,0,0,0,1.63-1.59l.47-22.39a5.34,5.34,0,0,1,.57-2.29c.39-.76,1.3-1.15,2.75-1.15a1.88,1.88,0,0,1,1.57.72,6,6,0,0,1,1,2,12.26,12.26,0,0,1,.49,2.81,27,27,0,0,1,.13,3.31v6.79c0,1.8,0,3.44,0,4.69s0,2.6-.13,3.76-.1,2.45-.1,2.45v0a1.56,1.56,0,0,0,1.54,1.58l13.57.3c-.1-.82-.2-1.83-.28-3s-.08-2.39-.17-3.67-.08-2.44-.08-3.58V73.41a74.57,74.57,0,0,1,.67-11.66c.41-2.54,1.56-3.82,3.44-3.82a3,3,0,0,1,2.7,1.43,8.89,8.89,0,0,1,.95,4.76,52.54,52.54,0,0,1-.79,8.11c-.52,3.29-2.09,10-2.17,10.41a.64.64,0,0,0,0,.2,1.4,1.4,0,0,0,1.26,1.53L194.2,86q.88-4.86,1.53-9.77a70.55,70.55,0,0,0,.62-9.18,51.33,51.33,0,0,0-.7-8.84A18.12,18.12,0,0,0,193,51.37Z" transform="translate(0 0)" fill="#fff"/><path d="M132.62,65.12h0c-.14-3.37-.27-6.82-.42-10.33s-.33-9.43-.33-9.74h0a1.61,1.61,0,0,0-1.66-1.55l-13.58.31c.16,2.61.31,4.95.45,6.78s.24,3.69.33,5.48.17,3.6.17,5.4V68a5.73,5.73,0,0,1-1.9,4.53,6.72,6.72,0,0,1-4.59,1.67,5.27,5.27,0,0,1-4.25-1.67,6.16,6.16,0,0,1-1.41-4.05,81.1,81.1,0,0,1,.42-8.25c.25-2.51.5-4.9.83-7.52s.9-5.8.9-6a1.22,1.22,0,0,0,0-.33,1.28,1.28,0,0,0-1.35-1.21L92,45.36q-.58,4.08-1,8.18-.43,3.7-.72,7.43-.28,3.91-.28,7A27.08,27.08,0,0,0,91.16,76a15.68,15.68,0,0,0,3.33,6,14.71,14.71,0,0,0,5.73,3.82,23.85,23.85,0,0,0,8.45,1.33,11.36,11.36,0,0,0,2.9-.37,14.72,14.72,0,0,0,2.88-1,15.75,15.75,0,0,0,2.53-1.5c.32-.24.86-.93,1.33-.93h.13c.66.22.29,1.67.29,2.15v.08A1.57,1.57,0,0,0,120.36,87l13-.29c-.12-4-.24-7.76-.38-11.27S132.75,68.56,132.62,65.12Z" transform="translate(0 0)" fill="#fff"/><path d="M61.91,60.78a8.14,8.14,0,0,1,1.59-2.57v-.06a6.57,6.57,0,0,1,2.14-1.55A6.25,6.25,0,0,1,68,56.07a7.06,7.06,0,0,1,5.18,1.71,8.3,8.3,0,0,1,1.65,2.3,2,2,0,0,0,1.77,1.15,2.8,2.8,0,0,0,.41,0l10.07-2.48A19.93,19.93,0,0,0,80.7,47.84q-4.82-4.17-12.94-4.17a24.27,24.27,0,0,0-8.88,1.52,17.53,17.53,0,0,0-6.55,4.31,18.47,18.47,0,0,0-4,6.77,26.52,26.52,0,0,0-1.38,8.83,25.83,25.83,0,0,0,1.25,8,18.3,18.3,0,0,0,3.86,6.72,18.67,18.67,0,0,0,6.58,4.59,24.19,24.19,0,0,0,9.55,1.71,20.65,20.65,0,0,0,6.14-.94,18,18,0,0,0,5.49-2.74,18.51,18.51,0,0,0,4.35-4.86,27.16,27.16,0,0,0,2.3-5.41v0a1.55,1.55,0,0,0-1.07-1.91l-9.75-2.75a5.31,5.31,0,0,1-1.08,2.3,10.13,10.13,0,0,1-1.86,1.84,10.41,10.41,0,0,1-2.12,1.22,5.25,5.25,0,0,1-2,.45,6.56,6.56,0,0,1-5.27-2.44,9.78,9.78,0,0,1-2-6.44A10.19,10.19,0,0,1,61.91,60.78Z" transform="translate(0 0)" fill="#fff"/><path d="M37.38,55.7v0a29.39,29.39,0,0,0-5.54-4q-2.75-1.58-5.53-3A31.33,31.33,0,0,1,22,46a3.5,3.5,0,0,1-1.71-2.74A2.62,2.62,0,0,1,21,41.4a2.92,2.92,0,0,1,2.2-.74,12,12,0,0,1,2.92.45,20.93,20.93,0,0,1,3.58,1.36,34.54,34.54,0,0,1,3.91,2.15,24.5,24.5,0,0,1,2.54,1.88,1.46,1.46,0,0,0,.93.36,1.4,1.4,0,0,0,1.14-.65L43,38.92a35.12,35.12,0,0,0-10-7.21,28.53,28.53,0,0,0-11.94-2.4,23.87,23.87,0,0,0-7.08,1,17.83,17.83,0,0,0-5.87,3,14.76,14.76,0,0,0-4,4.94,15,15,0,0,0-1.5,6.89,14.3,14.3,0,0,0,1.71,7.07A22,22,0,0,0,8.54,57.7,31.06,31.06,0,0,0,14,61.83l5.49,3.27A37.13,37.13,0,0,1,23.77,68a3.87,3.87,0,0,1,1.69,3,2.8,2.8,0,0,1-.95,2.46,5,5,0,0,1-2.79.65,13.68,13.68,0,0,1-4-.65,28.6,28.6,0,0,1-4.15-1.68,23.64,23.64,0,0,1-3.79-2.38A12.46,12.46,0,0,1,8,67.74a1.41,1.41,0,0,0-1-.46,1.33,1.33,0,0,0-1.06.53L0,75.17a28.4,28.4,0,0,0,9.36,8.42,27.14,27.14,0,0,0,12.86,2.77,28.39,28.39,0,0,0,7.62-1,21.21,21.21,0,0,0,6.78-3.11,16.21,16.21,0,0,0,4.88-5.31,14.93,14.93,0,0,0,1.87-7.65,17.13,17.13,0,0,0-1.7-7.9A20.31,20.31,0,0,0,37.38,55.7Z" transform="translate(0 0)" fill="#fff"/></svg>