<?xml version="1.0" encoding="utf-8"?>
<!-- Generator: Adobe Illustrator 25.4.1, SVG Export Plug-In . SVG Version: 6.00 Build 0)  -->
<svg version="1.1" id="Layer_1" xmlns="http://www.w3.org/2000/svg" xmlns:xlink="http://www.w3.org/1999/xlink" x="0px" y="0px"
	 viewBox="0 0 604.2 100" style="enable-background:new 0 0 604.2 100;" xml:space="preserve">
<style type="text/css">
	.st0{fill:#FFFFFF;}
</style>
<g>
	<path class="st0" d="M269.9,87.9c0-6.5-0.6-20.5-0.3-28.1c0-7.6-0.3-5.5-0.3-8.8c-0.2-3.2-0.9-6.4-2.1-9.4
		c-0.9-2.4-2.4-3.8-3.8-6.5c-2.5-2.7-5.6-4.7-9.1-5.8c-3.1-0.9-6.4-1.4-9.6-1.5c-3.5,0-8.8,0.3-12.5,0.6c-3.9,0.7-7.7,1.7-11.4,2.9
		c0.1,3,0,6-0.2,9c3.2-1.5,5.6-2.3,7.6-3.2c2.4-0.8,4.8-1.4,7.3-1.8c2.6-0.6,5.3-0.9,7.9-0.9c3,0.2,5.9,0.8,8.8,1.7
		c2.1,0.6,3.8,2.9,5,4.8c1.4,1.2,2,3,1.7,4.8v2.4c-0.3,0.8-0.9,1.1-1.5,2c-0.5,0.9-1.2,1.7-2,2.3c-0.7,0.6-1.5,1.2-2.3,1.8
		c-1.2,0.6-2.3,0.9-3.5,1.5c-1.2,0.6-2.9,0.3-4.8,0.9c-5.9,0.9-10.5,1.2-13.2,2c-2.1,0.6-4.2,1.4-6.1,2.4c-1.8,0.8-3.4,1.9-4.8,3.2
		c-1.3,1.1-2.4,2.5-3.2,4.1c-1,1.5-1.7,3.1-2.3,4.8c-0.5,2-0.8,4.1-0.9,6.1c-0.1,3.4,0.7,6.7,2.3,9.7c1.7,3.1,4.4,5.6,7.6,7
		c4.1,2.1,8.6,3.1,13.2,3.2h5.6c1.7-0.3,3.5-0.9,6.7-1.5c1.5-1.2,3.5-2.3,5.9-4.1l3.2-3.2v7.4h12.5
		C270.2,92.2,269.6,91.6,269.9,87.9z M258.8,72.8c0,0-0.1,5.9-2.2,9.1c-1.1,2-2.5,3.7-4.2,5.3c-0.6,0.3-2.3,1.7-2.9,2
		c-2.3,0.6-3.8,1.5-5.2,1.8c-1.8,0.4-3.7,0.5-5.6,0.6c-2.5,0-4.9-0.7-7-2.1c-2-1.1-2-0.6-3.5-2.7c-1.2-1.7-3.2-4.8-3.2-7
		c-0.4-1.7-0.3-3.4,0.3-5c0.3-1.2,0.9-2.4,1.7-3.5c1.2-1.4,2.6-2.7,4.1-3.8c1.8-0.9,3.2-1.2,6.1-2.3c2.2-0.7,4.5-1.1,6.8-1.2
		c1.7-0.3,5.2-0.3,6.3-0.9c1.1-0.1,2.2-0.4,3.2-0.9c0.9-0.4,1.8-0.8,2.7-1.2c1-0.7,2-1.5,2.9-2.3L258.8,72.8z"/>
	<path class="st0" d="M508.3,58.8c0.2-2.9,0.2-5.9,0-8.8c-0.3-3.2-1-6.3-2.1-9.4c-1-2.3-2.4-4.5-4.1-6.5c-2.4-2.8-5.5-4.8-9.1-5.9
		c-3-1-6.2-1.6-9.4-1.6c-3.5,0-9.1,0.6-12.5,0.8c-3.8,0.6-6.4,1.5-11.4,2.6c-0.3,4.1,0,7.3-0.3,9.3c2.9-1.5,5.3-2.3,7.3-3.2
		c2-0.6,4.8-1.2,7.3-1.7c2.6-0.5,5.2-0.9,7.8-0.9c3,0.2,5.9,0.8,8.8,1.7c2.3,0.6,3.8,2.9,5.3,4.8c1.5,1.5,1.5,2.9,1.8,5.2
		c0.1,0.8,0,1.6-0.3,2.3c-0.3,0.9-0.6,0.6-1.2,1.5c-0.5,0.9-1.2,1.7-2,2.3c-0.8,0.7-1.6,1.2-2.5,1.7c-0.9,0.6-2.1,0.9-3.2,1.5
		c-1.5,0.6-2.9,0.3-4.8,0.9c-6.1,0.9-10.8,1.2-13.2,2c-2.7,0.9-4.4,1.5-6.4,2.3c-1.7,0.9-3.3,1.9-4.8,3.2c-1.3,1-2.4,2.3-3.2,3.8
		c-0.9,1.6-1.6,3.3-2.1,5c-0.7,2-1.1,4.1-1.2,6.2c0,3.4,0.8,6.7,2.3,9.7c1.8,3,4.4,5.5,7.6,7c4.2,2,8.8,3.1,13.5,3.2h5.2
		c2.1-0.3,3.8-0.9,6.7-1.5c1.5-1.2,3.8-2.3,5.9-4.1l3.6-3.2v7.3h12.5c-1.2-5.2-1.7-5.8-1.7-9.6C508.9,80.4,508.3,66.4,508.3,58.8z
		 M497.8,72c-0.2,3.1-1,6.2-2.4,9.1c-1.1,1.9-2.5,3.7-4.1,5.2c-0.9,0.3-2.4,1.8-3.2,2.1c-2.1,0.6-3.5,1.5-5,1.8
		c-1.8,0.3-3.7,0.5-5.5,0.6c-2.6,0-5.1-0.7-7.3-2.1c-1.8-1.2-1.8-0.6-3.2-2.6c-1.5-1.8-3.5-4.8-3.5-7c-0.1-1.7,0-3.3,0.3-5
		c0.4-1.3,1.1-2.4,2-3.5c1.2-1.4,2.6-2.7,4.1-3.8c2-0.9,4-1.7,6.1-2.3c2.2-0.7,4.4-1.1,6.7-1.2c1.5-0.3,5.3-0.3,6.5-0.9
		c0.9-0.3,2-0.5,2.9-0.9c0.9-0.5,1.9-0.8,2.9-1.2c0.6-0.6,1.2-0.9,2.7-2.3V72z"/>
	<path class="st0" d="M381.2,58.1c0-4.4-0.3-7.9-0.3-10.3c0-2.1-0.6-7.4-2.7-9.4c-1.5-1.8-2-2.7-3.8-4.8c-1.8-2.1-5.9-3.6-8.8-4.8
		c-2.9-1.1-9.6-1.5-12.5-1.5c-4.5,0.2-9,1.5-12.9,3.8c-3.8,2.1-6.4,5.9-6.7,5.3c-1-1.5-2.2-2.8-3.5-3.9c-1.1-1.2-2.4-2.1-3.8-2.8
		c-1.5-1-3.2-1.7-5-2c-1.7-0.6-3.5-0.9-5.3-0.9c-2.5,0-5.1,0.2-7.6,0.6c-1.9,0.2-3.7,0.8-5.3,1.8c-2.1,1.5-3.2,1.5-4.1,2.9
		c-1.2,1.5-3.5,1.8-5,4.4v-9.1c-1.7-0.1-3.4,0.1-5,0.6c-2.7,0.9-5.6,1.5-8.5,1.5c0,1.8,2.1,5.9,2.1,9.4l0.9,39.5l-0.3,13.8l-1.5,5
		v0.1h14.3c0-2.6-1.5-3.8-1.5-6.7c0-4.7,0-9.6-0.3-15.2c0-9.5,0.3-23.2,0.9-27c0.2-3.8,1.1-3.2,2-5.6c1.2-2.3,2.2-2.6,3.8-4.1
		c1.5-1.7,3.2-2,5-2.9c1.7-0.9,3.7-1.3,5.6-1.2c2,0,4,0.5,5.8,1.5c2.2,1,4.1,2.6,5.6,4.4c1.1,1.5,2,3.2,2.5,4.9
		c0.4,1.6,0.7,3.3,0.9,5v40c0,6.1-0.9,0.9-0.9,6.7h14.1l-2.1-6.5V62.3c0.3-4.1,0-7.9,0-10.8c0.1-2.3,0.4-4.5,0.9-6.8
		c0.7-1.5,1.6-3,2.6-4.4c1-1,2.2-1.9,3.5-2.5c1.2-0.7,2.5-1.3,3.8-1.7c1.7-0.4,3.5-0.6,5.3-0.6c2,0,5,0,6.4,0.9
		c1.7,0.3,3.3,1,4.8,2.1c1.7,1.6,3.2,3.5,4.4,5.5c0.9,2.3,1.4,4.8,1.5,7.3c0.3,3.2,0.3,5.6,0.3,9.7l-0.3,29.5c0,3.2,0.3,1.5-1.5,7.1
		h13.5c-0.6-3.5-1.5-3.9-1.5-7.1V58.1z"/>
	<path class="st0" d="M411.6,86.3c-3.7-2.4-6.5-5.9-8.2-9.9c-1.6-4.5-2.5-9.3-2.6-14.1c-0.3-2.8,0-5.5,0.9-8.2
		c0.8-3.6,2.1-7.1,4.1-10.2c1.9-2.7,4.4-5,7.4-6.5c4.6-1.8,9.4-2.9,14.3-3.2c2,0,5.2,0.6,7.8,0.8c2.3,0.7,6.2,2.3,10.2,3.8
		c-0.3-2.7-0.6-4.9-0.9-9c-6.1-1.7-12.4-2.6-18.7-2.6c-7.9,0-18.4,2.9-23.1,6.4c-4.4,3.5-9.4,8.1-11.4,14.3
		c-1.7,6.1-2.9,8.5-2.6,15.5c0.1,4.8,1,9.6,2.6,14.1c1.4,4.7,4.9,7.9,7.8,10.8c3.4,3.2,7.4,5.7,11.8,7.3c4.4,1.3,8.9,1.9,13.4,2
		c2.3,0,9.9-0.3,12.5-0.6c3.1-0.4,6.1-1.1,9-2c0.3-2,0.9-3.9,1.2-5.9c0.3-2,0.6-3.5,0.6-4.4c-7.3,3.8-15.4,5.9-23.7,5.9
		C419.6,90.4,415.2,88.9,411.6,86.3z"/>
	<path class="st0" d="M563.2,70.8c-0.8-2.7-2.3-5.1-4.3-7.1c-3.2-2.7-6.9-5-10.7-6.8c-4.7-2.1-9.3-4.7-11.4-5c-1-0.3-2-0.7-2.9-1.1
		c-1.8-1.1-3.4-2.6-4.5-4.4c-0.6-1.3-0.8-2.7-0.9-4.1c0-1.6,0.6-3.1,1.5-4.4c1.6-1.9,3.6-3.4,5.9-4.4c2.5-0.7,5-1.1,7.6-1.2
		c5.2,0.2,10.3,1.8,14.6,4.8c-0.3-2.9,0.6-5.6,0.3-9.1c-6.5-1.1-11.4-2.4-16.7-2.4c-4.2,0-8.3,0.7-12.3,2c-3.4,1.5-6.5,3-8.2,5.9
		c-1.8,2.6-3.5,5.6-3.5,8.5c0.3,2.1-0.3,4.7,0.3,6.5c0.8,1.9,1.9,3.7,3.2,5.4c1.4,1.8,4.9,3.8,7,5.3c2,1.8,7.6,3.5,11.7,5.2
		c3.1,1.1,6,2.5,8.8,4.2c1.2,1.2,3.5,3.2,4.1,4.1c0.9,0.9,1.2,3.5,1.5,4.4c0.2,1.1,0.1,2.2-0.3,3.2c-0.5,1.7-1.3,3.3-2.3,4.8
		c-1.4,1.8-3.2,3.2-5.3,4.1c-2.6,0.9-5.4,1.5-8.2,1.7c-6.1,0-14.4-3.2-22.2-7.6c0.6,3.2,1.8,6.1,1.8,6.7l1.2,4.7
		c1.8,0.6,3.7,1,5.6,1.2c2,0.4,4.5,1.3,7,1.6s6.9,0,9,0c4.2-0.1,8.4-1,12.3-2.7c3.6-1.3,6.7-3.8,8.8-7c1.8-2.6,2.6-3.8,2.3-7
		c0-1.8,0.6-2.1,0.6-4.8C564.4,74.3,564,72.5,563.2,70.8z"/>
	<path class="st0" d="M598.8,90H595c-1.5,0-3-0.3-4.4-0.9c-1.4-0.8-2.6-1.4-3.2-3.2c-0.9-1.8-1.2-6.1-1.5-9.6v-3.2l0.3-38.3h12.9
		l5,0.6c-0.4-2.2-0.5-4.5-0.3-6.7l-17.5-0.3c0-3.8-0.6-13.7-0.6-20.4c-2.5,0.5-8.4,2.3-12.5,3.2c1.2,1.5,1.9,3.3,2.1,5.3
		c0,4.4,0.3,10.3,0,12l-8.5,0.3v6.1h8.5l0.3,30.4c-0.2,3.5-0.2,7,0,10.5v2.6c0,4.1,0.9,9.9,2.3,12.3c1.1,2.2,3,4,5.3,5
		c2.8,1.2,5.9,1.7,9,1.5c1.6,0.2,3.2,0.3,4.8,0.3c2-0.1,4-0.5,5.8-1.2c0.2-2.5,0.7-4.9,1.5-7.3C602.5,89.5,600.7,89.9,598.8,90z"/>
	<path class="st0" d="M204.8,43.9c-1.4-3.2-3.4-6.2-5.8-8.8c-2.5-2.3-5.5-4-8.8-5c-3.8-1.1-7.7-1.6-11.7-1.5c-7.6,0-13.4,1.5-18.1,5
		c-5,3.4-9,8.2-11.5,13.7c-2,6.2-3.2,8.9-2.9,15.9c0.1,4.8,0.7,9.5,2,14.1c1.7,4.4,4.3,8.4,7.6,11.7c3.2,3.4,7.1,6,11.4,7.7
		c4.8,1.7,9.8,2.5,14.9,2.6c2.9,0,5.9,0,8.8-0.3c2.9-0.6,9.4-2.9,13.4-4.1c0.3-4,1.1-7.1,1.4-9.8c-8.2,4-17.7,6.3-23.3,6.3
		c-4.7-0.3-9.2-1.7-13.2-4.1c-3.7-2-6.7-5.2-8.5-9c-1.9-4.5-2.9-9.2-2.9-14.1v-5l50-0.3c0.1-2.3-0.1-4.7-0.6-7
		C206.8,49.2,206.1,46.4,204.8,43.9z M196.3,52h-36.5c0.3-1.7,0-1.6,0-1.6l0.3-0.6c0.4-1.9,1.2-3.7,2.3-5.2c1-1.7,2.4-3.2,4.1-4.4
		c1.6-1.5,3.5-2.5,5.5-3.2c2-1,4.2-1.5,6.4-1.6c2.4,0,4.8,0.3,7,0.9c1.8,0.7,3.5,1.8,5,3.2c1.5,1.1,2.8,2.4,3.8,4
		c0.8,1.5,1.4,3.1,1.7,4.8C196.3,49.5,196.4,50.7,196.3,52z"/>
	<path class="st0" d="M205.6,85c0,0.1,0,0.1,0,0.2c0,0,0,0,0,0L205.6,85z"/>
	<path class="st0" d="M147.6,30.4c-2.4-0.8-4.8-1.4-7.3-1.7c-2.4-0.2-4.9-0.2-7.3,0c-1.9,0.2-3.8,0.7-5.6,1.4
		c-1.8,0.6-3.5,1.5-5,2.6c-1.7,1.3-3.1,2.8-4.3,4.5c-1.2,1.2-2.2,2.6-2.9,4.1V28.6c-2.4,0.1-4.7,0.4-7,0.9c-1.4,0.3-4.4,0.5-6.4,0.9
		l2,5l0.3,6.1c0.6,14.1,0.9,31,0.6,53.2c0,1.2-1.2,2.8-1.2,4.4c2.3,0,5.6-0.3,6.8-0.3h7l-1.2-3.8c-0.3-7.2-0.6-38.6-0.3-42.1
		c0.3-3.2,0-1.4,0.9-3.5c0.6-2.3,1.7-4.5,3.2-6.5c1.5-1.6,3.3-2.9,5.3-3.8c2.3-0.9,4.8-1.4,7.3-1.5c2.2-0.1,4.3,0.1,6.4,0.6
		c1.9,0.7,3.8,1.2,5.9,1.5C144.7,39.8,147.9,32.2,147.6,30.4z"/>
	<path class="st0" d="M87.7,28.4c-1.6-3.3-3.6-6.5-5.8-9.4c-2.6-3.4-5.8-6.4-9.4-8.8C69,7.9,61.7,3.8,57.9,2.9
		c-4.8-1.4-9.7-2.1-14.6-2.3C41,0.3,36.3,0.3,31,0.3S21.9,0,19.6,0C15.5,0,5.8,0.6,0,0.3c1.2,3,2.1,6.2,2.7,9.4v83l-2.4,6.7L18,100
		h19c7.4-0.1,14.8-1.1,22-2.9c6.5-1.6,12.4-5,17-9.9c5-5,10.3-10.5,12.9-18.2c2.4-7.1,3.3-14.7,2.7-22.2
		C91.4,40.5,90.1,34.3,87.7,28.4z M76.2,59.7c-0.6,4.4-1.9,8.6-3.8,12.5c-2,3.7-4.6,7.1-7.6,10c-2.7,2.6-5.9,4.6-9.4,5.9
		c-3.4,1.5-6.9,2.5-10.5,3.2c-4,0.3-8.7,0.6-12.5,0.6c-4.7,0-9.4,0-14.9-0.3L16.3,9.6c3,0,6.1-0.2,9.1-0.6C28,8.7,33.6,8.4,38,8.4
		c5.8,0.2,11.5,1.2,17,3c4.4,1.2,7.3,3.8,11.4,7c3.8,3.2,6.4,8.7,7.8,13.4c1.7,4.4,2.8,9,3.2,13.8C77.4,50.3,77,55,76.2,59.7z"/>
</g>
</svg>
