<svg id="Layer_1" data-name="Layer 1" xmlns="http://www.w3.org/2000/svg" width="370.49" height="100" viewBox="0 0 370.49 100"><path d="M47.66,17.07a43.15,43.15,0,0,0,12.39,1.44A38.77,38.77,0,0,0,71.93,17q4.56-1.5,4.56-4.93V0H66.63V10.68a5.37,5.37,0,0,1-.29,2.14c-.18.36-.76.69-1.73,1a13.26,13.26,0,0,1-3.71.43,9.68,9.68,0,0,1-3.95-.6,2,2,0,0,1-1.23-1.91V0H43V12.38Q43,15.64,47.66,17.07Z" fill="#fff"/><path d="M93.19,11.62H99.5a24.52,24.52,0,0,0,9.66-1.6q3.61-1.61,3.62-4.21A3.9,3.9,0,0,0,111,2.73a12,12,0,0,0-4.79-2A44.26,44.26,0,0,0,97.39,0H81.87V18.23H93.19ZM93,4.19h4.1q4.55,0,4.55,1.7T96.76,7.71H93Z" fill="#fff"/><polygon points="143 13.88 126.6 13.88 126.6 10.91 139.85 10.91 139.85 6.87 126.6 6.87 126.6 4.23 143 4.23 143 0.02 115.66 0.02 115.66 18.23 143 18.23 143 13.88" fill="#fff"/><path d="M156,11.27h3.45l5.21,7h12.12l-6.44-7.93q3.81-.93,5.06-2.13a3.75,3.75,0,0,0,1.25-2.78q0-2.41-3.4-3.89A24.77,24.77,0,0,0,163.63,0H145V18.23H156Zm0-7.38h5c2.8,0,4.21.58,4.21,1.75q0,.86-1.26,1.29a10,10,0,0,1-3.31.44H156Z" fill="#fff"/><path d="M30.29,14.1a4.68,4.68,0,0,1-1.64.74,14.9,14.9,0,0,1-2.57.47,30.45,30.45,0,0,1-3.31.17,29.19,29.19,0,0,1-3.62-.22,14.9,14.9,0,0,1-3-.68A6.92,6.92,0,0,1,14,13.41a2.85,2.85,0,0,1-1-1.66H5.7a4.48,4.48,0,0,0,1.22,2.74,8.85,8.85,0,0,0,3.28,2.14A23.58,23.58,0,0,0,15.55,18a49.31,49.31,0,0,0,7.48.5,41.14,41.14,0,0,0,6.08-.42A24,24,0,0,0,33.91,17a9.44,9.44,0,0,0,3.15-1.77,3,3,0,0,0,1.13-2.27,2.7,2.7,0,0,0-.7-1.83,5.88,5.88,0,0,0-1.91-1.37,15.53,15.53,0,0,0-2.8-1q-1.59-.4-3.39-.69C28.18,7.86,27,7.7,25.7,7.57S23.23,7.31,22,7.2c-1.36-.13-2.53-.26-3.5-.39a21.29,21.29,0,0,1-2.36-.44,4.75,4.75,0,0,1-1.34-.53.85.85,0,0,1-.43-.68c0-.64.64-1.15,1.93-1.51a21.1,21.1,0,0,1,5.55-.55q7.44,0,8.23,3.06h7.16A3.85,3.85,0,0,0,36,3.58a9.33,9.33,0,0,0-3.23-1.93A23.38,23.38,0,0,0,27.91.44,43.42,43.42,0,0,0,21.67,0a42.7,42.7,0,0,0-6,.39A24.34,24.34,0,0,0,11.08,1.5a8.74,8.74,0,0,0-3,1.64A2.79,2.79,0,0,0,7,5.23,2.66,2.66,0,0,0,7.8,7.09a6.43,6.43,0,0,0,2.36,1.43,22.69,22.69,0,0,0,4.06,1.07c1.65.31,3.61.57,5.89.8,2,.18,3.69.36,5.05.53a28.4,28.4,0,0,1,3.32.56,5.83,5.83,0,0,1,1.83.7,1.11,1.11,0,0,1,.56.94A1.19,1.19,0,0,1,30.29,14.1Z" fill="#fff"/><path d="M211.17,47.83c0-15.54-21.19-26.4-51.52-26.4-27,0-47.22,10.38-51.43,26.45l-1,3.64h41l2.67,0,.16-2.16a7.31,7.31,0,0,1,7.3-5.27,9.12,9.12,0,0,1,6.82,3.07,3.15,3.15,0,0,1,.72,2.77c-1.52,5.89-35.16,24.52-56,32.24l-1.89.71V96.72H209.35V75.19H177C200,67.94,211.17,59,211.17,47.83Z" fill="#fff"/><path d="M91,57c7.63-3.88,12.45-9.42,12.45-14.93C103.41,28.87,78.65,22,54.2,22c-15.06,0-27,2-35.46,6C10,32.1,4.15,38.9,4.15,44.91v2.9H43.49l.62-2.35c.37-2,3.87-4.17,8.5-4.17,4.88,0,8.54,2.39,8.54,4.54s-3.66,4.54-8.54,4.54c-.35,0-.7,0-1,0l-4.22-.6V69.06l3.29-.44a13.56,13.56,0,0,1,1.56-.06h.42c6.2,0,10.84,2.75,10.84,5.22S58.81,79,52.61,79c-5.35,0-9.11-2.48-9.54-4.77l-.64-2.37H0v2.87A17.54,17.54,0,0,0,5.43,87.55C16.21,98.38,39.94,100,53.12,100c29.79,0,53.13-11.09,53.13-25.25C106.25,68.5,102.06,60.91,91,57Z" fill="#fff"/><polygon points="322.03 52.36 367.62 9.45 305.11 9.45 290.38 23.39 274.96 9.45 211.97 9.45 259.1 52.63 212.1 96.72 274.7 96.72 290.75 81.59 307.43 96.72 370.49 96.72 322.03 52.36" fill="#fff"/></svg>