<svg id="svg2" xmlns="http://www.w3.org/2000/svg" width="1111.71" height="100" viewBox="0 0 1111.71 100"><path d="M0,99.32l55-87.4c2.64-5.3,5.29-7.28,7.94-7.28H102V16.55l2.65-4c2.64-5.3,5.29-7.28,7.94-7.28h47V100H127.79V24.5l-47,74.82H49L96,24.5H80.12a8.14,8.14,0,0,0-5.3,2.65L30.46,99.32ZM202,61.58V78.79h73.49V98.66H170.17V37.08a15.48,15.48,0,0,1,1.32-5.3L186.06,6.62A6,6,0,0,1,191.35,4h84.09V23.84h-62.9a3.64,3.64,0,0,0-4,2.65L202,41.72h73.49L264.85,61.58ZM317.82,79.46h52.31V62.24H348.94l10.59-19.86h41.72V94.69a4.9,4.9,0,0,1-4.47,5.29,3.84,3.84,0,0,1-.83,0H290.67a4.89,4.89,0,0,1-5.29-4.47,3.75,3.75,0,0,1,0-.82V37.08a15.48,15.48,0,0,1,1.32-5.3L301.27,6.62A6,6,0,0,1,306.56,4H396V23.84h-68.2a3.64,3.64,0,0,0-4,2.65l-6.62,15.23ZM542.94,99.32H506.52L492,79.46H454.22l-10.6-17.88V99.32H411.84V4.64h60.25c2.65,0,5.3,2.64,8,7.28l62.9,87.4ZM477.39,58.93,454.22,26.49a8.09,8.09,0,0,0-5.3-2.65h-5.3V58.93Z" fill="#fff"/><path d="M599.88,78.13h38.41a3.64,3.64,0,0,0,4-2.65l11.26-23.83.66-2.65-.66-2.65L642.26,23.18a5.41,5.41,0,0,0-4-2.65H599.88ZM567.44,0h91.37a6.62,6.62,0,0,1,6.62,5.3L686.62,47l.66,2.65-.66,2.65L665.43,94a10.48,10.48,0,0,1-6.62,5.3H567.44V0ZM697.88,0h87.4a6.63,6.63,0,0,1,6.62,5.3l14.57,28.47.66,2.65-.66,2.65L785.28,62.24l21.85,36.42H774.68L743.56,49h16.56a9.4,9.4,0,0,0,4-1.33l10.59-11.91-5.29-13.25a5.42,5.42,0,0,0-4-2.64H731.65V98H699.2ZM850.17,99.32H817.72V0h32.45Zm43.7-66.87,32.44,45.68,32.45-45.68V0H991.2V36.42a16.89,16.89,0,0,1-1.32,7.94l-36.42,55h-54.3l-36.41-55a16.78,16.78,0,0,1-1.33-7.94V0h32.45V32.45Zm141,27.8V78.79H1111V99.32H1002.46V34.43a15.48,15.48,0,0,1,1.32-5.3L1019,3.31a6,6,0,0,1,5.3-2.65h87.4V21.19h-65.55a3.65,3.65,0,0,0-4,2.65l-6.62,15.89h76.15l-10.6,20.52Z" fill="#fff"/></svg>