<svg id="Layer_1" data-name="Layer 1" xmlns="http://www.w3.org/2000/svg" width="421.97" height="100" viewBox="0 0 421.97 100"><polygon points="364.45 62.53 384.98 62.53 384.98 58.88 368.56 58.88 368.56 45.65 384.88 45.65 384.88 42 368.56 42 368.56 29.13 384.98 29.13 384.98 25.47 364.45 25.47 364.45 62.53" fill="#fff"/><path d="M74.35,25.06a19.06,19.06,0,0,0-19.09,19v0A19.07,19.07,0,1,0,74.35,25.06Zm.59,33.82A15.19,15.19,0,0,1,59.42,44v0c0-.15,0-.29,0-.44A15.21,15.21,0,1,1,74.94,58.88Z" transform="translate(0 0)" fill="#fff"/><path d="M197.45,44.15a19.06,19.06,0,0,0-38.12,0v0a19.06,19.06,0,0,0,38.12,0Zm-34-.15h0v-.49a15.13,15.13,0,1,1,0,.49Z" transform="translate(0 0)" fill="#fff"/><polygon points="393.88 25.47 393.88 29.13 405.82 29.13 405.82 29.13 405.82 62.53 409.98 62.53 409.98 29.13 421.97 29.13 421.97 25.47 393.88 25.47" fill="#fff"/><polygon points="33.73 62.53 53.39 62.53 53.39 58.88 37.83 58.88 37.83 45.65 53.29 45.65 53.29 42 37.83 42 37.83 29.13 53.39 29.13 53.39 25.47 33.73 25.47 33.73 62.53" fill="#fff"/><path d="M262.82,25.07a19,19,0,0,0-19.08,19v0a19.06,19.06,0,1,0,19.08-19.08Zm.6,33.81A15.21,15.21,0,0,1,247.89,44v-.49a15.21,15.21,0,1,1,15.53,15.37Z" transform="translate(0 0)" fill="#fff"/><path d="M110.17,45.05v3.41h20.17a13.62,13.62,0,0,1-5,7.76,16,16,0,0,1-9.92,3.36h-.62A15.13,15.13,0,0,1,100.19,44,15.27,15.27,0,0,1,124,31.08a15.87,15.87,0,0,1,4.16,4h4.71C129.94,29,123,24.82,115.47,24.82,104.75,24.82,96,32.83,96,44c0,.18,0,.36,0,.55a19.05,19.05,0,0,0,19.38,18.73c7.46,0,14.87-4,18.08-11a18.24,18.24,0,0,0,1.65-7.16Z" transform="translate(0 0)" fill="#fff"/><polygon points="323.78 52.57 323.78 52.57 323.78 52.57 323.78 52.57" fill="#fff"/><path d="M306.11,59.52A15.09,15.09,0,0,1,291.52,44c0-.14,0-.29,0-.44a15.11,15.11,0,0,1,15.18-15,14.87,14.87,0,0,1,12.63,7.16h4.45a19.18,19.18,0,1,0-17,27.55,18.44,18.44,0,0,0,17-10.62h-4.46A15.09,15.09,0,0,1,306.11,59.52Z" transform="translate(0 0)" fill="#fff"/><polygon points="25.29 56.42 4.21 25.47 0 25.47 0 62.53 4.01 62.53 3.91 31.33 25.24 62.53 29.25 62.53 29.25 25.47 25.24 25.47 25.29 56.42" fill="#fff"/><polygon points="157.68 58.88 141.25 58.88 141.25 45.65 157.57 45.65 157.57 42 141.25 42 141.25 29.13 157.68 29.13 157.68 25.47 137.14 25.47 137.14 62.53 157.68 62.53 157.68 58.88" fill="#fff"/><polygon points="219.42 74.38 214.36 74.38 214.36 99.52 227.67 99.52 227.67 95.07 219.42 95.07 219.42 74.38" fill="#fff"/><path d="M147.13,95.55a8.61,8.61,0,0,1,0-17.19,7.79,7.79,0,0,1,7,4.59h5.33a12.79,12.79,0,0,0-12.33-9h-.23a13,13,0,1,0,.27,26.08,12.6,12.6,0,0,0,12.29-8.9h-5.33A7.93,7.93,0,0,1,147.13,95.55Z" transform="translate(0 0)" fill="#fff"/><path d="M253,74.35a12.82,12.82,0,0,0-12.84,12.8v0A12.83,12.83,0,1,0,253,74.35Zm8.49,13.5a8.15,8.15,0,0,1-16.27-.9v0c0-.1,0-.19,0-.29a8.21,8.21,0,0,1,8.16-8.27c5.13,0,8.12,4.41,8.12,8.63A8.22,8.22,0,0,1,261.45,87.85Z" transform="translate(0 0)" fill="#fff"/><path d="M185.86,74.34A12.83,12.83,0,0,0,173,87.15v0a12.83,12.83,0,1,0,12.84-12.85Zm8.49,13.5A8.15,8.15,0,0,1,178.08,87h0v0c0-.1,0-.19,0-.29a8.21,8.21,0,0,1,8.16-8.27c5.13,0,8.12,4.41,8.12,8.63A6,6,0,0,1,194.35,87.84Z" transform="translate(0 0)" fill="#fff"/><polygon points="357.58 25.47 353.07 25.47 333.64 45.56 333.64 25.47 329.54 25.47 329.54 62.53 333.64 62.53 333.64 50.45 337.42 46.51 353.98 62.53 359.13 62.53 339.88 43.95 357.58 25.47" fill="#fff"/><path d="M293.14,89.42a8.06,8.06,0,0,0,2-1.27,6.78,6.78,0,0,0,1.34-1.63,7.85,7.85,0,0,0,1-3.87,8.55,8.55,0,0,0-1.27-4.46,7.54,7.54,0,0,0-1.53-1.71c-2.24-1.88-4.74-2-7.57-2.1h-7.1V100h5.11V90.29l7.1,9.67H298l-7.39-9.82A14.2,14.2,0,0,0,293.14,89.42Zm-5.44-2.9h-2.53v-7.9h2.42c1.74,0,3.48.18,4.61,1.71a3.93,3.93,0,0,1,.69,2.28,3.7,3.7,0,0,1-.8,2.35,4.61,4.61,0,0,1-3.55,1.53A5.9,5.9,0,0,1,287.7,86.52Z" transform="translate(0 0)" fill="#fff"/><path d="M244.15,20.56a21.22,21.22,0,0,0-1-6.57,18.68,18.68,0,0,0-4.28-7.56A20,20,0,0,0,224.7,0a19.31,19.31,0,0,0-3.65.23,19.11,19.11,0,0,0-5.76,1.89c-1.33.67-2.63,1.39-4,2-3,1.44-6,2.85-9,4.28l-7.92,3.75-2.68,1.28,26.87,54.8h0l6.76-2.91h0Q213.28,41.3,201.21,17.31l.12-.08,6-3.08,8.5-4.35a19.47,19.47,0,0,1,5.8-2,19.83,19.83,0,0,1,3.69-.3,10.65,10.65,0,0,1,6.26,2.16,12.78,12.78,0,0,1,3.68,4.69,12.34,12.34,0,0,1-.75,12.92,22.54,22.54,0,0,1-3.38,4.16c-.9.85-1.86,1.63-2.78,2.45L218.31,26.7c.63-2.32,1.26-4.61,1.89-6.91h9.63V12.47L215,12.62h0l-5.36,15.14L226.89,42h0a34.24,34.24,0,0,0,6.48-3.27,24.69,24.69,0,0,0,7.94-8.1A19.92,19.92,0,0,0,244.15,20.56Z" transform="translate(0 0)" fill="#fff"/></svg>