<?xml version="1.0" encoding="utf-8"?>
<!-- Generator: Adobe Illustrator 25.4.1, SVG Export Plug-In . SVG Version: 6.00 Build 0)  -->
<svg version="1.1" id="Layer_1" xmlns="http://www.w3.org/2000/svg" xmlns:xlink="http://www.w3.org/1999/xlink" x="0px" y="0px"
	 viewBox="0 0 225.3 100" style="enable-background:new 0 0 225.3 100;" xml:space="preserve">
<style type="text/css">
	.st0{fill:#FFFFFF;}
</style>
<g>
	<path class="st0" d="M68.3,94.4c-1.1-4.9-2.2-9.9-3.3-14.8c-2.4-10.7-4.8-21.4-7.2-32.1c-0.3-1-0.4-2-0.2-3.1c3.2-13,6.5-26,9.7-39
		c0.1-0.6,0.5-1.1,1-1.4c1.3-0.8,2.5-1.7,3.9-2.6H59.3c1.5,1,2.7,1.8,4,2.6h0.1c0.5,0.2,0.7,0.8,0.5,1.3l-7.7,31.9
		c0,0.2,0,0.5-0.4,0.5c-0.1-0.3-0.2-0.7-0.3-1.1c-2.3-10.4-4.7-20.8-7.1-31.1c-0.3-0.6,0-1.4,0.7-1.6c1.2-0.8,2.4-1.6,3.8-2.5H35.2
		l4,2.7c0.4,0.2,0.7,0.6,0.8,1.1c3.2,14.5,6.4,28.9,9.6,43.4c0.4,1.1,0.5,2.3,0.3,3.5c-3.5,13.7-7,27.4-10.4,41.1
		c-0.3,1.7-1.3,3.1-2.8,3.9c-0.9,0.4-1.7,1-2.5,1.7h12.5c-1.3-0.9-2.3-1.6-3.4-2.2h-0.1c0,0,0,0,0,0C42.4,96,42,95,42.4,94.2
		c2.7-10.1,5.2-20.2,7.8-30.4l1.6-6.2c0.2,0.7,0.3,1.1,0.4,1.5c2.7,11.9,5.3,23.8,8,35.6c0.2,0.5,0,1.1-0.6,1.4
		c-1.3,0.8-2.5,1.6-4,2.6h17.7c-1.4-0.9-2.5-1.7-3.7-2.4C68.9,95.9,68.4,95.2,68.3,94.4z"/>
	<path class="st0" d="M111.5,66.3c-1.5,0-3-0.1-4.5,0c-1,0.1-1.3-0.2-1.3-1.2V44.8c0-0.4,0.2-0.8-0.2-1.2c-2.2,1.4-4.4,2.9-6.6,4.2
		c-0.7,0.4-1.1,1.2-1,2v15.4c0,0.4,0.2,1.1-0.6,1.1H86.5c0.1-0.4,0.1-0.7,0.2-1L103,13c1.1-3.6,2.3-7.3,3.4-10.9
		c0.1-0.4,0.4-0.9-0.4-0.9h-7.5c-0.6,0-0.7,0.3-0.8,0.8c-0.4,2-0.9,4-1.3,6C92.2,28.1,88,48.2,83.8,68.2c-0.2,0.9,0.1,1.2,1,1.2
		c4,0,7.8,0.1,11.8,0c1,0,1.3,0.3,1.3,1.3v23.6c0.1,0.8-0.3,1.5-1,1.9c-1.2,0.7-2.4,1.5-3.8,2.5h17l0-0.1c-1.2-0.8-2.5-1.7-3.7-2.5
		c-0.4-0.2-0.7-0.7-0.7-1.2V70.4c0-0.7,0.4-0.9,1-0.9h3.5c2.6-0.1,2.1,0.5,2.2-2.3C112.4,66.6,112.2,66.3,111.5,66.3z"/>
	<path class="st0" d="M225.3,42.3c-0.2-0.1-0.2-0.3-0.2-0.5c-0.2-4.5-0.6-9-1.1-13.6c-0.6-6.3-2-12.4-4.1-18.4
		c-1.1-2.9-2.4-5.8-4.7-8c-1.9-2.1-5.1-2.2-7.2-0.3c0,0,0,0,0,0c-0.3,0.2-0.5,0.5-0.7,0.8c-1.5,1.9-2.8,4-3.7,6.3
		c-1.8,4.8-3.1,9.8-3.9,14.9c-1.2,7.4-1.9,14.9-2,22.4c-0.2,7.5,0.1,14.9,0.9,22.4c0.5,5.8,1.5,11.5,2.8,17.2
		c0.9,4,2.5,7.8,4.7,11.2c2.9,4,6.8,4.1,9.9,0.4c2.8-3.4,4.2-7.5,5.4-11.7c2.2-8.5,3.4-17.1,3.7-25.9c0.1-0.4,0.1-0.9,0.1-1.4v-2.7
		c-0.1-0.8,0-1.5,0.1-2.2v-6.5c-0.1-0.7-0.2-1.5-0.1-2.2c0.1-0.5-0.1-1.1,0.1-1.6L225.3,42.3z M216.8,48.6c0,5.9,0,11.9-0.1,17.8v0
		c-0.1,5-0.2,9.9-0.5,14.8c-0.2,4.2-0.4,8.4-1.7,12.4c-0.2,0.9-0.7,1.7-1.2,2.4c-0.8,1.1-2.3,1.4-3.4,0.7c-0.3-0.2-0.5-0.4-0.7-0.7
		c-0.8-1.1-1.3-2.4-1.4-3.8c-0.7-3.8-1-7.7-1.1-11.6c-0.4-9.7-0.5-19.4-0.4-29.2V37.8c0.1-6,0.2-12.1,0.5-18.1
		c0.1-4.3,0.5-8.6,1.3-12.9c0.2-1,0.6-1.9,1.1-2.7c0.7-1.2,2.3-1.7,3.5-1c0.3,0.2,0.6,0.4,0.8,0.7c1.3,1.4,1.5,3.3,1.9,5.1
		c0.7,4.5,1.1,9.1,1.2,13.7C216.9,31.3,216.8,39.9,216.8,48.6z"/>
	<path class="st0" d="M145,13c-1.1-3.6-2.3-7.2-4.8-10.1c-3.1-3.8-6.6-3.6-9.5,0.3c-2.7,3.5-4,7.7-5.1,11.9
		c-2.6,10-3.5,20.3-3.8,30.6c-0.2,7.2,0.1,14.4,0.8,21.6c0.5,6,1.4,11.9,2.8,17.8c1.1,4.3,2.4,8.5,5.2,12.1c2.5,3.3,6.1,3.5,9,0.5
		c1.8-1.9,3.1-4.2,4-6.7c2.7-6.7,3.9-13.7,4.7-20.8c0.7-6.3,1.1-12.7,1-19.1c0.1-6.4-0.2-12.9-0.9-19.3C148,25.4,146.8,19.1,145,13z
		 M140.9,57.5c-0.1,7.1-0.2,14.3-0.5,21.4c0,4.6-0.5,9.1-1.5,13.6c-0.2,1.2-0.7,2.3-1.4,3.3c-0.6,1.2-2.2,1.7-3.4,1
		c-0.4-0.2-0.8-0.6-1-1c-1.2-1.7-1.4-3.8-1.6-5.8c-0.7-5-0.8-10.1-1-15.2c-0.3-7.8-0.1-15.6-0.1-23.4c0-6.6-0.1-13.2,0-19.8
		c0.1-5.7,0.2-11.5,0.7-17.2c0.1-2.7,0.5-5.3,1.1-7.9c0.2-0.8,0.5-1.6,1-2.2c1.4-1.9,3.4-1.9,4.7,0.1c1,1.6,1.6,3.5,1.8,5.4
		c0.8,5.6,1.1,11.3,1.2,17C141,37,141,47.3,140.9,57.5z"/>
	<path class="st0" d="M181.8,10c-1.1-3-2.4-5.9-4.8-8.2c-2.2-2.1-4.6-2.2-7-0.2c-2.4,2-3.4,4.4-4.4,7.1c-3.2,7.9-4.3,16.3-5.2,24.7
		c-0.6,5.5-0.8,11.1-0.7,16.7c-0.1,6.7,0.3,13.5,1.1,20.2c0.5,5.1,1.4,10.3,2.6,15.3c0.9,4,2.5,7.8,4.7,11.2c2.9,4.1,7,4.1,10.1,0.2
		c2.7-3.4,4.1-7.4,5.2-11.5c2.7-9.9,3.6-20.1,3.8-30.3c0.2-8.9-0.2-17.9-1.3-26.8C185.3,22.1,183.9,15.9,181.8,10z M178.6,67.2
		L178.6,67.2c-0.1,5.8-0.1,11.6-0.7,17.3c-0.3,3.3-0.5,6.6-1.7,9.7c-0.1,0.3-0.2,0.6-0.4,0.8c-0.6,1.1-1.3,2.1-2.7,2
		c-1.3-0.2-2.4-1.1-2.7-2.4c-0.7-1.8-1.1-3.7-1.2-5.7c-0.8-7.5-0.9-15-1-22.5c-0.1-5-0.1-10-0.1-15V39.4c0.1-6.5,0.2-13,0.5-19.5
		c0.1-4.4,0.5-8.7,1.3-13c0.2-1,0.6-2,1.2-2.9c0.7-1.2,2.3-1.6,3.5-0.9c0,0,0,0,0,0c0.2,0.2,0.5,0.3,0.6,0.6c1.4,1.4,1.7,3.3,2,5.2
		c0.7,4.4,1.1,8.9,1.2,13.4c0.3,8.7,0.2,17.4,0.2,26.1C178.7,54.8,178.7,61,178.6,67.2z"/>
	<path class="st0" d="M27.1,45.7c0-0.2,0-0.4,0-0.6c0-0.8-0.2-1-1-1H14.4c1.5,1,2.7,1.8,3.9,2.6c0.6,0.3,1,1,0.9,1.7v34.8
		c0.1,2.5-0.1,5-0.5,7.5c-0.4,2-0.7,3.9-2.2,5.4c-0.2,0.2-0.4,0.4-0.7,0.6c-1.3,0.7-2.9,0.3-3.6-1c-0.7-1.1-1.3-2.3-1.6-3.6
		c-0.9-4-1.4-8.2-1.5-12.3c-0.2-5.2-0.5-10.4-0.5-15.5c-0.1-12-0.2-24.1,0.3-36.2c0.1-5.6,0.6-11.2,1.4-16.8c0.2-2.4,1-4.7,2.2-6.8
		c1.5-2.2,3.7-2.3,5.2-0.1c1.1,1.5,1.9,3.2,2.3,5c1.8,7.1,3.5,14.1,5.2,21.1c0.1,0.3,0,0.6,0.4,0.8c0-0.1,0-0.2,0.1-0.3V1.1
		c0-0.3,0.1-0.6-0.3-0.8c-1.1,1.1-1.6,2.7-2.3,4c-0.2,0.4-0.3,1-0.9,1.3c-0.6-1.1-1.3-2.2-2.1-3.3c-1.2-1.6-3.2-2.5-5.2-2.4
		C7.4,0,0,22.3,0,49.9s6.2,50,14,50v-0.1c1.4,0.1,2.7-0.3,3.8-1.2c1.9-1.5,2.7-3.7,3.3-5.9c0.5-2,0.8-4,1.1-6
		c1.5,4.4,3,8.7,4.6,13.2c0.3-0.5,0.4-1,0.3-1.5V45.7z"/>
</g>
</svg>
