<svg id="Layer_1" data-name="Layer 1" xmlns="http://www.w3.org/2000/svg" width="456.94" height="100" viewBox="0 0 456.94 100"><path d="M455.58,55.31q-13.38.09-26.77,0c-1.33,0-1.54.55-1.48,1.66s-.17,1.93,1.43,1.88c3.12-.11,6.26,0,9.38-.07,1.54,0,2.09.3,2.06,2-.12,5.67-.05,11.35-.05,17q0,8.86,0,17.74c0,.49-.24,1.26.3,1.42a5.54,5.54,0,0,0,3.25,0c.73-.23.37-1.13.37-1.71q.06-17.4,0-34.78c0-1.26.31-1.73,1.64-1.69,3.3.09,6.61,0,9.91.06,1.56,0,1.29-.89,1.31-1.79S457.1,55.3,455.58,55.31Z" transform="translate(0 0)" fill="#fff"/><path d="M424,93.6c-6.73.07-13.45,0-20.18.06-1.39,0-1.77-.4-1.75-1.77q.12-6.44,0-12.87c0-1.35.34-1.8,1.74-1.78,5.91.08,11.83,0,17.74.07,1.46,0,1.7-.5,1.71-1.79s-.33-1.78-1.74-1.76c-5.91.08-11.83,0-17.74.06-1.25,0-1.74-.28-1.71-1.64.09-3.88.1-7.76,0-11.64,0-1.43.45-1.76,1.78-1.74,6.5.06,13,0,19.48.06,1.42,0,1.62-.55,1.59-1.75s0-1.81-1.53-1.8q-11.82.09-23.65,0c-1.27,0-1.54.44-1.53,1.61.05,6.44,0,12.87,0,19.31s0,12.75,0,19.13c0,1.35.31,1.78,1.73,1.77q12.09-.12,24.17,0c1.52,0,1.62-.61,1.67-1.83C425.8,93.91,425.3,93.59,424,93.6Z" transform="translate(0 0)" fill="#fff"/><path d="M378.05,73.8c-.81-1-.91-1.62.16-2.52,2.22-1.86,4.32-3.87,6.46-5.82,3.56-3.22,7.11-6.45,11-10-3-.2-5.24-.25-7.41,1.87-6.45,6.33-13.21,12.35-19.87,18.47-.36.34-.69,1-1.22.81s-.32-1-.32-1.54c0-6.15-.06-12.3,0-18.44,0-1.74-1.11-1.26-2-1.26s-2-.47-2,1.27q.09,19.56,0,39.13c0,1.86,1.19,1.27,2.1,1.33s1.9.22,1.86-1.39c-.11-4.17,0-8.35-.06-12.52a3,3,0,0,1,1.1-2.57c1.77-1.49,3.52-3,5.16-4.66,1.07-1.07,1.63-.92,2.51.25,4.89,6.55,9.86,13,14.81,19.53.41.54.67,1.32,1.5,1.34,1.41,0,2.83,0,4.59,0-.56-.76-.87-1.23-1.22-1.67C389.54,88.21,383.82,81,378.05,73.8Z" transform="translate(0 0)" fill="#fff"/><path d="M353.09,83.23c-1-.28-1.61-.21-1.9,1a14.27,14.27,0,0,1-23.73,6.2,16.64,16.64,0,0,1-4.29-10.23c-.63-6-.11-11.73,3.63-16.75,3.54-4.76,8.41-6.34,14.13-5.38,5,.83,7.76,4.28,9.55,8.7.85,2.09,2.16.41,3.19.31,1.25-.12.63-1.05.37-1.72-5.56-14.17-23.69-12.82-30.12-4.39-5.72,7.51-6.28,15.76-3.49,24.39,2.7,8.36,8.66,12.48,17.39,12.49Q350,97.79,354.46,86C355.3,83.8,355.3,83.84,353.09,83.23Z" transform="translate(0 0)" fill="#fff"/><path d="M296.2,54.82c-10.3-1.18-18.18,4-20.88,14A28.24,28.24,0,0,0,275,82.4c1.56,7,5.32,12.46,12.52,14.48s14.1,1.27,19.76-4.22c4.59-4.45,5.84-10.24,5.91-16.38,0-.64,0-1.28,0-1.91C312.45,63,306.52,56,296.2,54.82ZM306,88.16h0a14.51,14.51,0,0,1-24.13.39c-4.6-6.66-4.54-18.28.13-24.92a14.72,14.72,0,0,1,24,.5,21.08,21.08,0,0,1,3.12,12.11A20.47,20.47,0,0,1,306,88.16Z" transform="translate(0 0)" fill="#fff"/><path d="M280.9,48.33a2.34,2.34,0,0,1,.35-.29h0a33.77,33.77,0,0,0,5.53-23.76c-2.39-17.48-20.36-28.07-37.2-23a60.41,60.41,0,0,0-8.68,4c-9.46,4.53-18.94,9-28.41,13.51-2.09,1-2.09,1-1.12,3.05a2.23,2.23,0,0,1,.13.44c2.2,4.44,4.41,8.86,6.59,13.31q15.51,31.6,31,63.23c.69,1.4.69,1.4,2.14.79l5.16-2.17.31-.09.37-.22a7.18,7.18,0,0,1,1.25-.6c1.2-.31,1.25-.83.7-1.9q-9.37-18.57-18.72-37.17c-1.78-3.54-3.51-7.11-5.27-10.67a1.06,1.06,0,0,1-.48-.86l-.15-.3-.08,0,0-.08c0-.11-.11-.23-.17-.34a.72.72,0,0,1-.3-.65v-.08c-.07-.13-.15-.26-.23-.38V44l-.23-.38v-.08l-7.71-15.28c-.06-.05-.13-.09-.16-.16-1.52-3.28-1.93-2.35,1.21-4,6.54-3.4,13.12-6.73,19.7-10a27.3,27.3,0,0,1,12.35-3.14A15.72,15.72,0,0,1,273,18.66c3.8,6.06,4.77,12.37,1.49,19a4.81,4.81,0,0,1-.45.66h0a73,73,0,0,1-7.42,9.31c-2.43,2.13-2.47,2.1-5.14.21-3.79-2.67-7.56-5.36-11.36-8h0a1.25,1.25,0,0,1-.59-1.66c.32-.83,1.33-4.77,1.49-4.9.3-1.19.63-2.39.91-3.59.17-.69.68-.64,1.19-.64,3.06,0,6.12,0,9.19,0,1.31,0,2.63-.1,3.95-.15,0-1.9,0-9.89,0-10.13-.33-.44-.81-.35-1.28-.36-2.17,0-15.68.12-20.27.12l-.26.2s-1.58,4.2-1.61,4.26c-.83,3-2,5.81-3,8.72-.91,2.65-1.84,5.3-2.84,7.92a1.44,1.44,0,0,0,.55,1.88l19.55,16.14c1.29,1.07,2.61,2.11,3.86,3.23a1.79,1.79,0,0,0,2.18.37A42.34,42.34,0,0,0,280.9,48.33Z" transform="translate(0 0)" fill="#fff"/><path d="M201,54.78c-9.2-.89-17.08,2.94-20.44,12.51a23.6,23.6,0,0,0-1.25,8.9c0,1-.07,2,0,3,.79,9.28,6.24,17.47,16.75,18.53,9.9,1,18-3.48,20.92-13.49a29.52,29.52,0,0,0,1-10.33C217.3,63.85,211.63,55.8,201,54.78Zm9.05,34.41a14.53,14.53,0,0,1-23.23-.39c-4.85-6.75-4.64-18.71.14-25.51,5.31-7.56,20.18-8.23,25.11,3.15A24,24,0,0,1,214,76.27,20.47,20.47,0,0,1,210.09,89.19Z" transform="translate(0 0)" fill="#fff"/><path d="M176.44,93.6c-6.73.07-13.46,0-20.18.07-1.42,0-1.76-.41-1.73-1.77.08-4.29.1-8.58,0-12.87,0-1.53.51-1.81,1.88-1.79,5.86.07,11.72,0,17.58.06,1.39,0,1.63-.48,1.62-1.7s-.13-1.87-1.66-1.85c-6,.1-11.95,0-17.93.07-1.14,0-1.49-.33-1.47-1.48.06-3.94.09-7.89,0-11.83,0-1.44.45-1.73,1.78-1.71,6.44.06,12.88,0,19.32.06,1.5,0,1.68-.56,1.67-1.82s-.14-1.74-1.58-1.73q-11.75.11-23.49,0c-1.42,0-1.59.53-1.58,1.72.05,6.38,0,12.76,0,19.14s0,12.88,0,19.32c0,1.3.34,1.66,1.65,1.65q12.1-.11,24.19,0c1.43,0,1.72-.46,1.74-1.78S177.82,93.59,176.44,93.6Z" transform="translate(0 0)" fill="#fff"/><path d="M144.13,76.2c-2.31.1-4.64,0-6.95,0s-4.77.09-7.14,0c-1.5-.08-1.51.68-1.52,1.79s.08,1.81,1.55,1.76c3.41-.11,6.84,0,10.26,0,1.1,0,1.55.29,1.52,1.46-.08,2.55-.06,5.11,0,7.65a2.1,2.1,0,0,1-1.07,2A22.61,22.61,0,0,1,133,94.15c-6.35,1.25-12.25.66-17-4.37-4.9-5.19-6.19-15.66-2.76-23a14.86,14.86,0,0,1,13.72-9c6.64-.27,11.39,2.41,14,8.71.79,1.92,2.06.18,3.08.14,1.2-.06.88-.93.61-1.66-2.33-6.49-7.23-9.53-13.84-10.17-10-1-18.8,3.05-22.16,13.26a28.87,28.87,0,0,0-1.14,11.35c.63,8.18,4.74,14.08,12.41,16.9,9,3.29,17.32,1.21,25.06-4a1.84,1.84,0,0,0,.73-1.81c0-4.23,0-8.46,0-12.69C145.69,76.61,145.38,76.16,144.13,76.2Z" transform="translate(0 0)" fill="#fff"/><path d="M85.62,54.84c-10.34-1.26-18.33,3.95-21,14a28.24,28.24,0,0,0-.28,13.61c1.56,7,5.34,12.45,12.55,14.45S91,98.14,96.61,92.63c4.58-4.46,5.82-10.25,6-16.55,0-.48,0-1.12-.08-1.75C101.73,63,95.87,56.08,85.62,54.84Zm9.86,33c-5.73,9.36-19.45,9.4-24.82-.15a22.47,22.47,0,0,1,.06-23.1c5.19-9.13,18.73-9.27,24.52-.49A20.87,20.87,0,0,1,98.4,76.32,20.6,20.6,0,0,1,95.48,87.83Z" transform="translate(0 0)" fill="#fff"/><path d="M62.47,93.6c-6.66.07-13.33,0-20,.06-1.3,0-1.83-.27-1.8-1.71.09-4.34.08-8.69,0-13,0-1.29.34-1.68,1.66-1.67,5.91.07,11.82,0,17.73.07,1.41,0,1.77-.4,1.74-1.75s-.18-1.83-1.68-1.81c-5.86.1-11.72,0-17.57.07-1.38,0-1.93-.27-1.89-1.79.11-3.82.09-7.65,0-11.48,0-1.35.35-1.77,1.74-1.75,6.5.07,13,0,19.48.06,1.37,0,1.66-.43,1.61-1.69s0-1.89-1.61-1.87c-7.82.1-15.65.08-23.47,0-1.35,0-1.65.42-1.64,1.69.06,6.38,0,12.75,0,19.13s0,12.75,0,19.13c0,1.38.26,1.9,1.79,1.89q12-.11,24,0c1.38,0,1.75-.35,1.77-1.73S63.9,93.58,62.47,93.6Z" transform="translate(0 0)" fill="#fff"/><path d="M30.08,55.33c-1.12,0-2.09-.2-2,1.6.18,8.29.21,16.58.29,24.87,0,2.92,0,5.83,0,8.82-.87-.2-1-.82-1.34-1.27L10.78,65.46c-2.09-3.08-4.2-6.13-6.24-9.23-1-1.57-2.54-.86-3.79-.79s-.61,1.31-.62,2c0,12.53,0,25,0,37.58,0,1.39.05,2.21,1.88,2.17,1.66,0,2-.57,2-2.1C3.8,84.53,3.75,74,3.68,63.43c0-.38-.2-.83.35-1.07A5.4,5.4,0,0,1,5.4,64.1c7,10.31,14.05,20.6,21,31a4.08,4.08,0,0,0,4.09,2.08c1.27,0,1.51-.47,1.51-1.62,0-12.88-.06-25.75,0-38.63C32,55.28,31.23,55.3,30.08,55.33Z" transform="translate(0 0)" fill="#fff"/></svg>