<svg id="Layer_1" data-name="Layer 1" xmlns="http://www.w3.org/2000/svg" width="166.65" height="100" viewBox="0 0 166.65 100"><polygon points="111.26 51.7 108.56 39.52 134.2 19.96 104.07 31.96 95.61 23.17 98.31 35.39 72.66 54.91 102.79 42.91 111.26 51.7" fill="#fff"/><path d="M157.4,35.25l-15,2.37a14,14,0,0,0-7.7,4.7,8.8,8.8,0,0,0-6.78-2.4l-16.71,2.66,1.86,4.12,15.07-2.37c2.19-.33,3.61.51,4,2.23-.15.43-4,21-4,21l-5.4.84,2.88-15.54c.36-1.94-.22-2.59-2.12-2.3l-10.36,1.64-3.39,18.24-6,1,3.87-20.9-4.89-5.77L85.25,51.15l8.31-1.31.15,0L88.42,78.33c-1.35,7.26-9.08,14.16-15.94,15.25l-7,1.09L66.53,89l5.33-.84c4.7-.73,10-5.43,10.87-10.36l.58-3.1-13.9,2.19c-3,.48-4.59-1.35-4-4.49L67.88,59a7.66,7.66,0,0,1,3.91-5.4l0-.37,7-5.36-4.09.69A15.22,15.22,0,0,0,66,53.78a8.82,8.82,0,0,0-7.22-2.92l-15,2.37L46.18,40.1l10.94-1.75c5.8-.91,12.26-7.48,13.39-13.61l1.64-8.83c1.13-6.16-3.17-11-9-10.07l-23.9,3.8L34.17,37l-22,3.5a5.33,5.33,0,0,0-4,4.09L.07,88.91c-.37,2,.83,3.32,2.69,3l42-6.68L48.11,67l1.71-.25c1.9-.3,1.61-.62,1.24,1.31L48,84.79l15.11-2.45.11-.51a5.07,5.07,0,0,0,1.35.11L76.2,80.12C75.76,82.45,72.7,83,68,83.77l-5.32.84L59.82,100l7-1.09c17.26-1.72,23.86-10.62,25.94-21.27l21-3.36L117.2,56l1.72-.29c1.86-.29,1.6-.62,1.24,1.31l-3.1,16.71,15.1-2.41.22-1.09a6.84,6.84,0,0,0,3.87.47l26.12-4.16,2.44-13.13-1.68-1.2a13.41,13.41,0,0,0,3-5.66l.4-2.08C167.8,36.78,160.65,34.74,157.4,35.25ZM50.3,18.5l7.55-1.2c1-.15,1.5.4,1.31,1.46l-1.38,7.4a2.33,2.33,0,0,1-1.94,2l-7.55,1.21ZM29.91,83.18,5.1,87.12,12.83,45.5l20.51-3.25-1.06,5.69-14.56,2.3-2.22,12,11.85-1.9L26.29,66,14.44,67.93l-2.23,12,18.86-3Zm-12-8.61.51-2.84,11.35-1.79,2.77-14.81L21.19,56.92l.51-2.85,14-2.22L32,72.35ZM63,59.76,59.6,78.48l-6,1,2.89-15.55c.36-1.93-.22-2.59-2.12-2.29L44.06,63.23,40.67,81.47l-6,1,4.45-24,.15,0L59,55.28C62,54.8,63.61,56.63,63,59.76ZM93.56,73.11,98,49.18l.15-.07,5.8-.91-4.45,24ZM161.2,44.48l-.7,3.57c-.47,2.56-3.1,5.29-5.43,5.66L140.66,56l-.22,1.28a1.86,1.86,0,0,0,2,2.41l16.09-2.55L157.48,63l-18.17,2.88a4.45,4.45,0,0,1-5.2-3.55,4.59,4.59,0,0,1,.06-1.88h0l2-11.09a10.37,10.37,0,0,1,7.62-7.44L157.7,39.7C160,39.33,161.67,41.92,161.2,44.48Z" fill="#fff"/><path d="M71.42,68.44c-.36,2,.22,2.59,2.12,2.3L84.41,69l2.33-12.55L75.87,58.19a3.32,3.32,0,0,0-3.14,3.1Zm5-4.52c.37-1.82,1-1.53,2.89-1.82l1.71-.26-.55,2.85-1.71.25C77,65.2,76.13,65.71,76.45,63.92Z" fill="#fff"/><path d="M153.61,45.43l-2.88.43-4.6.73-1.17.19A4.3,4.3,0,0,0,141.83,50l-.11.7L153,48.93a2.61,2.61,0,0,0,1.94-2C155.07,45.94,154.49,45.28,153.61,45.43Z" fill="#fff"/><polygon points="96.59 34.41 96.59 34.41 96.59 34.41 96.59 34.41" fill="#fff"/><path d="M106.22,28.46l.44-2.3-5,.81,3.83,3.61A10.63,10.63,0,0,0,106.22,28.46Z" fill="#fff"/><path d="M80.28,44.51l4-.62,12.29-9.48L95,28.06l-.92.11-.29,1.57a2.66,2.66,0,0,1-2.11,2.15l-6.2,1c-1,.14-1.61-.48-1.43-1.57l3.14-16.82a2.57,2.57,0,0,1,2.08-2.12l6.2-1c1-.15,1.61.47,1.42,1.57l-.4,2.15,12.55-2,.48-2.55c1.2-6.46-3.21-11.38-9.34-10.43L88.16,2C82,3,75.47,9.64,74.3,16.13L71,34.08C69.74,40.54,74.16,45.46,80.28,44.51Z" fill="#fff"/></svg>