<svg id="Capa_1" data-name="Capa 1" xmlns="http://www.w3.org/2000/svg" width="308.87" height="100" viewBox="0 0 308.87 100"><path d="M84.09,17.71a32.18,32.18,0,0,0-5.54-7.22c-3.57-3.47-7-3.07-7-3.07H39.85l10,9.42h20l8.79,10.33c1.29,1.49,1.13,2.69-.38,2.69h-2l-9.89-9.49H53.58L138.91,100h0Z" fill="#fff"/><path d="M117.67,29.86c2.38-.05,3.14-1,2.77-2.51L114.86,7.42H101.61l4,9.79c.59,1.29,0,2.34-1.34,2.34a4.21,4.21,0,0,1-3.47-2.34L95.84,7.42H82.16L94.13,27c.91,1.48,1.57,2.81,4.47,2.86h3.46L139.87,100,115.21,29.86Z" fill="#fff"/><path d="M4.27,7.42S0,8.61,0,11.89a6.1,6.1,0,0,0,2.35,4.88L138.91,100,33.12,7.42ZM43.82,30.79h-4L24,19.35c-1.83-1.48-2.08-2.68-.56-2.68h6.86L44.23,28.1C46.06,29.59,45.35,30.79,43.82,30.79Z" fill="#fff"/><polygon points="138.91 99.99 138.91 99.99 138.91 99.99 138.91 99.99" fill="#fff"/><path d="M204.25,30.55a.49.49,0,0,1-.53-.43.58.58,0,0,1,.05-.26l.37-1.66a1.09,1.09,0,0,1,1-.7h13.32l9-8.06H213.9a.48.48,0,0,1-.53-.43.47.47,0,0,1,0-.26l.65-1.61a1.08,1.08,0,0,1,1-.69h15.48l9.67-9H207.39L141.79,100l73.8-69.44Z" fill="#fff"/><path d="M266,7.41l-13.9,11.37a8.71,8.71,0,0,1-5.48,1.4c-1.33,0-3.29-1.37-1.6-2.66l10.79-10L245,7.41l-17.53,16.2c-1.67,1.54-4.77,5.95-1.92,5.86H230L143.72,100l99.42-70.52h5.4c1.53,0,3.79-1.38,6-2.86l24.26-19.2Z" fill="#fff"/><path d="M137,20.37a1.29,1.29,0,0,1-1.2-.93l-.32-2.07a.71.71,0,0,1,.45-.89.65.65,0,0,1,.28,0h22.13l1.81-9H125.4a3.81,3.81,0,0,0-3.27,1.32c-1.23,1.57-.59,5.16-.59,5.16l2.92,13.61h19.39a.49.49,0,0,1,.53.44.47.47,0,0,1,0,.26L144,29.86a1.1,1.1,0,0,1-1,.69H125.18L140.34,100l17-79.63Z" fill="#fff"/><path d="M174.53,20.38a.74.74,0,0,1-.79-.7.53.53,0,0,1,0-.22l.53-2.07a1.2,1.2,0,0,1,1.14-.93h20.12l6-9H170.87A5.49,5.49,0,0,0,167,8.74c-2,1.57-3,5.16-3,5.16L160.6,27.51H178c.39,0,.46.31.16.7l-1,1.66a1.9,1.9,0,0,1-1.29.69H160.05L141,99.94l51.94-79.56Z" fill="#fff"/><path d="M308.74.61C308.63.21,307.69,0,307,0H295.67a3.49,3.49,0,0,0-1.39.32,4,4,0,0,0-1.23.79c-.33.31-2.74,1.75-2.32,1.75l9.65,0s1.78.49,1.15,1.36-3.12,1.3-3.12,1.3l-8,0a6.17,6.17,0,0,0-3.11,1.31c-.72.7-9.4,8-9.4,8h14.84c.4,0,2.42-2.2,2.74-2.51s.44-.57.38-.78-.29-.33-.69-.33H287.9l3.26-2.83,4.07-.22a21.74,21.74,0,0,0,5-.48c.94-.41,3.86-1,5.6-2.7A34.07,34.07,0,0,0,308.49,2,1.17,1.17,0,0,0,308.74.61Z" fill="#fff"/></svg>