<?xml version="1.0" encoding="utf-8"?>
<!-- Generator: Adobe Illustrator 25.4.1, SVG Export Plug-In . SVG Version: 6.00 Build 0)  -->
<svg version="1.1" id="Layer_1" xmlns="http://www.w3.org/2000/svg" xmlns:xlink="http://www.w3.org/1999/xlink" x="0px" y="0px"
	 viewBox="0 0 1008 100" style="enable-background:new 0 0 1008 100;" xml:space="preserve">
<style type="text/css">
	.st0{fill:#FFFFFF;}
</style>
<g>
	<polygon class="st0" points="929.3,77.5 929.3,58.8 974.5,58.8 974.5,37.9 929.3,37.9 929.3,21.4 1007,21.4 1007,0.5 901.5,0.5 
		901.5,99.8 1008,99.8 1008,77.5 	"/>
	<path class="st0" d="M879.3,48.5c6.5-2.7,10.7-9.2,10.3-16.2V20.7c0.7-5.8-1.5-11.6-5.9-15.5c-5.3-3.9-11.9-5.7-18.4-5.2h-86.8
		v99.5h80.6c21.1-0.2,31.5-7.1,31.5-21.1V66.5C891,58.7,886.5,51.5,879.3,48.5z M806.3,20.2h49.6c2.3-0.2,4.7,0.2,6.9,1h0
		c1,0.8,1.5,2.2,1.2,3.5v9.1c0.3,1.2-0.2,2.5-1.2,3.2l-6.9,1.2h-49.6V20.2z M863.3,76.3c-2.2,1.2-4.7,1.8-7.1,1.5h-49.9V58.3h49.9
		c2.4-0.2,4.9,0.2,7.1,1.2c1.1,1.4,1.7,3.1,1.5,4.9v7.1C865,73.3,864.4,75,863.3,76.3z"/>
	<path class="st0" d="M766.8,0.3L766.8,0.3H739v76.9h-60.2V0.3H651V75c-0.4,5,0.5,10.1,2.4,14.8c1.6,3.6,4.7,6.3,8.4,7.6
		c5.1,1.9,10.6,2.7,16,2.2h62c5.5,0.4,11-0.3,16.2-2.2c3.7-1.4,6.7-4.1,8.4-7.6c1.8-4.7,2.6-9.7,2.4-14.8V0.3z"/>
	<path class="st0" d="M637.1,10.5c-1.8-3.5-4.7-6.3-8.4-7.9c-5.2-1.7-10.6-2.4-16-2.2H552c-5.4-0.2-10.8,0.5-16,2.2
		c-3.7,1.4-6.7,4.2-8.3,7.9c-2,4.7-2.8,9.7-2.5,14.8v49.9c-0.4,5,0.5,10.1,2.5,14.7c1.6,3.6,4.6,6.3,8.3,7.6
		c5.1,1.9,10.6,2.7,16,2.2h60.7c5.4,0.4,10.9-0.3,16-2.2c3.6-1.4,6.6-4.2,8.4-7.6c1.7-4.7,2.6-9.7,2.5-14.7V57l-27.8,0.3v20.1h-59
		v-55h59V40h27.8V25.2C639.7,20.2,638.9,15.2,637.1,10.5L637.1,10.5z"/>
	<polygon class="st0" points="427,58.8 472.2,58.8 472.2,37.9 427,37.9 427,21.4 504.7,21.4 504.7,21.4 504.7,0.5 399.2,0.5 
		399.2,99.8 505.7,99.8 505.7,77.5 427,77.5 	"/>
	<polygon class="st0" points="319.1,70.6 277.1,0.3 251.8,0.3 251.8,82.1 202.4,0.3 177.5,0.3 118.3,99.6 192.5,99.6 192.5,77.2 
		159.3,77.2 190.1,27.8 231.6,99.6 277.3,99.6 277.3,46.5 309,99.6 329.4,99.6 361.4,46.5 361.4,99.6 386.9,99.6 386.9,0.3 
		361.4,0.3 	"/>
	<path class="st0" d="M121.5,75.2V40H57.1v20.9h37.4v16.5H27.8V22.1h92.7V0.5H26.8C21.4,0.3,16,1,10.8,2.7c-3.7,1.5-6.7,4.3-8.3,7.9
		C0.6,15.2-0.2,20.3,0,25.3v49.9c-0.2,5,0.6,10.1,2.5,14.8c1.7,3.5,4.7,6.3,8.3,7.6c5.1,1.9,10.6,2.6,16,2.2H95
		c7.4,0.9,14.8-0.9,20.9-5.2C120.3,89.2,122.4,82.2,121.5,75.2z"/>
</g>
</svg>
