<svg id="Layer_1" data-name="Layer 1" xmlns="http://www.w3.org/2000/svg" width="735.14" height="100" viewBox="0 0 735.14 100"><polygon points="0 0 53.56 99.98 67.85 73.36 28.57 0 0 0" fill="#fff"/><polygon points="57.13 40 71.43 66.64 107.12 0 78.56 0 57.13 40" fill="#fff"/><polygon points="114.42 99.98 139.41 99.98 139.49 0 114.42 0 114.42 99.98" fill="#fff"/><rect x="150.13" width="24.99" height="99.98" fill="#fff"/><path d="M193,0H182.31V25H193a25,25,0,1,1,0,50H182.31v25H193a48.14,48.14,0,0,0,35.29-14.7A48.22,48.22,0,0,0,243,50a48.22,48.22,0,0,0-14.7-35.28A48.19,48.19,0,0,0,193,0Z" transform="translate(0 0)" fill="#fff"/><polygon points="253.83 99.98 278.82 99.98 278.9 0 253.83 0 253.83 99.98" fill="#fff"/><rect x="285.97" width="39.29" height="24.99" fill="#fff"/><rect x="285.97" y="74.99" width="39.29" height="24.99" fill="#fff"/><rect x="285.97" y="37.5" width="39.29" height="24.99" fill="#fff"/><path d="M403.87,67.64l-.12.11-.06.07a24.93,24.93,0,0,1-35.23-.18,23.91,23.91,0,0,1-7.07-14.07H336.25a47.86,47.86,0,0,0,14.5,31.78h0a50,50,0,0,0,70.69,0A47.69,47.69,0,0,0,436,53.57H410.88A23.89,23.89,0,0,1,403.87,67.64Z" transform="translate(0 0)" fill="#fff"/><path d="M421.44,14.7a50,50,0,0,0-70.69,0,47.78,47.78,0,0,0-14.5,31.71h25.14v.07a25,25,0,0,1,49.49,0H436a47.69,47.69,0,0,0-14.57-31.78Z" transform="translate(0 0)" fill="#fff"/><rect x="446.96" width="24.99" height="99.98" fill="#fff"/><path d="M492.54,0H479.09V25h13.47a6.21,6.21,0,0,1,6.2,6.2v.08a6.22,6.22,0,0,1-6.22,6.22H479.12v25h13.42a30.06,30.06,0,0,0,22.06-9.13,30.12,30.12,0,0,0,9.15-22.16h0A31.2,31.2,0,0,0,492.54,0Z" transform="translate(0 0)" fill="#fff"/><polygon points="564.8 33.35 529.08 99.98 557.64 99.98 579.08 59.99 564.8 33.35" fill="#fff"/><polygon points="568.38 26.63 589.58 66.06 582.93 66.06 569.58 91.06 602.81 91.06 607.65 99.98 636.22 99.98 582.65 0 568.38 26.63" fill="#fff"/><path d="M643.44,50a48.14,48.14,0,0,0,14.7,35.29,47.91,47.91,0,0,0,31.79,14.5v-25a23.81,23.81,0,0,1-14.08-7.14A24,24,0,0,1,668.5,50,25.1,25.1,0,0,1,689.93,25.2V.21a47.91,47.91,0,0,0-31.79,14.5A48.14,48.14,0,0,0,643.44,50Z" transform="translate(0 0)" fill="#fff"/><path d="M714.35,36.07l20.79-13.85a52,52,0,0,0-6.3-7.51A47.84,47.84,0,0,0,697.07.27v25a24.33,24.33,0,0,1,14.14,7.09A24.74,24.74,0,0,1,714.35,36.07Z" transform="translate(0 0)" fill="#fff"/><path d="M711.21,67.64a24,24,0,0,1-14.14,7.13V99.85a47.86,47.86,0,0,0,31.77-14.5,51.94,51.94,0,0,0,6.3-7.58L714.35,63.92A29.29,29.29,0,0,1,711.21,67.64Z" transform="translate(0 0)" fill="#fff"/></svg>