<svg id="Layer_1" data-name="Layer 1" xmlns="http://www.w3.org/2000/svg" width="253.61" height="100" viewBox="0 0 253.61 100"><path d="M156.49,85.69a5,5,0,0,1-2.31.42c-16.06,0-32.11,0-48.17,0-1-.05-2,.12-2.82-.53.13-.25.28-.49.43-.72a39.62,39.62,0,0,1,10.68-5.4c3.51-1.23,7-2.59,10.6-3.5,3.41-.89,6.71-2.15,10-3.35a49.26,49.26,0,0,0,5.35-2.39,28.94,28.94,0,0,0,8.1-5.28c.22-.23.41-.47.61-.72.61-.48,1.21-1,1.78-1.5A14.18,14.18,0,0,0,154,57.41c1-2.21.69-4.69.55-7A12,12,0,0,0,151.05,44a20.49,20.49,0,0,0-7.65-5.16,51.37,51.37,0,0,0-7.94-2.65,54.7,54.7,0,0,0-11.19-1.22,62.13,62.13,0,0,0-7.21.54,43.08,43.08,0,0,0-9.51,2.14,47,47,0,0,0-10.25,5c-1.9,1.14-3.58,2.6-5.51,3.69-.9.47-2,.35-2.92.71a2,2,0,0,0,.75,1.37,1.64,1.64,0,0,1-.22.14c-.91.48-2,.36-2.92.71,0,.85.77,1.36,1.3,1.91,1.6,1.36,3,3,4.59,4.31,2,1.63,3.58,3.62,5.56,5.21.35.33,1.12.43,1.31-.11.05-1-.32-2,0-3v0c.35.32.69.63,1.06.93s1.11.42,1.3-.12c.05-1-.32-2,0-3A11.7,11.7,0,0,1,103,52.91l.33-.23a31.94,31.94,0,0,1,19.12-6.13c4.51.31,9.33,1.13,12.84,4.23,1.32,1.51,2.33,3.77,1.49,5.76A13.62,13.62,0,0,1,135,59.29c-.31.22-.62.44-.94.63A68.83,68.83,0,0,1,125,64.07c-3.28,1.24-6.53,2.52-9.83,3.68-2.34.83-4.61,1.84-6.92,2.72-1.55.59-3,1.4-4.49,2.13a62.89,62.89,0,0,0-7.56,4.23c-1.54,1.27-3.1,2.59-4.53,4-2.72,2.37-5.29,5-6.69,8.34a18.54,18.54,0,0,0-1.66,8.14,1.14,1.14,0,0,0,1.22.78q33.08,0,66.14,0a13.48,13.48,0,0,1,3,.26c.87.23,1.36,1.07,2,1.64l1.05-.17c.08-1.1.1-2.2.1-3.3.46.36.82.86,1.25,1.24l1.05-.17c.17-2.58.06-5.17.11-7.75a33.67,33.67,0,0,0-.26-5.59A13.8,13.8,0,0,0,156.49,85.69Z" fill="#fff"/><path d="M79.22,71.07a22.23,22.23,0,0,0-6.28-4.92,49.13,49.13,0,0,0-4.94-2,11.45,11.45,0,0,0,1.11-.55,12,12,0,0,0,3.42-2.32,9.79,9.79,0,0,0,.62-.82A11.41,11.41,0,0,0,74.92,59a10,10,0,0,0,2-3.65A12.21,12.21,0,0,0,77,49a14.41,14.41,0,0,0-6-7.76,37.36,37.36,0,0,0-7.3-3.63,53.37,53.37,0,0,0-7.28-1.8,62.24,62.24,0,0,0-13.15-.77,79.66,79.66,0,0,0-11.73,1.35,62.67,62.67,0,0,0-9,2.8c-3.06,1.35-5.92,3.12-8.92,4.59a6.7,6.7,0,0,1-3.52.29,3.93,3.93,0,0,0-.31.87,3,3,0,0,0,.93,1.21,6.81,6.81,0,0,1-3,.15,3.93,3.93,0,0,0-.31.87c.18.6.74,1,1.14,1.43,3.2,3,6,6.43,9.34,9.35.54.44,1.32-.12,1.34-.75a5.61,5.61,0,0,1,.34-2.15c.24.22.47.46.71.67.54.44,1.32-.12,1.35-.75a5.52,5.52,0,0,1,.57-2.74A23.57,23.57,0,0,1,26.23,50a38.53,38.53,0,0,1,11.4-3,41.7,41.7,0,0,1,8.72-.31c2.87.37,5.81.62,8.48,1.82a15,15,0,0,1,3.34,2.13,4.81,4.81,0,0,1,1.55,4.94,9.23,9.23,0,0,1-.94,1.5c-2.1,1.42-4.7,1.7-7.12,2.19-4.56.51-9.26,1.09-13.78,0-1.26-.17-2.17-1.29-3.49-1.21-.06,1-.09,2-.11,3A4.31,4.31,0,0,0,32,60.36c-.24,3.61-.07,7.25-.11,10.87.05.63-.18,1.6.59,1.88.88-.16,1.46-1,2.3-1.27a18.63,18.63,0,0,1,6-.9,52.66,52.66,0,0,1,9.72.48c3.91.51,8,1.42,11.11,4,2.28,1.49,3.53,4.87,2,7.31a12.08,12.08,0,0,1-.82,1.16,11.27,11.27,0,0,1-2.28,1.2,38.82,38.82,0,0,1-8.09,2,61.44,61.44,0,0,1-16.53-.44,56,56,0,0,1-8.39-1.82,29.43,29.43,0,0,1-9.63-4.73c-1.19-.82-1.49-2.3-2.1-3.51a1.21,1.21,0,0,0-.21-.24,1,1,0,0,0-1.48.14c-.44.62-.86,1.26-1.25,1.91a1,1,0,0,0-1.14.31,31.73,31.73,0,0,0-1.85,2.91c-1.4,2.25-2.75,4.52-4.14,6.77a18,18,0,0,0-1.53,2.79l0,.11a.69.69,0,0,0,.56.8c1.07,0,2.12-.34,3.19-.29a15.63,15.63,0,0,1,3.69,1.32,73.16,73.16,0,0,0,10.45,3.67,95.2,95.2,0,0,0,13.85,2.05c6.87.26,13.82.48,20.63-.63a48.6,48.6,0,0,0,10.27-2.78,28.83,28.83,0,0,0,9.39-6c.18-.19.34-.39.5-.58.66-.53,1.29-1.07,1.89-1.65a12.51,12.51,0,0,0,3.25-6.7,10.78,10.78,0,0,0-.15-3.84A11.91,11.91,0,0,0,79.22,71.07Z" fill="#fff"/><path d="M249.35,95.32c-.37-1.1-1.69-1.13-2.6-1.51a8.7,8.7,0,0,1-4.14-2.48c-2.09-2.16-4.26-4.24-6.26-6.47-3.64-3.73-7.33-7.42-11-11.13-1.32-1.33-2.44-2.86-3.83-4.12-1.57-1.81-3.5-3.27-4.95-5.17-.39-.47-.05-1.15.31-1.54,1.47-1.56,3.05-3,4.46-4.65,3.13-3.23,6.32-6.4,9.48-9.61,2.35-2.32,4.52-4.82,6.9-7.12.4-.38.78-.79,1.17-1.2a7.31,7.31,0,0,1,1.41-.82c1.26-.58,2.66-.77,3.93-1.33-.23-.33-.31-1.08-.88-1h-.51c1.22-.53,2.56-.73,3.78-1.27-.23-.33-.3-1.09-.88-1-6,0-12.08,0-18.12,0a32.82,32.82,0,0,0-5.43.24c.29.56.7,1,1,1.58a1.2,1.2,0,0,1,0,.42c-1.15,0-2.3.11-3.44.25.29.57.69,1,1,1.59.2.82-.57,1.33-1,1.86-3.65,3.54-7,7.34-10.65,10.9-.69.65-1.34,1.35-2,2-.6.41-1.26-.14-1.67-.57-2.7-2.8-5.47-5.52-8.16-8.32-2.37-2.67-5-5-7.41-7.71.32-.71.86-1.29,1.22-2-.63-.48-1.48-.26-2.2-.32-7.32.12-14.65-.15-22,.14.06.39,0,1,.45,1.12,1,.44,2.15.59,3.18,1-2,0-4,0-6,.12.06.39,0,1,.45,1.12,1.29.55,2.75.65,4,1.4A14.25,14.25,0,0,1,172,42.38c1.84,1.92,3.77,3.75,5.54,5.73,4.6,4.81,9.42,9.39,13.93,14.27.71.73,1.45,1.44,2.16,2.18.44.59,1.28,1.11,1,2a7.49,7.49,0,0,1-1.33,1.59c-1.56,1.37-2.87,3-4.43,4.39-5.17,5.81-10.94,11-16.19,16.77-1.06,1-2.08,2.11-3.12,3.17a15.19,15.19,0,0,1-4.4,1.88c-.57.06-.84.54-1.08,1a11,11,0,0,0,1.59.26c-.93.4-1.94.67-2.9,1-.57.06-.84.55-1.08,1a10.1,10.1,0,0,0,3.05.28c6.94,0,13.88,0,20.82,0,.1-.14.21-.27.32-.41-.27-.41-.56-.81-.79-1.24a.89.89,0,0,1,0-.6h2.87c.11-.14.21-.28.33-.41a13.74,13.74,0,0,1-.8-1.24c-.24-.64.28-1.11.66-1.51,2.18-2.21,4.45-4.34,6.43-6.74,3-3.15,6.13-6.23,9.2-9.35a1,1,0,0,1,1.1,0,15.23,15.23,0,0,1,2.38,2.23c3.63,3.79,7.52,7.34,10.93,11.33,1.48,1.57,3,3.05,4.53,4.59a5.16,5.16,0,0,1,1,1.21c0,.76-.6,1.29-.95,1.89a8.21,8.21,0,0,0,3,.3q8.63,0,17.25,0a21,21,0,0,0,4-.27c-.37-1.1-1.69-1.13-2.6-1.5a8.29,8.29,0,0,1-1.32-.48c.75,0,1.51,0,2.27,0A21,21,0,0,0,249.35,95.32Z" fill="#fff"/><path d="M10.27,19.49a18.66,18.66,0,0,0,9.64-3v-.33a1.3,1.3,0,0,1-.65-.35,1,1,0,0,1-.17-.63V11.44a1,1,0,0,1,.18-.63,1.44,1.44,0,0,1,.64-.35V10H11.63A.84.84,0,0,1,11,9.86a1.49,1.49,0,0,1-.33-.68H10.3v4.26h.41a1.41,1.41,0,0,1,.33-.67.84.84,0,0,1,.59-.19h4.31v2.5a9.3,9.3,0,0,1-2.42,1,12,12,0,0,1-2.86.35,6.89,6.89,0,0,1-4.78-1.63,6,6,0,0,1-2-4.68,6.14,6.14,0,0,1,2-4.81,6.55,6.55,0,0,1,4.54-1.61,10.64,10.64,0,0,1,2.85.43,6.86,6.86,0,0,1,2.28,1,1.71,1.71,0,0,1,.46.47,1.43,1.43,0,0,1,.12.64l.37.2L18.6,2.05l-.36-.2a1,1,0,0,1-.62.31,3.84,3.84,0,0,1-1.24-.36,18.89,18.89,0,0,0-3-1A13.42,13.42,0,0,0,10.55.54,11,11,0,0,0,3,3a8.77,8.77,0,0,0-3,7,8.9,8.9,0,0,0,3.36,7.38A10.81,10.81,0,0,0,10.27,19.49Z" fill="#fff"/><path d="M59,19.36a1.43,1.43,0,0,1,.34.67h.4V15.29h-.4A1.38,1.38,0,0,1,59,16a.8.8,0,0,1-.59.19H47.16v-5h7.09a.82.82,0,0,1,.58.2,1.44,1.44,0,0,1,.34.66h.41V7.37h-.41a1.34,1.34,0,0,1-.34.67.81.81,0,0,1-.58.18H47.16V3.88H58.09a.77.77,0,0,1,.58.19,1.43,1.43,0,0,1,.34.67h.41V0H59a1.43,1.43,0,0,1-.34.67.86.86,0,0,1-.58.19H42.54v.43a1.2,1.2,0,0,1,.63.35.89.89,0,0,1,.18.63V17.76a.89.89,0,0,1-.18.63,1.2,1.2,0,0,1-.63.35v.43H58.39A.84.84,0,0,1,59,19.36Z" fill="#fff"/><path d="M87.21,18.74a1.19,1.19,0,0,1-.64-.35.94.94,0,0,1-.18-.63V6.63l9.78,10.6q.63.66.63.93c0,.31-.18.5-.54.58v.43h5.5v-.43a1.27,1.27,0,0,1-.64-.35,1,1,0,0,1-.18-.63V2.25a1,1,0,0,1,.18-.61,1.27,1.27,0,0,1,.64-.35V.86H96.63v.43a1.23,1.23,0,0,1,.64.35,1,1,0,0,1,.18.61V13.12L87.82,2.62a1.16,1.16,0,0,1-.36-.71c0-.32.19-.52.55-.62V.86H82.08v.43a1.2,1.2,0,0,1,.63.35.89.89,0,0,1,.19.61V17.76a.94.94,0,0,1-.19.63,1.2,1.2,0,0,1-.63.35v.43h5.13Z" fill="#fff"/><path d="M141,19.36a1.43,1.43,0,0,1,.34.67h.41V15.29h-.41A1.38,1.38,0,0,1,141,16a.77.77,0,0,1-.58.19H129.17v-5h7.09a.83.83,0,0,1,.59.2,1.54,1.54,0,0,1,.34.66h.4V7.37h-.4a1.43,1.43,0,0,1-.34.67.83.83,0,0,1-.59.18h-7.09V3.88H140.1a.77.77,0,0,1,.58.19,1.43,1.43,0,0,1,.34.67h.41V0H141a1.43,1.43,0,0,1-.34.67.86.86,0,0,1-.58.19H124.55v.43a1.2,1.2,0,0,1,.63.35.94.94,0,0,1,.19.63V17.76a.94.94,0,0,1-.19.63,1.2,1.2,0,0,1-.63.35v.43h15.86A.81.81,0,0,1,141,19.36Z" fill="#fff"/><path d="M165.46,13l-1.89,4.49.37.21a1.05,1.05,0,0,1,.52-.3,3.79,3.79,0,0,1,.86.35,14.84,14.84,0,0,0,6.84,1.74,13.06,13.06,0,0,0,3.62-.49,6.35,6.35,0,0,0,3.34-2,5.4,5.4,0,0,0,1.19-3.43,5.32,5.32,0,0,0-.51-2.29,4.55,4.55,0,0,0-1.37-1.73,6.85,6.85,0,0,0-2-1A15.69,15.69,0,0,0,173.57,8l-2-.21a19.56,19.56,0,0,1-2.64-.4A1.44,1.44,0,0,1,167.74,6a1.74,1.74,0,0,1,.46-1.17,2.77,2.77,0,0,1,1.22-.8,7.27,7.27,0,0,1,2.4-.35,8.81,8.81,0,0,1,5.34,1.66c.49.35.75.68.75,1,0,.07,0,.15,0,.22l.36.21,2.08-4.31-.36-.2a1,1,0,0,1-.62.31,4.07,4.07,0,0,1-.91-.31,23.17,23.17,0,0,0-3.6-1.32,13.15,13.15,0,0,0-3.12-.35c-2.66,0-4.66.66-6,2a5.15,5.15,0,0,0-1.52,3.84,5,5,0,0,0,.6,2.49,4.34,4.34,0,0,0,1.83,1.82,7.12,7.12,0,0,0,1.63.62,26.61,26.61,0,0,0,2.8.41l2,.21a12.46,12.46,0,0,1,2.63.5,1.34,1.34,0,0,1,.93,1.3,2,2,0,0,1-.39,1.16,2.89,2.89,0,0,1-1.07.89,6.43,6.43,0,0,1-2.9.6,10.58,10.58,0,0,1-3.3-.56,7,7,0,0,1-2.57-1.34,1.53,1.53,0,0,1-.55-1.12v-.17Z" fill="#fff"/><path d="M214.59,18.74a1.19,1.19,0,0,1-.62-.34.92.92,0,0,1-.19-.64V2.25a.92.92,0,0,1,.18-.62,1.12,1.12,0,0,1,.63-.34V.86h-5.44v.43a1.27,1.27,0,0,1,.64.35.88.88,0,0,1,.18.61V17.76a.94.94,0,0,1-.18.63,1.27,1.27,0,0,1-.64.35v.43h5.44Z" fill="#fff"/><path d="M251.71,9.52a6.85,6.85,0,0,0-2-1A15.69,15.69,0,0,0,246.85,8l-2-.21a19.56,19.56,0,0,1-2.64-.4A1.44,1.44,0,0,1,241,6a1.74,1.74,0,0,1,.46-1.17A2.77,2.77,0,0,1,242.7,4a7.27,7.27,0,0,1,2.4-.35,8.81,8.81,0,0,1,5.34,1.66c.5.35.75.68.75,1a1.64,1.64,0,0,1,0,.22l.36.21,2.08-4.31-.36-.2a1,1,0,0,1-.62.31,4.07,4.07,0,0,1-.91-.31,23.17,23.17,0,0,0-3.6-1.32A13.1,13.1,0,0,0,245,.54c-2.66,0-4.66.66-6,2a5.15,5.15,0,0,0-1.52,3.84,5,5,0,0,0,.6,2.49,4.34,4.34,0,0,0,1.83,1.82,7.12,7.12,0,0,0,1.63.62,26.61,26.61,0,0,0,2.8.41l2,.21a12.46,12.46,0,0,1,2.63.5,1.34,1.34,0,0,1,.93,1.3,2,2,0,0,1-.39,1.16,2.89,2.89,0,0,1-1.07.89,6.43,6.43,0,0,1-2.9.6,10.63,10.63,0,0,1-3.3-.56,7,7,0,0,1-2.57-1.34,1.57,1.57,0,0,1-.55-1.12v-.17l-.37-.19-1.89,4.49.37.21a1.05,1.05,0,0,1,.52-.3,3.79,3.79,0,0,1,.86.35,14.84,14.84,0,0,0,6.84,1.74,13,13,0,0,0,3.62-.49,6.35,6.35,0,0,0,3.34-2,5.4,5.4,0,0,0,1.19-3.43,5.18,5.18,0,0,0-.51-2.29A4.55,4.55,0,0,0,251.71,9.52Z" fill="#fff"/></svg>