<svg id="Layer_1" data-name="Layer 1" xmlns="http://www.w3.org/2000/svg" width="294.91" height="100" viewBox="0 0 294.91 100"><path d="M292.05,0l-32.66,47.7,35.52,52.11h-32.8l-19.52-27.9-19.68,28H190.32C191.21,98.05,226,47.71,226,47.71L211.17,27.08l-62.9.07c-2.94.23-6.53-.66-8,2.65a4.63,4.63,0,0,0-.14,3.82,4.9,4.9,0,0,0,3,2.78l2,.15h25.17a31.56,31.56,0,0,1,26.35,47.27A32.79,32.79,0,0,1,166.91,100h-70S86.17,61.28,86.09,61.21L75.3,100H49.77L39.49,61.07,28.26,99.89H0S26,6.39,27.67.22H51.53L62.76,41.91,74.21.22H97.62l20,72.6h46.68c3.22-.15,7.7.73,9-3.23a4.86,4.86,0,0,0-1.18-4.85A6.07,6.07,0,0,0,168,63.42h-25.1C131,63.05,119.2,55.27,114.8,43.82A31.86,31.86,0,0,1,143.64.14L226,.07,242.59,24,259.75,0Z" fill="#fff"/></svg>