<svg id="Layer_1" data-name="Layer 1" xmlns="http://www.w3.org/2000/svg" width="363.62" height="100" viewBox="0 0 363.62 100"><path d="M81.52,99.66H60.43L55.19,80.84H26.68L21.21,99.66H0L26.34,12.31a19.23,19.23,0,0,1,5.24-8.66A12,12,0,0,1,40.36,0a14.11,14.11,0,0,1,9.92,3.88,21,21,0,0,1,5.93,9.57Zm-32-37.06L41.05,20,31.7,62.6Zm86.29-42.42H117.33V99.66H96.58V20.18H77.88V1.48h57.93Zm78,79.48H192.7l-5.25-18.82H159l-5.48,18.82h-21.2l26.34-87.35a19.16,19.16,0,0,1,5.2-8.66A12,12,0,0,1,172.63,0a14.14,14.14,0,0,1,9.92,3.88,21,21,0,0,1,5.93,9.57Zm-32-37.06L173.32,20,164,62.6Zm106,37.06h-24L243.67,61a46,46,0,0,1-2.28-5.13,11.08,11.08,0,0,1-.91-3.53c0-4.34,3.3-7.87,10.14-10.61s10.19-6.27,10.19-10.37A12.24,12.24,0,0,0,258,23.83c-1.94-2.39-4-3.65-6.27-3.65H239.81V99.66H219.72V14.82q0-4.5,4.11-8.78c2.74-2.85,5.47-4.22,8.21-4.22h20a28.66,28.66,0,0,1,20.41,8.44c5.82,5.7,8.78,12.2,8.78,19.61a23.38,23.38,0,0,1-5,15.06,38.57,38.57,0,0,1-13.8,10.26Zm28.61.34H295.55V1.82h20.86Z" fill="#fff"/><path d="M363.5,83.12V97.26A2.2,2.2,0,0,1,362.36,99a4,4,0,0,1-2.4.8c-1.25,0-2.85-.91-4.9-2.73s-4-3.65-5.93-5.59-3.53-2.85-4.67-2.85a2.4,2.4,0,0,0-1.71.8,2.36,2.36,0,0,0-.8,1.93,2.74,2.74,0,0,0,3,2.85v5.48A8,8,0,0,1,339,97.15a8.52,8.52,0,0,1-2.51-5.93A7.65,7.65,0,0,1,339,85.4,8,8,0,0,1,344.8,83a9.9,9.9,0,0,1,6.84,3.31c2.28,2.16,4.45,4.22,6.5,6.27l.11-9.58h5.25Z" fill="#fff"/><path d="M363.61,45a12.1,12.1,0,0,0-4.1-9.58,14.14,14.14,0,0,0-9.58-3.76,13.09,13.09,0,0,0-9.46,4.1,13.15,13.15,0,0,0-4.11,9.58,14,14,0,0,0,14,13.8A11.8,11.8,0,0,0,360,55,14.75,14.75,0,0,0,363.61,45Zm-7.52,6a7.18,7.18,0,0,1-5.7,2.51,8.29,8.29,0,0,1-5.82-2.4,7.7,7.7,0,0,1-2.51-5.93,8.21,8.21,0,0,1,7.87-7.86,8.85,8.85,0,0,1,6,2.16A7.91,7.91,0,0,1,358.25,45,8.43,8.43,0,0,1,356.09,51Z" fill="#fff"/><path d="M363.61,15.17a12.07,12.07,0,0,0-4.1-9.58,14.15,14.15,0,0,0-9.58-3.77,13.06,13.06,0,0,0-9.46,4.11,13.15,13.15,0,0,0-4.11,9.58,13.4,13.4,0,0,0,4.11,9.69,13.31,13.31,0,0,0,9.92,4.1A11.79,11.79,0,0,0,360,25.09,14.76,14.76,0,0,0,363.61,15.17Zm-7.52,5.92a7.14,7.14,0,0,1-5.7,2.51,8.3,8.3,0,0,1-5.82-2.39,7.7,7.7,0,0,1-2.51-5.93,7.51,7.51,0,0,1,2.4-5.47,7.54,7.54,0,0,1,5.47-2.4,8.86,8.86,0,0,1,6,2.17,7.91,7.91,0,0,1,2.28,5.59A8.38,8.38,0,0,1,356.09,21.09Z" fill="#fff"/><path d="M362.93,67.55a8,8,0,0,0-1.58-2.75,7,7,0,0,0-2.43-1.8,7.71,7.71,0,0,0-3.14-.64,8.71,8.71,0,0,0-2.21.29,7.13,7.13,0,0,0-1.95.88A7.35,7.35,0,0,0,350,65a8.09,8.09,0,0,0-1.14,2,7.78,7.78,0,0,0-2.43-2.67,5.78,5.78,0,0,0-3.3-1,6.06,6.06,0,0,0-2.64.59,6.25,6.25,0,0,0-2.12,1.63A8.22,8.22,0,0,0,337,68a9.56,9.56,0,0,0-.52,3.13,9.33,9.33,0,0,0,.51,3.1,7.83,7.83,0,0,0,1.39,2.47,6.68,6.68,0,0,0,2.12,1.65,6,6,0,0,0,2.66.59,5.78,5.78,0,0,0,3.3-1,7.71,7.71,0,0,0,2.43-2.71,6.89,6.89,0,0,0,2.76,3.44,7,7,0,0,0,1.95.84,8.55,8.55,0,0,0,2.19.29,7.49,7.49,0,0,0,3.14-.65,6.8,6.8,0,0,0,2.43-1.81,8.12,8.12,0,0,0,1.58-2.75,11.18,11.18,0,0,0,0-7ZM346.8,72.42a3,3,0,0,1-.73,1,3.65,3.65,0,0,1-1.1.71,3.75,3.75,0,0,1-1.37.26,3.87,3.87,0,0,1-1.34-.24,3.62,3.62,0,0,1-1.11-.67,3.34,3.34,0,0,1-.74-1,3.5,3.5,0,0,1-.27-1.35,3.44,3.44,0,0,1,.26-1.31,3.28,3.28,0,0,1,.72-1,3.44,3.44,0,0,1,1.1-.7,3.84,3.84,0,0,1,1.38-.26,3.59,3.59,0,0,1,2.46,1,3.42,3.42,0,0,1,.74,1,3.22,3.22,0,0,1,0,2.58Zm12.65.37a3.69,3.69,0,0,1-.86,1.31,3.75,3.75,0,0,1-1.36.84,5.28,5.28,0,0,1-1.81.29,4.79,4.79,0,0,1-1.75-.31,4.2,4.2,0,0,1-1.39-.86,4.28,4.28,0,0,1-.91-1.31,4.5,4.5,0,0,1-.32-1.66,4.35,4.35,0,0,1,.35-1.7,4.05,4.05,0,0,1,.94-1.3,4.27,4.27,0,0,1,1.38-.84,5.2,5.2,0,0,1,3.48,0,3.92,3.92,0,0,1,1.37.86,3.58,3.58,0,0,1,.87,1.31,4.27,4.27,0,0,1,.3,1.65,4.59,4.59,0,0,1-.3,1.72Z" fill="#fff"/></svg>