<svg id="Layer_1" data-name="Layer 1" xmlns="http://www.w3.org/2000/svg" width="731.53" height="100" viewBox="0 0 731.53 100"><path d="M214.53,40.13l0,0a16.94,16.94,0,0,0,1.14-5.84A9,9,0,0,0,212,26.57a15.46,15.46,0,0,0-9.41-2.68H142.75L115.92,99.81l20.64.09,10.95-30.73h50.56q6.56-1.35,9.23-8.77Zm-22.61,5.46-1,2.62a4.13,4.13,0,0,1-1.71,2.47,10.7,10.7,0,0,1-4.75.76H153.62l3.48-9.66h30.17c3.16,0,4.76,1,4.76,3A2.79,2.79,0,0,1,191.92,45.59Z" fill="#fff"/><path d="M643.12.06q-17.31,0-22.45,14.56L590.58,100h27.3l24.87-69.85a8.7,8.7,0,0,1,4.2-4.56,14.59,14.59,0,0,1,7.58-1.95h68.6L731.53,0Z" fill="#fff"/><path d="M127.45,12.92Q127.45,0,112.52,0H39.91a16.9,16.9,0,0,0-8,2,12.71,12.71,0,0,0-6.27,7.39L5.06,68.35,2.93,73.62A38.71,38.71,0,0,0,0,87q0,12.9,15,12.9H87.65a16.81,16.81,0,0,0,7.9-1.87,13.25,13.25,0,0,0,6.4-7.4l22.69-64.2A44.32,44.32,0,0,0,127.45,12.92ZM95.38,31.35,82.3,69a14.91,14.91,0,0,1-2.93,5.15,9.6,9.6,0,0,1-6.89,2.25H36.11q-4.51,0-4.51-5.13a6.81,6.81,0,0,1,.5-2.64l13-37.5q2.59-7.51,9.91-7.52H91.37q4.51,0,4.52,5.27A6.69,6.69,0,0,1,95.38,31.35Z" fill="#fff"/><path d="M392.55,44.11a33.55,33.55,0,0,0,2.1-10.24q0-9.81-11.33-9.8H319.88L293.33,99.88h20.74l18.18-52.23c1.26-3.8,3.77-5.7,7.5-5.7h27.59q3.35,0,3.34,4a6.44,6.44,0,0,1-.29,1.9l-18.17,52h20.55l19.78-55.74Z" fill="#fff"/><path d="M603.45,33.93q0-9.81-11.32-9.8H537A12.75,12.75,0,0,0,531,25.59a9.7,9.7,0,0,0-4.76,5.62L510.61,75.92l-1.63,4a29.7,29.7,0,0,0-2.18,10.24q0,9.78,11.42,9.79H573.3a12.84,12.84,0,0,0,6-1.47,10,10,0,0,0,4.86-5.61l17.18-48.72A33.94,33.94,0,0,0,603.45,33.93Zm-24.3,13.91-9.92,28.55a11.29,11.29,0,0,1-2.18,3.9A7.28,7.28,0,0,1,561.81,82H534.13q-3.42,0-3.42-3.9a5.41,5.41,0,0,1,.38-2l10-28.46q2-5.7,7.51-5.7h27.55q3.42,0,3.42,4A5.15,5.15,0,0,1,579.15,47.84Z" fill="#fff"/><path d="M508.38,37.88l5.86-16.43a24.28,24.28,0,0,0,1.37-7.59,11.94,11.94,0,0,0-4.83-10.25A20.52,20.52,0,0,0,498.3,0H419.56L384.07,100H476.4q10.43,0,14.29-11.15l9.54-27.59a10.52,10.52,0,0,0,.63-3.51,11,11,0,0,0-1.31-5.39,5.4,5.4,0,0,0-3.32-2.92Q504.87,47.67,508.38,37.88ZM471.1,66.39l-1.55,4.42c-1.37,3.72-4.72,5.56-10.15,5.56H419.9l5.85-16.79h40.09c3.68,0,5.53,1.68,5.53,5A5.89,5.89,0,0,1,471.1,66.39Zm13.3-37.85L483.13,32a5.43,5.43,0,0,1-2.25,3.23,14.5,14.5,0,0,1-6.28,1H434l4.52-12.66h39.77c4.18,0,6.28,1.32,6.28,4A4.73,4.73,0,0,1,484.4,28.54Z" fill="#fff"/><path d="M230.49,71.08h60l9.9-27.92h0a29.66,29.66,0,0,0,2-9.1q0-9.88-12-9.88H234.57c-5.46,0-8.85,1.93-10.24,5.85L206.92,80.44a31.55,31.55,0,0,0-2.09,9q0,10.41,16.68,10.37h58.83L286.61,82H232c-2.53,0-3.8-1-3.8-2.93a8.94,8.94,0,0,1,.67-3.07Zm9.1-25.81a4.25,4.25,0,0,1,2.66-2.83A17.24,17.24,0,0,1,247.1,42h26.64c3.1,0,4.67,1.23,4.67,3.69a4.7,4.7,0,0,1-.19,1.23v0l-2.1,6.32H237Z" fill="#fff"/></svg>