<?xml version="1.0" encoding="utf-8"?>
<!-- Generator: Adobe Illustrator 25.4.1, SVG Export Plug-In . SVG Version: 6.00 Build 0)  -->
<svg version="1.1" id="Layer_1" xmlns="http://www.w3.org/2000/svg" xmlns:xlink="http://www.w3.org/1999/xlink" x="0px" y="0px"
	 viewBox="0 0 252.8 20.7" style="enable-background:new 0 0 252.8 20.7;" xml:space="preserve">
<style type="text/css">
	.st0{fill:#FFFFFF;}
</style>
<g>
	<path class="st0" d="M128.9,11.9L128.9,11.9C128.9,11.9,128.9,11.9,128.9,11.9C128.9,11.9,128.9,11.9,128.9,11.9z"/>
	<path class="st0" d="M199.4,5.5c-7.1,0-8.7,1.3-8.7,6.9c0,5.2,2.1,6.5,7.8,6.6c6.4,0,9.5-0.3,9.5-4.5h-4.6c-0.2,1-0.6,1.5-2.6,1.5
		c-4.5,0-5.2-0.4-5.2-2.7h12.4C207.7,7,207.7,5.5,199.4,5.5z M195.4,10.6c0.2-1.4,0.6-1.9,3.8-1.9c3.5,0,3.9,0.2,4.1,1.9H195.4z"/>
	<path class="st0" d="M69,5.2c-3.8,0-5.1,1.4-5.6,2.9c-1-1.7-2.4-2.9-6.1-2.9c-3.6,0-4.5,1.2-5.1,3.4V5.5h0h-4.4v13h4.7v-6.7
		c0-2,1-2.7,3.6-2.7c2.5,0,3.2,0.9,3.2,3.3v6H64v-6.9c0-1.9,1.5-2.5,3.8-2.5c2.3,0,3.2,0.6,3.2,2.5v6.9h4.7v-7.7
		C75.7,7,73.3,5.2,69,5.2z"/>
	<path class="st0" d="M11.9,13.8c-4.4,0-5.3-1.1-5.3-4.7s1-3.5,6.2-3.5c3.8,0,4.5,0.4,4.9,2.2h6.6c-0.5-6.2-2.3-7.7-11.5-7.7
		C2.3,0.2,0,1.9,0,9.5S2.2,19,11.9,19c10.3,0,12.3-1.4,12.3-7.8h-6.6C17.7,13,17,13.8,11.9,13.8z"/>
	<path class="st0" d="M35.5,5.5c-8.2,0-9.2,1.3-9.2,6.8s1.4,6.8,9.2,6.8c8.3,0,9.1-1.4,9.1-7.2C44.6,6.6,43.1,5.5,35.5,5.5z
		 M35.7,15.4c-3.9,0-4.4-0.4-4.4-3.2c0-2.7,0.6-3,4-3c3.9,0,4.5,0.1,4.5,3C39.8,14.9,39.3,15.4,35.7,15.4z"/>
	<path class="st0" d="M100.8,5.2c-3.8,0-5,1.3-5.6,2.9c-1-1.7-2.4-2.9-6.1-2.9c-3.5,0-4.3,1.2-5,3.4V5.5h0h-4.4v13h4.7v-6.7
		c0-2,1.2-2.7,3.6-2.7c2.4,0,3.2,0.8,3.2,3.3v6h4.8v-6.9c0-1.9,1.4-2.5,3.7-2.5s3.3,0.7,3.3,2.5v6.9h4.7v-7.7
		C107.5,7,105.1,5.2,100.8,5.2z"/>
	<path class="st0" d="M227.5,7.8h-1.9c-1.1,0-2.1,0.3-3,0.9V5.9c0-0.6,0.1-1,0.3-1.2c0.4-0.2,0.9-0.3,1.4-0.2h1.3
		c0.4,0,0.8,0,1.2,0.2c0.2,0.3,0.3,0.6,0.3,0.9v0.5h5.5V4.7c0.1-1.4-0.5-2.7-1.6-3.5c-1.4-0.9-3.1-1.3-4.8-1.2h-2.3
		c-2.6,0-4.3,0.6-5.3,1.9c-1,1.2-1.5,3.4-1.5,6.4v4.1c0,3,0.5,5.2,1.5,6.4c1,1.2,2.8,1.9,5.3,1.9h2.3c4.5,0,6.8-1.8,6.8-5.4v-1.8
		c0.1-1.5-0.3-3-1.3-4.2C230.6,8.2,229,7.7,227.5,7.8z M227.6,14.6L227.6,14.6c0,0.6-0.1,0.9-0.3,1c-0.5,0.2-1.1,0.2-1.6,0.2h-1.1
		c-0.5,0-1.1,0-1.6-0.2c-0.2-0.1-0.4-0.5-0.4-1v-1.4c0-0.6,0.1-0.9,0.4-1c0.5-0.2,1.1-0.2,1.6-0.2h1.1c0.5,0,1.1,0,1.6,0.2
		c0.2,0.1,0.4,0.5,0.4,0.9V14.6z"/>
	<path class="st0" d="M162.4,5.5c-8.1,0-9.1,1.3-9.1,6.8s1.4,6.8,9.1,6.8c8.3,0,9.1-1.4,9.1-7.2C171.5,6.6,170,5.5,162.4,5.5z
		 M162.5,15.4c-3.9,0-4.4-0.4-4.4-3.2c0-2.7,0.6-3,4-3c3.9,0,4.5,0.1,4.5,3C166.7,14.9,166.2,15.4,162.5,15.4z"/>
	<path class="st0" d="M183.8,5.2c-2.9,0-3.9,0.6-4.9,2.8V5.5h-4.6v13h4.7v-6.8c0-1.8,1.1-2.7,3.1-2.7c2,0,2.5,0.6,2.6,2.3h4.4
		C189.2,6.9,188.6,5.2,183.8,5.2z"/>
	<path class="st0" d="M145.4,7.6c-1.1-1.5-2.1-2.3-6-2.3c-6.3,0-7.5,1.7-7.5,6.8s1.7,6.7,7.8,6.7c3.8,0,5-1,5.9-2.7v2.4h4.7V0h-5
		V7.6z M141.5,15c-3.8,0-4.7-0.1-4.7-2.8c0-3.1,1.2-3.2,5.2-3.2c2.7,0,3.5,0.4,3.5,2.5C145.5,14.7,145.4,15,141.5,15z"/>
	<path class="st0" d="M119.8,5.5c-8.2,0-9.2,1.4-9.2,6.9c0,5.5,1.4,6.7,9.2,6.7c8.2,0,9.2-1.4,9.2-7.2
		C128.9,6.6,127.3,5.5,119.8,5.5z M119.8,15.4c-3.9,0-4.4-0.4-4.4-3.2c0-2.7,0.6-3,4-3c3.8,0,4.5,0.1,4.5,3
		C123.9,14.9,123.5,15.4,119.8,15.4z"/>
	<path class="st0" d="M250.5,12.2V0.3H243l-7.9,10.9v5.5h9.9v3.8h5.4v-3.8h2.3h0v-4.5H250.5z M245,12h-4.8l4.8-6.4V12z"/>
</g>
</svg>
