<svg id="Layer_1" data-name="Layer 1" xmlns="http://www.w3.org/2000/svg" width="412.78" height="100" viewBox="0 0 412.78 100"><path d="M130.25,97.93V78.55C78.18,92.79,77.83,6.86,131,21.14V1.77C49.29-16.8,49.64,118.13,130.25,97.93Z" fill="#fff"/><path d="M295.67,48.63s6-7.5,7.09-11c6.72-22.42-12.4-39.7-34.39-36.87-18,2.33-28,15.84-25.68,32.47.65,4.57,7.47,15.4,7.47,15.4a65.48,65.48,0,0,0-6.22,7.09c-1.08,1.9-3.21,4.95-3.75,8.14-4,23.59,16.44,36.18,35,35.66,17.56-.46,34.91-14,30.66-36.87C304.86,57.14,295.67,48.63,295.67,48.63ZM264,28.27c0-12.29,18.15-12.13,18.15.63,0,11.27-18.15,11.43-18.15-.61Zm9.39,52.55h0c-14.48,0-14.77-21.26-.25-21.26S287.55,80.82,273.37,80.82Z" fill="#fff"/><path d="M344.86.33C318.77,3,310.39,26.93,312.33,56c1.25,18.58,8.43,34.64,20.65,40.67,12.7,6.27,29.51,2.71,37.53-4.38,19.58-17.07,16.93-68.22.64-83.82C365.7,3.26,356-.81,344.86.33Zm3.76,80.06c-18.41.4-18.67-56-3.12-60C367.39,14.7,368.2,80,348.62,80.39Z" fill="#fff"/><path d="M222.85,48.63s6-7.5,7.09-11c6.72-22.42-12.41-39.7-34.4-36.87-18.06,2.33-28,15.84-25.66,32.47.64,4.57,7.46,15.4,7.46,15.4a65.39,65.39,0,0,0-6.21,7.09c-1.08,1.9-3.21,4.95-3.76,8.14-4,23.59,16.45,36.18,35,35.66,17.55-.46,34.9-14,30.65-36.87C232.05,57.14,222.85,48.63,222.85,48.63ZM191.16,28.27c0-12.29,18.11-12.13,18.14.63,0,11.27-18.14,11.43-18.14-.61Zm9.37,52.55h0c-14.4,0-14.74-21.26-.24-21.26S214.71,80.82,200.53,80.82Z" fill="#fff"/><path d="M20,0H.24L0,100H20.42l-.07-80.47c19,0,19.92,5.5,19.92,11.17,0,6.82-5.62,10.07-15,10.07V60.09c22.28,0,37.07-8.9,37-30C62.26,15.34,57.79.16,20,0Z" fill="#fff"/><rect x="134.35" y="42.54" width="23.61" height="14.93" fill="#fff"/><rect x="392.77" width="20.01" height="99.88" fill="#fff"/></svg>