<svg id="Layer_1" data-name="Layer 1" xmlns="http://www.w3.org/2000/svg" width="361.41" height="100" viewBox="0 0 361.41 100"><path d="M195.22,90.9c-3.55,1-7.87,1.77-8.77-1.65-1-3.78,4.27-19.3,7.89-30.82,2-6.29,3.66-11.52-3.85-13-2.87-.85-6.1,3.2-8.86,9.38-2.46,10.29-7.91,25.47-8.27,35.94-.15,4.64,4.14,6,7,7,9.23,3.25,14.63.07,17.37-3.26C199.81,92.16,197.67,90.18,195.22,90.9Z" fill="#fff"/><path d="M162.28,65.6c-8.29.31-12.07,4.07-12.07,4.07s5.53,1.08,6.72,5.07c2.28,7.54,1.44,20.25-10.75,19.11s-6.26-17.27-2.41-25.51c1.33-2.89,1-4.85-1.12-4.63-6.24.64-18.65,3.95-18.65,20,0,.75-2.27,18.12,20.14,16.11s26.21-16.09,26.21-16.09S175.88,65.1,162.28,65.6Z" fill="#fff"/><path d="M236.79,65.6c-8.29.31-12.08,4.07-12.08,4.07s5.53,1.08,6.73,5.07c2.28,7.54,1.43,20.25-10.75,19.11s-6.27-17.27-2.41-25.51c1.33-2.89,1-4.85-1.1-4.63-6.24.64-18.67,3.95-18.67,20,0,.75-2.27,18.12,20.13,16.11s26.21-16.11,26.21-16.11S250.39,65.1,236.79,65.6Z" fill="#fff"/><path d="M107.92,53.5c8.56-.75,7.54,14.59,12.08,14.09s6-20.13,6-20.13a82.45,82.45,0,0,0-20.14-1.37c-9.78.76-37.26,9.67-36.24,29.57C71,101.3,97.86,99.81,97.86,99.81s20.9-3,22.15-14.1c.57-5.08-3.77-3-6-2s-4.79,7-16.11,8S85.69,80.39,85.78,77.64C86,72,92.24,54.88,107.92,53.5Z" fill="#fff"/><path d="M291.18,63.57c-12.38-1-26.18,14.1-26.18,14.1s7-11.33-2-12.09c-8.21-.68-7.81,7-10.07,14.1s-7.53,18.62,2,18.13S260.46,81.28,277,77.62c5.79-1.21,8.05,6.09,8.05,6.09S294.22,63.82,291.18,63.57Z" fill="#fff"/><polygon points="44.29 0 39.34 4.89 35.68 20.82 29.52 25.69 35.68 0 27.04 0 23.35 3.69 18.43 22.03 12.3 25.69 18.43 0 12.3 0 6.12 4.89 0 30.6 38.15 30.6 45.54 24.48 51.69 0 44.29 0" fill="#fff"/><polygon points="289.97 10.57 284.6 15.92 282.94 22.81 277.12 26.7 281.33 10.57 272.74 10.57 268.62 14.7 267.06 23.03 260.88 26.7 265.09 10.57 257.94 10.57 252.36 15.92 249.24 30.6 284.39 30.6 292.78 24.48 296.37 10.57 289.97 10.57" fill="#fff"/><path d="M244.92,12.25h-11s-2,.33-2-1.3c.09-3.61,4.41-4.84,4.41-4.84h13.55L255,1H229.18s-8.78,2.75-8.71,13.41A5,5,0,0,0,224,19.6h12.3s2.3,0,1.11,2.68c-1.3,2.9-3.57,2.23-3.57,2.23H207.38l-6.17,6.09h40s6.66-1.32,8.59-10.38C251.32,13.31,244.92,12.25,244.92,12.25Z" fill="#fff"/><path d="M191.28,30.6l3.35-12.71c.41-1.48,4.29-3.15,3.27-3s3.53-.67,3.53-.67a4.48,4.48,0,0,1,2.16,1.38c.74,1-.71,2.4-.92,3.51s1.23,1.23,1.23,1.23h6.18s3.31-1.23,4.2-2.46,2-2.54,2-3.64-2.44-2.46-2.44-2.46l-2.53-1.2H192.83S184,15.69,183,16.71c-.36.31-2.73,13.89-2.73,13.89Z" fill="#fff"/><path d="M79.08,24.65c.65-.74,3-9.14,3-10s-2-4-2-4H59s-7.13,5-8,6-3.62,9.62-3,11,4.07,3,4.07,3H70S78.43,25.39,79.08,24.65ZM64,26.58s-3.49.35-4,0-.13-4-.13-4,.46-3.89,1.11-5,4.07-3,4.07-3v0h5.48s-.63,6.64-2,8.52A16.45,16.45,0,0,1,64,26.58Z" fill="#fff"/><path d="M119.16,30.65h25s.82-4,1.86-8c1-3.78,2.14-9.6,2.14-10,0-.89,6.21-8.74,6.21-8.74H143.55L138,10.61H126.1s-7.11,5-8,6-3.63,9.62-3,11S119.16,30.65,119.16,30.65Zm7.8-8.08s.47-3.89,1.15-5,4-3,4-3v0h5.51s-.61,6.64-2,8.52a15.67,15.67,0,0,1-4.49,3.52s-3.5.35-4,0S127,22.57,127,22.57Z" fill="#fff"/><path d="M87.42,30.68c1.21-.57,4.25-4.06,4.25-4.06l3.45-12h6s3.15.38,2,5-2.28,11-2.28,11h10l3.27-13s.31-3.08-.76-4.88-4.25-2.12-4.25-2.12H85.08l-5.67,20Z" fill="#fff"/><path d="M360.6,12.73c-1.12-1.79-4.28-2.12-4.28-2.12h-24l-6.38,20,9.06,0c1.23-.57,4-4.06,4-4.06l3.36-12h6s2.8,1.34,1.64,6-3,10-3,10H358l3.41-13S361.72,14.53,360.6,12.73Z" fill="#fff"/><path d="M148.09,27.6c.56,1.41,4,3,4,3h18s3.58-2.25,6.25-4.06c0,0-15.31.11-16.25,0-.43,0-.27-1.9-.22-3h12.3s2.36-.51,5.9-3.44,4.06-3.24,4.06-5.57a6,6,0,0,0-2-4h-21s-7.06,5-7.94,6S147.53,26.19,148.09,27.6Zm15-11.94a5.21,5.21,0,0,1,2.07-1.08v0h8.12s-.89,3.05-5.3,5h-6.73C160.62,17.8,162.21,16.42,163.11,15.66Z" fill="#fff"/><path d="M306.29,10.61s-11.39,4.06-11.39,13c0,7.25,6,7,6,7h11l.68-1.87S303.11,27,307,20.56c3.32-5.48,5.06-6,7.38-6s3.59-.07,3.05,1.81c-1.08,3.45-4.48,14.22-4.48,14.22v0h11l6.4-20Z" fill="#fff"/></svg>