<svg id="Layer_1" data-name="Layer 1" xmlns="http://www.w3.org/2000/svg" width="297.94" height="100" viewBox="0 0 297.94 100"><path d="M41.18,78.78,34,79.05c-2.65.18-5.28.3-7.93.39v-.39l6.47-6.43c1.85-1.85,3.78-3.88,5.78-6s3.87-4.29,5.54-6.32l35-42.64V.06H3.61V19H38.2l6.73-.21c2.45,0,5-.21,7.51-.39v.39c-2,1.94-4,3.91-6,6s-3.42,3.61-5.27,5.6-3.52,3.85-5,5.61L0,79.92,0,98H80.75V78.78H41.18Z" fill="#fff"/><path d="M176.85,0h-24.5l-8,13.29c-1.13,2-2.3,4.07-3.49,6.26s-2.26,4.35-3.22,6.37-2.23,4.65-3.27,7.13h-.27c-1.13-2.48-2.24-4.83-3.31-7.13s-2-4.14-3.16-6.37-2.26-4.32-3.43-6.26L116.27,0H90.61l30.16,46.72L87.84,98h25.54l10.13-17.25c1.16-1.94,2.32-4,3.49-6.38s2.26-4.5,3.24-6.52,2.24-4.74,3.28-7.09h.27L137,67.85l3,6.52c1.1,2.33,2.2,4.44,3.33,6.38L153.16,98h26.58L147.23,46.6Z" fill="#fff"/><path d="M244.64,47.2v-.42a22,22,0,0,0,10.84-7.63A19.2,19.2,0,0,0,259,27.83a22.86,22.86,0,0,0-2.45-10.67,22.42,22.42,0,0,0-6.91-8,32.37,32.37,0,0,0-10.85-5.07,53.45,53.45,0,0,0-14.3-1.79,52.54,52.54,0,0,0-14.33,1.85,33.72,33.72,0,0,0-11,5.25,23.35,23.35,0,0,0-7,8.25,22.86,22.86,0,0,0-2.44,10.58,19.34,19.34,0,0,0,3.54,11.53,22.42,22.42,0,0,0,11.09,7.57v.39a26.27,26.27,0,0,0-13.83,8.93,23.38,23.38,0,0,0-4.73,14.55,25.11,25.11,0,0,0,3,12.18,27.37,27.37,0,0,0,8.08,8.94A39.12,39.12,0,0,0,209.24,98a61.85,61.85,0,0,0,31,0v.24a38,38,0,0,0,12.18-5.72,26.17,26.17,0,0,0,10.91-21.81,23.85,23.85,0,0,0-4.65-14.6A25.25,25.25,0,0,0,244.64,47.2ZM213.77,20.35a18.75,18.75,0,0,1,21.27,0,11.3,11.3,0,0,1,3.7,8.94A11,11,0,0,1,235,37.9a19.19,19.19,0,0,1-21.27,0A10.76,10.76,0,0,1,210,29.29,11.11,11.11,0,0,1,213.77,20.35Zm23.39,60a18.37,18.37,0,0,1-12.25,3.88,19.05,19.05,0,0,1-12.72-3.82h-.12A12.86,12.86,0,0,1,207.81,70a13.4,13.4,0,0,1,4.58-10.78,18.52,18.52,0,0,1,12.52-4,17.9,17.9,0,0,1,12.37,4A13.6,13.6,0,0,1,241.74,70,12.86,12.86,0,0,1,237.16,80.3Z" fill="#fff"/><rect x="275.45" y="0.06" width="22.5" height="97.94" fill="#fff"/></svg>