<svg id="Layer_1" data-name="Layer 1" xmlns="http://www.w3.org/2000/svg" width="559.98" height="100" viewBox="0 0 559.98 100"><g id="Capa_1" data-name="Capa 1"><path d="M90.6,51.54l-.44-.94c-2.5-5.43-8.07-8.88-17.8-10.93a1,1,0,0,0-.34,0,136.37,136.37,0,0,0-19.12-1.8c-1.29-.14-3.19,0-4.7-.14s-3.18-.15-5.13-.15c-4.06,0-6.79-.1-8.56-.14s-6.42-.17-7.88-.44a14.1,14.1,0,0,1-3.34-2.09,10.69,10.69,0,0,1-2.16-2.44,2.23,2.23,0,0,0-.29-.65,1.36,1.36,0,0,1-.13-1.19,9.38,9.38,0,0,1,2.63-4.53c7.71-7.47,26.15-7.2,54.08.78a11.34,11.34,0,0,0,2.84.36,9,9,0,0,0,4.87-1.38A9.4,9.4,0,0,0,90,19.75a9.53,9.53,0,0,0-.85-7.88A10.86,10.86,0,0,0,83,7,162.88,162.88,0,0,0,40.59,0C25.21,0,14.15,4.23,7.73,12.48A29.45,29.45,0,0,0,.43,27.07,21.74,21.74,0,0,0,2.06,40.6a2.42,2.42,0,0,0,.19.7,29.39,29.39,0,0,0,7.49,9.44,2,2,0,0,0,.49.29A39.1,39.1,0,0,0,18.5,56C21,57.29,26.09,58,34,58.14h9c1.71.14,2.87,0,4.62.14s3.26.15,4.72.15A84.22,84.22,0,0,1,68,59.82a13.05,13.05,0,0,1,5.16,5.05v.76a2.07,2.07,0,0,0,.41.92,7,7,0,0,1,0,1.83c-.17,1.12-.41,1.31-.63,1.46l-.75.63-.34.24a16.18,16.18,0,0,1-5.38,2.44A74.58,74.58,0,0,1,51.88,74.9a126.76,126.76,0,0,1-17.32-.68A89.27,89.27,0,0,1,20,71.47a9.74,9.74,0,0,0-7.64.65,9.49,9.49,0,0,0-5.2,6,10.54,10.54,0,0,0,.7,8,10.74,10.74,0,0,0,6,4.86,97.12,97.12,0,0,0,18.34,3.7c5.87.56,11.41.85,17,.85l3.36.19a97.58,97.58,0,0,0,19-2.43c7.35-1.82,12.6-4.67,15.62-8.41a1.54,1.54,0,0,0,.46-.42,36.67,36.67,0,0,0,5.13-7.9,1.85,1.85,0,0,0,0-.47,24.33,24.33,0,0,0,1.7-8.92.86.86,0,0,0,0-.39V65.36a20.74,20.74,0,0,0-1.07-7A40,40,0,0,0,90.6,51.54Z" fill="#fff"/><path d="M145.5,2.07H144C119.89.61,103.76,27.88,94.91,85.31a9.3,9.3,0,0,0,1.84,7.61,9.55,9.55,0,0,0,6.72,4.14,9.73,9.73,0,0,0,7.81-1.9,10.57,10.57,0,0,0,4.13-6.67c1-6.2,2-12.09,3.07-17.51H169.1c1.24,6.13,2.45,13,3.55,20.34a9.76,9.76,0,0,0,4.13,6.59,9.64,9.64,0,0,0,5.89,2.09,9.54,9.54,0,0,0,1.68-.15,9.87,9.87,0,0,0,6.74-4,10.34,10.34,0,0,0,2-7.69C184.42,30.24,168.73,2.07,145.5,2.07Zm18.44,48.36H123.68v0c5.69-17.66,12.43-27,20.29-27.7C151.63,23.42,158.35,32.74,163.94,50.43Z" fill="#fff"/><path d="M256.47,6.2H184.28A10.35,10.35,0,0,0,177,9.1a10.09,10.09,0,0,0-3.09,7.3,10.56,10.56,0,0,0,10.34,10.31H210V88.32a10.51,10.51,0,0,0,10.32,10.29h0a10.28,10.28,0,0,0,10.29-10.29V26.76h25.86a10.3,10.3,0,0,0,10.27-10.29,4.86,4.86,0,0,0,0-.54h0A10,10,0,0,0,256.47,6.2Z" fill="#fff"/><path d="M353.67,4.43a10.49,10.49,0,0,0-10.33,10.29V55.66a20.11,20.11,0,0,1-1.66,8.27,20.63,20.63,0,0,1-4.52,6.71,20.93,20.93,0,0,1-6.89,4.6A20.11,20.11,0,0,1,322,76.87H309.62a21.54,21.54,0,0,1-15-6.16,23.06,23.06,0,0,1-4.5-6.47L290,63.9a21.81,21.81,0,0,1-1.63-8.24V14.55A10.29,10.29,0,0,0,278.05,4.43a10.51,10.51,0,0,0-10.34,10.29v41A44.05,44.05,0,0,0,270.9,72a1.53,1.53,0,0,0,.39.56A41.32,41.32,0,0,0,280,85.38a43.81,43.81,0,0,0,13.36,9,41.31,41.31,0,0,0,16.32,3.13h12.38a42.36,42.36,0,0,0,16.45-3.16l.41-.27a44.17,44.17,0,0,0,12.89-8.78,44.78,44.78,0,0,0,8.76-12.72,1.55,1.55,0,0,0,.24-.46A41.41,41.41,0,0,0,364,55.73V14.67A10.28,10.28,0,0,0,353.67,4.43Z" fill="#fff"/><path d="M460.53,77.45,440.64,64a39.86,39.86,0,0,0,5-2A26.59,26.59,0,0,0,462,36.61c.64-14.18-8.07-24-25.9-29.19-13.28-4.16-33.3-5.18-59.65-3.11a10.71,10.71,0,0,0-7.08,3.35,9.76,9.76,0,0,0-2.92,6.89V85.72a9.76,9.76,0,0,0,3.14,7.3,11.1,11.1,0,0,0,7.71,3,10.24,10.24,0,0,0,7.37-2.94,9.43,9.43,0,0,0,3.38-7.3V23.91c17.81-.92,31.63,0,41.36,2.75,6.93,2.17,10.46,5.35,10.82,9.73a6.85,6.85,0,0,1-4.13,7.15c-5.62,2.36-14,3-25.2,1.75a11.21,11.21,0,0,0-6.72,1.49,9.76,9.76,0,0,0-.73,17l44.27,30.16a10.55,10.55,0,0,0,6.16,2,12.49,12.49,0,0,0,1.73,0,10.38,10.38,0,0,0,7.29-4.13,10.2,10.2,0,0,0,2-7.62A10.41,10.41,0,0,0,460.53,77.45Z" fill="#fff"/><path d="M549.78,4.91a10.22,10.22,0,0,0-7.29,2.9,10,10,0,0,0-3.09,7.3V61.32L487.73,7.81A12.39,12.39,0,0,0,482.43,5a10.49,10.49,0,0,0-5.86.65,9.07,9.07,0,0,0-4.7,3.63,9.94,9.94,0,0,0-1.9,5.84V86.94a9.58,9.58,0,0,0,2.95,7.17,9.71,9.71,0,0,0,7.29,3.14h.1a10.29,10.29,0,0,0,10.22-10.36V40.67l51.74,53.42a9.12,9.12,0,0,0,7.29,3.16,12.13,12.13,0,0,0,4.09-.75,10.33,10.33,0,0,0,4.57-3.85A9.57,9.57,0,0,0,560,86.94V14.55A10.08,10.08,0,0,0,549.78,4.91Z" fill="#fff"/></g></svg>