<?xml version="1.0" encoding="utf-8"?>
<!-- Generator: Adobe Illustrator 25.4.1, SVG Export Plug-In . SVG Version: 6.00 Build 0)  -->
<svg version="1.1" id="Layer_1" xmlns="http://www.w3.org/2000/svg" xmlns:xlink="http://www.w3.org/1999/xlink" x="0px" y="0px"
	 viewBox="0 0 787.7 100" style="enable-background:new 0 0 787.7 100;" xml:space="preserve">
<style type="text/css">
	.st0{fill:#FFFFFF;}
</style>
<g>
	<path class="st0" d="M232,2.3V2.2l-35.1,95.4h29.6l4.2-13.6H261l4,13.6h30.5L260.7,2.3H232z M237.1,63.6l9.2-29.4h0.3l8.5,29.4
		H237.1z"/>
	<path class="st0" d="M174.1,53.4c9.7-3.6,14.3-14,14.3-23.9c0-18-14.4-27.3-31.1-27.3h-56v95.3h29.4V64.5h15.6
		c11.6,0,12.4,9.5,13.2,18.5c0.3,5,1.1,9.9,2.4,14.6h29.4c-2.7-4.4-2.8-15.8-3.2-20.4C187,65.3,182.1,56.5,174.1,53.4z M146,44
		h-15.4h0V25.1h13.8c11.3,0,14.6,3.5,14.6,9.5C159,43.1,151.5,44,146,44z"/>
	<path class="st0" d="M48.2,2.3H0v95.4h42.5c33.2,0,48.7-18.6,48.7-47.8C91.2,25.8,80,2.3,48.2,2.3z M40.9,73.2H29.4V26.7h9.4
		c21.2,0,23.1,16.7,23.1,22.7C61.9,58.4,59.2,73.2,40.9,73.2z"/>
	<path class="st0" d="M349.7,65.7h13c-1.5,7.1-8.4,10.5-15.2,10.5c-17.9,0-21.5-15.6-21.5-24.6c0-6.6-0.7-27.8,19.5-27.8
		c6.9,0,12.8,5,13.9,11.9h28.1c-4.2-22.4-19.5-35.7-43.8-35.7c-21.5,0-47,14.6-47,50.9c0,27.1,17.4,49,45.6,49
		c10.4,0,20.6-3.7,27.1-12l0.1-0.2l0.9,9.7h18.5V45.2h-39V65.7z"/>
	<path class="st0" d="M451.5,0.1L451.5,0.1c-29-0.1-48.3,20.8-48.3,50c0,29.2,19.4,50,48.3,50c29,0,48.4-20.9,48.4-50
		S480.5,0.1,451.5,0.1z M451.5,76.2L451.5,76.2c-7.5-0.1-19-4.9-19-26.2s11.5-26.2,19-26.2s19,4.9,19,26.2S458.9,76.2,451.5,76.2z"
		/>
	<polygon class="st0" points="570.4,53.5 570.1,53.5 542.3,2.4 512.4,2.4 512.4,97.6 540.2,97.6 540.2,45.5 540.5,45.5 569.7,97.6 
		598.2,97.6 598.2,2.4 570.4,2.4 	"/>
	<polygon class="st0" points="512.3,2.4 512.4,2.4 512.4,2.3 	"/>
	<path class="st0" d="M688.3,47.6v-0.3c0-0.4,12.2-0.4,12.2-19.9c0-7.9-8.9-23.9-35.9-23.9c-9.6-0.4-19.1,2.4-27.1,7.7
		c-7.6,5.8-11.9,14.8-11.6,24.4H651c-0.3-7.8,5.5-11.6,12.8-11.6c5.5,0,12.2,2.3,12.2,8.2c0,7.2-7,8.4-12.7,8.4
		c-2.6,0-5.2-0.2-7.7-0.5v18c2.6-0.4,5.1-0.7,7.7-0.7c6.1,0,12.4,1.6,12.4,9.7c0,7.6-4.8,10.4-12.4,10.4c-4.7,0-8.6-1.1-11.1-4.1
		c-2.7-3-4.1-7.1-3.6-11.1h-25.4c-0.7,7-0.5,36.3,41.3,36.3c30.5,0,39-17.9,39-29.2C703.5,48.7,688.3,48.7,688.3,47.6z"/>
	<path class="st0" d="M745.6,74.9v-0.1c17.5-10.7,40.8-18.2,40.8-41.9c0-19.8-15.4-29.2-38-29.2c-25,0-40.9,14.7-39.4,40.2l25.1-0.1
		c-0.3-11.4,3.3-19.1,14-19.1c6.4,0,11.2,2.9,11.2,11.4c0,6.8-7.7,10.5-12.6,13.5c-11.9,7.2-25.3,14.3-33,25.1
		c-4.9,6.6-7.2,14.8-6.7,23h80.6V74.9H745.6z"/>
</g>
</svg>
