<?xml version="1.0" encoding="utf-8"?>
<!-- Generator: Adobe Illustrator 25.4.1, SVG Export Plug-In . SVG Version: 6.00 Build 0)  -->
<svg version="1.1" id="Capa_1" xmlns="http://www.w3.org/2000/svg" xmlns:xlink="http://www.w3.org/1999/xlink" x="0px" y="0px"
	 viewBox="0 0 328.5 100" style="enable-background:new 0 0 328.5 100;" xml:space="preserve">
<style type="text/css">
	.st0{fill:#FFFFFF;}
</style>
<g>
	<path class="st0" d="M45.6,3.5c-4.8-4.1-12.8-3.3-16.8,1.6h0c-2.2,2.4-2.6,5.7-3.6,8.7C16.8,42.3,8.4,70.7,0,99.1h15.6
		c2.4-8.2,4.9-16.5,7.3-24.7h30.3c2.4,8.2,4.8,16.5,7.3,24.7h15.7C67.4,69.3,58.5,39.5,49.6,9.8C48.9,7.3,47.6,5.2,45.6,3.5z
		 M27.1,60.5c3.7-12.4,7.3-24.7,11-37.1c3.7,12.4,7.4,24.7,11,37.1H27.1z"/>
	<path class="st0" d="M162.4,3.3c-5.3-3.9-12.8-2.8-16.8,2.5V5.7c-1.7,2.2-2.1,5.1-2.9,7.7c-8.5,28.6-17,57.1-25.4,85.7h15.6
		c2.4-8.2,4.9-16.4,7.3-24.7h30.2c2.5,8.2,4.9,16.5,7.3,24.7h15.7c-8.9-29.8-17.7-59.5-26.6-89.3C166.2,7.2,164.6,4.9,162.4,3.3z
		 M144.4,60.4c3.7-12.4,7.3-24.7,10.9-37.1c3.7,12.4,7.4,24.8,11,37.1H144.4z"/>
	<path class="st0" d="M124,1H67.4c0,5,0,10,0,15.1h20.9v83h15V16H124V1z"/>
	<path class="st0" d="M239.5,58.4c2.9-2.2,6.3-3.6,9.1-6c5-4.5,8.1-10.8,8.5-17.5c0.8-6.3,0.4-13-2.6-18.7c-4.6-9-13.8-14.8-24-15.1
		h-17.9c-1.5-0.1-3,0.1-4.5,0.6c-4.9,1.6-8.4,6.1-8.5,11.3V99h15.1V19c0.1-1.8,1.6-3.1,3.4-3.1h11.5c5.7-0.1,10.7,3.8,12.1,9.3
		c1,4.1,1.1,8.7-1.1,12.4c-3,5-8.3,8.1-13.7,10.1c-2.9,1-5.2,3.2-6.4,6c-1.3,3.8-0.8,7.9,1.5,11.2c7.7,11.3,15.4,22.7,23.1,34.1
		h17.8c-8.1-11.8-16.3-23.5-24.2-35.5C237.9,61.9,237.9,59.6,239.5,58.4z"/>
	<polygon class="st0" points="268.3,99 284.2,99 284.2,1 268.3,1 	"/>
	<path class="st0" d="M318.3,81.1c-5.3,0-10,3.6-10,9l0.1,2l-5.9-1.7h0v-8.8h-3.3v11.2l14.7,4.3v-0.7c-1.6-1.3-2.5-3.2-2.5-5.2
		c0.2-3.5,3-6.3,6.6-6.5c3.8-0.2,7.1,2.8,7.2,6.6c-0.1,2.7-1.7,5.1-4.2,6.2l2.5,2.6c3.1-1.7,5-5,5-8.5c0-0.2,0-0.4,0-0.5
		c0,0,0,0,0,0C328.3,85.4,323.8,81,318.3,81.1z"/>
	<path class="st0" d="M307.4,64.1c1.9,0,3.7,1.3,5.1,2.5l15.4,12.3V60.8h-3.3h0V72l-11.5-9.2c-1.7-1.3-3.7-2.1-5.9-2.1h-0.1
		c-4.8,0.1-8.6,4.1-8.5,8.8c0,5.1,3.4,8.3,8.5,8.9V75c-2.7-0.3-4.7-2.4-4.9-5.1C302.1,66.9,304.3,64.3,307.4,64.1z"/>
	<path class="st0" d="M313.8,30.6C313.8,30.6,313.8,30.6,313.8,30.6l-0.2,0c-8.2-0.1-14.8,6.5-14.9,14.6c0,0,0,0,0,0v0.1
		c-0.1,8.2,6.5,15,14.7,15.1c8.2,0.1,15-6.5,15.1-14.7C328.6,37.5,322,30.7,313.8,30.6z M325.1,45.4c0,6-5.2,10.9-11.5,10.9
		S302,51.5,302,45.4c-0.1-6.2,4.9-11.3,11.1-11.4h0.5l0,0c6.3-0.1,11.4,5,11.5,11.2V45.4z"/>
	<path class="st0" d="M313.3,29.9c8.2,0.1,15-6.5,15.1-14.7S322,0.1,313.8,0c0,0,0,0,0,0h-0.2c-8.2-0.1-14.8,6.5-14.9,14.6v0.1
		C298.5,23,305.1,29.7,313.3,29.9z M313.1,3.4h0.5c6.3-0.1,11.4,5,11.5,11.2c0,0,0,0,0,0v0.2c0,6-5.2,10.9-11.5,10.9
		S302,20.9,302,14.9C301.9,8.7,306.9,3.5,313.1,3.4z"/>
</g>
</svg>
