<svg id="Layer_1" data-name="Layer 1" xmlns="http://www.w3.org/2000/svg" width="562.17" height="100" viewBox="0 0 562.17 100"><path d="M19,46.27l15.15-7L35.78,28H60a6,6,0,0,0,6-5.06L68.78,6.26A5.36,5.36,0,0,0,64.36.1,5.58,5.58,0,0,0,63.45,0h-44L26,9.78,24.62,18H10.23L0,28H22.35ZM38.37,9.86H56.71a1.84,1.84,0,0,1,1.79,1.92,1.1,1.1,0,0,1,0,.18l-.42,3a3.69,3.69,0,0,1-3.68,3.2H37Z" transform="translate(0 0)" fill="#fff"/><path d="M109.78,31.74a7.46,7.46,0,0,0,7.46,7.48h28.69l-5.2-9.84H127.36c-2.73,0-4.81-2.06-4.36-4.34l2.31-11.68a4.85,4.85,0,0,1,5-3.55H165l7.8-9.67H122.14a8.43,8.43,0,0,0-8.36,7l-3.9,23.38A9.39,9.39,0,0,0,109.78,31.74Z" transform="translate(0 0)" fill="#fff"/><path d="M71.57,4.08c-.91,7.49-4.21,26.19-4.21,26.19a7.51,7.51,0,0,0,7.39,8.87h32.94a5,5,0,0,1-.8-1.41,5.39,5.39,0,0,1-.28-2.64c.91-7.51,4.22-26.19,4.22-26.19h0a7.51,7.51,0,0,0-6-8.75A8,8,0,0,0,103.47,0h-33a5.13,5.13,0,0,1,.8,1.4A5.44,5.44,0,0,1,71.57,4.08Zm6.2,21.49,2.15-13a3.27,3.27,0,0,1,3.21-2.71h14a3.26,3.26,0,0,1,3.25,3.25,3.07,3.07,0,0,1,0,.53h.06l-2.15,13A3.27,3.27,0,0,1,95,29.35H81a3.24,3.24,0,0,1-3.25-3.24A3.27,3.27,0,0,1,77.77,25.57Z" transform="translate(0 0)" fill="#fff"/><path d="M31.91,75.62c-2.72,0-4.8-2.06-4.35-4.34l2.23-11.66a4.85,4.85,0,0,1,5-3.57H71.35l7.83-9.67H26.63a8.44,8.44,0,0,0-8.37,7L14.37,76.79a6.75,6.75,0,0,0-.1,1.19,7.46,7.46,0,0,0,7.45,7.48H50.49l-5.21-9.84Z" transform="translate(0 0)" fill="#fff"/><polygon points="161.35 39.17 164.47 13.23 151.69 13.23 148.59 39.17 161.35 39.17" fill="#fff"/><polygon points="178.42 39.17 194.83 39.17 182.17 19.6 198.85 0.03 182.44 0.03 165.77 19.6 178.42 39.17" fill="#fff"/><polygon points="240.59 39.14 235.12 29.3 210.21 29.3 210.84 23.41 227.22 23.41 231.72 14.97 211.72 14.97 212.31 9.73 233.7 9.73 239.76 0 201.48 0 197.26 39.14 240.59 39.14" fill="#fff"/><polygon points="246.13 75.54 228.4 75.54 229.04 69.65 245.48 69.65 249.98 61.21 230 61.21 230.52 55.95 251.91 55.95 257.95 46.23 219.68 46.23 215.47 85.38 251.6 85.38 246.13 75.54" fill="#fff"/><polygon points="253.07 9.79 247.79 39.17 261.28 32 265.22 9.79 279.84 9.79 288.27 0.03 242.18 0.03 236.26 9.79 253.07 9.79" fill="#fff"/><polygon points="93.63 46.25 89.83 64.29 69.49 64.29 70.56 59.2 57.99 59.2 52.49 85.41 65.06 85.41 67.12 75.57 87.47 75.57 85.41 85.41 97.98 85.41 106.19 46.25 93.63 46.25" fill="#fff"/><path d="M124.45,46.25l-23,39.16h15l5.2-10H135.5l2.29,10h15.06L142.09,46.25Zm1.21,21.5L131.2,57l2.47,10.73Z" transform="translate(0 0)" fill="#fff"/><polygon points="167.95 75.4 172.66 46.2 161.41 46.2 155.18 85.35 182.3 85.35 178.43 75.51 167.95 75.4" fill="#fff"/><polygon points="198.05 75.4 202.69 46.2 191.51 46.2 185.28 85.35 212.41 85.35 208.53 75.51 198.05 75.4" fill="#fff"/><polygon points="292.83 35.53 288.26 67.72 272.29 46.25 261.28 46.25 250.37 100 265.84 92.32 270.41 67.92 283.9 85.41 298.43 85.41 306.21 29.1 292.83 35.53" fill="#fff"/><path d="M511.89,35.64c-8.18-9.1-29.72-3.15-32-2.49a43.36,43.36,0,0,0-10.07,3.94c-7.52,4.21-13.27,12.17-15.57,15.57h24.09a5.62,5.62,0,0,1-1.54-4.87,5.7,5.7,0,0,1,2.95-3.43,9.05,9.05,0,0,1,3.16-1,20.59,20.59,0,0,1,6.6-.19c2.81.35,3.47.94,3.72,1.18a4,4,0,0,1,1.31,2.59c0,.42,0,2.07-2.46,4.22C485.18,57,458,67.52,454.66,68.83a72.91,72.91,0,0,0-8.15,4.08c-4.57,2.6-6,4-6.91,5.19a16.18,16.18,0,0,0-2.89,7.31h65.71l7.35-16.52H508C507.17,70,504.51,74,500,74H469.86c15.91-8.35,24.9-12.86,29.52-15a42.86,42.86,0,0,0,5-2.7c3.42-2.12,6.08-3.79,8.1-6.94a12,12,0,0,0,2.24-8A10.6,10.6,0,0,0,511.89,35.64Z" transform="translate(0 0)" fill="#fff"/><path d="M493.08.24l-20.75,8-30,41.1L414.45,70.28H402l-3.19-5.72,28-64.32h-27l-10.45,46H314.17a8.43,8.43,0,0,0-8.43,7l-3.9,23.38A7.45,7.45,0,0,0,308,85.22a7.09,7.09,0,0,0,1.22.1h24.9c6.13,0,9.65-4.95,10.07-11.09l1-14.06H329.45l-5.89,7.55h9.17v2.49a5.43,5.43,0,0,1-5.41,5.41h-8c-2.73,0-4.81-2.06-4.36-4.34l2.31-11.66a4.84,4.84,0,0,1,5-3.54h25.64l-3.16,29.3H386.8l-5.47-9.84H357.7l.63-5.92h16.39l4.5-8.44h-20l.57-5.23h27.3v0l-3.26,14.35,9.31,15.13h39.36a11.41,11.41,0,0,1,.16-2.11c1.85-12.3,19.89-18.69,25.06-20.36l5-6.33H447.91a47.49,47.49,0,0,1,7.2-13.39C466.08,29.68,482.76,28,487,27.64l19.25-9.41h29.35l26.59-18Z" transform="translate(0 0)" fill="#fff"/></svg>