<svg id="Layer_1" data-name="Layer 1" xmlns="http://www.w3.org/2000/svg" width="775.15" height="100" viewBox="0 0 775.15 100"><polygon points="754.89 0.01 754.89 67.06 702.53 0.01 687.32 0.01 687.32 100 707.6 100 707.6 34.61 759.94 100 775.15 100 775.15 0.01 754.89 0.01" fill="#fff"/><polygon points="594 99.61 666.63 99.61 630.34 30.08 594 99.61" fill="#fff"/><path d="M630,0c-27.5,0-49.83,24.28-49.83,54.26l-.12,0a57.06,57.06,0,0,0,11.22,34.29L604,64.33A36.45,36.45,0,0,1,602,52.53c0-17.78,12.4-32.2,27.91-32.2s27.9,14.42,27.9,32.2a36.6,36.6,0,0,1-1.55,10.85l12.82,24.53a57.14,57.14,0,0,0,10.73-33.63C679.85,24.33,657.54,0,630,0Z" fill="#fff"/><rect x="550.54" y="0.01" width="20.26" height="99.98" fill="#fff"/><path d="M33.7,37.54C9.3,28.3,28.8,4.46,49,22.58l9.94-12.19C52.15,4.1,41.56-.46,32.08,0,14.32.92,2.62,10.55,2.62,29c0,30.42,42.12,24,42.12,41.86,0,17-22.51,15.22-32.93-.71L0,82.16c20.82,28.1,63.28,22.35,63.28-12.89C63.28,50.1,50.32,43.79,33.7,37.54Z" fill="#fff"/><rect x="447.52" y="0.01" width="20.26" height="99.98" fill="#fff"/><polygon points="399.39 64.27 376.6 0.01 354.65 0.01 393.48 99.98 405.31 99.98 444.14 0.01 422.19 0.01 399.39 64.27" fill="#fff"/><path d="M352.54,40.79a58.68,58.68,0,0,0,1.16-9.44,51.16,51.16,0,0,0-1.21-9.3C350,10.32,337.11,0,325.21,0H292.15V100h20.27V62.78h1.93L336.06,100h25.33L334.14,61.46A28.75,28.75,0,0,0,352.54,40.79Zm-33.37,5h-6.75V17h6.75c8.41,0,15.2,5.13,15.2,13.55A15.24,15.24,0,0,1,319.17,45.76Z" fill="#fff"/><polygon points="248.25 55.92 278.65 55.92 278.65 38.98 248.25 38.98 248.25 16.95 278.65 16.95 278.65 0.01 227.99 0.01 227.99 99.98 280.34 99.98 280.34 83.04 248.25 83.04 248.25 55.92" fill="#fff"/><path d="M191.79.08l-33-.07V100H179V62.78h14.47c11.87,0,23.33-10.22,25.64-21.91a58.1,58.1,0,0,0,1.18-9.47,53,53,0,0,0-1.21-9.3C216.56,10.36,203.71.08,191.79.08Zm-6,45.68H179V17h6.75c8.4,0,15.2,5.13,15.2,13.55A15.24,15.24,0,0,1,185.76,45.76Z" fill="#fff"/><path d="M511.4,37.6c-24.44-9.18-4.9-33.08,15.27-15l10-12.19C529.84,4.15,519.27-.4,509.78.1c-17.75.88-29.45,10.51-29.45,29,0,30.42,42.14,24,42.14,41.86,0,16.9-22.55,15.16-33-.77l-11.82,12c20.81,28.07,63.36,22.32,63.36-12.92C541.05,50.1,528,43.8,511.4,37.6Z" fill="#fff"/><path d="M126,64.64a17.4,17.4,0,0,1-34.79,0V0H70.93v62.3a37.67,37.67,0,0,0,75.34,0V0H126Z" fill="#fff"/></svg>