<svg id="Layer_1" data-name="Layer 1" xmlns="http://www.w3.org/2000/svg" width="300.22" height="100" viewBox="0 0 300.22 100"><path d="M52.63,16A33.84,33.84,0,0,0,24.47,2.25H.06V22.86L0,23.15H.06V98.49H10V71.37H21.27a44.49,44.49,0,0,0,16-2.28C51,64.36,60.1,49.86,59.65,35.55A36.14,36.14,0,0,0,52.63,16Zm-7.29,36.3a24.35,24.35,0,0,1-18.88,9.8c-5.49.08-10.86,0-16.47,0l-.09-51c5.59,0,11.18-.13,16.76.13A25.41,25.41,0,0,1,47.11,23.82,25.87,25.87,0,0,1,45.34,52.27Z" transform="translate(0 0)" fill="#fff"/><path d="M95.29,86.68a41,41,0,1,1,53-58.43h10.3a50,50,0,1,0,1.53,40h-9.87A41,41,0,0,1,95.29,86.68Z" transform="translate(0 0)" fill="#fff"/><polygon points="271.61 48.49 298.06 2.24 276.05 2.24 260.61 29.25 245.17 2.24 223.55 2.24 223.16 2.24 193.68 2.24 185.26 2.24 175.4 2.24 175.4 98.52 193.68 98.52 193.68 57.6 222.17 57.6 222.17 38.9 193.68 38.9 193.68 21.32 223.55 21.32 223.55 2.92 249.6 48.49 221 98.52 243.01 98.52 260.61 67.74 278.21 98.52 300.21 98.52 271.61 48.49" fill="#fff"/></svg>