<svg id="Layer_1" data-name="Layer 1" xmlns="http://www.w3.org/2000/svg" width="800.2" height="100" viewBox="0 0 800.2 100"><path d="M103.26,1.56H75l-.4,1.26H72.07L61.86,34.6c-2.55,8.69-5.19,18.7-7.55,28.12-2-9.72-4.55-19.79-7.09-29.24L37.85,1.56H9.05L9,2.82H6.1L0,98.44H20l.06-1.26H23l1.71-36.32c.49-8.28.85-17.94,1.21-27.39,2,9.16,4.25,18.38,6.48,26.38l10.21,37H59.44l.4-1.26H62.4L74,58.31c2.74-8.33,5.64-18,8.17-27.41.12,11,.46,21.76.8,30.94l1.41,36.6h21.14l-.06-1.26h3Z" fill="#fff"/><path d="M167.25,0a47.65,47.65,0,0,0-20.33,4.33c-18.13,6.89-29.16,24.77-29.16,47,0,27.24,16.6,48.66,45,48.66a50.43,50.43,0,0,0,21.57-4.53c17.43-6.69,28.34-23.35,28.34-47.09C212.65,22,196.62,0,167.25,0Zm-.43,81.58c-14.47,0-23.26-13.2-23.26-31.92,0-14.17,4.95-25.62,13.78-30.25a20.37,20.37,0,0,1,6.39-1c14.9,0,23.13,14.76,23.13,31.92,0,14.18-4.88,25.63-13.68,30.26A20.38,20.38,0,0,1,166.82,81.58Z" fill="#fff"/><path d="M269,0a47.65,47.65,0,0,0-20.33,4.33c-18.13,6.89-29.15,24.77-29.15,47,0,27.24,16.6,48.66,45,48.66a50.44,50.44,0,0,0,21.58-4.53c17.43-6.69,28.33-23.35,28.33-47.09C314.38,22,298.35,0,269,0Zm-.42,81.58c-14.47,0-23.27-13.2-23.27-31.92h0c0-14.17,5-25.62,13.78-30.25a20.39,20.39,0,0,1,6.4-1c14.89,0,23.12,14.76,23.12,31.92,0,14.18-4.88,25.63-13.68,30.26A20.36,20.36,0,0,1,268.56,81.58Z" fill="#fff"/><path d="M387.88,2.82h-2.95v28q-.15,15.29,1,30.56A275.74,275.74,0,0,0,373.69,36.6l-19.86-35H328.58V2.82h-2.95V98.44h19.86V97.18h2.95V68.38c0-12.55-.19-23.72-.55-34.18q6.28,14,13.77,27.35l20.43,36.89h22.7V97.18h2.95V1.56H387.88Z" fill="#fff"/><polygon points="448.19 1.56 426.48 1.56 426.48 2.82 423.53 2.82 423.53 98.44 483.26 98.44 483.26 97.18 486.21 97.18 486.21 79.03 448.19 79.03 448.19 1.56" fill="#fff"/><polygon points="498.98 2.82 496.03 2.82 496.03 98.44 517.74 98.44 517.74 97.19 520.69 97.19 520.69 1.56 498.98 1.56 498.98 2.82" fill="#fff"/><path d="M583.68,43.68h-2.95V60.56h14.75V80.11a29.12,29.12,0,0,1-7.68.62c-17.74,0-30.08-11.64-30.08-31.36,0-13.76,6-22.89,15.34-27.46A38.81,38.81,0,0,1,586.4,19.7a53,53,0,0,1,22.28,4.11l.57-2.18c.8.29,1.6.6,2.38.93l4.54-17.31a73.59,73.59,0,0,0-53.73.81c-18.33,7.1-30.27,22.89-30.37,45.7-.15,14.05,4.68,26.53,13.48,34.76C554.34,95,567,99.43,584.42,99.43A106.65,106.65,0,0,0,616.34,94V93.7c1-.29,2-.59,2.95-.91V42.42H583.68Z" fill="#fff"/><polygon points="693.5 2.82 690.55 2.82 690.55 38.31 657.89 38.31 657.89 1.56 636.18 1.56 636.18 2.82 633.23 2.82 633.23 98.44 654.94 98.44 654.94 97.19 657.89 97.19 657.89 58.43 690.55 58.43 690.55 98.44 712.11 98.44 712.11 97.19 715.07 97.19 715.07 1.56 693.5 1.56 693.5 2.82" fill="#fff"/><polygon points="800.2 1.56 726.71 1.56 726.71 2.82 723.75 2.82 723.75 20.98 749.43 20.98 749.43 98.44 771.14 98.44 771.14 97.18 774.09 97.18 774.09 20.98 797.25 20.98 797.25 19.72 800.2 19.72 800.2 1.56" fill="#fff"/></svg>