<svg id="Layer_1" data-name="Layer 1" xmlns="http://www.w3.org/2000/svg" width="351.98" height="100" viewBox="0 0 351.98 100"><path d="M198.45,85.55c-.29-.38-.55-.76-.79-1.14a15.73,15.73,0,0,1-.78-1.43l-10.26-17.1-6.91-11.52a31,31,0,0,0,15.1-9.8,24.12,24.12,0,0,0,5.12-10.44H175.36a9.55,9.55,0,0,1-5.07,6.44A25.79,25.79,0,0,1,158,43.2H146.24V15.75h12.44a23.1,23.1,0,0,1,12.16,3q5,3,5,11a16.83,16.83,0,0,1-.51,4.36h24.59a28.87,28.87,0,0,0,.67-6.36Q199.89,14.32,190,8.38A42.8,42.8,0,0,0,168.17,2.3h-.36a1.08,1.08,0,0,1-.49-.15H116.19v7c2.38.38,4,1.11,4.8,2.21s1.21,2.89,1.21,5.37V34.12h0V83.26a9.12,9.12,0,0,1-1.36,5.29c-.91,1.34-2.45,2.06-4.65,2.15v6.87h36.05V90.84c-2.38-.19-4-.92-4.79-2.21a10.46,10.46,0,0,1-1.21-5.51l0-17.24V56.8h7.86l5.39,9.08,18.79,31.69h27.19V90.84a12,12,0,0,1-4.22-2.14A15.84,15.84,0,0,1,198.45,85.55Z" transform="translate(0 0)" fill="#fff"/><path d="M335.28,81.69a25.29,25.29,0,0,1-9.08,2.86c-.86.09-1.73.17-2.58.21s-1.68.07-2.43.07q-16,0-25.9-12.37a49.48,49.48,0,0,1-4.46-6.62h0A42.38,42.38,0,0,1,285.43,45a42.67,42.67,0,0,1,1.31-10.84h0l.23-1a33,33,0,0,1,4.77-9.88q6.39-8.94,20.1-8.94A21.51,21.51,0,0,1,324,17.9q5.43,3.57,5.44,10.86a9.4,9.4,0,0,1-.65,2.5,10.63,10.63,0,0,1-1.22,2.22l1,.64h.06l5.41,3.36,3.22-3.36h-.06L352,18.75A47,47,0,0,0,334,4.52,55.46,55.46,0,0,0,311.32,0,57.28,57.28,0,0,0,275,12.74a40.52,40.52,0,0,0-14.49,21.37h0a49.22,49.22,0,0,0-1.66,13,48.32,48.32,0,0,0,3.73,18.77h0c.37.89.77,1.78,1.19,2.65a51,51,0,0,0,13.66,17.31,55.13,55.13,0,0,0,20.1,10.37,103.15,103.15,0,0,0,22.54,3.65c1,.09,2.09.14,3.14.14h3.15c1.53,0,3,0,4.5-.07s3-.12,4.51-.22c2.29-.19,4.55-.45,6.8-.79a62.47,62.47,0,0,0,6.64-1.35V74.25l-7.72.14A12,12,0,0,1,335.28,81.69Z" transform="translate(0 0)" fill="#fff"/><path d="M212.22,9.17q3.59.55,4.8,2.21c.8,1.1,1.21,2.89,1.21,5.37V34.12h0V83.26a9.45,9.45,0,0,1-1.35,5.29q-1.36,2-4.66,2.15v6.87h36V90.84c-2.39-.21-4-.92-4.8-2.21a10.27,10.27,0,0,1-1.21-5.51V65.84h0V34.12h0V15.17a11.5,11.5,0,0,1,1.15-3.72,4,4,0,0,1,3.13-2.15L248.28,9V2.17H212.22Z" transform="translate(0 0)" fill="#fff"/><path d="M105.61,49.46a50.87,50.87,0,0,0-2.27-15.39h0A44.77,44.77,0,0,0,90,13.89,53.59,53.59,0,0,0,53.26,0,54.66,54.66,0,0,0,15.85,14,44.9,44.9,0,0,0,2.46,34.07H2.38A51.71,51.71,0,0,0,0,50.07v.14A55.7,55.7,0,0,0,2.16,65.93,43.1,43.1,0,0,0,15.42,86.55Q30.95,100,52.83,100T90.17,86a45.31,45.31,0,0,0,13-20.12H81.15l22.07-.07A54.21,54.21,0,0,0,105.61,49.46ZM78,65.88a44,44,0,0,1-4.89,9.37q-6.84,9.87-20,9.87-14.72,0-21.52-10.87a43.75,43.75,0,0,1-4.09-8.36h0c-.18-.67-2.68-10.34-2.74-15.79a46.17,46.17,0,0,1,2.79-16h.05a43.83,43.83,0,0,1,4-8.13q6.79-11,21.67-11,13.17,0,19.81,9.73A44.9,44.9,0,0,1,78,34.12h0a44.18,44.18,0,0,1,2.7,12,19.19,19.19,0,0,0,.07,2,19.19,19.19,0,0,1,.07,2v1.72a12.34,12.34,0,0,1-.14,1.72A43.69,43.69,0,0,1,78,65.88Z" transform="translate(0 0)" fill="#fff"/></svg>