<?xml version="1.0" encoding="utf-8"?>
<!-- Generator: Adobe Illustrator 26.5.0, SVG Export Plug-In . SVG Version: 6.00 Build 0)  -->
<svg version="1.1" id="Layer_1" xmlns="http://www.w3.org/2000/svg" xmlns:xlink="http://www.w3.org/1999/xlink" x="0px" y="0px"
	 viewBox="0 0 275.6 100.9" style="enable-background:new 0 0 275.6 100.9;" xml:space="preserve">
<style type="text/css">
	.st0{fill:#FFFFFF;stroke:#FFFFFF;stroke-width:0.7501;stroke-miterlimit:15.12;}
	
		.st1{fill-rule:evenodd;clip-rule:evenodd;fill:#FFFFFF;stroke:#FFFFFF;stroke-width:1.5103;stroke-linecap:round;stroke-linejoin:round;}
	.st2{fill:#FFFFFF;stroke:#FFFFFF;stroke-width:1.0002;stroke-miterlimit:10;}
	.st3{fill:#FFFFFF;stroke:#FFFFFF;stroke-width:1.4003;stroke-miterlimit:15.12;}
	.st4{fill:#FFFFFF;stroke:#FFFFFF;stroke-width:2.3705;stroke-linecap:round;stroke-linejoin:round;}
</style>
<g id="Layer_1_00000172398028313127123040000009518683796321808527_">
	<g>
		<path class="st0" d="M252.1,52.6c-5.5-0.8-6.2-1-6.8-1.8c-0.9-1.2-0.8-12,0.1-12.9c0.4-0.4,0.9-0.5,1.4-0.4c3.6,1,7.1,1.4,9.8,1.2
			c3.4-0.2,4.9-1,5.1-2.6c0.1-1.2-0.4-1.5-6.9-4c-3.3-1.3-4.6-2-6.1-3.5c-6.2-5.9-6-17.3,0.5-23.8c3.8-3.8,7.7-4.9,14.9-4.3
			c2.4,0.2,4.7,0.4,5.2,0.4c1.8,0,2,0.7,2,7.2c0,5-0.1,6.1-0.6,6.6c-0.4,0.4-0.9,0.5-1.4,0.4c-4-1.2-9.7-1.1-11.1,0.2
			c-1.7,1.6-0.9,2.7,3.3,4.3c7.5,2.8,10.4,4.8,12.2,8.4c2.7,5.3,2.1,12.7-1.4,18c-1.5,2.3-4.9,4.8-7.9,5.8
			C261.9,52.6,254.9,53.1,252.1,52.6L252.1,52.6L252.1,52.6z M53.9,51.1c-0.8-0.5-0.8-0.8-0.8-24.5c0-14.4,0.2-24.2,0.4-24.5
			c0.7-1.1,17.6-1.5,21.8-0.6c7,1.7,11.8,6.9,13.4,14.6c1.1,5.3,0.5,10-1.9,14.9c-3.2,6.5-9.1,10.1-16.8,10.3l-3.3,0.1l0,3.2
			c0,5.1-0.2,6.1-1,6.7C64.7,52,55,51.8,53.9,51.1L53.9,51.1L53.9,51.1z M69.8,28c3.6-0.9,5.4-3.8,5-8.1c-0.3-3.6-2.2-5.4-6.1-5.7
			L66.3,14V16c0,1.1,0.1,4.4,0.3,7.2C66.8,29,66.6,28.8,69.8,28L69.8,28z M92.8,51.1c-0.5-0.5-0.6-3.3-0.6-24.6s0.1-24.1,0.6-24.6
			c0.5-0.5,1.6-0.6,6.1-0.6c3.8,0,5.7,0.1,6,0.5c0.3,0.3,0.5,2.9,0.5,9v8.6h9.4v-8.4c0-7.2,0.1-8.5,0.6-9c0.5-0.5,1.6-0.6,6.1-0.6
			c3,0,5.8,0.2,6,0.3c0.4,0.3,0.5,4.5,0.5,24.7c0,22.9-0.1,24.4-0.7,24.9c-1.1,0.8-11.2,0.7-12-0.1c-0.5-0.5-0.6-1.9-0.6-9.7v-9.1
			l-4.7,0l-4.7,0v9.1c0,7.8-0.1,9.2-0.6,9.7C104,52,93.7,52,92.8,51.1L92.8,51.1L92.8,51.1z M136.8,51.3c-0.3-0.3-0.5-6.4-0.5-25
			c0-22,0.1-24.6,0.6-24.8c0.3-0.1,3-0.2,6-0.2c4.4,0,5.5,0.1,6,0.6c0.5,0.5,0.6,3.3,0.6,24.6s-0.1,24.1-0.6,24.6
			c-0.5,0.5-1.6,0.6-6.1,0.6C138.9,51.7,137.1,51.6,136.8,51.3L136.8,51.3z M158,51.1c-0.5-0.5-0.6-3.3-0.6-24.8
			c0-18.3,0.1-24.3,0.5-24.6c0.7-0.7,11.7-0.6,12.3,0.1c0.3,0.4,0.4,5.1,0.4,18.7l0,18.1l5.3-0.1c2.9,0,5.4,0.1,5.7,0.2
			c0.3,0.2,0.4,2.4,0.4,6.2c0,5.5-0.1,6-0.7,6.4c-0.5,0.2-4.8,0.4-11.6,0.4C160.1,51.7,158.5,51.6,158,51.1L158,51.1z M185.9,51.2
			c-0.6-0.4-0.7-2.2-0.7-24.7c0-18.3,0.1-24.3,0.4-24.8C186.3,1,197,1,197.8,1.9c0.5,0.5,0.6,3.3,0.6,24.5c0,23.4,0,23.9-0.8,24.6
			c-0.7,0.7-1.3,0.8-6,0.8C188.1,51.7,186.3,51.6,185.9,51.2L185.9,51.2L185.9,51.2z M207.5,51.4c-0.3-0.1-0.7-0.4-0.8-0.6
			c-0.4-0.6-0.3-48.1,0.1-48.8c0.7-1.1,17.6-1.6,21.8-0.6c8,1.9,13.1,8.5,13.8,17.7c0.5,6.2-1.8,12.8-5.9,16.8
			c-3.5,3.5-7.9,5.2-13.6,5.3l-3.4,0.1l0,4.7c0,3.1-0.1,4.8-0.4,5.2c-0.4,0.4-1.6,0.5-5.8,0.5C210.4,51.7,207.8,51.6,207.5,51.4
			L207.5,51.4z M223.5,27.8c3.2-1,4.7-3.2,4.7-7.1s-2.6-6.6-6.7-6.6h-1.9v7.2l0,7.2h1C221.2,28.4,222.5,28.1,223.5,27.8L223.5,27.8
			L223.5,27.8z"/>
		<g>
			<path class="st1" d="M253.9,80.9l-29,6.1l0.5-12.5L253.9,80.9L253.9,80.9z"/>
			<path class="st2" d="M121.6,98c-0.3-0.3-0.5-8.3-0.5-17.8V63h29.1c30.9,0,39.1,0.6,49.4,3.4c5,1.4,11.8,4.4,14.1,6.3
				c5.8,4.8,5.4,11.7-0.8,16.2c-4.7,3.4-10.2,5.2-23.1,7.6c-7.1,1.3-10.8,1.5-37.8,1.7C135.6,98.4,121.9,98.3,121.6,98L121.6,98
				L121.6,98z M182.8,90.6c11.3-1.5,16.5-3.4,19.3-6.9c1.8-2.3,1.8-4.4,0-6.7c-4.5-5.8-17.5-7.9-48.1-7.9h-19.2v11.2v11.2H155
				C168.6,91.6,177.7,91.2,182.8,90.6L182.8,90.6L182.8,90.6z M261.9,97.9c-0.3-0.3-0.5-5.5-0.5-11.6V75.2H273v23.2h-5.3
				C264.7,98.4,262.1,98.2,261.9,97.9L261.9,97.9L261.9,97.9z M261.4,66.7V63H273v7.5h-11.6V66.7L261.4,66.7z"/>
		</g>
		<path class="st2" d="M99.5,84.6c-5.3,5.2-21.6,8.9-41,8.9c-23.5-0.1-42.6-5.8-42.6-13c0-7,19.1-12.8,42.6-12.6
			c19.1-0.2,35.3,3.5,41,8.5h16.2c-5.5-8.8-28.9-15.6-57.2-15.4c-32.1-0.2-58.2,8.7-58,19.5c-0.2,11,25.9,19.8,58,19.9
			c28.4-0.1,52-6.9,57.2-15.8C115.7,84.6,99.5,84.6,99.5,84.6z"/>
		<path class="st3" d="M10.1,51.9c-0.8-0.6-1.4-1.1-2.2-1.9C4,46.3,1.8,41.4,1.4,35.9C1.3,35.1,1,1.8,1.4,2c0,0,0,0,0.4-0.1
			c1-0.1,4.4-0.5,6.3-0.6c8.5-0.6,16.1-0.7,24.4-0.3c4.4,0.2,10.4,0.7,12.1,0.9l0.2,0v16.9c0,14.2,0,17-0.1,17.7
			c-0.6,6-3.6,11.4-8.4,15.2C27.7,57.3,18.3,58,10.1,51.9L10.1,51.9L10.1,51.9z"/>
		<path class="st2" d="M21.7,56.2c-4.3-0.3-8.3-1.8-11.7-4.3c-0.8-0.6-1.4-1.1-2.2-1.9C4,46.3,1.8,41.4,1.4,35.9
			C1.3,35.1,1,1.8,1.4,2c0,0,0,0,0.4-0.1c1-0.1,4.4-0.5,6.3-0.6c8.5-0.6,16.1-0.7,24.4-0.3c4.4,0.2,10.4,0.7,12.1,0.9l0.2,0v16.9
			c0,14.2,0,17-0.1,17.7c-0.6,6-3.6,11.4-8.4,15.2C32.3,54.9,27,56.5,21.7,56.2L21.7,56.2L21.7,56.2z M24.8,53.3
			c2.4-0.2,4.7-0.9,6.9-2c0.3-0.2,0.6-0.3,0.6-0.3c0-0.1-0.4-3.3-0.5-3.9c-0.2-1.1-0.4-1.6-0.9-2c-0.4-0.2-0.7-0.3-1.7-0.5
			c-0.8-0.1-4.5-0.6-4.6-0.6c0,0,0-0.1,0-0.2v-0.2l1.9-0.2c2.5-0.3,3.7-0.5,4.1-0.7c0.2-0.1,0.4-0.2,0.6-0.4c0.4-0.4,0.5-0.7,0.7-2
			c0.1-0.9,0.6-4.5,0.6-4.6c0-0.1-0.1-0.1-1.1,0.1c-1.7,0.4-3.2,1.1-5.8,2.5c-4.8,2.6-7.3,3.5-10.9,3.7c-3.2,0.2-6.5-0.6-9.3-2.2
			c-0.2-0.1-0.4-0.2-0.5-0.2c-0.1,0,0.6,2,1.1,3c1,2,2.1,3.6,3.6,5.1c3.2,3.3,7.4,5.2,12,5.6C22.2,53.4,24.2,53.3,24.8,53.3
			L24.8,53.3L24.8,53.3z M27.8,52c0-0.2-0.3-2.2-0.3-2.4c-0.1-0.3-0.4-0.5-0.7-0.6c-0.2,0-0.7-0.1-1.3-0.2c-0.9-0.1-1.1-0.2-1-0.2
			c0,0,0.5-0.1,1.1-0.2c1.3-0.2,1.5-0.2,1.7-0.4c0.2-0.2,0.3-0.4,0.4-1.7c0.1-0.6,0.2-1.1,0.2-1.1c0.1-0.1,0.1,0.1,0.2,0.5
			c0.1,0.8,0.3,1.9,0.4,2.1c0.2,0.4,0.4,0.4,2,0.7c0.5,0.1,0.9,0.1,0.9,0.1s0,0,0,0.1c0,0.1,0,0.1-1.4,0.3c-1.1,0.2-1.3,0.2-1.5,0.5
			c-0.2,0.2-0.2,0.4-0.3,1.5C27.9,52,27.9,52,27.8,52C27.8,52,27.8,52,27.8,52L27.8,52L27.8,52z M33.8,50.1c2-1.4,3.7-3,5.1-5.2
			c0.2-0.4,0.4-0.7,0.4-0.7c-0.1,0-2.7,0.3-3.6,0.5c-1,0.2-1.3,0.3-1.7,0.7c-0.3,0.3-0.4,0.7-0.6,1.4c-0.1,0.7-0.5,3.5-0.5,3.7
			c0,0.1,0,0.1,0.1,0.1C33.1,50.5,33.4,50.3,33.8,50.1L33.8,50.1L33.8,50.1z M40.1,42.8c0.5-1,0.8-1.9,1.2-2.9
			c0.3-0.9,0.6-2.3,0.6-2.9c0-0.4,0.1-0.4-0.9-0.7c-1.4-0.5-3.2-0.8-4.7-0.9c-1.1-0.1-2.7,0-3.4,0.1c-0.1,0-0.2,0.1-0.2,0.2
			c0,0.3,0.5,4.1,0.6,4.9c0.2,1.3,0.5,1.8,1.3,2.1c0.3,0.1,1.5,0.3,3.4,0.6C39.9,43.6,39.6,43.7,40.1,42.8L40.1,42.8z M14.1,39
			c2-0.1,3.5-0.5,5.4-1.3c0.5-0.2,2.3-1,3.9-1.9c3.8-1.9,5-2.4,6.7-2.8c1.6-0.4,2.7-0.5,4.6-0.5c2.6,0.1,4.6,0.5,6.7,1.5
			c0.3,0.1,0.6,0.3,0.6,0.2c0,0-0.1-1.9-0.1-2.2c0-0.1-0.1-0.2-0.6-0.5c-1.8-1-3.9-1.6-6.2-1.9c-0.3,0-1.1-0.1-1.8-0.1
			c-1.8,0-3,0.2-4.6,0.6c-1.4,0.4-2.4,0.8-5.9,2.6c-1.4,0.7-2.9,1.4-3.4,1.6c-2.1,0.9-3.9,1.4-5.8,1.7c-1.1,0.1-3.4,0.1-4.4-0.1
			c-1.7-0.3-3.1-0.7-4.5-1.4l-0.6-0.3l0,0.9c0,0.5,0,1,0.1,1.2l0,0.3l0.5,0.3c1.2,0.7,2.3,1.1,3.9,1.5C10.4,39,12.3,39.2,14.1,39
			L14.1,39L14.1,39z M12.9,33.2c0.3,0,0.5-0.1,0.5-0.1c0,0-0.2-2.4-0.5-4.2c-0.2-1.7-0.4-2.1-0.8-2.5c-0.4-0.4-1-0.6-4-0.9l-1.5-0.2
			l-0.3,0.5c-0.5,1-1.1,2.5-1.5,3.7c-0.2,0.9-0.4,1.9-0.5,2.3v0.4l0.5,0.2c1.6,0.6,3.4,0.9,5,1C10.9,33.3,12.2,33.3,12.9,33.2
			C12.9,33.2,12.9,33.2,12.9,33.2z M14.6,32.9c1.9-0.5,3.1-0.9,6.7-2.8c2.5-1.3,3.6-1.7,4.9-2.2c3.8-1.4,7.5-1.5,11.2-0.4
			c1.1,0.4,2.6,1,3.4,1.5c0.5,0.3,0.5,0.3,0.2-0.6c-0.8-2.4-2.1-4.6-3.7-6.4c-0.6-0.7-1.8-1.8-2.4-2.3c-2.9-2.3-6.1-3.6-9.9-4
			c-0.9-0.1-3.1-0.1-4.1,0c-0.8,0.1-2.4,0.4-2.5,0.5c0,0,0.3,2.2,0.4,2.7c0.1,0.5,0.3,0.8,0.6,0.9c0.3,0.1,0.8,0.2,2.1,0.4
			c1.2,0.2,1.3,0.2,1.3,0.3c0,0.1-0.2,0.1-0.6,0.1c-1.5,0.2-2.6,0.4-2.8,0.5c-0.3,0.2-0.5,0.4-0.6,0.9c-0.1,0.4-0.4,2.6-0.4,2.6
			c0,0,0.7,0.1,1.6,0.2l1.6,0.2l0,0.2c0,0.1,0,0.2,0,0.2c-0.1,0-4.3,0.5-4.8,0.6c-1.2,0.2-1.4,0.3-1.9,0.7c-0.4,0.4-0.6,0.8-0.8,2.5
			c-0.2,1.3-0.5,3.8-0.5,3.9C13.8,33,13.9,33,14.6,32.9L14.6,32.9L14.6,32.9z M8.3,24.4c3-0.4,3.3-0.5,3.8-0.9
			c0.5-0.4,0.6-0.9,0.9-3.3c0.2-1.8,0.2-1.9,0.2-1.9c0,0-1.2,0.7-1.6,1.1c-1.3,1-2.7,2.4-3.7,3.7c-0.4,0.5-0.9,1.3-1,1.4
			C7,24.6,7,24.6,8.3,24.4L8.3,24.4z M18.2,24.2c0-0.1-0.1-0.5-0.1-0.9c-0.3-2-0.4-2.3-1.1-2.5c-0.3-0.1-2.7-0.4-2.7-0.4
			c0,0,0.3,1.9,0.4,2.3c0.2,0.7,0.7,1.1,1.4,1.3c0.3,0.1,1.9,0.3,2.2,0.4C18.2,24.4,18.2,24.3,18.2,24.2L18.2,24.2L18.2,24.2z
			 M15.4,20c1.4-0.2,1.6-0.2,1.9-0.4c0.3-0.2,0.5-0.5,0.6-1.1c0.1-0.4,0.3-2.2,0.3-2.3c0-0.1-1.7,0.5-2.7,0.9
			c-0.7,0.3-1.5,0.7-1.6,0.8c0,0,0,0.5,0.1,1.2c0.1,0.9,0.2,1.1,0.2,1.1C14.3,20.1,14.8,20.1,15.4,20L15.4,20L15.4,20z M40.4,12.6
			c1.2-0.2,1.9-1,1.9-2.1s-0.4-1.5-2-2.1c-0.7-0.3-1.1-0.5-1.1-0.7c-0.1-0.2,0.1-0.4,0.4-0.5c0.3-0.1,1.3-0.1,1.9,0.1
			c0.2,0.1,0.4,0.1,0.5,0.1c0,0-0.1-1.2-0.1-1.4c-0.1-0.2-2.2-0.3-2.9-0.1c-0.5,0.1-1,0.4-1.3,0.7c-0.7,0.7-0.6,1.9,0.1,2.6
			c0.3,0.3,0.6,0.5,1.4,0.7c1,0.4,1.3,0.6,1.2,0.9c-0.1,0.4-0.3,0.5-1,0.5c-0.6,0-1.3-0.1-1.9-0.3c-0.2-0.1-0.4-0.1-0.4-0.1
			c0,0,0.1,1.2,0.2,1.4c0,0.1,0.2,0.2,0.7,0.3C38.6,12.8,39.6,12.8,40.4,12.6L40.4,12.6L40.4,12.6z M6.5,11.8V11h0.6
			c1.4,0,2.4-0.5,2.9-1.4c0.2-0.5,0.3-0.9,0.3-1.5c0-0.5,0-0.6-0.2-0.9C9.7,6.3,8.9,5.9,7.4,5.8C7,5.8,4.9,5.9,4.6,5.9L4.5,6v6.6
			h2.1V11.8L6.5,11.8z M6.6,8.5V7.1H7c0.6,0,1.1,0.2,1.3,0.7C8.4,8,8.4,8.7,8.3,9C8.2,9.5,7.8,9.7,7.1,9.8l-0.4,0V8.5L6.6,8.5z
			 M13.2,11.3V10h2.1v2.6h2.1V5.9h-2.1v2.6h-2.1V5.9h-2.1v6.7h2.1V11.3L13.2,11.3z M20.8,9.3V6h-2.1v6.7h2.1V9.3L20.8,9.3z M26.1,12
			c0.1-0.3,0.1-0.6,0.2-0.7l0-0.1h-1.9V6h-2.1v6.7H26L26.1,12L26.1,12z M29.1,9.3V6H27v6.7h2.1V9.3L29.1,9.3z M32.6,11.8V11h0.6
			c0.4,0,0.8,0,1-0.1c1.6-0.3,2.4-1.6,2.1-3.2c-0.2-1.2-1.1-1.8-2.9-1.9c-0.5,0-2.6,0.1-2.8,0.1c-0.1,0-0.1,0.2-0.1,3.4v3.3h2.1
			V11.8L32.6,11.8z M32.7,8.5V7.1H33c0.9,0,1.4,0.4,1.4,1.2c0.1,0.9-0.4,1.5-1.4,1.5l-0.4,0C32.7,9.8,32.7,8.5,32.7,8.5z"/>
		<ellipse class="st4" cx="58.1" cy="80.7" rx="13.9" ry="4.4"/>
	</g>
</g>
</svg>
