<?xml version="1.0" encoding="utf-8"?>
<!-- Generator: Adobe Illustrator 25.4.1, SVG Export Plug-In . SVG Version: 6.00 Build 0)  -->
<svg version="1.1" id="Capa_1" xmlns="http://www.w3.org/2000/svg" xmlns:xlink="http://www.w3.org/1999/xlink" x="0px" y="0px"
	 viewBox="0 0 372 100" style="enable-background:new 0 0 372 100;" xml:space="preserve">
<style type="text/css">
	.st0{fill:#FFFFFF;}
</style>
<g>
	<path class="st0" d="M11.6,0L0,98.6h18.1l1.8-20.3l8.6,0.1l1.5,20.3h19.7L36.1,0.1L11.6,0z M21.2,62l2.9-45l2.8,45H21.2z"/>
	<polygon class="st0" points="86,44.1 81,0.2 53.3,0.2 53.5,98.7 72.3,98.7 72.3,41.2 80.1,98.7 92.1,98.7 99.7,41.2 99.7,98.7 
		118.8,98.7 118.8,0.2 92.1,0.2 	"/>
	<polygon class="st0" points="172.7,16.3 182.7,16.3 182.7,98.4 203.5,98.4 203.5,16.3 214.3,16.3 214.3,1 172.6,1 	"/>
	<path class="st0" d="M149.1,33.8h21.1c0-34-1.3-32.7-25-32.7c-11.9,0-16.4-1.6-20,3.1c-4.6,6-2.7,18.3-2.7,32.6
		c0,11.5,26.4,17.5,26.5,24.5v19.2c0,3-6.6,2-6.6-0.7V58.6h-20.1l0.3,16.5c-0.5,20.8-0.3,23.9,24.3,23.9c11.7,0,14.4-0.2,16.7-1.5
		c1.9-1.4,3.5-3.3,4.5-5.5c1.7-3.5,1.8-5.2,1.6-21.6l0.1-16.3c0-4.2-9.6-11.3-14.8-14c-5.9-3.1-12.4-3.4-12.5-13.8
		c-0.1-8.5-0.2-10,3.5-10.1C149.9,16.2,148.8,17.9,149.1,33.8z"/>
	<path class="st0" d="M257.9,50.2c8.5-5.4,7.8-8.7,8-24.8c0.2-15.4-0.3-17.6-4.8-21.7c-4.1-3.7-7.8-3.1-42.5-2.5l0.6,97.3h20
		l0.1-39.3c7.2,0.1,6.6-2.3,6.2,39.7l21.1,0.1C265.9,60.4,267.4,58.1,257.9,50.2z M239.1,41.4l0.1-25c7.8,0.2,6.3,2.2,6.3,12.2
		C245.5,39.1,246.8,41.3,239.1,41.4z"/>
	<path class="st0" d="M362,2.4l-37,0c0,0-1.3,95-0.7,96.6l36.2,0.3c13.3,0.1,11.2-8.9,11.5-47C372.2,8.5,371.8,2.4,362,2.4z
		 M345.9,83.2l-0.4-66.1c6.5,0,5.7,5.1,5.9,33.1h0C351.6,82.2,351.9,83,345.9,83.2z"/>
	<path class="st0" d="M282.7,1.4L271,100h18.1l1.9-20.3l8.6,0.1L301,100h19.6L307.2,1.4L282.7,1.4z M292.2,63.4l2.9-45l2.8,45H292.2
		z"/>
</g>
</svg>
