<?xml version="1.0" encoding="utf-8"?>
<!-- Generator: Adobe Illustrator 25.4.1, SVG Export Plug-In . SVG Version: 6.00 Build 0)  -->
<svg version="1.1" id="Layer_1" xmlns="http://www.w3.org/2000/svg" xmlns:xlink="http://www.w3.org/1999/xlink" x="0px" y="0px"
	 viewBox="0 0 588.3 100" style="enable-background:new 0 0 588.3 100;" xml:space="preserve">
<style type="text/css">
	.st0{fill:#FFFFFF;}
</style>
<g>
	<path class="st0" d="M45.4,2.7c-5.1-4.1-12.5-3.4-16.7,1.7v0c-2.1,2.5-2.6,5.9-3.6,8.9C16.7,42.1,8.4,71.1,0,100h15.5
		c2.4-8.4,4.8-16.8,7.3-25.2H53c2.4,8.4,4.8,16.7,7.2,25.1h15.6C67,69.7,58.2,39.3,49.4,9C48.7,6.6,47.3,4.4,45.4,2.7z M26.9,60.7
		c3.7-12.6,7.3-25.2,11-37.7l10.9,37.7H26.9z"/>
	<path class="st0" d="M150.8,0.4c-4.7-1.2-9.7,0.7-12.6,4.6l-0.1,0c-1.6,2.3-2,5.2-2.9,7.8c-8.5,29-16.9,58.1-25.3,87.1h15.5
		c2.4-8.4,4.9-16.7,7.3-25.1h30.1c2.4,8.4,4.8,16.7,7.3,25.1h15.6c-8.8-30.3-17.6-60.6-26.4-90.9C158.3,4.8,155,1.5,150.8,0.4z
		 M136.9,60.6c3.6-12.6,7.3-25.2,10.9-37.8c3.6,12.6,7.3,25.2,10.9,37.8H136.9z"/>
	<polygon class="st0" points="120.6,0.2 64.2,0.2 64.2,15.4 85,15.4 85,99.9 99.8,99.9 99.8,15.4 120.6,15.4 	"/>
	<path class="st0" d="M233.5,58.5c2.9-2.1,6.3-3.6,9-6c5.1-4.6,8.1-11,8.5-17.9c0.8-6.4,0.5-13.2-2.5-19
		c-4.5-9.2-13.7-15.1-23.8-15.4h-17.8c-1.5-0.1-3,0.2-4.5,0.6c-5,1.7-8.4,6.2-8.5,11.4v87.6h15V18.5c0.1-1.8,1.6-3.2,3.4-3.2h11.5
		c5.7,0,10.7,3.9,12,9.4c1,4.2,1.1,8.8-1.1,12.7c-3,5-8.3,8.2-13.6,10.3c-2.9,1-5.2,3.2-6.4,6.1c-1.3,3.8-0.8,8.1,1.5,11.4
		c7.7,11.6,15.3,23.2,23,34.7h17.7c-8-12-16.2-24-24.1-36.2C231.6,62,232,59.9,233.5,58.5z"/>
	<rect x="264.5" y="0.2" class="st0" width="15.7" height="99.7"/>
	<path class="st0" d="M538.3-0.1c-27.6,0-50,22.4-50,50s22.4,50,50,50c27.6,0,50-22.4,50-50C588.3,22.3,565.9-0.1,538.3-0.1z
		 M538.3,96.3C512.7,96.3,492,75.6,492,50c0-25.6,20.7-46.3,46.3-46.3c25.6,0,46.3,20.8,46.3,46.3C584.6,75.6,563.9,96.3,538.3,96.3
		z"/>
	<path class="st0" d="M538.3,16c-18.8,0-34,15.2-34,34c0,18.8,15.2,34,34,34v0c18.8,0,34-15.2,34-34C572.3,31.2,557.1,16,538.3,16z
		 M538.3,80.4c-16.8,0-30.4-13.6-30.4-30.4c0-16.8,13.6-30.4,30.4-30.4v0c16.8,0,30.4,13.6,30.4,30.4c0,0,0,0,0,0
		C568.7,66.8,555.1,80.4,538.3,80.4z"/>
	<path class="st0" d="M436-0.1c-27.6,0-50,22.4-50,50s22.4,50,50,50c27.6,0,50-22.4,50-50C486,22.3,463.6-0.1,436-0.1z M436,96.3
		c-25.6,0-46.3-20.7-46.3-46.3c0-25.6,20.7-46.3,46.3-46.3c25.6,0,46.3,20.7,46.3,46.3C482.3,75.6,461.6,96.3,436,96.3z"/>
	<path class="st0" d="M436,16c-18.8,0-34,15.2-34,34c0,18.8,15.2,34,34,34c18.8,0,34-15.2,34-34C470,31.2,454.8,16,436,16z
		 M436,80.4c-16.8,0-30.4-13.6-30.4-30.4c0-16.8,13.6-30.4,30.4-30.4v0c16.8,0,30.4,13.6,30.4,30.4C466.4,66.8,452.8,80.4,436,80.4z
		"/>
	<path class="st0" d="M350.3,44.5c-11.3,0-20.4,9.2-20.4,20.5c0,11.3,9.2,20.4,20.5,20.4c11.3,0,20.4-9.2,20.4-20.4v-0.1
		C370.8,53.6,361.6,44.5,350.3,44.5z M350.4,81.8c-9.3,0-16.8-7.5-16.8-16.8c0-9.3,7.5-16.8,16.8-16.8c9.3,0,16.8,7.6,16.8,16.9
		C367.2,74.3,359.7,81.8,350.4,81.8z"/>
	<path class="st0" d="M350.4,33.6c5.7,0,10.3-4.6,10.3-10.3c0-5.7-4.6-10.3-10.3-10.3s-10.3,4.6-10.3,10.3
		C340.1,29,344.7,33.6,350.4,33.6z M350.4,16.7c3.7,0,6.6,3,6.6,6.6c0,0,0,0,0,0c0,3.7-3,6.6-6.7,6.6c-3.7,0-6.6-3-6.6-6.7
		C343.8,19.6,346.7,16.7,350.4,16.7z"/>
	<path class="st0" d="M370,36c2.5-3.8,3.7-8.2,3.7-12.7c0-12.9-10.4-23.3-23.3-23.3s-23.3,10.4-23.3,23.3c0,4.5,1.3,8.9,3.7,12.6
		c-9.6,6.5-15.4,17.4-15.4,29c0,19.3,15.7,35,35,35l0,0.1c11.6,0,22.5-5.8,29-15.4C390.2,68.6,386,46.8,370,36z M366.5,91.8
		c-14.9,8.9-34.1,4-42.9-10.8c-8.9-14.9-4-34.1,10.8-42.9l1.8-1l-1.3-1.7c-2.7-3.4-4.1-7.7-4.1-12c0-10.8,8.8-19.6,19.6-19.7h0
		c4.4,0,8.6,1.4,12.1,4.1c8.6,6.6,10.1,19,3.5,27.6l-1.3,1.7l1.8,1c4.5,2.7,8.2,6.4,10.8,10.8C386.2,63.7,381.3,82.9,366.5,91.8z"/>
</g>
</svg>
