<svg id="Layer_1" data-name="Layer 1" xmlns="http://www.w3.org/2000/svg" width="1147.91" height="100" viewBox="0 0 1147.91 100"><path d="M149.33.25c-3.52.13-7.57-1.5-10.34,2.17-4.76,6.29-13.14,9.57-15.07,18.22-2.69,12.12-6,24.14-8,36.37C114.13,67.72,107,72.85,97.14,78.53L115.69.76A168.77,168.77,0,0,0,92.43.23c-6.4-.09-17.69,8.7-19.24,15-3.59,14.57-7.4,29-12,43.35S57,73.32,42.51,78.35C48.74,52.45,54.9,26.82,61.3.19c-5.26,0-9.94.09-14.62,0-12.94-.31-18.61,11.3-27.89,17C18.39,17.4,0,97.71,0,99.74c37.91,0,75.82-.22,113.73.19a26.49,26.49,0,0,0,18.58-7.53l8.39-7.2c6.92-7.43,6.37-6.49,7.69-11.9,5.85-24.09,12-48.12,18.22-73.11C160.69.19,155,0,149.33.25Z" fill="#fff"/><path d="M1129.38,34.65c-6.71.37-13.46.08-20.19.08h-56c-1.76,6.34-15.57,47.7-18.41,61.51,6.61,3.05,13.74,1.2,20.56,1.38a22.12,22.12,0,0,0,23.42-17.24c3.28-10.42,6.15-21,9.19-31.43h9.72c12.9,0,15.87,4,12.41,16.64-2.71,9.88-5.35,19.78-8,29.59h37.05a456.27,456.27,0,0,0,8.75-52.33A22.76,22.76,0,0,0,1129.38,34.65Z" fill="#fff"/><path d="M644.42,50.41c4.32,4.59-.79,7.76-1.91,11.53-.19.62-.26,1.27-.61,3.07a47.16,47.16,0,0,0,29.59.44,22.79,22.79,0,0,0,12.66-9.22c5.14-7.31,3.17-13-4.62-17.83a24.89,24.89,0,0,0-14.11-3.74q-23.85.31-47.71,0a21.27,21.27,0,0,0-12.29,3.14c-8.49,5.48-17.83,9.65-26.39,17.71,0-3.7.05-5.73,0-7.75-.28-10.74-2.47-13-12.78-13-19,0-37.91-.06-56.86.06-2.56,0-5.25-.88-7.74,1.13-5.89,4.76-12.13,9.1-17.95,13.95C475,57.16,474.09,67.92,471,78c-4.16,13.49,0,15.93,9.91,20.45a19.7,19.7,0,0,0,8.73,1.27c14.89.13,29.78,0,44.67.09,11.13.07,18.46-6.6,25.5-14.54H510.64a8.53,8.53,0,0,1,.49-7.84,167.19,167.19,0,0,1,17.77.11c15.27,1.6,28.84-1.24,40.41-12.17a27.49,27.49,0,0,1,10.2-8c-2.87,13.63-5.61,26.6-8.44,40H609c1.36-9,5.11-17.33,6.82-26.33,1.59-8.35,4.26-16.53,13.38-20.43C633.19,48.84,642.27,48.13,644.42,50.41Zm-130,12c1.66-11.84,6.87-14,34-13.32C535.61,64.27,534.38,64.73,514.39,62.45Z" fill="#fff"/><path d="M791.72,47.69a22.4,22.4,0,0,0-19-8.94c-11.68.16-23.35,0-35.25,0C740,26.37,744.25,22.64,755,22.56s21.67,0,32.5,0c3,0,5.88.46,8.35-2.27,4.66-5.14,9.68-10,15.6-16-28.69,0-55.68.09-82.67-.11a14,14,0,0,0-8.37,2.58,48.1,48.1,0,0,0-21.63,37.6c-1,14.61,7.84,22.18,20.9,21.08,11.25-1,22.64-.2,34.2-.2-2.27,10.61-4.65,13.61-10.27,13.14-26.29-2.19-52.62-.32-78.93-.93a8.5,8.5,0,0,0-7.43,2c-6.18,6.52-12.64,12.77-19.35,19.49a14.28,14.28,0,0,0,2.7.83c41,0,81.94,0,122.9.13a20.92,20.92,0,0,0,9.45-2.45,38.4,38.4,0,0,0,21.19-29.25C795.29,61.51,796.31,53.75,791.72,47.69Z" fill="#fff"/><path d="M930.49,34.79c-4.49.46-9.56-2-13.37,2.18-6.41,7-11.35,10-14.29,23.15A28.84,28.84,0,0,1,884.92,81c-.82.73,5.87-30.84,8.63-45.56a6,6,0,0,0-1.88-.68q-9.63-.09-19.27-.07A22.78,22.78,0,0,0,851.23,53c-2,11.94-3.21,24.47-17.62,28.9-.77.24-1.27,1.49-2.75.07,3.25-15.34,8.83-30.59,10.26-47.21-4.92,0-8.63-.25-12.29.06-4.21.36-9-1.89-12.53,1.63-6.14,6.09-15.13,11-16.94,19.38-3.07,14.3-6.67,28.57-9,43a8.34,8.34,0,0,0,2.29.9q54.27.07,108.54.07a6.45,6.45,0,0,0,5.54-1.59C910.54,94,931.47,82.61,932.21,76c1.53-13.7,7-26.57,8.4-41.22C937.12,34.73,933.78,34.46,930.49,34.79Z" fill="#fff"/><path d="M492.91,12.39c-12.6,0-23.61,0-34.62,0-3.64,0-5.38,2.85-7.05,5.07-3,4,0,0-8.39,11.7a12.35,12.35,0,0,1-12.08,5.64c-8.45-.18-16.91.14-25.36-.13-5-.15-4-.68-12.63,4.6A159.43,159.43,0,0,0,379,48.86,22.77,22.77,0,0,0,371,61a93.31,93.31,0,0,0-5.14,17.79c-2.14,13.56,4.46,20.85,18.21,20.91,11.49,0,23,0,34.49,0H459c3.57-15.11,7.08-29.39,10.28-43.74,1.85-8.25,2.82-16.53,9-23.35A229.3,229.3,0,0,0,492.91,12.39ZM434,70.45c-5.62,13.66-14.28,15.73-29,14.4-2.69-8,.41-16.58,2.19-23.24a17.21,17.21,0,0,1,17-12.6,39,39,0,0,1,14,1.11A57.66,57.66,0,0,1,434,70.45Z" fill="#fff"/><path d="M261.08,54.69c3.88-12.57-1.9-19.95-14.89-20-17.27,0-34.55.38-51.8-.22a23.68,23.68,0,0,0-14.62,4.73c-4.11,2.76,0,0-11.78,9a30.64,30.64,0,0,0-11,16.45c-1.6,4.07-2.58,8.7-3.85,13.08-3.63,12.52,2.16,20.91,16.5,21.72,16.2.91,32.49.21,48.75.21A13.81,13.81,0,0,0,226.93,98c6.76-4.61,13.82-8.77,20.67-13.24a19.24,19.24,0,0,0,8.53-12.13C256.9,69.37,260.14,57.72,261.08,54.69ZM193.58,85.2h0c-4.48-29.06,8.3-39,28.95-35.68C223,70.56,215.44,85.19,193.58,85.2Z" fill="#fff"/><path d="M980.44,34.58a41.08,41.08,0,0,0-22.51,5.94c-14.53,8.57-23,20.08-21.37,37.69.73,8,8.11,17.35,14.89,17.4,26.64.17,53.28.07,79.71.07,4.4-13.42,17.41-55.2,18.41-61C1026.36,34.73,1003.39,35,980.44,34.58Zm17.28,47.56c-1.08,4.13-3.1,6.19-6.9,5.29a26.45,26.45,0,0,1-15.1-8.68,10.55,10.55,0,0,1,.22-12.56A86.81,86.81,0,0,1,984.1,55c6.58-8,14.14-7,23.2-4.6h0C1003.84,61.71,1000.42,71.83,997.72,82.14Z" fill="#fff"/><path d="M348.12,34.89c-24-.48-48.07-.11-72.1-.21-4.64,0-6.41,1.46-8.3,6.3-2.9,7.45-9.2,34.07-10.49,39.76-3.88,17.08-4.25,17,13.39,17a24.49,24.49,0,0,0,25-18.35c2.91-9.94,5.28-20,8-30.41,5,0,9.69-.16,14.39,0a8,8,0,0,1,2.13,0A8.19,8.19,0,0,1,327,58.36a33.79,33.79,0,0,1-1.23,9.8c-2.4,8.69-3.44,17.75-5.12,27.13h34.06a21.56,21.56,0,0,0,1.7-8c2.7-12.13,7.12-23.83,7.52-36.61C364.29,40.33,357.5,35.08,348.12,34.89Z" fill="#fff"/></svg>