<svg id="Layer_1" data-name="Layer 1" xmlns="http://www.w3.org/2000/svg" width="1419.45" height="100" viewBox="0 0 1419.45 100"><path d="M958.92,2.18H855.24V97.4H883.4V21.91h24.77v75.5H936v-75c5.19,0,10-.36,14.83.08l.45,0a14.61,14.61,0,0,1,13.46,15.68v59.2h26.59V32.81c0-.22,0-.45,0-.67A31.19,31.19,0,0,0,958.92,2.18Z" transform="translate(0 0)" fill="#fff"/><path d="M1419.43,32.13a31.19,31.19,0,0,0-32.38-29.95H1283.37V97.4h28.16V21.91h24.77v75.5h27.82v-75c5.19,0,10-.36,14.83.08l.45,0a14.63,14.63,0,0,1,13.47,15.68v59.2h26.58V32.81C1419.45,32.59,1419.44,32.36,1419.43,32.13Z" transform="translate(0 0)" fill="#fff"/><path d="M547.22,59.71A26.49,26.49,0,0,0,566.29,39.2a30.84,30.84,0,0,0,.71-6.71A30.49,30.49,0,0,0,536.35,2.18H459.58V97.4h27.74V62.09h26.93L538.47,97.4H570.1c-9.22-12.16-18.57-24.46-27.56-36.32C544.4,60.55,545.83,60.18,547.22,59.71ZM536.53,34.13a9.69,9.69,0,0,1-6.84,9.25A16.11,16.11,0,0,1,524,45H487.39c0-7.72,0-23.55,0-23.55h33.74a26.59,26.59,0,0,1,8.68,1.72A10.51,10.51,0,0,1,536.53,34.13Z" transform="translate(0 0)" fill="#fff"/><polygon points="839.48 97.37 839.48 97.37 839.48 97.37 839.48 97.37" fill="#fff"/><path d="M839.48,40.81A39.41,39.41,0,0,0,799.31,2.18h-57.7V20.43h49.32a19.38,19.38,0,0,1,19.71,18.84H765.53a45.52,45.52,0,0,0-9.24,1A28,28,0,0,0,734,67.08a25.84,25.84,0,0,0,19.09,27.69,55.73,55.73,0,0,0,15.69,2.6h70.7V40.81Zm-28,37.88H776.65c-7.46,0-12.26-4.22-12.16-10.57,0-.32,0-.64.07-1a11.22,11.22,0,0,1,12.36-10h34.61Z" transform="translate(0 0)" fill="#fff"/><path d="M81,41.05H39.64a7.37,7.37,0,0,1-4.15-1.18,10.51,10.51,0,0,1-4.44-10.43,9.57,9.57,0,0,1,8.27-7.6,29,29,0,0,1,5.18-.46h58.77V2.18H21.35A29.47,29.47,0,0,0,.06,32.4C1.47,49,10.63,58.3,26.3,58.53H64.71A21.85,21.85,0,0,1,72,59.88a9.2,9.2,0,0,1,6.71,10.28,9.76,9.76,0,0,1-10.48,8.5H5.9V97.36H81.45c26.78-.39,33.8-25.69,24.7-43.3C100.93,44,91.29,41.34,81,41.05Z" transform="translate(0 0)" fill="#fff"/><path d="M1242.09,6a78,78,0,0,0-30.64-6,85.87,85.87,0,0,0-21,2.76c-17.16,3.86-30.28,12.87-35.94,30.46a55,55,0,0,0-1.74,22.85c1.64,15.29,7.69,27.9,22.14,35.18a77,77,0,0,0,48.78,7.62,58.72,58.72,0,0,0,30.13-12.77c14.93-13.3,18.21-30.7,14.63-49.34A42.69,42.69,0,0,0,1242.09,6ZM1213.21,80.7a58.63,58.63,0,0,1-16.83-1.92,21.38,21.38,0,0,1-16.15-18.1,53,53,0,0,1,1-24,24.52,24.52,0,0,1,19.64-18.21,45.29,45.29,0,0,1,21,.16,27.19,27.19,0,0,1,20.35,25.92c.1,1.74.16,3.48.25,5.21h0C1242.9,68.82,1232.33,80.23,1213.21,80.7Z" transform="translate(0 0)" fill="#fff"/><path d="M352.69,29a70.44,70.44,0,0,0-3.84,23.74c-.1,1.29-.14,2.58-.12,3.88a41.31,41.31,0,0,0,42,40.67h53.4V78s-32.25,0-46.42,0c-.32,0-.64,0-1,0a18.89,18.89,0,0,1-18.19-19.55H444.6V40.37H379a21.19,21.19,0,0,1,20.84-19c8.7,0,44.75.08,44.75.08V2.18H391.94A41.5,41.5,0,0,0,352.69,29Z" transform="translate(0 0)" fill="#fff"/><path d="M193.38,77.93H159.65a13.55,13.55,0,0,1-1.42-.1A13.29,13.29,0,0,1,146.63,63l.12-60.85H119.51s.36,44.1-.15,63.1a31.9,31.9,0,0,0,8.25,22A26.43,26.43,0,0,0,149.07,97.4l71.46,0V2.18H193.38Z" transform="translate(0 0)" fill="#fff"/><path d="M309.1,2.18H236.82V97.37H263.3V65.22h3.79c13.68,0,27.36,0,41,0a31.52,31.52,0,0,0,1-63Zm-3.87,42.69a9,9,0,0,1-4.39,1.82H264.2V21.37H298a12.09,12.09,0,0,1,12.69,9.38A15.12,15.12,0,0,1,305.23,44.87Z" transform="translate(0 0)" fill="#fff"/><path d="M630.39,41.13V97.41h27.44V59.88h67.56V39.73H658.08a16.39,16.39,0,0,1,2.76-8.84,23.93,23.93,0,0,1,19.25-10.45h46.47V2.19H666.23A38.25,38.25,0,0,0,630.39,41.13Z" transform="translate(0 0)" fill="#fff"/><path d="M1059.26,19.37a56.56,56.56,0,0,0-6.82,45.54,41.12,41.12,0,0,0,41.7,32.49h50.22V78.73h-43.54A19.53,19.53,0,0,1,1081,64.42a48.66,48.66,0,0,1,.82-30.84A17.06,17.06,0,0,1,1099.4,21h45.5V2.19h-53.59A36.25,36.25,0,0,0,1059.26,19.37Z" transform="translate(0 0)" fill="#fff"/><rect x="1008.24" y="2.19" width="29.37" height="95.28" fill="#fff"/></svg>