<?xml version="1.0" encoding="utf-8"?>
<!-- Generator: Adobe Illustrator 25.4.1, SVG Export Plug-In . SVG Version: 6.00 Build 0)  -->
<svg version="1.1" id="Layer_1" xmlns="http://www.w3.org/2000/svg" xmlns:xlink="http://www.w3.org/1999/xlink" x="0px" y="0px"
	 viewBox="0 0 295.2 100" style="enable-background:new 0 0 295.2 100;" xml:space="preserve">
<style type="text/css">
	.st0{fill:#FFFFFF;}
</style>
<g>
	<path class="st0" d="M131.4,4.1C126,2.5,116.6,1.6,111,1.8H79.3v96.3h30.2c6.7-0.1,13.5,0.4,20.1-1.2c4.3-1,8.3-3.2,11.3-6.5
		c4-4.1,5.5-9.9,6.1-15.5c0.1-1.4,0.3-2.8,0.3-4.2l0,0.1V29.2c-0.1-5.5-0.6-11.3-3.6-16.1C140.8,8.7,136.4,5.6,131.4,4.1z
		 M120.2,27.9v43.9c0,2.2,0.1,4.7-1.3,6.5c-1.3,1.3-3.1,1.9-4.9,1.8h-7.4V20.5l0,0c2.7,0,5.1-0.1,7.7,0c1.6,0,3.1,0.5,4.4,1.4
		C119.9,23.7,120.4,25.8,120.2,27.9z"/>
	<path class="st0" d="M67.8,62.5H40.9v9.6c0.2,2.2-0.1,4.4-1,6.5c-0.9,1.3-2.4,2.2-4,2.3c-2.6,0.5-5.3-0.1-7.5-1.6
		c-0.9-1.1-1.4-2.5-1.4-4V25.8c-0.2-2,0.6-3.9,2.2-5.2c1.8-1.1,4-1.6,6.1-1.2c1.9,0,3.7,1,4.8,2.6c0.7,1.9,1,3.9,0.8,5.9
		c0.1,3.2-0.2,6.3,0.1,9.5h26.5v-13c0-4.7-1.4-9.3-4-13.2C60,6.9,55.2,3.8,49.9,2.3c-4-1.3-8.1-2-12.3-2.1c-3.5-0.3-7-0.2-10.5,0.2
		C20.8,0.7,14.7,2.7,9.4,6c-4.9,3.3-8.1,8.6-8.7,14.4C0.1,24.6-0.1,28.8,0.1,33v40.2c-0.2,4.1,0.4,8.2,1.9,12c1.6,3.8,4.3,7,7.7,9.2
		c5.9,4,13.2,5,20.2,5.5c2.2,0.1,4.5,0.1,6.7,0c7.4-0.2,15.1-1.3,21.5-5.3c4.4-2.8,7.6-7.2,8.7-12.4C68.3,75.8,67.7,69.1,67.8,62.5z
		"/>
	<path class="st0" d="M150.7,7.6c0,4.2-0.1,8.5,0,12.7c6.9,0,13.6-0.1,20.4,0v77.9h27V20.6c0-0.6,0.8-0.4,1.1-0.4h19.3V1.8h-68
		C150.4,3.7,150.4,5.7,150.7,7.6z"/>
	<path class="st0" d="M268.3,1.8c-3.5,24.5-6.7,49-10.2,73.5c-0.4-2.4-0.7-4.9-1-7.3c-3-22-6-44.1-9-66.1h-26.6
		c0.1,1.1,0.3,2.2,0.5,3.3c5.9,31,11.7,62,17.5,93h37c5-25.5,9.9-51,14.9-76.5c1.3-6.6,2.4-13.3,3.9-19.8H268.3z"/>
</g>
</svg>
