<svg id="Layer_1" data-name="Layer 1" xmlns="http://www.w3.org/2000/svg" width="250" height="100" viewBox="0 0 250 100"><rect y="13.31" width="48.66" height="6.84" fill="#fff"/><rect x="69.54" y="26.61" width="21.07" height="6.85" fill="#fff"/><rect x="13.98" y="53.23" width="21.07" height="6.84" fill="#fff"/><rect x="13.98" y="66.54" width="21.07" height="6.84" fill="#fff"/><path d="M69.54,46.77h53.83s4.5-3.51,5.94-6.84H69.54Z" transform="translate(0)" fill="#fff"/><rect x="0.38" y="93.16" width="48.66" height="6.84" fill="#fff"/><rect x="13.98" y="26.61" width="21.07" height="6.85" fill="#fff"/><rect x="13.98" y="39.93" width="21.07" height="6.84" fill="#fff"/><polygon points="152.49 33.46 189.85 33.46 187.36 26.61 152.49 26.61 152.49 33.46" fill="#fff"/><rect x="69.54" y="66.54" width="21.07" height="6.84" fill="#fff"/><polygon points="249.62 13.31 205.55 13.31 203.25 20.15 249.62 20.15 249.62 13.31" fill="#fff"/><polygon points="236.01 26.61 200.97 26.61 198.46 33.46 236.01 33.46 236.01 26.61" fill="#fff"/><polygon points="249.62 0 210.53 0 208.04 6.84 249.62 6.84 249.62 0" fill="#fff"/><rect x="0.38" y="79.84" width="48.66" height="6.85" fill="#fff"/><path d="M130.47,13.32H55.56v6.83H133S132,14.88,130.47,13.32Z" transform="translate(0)" fill="#fff"/><polygon points="177.97 0 138.5 0 138.5 6.84 180.46 6.84 177.97 0" fill="#fff"/><path d="M123.37,53.23H69.54v6.84h59.77C127.87,56.75,123.37,53.23,123.37,53.23Z" transform="translate(0)" fill="#fff"/><path d="M108.44,0H55.56V6.84H124.9S117.82,0,108.44,0Z" transform="translate(0)" fill="#fff"/><rect width="48.66" height="6.84" fill="#fff"/><path d="M55.56,100h52.88c9.38,0,16.46-6.83,16.46-6.83H55.56Z" transform="translate(0)" fill="#fff"/><polygon points="184.65 73.38 204.05 73.38 206.54 66.54 182.18 66.54 184.65 73.38" fill="#fff"/><polygon points="179.94 60.07 208.88 60.07 211.31 53.23 177.39 53.23 179.94 60.07" fill="#fff"/><polygon points="189.51 86.69 199.38 86.69 201.77 79.84 186.97 79.84 189.51 86.69" fill="#fff"/><rect x="214.94" y="79.84" width="35.06" height="6.85" fill="#fff"/><polygon points="194.23 99.98 194.65 99.99 197.13 93.16 191.78 93.16 194.23 99.98" fill="#fff"/><rect x="214.94" y="53.23" width="21.07" height="6.84" fill="#fff"/><rect x="214.94" y="93.16" width="35.06" height="6.84" fill="#fff"/><rect x="214.94" y="66.54" width="21.07" height="6.84" fill="#fff"/><polygon points="214.94 46.77 236.01 46.77 236.01 39.93 196.45 39.93 194.35 45.72 192.24 39.93 152.49 39.93 152.49 46.77 173.56 46.77 173.56 42.96 174.9 46.77 213.5 46.77 214.94 42.96 214.94 46.77" fill="#fff"/><polygon points="182.75 13.31 138.5 13.31 138.5 20.15 185.06 20.15 182.75 13.31" fill="#fff"/><rect x="138.89" y="79.84" width="34.68" height="6.85" fill="#fff"/><path d="M111.11,33.46h21.08a23.51,23.51,0,0,0,1.33-6.85H111.11Z" transform="translate(0)" fill="#fff"/><path d="M55.56,86.69h74.91C132,85.12,133,79.84,133,79.84H55.56Z" transform="translate(0)" fill="#fff"/><path d="M111.11,66.54v6.84h22.41a23.44,23.44,0,0,0-1.33-6.84Z" transform="translate(0)" fill="#fff"/><rect x="152.49" y="53.23" width="21.07" height="6.84" fill="#fff"/><rect x="138.89" y="93.16" width="34.68" height="6.84" fill="#fff"/><rect x="152.49" y="66.54" width="21.07" height="6.84" fill="#fff"/></svg>