<svg id="Layer_1" data-name="Layer 1" xmlns="http://www.w3.org/2000/svg" width="803" height="100" viewBox="0 0 803 100"><path d="M179.77,67.68q-3.5,12.52-11.46,18.67v.1q-8,6.17-21.28,6.15h-5.67a11.58,11.58,0,0,1-5.88-1.12A5.75,5.75,0,0,1,133,88.55a39.38,39.38,0,0,1-.73-7.18q0-1.19.06-2.37v-.08h0V52.29a24,24,0,0,1,10.36,1.78,15.27,15.27,0,0,1,6.26,7,37.23,37.23,0,0,1,3.53,13.3h2.69V24.65h0v0H152.5q-1.12,11.08-5.17,16.72t-13,5.63h-2V8.46h9.75q10.77,0,14.68,1.26a21.27,21.27,0,0,1,10.39,6.58q3.66,4.48,5.68,14.76h2.68V2.94h-109V5.41l1.12,0c.37,0,.73,0,1.07,0l.94.08.74.08,1.12.2.43.09a10,10,0,0,1,5.82,3.43c1.61,2,2.46,5.87,2.46,11.61V61.5L33.76,2.94H0V5.41c.42,0,.83,0,1.24,0,.17,0,.35,0,.52,0A15.39,15.39,0,0,1,6.68,6.78,18.46,18.46,0,0,1,12,11.84l2,2.5V81.26q0,7.67-3.07,10.84C8.87,94.24,5.22,95.32,0,95.32v2.45H0v.1H33.76V95.41h0v0H31.51a13.53,13.53,0,0,1-7.06-1.9,12.2,12.2,0,0,1-1.42-1c-2.47-2-3.73-5.71-3.73-11.24V21L83.08,100h2.37v-79a28.25,28.25,0,0,1,1.16-9.54,8.44,8.44,0,0,1,.55-1.18,8,8,0,0,1,2.63-2.75,23.1,23.1,0,0,1,8-2h1.49a11.91,11.91,0,0,1,7.26,2,6.61,6.61,0,0,1,2.57,3.8,49,49,0,0,1,.36,8V81.66c0,4.82-.25,7.76-.76,8.89A6.55,6.55,0,0,1,106,93.93a12.87,12.87,0,0,1-4.39,1.39h-.09c-.42,0-.83.07-1.25.08s-.57,0-.86,0H96.23v2.45h81.91l4.25-30.09h0v-.11Z" fill="#fff"/><path d="M236,1.61a45.7,45.7,0,0,0-35.33,13.25Q186.21,28.92,186.2,50A50.16,50.16,0,0,0,197.25,82.5q14,17.3,39.63,17.3t39.53-18.17A50.54,50.54,0,0,0,287,50q0-21.07-14.17-35.14T236,1.61Zm22.28,75.2q-3.45,9.82-9.64,14.28a19.89,19.89,0,0,1-12,3.49,19.45,19.45,0,0,1-16.62-8q-8.49-11.61-8.51-35.83,0-20.4,5.51-31.3,6.73-13.31,19.73-13.3a21.11,21.11,0,0,1,12.53,3.74q5.4,3.83,8.9,13.17t3.48,28.14Q261.66,67,258.26,76.81Z" fill="#fff"/><path d="M305.89,34.72a13.51,13.51,0,0,0-13.57,13.44h0v.15a13.56,13.56,0,1,0,23.11-9.64A13,13,0,0,0,305.89,34.72Z" fill="#fff"/><path d="M496.67,86.37v.08q-8,6.17-21.28,6.15h-5.66a11.5,11.5,0,0,1-5.86-1.12,5.76,5.76,0,0,1-2.44-2.93c-.45-1.17-.66-4.36-.66-9.63V52.29a23.91,23.91,0,0,1,10.34,1.78,15,15,0,0,1,6.25,7,37.25,37.25,0,0,1,3.55,13.3h2.68V24.65h-2.68q-1.12,11.06-5.19,16.72T462.55,47h-1.89V8.46h9.64q10.77,0,14.67,1.26a21.18,21.18,0,0,1,10.39,6.58q3.67,4.48,5.71,14.76h2.68V2.94H424.59V5.41h3.13a12,12,0,0,1,7.24,2,6.71,6.71,0,0,1,2.59,3.83,48.93,48.93,0,0,1,.35,8V81.65c0,4.79-.25,7.75-.77,8.88a6.41,6.41,0,0,1-2.79,3.4,13,13,0,0,1-6.62,1.48h-3.13v2.46h81.9l4.24-30.19h-2.57Q504.68,80.22,496.67,86.37Z" fill="#fff"/><path d="M564.31,1.61Q543.33.77,529,14.86T514.52,50A50.1,50.1,0,0,0,525.59,82.5q14.05,17.3,39.75,17.3t39.5-18.17A50.4,50.4,0,0,0,615.32,50q0-21.07-14.15-35.14T564.31,1.61Zm22.24,75.33,0-.13q-3.42,9.82-9.63,14.28a20.1,20.1,0,0,1-12,3.49,19.41,19.41,0,0,1-16.6-8q-8.54-11.61-8.52-35.83,0-20.4,5.51-31.3,6.79-13.31,19.77-13.3A21.11,21.11,0,0,1,577.59,10q5.4,3.82,8.9,13.17T590,51.25Q590,67,586.55,76.94Z" fill="#fff"/><path d="M796.6,23.05A43.34,43.34,0,0,0,777.33,4.58c-6.8-3-15.74-4.52-26.6-4.52H701.85l-.45,3.22a4.67,4.67,0,0,1-.87,2.58,1.08,1.08,0,0,1-.85.4,31.36,31.36,0,0,1-6.15-2A57.65,57.65,0,0,0,672.79,0a51.22,51.22,0,0,0-51.24,50.89A48.5,48.5,0,0,0,627.86,75,43.27,43.27,0,0,0,646.07,92.5a56.76,56.76,0,0,0,26.43,6,49.74,49.74,0,0,0,20-3.74,51.25,51.25,0,0,0,16.45-12l1-1.11V62.5l-6.65,7.75A48.42,48.42,0,0,1,690,81.73a28,28,0,0,1-13.22,3.21,22.06,22.06,0,0,1-13.92-4.11A24.94,24.94,0,0,1,655,68.22a69,69,0,0,1-2.71-20.15A51.75,51.75,0,0,1,656,28a23.28,23.28,0,0,1,8.56-10.57,21.88,21.88,0,0,1,12.75-4,22.79,22.79,0,0,1,15,5.44c4.43,3.63,7.53,9,9.2,16.06l.69,2.91h9.28v-28h3.21a7.57,7.57,0,0,1,3.86.74,2.86,2.86,0,0,1,1.27,1.12,73.09,73.09,0,0,1,.41,9V77.89a38.81,38.81,0,0,1-.3,6.73,3.51,3.51,0,0,1-1.4,1.43,7.46,7.46,0,0,1-3.84.67H708v9.86H750.6a73.45,73.45,0,0,0,13-.83,61.73,61.73,0,0,0,15.91-5,41.07,41.07,0,0,0,11.87-8.89,42.8,42.8,0,0,0,8.4-14A56.58,56.58,0,0,0,803,48.71,51.21,51.21,0,0,0,796.6,23.05ZM705.25,34q-2.84-11.82-10.49-18.11a26.62,26.62,0,0,0-17.39-6.3,25.7,25.7,0,0,0-14.9,4.67,27.3,27.3,0,0,0-9.91,12.24,55.52,55.52,0,0,0-4,21.54,72.47,72.47,0,0,0,2.87,21.21,28.6,28.6,0,0,0,9.21,14.46q6.21,4.82,16.25,4.91a31.75,31.75,0,0,0,15-3.6,52.2,52.2,0,0,0,14.36-12.36v7.5A47.76,47.76,0,0,1,691,91.27a46.5,46.5,0,0,1-18.49,3.43,53,53,0,0,1-24.7-5.57,39.38,39.38,0,0,1-16.65-16.06,44.82,44.82,0,0,1-5.87-22.24,47.46,47.46,0,0,1,47.57-47,53.64,53.64,0,0,1,19.28,4,29.23,29.23,0,0,0,7.5,2.3,4.84,4.84,0,0,0,3.54-1.5,8.29,8.29,0,0,0,2-4.82h2.46L707.71,34Zm91.11,32.43h0a38.68,38.68,0,0,1-7.62,12.85,37.66,37.66,0,0,1-10.8,8,57.58,57.58,0,0,1-15,4.67,67.5,67.5,0,0,1-12.3.77H711.75V90.51h2.94a11.18,11.18,0,0,0,5.79-1.19,7.23,7.23,0,0,0,3-3.21A30.86,30.86,0,0,0,724,78V20.67a50,50,0,0,0-.71-10.44,6.41,6.41,0,0,0-2.82-3,11.38,11.38,0,0,0-5.82-1.18h-2.87V3.76h38.86q15.57,0,25,4.24a39.49,39.49,0,0,1,17.59,16.88,47.34,47.34,0,0,1,6,23.8A52.24,52.24,0,0,1,796.36,66.46Z" fill="#fff"/><path d="M428.32,58H382.26v2.41h2.44a11.76,11.76,0,0,1,5.84,1.35,7.09,7.09,0,0,1,3.21,3,22.47,22.47,0,0,1,.78,7.3V91.77A49.77,49.77,0,0,1,387.07,94a34,34,0,0,1-7,.74,29.58,29.58,0,0,1-17-4.82q-7.14-4.82-10.33-15.1a80.08,80.08,0,0,1-3.21-23.89,81.93,81.93,0,0,1,3-22,32.32,32.32,0,0,1,10-16.67,26.53,26.53,0,0,1,17.67-6,33.16,33.16,0,0,1,20.5,7.13q9.39,7.14,14.07,20.88h2.46V.82h-2.51a13.19,13.19,0,0,1-3.08,5.49A5.44,5.44,0,0,1,408,7.76a42.88,42.88,0,0,1-8.11-2.62,63.87,63.87,0,0,0-10-3.21A66.44,66.44,0,0,0,377.18.8q-22.8,0-37.85,14.73a48.49,48.49,0,0,0-15.05,36.09,46.94,46.94,0,0,0,5,21.6,45.72,45.72,0,0,0,10.66,13.44,55.7,55.7,0,0,0,15.71,9.63A58.82,58.82,0,0,0,378,100a100.24,100.24,0,0,0,20.29-2,94.44,94.44,0,0,0,18.9-6.07V72.09a20.21,20.21,0,0,1,.64-6.57,7.12,7.12,0,0,1,3.21-3.61,19.74,19.74,0,0,1,7.28-1.46Z" fill="#fff"/><path d="M760.14,10.5c-3.07-1.32-8.16-2-15.27-1.92V78.5a23.6,23.6,0,0,0,.51,6.6A3.71,3.71,0,0,0,747.09,87a10.34,10.34,0,0,0,5,1q10.68,0,16.3-7.3c5.11-6.6,7.68-17.67,7.68-31.56q0-16.77-5.24-26.76C768.06,17.09,764.4,12.38,760.14,10.5Zm5.27,67.86,0,0c-3,4-7.38,5.84-13.29,5.84a6.81,6.81,0,0,1-3.22-.48,32.45,32.45,0,0,1-.22-5.12V12.43a28.67,28.67,0,0,1,10,1.61c3.58,1.6,6.43,5.63,8.84,10.11,3.21,6.07,4.81,14.46,4.81,25C772.28,62,770,72.49,765.41,78.36Z" fill="#fff"/></svg>