<?xml version="1.0" encoding="utf-8"?>
<!-- Generator: Adobe Illustrator 25.4.1, SVG Export Plug-In . SVG Version: 6.00 Build 0)  -->
<svg version="1.1" id="Layer_1" xmlns="http://www.w3.org/2000/svg" xmlns:xlink="http://www.w3.org/1999/xlink" x="0px" y="0px"
	 viewBox="0 0 360.9 100" style="enable-background:new 0 0 360.9 100;" xml:space="preserve">
<style type="text/css">
	.st0{fill:#FFFFFF;}
</style>
<g>
	<path class="st0" d="M57.2,74.5c0-0.7-0.4-1.1-1.2-1.2c-1-0.2-2-0.6-2.8-1.3c-1.4-0.9-2.5-2.2-3.2-3.7c-0.7-1.5-1.4-3.6-2.2-6.1
		L31.2,10.2c-0.4-1.2-0.8-2.5-1.1-3.7c-0.2-1-0.7-1.4-1.5-1.4c-0.5-0.1-1,0.2-1.1,0.7c-0.2,0.5-0.4,1.1-0.7,1.9L9.4,64.1
		c-0.6,2-1.1,3.7-1.7,5c-0.4,1.2-1.2,2.3-2.3,3.1c-0.5,0.4-1.1,0.7-1.8,0.8l-1.8,0.2c-0.5,0.1-0.9,0.2-1.3,0.4
		c-0.4,0.2-0.6,0.7-0.5,1.2c0,0.9,0.7,1.4,2,1.4c1,0,2-0.1,3-0.3c1.4-0.2,2.8-0.3,4.2-0.3c2,0,3.9,0.1,5.9,0.3
		c1.2,0.2,2.4,0.3,3.6,0.3c1.2,0,1.8-0.5,1.8-1.3c0-0.7-0.4-1.4-1.1-1.6c-1.1-0.4-2.2-0.6-3.3-0.8c-0.8-0.1-1.5-0.3-2.2-0.8
		c-0.5-0.6-0.7-1.4-0.6-2.2c0.3-2.8,0.8-5.6,1.6-8.4l2.6-9.7c0.1-0.3,0.2-0.6,0.5-0.7c0.2-0.2,0.4-0.3,0.7-0.3h13.5
		c1,0,1.5,0.3,1.6,0.9l4.2,14c0.5,1.6,0.9,3.3,1,4.9c0.1,0.8-0.2,1.6-0.9,2.1c-1.1,0.5-2.4,0.6-3.6,0.5c-1.5,0-2.2,0.6-2.2,1.8
		c0,0.9,0.6,1.3,1.8,1.3c0.7,0,2-0.1,3.9-0.3c1.9-0.2,4.3-0.3,7.4-0.3c1.8,0,3.7,0.1,5.5,0.3c1.2,0.2,2.4,0.3,3.7,0.3
		C56.4,76,57.2,75.5,57.2,74.5z M31.7,46c-0.2,0.2-0.4,0.3-0.7,0.3H20.1c-0.5,0-0.8-0.2-0.8-0.7v-0.3c0-0.3,0-0.5,0.1-0.8l5.2-19.3
		c0.2-0.6,0.4-0.9,0.7-0.9l-0.1,0.1c0.2,0,0.4,0.3,0.7,1l5.9,19c0.1,0.3,0.2,0.7,0.3,1C32,45.7,31.9,45.9,31.7,46z"/>
	<path class="st0" d="M95.7,32.5c-1.5-2-3.5-3.7-5.7-4.9c-4.1-2.3-9.1-2.4-13.4-0.3c-2.2,1.2-4.2,2.8-5.8,4.8l-1.1,1.3
		c-0.4,0.4-0.6,0.6-0.9,0.6s-0.3-0.3-0.3-0.8l-0.1,0v-5.4c0-1.5-0.5-2.3-1.1-2.3c-0.6,0-1.4,0.5-2.3,1.6c-1.4,1.5-2.9,2.7-4.6,3.8
		c-1.3,0.9-2.7,1.7-4.2,2.3c-1.1,0.4-1.7,1.2-1.7,1.9c0,0.8,0.2,1.2,0.8,1.2c0.6,0,1.2,0.1,1.7,0.3c0.7,0.2,1.3,0.7,1.7,1.2
		c0.6,1.2,0.9,2.6,0.8,4v49.4c0.1,1.1-0.1,2.2-0.5,3.2c-0.4,0.7-1.1,1.3-2,1.5c-0.9,0.4-1.9,0.6-2.8,0.6c-0.8,0-1.2,0.4-1.2,1.5
		s0.7,1.8,2,1.8c1.2,0,2.5-0.1,3.7-0.3c1.7-0.2,3.3-0.3,5-0.3c1.8,0,3.5,0.1,5.3,0.3c1.6,0.2,3.1,0.3,4.7,0.3c1.5,0,2.3-0.5,2.3-1.5
		c0.1-0.5-0.1-0.9-0.4-1.3c-0.3-0.2-0.7-0.4-1.2-0.4c-0.6-0.1-1.2-0.2-1.7-0.2c-0.7-0.1-1.5-0.3-2.1-0.7c-0.7-0.2-1.4-0.8-1.6-1.5
		c-0.3-1-0.4-2-0.3-3l0.1-15.5l0.4-0.3c2.9,1.7,6.2,2.5,9.5,2.5c3.1,0,6.2-0.6,9-2c2.7-1.4,5.1-3.3,7-5.7c2.1-2.6,3.6-5.5,4.6-8.7
		c1.1-3.6,1.7-7.4,1.7-11.2c0-3.4-0.4-6.9-1.4-10.2C98.7,37.5,97.4,34.9,95.7,32.5z M90.8,62.4c-0.6,2.4-1.6,4.7-3,6.7
		c-1.2,1.8-2.7,3.2-4.6,4.3c-1.8,1-3.8,1.5-5.8,1.5c-2.4,0.1-4.8-0.8-6.4-2.6h0c-1.5-1.7-2.3-4.3-2.3-7.8V44.1c0-3.7,0.7-6.4,2-8.2
		c1.3-1.8,3.5-2.7,6.6-2.7c4.1,0,8,2,10.4,5.4c2.7,3.6,4.1,8.6,4.1,15.2C91.9,56.8,91.5,59.6,90.8,62.4z"/>
	<path class="st0" d="M185.8,45.5c0.2-0.2,0.5-0.3,1.1-0.3l24.2,0c1,0.1,1.9-0.1,2.8-0.4c0.6-0.4,1-1.1,0.9-1.9
		c0-2.3-0.4-4.5-1.3-6.6c-0.8-2-2-3.8-3.6-5.3c-1.6-1.6-3.5-2.8-5.6-3.6c-2.3-0.9-4.8-1.4-7.2-1.3c-2.9,0-5.8,0.6-8.4,1.8
		c-2.6,1.3-4.9,3.1-6.7,5.3c-2,2.4-3.5,5.2-4.4,8.2c-1.1,3.5-1.6,7.2-1.6,10.9c-0.1,3.7,0.4,7.3,1.4,10.8c0.8,3,2.2,5.7,4,8.2
		c1.7,2.2,3.8,4,6.3,5.2c2.5,1.2,5.3,1.8,8.1,1.8c2.6,0,5.2-0.4,7.7-1.4c2.1-0.8,4.1-2,5.9-3.3c1.5-1.1,2.7-2.4,3.8-3.9
		c0.7-0.9,1.2-2,1.3-3.2c0-0.8-0.3-1.2-0.9-1.2c-0.2,0-0.6,0.3-1.1,1c-0.7,0.8-1.5,1.5-2.3,2.2c-1.1,0.9-2.4,1.6-3.7,2.2
		c-6,2.4-12.8,0.4-16.5-4.9c-2.9-3.9-4.3-9.3-4.3-16.1v-2.6C185.6,46.4,185.6,45.9,185.8,45.5z M186.5,40.5l0.2-1.7
		c0.5-2.8,1.8-5.4,3.7-7.4c1.7-1.9,4.1-2.9,6.6-2.9c2.2-0.1,4.3,0.8,5.8,2.3c1.4,1.3,2.2,3.1,2.2,5c0,2.4-0.8,4-2.4,4.8l0.1,0
		c-2.5,1-5.2,1.4-7.8,1.2h-7.1c-0.9,0-1.3-0.3-1.3-1V40.5z"/>
	<path class="st0" d="M145.4,32.5c-1.5-2-3.5-3.7-5.7-4.9c-4.1-2.2-9.1-2.3-13.3-0.3c-2.2,1.2-4.2,2.8-5.8,4.8l-1.1,1.3
		c-0.4,0.4-0.7,0.6-0.9,0.6c-0.2,0-0.3-0.3-0.3-0.8l0,0v-5.4c0-1.5-0.5-2.3-1.1-2.3c-0.6,0-1.3,0.5-2.3,1.6
		c-1.4,1.5-2.9,2.7-4.6,3.8c-1.3,0.9-2.7,1.7-4.2,2.3c-0.9,0.2-1.6,1-1.7,1.9c0,0.7,0.3,1.2,0.8,1.2c0.6,0,1.1,0.1,1.7,0.3
		c0.7,0.2,1.3,0.7,1.7,1.2c0.6,1.2,0.9,2.6,0.8,4v49.5c0.1,1.1-0.1,2.2-0.5,3.2c-0.4,0.7-1.1,1.3-1.9,1.5c-0.9,0.4-1.9,0.6-2.8,0.7
		c-0.8,0-1.2,0.4-1.2,1.5c0,1.2,0.7,1.8,2,1.8c1.2,0,2.5-0.1,3.7-0.3c1.7-0.2,3.3-0.3,5-0.3c1.8,0,3.5,0.1,5.3,0.3
		c1.5,0.2,3.1,0.3,4.6,0.3c1.5,0,2.3-0.5,2.3-1.5c0.1-0.5-0.1-1-0.4-1.3c-0.3-0.2-0.7-0.4-1.1-0.4c-0.6-0.1-1.2-0.2-1.8-0.2
		c-0.7-0.1-1.5-0.3-2.1-0.7c-0.7-0.2-1.3-0.8-1.6-1.5c-0.3-1-0.4-2-0.3-3l0.1-15.5l0.5-0.3c2.9,1.7,6.2,2.5,9.5,2.5
		c3.1,0,6.2-0.6,9-2c2.7-1.4,5.1-3.3,7-5.7c2.1-2.6,3.6-5.5,4.6-8.7c1.1-3.6,1.7-7.4,1.7-11.2c0-3.4-0.4-6.9-1.4-10.2
		C148.4,37.5,147.1,34.9,145.4,32.5z M140.6,62.4c-0.6,2.4-1.6,4.7-3,6.7c-1.2,1.8-2.8,3.3-4.6,4.3c-1.8,1-3.8,1.6-5.8,1.6
		c-2.4,0.1-4.8-0.8-6.5-2.6h0c-1.5-1.7-2.3-4.3-2.3-7.8V44.1c0-3.7,0.7-6.4,2-8.2s3.5-2.7,6.6-2.7c4.2-0.1,8.1,2,10.5,5.4
		c2.7,3.6,4.1,8.6,4.1,15.2C141.7,56.7,141.3,59.6,140.6,62.4z"/>
	<path class="st0" d="M173.3,72.9c-0.5-0.1-1.1-0.1-1.6-0.2c-0.6,0-1.2-0.2-1.8-0.5c-1.4-0.6-2.1-2.2-2.1-4.6h-0.1V9.5
		c0-1.4,0-2.8,0.2-4.2c0.1-1.1,0.2-2.2,0.2-3.3c0-0.5-0.1-1-0.2-1.5c-0.2-0.4-0.5-0.6-1.1-0.6c-0.8,0.3-1.6,0.7-2.3,1.3
		c-1.7,1.1-3.6,2-5.6,2.6c-1.1,0.4-2.2,0.8-3.4,1.1c-1,0.3-1.5,0.8-1.5,1.6c0,0.5,0.3,0.9,0.7,1c0.5,0.2,1.1,0.5,1.6,0.7
		c0.6,0.2,1.2,0.6,1.6,1c0.5,0.6,0.8,1.3,0.7,2.1v56.9c0.1,0.9,0,1.7-0.3,2.6c-0.4,0.7-1,1.3-1.9,1.5c-1,0.4-2,0.6-3,0.7
		c-0.7,0-1.1,0.4-1.1,1.5c0,1.2,0.7,1.7,2,1.7c1.3,0,2.5-0.1,3.8-0.3c1.7-0.2,3.3-0.3,5-0.3c1.7,0,3.4,0.1,5.1,0.3
		c1.4,0.2,2.8,0.3,4.3,0.3c1.4,0,2.2-0.5,2.2-1.5c0-0.5-0.1-1-0.4-1.3C174.1,73.1,173.7,72.9,173.3,72.9z"/>
	<path class="st0" d="M322.3,51.8c-0.8,0.1-1.7,0.2-2.5,0.3c-1.9,0.2-3.8,0.4-5.8,0.3c-1.8,0-3.6-0.1-5.4-0.3
		c-0.9-0.2-1.9-0.3-2.8-0.3c-0.9,0-1.3,0.4-1.3,1.1c0,0.3,0.1,0.6,0.3,0.8c0.2,0.2,0.5,0.2,0.8,0.3c0.4,0.1,0.8,0.1,1.2,0.1
		c0.5,0,1,0.1,1.5,0.2c0.7,0.1,1.4,0.4,1.9,1c0.3,0.8,0.4,1.8,0.4,2.7l0,9.3c0,1.2-0.1,2.3-0.2,3.5c-0.1,1-0.4,1.9-0.9,2.7
		c-0.5,0.8-1.2,1.4-2.1,1.8c-1.1,0.5-2.4,0.7-3.6,0.6c-2.1,0-4.2-0.6-6-1.7c-2-1.2-3.6-2.8-4.9-4.7c-1.5-2.2-2.6-4.7-3.3-7.3
		c-0.9-3.1-1.3-6.3-1.2-9.6c0-3.5,0.4-6.9,1.2-10.3c0.7-2.8,1.8-5.5,3.3-7.9c1.3-2,3-3.7,5-5c1.9-1.2,4.1-1.8,6.3-1.8
		c4.6,0,7.9,2.3,9.7,7c0.4,1.1,0.8,1.9,1,2.7c0.2,0.7,0.6,1.1,1.2,1.1c0.7,0,1-0.7,1-2.2c0-4.5-0.3-7-1-7.7c-0.4-0.4-0.9-0.8-1.5-1
		c-0.9-0.4-1.7-0.7-2.6-1c-1.1-0.3-2.3-0.6-3.4-0.7c-1.3-0.2-2.7-0.3-4-0.3c-6.7-0.1-13.1,2.7-17.5,7.7c-2.2,2.6-3.9,5.5-5.1,8.7
		c-1.3,3.5-1.9,7.3-1.9,11c0,3.5,0.5,6.9,1.7,10.2c1,2.9,2.6,5.6,4.6,7.9c2,2.3,4.4,4.1,7.1,5.3c2.8,1.3,5.9,1.9,9,1.9
		c2,0,4-0.2,6-0.6c1.7-0.3,3.3-0.8,4.9-1.5c1.3-0.6,2.5-1.5,3.4-2.6c0.8-0.9,1.2-2.1,1.2-3.4V58c-0.1-0.9,0.1-1.9,0.4-2.7
		c0.2-0.5,0.8-0.8,1.8-1c0.4-0.1,0.9-0.2,1.3-0.2c0.3,0,0.7-0.1,1-0.1c0.3,0,0.5-0.1,0.7-0.3c0.2-0.2,0.3-0.5,0.3-0.8
		C323.5,52.2,323.1,51.8,322.3,51.8z"/>
	<path class="st0" d="M360,56.3c-0.6-1.6-1.4-3.1-2.5-4.5c-1.2-1.4-2.6-2.6-4.1-3.7c-1.8-1.2-3.7-2.3-5.6-3.3c-2.1-1-4-2.4-5.6-4
		c-1.2-1.4-1.9-3.2-1.8-5.1c-0.1-2.2,0.6-4.3,2-6c1.5-1.5,3.5-2.3,5.6-2.2c1.6-0.1,3.1,0.5,4.2,1.7c1.2,1.4,2.1,3.1,2.8,4.8
		c0.4,1,0.8,2.1,1.1,3.1c0.2,0.7,0.5,1.1,1.2,1.1c0.7,0,1-0.6,1-1.7c0-5.2-0.2-8.1-0.6-8.6c-0.9-0.8-2-1.4-3.1-1.7
		c-1.9-0.7-3.9-1-5.9-0.9c-2,0-4,0.3-5.8,1c-3.3,1.2-5.9,3.8-7.2,7.1l0-0.1c-0.7,1.8-1,3.7-1,5.6c0,2,0.3,3.9,1,5.8
		c0.6,1.5,1.4,2.8,2.4,4c1.1,1.1,2.3,2.1,3.6,2.9c1.5,0.9,3,1.8,4.5,2.7c2.6,1.3,4.9,3.2,6.8,5.4c2.3,2.9,2.9,6.8,1.6,10.3
		c-0.4,1.1-1,2.1-1.8,3c-0.8,0.8-1.7,1.5-2.7,2c-1,0.5-2.2,0.7-3.3,0.7c-2.1,0-4.1-0.8-5.7-2.2c-1.9-1.6-3.2-3.8-3.9-6.2
		c-0.2-0.7-0.4-1.4-0.5-2.1l-0.3-1.8c-0.1-0.4-0.2-0.8-0.4-1.2c-0.2-0.3-0.5-0.5-0.8-0.4c-0.8,0-1.2,0.8-1.2,2.5v2
		c0,0.7,0,1.5-0.1,2.4c-0.1,0.9-0.1,1.7-0.1,2.6c-0.1,2.2,1.2,4.2,3.2,5.1c2.7,1.2,5.6,1.8,8.5,1.7c2.1,0,4.2-0.4,6.1-1.2
		c1.8-0.8,3.5-1.9,4.8-3.4c1.4-1.4,2.4-3.1,3.2-5c0.8-2,1.2-4.2,1.1-6.4C360.9,60.2,360.6,58.2,360,56.3z"/>
	<path class="st0" d="M278.5,74.8c-0.5-0.1-1-0.1-1.5-0.1c-0.6,0-1.3-0.1-1.9-0.3c-0.6-0.2-1.2-0.4-1.7-0.8
		c-0.4-0.3-0.7-0.7-0.9-1.2c-0.2-0.6-0.3-1.2-0.3-1.8v-2.8h-0.1V17.8c-0.1-1.2,0.1-2.5,0.4-3.7c0.3-0.7,1.1-1.2,2.5-1.5
		c0.6-0.1,1.2-0.2,1.8-0.3c0.6,0,1.1-0.1,1.5-0.2c0.4,0,0.7-0.2,1-0.4c0.3-0.3,0.4-0.7,0.3-1c0-1-0.5-1.5-1.6-1.5
		c-1.2,0.1-2.4,0.2-3.6,0.4c-2.4,0.3-4.9,0.5-7.3,0.4c-2.5,0-4.9-0.1-7.3-0.4c-1.2-0.2-2.3-0.4-3.5-0.5c-0.3,0-0.5,0-0.7,0.1
		c-0.2-0.1-0.4-0.1-0.7-0.1c-1.2,0.1-2.3,0.2-3.5,0.5c-2.4,0.3-4.9,0.5-7.3,0.4c-2.4,0-4.9-0.1-7.3-0.4c-1.2-0.2-2.3-0.4-3.5-0.5
		c-1.1,0-1.6,0.5-1.6,1.5c-0.1,0.4,0.1,0.8,0.4,1.2c0.3,0.2,0.7,0.3,1.1,0.4c0.5,0.1,1.1,0.1,1.6,0.1c0.7,0,1.4,0.1,2.1,0.3
		c0.8,0.2,1.4,0.8,1.9,1.5c0.3,1.2,0.4,2.4,0.4,3.6v53c0,0.6-0.1,1.3-0.4,1.8c-0.2,0.5-0.6,0.9-1,1.2c-0.6,0.3-1.3,0.6-2,0.8
		c-0.5,0.1-1,0.2-1.5,0.2c-0.4,0-0.9,0-1.3,0.1c-0.4,0-0.7,0.2-1,0.4c-0.3,0.3-0.4,0.7-0.4,1.1c0,1.2,0.8,1.8,2.3,1.8
		c0.7,0,1.8-0.1,3.5-0.3c4.5-0.4,9.1-0.4,13.7,0c1.7,0.2,2.9,0.3,3.5,0.3c0.5,0,0.9-0.1,1.2-0.2c0.3,0.1,0.7,0.2,1.2,0.2
		c0.7,0,1.8-0.1,3.6-0.3c4.5-0.4,9.1-0.4,13.7,0c1.7,0.2,2.9,0.3,3.5,0.3c1.5,0,2.3-0.5,2.3-1.5c0-0.5-0.1-0.9-0.4-1.2
		C279.2,75.1,278.9,74.9,278.5,74.8z M262.1,17.8v53c0,0.6-0.1,1.3-0.4,1.8c-0.2,0.5-0.6,0.9-1,1.2c-0.6,0.3-1.3,0.6-2,0.8
		c-0.5,0.1-1,0.2-1.5,0.2c-0.4,0-0.9,0-1.3,0.1c-0.1,0-0.2,0.1-0.3,0.1c-0.1,0-0.2-0.1-0.3-0.1c-0.5-0.1-1-0.1-1.6-0.1
		c-0.6,0-1.3-0.1-1.9-0.3c-0.6-0.2-1.2-0.4-1.7-0.8c-0.4-0.3-0.7-0.7-0.9-1.2c-0.2-0.6-0.3-1.2-0.3-1.8v-2.8h0V17.8
		c-0.1-1.2,0.1-2.5,0.4-3.7c0.2-0.7,1.1-1.2,2.5-1.5c0.6-0.1,1.2-0.2,1.9-0.3c0.6,0,1.1-0.1,1.5-0.2c0.1,0,0.2,0,0.3-0.1
		c0.2,0.1,0.4,0.1,0.6,0.2c0.5,0.1,1.1,0.1,1.6,0.1c0.7,0,1.4,0.1,2.1,0.3c0.8,0.2,1.6,0.7,2,1.5C262.1,15.3,262.2,16.6,262.1,17.8z
		"/>
</g>
</svg>
