<svg id="Layer_1" data-name="Layer 1" xmlns="http://www.w3.org/2000/svg" width="457.7" height="100" viewBox="0 0 457.7 100"><polygon points="70.15 60.94 0 2.98 0.24 94.53 13.43 94.53 13.43 35.33 85.07 93.53 85.07 2.24 69.9 2.24 70.15 60.94" fill="#fff"/><path d="M113.43,61.19H95.76V75.1h10.7L94.77,95h16.92l10.94-19.9h45.53L178.6,95h18.16L145.52,3Zm15.42-.25,16.42-30.09,16.42,30.09Z" fill="#fff"/><polygon points="311.68 3.23 311.68 95.02 326.61 95.02 326.61 45.27 362.18 87.56 397.51 45.02 397.75 95.02 413.67 95.02 413.67 1.99 362.43 62.19 311.68 3.23" fill="#fff"/><rect x="442.78" y="0.99" width="14.92" height="94.03" fill="#fff"/><path d="M246.26,0a50,50,0,1,0,50,50A50,50,0,0,0,246.26,0Zm0,85.07h0A35,35,0,0,1,211.44,50v-.11a35,35,0,1,1,34.82,35.18Z" fill="#fff"/></svg>