<svg id="Layer_1" data-name="Layer 1" xmlns="http://www.w3.org/2000/svg" width="464.38" height="100" viewBox="0 0 464.38 100"><path d="M53.87,8.77a30.24,30.24,0,0,0-11.24-5A69.42,69.42,0,0,0,27.15,2.28H0v96.5H22.33V22.53h6.43a14.84,14.84,0,0,1,9.44,2.63,9.1,9.1,0,0,1,3.31,7.53A9.33,9.33,0,0,1,38.2,40.4a14.71,14.71,0,0,1-9.44,2.66H25.29V63.31l4.83,0a40.1,40.1,0,0,0,13.12-2.15,32.51,32.51,0,0,0,10.82-6.08,27.56,27.56,0,0,0,7.12-9.64,30.39,30.39,0,0,0,2.55-12.65,37.32,37.32,0,0,0-2.55-14.56A22.13,22.13,0,0,0,53.87,8.77Z" transform="translate(0 0)" fill="#fff"/><rect x="123.56" y="40.83" width="50.95" height="13.7" fill="#fff"/><path d="M239.76,4.4A35.56,35.56,0,0,0,222.19.06,33.68,33.68,0,0,0,205.25,4.3a29,29,0,0,0-11.53,12.05,38.11,38.11,0,0,0-4.06,17.88A35.38,35.38,0,0,0,193,49.68a27.15,27.15,0,0,0,9.5,11.14A25.37,25.37,0,0,0,217,64.93a17.77,17.77,0,0,0,7.1-1.28l.26.27a104.33,104.33,0,0,1-10.79,13.89q-6.18,6.76-18.92,19.82l26.55.2a186.72,186.72,0,0,0,25.61-31.15,57.78,57.78,0,0,0,9.34-31.35,38.66,38.66,0,0,0-4.29-18.61A30.09,30.09,0,0,0,239.76,4.4Zm-8.21,38.86a11.58,11.58,0,0,1-8.89,3.88,11,11,0,0,1-6.07-1.75,11.68,11.68,0,0,1-4.3-4.81,14.63,14.63,0,0,1-1.5-6.56,13,13,0,0,1,3.45-9.08,11.11,11.11,0,0,1,8.45-3.78,11.71,11.71,0,0,1,6.21,1.75,13,13,0,0,1,4.55,4.64,12.79,12.79,0,0,1,1.6,6.43A13.08,13.08,0,0,1,231.55,43.26Z" transform="translate(0 0)" fill="#fff"/><path d="M388,16.57A31,31,0,0,0,377.67,4.64,28.28,28.28,0,0,0,361.24.06a27.59,27.59,0,0,0-16.05,4.53,31.08,31.08,0,0,0-10.28,12.09,58.42,58.42,0,0,0-5.19,16,100.31,100.31,0,0,0-1.47,17.39,98.86,98.86,0,0,0,1.47,17.34,59.3,59.3,0,0,0,5.19,15.94,30.85,30.85,0,0,0,10.28,12.11A27.53,27.53,0,0,0,361.24,100q12.75,0,20.2-7.57a40.43,40.43,0,0,0,10.34-18.93,94.08,94.08,0,0,0,2.89-23.39,99.19,99.19,0,0,0-1.51-17.55A57.33,57.33,0,0,0,388,16.57Zm-26.83,62A8.37,8.37,0,0,1,354.05,75,23,23,0,0,1,350.34,65a91.66,91.66,0,0,1-1.06-15,89,89,0,0,1,1.09-15,23.66,23.66,0,0,1,3.74-9.89,8.29,8.29,0,0,1,7.13-3.61q12.31,0,12.3,28.53T361.18,78.58Z" transform="translate(0 0)" fill="#fff"/><path d="M462.77,32.55a58.27,58.27,0,0,0-5.12-16A31.19,31.19,0,0,0,447.31,4.64,28.35,28.35,0,0,0,430.91.06a27.76,27.76,0,0,0-16.05,4.53,31.32,31.32,0,0,0-10.28,12.09,59.11,59.11,0,0,0-5.19,16,103.3,103.3,0,0,0,0,34.73,59.66,59.66,0,0,0,5.19,15.94,31,31,0,0,0,10.28,12.11A27.53,27.53,0,0,0,430.91,100q12.73,0,20.25-7.62A40.61,40.61,0,0,0,461.5,73.44a94.54,94.54,0,0,0,2.88-23.39A101.62,101.62,0,0,0,462.77,32.55Zm-31.86,46A8.39,8.39,0,0,1,423.77,75,23.34,23.34,0,0,1,420.06,65a91.66,91.66,0,0,1-1.06-15,90,90,0,0,1,1.09-15,23.81,23.81,0,0,1,3.68-9.89,8.3,8.3,0,0,1,7.14-3.61q12.33,0,12.35,28.53T430.91,78.58Z" transform="translate(0 0)" fill="#fff"/><path d="M312.42,47.54a.1.1,0,0,1-.05,0,.18.18,0,0,1,.05-.24,20.85,20.85,0,0,0,6.9-8,24.41,24.41,0,0,0,2.68-11q0-13.26-8.32-20.68A30,30,0,0,0,292.94.06a43.31,43.31,0,0,0-12,1.61,28.87,28.87,0,0,0-10.06,5.19,23.35,23.35,0,0,0-6.79,8.91,31,31,0,0,0-2.36,12.55,24,24,0,0,0,10,19.83l0,.05a.17.17,0,0,1,0,.24,29.53,29.53,0,0,0-8.85,9.72,25.45,25.45,0,0,0-3.53,13,26.33,26.33,0,0,0,4.57,15.41,28.83,28.83,0,0,0,12.14,10,38.45,38.45,0,0,0,16,3.4,39.83,39.83,0,0,0,12-1.84,34.19,34.19,0,0,0,10.67-5.56,27.34,27.34,0,0,0,7.57-9.15A26.19,26.19,0,0,0,325,71.15a27,27,0,0,0-3.1-13.59A32.62,32.62,0,0,0,312.42,47.54Zm-19.85-28a10,10,0,0,1,9.73,10.21c0,.17,0,.34,0,.5a10.23,10.23,0,1,1-9.72-10.71Zm10.95,50.08a11.54,11.54,0,1,1-10.95-12.11h0a11.25,11.25,0,0,1,11,11.53C303.54,69.21,303.53,69.4,303.52,69.59Z" transform="translate(0 0)" fill="#fff"/><path d="M99.76,25.72a20.45,20.45,0,0,1,12-4,19.85,19.85,0,0,1,7.79,1.6L119.72.72A42.45,42.45,0,0,0,111.93,0,40.64,40.64,0,0,0,89.45,6.66,48.4,48.4,0,0,0,73.07,24.84a55.5,55.5,0,0,0,0,50.26A47.89,47.89,0,0,0,89.45,93.21a41.11,41.11,0,0,0,30.2,5.92V76.66a19.42,19.42,0,0,1-7.78,1.6,19.81,19.81,0,0,1-12-4A27.58,27.58,0,0,1,91,63.68,30.15,30.15,0,0,1,87.78,50,31.14,31.14,0,0,1,91,36.22,28.58,28.58,0,0,1,99.76,25.72Z" transform="translate(0 0)" fill="#fff"/></svg>