<?xml version="1.0" encoding="utf-8"?>
<!-- Generator: Adobe Illustrator 25.4.1, SVG Export Plug-In . SVG Version: 6.00 Build 0)  -->
<svg version="1.1" id="Layer_1" xmlns="http://www.w3.org/2000/svg" xmlns:xlink="http://www.w3.org/1999/xlink" x="0px" y="0px"
	 viewBox="0 0 863 100" style="enable-background:new 0 0 863 100;" xml:space="preserve">
<style type="text/css">
	.st0{fill:#FFFFFF;}
</style>
<g>
	<polygon class="st0" points="320.2,96.4 368.7,96.4 368.7,80.4 336.2,80.4 336.2,58.6 368.7,58.6 368.7,42.6 336.2,42.6 
		336.2,18.9 368.8,18.9 368.8,3 320.2,3 	"/>
	<polygon class="st0" points="248.5,67.3 248.5,3 232.5,3 170.5,96.4 189.7,96.4 232.5,31.9 232.5,96.4 248.5,96.4 248.5,96.3 
		291.3,31.9 291.3,96.4 307.2,96.4 307.2,2.9 291.4,2.9 	"/>
	<path class="st0" d="M88,96.4h19.2l13.2-20h29.7v20h16V3l-16-0.1L88,96.4z M150.2,60.4l-19,0l19-28.6V60.4z"/>
	<path class="st0" d="M98,50H49.8v15.5H80c-2.5,5.4-6.3,10-11.2,13.4c-15.4,10.9-36.7,7.3-47.6-8s-7.3-36.7,8-47.6
		c15.4-10.9,36.7-7.3,47.6,8l17,0C86.1,13.6,68.5,2,49,2C22,2,0,23.9,0,51c0,27.1,21.9,49,49,49s49-21.9,49-49V50z"/>
	<path class="st0" d="M465.6,35.6H450l-8.3,18.6l-12.3-11.4C435,38.3,440,32.6,440,23.1c0-5.1-2-10-5.7-13.6
		c-4.3-4.2-10.1-6.5-16.1-6.5c-10.6,0-21.5,7.5-21.5,20.2c0,8.8,4.8,14.5,9.7,18.7c-8.9,6.3-16.7,13.1-16.7,26.9
		c-0.1,7.5,2.7,14.8,8,20.2c5.5,5.3,12.8,8.3,20.5,8.1c15.2,0,22.7-7.3,28.5-18.7l18.6,17.3l9.8-10.6l-22.2-20.5L465.6,35.6z
		 M412.5,19.5L412.5,19.5c1.5-1.4,3.5-2.2,5.6-2.2c2.2,0,4.4,0.8,6,2.4c1,0.9,1.5,2.1,1.5,3.5c0,4-1.9,6.2-7.2,10.1
		c-4.6-3.7-7.4-6.3-7.4-10.1C411,21.7,411.5,20.4,412.5,19.5z M435.2,68.8c-5,11-8.5,13.8-17.1,13.8c-3.8,0.2-7.6-1.2-10.4-3.9
		c-2.6-2.7-3.9-6.3-3.8-10c0-7.5,3.9-10.5,13.4-17.1l0.1-0.1l18,16.6L435.2,68.8z"/>
	<path class="st0" d="M732,74.1c-14-12.3-15.3-33.6-3-47.6c12.3-14,33.6-15.3,47.6-3c1,0.8,1.9,1.7,2.7,2.7H798
		C785.5,2.3,756-6.9,732.1,5.6c-23.9,12.5-33.2,42-20.7,65.9c12.5,23.9,42,33.2,65.9,20.7c9-4.7,16.2-12,20.9-21h-18.6
		C767.2,85.1,745.9,86.4,732,74.1z"/>
	<polygon class="st0" points="847,2.9 847,40.5 818.1,40.5 818.1,2.9 802.1,2.9 802.1,96.3 818.1,96.3 818.1,56.5 847,56.5 
		847,96.2 863,96.2 863,2.9 	"/>
	<polygon class="st0" points="605.8,2.9 563.1,67.4 563.1,2.9 547.1,2.9 547.1,3 504.3,67.4 504.3,2.9 488.5,2.9 488.5,96.3 
		504.3,96.3 547.1,31.9 547.1,96.3 563.1,96.3 625.1,2.9 	"/>
	<path class="st0" d="M573.2,96.3h19.2l13.2-19.9h29.6v20h16V3l-16-0.1L573.2,96.3z M635.2,60.4h-19l19-28.5V60.4z"/>
	<polygon class="st0" points="709.5,2.9 709.5,2.9 657.3,2.9 657.3,18.9 675.4,18.9 675.4,96.3 691.4,96.3 691.4,18.9 709.5,18.9 	
		"/>
</g>
</svg>
