<svg id="Layer_1" data-name="Layer 1" xmlns="http://www.w3.org/2000/svg" width="678.76" height="100" viewBox="0 0 678.76 100"><polygon points="0 19.98 19.98 19.98 19.98 99.88 59.93 99.88 59.93 19.98 79.9 19.98 79.9 0 0 0 0 19.98" fill="#fff"/><polygon points="239.61 0.06 239.61 20.04 219.7 20.04 219.7 79.9 239.61 79.9 239.61 99.88 299.51 99.88 299.51 79.96 319.42 79.96 319.42 59.99 299.51 59.99 299.51 79.9 259.56 79.9 259.56 20.04 299.51 20.04 299.51 0.06 239.61 0.06" fill="#fff"/><polygon points="119.76 20.04 139.74 20.04 139.74 79.9 119.76 79.9 119.76 99.88 199.66 99.88 199.66 79.9 179.69 79.9 179.69 20.04 199.66 20.04 199.66 0.06 119.76 0.06 119.76 20.04" fill="#fff"/><rect x="299.51" y="20.04" width="19.91" height="19.98" fill="#fff"/><polygon points="658.79 20.04 658.79 79.9 618.84 79.9 618.84 20.04 658.79 20.04 658.79 0.06 598.92 0.06 598.92 20.04 578.98 20.04 578.98 80.03 598.92 80.03 598.92 100 658.79 99.88 658.79 80.03 678.76 79.9 678.76 20.04 658.79 20.04" fill="#fff"/><polygon points="359.34 59.99 419.21 59.93 419.21 40.01 359.34 40.01 359.34 59.99" fill="#fff"/><polygon points="539.06 40.01 499.11 40.01 499.11 20.04 539.06 20.04 539.06 0.06 479.19 0.06 479.19 20.04 459.25 20.04 459.25 40.01 479.19 40.01 479.19 59.99 459.25 59.99 459.25 79.96 479.19 79.96 479.19 99.94 539.06 99.88 539.06 80.03 559 80.03 559 60.05 539.06 60.05 539.06 79.9 499.11 79.9 499.11 59.93 539.06 59.93 539.06 40.07 559 40.07 559 20.1 539.06 20.1 539.06 40.01" fill="#fff"/></svg>