<?xml version="1.0" encoding="utf-8"?>
<!-- Generator: Adobe Illustrator 25.4.1, SVG Export Plug-In . SVG Version: 6.00 Build 0)  -->
<svg version="1.1" id="Layer_1" xmlns="http://www.w3.org/2000/svg" xmlns:xlink="http://www.w3.org/1999/xlink" x="0px" y="0px"
	 viewBox="0 0 141.8 100" style="enable-background:new 0 0 141.8 100;" xml:space="preserve">
<style type="text/css">
	.st0{fill:#FFFFFF;}
</style>
<g>
	<path class="st0" d="M138.3,33.2c2-4.2,3-8.8,3-13.4c0-10.9-6.6-19.7-12.7-19.7H85.9v67.6h42.7c6.4,0,13.2-9.2,13.2-20.5
		C141.8,42.3,140.6,37.5,138.3,33.2z M130.8,47.7c0.1,2.3-1.7,4.2-4,4.3H101V15.5h25.4c2.1,0,3.8,1.7,3.8,3.8v2.5
		c0.1,2.4-1.6,4.4-4,4.5h-21.5v10.5l9.8,5.1H127c2.1-0.1,3.8,1.6,3.8,3.6L130.8,47.7z"/>
	<rect x="53.4" y="28.3" class="st0" width="31" height="17.6"/>
	<polygon class="st0" points="58.7,48 51.2,48 51.2,25.9 27.8,18.5 27.8,52.6 17.6,57.6 17.6,67.6 58.7,67.6 	"/>
	<path class="st0" d="M84.4,26.5l0-11.1C84.4,8,79.2,1.6,72,0H0v8.5l57,18.1H84.4z"/>
	<polygon class="st0" points="66.2,88.5 87,88.5 87,81.3 66.2,81.3 66.2,77 87.8,77 87.8,69.8 58.6,69.8 58.6,100 88.4,100 
		88.4,92.8 66.2,92.8 	"/>
	<path class="st0" d="M46.6,69.8H21.9V100h7.5V77h17c1.1,0,2,0.9,2,2v21h8V79.6C56.5,74.2,52,69.8,46.6,69.8z"/>
	<path class="st0" d="M117.5,69.8h-17c-5.6,0-10.2,4.6-10.2,10.2v9.8c0,5.6,4.6,10.2,10.2,10.2h17c5.6,0,10.2-4.6,10.2-10.2V80
		C127.7,74.4,123.1,69.8,117.5,69.8z M119.8,90c0,1.6-1.2,2.8-2.8,2.9h-16c-1.6,0-2.9-1.2-2.9-2.8c0,0,0,0,0,0V79.7
		c0-1.6,1.3-2.9,2.9-2.9c0,0,0,0,0,0h16c1.6,0,2.9,1.3,2.8,2.9L119.8,90z"/>
</g>
</svg>
