<svg id="Layer_1" data-name="Layer 1" xmlns="http://www.w3.org/2000/svg" width="122.39" height="100" viewBox="0 0 122.39 100"><path d="M15.94,14.87h-.18c-2.76,0-5.59.28-7.63,3.16a6.17,6.17,0,0,0-.48-1.16,3.07,3.07,0,0,0-3.26-1.62H0V90a75.48,75.48,0,0,0,9.14,10V72.63a8.08,8.08,0,0,0,6.59,2.62c6.24,0,10.15-4.94,10.15-12.9V29C26.09,19.5,22.75,14.87,15.94,14.87Zm-.31,52.21a3.16,3.16,0,0,1-2.46.76c-1.91,0-3.82-1.9-3.82-5.17v-34c0-4.78,1.36-7.08,4.16-7.08,1.91,0,3.51.47,3.51,6.73V61.07C17,64.22,16.56,66.16,15.63,67.08Z" transform="translate(0 0)" fill="#fff"/><path d="M44.27,15.27h0Z" transform="translate(0 0)" fill="#fff"/><path d="M60.88,6.76h2.21a1.26,1.26,0,0,1,1.34,1.08V74.43h8.22V0H60.88Z" transform="translate(0 0)" fill="#fff"/><path d="M44.31,15.27c-7.33,0-11.22,4.24-11.22,12.29v5.72h3.82a4.06,4.06,0,0,0,2.75-.65A2.21,2.21,0,0,0,40.15,31V26.72c0-4.37,1.72-5.25,4.3-5.25s3.68,1.91,3.68,5.72v8.46H48C39.31,38.89,32.71,42.14,32.71,52V62.73c0,8.36,2.6,11.75,9,11.75a7.62,7.62,0,0,0,6.43-3.14L48.4,71l.11.42a5.36,5.36,0,0,0,.8,1.91,2.26,2.26,0,0,0,2.08,1h4.49V26.72C55.86,18.9,52.18,15.28,44.31,15.27Zm3.84,44.25c0,6.47-1.15,8.9-4.2,8.9s-3.51-3.27-3.51-7.22V52.82c0-6.54,2.25-8.34,7.38-10.84l.33-.15Z" transform="translate(0 0)" fill="#fff"/><path d="M111.49,15.27a8.84,8.84,0,0,0-7.64,4.65h-.19l-.22.39-.18-.41a7.5,7.5,0,0,0-7.63-4.63,8.16,8.16,0,0,0-6.87,3.55l-.38.47v-.61s-.12-1.92-1-2.59a2.6,2.6,0,0,0-1.91-.46h-4.6v58.8h8.24V29.18c0-6.34,1.84-7.63,4.55-7.63s4,1.73,4,5.3V74.43h8.1V29.18c0-6.36,1.83-7.63,4.54-7.63s4,1.73,4,5.3V74.43h8.1V29.29C122.39,20,118.7,15.27,111.49,15.27Z" transform="translate(0 0)" fill="#fff"/></svg>