<svg id="Layer_1" data-name="Layer 1" xmlns="http://www.w3.org/2000/svg" width="596.7" height="100" viewBox="0 0 596.7 100"><path d="M17.15,18.38V42.52H46.78a8.36,8.36,0,0,1,6,2.27,7.65,7.65,0,0,1,2.4,5.83A7.27,7.27,0,0,1,52.74,56a8.24,8.24,0,0,1-6,2.33H17.15v32a7.89,7.89,0,0,1-2.54,6,8.4,8.4,0,0,1-6,2.4A8.59,8.59,0,0,1,2.4,96.3a8.06,8.06,0,0,1-2.4-6V11A8.2,8.2,0,0,1,8.37,2.61H53a8.36,8.36,0,0,1,6,2.26,7.69,7.69,0,0,1,2.4,5.83,7.29,7.29,0,0,1-2.4,5.35,8.21,8.21,0,0,1-6,2.33Z" fill="#fff"/><path d="M138.27,26.2a8.16,8.16,0,0,1,2.33,6v58a8.21,8.21,0,0,1-2.33,6,7.87,7.87,0,0,1-5.9,2.4,7.78,7.78,0,0,1-5.83-2.33,8.62,8.62,0,0,1-2.4-5.9,29.74,29.74,0,0,1-21.53,9.6,31.34,31.34,0,0,1-17.15-4.87A34.16,34.16,0,0,1,73.32,81.62,42.19,42.19,0,0,1,68.86,62a43.09,43.09,0,0,1,4.39-19.68,33.79,33.79,0,0,1,12-13.58,30.55,30.55,0,0,1,16.81-4.87,31.75,31.75,0,0,1,12.34,2.4,32.38,32.38,0,0,1,9.74,6.1v-.13a8.25,8.25,0,0,1,2.33-6,7.88,7.88,0,0,1,5.9-2.4A8,8,0,0,1,138.27,26.2ZM119.2,78.39q5.63-6.51,5.63-16.39T119.2,45.54a19.2,19.2,0,0,0-28.94,0Q84.64,52.13,84.64,62t5.55,16.39a18.11,18.11,0,0,0,14.47,6.52A18.29,18.29,0,0,0,119.2,78.39Z" fill="#fff"/><path d="M218.65,27.5a7,7,0,0,1,2.2,5.28,10.7,10.7,0,0,1-1.1,4.12L194.1,93.41a8.52,8.52,0,0,1-2.81,3.71,7.68,7.68,0,0,1-4.19,1.51l-1.23.13a7.12,7.12,0,0,1-4.32-1.44,9.38,9.38,0,0,1-3.09-3.91L153,36.9a10.88,10.88,0,0,1-1-4.39,6.84,6.84,0,0,1,2.33-5,7.93,7.93,0,0,1,5.76-2.26,8.9,8.9,0,0,1,4.8,1.37,8.52,8.52,0,0,1,3.29,3.84L187.1,73.8l18.8-43.21a9,9,0,0,1,3-4,6.51,6.51,0,0,1,4.26-1.23A7.58,7.58,0,0,1,218.65,27.5Z" fill="#fff"/><path d="M298.76,81.69A34.88,34.88,0,0,1,285.25,95.2a39.59,39.59,0,0,1-37.79,0A35,35,0,0,1,234,81.69,39.25,39.25,0,0,1,229.08,62,39.24,39.24,0,0,1,234,42.32a35.5,35.5,0,0,1,13.44-13.58,39.09,39.09,0,0,1,37.79,0,35.33,35.33,0,0,1,13.51,13.58A39.13,39.13,0,0,1,303.7,62,39.14,39.14,0,0,1,298.76,81.69ZM284.43,50a20.75,20.75,0,0,0-7.54-8.16,20.56,20.56,0,0,0-21,0A20.7,20.7,0,0,0,248.35,50a25.18,25.18,0,0,0-2.81,12,24.83,24.83,0,0,0,2.81,11.94A20.84,20.84,0,0,0,255.9,82a20.56,20.56,0,0,0,21,0,20.89,20.89,0,0,0,7.54-8.09A24.83,24.83,0,0,0,287.24,62,25.18,25.18,0,0,0,284.43,50Z" fill="#fff"/><path d="M362.48,26.2a6.94,6.94,0,0,1,2.81,5.49q0,4.25-2.19,6.38a7.27,7.27,0,0,1-5.21,2.12,13.69,13.69,0,0,1-4.67-1l-1.85-.55a11.37,11.37,0,0,0-3.09-.41,12.12,12.12,0,0,0-6.85,2.2A15.9,15.9,0,0,0,336,47.12a24.46,24.46,0,0,0-2.13,10.63V90.26a8.25,8.25,0,0,1-2.33,6,8.45,8.45,0,0,1-11.8,0,8.25,8.25,0,0,1-2.33-6V33.61a8.25,8.25,0,0,1,2.33-6,8.45,8.45,0,0,1,11.8,0,8.25,8.25,0,0,1,2.33,6v1.78a20.72,20.72,0,0,1,9.05-8.57,27.81,27.81,0,0,1,12.62-2.95A10.5,10.5,0,0,1,362.48,26.2Z" fill="#fff"/><path d="M377.5,14.81q-1.92-1.5-1.92-5.34V6.86q0-3.84,2.06-5.35C379,.5,381.21,0,384.22,0q4.8,0,6.72,1.51t1.92,5.35V9.47q0,4-2,5.41c-1.33,1-3.6,1.44-6.79,1.44S378.78,15.82,377.5,14.81Zm12.62,81.42a8.45,8.45,0,0,1-11.8,0,8.25,8.25,0,0,1-2.33-6V33.61a8.25,8.25,0,0,1,2.33-6,8.45,8.45,0,0,1,11.8,0,8.25,8.25,0,0,1,2.33,6V90.26A8.25,8.25,0,0,1,390.12,96.23Z" fill="#fff"/><path d="M448.21,85a7.26,7.26,0,0,1,1.58,4.87q0,3.7-4.05,6.24a16.84,16.84,0,0,1-9.12,2.54q-8.5,0-14.33-3.64t-5.83-15.43V41.7h-6.31A7.5,7.5,0,0,1,402.46,34a7.08,7.08,0,0,1,2.2-5.28,7.56,7.56,0,0,1,5.49-2.13h6.31V17.83a8.2,8.2,0,0,1,8.36-8.36,7.74,7.74,0,0,1,5.77,2.4,8.24,8.24,0,0,1,2.33,6v8.78h9.74a7.52,7.52,0,0,1,7.68,7.68,7,7,0,0,1-2.2,5.29,7.58,7.58,0,0,1-5.48,2.12h-9.74V78.87a5.24,5.24,0,0,0,1.51,4.19,6,6,0,0,0,4.11,1.3,11.62,11.62,0,0,0,3-.55,8.33,8.33,0,0,1,3.15-.68A4.55,4.55,0,0,1,448.21,85Z" fill="#fff"/><path d="M528,65.57a8.75,8.75,0,0,1-5.76,2.06H477a20.65,20.65,0,0,0,7.55,12.68,21,21,0,0,0,13.3,4.6,29.34,29.34,0,0,0,8.78-1,23.18,23.18,0,0,0,5-2.19c1.23-.78,2.08-1.31,2.53-1.58a10.53,10.53,0,0,1,4.67-1.24,6.75,6.75,0,0,1,4.94,2.06,6.58,6.58,0,0,1,2.06,4.8c0,2.47-1.29,4.71-3.85,6.73a32.81,32.81,0,0,1-10.28,5.34,42.5,42.5,0,0,1-33.13-2.6A33.46,33.46,0,0,1,465.29,82a38.56,38.56,0,0,1-4.66-19,42,42,0,0,1,4.94-20.71,35.08,35.08,0,0,1,13-13.65,33.69,33.69,0,0,1,17.28-4.73A32,32,0,0,1,513,28.81a37,37,0,0,1,12.83,13.3,35.9,35.9,0,0,1,4.8,18.11A7.07,7.07,0,0,1,528,65.57ZM477.09,53.91H513V53a14.2,14.2,0,0,0-5.63-9.88A17.8,17.8,0,0,0,495.88,39Q480,39,477.09,53.91Z" fill="#fff"/><path d="M538.81,83.13q0-3.57,3.57-6a7.29,7.29,0,0,1,4-1.23,7.77,7.77,0,0,1,5.49,2.6,28.78,28.78,0,0,0,8.57,6.31,25.58,25.58,0,0,0,10.77,2.06q10.69-.4,10.7-8.09a6.58,6.58,0,0,0-3.64-6,51.22,51.22,0,0,0-11.31-4.11,99.52,99.52,0,0,1-13-4.39,22.8,22.8,0,0,1-8.64-6.66q-3.63-4.45-3.63-12a18.12,18.12,0,0,1,3.77-11.45,24.81,24.81,0,0,1,9.87-7.55,32,32,0,0,1,13-2.67,40,40,0,0,1,14,2.6,24.32,24.32,0,0,1,11,7.69,7.62,7.62,0,0,1,1.79,4.93,6.37,6.37,0,0,1-2.61,5.22,6.94,6.94,0,0,1-4.39,1.51,6.69,6.69,0,0,1-4.94-1.92,17.29,17.29,0,0,0-6.38-4.81,21.19,21.19,0,0,0-8.85-1.78q-10.42,0-10.42,7.55a6.47,6.47,0,0,0,1.92,4.87,13.21,13.21,0,0,0,4.87,2.88c2,.68,4.73,1.53,8.3,2.53A90.53,90.53,0,0,1,584.9,59.4a21,21,0,0,1,8.37,6.72q3.43,4.53,3.43,11.93a18.32,18.32,0,0,1-4,11.73,25.08,25.08,0,0,1-10.22,7.61A32.91,32.91,0,0,1,569.68,100a46.46,46.46,0,0,1-16.87-3,28,28,0,0,1-12.76-9.74A6.69,6.69,0,0,1,538.81,83.13Z" fill="#fff"/></svg>