<svg id="Layer_1" data-name="Layer 1" xmlns="http://www.w3.org/2000/svg" width="839.5" height="100" viewBox="0 0 839.5 100"><polygon points="0 1.41 52.81 100 66.89 73.74 28.17 1.41 0 1.41" fill="#fff"/><polygon points="56.34 40.84 70.41 67.1 105.62 1.41 77.46 1.41 56.34 40.84" fill="#fff"/><rect x="112.81" y="1.41" width="24.72" height="98.59" fill="#fff"/><rect x="148.01" y="1.41" width="24.72" height="98.59" fill="#fff"/><path d="M190.28,1.41H179.72V26.07H190.3a24.65,24.65,0,0,1,0,49.29H179.72V100h10.6a49.27,49.27,0,0,0,49.25-49.29,47.45,47.45,0,0,0-14.43-34.86A47.47,47.47,0,0,0,190.28,1.41Z" transform="translate(0 0)" fill="#fff"/><rect x="250.25" y="1.41" width="24.72" height="98.59" fill="#fff"/><rect x="281.94" y="1.41" width="38.74" height="24.64" fill="#fff"/><rect x="281.94" y="75.36" width="38.74" height="24.64" fill="#fff"/><rect x="281.94" y="38.38" width="38.74" height="24.64" fill="#fff"/><path d="M384.19,75.12a24.65,24.65,0,0,1-27.89-20.9H331.51a49.32,49.32,0,0,0,98.38,0h-24.8A24.66,24.66,0,0,1,384.19,75.12Z" transform="translate(0 0)" fill="#fff"/><path d="M384.33,1.62a49.33,49.33,0,0,0-52.82,45.57H356.3a24.64,24.64,0,0,1,48.79,0h24.8A49.32,49.32,0,0,0,384.33,1.62Z" transform="translate(0 0)" fill="#fff"/><rect x="440.66" y="1.41" width="24.64" height="98.59" fill="#fff"/><path d="M485.59,1.41H472.35V26.05l13.24,0a5.89,5.89,0,0,1,4.32,1.77,6.2,6.2,0,0,1,0,8.74,5.9,5.9,0,0,1-4.32,1.78H472.35V63h13.24a30.81,30.81,0,0,0,0-61.61Z" transform="translate(0 0)" fill="#fff"/><polygon points="556.94 34.29 521.64 100 549.82 100 570.92 60.55 556.94 34.29" fill="#fff"/><polygon points="560.36 27.67 581.21 66.55 574.73 66.55 561.57 91.19 594.31 91.19 599.09 100 627.26 100 574.45 1.41 560.36 27.67" fill="#fff"/><path d="M634.43,50.73a47.45,47.45,0,0,0,14.45,34.86,47.13,47.13,0,0,0,31.33,14.23V75.14a24.7,24.7,0,0,1,0-48.88V1.64a47.13,47.13,0,0,0-31.33,14.23A47.53,47.53,0,0,0,634.43,50.73Z" transform="translate(0 0)" fill="#fff"/><path d="M687.26,1.55V26.26a23.85,23.85,0,0,1,13.93,7,24.73,24.73,0,0,1,3.1,3.74l20.5-13.67a51.39,51.39,0,0,0-6.2-7.53A47.09,47.09,0,0,0,687.26,1.55Z" transform="translate(0 0)" fill="#fff"/><path d="M701.19,68a23.66,23.66,0,0,1-14,7.12V99.82a47.14,47.14,0,0,0,31.34-14.23,52.33,52.33,0,0,0,6.21-7.49l-20.5-13.74A27.78,27.78,0,0,1,701.19,68Z" transform="translate(0 0)" fill="#fff"/><polygon points="803.15 36.35 803.15 0 776 0 776 36.35 739.64 36.35 739.64 63.51 776 63.51 776 99.82 803.15 99.82 803.15 63.51 839.5 63.51 839.5 36.35 803.15 36.35" fill="#fff"/></svg>