<svg id="Layer_1" data-name="Layer 1" xmlns="http://www.w3.org/2000/svg" width="358.22" height="100" viewBox="0 0 358.22 100"><path d="M358.15,1.41l-1.22.53,1.22-.53s0-.2-.5-.2H301.46l1.8,2.37h0l-1.8-2.37-49,49.08V1.53c0-.94-.17-1.08-.17-1.08l-2.05,5.32h0L252.31.45s-.21-.23-.87.42L219.78,32.6l-.08.17,0-.1V1.19a.53.53,0,0,0-.35-.56L217.1,6.79h0L219.33.63s-.54-.15-1.13.54c-.23.25-57.63,57.58-57.66,57.6V1a.55.55,0,0,0-.37-.57l-1.82,4.73h0L160.18.44s-.52-.14-1.12.56c-.23.24-51.34,51.34-51.34,51.34l0,0V.48c0-.47-.11-.46-.11-.46h0s-.14-.1-.35.16S75,32.43,75,32.43h0V.8c0-.31-.19-.36-.19-.36h0a.28.28,0,0,0-.29,0C74.38.57.06,74.91.06,74.91c-.21.31.18.29.18.29H30L60.3,44.77h0s.05,30.5.05,31.08.51.73.51.73h0a1,1,0,0,0,.76-.17L88.17,49.82h0l0,22.2,1.29.58L88.22,72,60.38,99.74c-.22.3.15.26.15.26H90.66L140.8,50l.06,24.41a1.35,1.35,0,0,0,.46,1.13l2.49-2.25h0l-2.5,2.25a1.24,1.24,0,0,0,.52.21l32.66,0-1.4-2.3h0l1.4,2.3,30.62-30.6,0,30.89a.53.53,0,0,0,.41.44h0s.29.09.64-.26l26.7-26.67V70.21l3,1.25h0l-3-1.25-4.6,4.61c-.25.27-.16.36-.16.36a.4.4,0,0,0,.33.17h4.9l.17-.19h0l72.6,0h0L324.44,57c.4-.51.15-.79.15-.79h0a.43.43,0,0,0-.42-.27H274.89l8.53-8.54h15.64l-1.71-2h0l1.71,2,18.61-18.61c.25-.55,0-.73,0-.73l-6.3,3.05h0l6.31-3.05s-.06-.12-.28-.1H303.1l0,0,8-8.1-1.08-2.18h0l1.08,2.19h29.37L339,17.71h0l1.57,2.13L358,2.31A.91.91,0,0,0,358.15,1.41Zm-330,71.05,0,0,0,0ZM72.58,6h0l1.64-4Zm-66,66.87h0L.48,75.1ZM89.32,97.71h0l1,1.66ZM282.53,46.62l-1.33-1.19h0Z" fill="#fff"/></svg>