<?xml version="1.0" encoding="utf-8"?>
<!-- Generator: Adobe Illustrator 25.4.1, SVG Export Plug-In . SVG Version: 6.00 Build 0)  -->
<svg version="1.1" id="Layer_1" xmlns="http://www.w3.org/2000/svg" xmlns:xlink="http://www.w3.org/1999/xlink" x="0px" y="0px"
	 viewBox="0 0 1356 100" style="enable-background:new 0 0 1356 100;" xml:space="preserve">
<style type="text/css">
	.st0{fill:#FFFFFF;}
</style>
<g>
	<path class="st0" d="M1081.1,45.3c0,0,27.7-4.4,27.7-21.6c0-16.8-29.4-23.7-60.7-23.7c-15.7-0.1-31.4,1-46.9,3.5v15.3
		c12.9-3.1,25.1-5.8,41.9-5.8c18,0,31.6,5.4,31.6,13c0,9.1-13.6,14.3-42.7,14.3h-13.4v13.7h12.4c30.7,0,48.2,4.6,48.2,15.9
		c0,10.1-15.6,16.2-35,16.2c-17,0-32.5-3.6-45.1-7.1v16.5c6.1,1,22.1,4.2,52,4.2c33.1,0,61.9-10.6,61.9-29.4
		C1112.8,54.5,1092.8,45.3,1081.1,45.3z"/>
	<polygon class="st0" points="89.2,1.7 89.2,73.3 15.5,1.7 0,1.7 0,100 18.2,100 18.2,27.2 93,100 107.2,100 107.2,1.7 103.8,1.7 	
		"/>
	<polygon class="st0" points="271.7,1.7 271.7,73.3 198,1.7 182.4,1.7 182.4,100 200.6,100 200.6,27.2 275.5,100 289.7,100 
		289.7,1.7 286.2,1.7 	"/>
	<polygon class="st0" points="649.8,1.7 649.8,73.3 576.1,1.7 560.6,1.7 560.6,100 578.8,100 578.8,27.2 653.6,100 667.8,100 
		667.8,1.7 664.4,1.7 	"/>
	<polygon class="st0" points="135.7,1.7 135.7,100 153.9,100 153.9,1.7 150.5,1.7 	"/>
	<polygon class="st0" points="310.3,1.7 310.3,18.6 354.1,18.6 354.1,100 373,100 373,18.6 416.9,18.6 416.9,1.7 413.6,1.7 	"/>
	<polygon class="st0" points="437.6,1.7 437.6,100 533.6,100 533.6,83 455.6,83 455.6,57.6 515.9,57.6 515.9,40.7 455.6,40.7 
		455.6,18.6 533.6,18.6 533.6,1.7 530.2,1.7 	"/>
	<path class="st0" d="M798.8,16c-7.2-9.4-18.5-14.7-30.4-14.2h-72.9V100h72.9c11.9,0.4,23.2-4.9,30.4-14.4
		c7.2-10.2,10.8-22.4,10.3-34.8C809.6,38.4,806,26.2,798.8,16z M769,83L769,83l-55.9,0.1V18.6H769c17.5,0,23.7,17.2,23.7,32.2
		S786.4,83,769,83z"/>
	<path class="st0" d="M928,1.8h-79.4c-11.4,0-20.7,9.3-20.7,20.7c0,0,0,0,0,0v56.6c0,11.4,9.3,20.7,20.7,20.7H928
		c11.4-0.1,20.6-9.3,20.7-20.7V22.5C948.6,11.1,939.4,1.9,928,1.8z M931.4,79.1c0,2.2-1.8,4-4,4h-78c-2.2,0-4-1.8-4-4V22.6
		c0-2.2,1.8-4,4-4h77.9c2.2,0,4,1.7,4.1,3.9c0,0,0,0.1,0,0.1V79.1z"/>
	<path class="st0" d="M1316.6,41.1c-18.2-6.5-28.6-10.1-28.6-17.6c0-5.2,6.7-10.2,22.5-10.2c14.7,0,24.3,3.5,35,5.5V3.5
		c-11.2-2.3-22.6-3.4-34-3.1c-32,0-53,9.5-53,25.7c0,15.6,17.4,22.5,41.2,31.3c17.8,6.5,24,10.2,24,16.3c0,7-6.7,12.5-22.9,12.5
		c-14.7,0-33.6-2.9-42.5-6.4v16.6c13.3,2.2,26.7,3.2,40.2,3.1c39.8,0,57.5-11.4,57.5-27.1C1356,57.2,1341.9,50.2,1316.6,41.1z"/>
	<path class="st0" d="M1224.5,7.6c-9.4-4.2-27.1-7-42.6-7h-59.3v98.7h59.3c15.5,0,33.2-2.7,42.6-7c22.9-10.3,30.3-26.8,30.3-42.4
		C1254.8,34.3,1247.3,17.9,1224.5,7.6z M1173.6,85.8h-18.9V13.9h18.9c29.1,0,47.4,12.7,47.4,35.9C1221,73,1202.7,85.8,1173.6,85.8z"
		/>
</g>
</svg>
