<svg id="Layer_1" data-name="Layer 1" xmlns="http://www.w3.org/2000/svg" width="264.59" height="100" viewBox="0 0 264.59 100"><path d="M240.17,41.26h19.21V17.16L236.52,0H186.13V49.68h0V99.43h22.24V60.17l33,.36L241.58,80l.17,19.44h22.84V59.24Zm-4.34-11.18v9.14H208.38V20.9h27.45Z" fill="#fff"/><path d="M78,78.75c-1.45,1.6-1.45,2.3-1.45,11a57.32,57.32,0,0,0,.46,9.8,20.78,20.78,0,0,0,5.73.26L88,99.67l.14-9.28.18-9.33H99.43V75.84H92.07C83.14,75.84,79.94,76.53,78,78.75Z" fill="#fff"/><path d="M56.25,94.14h-7.2V75.84H37.94V86.52c0,9.36.15,10.82,1.15,11.63,1.88,1.63,2.58,1.72,16,1.76H68l0-12V75.84H56.25Z" fill="#fff"/><path d="M30.74,94.85,20,94.47l-.19-6.67-.18-6.71H30.74V75.86H19.63V67.28l-11.44.38L8,71.8,7.8,75.89H0v5.23H7.85v7a66.46,66.46,0,0,0,.43,8.58C9,99.26,11.85,100,21.74,100h9V94.85Z" fill="#fff"/><path d="M123.41,75.29l-7-.25V67.29l-11.45.38-.3,31.76h13.25c11.57-.08,13.44-.23,14.66-1.22h0c2.35-1.9,2.91-3.91,2.91-10C135.46,77.18,134,75.68,123.41,75.29Zm.22,18.86h-7.2V81.06h7.2Z" fill="#fff"/><path d="M169.34,77.39c-1.93-1.63-2.24-1.68-11.63-1.68-10.74,0-11.93.38-13.57,4.37C143,82.72,142.9,93.53,144,95.59c1.75,3.41,2.81,3.68,13.74,3.7,9.34.14,10.39,0,11.94-1.31,2.07-1.62,3-4.87,3-10.18S171.7,79.36,169.34,77.39ZM161.56,94.1h-7.18V81h7.18Z" fill="#fff"/><path d="M154.64,58.86h8.73a68.62,68.62,0,0,0,8.72-.28c0-.14-4.57-6.79-10.18-14.78s-10.18-14.93-10.18-15.44,4.13-6.79,9.16-14S170.06,1.06,170.06.68,167,0,161.59,0h-8.46L149.67,4.9c-1.91,2.68-4.28,6.07-5.27,7.52A8.62,8.62,0,0,1,142.1,15a40.1,40.1,0,0,1-4.65-5.82C130.57-.39,134.39.6,104.9.83,80,1,79.42,1.06,76.73,2.49c-5.38,2.91-8.26,8.43-8.23,15.86,0,6.1.93,9.5,3.43,13,3.2,4.36,4.76,4.9,17,5.33,11.24.4,13.73,1,13.73,3.28,0,2.91-2,3.28-17.36,3.28H70.88L58.51,1,44.75.54,41.55,11a82.18,82.18,0,0,1-3.61,10.49,27.57,27.57,0,0,1-2.21-6.05L32.61,5,31.27.54,17.36.92,15.2,8.76C12,20.39,2.63,57.13,2.63,58c0,.58,1.94.74,7.27.61l7.28-.19,3.28-10.73c1.78-5.94,3.43-11,3.7-11.29s1.28,2.23,2.27,5.56S29,50.48,29.86,53.46l1.64,5.43,12.55-.38,1.82-5.62c1-3,2.66-8.34,3.71-11.75l1.89-6.21L55.38,46.7l3.93,11.75,21.16.26c24.62.21,26,0,31.27-4.77,4.23-3.81,5.68-7.43,5.64-14,0-7.57-3.35-13.56-9-16.5C106.08,22.24,104,22,95.51,21.55a92.74,92.74,0,0,1-11.29-.94c-1.6-.66-1.53-4,.12-4.87.78-.43,8.26-.69,19.78-.69h18.52l5.24,6.63A47.59,47.59,0,0,1,133,28.87c-.11.3-4.47,6.76-9.72,14.37S113.55,57.48,113.37,58c-.28.73,1.19.89,8.07.89h8.4l6.21-8.18a100.88,100.88,0,0,1,6.58-8.17,98.43,98.43,0,0,1,6.19,8.17Z" fill="#fff"/></svg>