<svg id="Layer_1" data-name="Layer 1" xmlns="http://www.w3.org/2000/svg" width="547.01" height="100" viewBox="0 0 547.01 100"><path d="M249.24,42.53v7.84h4.37V89.49h-9.84V8.69h9.57V23.22h8.59V8.87c.26-4.75-4.25-9.25-9.05-8.75-3.32,0-6.66-.13-10,0a8.81,8.81,0,0,0-7.26,8.75q0,38.91,0,77.85c0,1.76-.2,3.6.48,5.27a8.86,8.86,0,0,0,8.16,5.37h17.65c.05-18.27,0-36.56,0-54.83Z" fill="#fff"/><path d="M309.9,51V25.33a8.71,8.71,0,0,0-.47-3.89,9.25,9.25,0,0,0-8.47-5H284.15q0,40.5,0,81h8V59.29H295q4.38,19,8.75,38h7.84q-4-19.22-8.16-38.41C307.14,58.25,309.71,54.57,309.9,51Zm-8.25-.29h-9.37V24.34h9.37Z" fill="#fff"/><path d="M354.76,18.31a8,8,0,0,0-5.36-1.7H338.46A7.54,7.54,0,0,0,331.65,24q0,36.66,0,73.4h8V58.93h9.85v38.5h7.89V24.05A7.38,7.38,0,0,0,354.76,18.31Zm-5.52,32.52h-9.37V24.88h9.37Z" fill="#fff"/><path d="M377.53,23.51l0,73.81h8.12V58.86h10v-8h-10V23.72h12.11V16.51H384.26A7.17,7.17,0,0,0,377.53,23.51Z" fill="#fff"/><path d="M444.07,32.68V16.54h-8.48c0,7.53.13,15.06,0,22.59-1.34,2.4-3.06,4.57-4.53,6.88-1.5-2.34-3.19-4.6-4.62-7-.18-7.46-.08-15-.08-22.46h-8.45c.08,7.23-.12,14.45.12,21.66,1.61,5.87,5.32,10.93,8.61,16a101.73,101.73,0,0,0-6.75,11.43c-.91,2.08-2,4.14-2,6.45v25.4h8.32V70.15c1.64-2.47,3.36-5,5-7.47,1.59,2.61,3.59,5,4.92,7.73V97.48H444c0-9,.16-18,0-27-1.47-5.92-4.92-11.11-8.12-16.23a82.93,82.93,0,0,0,7.52-14.1C444.32,37.76,444.07,35.18,444.07,32.68Z" fill="#fff"/><rect x="513.78" y="44.57" width="13.2" height="25.28" fill="#fff"/><path d="M517.89,16.41a42.94,42.94,0,1,0,26.82,54.48A42.93,42.93,0,0,0,517.89,16.41ZM498.62,48.64h-5.05V44.57H481.36V69.84h12.15v-4h5.06v7c-1.1,1.1-2,1.93-3,3H478.4l-2.91-2.87V41.59l2.91-3h17.18c1.09,1,2,1.92,3,3Zm34.22,24.2-2.93,2.88H504.6V69.85h3V44.57l-2.95-.06V38.63H529.9l2.94,2.89Z" fill="#fff"/><path d="M68.73,16.44H60.28V89.25H50.9c0-24.27.06-48.54,0-72.81H42.57q0,36.27,0,72.47a8.5,8.5,0,0,0,8,8.51H60.61a8.25,8.25,0,0,0,7.85-6.2,22.07,22.07,0,0,0,.27-5Z" fill="#fff"/><path d="M115.81,50.52V24c-.06-4.37-4.43-7.52-8.52-7.52-5.78-.06-11.57,0-17.34,0l0,81h8V59.52h2.89q4.38,18.93,8.75,37.89h7.84c-2.73-12.78-5.41-25.57-8.15-38.36C113.21,58.34,115.81,54.35,115.81,50.52Zm-8.25.35H98.29V24.44l9.27,0Z" fill="#fff"/><path d="M164.4,70.66c0-3.47.12-7-.13-10.47-.12-2.2-1.67-3.94-3.28-5.29,1.65-1.48,3.34-3.36,3.34-5.73V23.52a7.68,7.68,0,0,0-7.6-7.06c-6.06-.07-12.11,0-18.17,0,.07,27,0,54,0,81h18.15a7.66,7.66,0,0,0,6.78-4c1.12-2.07.7-4.5.77-6.77C164.5,81.33,164.4,76,164.4,70.66ZM146.93,24.47h9.27V50.9h-9.27Zm9.29,65h-9.29V59.36h9.29Z" fill="#fff"/><path d="M212,24.46c.07-3-2.16-5.49-4.71-6.92s-5.57-1.1-8.35-1.1c-2.53.07-5.13-.26-7.59.45a9,9,0,0,0-5.15,4.83,12.07,12.07,0,0,0-.54,5V89c-.09,3.58,2.54,6.74,5.76,8a12.92,12.92,0,0,0,4.79.48h8.24a9.1,9.1,0,0,0,6.92-5.32c.83-1.67.63-3.6.63-5.39ZM203.37,89h-8.94V24.55l8.94,0Z" fill="#fff"/><polygon points="0 8.13 7.87 8.13 7.87 97.39 17.32 97.39 17.32 8.13 25.18 8.13 25.18 0 0 0 0 8.13" fill="#fff"/></svg>