<svg id="svg1354" xmlns="http://www.w3.org/2000/svg" width="209.23" height="100" viewBox="0 0 209.23 100"><path d="M162.17,1.35a14.05,14.05,0,0,0-9.25-1,11.51,11.51,0,0,0-8.5,12.81,12,12,0,0,0,9.21,9.52,14.2,14.2,0,0,0,9.67-1.88A11.44,11.44,0,0,0,167,6,14.5,14.5,0,0,0,162.17,1.35Z" fill="#fff"/><path d="M125,5.51H114.15l-8.73,34.21C100,61,96.62,73.77,96.51,73.51s-2.39-8.92-5.1-19.31c-8-30.86-10.2-38.8-11.21-41.26a12.51,12.51,0,0,0-8.44-7.79,21.75,21.75,0,0,0-7.84,0,12.56,12.56,0,0,0-8.05,6.91c-1.24,2.6-2.9,8.66-12.72,46.22L39,74.11,30.33,40c-4.78-18.77-8.77-34.2-8.86-34.3s-5-.16-10.82-.12L0,5.63l2.36,8.49C18.1,70.76,22.59,86.57,23.83,89.72c1.86,4.7,6.1,8.73,10.44,9.92a22.2,22.2,0,0,0,7.84,0c5-1.29,8.79-5.49,10.87-12.06,1-3,4.07-14.15,10-35.67,2.68-9.79,4.93-17.64,5-17.44s1.92,6.92,4.1,14.95C81.34,83.53,82.8,88.56,84.31,91.64A13,13,0,0,0,87.47,96a11.81,11.81,0,0,0,6.14,3.7,20.55,20.55,0,0,0,7.62,0c4.39-1.14,8.08-4.46,10.27-9.24,1.29-2.81,5.88-18.75,19.06-66.23,2.76-9.93,5.07-18.19,5.12-18.36S133.52,5.51,125,5.51Z" fill="#fff"/><polygon points="146.33 66.64 146.33 99.29 166.66 99.29 166.66 33.98 146.33 33.98 146.33 66.64" fill="#fff"/><polygon points="187.24 66.64 187.24 99.29 207.57 99.29 207.57 33.98 187.24 33.98 187.24 66.64" fill="#fff"/><path d="M194.53,22.71h0a14.21,14.21,0,0,0,9.68-1.88,11.4,11.4,0,0,0,3.6-15,14,14,0,0,0-4.73-4.52,14.08,14.08,0,0,0-9.26-1,11.7,11.7,0,0,0-8.51,9.34A11.71,11.71,0,0,0,194.53,22.71Z" fill="#fff"/></svg>