<svg id="Layer_1" data-name="Layer 1" xmlns="http://www.w3.org/2000/svg" width="381.94" height="100" viewBox="0 0 381.94 100"><rect x="22.05" y="7.35" width="9.19" height="14.7" fill="#fff"/><rect y="7.35" width="9.19" height="14.7" fill="#fff"/><rect x="45.94" y="7.35" width="9.19" height="14.7" fill="#fff"/><path d="M51.45,0H0V5.51H55.13Q55.13,0,51.45,0Z" fill="#fff"/><rect x="60.64" width="34.91" height="5.51" fill="#fff"/><path d="M64.31,22.05H95.55V16.54H71.66a1.77,1.77,0,0,1-.46,0,1.62,1.62,0,0,1-1.37-1.84H93.71V9.19h-22a1.77,1.77,0,0,1-.46,0,1.62,1.62,0,0,1-1.37-1.84H60.64v9.19Q60.64,22,64.31,22.05Z" fill="#fff"/><path d="M139.65,0H104.74q-3.67,0-3.68,5.51h38.59Z" fill="#fff"/><path d="M104.74,22.05h33.07q3.67,0,3.68-5.51V14.7q0-5.5-5.51-5.51H119.44V14.7h9.19c1.22,0,1.83.31,1.83.92s-.61.92-1.83.92H110.25V7.35h-9.19v9.19Q101.06,22,104.74,22.05Z" fill="#fff"/><path d="M181.91,0H150.68Q147,0,147,5.51h38.59Q185.59,0,181.91,0Z" fill="#fff"/><polygon points="176.4 12.86 158.03 12.86 158.03 18.38 176.4 18.38 176.4 22.05 185.59 22.05 185.59 7.35 176.4 7.35 176.4 12.86" fill="#fff"/><rect x="147" y="7.35" width="9.19" height="14.7" fill="#fff"/><rect x="191.1" y="7.35" width="9.19" height="14.7" fill="#fff"/><path d="M226,0H191.1V5.51h38.59C229.69,1.84,228.47,0,226,0Z" fill="#fff"/><path d="M229.69,16.54V7.35H220.5v9.19H202.13v5.51H226Q229.69,22.05,229.69,16.54Z" fill="#fff"/><rect x="235.2" y="7.35" width="9.19" height="14.7" fill="#fff"/><path d="M270.11,0H238.88q-3.67,0-3.68,5.51h38.59C273.79,1.84,272.57,0,270.11,0Z" fill="#fff"/><path d="M273.79,12.86V7.35H264.6V11a1.77,1.77,0,0,1,0,.46,1.62,1.62,0,0,1-1.84,1.37H246.23v5.52h14.7l5.51,3.67h9.19l-5.52-3.67Q273.78,18.38,273.79,12.86Z" fill="#fff"/><rect x="281.14" width="9.19" height="22.05" fill="#fff"/><polygon points="341.51 0 330.49 0 326.81 5.51 337.84 5.51 341.51 0" fill="#fff"/><polygon points="312.38 5.51 308.7 0 297.68 0 301.35 5.51 312.38 5.51" fill="#fff"/><polygon points="312.38 22.05 327.08 22.05 336.26 7.35 325.24 7.35 319.73 16.17 314.21 7.35 303.19 7.35 312.38 22.05" fill="#fff"/><rect x="347.03" width="34.91" height="5.51" fill="#fff"/><path d="M357.59,16.54a1.63,1.63,0,0,1-1.38-1.84H380.1V9.19H358.05a1.77,1.77,0,0,1-.46,0,1.63,1.63,0,0,1-1.38-1.84H347v9.19q0,5.51,3.67,5.51h31.24V16.54H358.05A1.77,1.77,0,0,1,357.59,16.54Z" fill="#fff"/><path d="M74.23,58.2h-51V76.11H75.39q5.81,0,5.8,3t-5.8,3H0V100H94q16.24,0,16.24-17.92V52.22h-29Q81.19,58.21,74.23,58.2Z" fill="#fff"/><path d="M94,28.34H0V46.25H110.19Q110.19,28.34,94,28.34Z" fill="#fff"/><path d="M150.79,76.11h63.79q17.4,0,17.4-17.91v-6H203q0,6-5.8,6h-58q-17.4,0-17.4,17.91V100H232V82.08H145Q145,76.11,150.79,76.11Z" fill="#fff"/><path d="M121.79,46.25H232q0-17.91-17.4-17.91H121.79Z" fill="#fff"/><polygon points="347.47 52.23 278.05 52.23 295.36 64.25 243.91 100 278.71 100 312.76 76.37 346.81 100 381.61 100 330.16 64.25 347.47 52.23" fill="#fff"/><polygon points="304.14 46.25 278.38 28.34 243.58 28.34 269.43 46.25 304.14 46.25" fill="#fff"/><polygon points="321.38 46.25 356.09 46.25 381.94 28.34 347.14 28.34 321.38 46.25" fill="#fff"/></svg>