<svg id="Layer_1" data-name="Layer 1" xmlns="http://www.w3.org/2000/svg" width="847.05" height="100" viewBox="0 0 847.05 100"><path d="M420.46,57.73c-10.23-19.65-20-38.34-29.54-56.68h-43V97.9h27.4V38.58l1.6-.59,30.69,60h25.86c10.09-20.18,19.84-40.19,29.71-60.15l1.49.47v59.5h27.06V1H449Z" fill="#fff"/><path d="M821,1.13V65l-1.51.49c-15.39-21.57-30.93-43.28-45.84-64.23H728.17V97.8h27.56V34.12l1.21-.28L801.65,98h45.4V1.13Z" fill="#fff"/><polygon points="192.37 31.13 140.03 31.13 140.03 0.1 106.94 0.1 106.94 98.97 140.44 98.97 140.44 64.51 192.51 64.51 192.51 98.99 224.8 98.99 224.8 0.02 192.51 0.02 192.37 31.13" fill="#fff"/><path d="M700.16,2.5a288.65,288.65,0,0,0-69.51,0c-12.11,1.5-19.57,8.68-21.89,21a140.21,140.21,0,0,0-.22,52.22c2.88,15.35,9.54,21,25.48,22.6,10.21,1,20.54,1.1,31.66,1.67,10.57-.59,22-.77,33.29-2,13.74-1.39,20.54-7.46,23.55-20.82,3.89-17.33,3.35-34.85.56-52.26C721,12,713.28,4.1,700.16,2.5Zm-4.42,59.32c-.22,7.25-3,11-10.09,11.24-13.92.55-27.94.18-41.84,0a8.38,8.38,0,0,1-8.76-8,6.77,6.77,0,0,1,0-.78,269,269,0,0,1,0-28.11c.46-7.06,4-9.77,11.28-10.09,6.31-.34,12.67,0,19,0,6.06,0,12.27-.24,18.37,0,8.39.42,11.76,3.87,12.1,12.37C696,46.09,696,54,695.74,61.82Z" fill="#fff"/><path d="M322.84,3a262.55,262.55,0,0,0-71.93-.29C239.08,4.28,232.28,11.56,230,23.12a139.56,139.56,0,0,0-.52,51.54c2.86,16.32,9.3,22,25.87,23.69,10.21,1,20.5,1.08,31.82,1.65,10.33-.59,21.71-.81,33-2,11.86-1.19,19.89-7.54,22.19-19.71a142,142,0,0,0,0-56.58C340.17,11.2,333.64,4.56,322.84,3Zm-6,60.37c-.2,5.34-3.21,9.44-8.92,9.56q-21.25.47-42.56,0c-5.6,0-8.95-3.73-9.14-9.3-.28-9.16-.5-18.38.13-27.52.42-6.4,3.43-8.76,9.92-9,7-.3,14,0,21,0,6.56,0,13.13-.22,19.65,0,6.2.26,9.46,3.05,9.79,9.3C317.17,45.4,317.11,54.42,316.79,63.4Z" fill="#fff"/><path d="M584.12,38.84c-9.81-.91-19.65-1-29.54-1.37-7-.2-14.12,0-21-.14-4.61-.14-8.08-2-8.5-7.25s3.11-7,7.37-7.24c9.4-.52,18.8-.75,28.24-.93,6.68-.12,12.8.87,13.7,9.14l26,1.4a120.94,120.94,0,0,0-1-13.71C597.6,8.27,593.14,3.39,582.71,2.26a247.44,247.44,0,0,0-67.46,1C507.18,4.66,500.46,8.94,499,17.41a88.45,88.45,0,0,0-1,23.43c1,10.49,5.73,14.73,16.26,16.85A76.12,76.12,0,0,0,526.61,59c13.36.42,26.74.5,40.1,1,7.36.28,10.89,3.21,10.71,8.07S574,74.74,566.67,75.3H539c-7.24,0-14.26-.54-16-9.36H497.48c0,3.39-.26,6.19,0,9,1.59,15.46,6,20.5,21.55,22.2a271.41,271.41,0,0,0,30.85,1c11.58,0,23.22-.32,34.74-1.45s16.47-6.42,18.16-17.45a99.48,99.48,0,0,0,1-20.18C602.89,45.9,597.26,40.07,584.12,38.84Z" fill="#fff"/><polygon points="0 28.95 36.32 28.95 36.32 98.99 69.03 98.99 69.03 28.37 103.51 28.37 103.51 0 0 0 0 28.95" fill="#fff"/></svg>