<svg id="Layer_1" data-name="Layer 1" xmlns="http://www.w3.org/2000/svg" width="576.14" height="100" viewBox="0 0 576.14 100"><path d="M40.15,44.75q-11.91-4-15-6.53a7.46,7.46,0,0,1-3.06-6,8.38,8.38,0,0,1,4.05-7.62A20.32,20.32,0,0,1,37.2,22a49.75,49.75,0,0,1,10.67,1.1,47.67,47.67,0,0,1,9.45,3.15l1.57-17a62,62,0,0,0-10-2.41,69.82,69.82,0,0,0-12.33-1q-17,0-26.79,7.18T0,33.4Q0,44.64,6.3,50.51T25.57,60.56q9.78,3.28,13,6.31a9.06,9.06,0,0,1,3.27,6.72,8.43,8.43,0,0,1-4.3,7.46A21.13,21.13,0,0,1,26.3,83.79,45.08,45.08,0,0,1,12.19,81.5a39.52,39.52,0,0,1-9.26-3.86L1.23,95.93q4.42,1.3,11.5,2.68A77,77,0,0,0,27.49,100q16.71,0,26.57-7.33t9.86-20.48c0-7.25-1.76-12.89-5.29-17S48.92,47.63,40.15,44.75Z" fill="#fff"/><path d="M570.87,55.21c-3.52-4.12-9.69-7.58-18.48-10.46q-11.88-4-15-6.53a7.5,7.5,0,0,1-3.06-6,8.38,8.38,0,0,1,4-7.62,20.41,20.41,0,0,1,11-2.55,49.5,49.5,0,0,1,10.65,1.1,47.67,47.67,0,0,1,9.45,3.15l1.58-17a62.75,62.75,0,0,0-10-2.41,69.93,69.93,0,0,0-12.34-1q-17,0-26.78,7.18T512.26,33.4q0,11.24,6.3,17.11t19.28,10.05q9.79,3.28,13,6.31a9.17,9.17,0,0,1,3.28,6.72A8.45,8.45,0,0,1,549.79,81a21.12,21.12,0,0,1-11.17,2.76,45.51,45.51,0,0,1-14.18-2.29,39.92,39.92,0,0,1-9.28-3.86l-1.69,18.29q4.42,1.32,11.49,2.68A77.06,77.06,0,0,0,539.73,100q16.69,0,26.57-7.33t9.84-20.48C576.14,64.94,574.41,59.3,570.87,55.21Z" fill="#fff"/><path d="M419.08,71.88q-2.06-5.66-4.63-11A12.73,12.73,0,0,0,406,53.52q9.47-2,14-8.08a22.87,22.87,0,0,0,4.45-13.6q0-12.39-8.48-18.35T391.41,7.55H356.53V98.44h21.38v-37h6.52a10.21,10.21,0,0,1,8.23,3.34,24.7,24.7,0,0,1,4.57,8.43l9.13,25.21h23l-9.73-25.4ZM402.6,34.43A9.58,9.58,0,0,1,398.39,43a20.2,20.2,0,0,1-11.48,2.82h-9V23.07h8.37q8.07,0,12.19,2.66A9.64,9.64,0,0,1,402.6,34.43Z" fill="#fff"/><path d="M295.38,7.41l-29,75H230.12v-75H208.7v91H282l7.43-20h36.24l7.31,20H356.5l-35.91-91Zm-.25,55.23,12.79-37,12.29,37Z" fill="#fff"/><path d="M485.77,59.92q0,11.63-4.22,17.69c-2.84,4-7.25,6.08-13.28,6.08s-10.26-2-13.16-5.91-4.3-9.62-4.3-17.09V7.41H429.38V64.75q0,17.39,10.06,26.32t29,8.93q19.33,0,29.07-9.26t9.72-27.95V7.41H485.77Z" fill="#fff"/><path d="M135.17,0A65,65,0,0,0,70.22,64.94a64,64,0,0,0,9.46,33.5h3.73c12.6-12.6,41.44-41.31,49.25-49.16,4.52,4.52,10.7-1.57,12.5-3.53-1-1-2-2-3.16-3.15-4.28-4.27-8,2.27-8,2.27l-9.37-9.45s14.63-6.68,22.59,1.27l6,6,10.9-10.92a8.07,8.07,0,1,1,13.29,2.88h0A8.08,8.08,0,0,1,169,36.51L158.06,47.42,164,53.36c8,8,1.28,22.61,1.28,22.61l-9.38-9.45s6.53-3.69,2.26-7.88L155,55.49c-2,1.8-8.05,8-3.53,12.48-4.92,4.91-18.11,18-30.36,30.25h69.32a64.08,64.08,0,0,0,9.45-33.5A64.84,64.84,0,0,0,135.17,0Z" fill="#fff"/></svg>