<svg id="Layer_1" data-name="Layer 1" xmlns="http://www.w3.org/2000/svg" width="825.99" height="100" viewBox="0 0 825.99 100"><polygon points="377.06 0 316.06 0 316.06 22.17 349.39 22.17 349.39 77.68 316.06 77.68 316.06 99.85 410.4 99.85 410.4 77.68 377.06 77.68 377.06 0" fill="#fff"/><rect x="266.06" y="38.99" width="38.84" height="22.17" fill="#fff"/><path d="M0,22.32V39C0,53.67,7.49,61.16,22.17,61.16H99.85V77.83H0V100H99.85C114.68,100,122,92.66,122,77.83V61.16C122,46.33,114.68,39,99.85,39H22.17V22.32H122V.15H22.17C7.34.15,0,7.49,0,22.32Z" fill="#fff"/><path d="M133,22.17V77.68c0,14.83,7.49,22.17,22.17,22.17h99.85v-61H188.53V61h44.34V77.68H155.2V22.17h99.85V0H155.2C140.37,0,133,7.34,133,22.17Z" fill="#fff"/><path d="M826,22.17C826,7.34,818.65,0,803.82,0H720.64c-14.83,0-22.17,7.34-22.17,22.17V77.68c0,14.83,7.34,22.17,22.17,22.17h83.18c14.84,0,22.17-7.34,22.17-22.17ZM803.82,77.68H720.64V22.17h83.18Z" fill="#fff"/><path d="M665.14,0H582c-14.83,0-22.17,7.34-22.17,22.17V77.68c0,14.83,7.34,22.17,22.17,22.17h83.18c14.83,0,22.17-7.34,22.17-22.17V22.17C687.31,7.34,680,0,665.14,0Zm0,77.68H582V22.17h83.18Z" fill="#fff"/><path d="M526.61,0H443.43c-14.84,0-22.18,7.34-22.18,22.17V77.68c0,14.83,7.34,22.17,22.18,22.17h83.18c14.83,0,22.17-7.34,22.17-22.17V22.17C548.78,7.34,541.44,0,526.61,0Zm0,77.68H443.43V22.17h83.18Z" fill="#fff"/></svg>