<svg id="Layer_1" data-name="Layer 1" xmlns="http://www.w3.org/2000/svg" width="579.9" height="100" viewBox="0 0 579.9 100"><polygon points="579.9 53.58 579.9 0 399.23 0 399.23 7.15 572.74 7.15 572.74 46.42 399.23 46.42 399.23 100 579.9 100 579.9 92.85 406.38 92.85 406.38 53.58 579.9 53.58" fill="#fff"/><polygon points="272.82 92.85 180.67 92.85 180.67 100 280.3 100 280.3 7.15 372.49 7.15 372.49 0 272.82 0 272.82 92.85" fill="#fff"/><polygon points="180.67 0 0 0 0 7.03 173.51 7.15 173.51 46.42 0 46.42 0 100 7.15 100 7.15 53.58 180.67 53.58 180.67 0" fill="#fff"/></svg>