<svg id="Capa_1" data-name="Capa 1" xmlns="http://www.w3.org/2000/svg" width="439.95" height="100" viewBox="0 0 439.95 100"><path d="M66.93,7.74a23.16,23.16,0,0,0-8.56-4.89A53,53,0,0,0,44,1.44q-4.74,0-12.81.21t-12.59.21Q13,1.86,3.89,1.72,4,7.24,4,10c0,2.5,0,5-.08,7.43L3,44.39,1.27,81.53,0,98.3q8.64-.14,10.62-.14l10.27.14q-.08-4.81-.07-7.36,0-6.72.42-21.08l.84-27q.42-12.66,1.27-26.53,3.11,0,7.13-.14t8-.15a35.33,35.33,0,0,1,7,.54,11.4,11.4,0,0,1,4.44,2,9.43,9.43,0,0,1,3.08,4A13.6,13.6,0,0,1,54,28a16.34,16.34,0,0,1-2.54,9,14.44,14.44,0,0,1-6.84,5.77,26.54,26.54,0,0,1-10.17,1.77,42.3,42.3,0,0,1-8.68-.92q2,6.44,3.54,13.8a58.94,58.94,0,0,0,10.26,1,42.76,42.76,0,0,0,17.9-3.68A28.12,28.12,0,0,0,70.08,43.57,31.19,31.19,0,0,0,74.65,27a29.91,29.91,0,0,0-2.13-11.25A21.6,21.6,0,0,0,66.93,7.74Z" fill="#fff"/><path d="M177.52,12.37a45.86,45.86,0,0,0-17.19-9.44A70.42,70.42,0,0,0,140.09,0a72.57,72.57,0,0,0-22.75,3.47A54.19,54.19,0,0,0,98.88,13.68a42.47,42.47,0,0,0-12,17,58,58,0,0,0-4.07,21.51,54.6,54.6,0,0,0,3.26,19.07A39,39,0,0,0,96.9,86.84a47,47,0,0,0,18,10,76.4,76.4,0,0,0,44.57-.29,47.1,47.1,0,0,0,18.43-10.65,43.66,43.66,0,0,0,11.18-17.12,60.41,60.41,0,0,0,3.61-20.84,50.11,50.11,0,0,0-3.82-20.3A43.1,43.1,0,0,0,177.52,12.37Zm-8.77,50.77a31.83,31.83,0,0,1-7,11.85,29.08,29.08,0,0,1-11,7.32,38.55,38.55,0,0,1-30.64-1.66,26,26,0,0,1-11.85-11.82,37.41,37.41,0,0,1-3.86-16.94,42.94,42.94,0,0,1,4-18.43A31,31,0,0,1,120.35,20,34.51,34.51,0,0,1,139,15.1a38,38,0,0,1,13,2.22,26.86,26.86,0,0,1,10.58,6.87A28.67,28.67,0,0,1,169,35.26a43.19,43.19,0,0,1,2.09,13.44A44.84,44.84,0,0,1,168.75,63.14Z" fill="#fff"/><path d="M275.16,6.6a27.45,27.45,0,0,0-11.49-4.24A104.47,104.47,0,0,0,249,1.44c-4.38,0-8.55.07-12.48.21s-8,.21-12.06.21q-5.73,0-14.22-.14,0,20.73-1.07,48.12T206,98.3c5.39-.09,8.95-.14,10.7-.14l11,.14L229,45.24l1.26-29.08c3.59,0,6.61,0,9.06-.07s4.39-.08,5.8-.08a60.88,60.88,0,0,1,7.64.5,15.89,15.89,0,0,1,6.58,2.26,10.25,10.25,0,0,1,3.93,4.32,13.29,13.29,0,0,1,1.17,5.52,16.26,16.26,0,0,1-2.7,9A15.83,15.83,0,0,1,254,43.75a30,30,0,0,1-11.12,2,49.12,49.12,0,0,1-8.64-.85q2.26,4.82,3.53,7.22l8.55,17.19q2.9,5.88,5,10.19l7.84,18.82q8.58-.14,12-.14,2.76,0,11.42.14-2.83-5.44-3.4-6.44L272,79.34q-6.51-11.53-8.85-16L258.32,54q5.24-1.41,8.35-2.41a28.62,28.62,0,0,0,5.55-2.37,24.91,24.91,0,0,0,4.92-3.75A23.9,23.9,0,0,0,281.42,40a27,27,0,0,0,2.73-6.72,30.33,30.33,0,0,0,.92-7.53,23.86,23.86,0,0,0-2.45-11A21.42,21.42,0,0,0,275.16,6.6Z" fill="#fff"/><path d="M335.24,1.87q-22.28,0-42.65-.15c0,3.54-.26,8.71-.63,15.5l16.32-.5,4.38-.07,4.59-.07h4.95l-1,30.28-1.55,30.78L318.11,98.3c6.52-.09,10.36-.14,11.54-.14l10.77.14c0-3.72,0-7.3.07-10.73l.14-8.34,2-49.72.84-12.93H349q11.75,0,24.55.64,0-5.43.71-15.5l-13.58.07Z" fill="#fff"/><path d="M439.42,69.26a21.69,21.69,0,0,0-1.59-4.5,26.48,26.48,0,0,0-2.93-4.59,55,55,0,0,0-4.49-5c-1.74-1.74-3.72-3.54-5.93-5.38l-8.73-7.92c-1.44-1-3.17-2.39-5.19-4.07a35.51,35.51,0,0,1-4.62-4.39,17.78,17.78,0,0,1-2.19-3,10.47,10.47,0,0,1-.93-2.4,10,10,0,0,1-.3-2.37,9,9,0,0,1,4.41-7.33,19,19,0,0,1,11.33-3.14,56.79,56.79,0,0,1,20.34,4.24q-1.07-9.48-1.41-16.84A120.36,120.36,0,0,0,414.4,0a46.26,46.26,0,0,0-18.64,3.29,24.61,24.61,0,0,0-11.11,9.13,23.15,23.15,0,0,0-2.72,19.28,23.19,23.19,0,0,0,3.25,6.41,50.33,50.33,0,0,0,6.51,7.25c1.26,1.22,3.53,3.28,6.83,6.15Q408.92,60.46,413,64.34a19.86,19.86,0,0,1,4.5,5.45,10,10,0,0,1,.91,4.31,9.24,9.24,0,0,1-1.88,5.63,11.89,11.89,0,0,1-5.8,3.89A25.35,25.35,0,0,1,402.23,85q-11.31,0-25.18-6.3.92,6.8,1.48,17.55,9.84,2.19,15.85,3a84.51,84.51,0,0,0,10.54.78,62.52,62.52,0,0,0,13-1.31A32.77,32.77,0,0,0,429.26,94a23.11,23.11,0,0,0,7.93-8.67A24,24,0,0,0,440,74.1,21.88,21.88,0,0,0,439.42,69.26Z" fill="#fff"/></svg>