<svg id="Layer_1" data-name="Layer 1" xmlns="http://www.w3.org/2000/svg" width="455.24" height="100" viewBox="0 0 455.24 100"><path d="M70.45,16.85H61.78V91.47H52.17V16.85H43.63q0,37.14,0,74.27a8.7,8.7,0,0,0,8.2,8.72H62.12a8.42,8.42,0,0,0,8.05-6.34,22.69,22.69,0,0,0,.28-5.14Z" fill="#fff"/><path d="M118.7,51.77V24.55c0-4.47-4.54-7.7-8.73-7.7-5.92-.07-11.85,0-17.77,0l0,83h8.2V61h2.95l9,38.83h8Q116.21,80.19,112,60.52C116,59.79,118.7,55.71,118.7,51.77Zm-8.45.36h-9.5V25l9.5,0Z" fill="#fff"/><path d="M168.51,72.42c0-3.55.12-7.16-.14-10.73-.11-2.26-1.71-4-3.36-5.42,1.7-1.52,3.42-3.45,3.42-5.88V24.1a7.85,7.85,0,0,0-7.78-7.24c-6.21-.07-12.41,0-18.62,0,.07,27.66,0,55.36,0,83h18.6a7.84,7.84,0,0,0,6.94-4.09c1.15-2.14.73-4.63.8-6.94C168.61,83.35,168.51,77.88,168.51,72.42ZM150.6,25.08h9.5V52.16h-9.5Zm9.52,66.61H150.6V60.84h9.52Z" fill="#fff"/><path d="M217.24,25.07c.08-3.1-2.21-5.63-4.82-7.1s-5.71-1.12-8.55-1.12c-2.6.07-5.26-.27-7.78.46a9.11,9.11,0,0,0-5.28,4.94,12.22,12.22,0,0,0-.55,5.13V91.26c-.1,3.71,2.6,6.9,5.89,8.19a12.75,12.75,0,0,0,4.91.49c2.85,0,5.63.07,8.46,0a9.28,9.28,0,0,0,7.08-5.43c.85-1.73.64-3.69.64-5.54Zm-8.79,66.12h-9.16v-66l9.16,0Z" fill="#fff"/><polygon points="0 8.33 8.06 8.33 8.06 99.82 17.73 99.82 17.73 8.33 25.81 8.33 25.81 0 0 0 0 8.33" fill="#fff"/><path d="M255.47,43.59v8H260c0,13.36-.05,26.77,0,40.08H249.86V8.89h9.81V23.8h8.8V9.09c.27-4.87-4.33-9.49-9.27-9-3.39,0-6.82-.13-10.24,0a9.05,9.05,0,0,0-7.45,9q0,39.92,0,79.78c0,1.81-.2,3.7.5,5.42a9.08,9.08,0,0,0,8.36,5.51h18.08c.06-18.74,0-37.48,0-56.21Z" fill="#fff"/><path d="M317.66,52.22V26a9,9,0,0,0-.49-4,9.46,9.46,0,0,0-8.67-5.12H291.25q0,41.52.05,83h8.19V60.77h2.86l9,38.95h8.05Q315.23,80,311,60.36C314.83,59.71,317.46,55.93,317.66,52.22Zm-8.46-.3h-9.62v-27h9.62Z" fill="#fff"/><path d="M363.64,18.73A8.21,8.21,0,0,0,358.2,17H346.93a7.74,7.74,0,0,0-7,7.58q0,37.56,0,75.23h8.2V60.39h10.09V99.83h8.08V24.61A7.56,7.56,0,0,0,363.64,18.73ZM358,52.1h-9.61V25.46H358Z" fill="#fff"/><path d="M387,24.09l0,75.65h8.33V60.32h10.25V52.16H395.33c0-9.28-.06-18.6,0-27.82h12.4V16.92H393.88A7.36,7.36,0,0,0,387,24.09Z" fill="#fff"/><path d="M455.12,72.24c-1.49-6.07-5-11.39-8.31-16.63a85.44,85.44,0,0,0,7.71-14.47c.94-2.44.69-5.09.69-7.65V17h-8.7c0,7.71.12,15.44,0,23.15-1.37,2.47-3.13,4.69-4.65,7-1.54-2.4-3.25-4.71-4.72-7.17-.19-7.65-.08-15.35-.08-23h-8.68c.08,7.38-.13,14.81.19,22.2,1.65,6,5.46,11.2,8.83,16.4a104.47,104.47,0,0,0-6.92,11.72c-.93,2.13-2.05,4.24-2.05,6.61v26H437v-28c1.68-2.52,3.45-5.06,5.13-7.64,1.67,2.67,3.68,5.11,5,7.91V99.92h8.07C455.12,90.69,455.3,81.47,455.12,72.24Z" fill="#fff"/></svg>