<?xml version="1.0" encoding="utf-8"?>
<!-- Generator: Adobe Illustrator 25.4.1, SVG Export Plug-In . SVG Version: 6.00 Build 0)  -->
<svg version="1.1" id="Calque_1" xmlns="http://www.w3.org/2000/svg" xmlns:xlink="http://www.w3.org/1999/xlink" x="0px" y="0px"
	 viewBox="0 0 314.7 100" style="enable-background:new 0 0 314.7 100;" xml:space="preserve">
<style type="text/css">
	.st0{fill:#FFFFFF;}
</style>
<g>
	<path class="st0" d="M40.3,0c-6.2,0-10.5,3.5-12.8,10.6L0,100h19.5l6.8-21.8h28L61,100h19.6L53.1,10.6C50.8,3.5,46.6,0,40.3,0z
		 M31.6,61.1l8.7-28.2l8.7,28.2H31.6z"/>
	<polygon class="st0" points="123.9,0 62.1,0 62.1,17.1 83.6,17.1 83.6,100 102.4,100 102.4,17.1 123.9,17.1 	"/>
	<path class="st0" d="M145.8,0c-6.3,0-10.5,3.5-12.8,10.6L105.5,100h19.5l6.9-21.8h28l6.7,21.8h19.6l-27.6-89.4
		C156.3,3.5,152,0,145.8,0z M137,61.1l8.7-28.2l8.7,28.2H137z"/>
	<path class="st0" d="M243.5,45.5c4.9-5.6,7.4-11.9,7.4-18.7c0-7.3-3.1-13.6-9.4-18.9c-5.9-5.2-13.6-8-21.5-8h-21.5
		c-3.2,0-6.2,1.1-8.5,3.3c-2.3,1.9-3.6,4.7-3.7,7.7v89h18.8V57.4c0.2,2.6,1.8,6.1,4.9,10.5l22.6,32.1h22l-29.6-42.5
		C232.2,55.3,238.6,51.1,243.5,45.5z M218.5,41.7c-2.1,1.1-4.2,2.2-6.4,3.3c-4.5,3-6.8,6.8-7,11.5V17.1h14.8c3.1,0,6.1,1.2,8.4,3.4
		c2.3,1.9,3.6,4.6,3.7,7.6c0,4.1-2.3,7.6-7,10.4C222.8,39.5,220.7,40.6,218.5,41.7z"/>
	<rect x="260.9" class="st0" width="18.8" height="100"/>
	<path class="st0" d="M289.9,79.9c-0.9,0.1-1.7,0.6-2.1,1.4c-0.6,0.9-1,2-0.9,3.1V100h4.8V87.1l23.1,12.1v-6.7l-23.3-12.2
		C290.9,80.1,290.4,79.9,289.9,79.9z"/>
	<path class="st0" d="M294.6,77.3c2.5,0,4.8-1.2,6.1-3.3c1.5,2.2,3.4,3.3,5.5,3.3h0.7c2.1,0,3.9-1.1,5.5-3.3
		c3.1-4.6,3.1-10.6,0-15.3l0,0c-1.5-2.2-3.4-3.3-5.5-3.3c-2.5,0-4.8,1.2-6.2,3.3c-1.5-2.2-3.3-3.2-5.5-3.3h-0.7
		c-2.1,0-3.9,1.1-5.5,3.3c-3.1,4.6-3.1,10.7,0,15.3C290.7,76.2,292.5,77.3,294.6,77.3z M303.5,62.7c0.6-1,1.6-1.6,2.7-1.6
		c1.2,0,2.3,0.5,3.2,1.4c1.1,1.1,1.6,2.5,1.5,4c0,1.5-0.5,2.9-1.5,4c-0.8,0.9-2,1.4-3.2,1.4c-1.1-0.1-2.1-0.7-2.7-1.6
		C301.9,67.9,301.9,64.9,303.5,62.7z M292.4,62.7c0.8-0.8,1.9-1.3,3-1.3c1,0.1,2,0.6,2.5,1.5c1.5,2.1,1.5,4.9,0,7l-0.1,0
		c-0.5,0.9-1.5,1.5-2.5,1.5c-1.1,0-2.2-0.5-3-1.3c-0.9-1-1.4-2.4-1.3-3.7C290.9,65,291.5,63.7,292.4,62.7z"/>
	<path class="st0" d="M288,39.9c0,7,5.6,12.7,12.6,12.7c7,0,12.7-5.6,12.7-12.6c0,0,0,0,0,0c0-7-5.6-12.7-12.6-12.7c0,0,0,0,0,0v0
		C293.7,27.3,288,32.9,288,39.9z M308.6,40C308.6,40,308.6,40,308.6,40c0,4.4-3.5,7.9-7.9,7.9c-4.4,0-7.9-3.5-7.9-7.9
		s3.5-7.9,7.9-7.9S308.6,35.6,308.6,40z"/>
	<path class="st0" d="M300.6,25.4c7,0,12.7-5.6,12.7-12.6c0,0,0,0,0,0v-0.1c0-7-5.6-12.7-12.6-12.7c0,0,0,0,0,0
		c-7,0-12.7,5.6-12.7,12.6C288,19.6,293.6,25.3,300.6,25.4z M300.7,4.8c4.4,0,7.9,3.5,8,7.9c0,0,0,0,0,0c0,4.4-3.5,7.9-7.8,7.9
		c0,0,0,0,0,0c-4.4,0-7.9-3.5-8-7.9C292.8,8.3,296.3,4.8,300.7,4.8z"/>
</g>
</svg>
