<svg id="Layer_1" data-name="Layer 1" xmlns="http://www.w3.org/2000/svg" width="215.46" height="100" viewBox="0 0 215.46 100"><g id="svg208"><g id="g10"><path id="path4" d="M524.25,52.56q0,14.6-22.86,14.59-4,0-12.36-.22.45-11.07.46-25,0-13.33-.46-22.76h5.69c1.08,0,2.89,0,5.43-.11s4.52-.11,6-.11Q521.7,19,521.7,29.5q0,8.14-8,10.78v.55a14.69,14.69,0,0,1,7.41,3.46Q524.26,47.11,524.25,52.56Zm-12-20.12q0-6.55-7.87-6.56a33.74,33.74,0,0,0-6.42.55q.38,3.7.38,12.72c.89.05,1.83.07,2.81.07Q512.25,39.22,512.25,32.44ZM514.77,53q0-7.3-12.25-7.3a41.62,41.62,0,0,0-4.18.18q0,7.66.31,14.11a15.46,15.46,0,0,0,3.59.3q6.5,0,9.51-1.63A5.94,5.94,0,0,0,514.77,53Z" transform="translate(-392.27 -7)" fill="#fff"/><path id="path6" d="M567.24,52.56q0,14.6-22.86,14.59-4,0-12.36-.22.45-11.07.45-25,0-13.33-.45-22.76h5.69c1.07,0,2.88,0,5.42-.11s4.53-.11,6-.11q15.55,0,15.56,10.55,0,8.14-8,10.78v.55a14.69,14.69,0,0,1,7.41,3.46c2.11,1.85,3.17,4.6,3.16,8.23Zm-12-20.12q0-6.55-7.86-6.56a33.78,33.78,0,0,0-6.43.55q.39,3.7.39,12.72c.89.05,1.82.07,2.81.07q11,0,11-6.78ZM557.76,53q0-7.3-12.26-7.3a41.62,41.62,0,0,0-4.18.18q0,7.66.32,14.11a15.38,15.38,0,0,0,3.58.3q6.49,0,9.52-1.63C556.76,57.57,557.77,55.69,557.76,53Z" transform="translate(-392.27 -7)" fill="#fff"/><path id="path8" d="M607.73,58.24l-.6,8.43a40.2,40.2,0,0,1-9.83,1.25q-12,0-18.35-7A24.23,24.23,0,0,1,572.65,44a26.29,26.29,0,0,1,6.69-17.92Q586,18.5,597.69,18.5a31.23,31.23,0,0,1,8.11,1L604.57,28a25,25,0,0,0-7.94-1.39q-7.12,0-10.6,4.71a18.76,18.76,0,0,0-3.48,11.45,18.23,18.23,0,0,0,4.13,11.95q4.13,5.06,11.57,5.06a32.47,32.47,0,0,0,9.48-1.58Z" transform="translate(-392.27 -7)" fill="#fff"/></g><g id="g22"><path id="path12" d="M499,91.38l-5.52-15.71a.21.21,0,0,0-.22-.14.25.25,0,0,0-.27.23V91.38h-2.58V74.17h4.75L500,87.53a.32.32,0,0,0,.28.22.35.35,0,0,0,.37-.24l4.71-13.34h4.81V91.38H507.6V75.86a.24.24,0,0,0-.22-.22.33.33,0,0,0-.31.17l-5.46,15.57Z" transform="translate(-392.27 -7)" fill="#fff"/><path id="path14" d="M516.47,89.86h1.92V75.74h-1.92V74.17h7.16v1.57h-2V89.86h2v1.52h-7.16Z" transform="translate(-392.27 -7)" fill="#fff"/><path id="path16" d="M539.56,79.17A3.48,3.48,0,0,0,535.8,76h0a3.92,3.92,0,0,0-3.72,2.25,10.72,10.72,0,0,0-.93,4.13c0,3.77.9,7.45,4.65,7.45a3.78,3.78,0,0,0,3-1.31,4.57,4.57,0,0,0,.81-2.34l3.1.42a5.51,5.51,0,0,1-2.14,3.87,8.18,8.18,0,0,1-5,1.47c-1.86,0-7.47-.72-7.47-9,0-4,1.33-9,7.75-9a7.93,7.93,0,0,1,4.74,1.4,5.12,5.12,0,0,1,2,3.38Z" transform="translate(-392.27 -7)" fill="#fff"/><path id="path18" d="M548.73,74.17h7c6.35,0,7.71,2.91,7.71,4.67,0,3.23-2.82,4.1-4.86,4.59l5.95,7.95h-3.72l-5.39-7.64h-3.51v7.64h-3.19Zm3.16,2v5.69A36.89,36.89,0,0,0,557,81.7c1.24-.21,3.19-.7,3.19-2.63s-1.8-2.91-5.21-2.91h-3.13Z" transform="translate(-392.27 -7)" fill="#fff"/><path id="path20" d="M582,78.09a12.55,12.55,0,0,1,.86,4.73c0,4.11-1.52,9.08-7.65,9.08-5.58,0-7.69-4.25-7.69-8.84a10.39,10.39,0,0,1,1.86-6.59,7.75,7.75,0,0,1,10.93-.57A8,8,0,0,1,582,78.09ZM575.23,76a3.87,3.87,0,0,0-3.81,2.65,11.78,11.78,0,0,0-.68,4.36c0,2.19.4,6.78,4.37,6.78,3.22,0,4.46-2.51,4.46-6.87C579.57,80.62,579.29,76,575.23,76Z" transform="translate(-392.27 -7)" fill="#fff"/></g><path d="M392.27,7V107H476.9V7Zm68.37,4.74A3.22,3.22,0,1,1,457.42,15,3.22,3.22,0,0,1,460.64,11.74Zm-8.49,0A3.22,3.22,0,1,1,448.93,15,3.22,3.22,0,0,1,452.15,11.74Zm0,9.58a3.22,3.22,0,1,1-3.22,3.22A3.22,3.22,0,0,1,452.15,21.32Zm-1.09,8.09a3.17,3.17,0,0,1-.5,1.7,3.28,3.28,0,0,1,1.59-.43,3.23,3.23,0,0,1,1.42.34,3.14,3.14,0,0,1-.45-1.61,3.25,3.25,0,1,1,1.8,2.88,3.14,3.14,0,0,1,.45,1.61,3.22,3.22,0,0,1-6.44,0,3.17,3.17,0,0,1,.5-1.7,3.28,3.28,0,0,1-1.59.43,3.22,3.22,0,1,1,3.22-3.22Zm8.5,18.93a3.22,3.22,0,1,1-3.22-3.22A3.22,3.22,0,0,1,459.56,48.34Zm-8.5,0a3.22,3.22,0,1,1-3.22-3.22A3.22,3.22,0,0,1,451.06,48.34Zm-7.41-36.6A3.22,3.22,0,1,1,440.43,15,3.22,3.22,0,0,1,443.65,11.74Zm-8.49,0A3.22,3.22,0,1,1,431.94,15,3.22,3.22,0,0,1,435.16,11.74Zm-1.09,8.08a3.23,3.23,0,0,1-.85,2.17,3.14,3.14,0,0,1,1.94-.67,3.19,3.19,0,0,1,1.67.48,3.23,3.23,0,1,1,.85.76,3.21,3.21,0,1,1-5.74,2,3.23,3.23,0,0,1,.85-2.17,3.14,3.14,0,0,1-1.94.67,3.22,3.22,0,1,1,3.22-3.22Zm-24.4,30.24a3.22,3.22,0,1,1-3.22,3.22A3.22,3.22,0,0,1,409.67,50.06Zm-4.3,1.5a3.22,3.22,0,1,1,3.22-3.22A3.22,3.22,0,0,1,405.37,51.56Zm5.27-3.22a3.22,3.22,0,1,1,3.22,3.22A3.22,3.22,0,0,1,410.64,48.34Zm7.53,1.72A3.22,3.22,0,1,1,415,53.28,3.22,3.22,0,0,1,418.17,50.06Zm1-1.72a3.22,3.22,0,1,1,3.22,3.22A3.22,3.22,0,0,1,419.14,48.34Zm7.52,1.72a3.22,3.22,0,1,1-3.22,3.22A3.22,3.22,0,0,1,426.66,50.06Zm1-1.72a3.22,3.22,0,1,1,3.22,3.22A3.22,3.22,0,0,1,427.63,48.34Zm7.53,1.72a3.22,3.22,0,1,1-3.22,3.22A3.22,3.22,0,0,1,435.16,50.06Zm1-1.72a3.22,3.22,0,1,1,3.22,3.22A3.22,3.22,0,0,1,436.13,48.34ZM439.35,42a3.19,3.19,0,0,1-1.67-.48,3.21,3.21,0,1,1-5.74,2,3.23,3.23,0,0,1,.85-2.17,3.14,3.14,0,0,1-1.94.67,3.24,3.24,0,1,1,2.37-1,3.14,3.14,0,0,1,1.94-.67,3.19,3.19,0,0,1,1.67.48A3.21,3.21,0,1,1,439.35,42ZM426.66,11.74A3.22,3.22,0,1,1,423.44,15,3.22,3.22,0,0,1,426.66,11.74Zm-8.49,0A3.22,3.22,0,1,1,415,15,3.22,3.22,0,0,1,418.17,11.74Zm0,9.58A3.22,3.22,0,1,1,415,24.54,3.22,3.22,0,0,1,418.17,21.32Zm-1.09,8.09a3.17,3.17,0,0,1-.5,1.7,3.28,3.28,0,0,1,1.59-.43,3.23,3.23,0,0,1,1.42.34,3.14,3.14,0,0,1-.45-1.61,3.25,3.25,0,1,1,1.8,2.88,3.14,3.14,0,0,1,.45,1.61,3.22,3.22,0,1,1-6.44,0,3.17,3.17,0,0,1,.5-1.7,3.28,3.28,0,0,1-1.59.43,3.22,3.22,0,1,1,3.22-3.22Zm-7.41-17.67A3.22,3.22,0,1,1,406.45,15,3.22,3.22,0,0,1,409.67,11.74Zm-8.5,0A3.22,3.22,0,1,1,398,15,3.22,3.22,0,0,1,401.17,11.74Zm0,9.58a3.12,3.12,0,0,1,1.68.49A3.21,3.21,0,1,1,405.37,23a3.12,3.12,0,0,1-1.68-.49,3.21,3.21,0,1,1-2.52-1.23Zm0,9.36A3.22,3.22,0,1,1,398,33.9,3.22,3.22,0,0,1,401.17,30.68Zm0,9.58a3.12,3.12,0,0,1,1.68.49,3.22,3.22,0,1,1,5.74-2,3.19,3.19,0,0,1-.83,2.14,3.16,3.16,0,0,1,1.91-.64,3.25,3.25,0,1,1-2.39,1.08,3.16,3.16,0,0,1-1.91.64,3.12,3.12,0,0,1-1.68-.49,3.21,3.21,0,1,1-2.52-1.23Zm-3.22,13a3.22,3.22,0,1,1,3.22,3.22A3.22,3.22,0,0,1,398,53.28Zm7.42,46.21a3.22,3.22,0,1,1,3.22-3.22A3.22,3.22,0,0,1,405.37,99.49Zm1.08-36.63a3.18,3.18,0,0,1,.81-2.11,3.37,3.37,0,1,1,.52-.49,3.16,3.16,0,0,1,3.54-.15,3.22,3.22,0,1,1,4.93.18,3.22,3.22,0,0,1,1.92-.65,3.18,3.18,0,0,1,1.65.47,3.22,3.22,0,1,1,4.95.15,3.16,3.16,0,0,1,3.54-.15,3.22,3.22,0,1,1,4.93.18,3.22,3.22,0,0,1,1.92-.65,3.18,3.18,0,0,1,1.65.47,3.21,3.21,0,1,1,2.54,1.26,3.18,3.18,0,0,1-1.65-.47,3.22,3.22,0,1,1-4.93-.18,3.22,3.22,0,0,1-1.92.65,3.18,3.18,0,0,1-1.65-.47,3.22,3.22,0,1,1-4.95-.15,3.16,3.16,0,0,1-3.54.15,3.22,3.22,0,1,1-4.93-.18,3.22,3.22,0,0,1-1.92.65,3.18,3.18,0,0,1-1.65-.47,3.22,3.22,0,1,1-5.76,2Zm7.41,36.63a3.22,3.22,0,1,1,3.22-3.22A3.22,3.22,0,0,1,413.86,99.49ZM415,72.22a3.17,3.17,0,0,1,.5-1.7,3.28,3.28,0,0,1-1.59.43,3.22,3.22,0,1,1,3.22-3.22,3.17,3.17,0,0,1-.5,1.7,3.28,3.28,0,0,1,1.59-.43,3.23,3.23,0,0,1,1.42.34,3.14,3.14,0,0,1-.45-1.61,3.22,3.22,0,1,1,6.44,0,3.31,3.31,0,0,1-.49,1.7,3.1,3.1,0,0,1,1.57-.43,3.23,3.23,0,0,1,1.42.34,3.14,3.14,0,0,1-.45-1.61,3.22,3.22,0,1,1,6.44,0,3.17,3.17,0,0,1-.5,1.7,3.28,3.28,0,0,1,1.59-.43,3.23,3.23,0,0,1,1.42.34,3.14,3.14,0,0,1-.45-1.61,3.22,3.22,0,1,1,6.44,0,3.31,3.31,0,0,1-.49,1.7,3.1,3.1,0,0,1,1.57-.43,3.22,3.22,0,1,1-3.22,3.22,3.31,3.31,0,0,1,.49-1.7,3.1,3.1,0,0,1-1.57.43,3.23,3.23,0,0,1-1.42-.34,3.14,3.14,0,0,1,.45,1.61,3.22,3.22,0,1,1-6.44,0,3.17,3.17,0,0,1,.5-1.7,3.28,3.28,0,0,1-1.59.43,3.23,3.23,0,0,1-1.42-.34,3.14,3.14,0,0,1,.45,1.61,3.22,3.22,0,1,1-6.44,0,3.31,3.31,0,0,1,.49-1.7,3.1,3.1,0,0,1-1.57.43,3.23,3.23,0,0,1-1.42-.34,3.14,3.14,0,0,1,.45,1.61,3.22,3.22,0,1,1-6.44,0Zm7.41,27.27a3.22,3.22,0,1,1,3.22-3.22A3.22,3.22,0,0,1,422.36,99.49Zm8.49,0a3.22,3.22,0,1,1,3.22-3.22A3.22,3.22,0,0,1,430.85,99.49Zm0-9.6a3.31,3.31,0,0,1-1.7-.49,3.15,3.15,0,0,1,.73,2,3.22,3.22,0,1,1-3.22-3.22,3.31,3.31,0,0,1,1.7.49,3.15,3.15,0,0,1-.73-2,3.22,3.22,0,1,1,3.22,3.22Zm8.5,9.6a3.22,3.22,0,1,1,3.22-3.22A3.22,3.22,0,0,1,439.35,99.49Zm8.49,0a3.22,3.22,0,1,1,3.22-3.22A3.22,3.22,0,0,1,447.84,99.49Zm0-9.6a3.31,3.31,0,0,1-1.7-.49,3.15,3.15,0,0,1,.73,2,3.22,3.22,0,1,1-3.22-3.22,3.31,3.31,0,0,1,1.7.49,3.15,3.15,0,0,1-.73-2,3.22,3.22,0,1,1,3.22,3.22Zm1.09-8.09a3.21,3.21,0,0,1,.83-2.14,3.22,3.22,0,0,1-1.92.65,3.18,3.18,0,0,1-1.65-.47,3.22,3.22,0,1,1-4.95-.15,3.16,3.16,0,0,1-3.54.15,3.22,3.22,0,1,1-4.93-.18,3.22,3.22,0,0,1-1.92.65,3.18,3.18,0,0,1-1.65-.47,3.22,3.22,0,1,1-4.95-.15,3.37,3.37,0,1,1,.52-.49,3.16,3.16,0,0,1,3.54-.15,3.22,3.22,0,1,1,4.93.18,3.22,3.22,0,0,1,1.92-.65,3.18,3.18,0,0,1,1.65.47,3.22,3.22,0,1,1,4.95.15,3.16,3.16,0,0,1,3.54-.15,3.22,3.22,0,1,1,4.93.18,3.21,3.21,0,1,1-1.3,2.57Zm8.49,9.61a3.19,3.19,0,0,1,.88-2.2,3.19,3.19,0,1,1,.38-.34,3.21,3.21,0,1,1-1.26,2.54Zm11.72,12.8a3.21,3.21,0,0,1-2.39-5.36,3.16,3.16,0,0,1-1.91.64,3.25,3.25,0,1,1,2.39-1.08,3.16,3.16,0,0,1,1.91-.64,3.22,3.22,0,1,1,0,6.44Zm0-9.58a3.22,3.22,0,1,1,3.22-3.22A3.22,3.22,0,0,1,469.14,94.63Zm0-9.61a3.22,3.22,0,1,1,3.22-3.22A3.22,3.22,0,0,1,469.14,85Zm0-9.58a3.22,3.22,0,1,1,3.22-3.22A3.22,3.22,0,0,1,469.14,75.44Zm0-9.36a3.22,3.22,0,1,1,3.22-3.22A3.22,3.22,0,0,1,469.14,66.08Zm0-9.58a3.22,3.22,0,1,1,3.22-3.22A3.22,3.22,0,0,1,469.14,56.5Zm0-9.8a3.21,3.21,0,0,1-2.39-5.36,3.16,3.16,0,0,1-1.91.64,3.12,3.12,0,0,1-1.68-.49,3.21,3.21,0,1,1-2.52-1.23,3.12,3.12,0,0,1,1.68.49,3.22,3.22,0,1,1,5.74-2,3.19,3.19,0,0,1-.83,2.14,3.16,3.16,0,0,1,1.91-.64,3.22,3.22,0,1,1,0,6.44Zm0-9.58a3.22,3.22,0,1,1,3.22-3.22A3.22,3.22,0,0,1,469.14,37.12Zm0-9.36a3.21,3.21,0,0,1-2.39-5.36,3.16,3.16,0,0,1-1.91.64A3.25,3.25,0,1,1,467.23,22a3.16,3.16,0,0,1,1.91-.64,3.22,3.22,0,1,1,0,6.44Zm0-9.58A3.22,3.22,0,1,1,472.36,15,3.22,3.22,0,0,1,469.14,18.18Z" transform="translate(-392.27 -7)" fill="#fff"/></g></svg>