<svg id="Ebene_2" data-name="Ebene 2" xmlns="http://www.w3.org/2000/svg" width="733.11" height="100" viewBox="0 0 733.11 100"><path d="M586.25,11.71V88.65A12.2,12.2,0,0,0,597.59,100H656V63.47H632.74v16.6h-23.8V20l23.8.28V40.22H656V.36H597.32C590.12.36,586.25,3.41,586.25,11.71Z" fill="#fff"/><path d="M733.11,11.71A12.44,12.44,0,0,0,721.76.36h-58.4V100h58.4a12.44,12.44,0,0,0,11.35-11.35ZM710.41,79.8h-23.8V20l23.8-.28Z" fill="#fff"/><path d="M126.36.58C118,.09,112.65,7.43,107.75,12.82A102.09,102.09,0,0,0,108.24.58C96,.58,83.75.09,71.51.58a18.53,18.53,0,0,0-14.7,9.79C38.2,40.25,19.1,70.12,0,100H36.24C50.45,77.47,64.65,54.45,78.85,31.92c5.88-6.36,15.67-3.92,23-4.4C86.69,52,71.51,75.51,56.81,100H93.05c12.25-20.57,25.47-40.16,37.72-60.73,2.94-4.9,5.87-10.78,12.24-10.29v71h34.28V.58C160.15.58,143.5.09,126.36.58Z" fill="#fff"/><path d="M279.16,58.86c4.41-6.37,8.82-13.22,13.72-19.59h-71c4.41-5.39,5.88-14.2,12.74-16.65,19.1-1,37.71,0,56.81-.49V.09H215c-8.82-1-18.13,6.37-22.53,12.24a40.15,40.15,0,0,0-6.86,26V99H291.41V77.47h-70V58.86Z" fill="#fff"/><path d="M358,60.82a188.29,188.29,0,0,1,23.5,1.47,89.22,89.22,0,0,1-1,16.16c-16.17.49-32.82.49-49.47-.49-2-18.12.49-18.61,1-33.3,3.43-9.31,8.32-22.53,20.57-22H406c.49-7.84.49-15.19.49-22.53H324.71a25.23,25.23,0,0,0-17.63,9.3,39.24,39.24,0,0,0-7.84,20.08c-1,18.13-.48,36.25-.48,54.37-.49,7.34,5.38,16.65,13.71,15.18,32.81,0,65.14,1,97.95-.49a31.87,31.87,0,0,0,2.45-9.79V39.27H370.26C366.34,46.62,361.93,54,358,60.82Z" fill="#fff"/><path d="M478,.58c-18.61,0-36.73-.49-55.35,0V100H457c0-11.75.49-23,0-34.77a177.14,177.14,0,0,0,9.79,16.16c11.27,0,22-.49,33.31,0,6.85,4.41,10.28,12.24,15.18,18.61h37.71c-17.14-28.41-35.75-56.32-52.89-84.73C495.15,7.92,487.8-.4,478,.58ZM457.44,59.35V22.13A16.34,16.34,0,0,1,469.19,29c6.86,10.29,12.25,20.57,18.61,30.86C477.52,59.35,467.72,59.35,457.44,59.35Z" fill="#fff"/></svg>