<svg id="_Capa_" data-name=" Capa " xmlns="http://www.w3.org/2000/svg" width="792.3" height="100" viewBox="0 0 792.3 100"><polygon points="680.41 17.65 712.09 32.6 792.3 4.32 776.19 4.32 788.44 0 712.82 0 676.62 13.31 683.45 16.53 680.41 17.65" fill="#fff"/><polygon points="549.68 4.32 652.13 53.2 676.26 44.28 719.47 63.73 741.08 55.99 734.23 52.78 737.31 51.67 627.1 0 545.91 0 554.96 4.32 549.68 4.32" fill="#fff"/><polygon points="210.95 35.77 212.09 35.1 164.92 0 88.4 0 94.72 4.32 92.18 4.32 177.08 62.47 215.87 39.43 210.95 35.77" fill="#fff"/><path d="M3.77,70h56.9V4.32H56.9V0H0V65.72H3.77Zm0-66.27h0v.55h0Z" transform="translate(0 0)" fill="#fff"/><path d="M144.4,74H0V95.6H3.77v4.31h144.4V78.32H144.4ZM3.77,77.78h0v.54h0Z" transform="translate(0 0)" fill="#fff"/><polygon points="335.96 0 285.56 0 178.61 65.72 178.61 95.6 182.35 95.6 182.35 99.92 240.01 99.92 240.01 63.02 339.75 4.32 328.62 4.32 335.96 0" fill="#fff"/><polygon points="400.97 43.75 343.72 9.71 343.72 95.6 347.41 95.6 347.41 99.93 404.66 99.93 404.66 48.07 400.97 45.88 400.97 43.75" fill="#fff"/><polygon points="526.64 0 502.69 0 502.69 70.65 396.29 0 347.49 0 354.41 4.32 351.27 4.32 504.3 99.92 530.44 99.92 530.44 4.32 526.64 4.32 526.64 0" fill="#fff"/><polygon points="645.3 84.97 610.37 68.24 532.41 95.6 548.41 95.6 536.1 99.92 610.64 99.92 648.99 89.31 641.91 85.91 645.3 84.97" fill="#fff"/><polygon points="774.39 95.6 669.95 48.78 648.36 57.06 607.48 37.09 583.73 45.55 590.66 48.83 587.5 49.96 693.56 100 778.17 100 768.36 95.6 774.39 95.6" fill="#fff"/></svg>