<?xml version="1.0" encoding="utf-8"?>
<!-- Generator: Adobe Illustrator 25.4.1, SVG Export Plug-In . SVG Version: 6.00 Build 0)  -->
<svg version="1.1" id="Layer_1" xmlns="http://www.w3.org/2000/svg" xmlns:xlink="http://www.w3.org/1999/xlink" x="0px" y="0px"
	 viewBox="0 0 244.9 100" style="enable-background:new 0 0 244.9 100;" xml:space="preserve">
<style type="text/css">
	.st0{fill:#FFFFFF;}
</style>
<g>
	<path class="st0" d="M242.6,85.9l-15-12.2l-5.7-4.7l0.7-0.4c2.2-1.4,4.6-2.7,6.7-4.2c5.1-3.5,9-7.9,10.3-14.2
		c0.9-4.3,0-8.1-3.6-10.9c-7.9-5.9-16.5-9.1-26.5-8.4c-5.9,0.2-11.5,2.6-15.8,6.7c-2.8,2.5-4,6.3-3.3,9.9c0.5,2.4,1.2,4.8,1.8,7.2
		l0.4,3.2c0.3,1.3,0.5,2.6,0.7,3.9c0.2,3.2,0.3,6.4,0.5,9.6c-0.2-1.4-0.4-2.8-0.5-4.2c-0.3-3.1-0.6-6.1-0.8-9.1
		c0-0.1,0.1-0.1,0.2-0.2l-0.5-3.2c-1.1-1.5-2.2-2.9-3.5-4.3C181,42.8,171.5,40.2,161,42c-18.3,3.2-27.1,20.5-24.4,34.2
		c-0.5,0-1-0.1-1.4,0c-3.7-0.1-7.3,0.6-10.7,2c-1.6,0.6-3.3,1-5,1.6c-0.1-0.3-0.1-0.5-0.2-0.8c-0.4-5.2-0.8-10.3-1-15.5
		c-0.2-5.3-0.2-10.6-0.5-15.9c-0.1-3.1-0.7-6.1-1.8-8.9c-1.3-3.4-3.2-6.2-6.5-7.8c-2.8-1.4-6.2-0.7-8.3,1.6
		c-2.4,2.5-3.1,6.1-1.9,9.3c0.8,2.5,1.8,5,2.6,7.5c0.9,2.5,1.2,5.2,1,7.9c0.2,2.3,0.3,4.6,0.5,6.9c0.2,3.7,0.5,7.4,0.7,11.1
		c0.6,6.1,1.2,12.2,2,18.3c0.3,2.9,2.6,5.2,5.6,5.4c2.4,0.3,4.9,0,7.1-0.9c2.3-0.8,4.5-1.8,6.8-2.8c3.2-1.4,6.7-1.4,10.1-2
		c2.8-0.5,5.7-0.9,7.7-3.3c2.5,2.5,5.6,4.3,8.9,5.5c4.2,1.3,8.8,1.5,13.1,0.6c12.7-2.4,22.5-8.5,28.4-20.4c0.3,2.5,0.1,4.9-0.5,7.3
		c-0.5,1.5-0.9,3.1-1.2,4.6c-0.7,5.5,2,9.5,7.2,10.9c4.6,1.2,8.6-1.2,9.2-5.8c0.5-3.8,0.4-7.6,0.5-11.4c0-0.3,0-0.6,0-1.1l0.5,0.4
		c3.1,2.5,6.2,5.1,9.3,7.6c4.3,3.5,8.7,7.1,13,10.6c2,1.6,4.8,1.9,7.1,0.7c2.6-1.1,4.6-3.3,5.5-6C245.5,90.7,244.8,87.7,242.6,85.9z
		 M141.8,78.8c-0.6-0.5-1.3-1-2-1.4C140.5,77.9,141.2,78.3,141.8,78.8c1,1,1.8,2.2,2.2,3.6C143.6,81.1,142.9,79.9,141.8,78.8z
		 M179.5,69.8c-1.5,5.6-5.5,8.8-10.8,10.5c-4.7,1.7-9.9,0.7-13.6-2.7c-4.6-4.1-5.1-11.1-1.2-15.9c3.1-3.6,7.6-5.6,12.4-5.4
		c1.4,0.1,2.9,0.1,4.3,0.3c3.6,0.4,6.9,2.5,8.6,5.7C180.5,64.8,180.2,67.3,179.5,69.8z M208.9,57.6c-0.2-3.4-0.5-6.8-0.8-10.2
		c1.9,0,3.7,0,5.5,0c2.8,0,5.6,0.4,8.2,1.2c1,0.2,1.9,1,2.2,1.9l0,0c-0.6,0.8-1.3,1.6-2,2.2C219.6,54.8,212.2,57.4,208.9,57.6z"/>
	<path class="st0" d="M103,57c-1.8-4.5-4.9-8.5-8.9-11.3c-7.7-5.6-16.1-7.4-25.2-3.7c-9.7,3.8-17.2,11.7-20.5,21.6
		c-2.5,6.8-3.5,13.7,0.2,20.5c2.9,1,4.4,3.2,5,6c2.4,1.9,5.1,3.5,7.9,4.6c6.1,2.3,12.8,2.7,19.1,1.2c7.5-1.6,14.2-5.7,18.9-11.8
		c2-2.7,3.6-5.8,4.6-9.1c-0.2-3.7-0.5-7.4-0.7-11.1C103.3,61.6,103.2,59.3,103,57z M79,82.1c-5.7,1.3-11.5-0.9-14.4-5.7
		c-2.8-4.8-2.3-9.5,0.7-13.8c3.7-5.4,9.1-7.7,15.5-7.7c1.6,0.2,3,1,4,2.2c2.2,2.3,3.1,5.1,3.8,8.1c0.3,1.4,0.4,2.9,0.7,4.4
		C89.6,76.2,83.8,81,79,82.1z"/>
	<path class="st0" d="M38.2,83.9c-4.7,0.4-9.5,0.3-14.1-0.3c-4.3-0.5-7.8-3.7-8.7-7.9c-0.7-2.5-0.7-5.2-0.1-7.8
		c1.7-7.1,5.3-13.5,10.5-18.6c2.4-2.6,5.4-4.6,8.7-5.8c1.2-0.4,2.5-0.4,3.7,0.2c0.1,0.2,0.1,0.3,0.1,0.5c0.6,3.1,3.1,5.4,6.2,5.8
		c3.2,0.6,6.5-0.9,8.2-3.7c2.5-4.4,1.8-11.2-3.5-14.4C44,28.8,37.7,27.8,31.8,29c-5.1,0.9-9.2,3.6-13,7c-4.7,4.2-8.3,9.2-11.8,14.4
		c-4.8,7-7.5,14.6-6.9,23.2c0.1,3.5,0.9,7,2.2,10.3c2.2,5.4,6.3,9.7,11.6,12.2c4.6,2,9.5,3,14.5,2.9c4.5,0.1,9-0.1,13.5-0.3
		c1.6,0,3.2,0,4.8-0.2c3.1-0.3,7.3-4.2,7-8.6c-0.6-2.9-2.1-5.1-5-6.1c-0.7-0.2-1.5-0.3-2.3-0.4C43.7,83.6,40.9,83.8,38.2,83.9z"/>
	<path class="st0" d="M20.5,26.3c2.2-0.2,4.3-0.8,6.2-1.9L26.1,26h5.4l3.4-7.5h6l1.3,7.5h8.9l4.4-13.8h0.2c0.9,4.6,1.9,9.2,2.8,13.8
		H62c2.2-5.1,4.4-10.2,6.6-15.2l0.2,0.1c0.2,5,0.5,10.1,0.7,15.1h5.2L73.6,0.7h-6.3l-5.8,13.5h-0.2c-0.8-4.5-1.7-9-2.5-13.5h-5.1
		c-2.2,6.7-4.4,13.4-6.6,20.1H47c-1.1-6.7-2.2-13.4-3.4-20.1h-6.4c-3.1,7-6.1,14-9.2,21l-0.3-0.1l1.3-8l-9.7,0l-0.7,4.7h4l-0.5,2.5
		c-2.4,0.7-4.6,0.6-6.6-1c-1.9-1.6-2.7-4.1-2-6.5c0.7-3.4,3.1-5.6,6.2-6.9C23,5,26.8,4.9,30.2,6.2l0.8-5c-6.1-2.5-14.2-0.8-19,4.1
		c-3.6,3.7-4.6,8-3.6,13S14.7,26.6,20.5,26.3z M39.2,8.6l1,4.9H37L39.2,8.6z"/>
	<path class="st0" d="M108.4,26c3.2,0,6.2-1.7,7.7-4.5c1.5-2.3,1.3-5.3-0.5-7.3c-0.3-0.4-0.7-0.8-1-1.2c0.5-0.6,1-1.2,1.4-1.8
		c1.4-2.1,2-4.4,0.7-6.7c-1.2-2.3-3.6-3.8-6.2-3.7h-9c-1.3,8.4-2.6,16.7-4,25.2h1.1C101.8,26,105.1,26,108.4,26z M110.1,6.4
		c0.2,0,0.5,0.1,0.7,0.2c0,0,0,0,0,0c0.9,0.5,1.2,1.7,0.7,2.6c-0.4,0.9-1.3,1.6-2.3,1.7c-0.3,0-0.5,0-0.8,0h-3.3
		c0.3-1.6,0.5-3.1,0.8-4.5C107.3,6.3,108.7,6.3,110.1,6.4z M103.5,21c0.3-1.7,0.5-3.3,0.8-4.9c1.7,0,3.3-0.1,4.9,0
		c1.2,0,2.2,0.8,2.4,1.9c0.2,1.2-0.4,2.3-1.5,2.7c-0.4,0.2-0.9,0.3-1.3,0.4C107,21.1,105.3,21.1,103.5,21L103.5,21z"/>
	<path class="st0" d="M133.9,24.4c5.5-4,7.5-12.5,4.2-18.4c-3-5.5-9.2-7-14.2-3.3c-4,2.9-5.7,7.1-5.9,12.7c0.2,1.4,0.5,2.8,0.9,4.2
		C121.2,26.3,128.3,28.5,133.9,24.4z M123.5,13c0.3-2.5,1.6-4.7,3.5-6.3c2.6-2,5.6-1.2,6.8,1.8c0.4,1.2,0.7,2.4,0.9,3.6h0
		c-0.1,2.7-1.1,5.3-2.9,7.4c-0.5,0.5-1,1-1.6,1.3l-0.4,0.2c-1.9,1-4.3,0.3-5.3-1.6C123.3,17.5,122.9,15.2,123.5,13z"/>
	<path class="st0" d="M90.5,20.5h-9.1l0.7-4.5H90l0.9-5.4h-8l0.7-4.5h9.1l0.9-5.4H79.1c-1.3,8.4-2.7,16.8-4,25.2h14.5L90.5,20.5z"/>
	<path class="st0" d="M142.4,13c0.3,0.7,0.4,1.5,0.3,2.3c-0.5,3.5-1.1,7.1-1.7,10.7h5.2c0.3-2.2,0.8-4.4,1-6.6
		c0.2-2.5,1.1-4.9,2.5-7c2.4-3.5,4.6-7.1,6.9-10.7c0.2-0.3,0.4-0.6,0.6-1h-6L146,8.9l-3.2-8.2l-5.9,0c0.2,0.4,0.3,0.7,0.4,1
		C139,5.5,140.8,9.2,142.4,13z"/>
</g>
</svg>
