<svg id="Capa_1" data-name="Capa 1" xmlns="http://www.w3.org/2000/svg" width="750.6" height="100" viewBox="0 0 750.6 100"><path d="M137.72,1.65l-13.6,56.87Q117.55,86,101.81,86,85.46,86,92.27,57.5L105.63,1.65H93.77L79.62,60.81Q70.25,100,97.55,100q28.5,0,38.25-40.74L149.58,1.65Z" fill="#fff"/><polygon points="192.64 44.35 168.02 44.35 174.97 15.28 201.68 15.28 204.94 1.66 166.37 1.66 143.23 98.38 155.1 98.38 164.78 57.91 189.39 57.91 192.64 44.35" fill="#fff"/><path d="M232.35,1.65l-49.9,96.73h13l12.07-24.62h28.1l.54,24.62h13L245.71,1.65Zm-18.65,59,19.05-38.58A65.14,65.14,0,0,0,235.19,16h.2a58.89,58.89,0,0,0-.5,6.07l.68,38.58Z" fill="#fff"/><path d="M342.73,1.65,308.25,65.8q-2,3.7-5.7,11.33h-.25a107.36,107.36,0,0,0-.15-11.06L298.77,1.65H282.08L258.94,98.38h11l14.94-62.46Q288,22.76,289,17h.2a83.82,83.82,0,0,0-.41,9.64L293,98.38h8.17l38.62-72.31q1.51-2.76,4.13-9.1h.2q-3.36,11.13-5.2,18.81l-15,62.6h11.75L358.82,1.65Z" fill="#fff"/><polygon points="353.23 98.38 365.44 98.38 388.58 1.66 376.37 1.66 353.23 98.38" fill="#fff"/><polygon points="487.69 1.66 434.76 1.66 431.5 15.28 452.01 15.28 432.1 98.38 443.98 98.38 463.88 15.28 484.43 15.28 487.69 1.66" fill="#fff"/><path d="M541.33,1.65,527.71,58.52Q521.14,86,505.36,86,489,86,495.82,57.5L509.2,1.65H497.33L483.16,60.81Q473.76,100,501.11,100q28.54,0,38.3-40.74L553.2,1.65Z" fill="#fff"/><path d="M611.64,16.32a17.43,17.43,0,0,0-3-8.16,14.41,14.41,0,0,0-6.22-4.88,22.94,22.94,0,0,0-8.89-1.63H570L546.85,98.38h11.82l9.41-39.26h4.79a9.24,9.24,0,0,1,3.87.75,6.8,6.8,0,0,1,2.75,2.35,17.27,17.27,0,0,1,2,4.15A47.54,47.54,0,0,1,583,72.48l5.23,25.9h13.87L595.92,71.2c-.52-2.12-1-4-1.48-5.57a34.15,34.15,0,0,0-1.55-4.28A40.89,40.89,0,0,0,591,57.67a14,14,0,0,0-2.61-3.27l.06-.27a29.2,29.2,0,0,0,7.44-3.64,32.19,32.19,0,0,0,6.35-5.7,37.07,37.07,0,0,0,5-7.62,43.87,43.87,0,0,0,3.38-9.41A32.93,32.93,0,0,0,611.64,16.32Zm-13.9,13.13a28.23,28.23,0,0,1-2.61,6.94,22.11,22.11,0,0,1-3.9,5.26A16.44,16.44,0,0,1,586.41,45a13.2,13.2,0,0,1-5.33,1.15h-9.89l7.53-31.44h10a9,9,0,0,1,8.39,3.91A14.67,14.67,0,0,1,597.74,29.45Z" fill="#fff"/><path d="M656.33,1.65h-22.7L610.46,98.38h23a30.37,30.37,0,0,0,20.09-7.69,36.77,36.77,0,0,0,12-20.1q2.4-10-.52-16.22A12.64,12.64,0,0,0,655,47l.07-.27a27.32,27.32,0,0,0,11.59-8.63,35.66,35.66,0,0,0,6.88-14.3q2.36-9.85-2.24-16T656.33,1.65ZM653.08,70a21.65,21.65,0,0,1-6.35,11.43,16.19,16.19,0,0,1-11.25,4.15H625.35l7.34-30.62h8.58Q656.69,54.94,653.08,70Zm7.22-43a21,21,0,0,1-6.19,11.16,15.59,15.59,0,0,1-10.65,4h-7.69l6.59-27.52H651Q663.27,14.54,660.3,27Z" fill="#fff"/><path d="M747.41,13.53A21.21,21.21,0,0,0,726.37,0Q710.1,0,697.3,13.93T678.9,51.16q-5.19,21.72.85,35.28T701.28,100q15.76,0,28.5-13.76T748.17,48.8Q753.39,27,747.41,13.53Zm-12,36.82q-4.05,16.87-12.22,26.24T704.69,86q-9.68,0-13.3-9.85t.23-26A61.12,61.12,0,0,1,704,24.05q8.54-9.91,18.37-9.92A13.35,13.35,0,0,1,736,23.58Q739.53,33,735.38,50.35Z" fill="#fff"/><path d="M78.7,16.68a11.3,11.3,0,0,0,.91-1.63q.42-.92.75-1.77c.22-.56.41-1.1.56-1.62s.24-1,.31-1.37a4.2,4.2,0,0,0,0-1.73,3.57,3.57,0,0,0-.7-1.37,9.05,9.05,0,0,0-2.18-1.66,21.84,21.84,0,0,0-4-1.85,37.65,37.65,0,0,0-5.45-1.43,34.08,34.08,0,0,0-6.54-.6A40.63,40.63,0,0,0,48.81,3.87,38.22,38.22,0,0,0,37.68,9.92a35,35,0,0,0-8,8.94,30.76,30.76,0,0,0-4.24,10.92,21.49,21.49,0,0,0-.09,8.38,19.17,19.17,0,0,0,2.51,6.35,20.55,20.55,0,0,0,4.28,4.88c1.68,1.4,3.42,2.72,5.2,3.94s3.57,2.42,5.33,3.55a24.71,24.71,0,0,1,4.52,3.69A13.12,13.12,0,0,1,50,65a10.86,10.86,0,0,1,.33,5.79,20.44,20.44,0,0,1-2.74,7.1,21.88,21.88,0,0,1-5.23,5.79,24.89,24.89,0,0,1-7.44,3.91,28.76,28.76,0,0,1-9.34,1.44,24.5,24.5,0,0,1-8.15-1.18,32.87,32.87,0,0,1-5.68-2.55A35.27,35.27,0,0,1,7.9,82.79a4.66,4.66,0,0,0-2.69-1.17A1.82,1.82,0,0,0,4,82.09a7.31,7.31,0,0,0-1.1,1.26,10.92,10.92,0,0,0-1,1.7c-.29.61-.55,1.24-.82,1.88S.63,88.16.46,88.71A12.73,12.73,0,0,0,.13,90a3.38,3.38,0,0,0,.44,2.8,11.09,11.09,0,0,0,2.65,2.18A27.47,27.47,0,0,0,8,97.3,39.26,39.26,0,0,0,22.59,100a46.92,46.92,0,0,0,15.19-2.4,44.2,44.2,0,0,0,12.48-6.5,37.13,37.13,0,0,0,9-9.6,32.17,32.17,0,0,0,4.68-11.77A21.52,21.52,0,0,0,64,61.42a19,19,0,0,0-2.55-6.35,21.18,21.18,0,0,0-4.38-4.87c-1.74-1.4-3.52-2.72-5.32-4L46.4,42.63a28.78,28.78,0,0,1-4.55-3.76A13.55,13.55,0,0,1,39,34.44a10.22,10.22,0,0,1-.39-5.69,19.24,19.24,0,0,1,2.24-6.13,20.21,20.21,0,0,1,4.33-5.28,20.78,20.78,0,0,1,6.27-3.69,22.42,22.42,0,0,1,8-1.36,21.58,21.58,0,0,1,6.87,1,32.33,32.33,0,0,1,4.91,2,22.45,22.45,0,0,1,3.26,2,3.76,3.76,0,0,0,2,1,1.8,1.8,0,0,0,1.13-.45A5.69,5.69,0,0,0,78.7,16.68Z" fill="#fff"/></svg>