<?xml version="1.0" encoding="utf-8"?>
<!-- Generator: Adobe Illustrator 25.4.1, SVG Export Plug-In . SVG Version: 6.00 Build 0)  -->
<svg version="1.1" id="Layer_1" xmlns="http://www.w3.org/2000/svg" xmlns:xlink="http://www.w3.org/1999/xlink" x="0px" y="0px"
	 viewBox="0 0 838.7 100" style="enable-background:new 0 0 838.7 100;" xml:space="preserve">
<style type="text/css">
	.st0{fill:#FFFFFF;}
</style>
<g>
	<path class="st0" d="M91.2,87.9c-0.1-0.7-0.1-2.8-0.1-6.2V16h-3.4L19.2,83.9c-3.5,3.7-7.3,7-11.5,9.9c-2.2,1.2-4.6,2-7.1,2.3
		L0,98.1h30.3l-0.1-2.1c-2.2,0.1-4.4-0.4-6.4-1.4c-1.1-0.5-1.8-1.5-2-2.7c0-1,0.2-1.9,0.6-2.8c0.8-1.5,1.7-2.8,2.9-4l6.9-6.8
		l6.1-6.2h31.2v0l-0.1,10.3c0.2,3.2-0.3,6.3-1.6,9.2c-0.8,1.5-2.1,2.8-3.7,3.5c-2.5,0.5-4.9,0.7-7.4,0.8l-0.7,2.1h43.9l0.6-2.1
		c-2.5,0-4.9-0.7-6.9-2.2C92,92.3,91.1,90.2,91.2,87.9z M69.2,67.4H43.1l26.8-26.2L69.2,67.4z"/>
	<polygon class="st0" points="164.2,17.9 164.2,17.9 164.2,17.9 	"/>
	<path class="st0" d="M237.7,32.3c1.6-4.9,3.6-8.2,6-9.8c3.3-1.9,7.2-2.8,11-2.5l0.8-2.1h-35.6l-45.4,55.3l-10.3-55.3H128l-0.8,2.1
		c2.8-0.1,5.7,0.2,8.4,0.8c2.1,0.8,4.1,2,5.8,3.6l-18.9,59.4c-1.2,4.3-3.9,8-7.7,10.3c-2.8,1.4-6,2.1-9.2,2l-0.6,2.1h33.5l0.6-2.1
		c-3.1,0.1-6.2-0.5-8.9-2c-1.7-1-2.7-2.8-2.8-4.8c0-1.9,0.3-3.7,0.9-5.5l16.7-53.4l12.6,67.9h3.1l54.6-66.6l-16.3,52.1
		c-1.6,4.9-3.6,8.2-6.1,9.9c-2.5,1.7-6.5,2.5-11.9,2.5l-0.8,2.1h50.5l0.6-2.1c-4.4-0.1-7.3-0.6-8.9-1.5c-1.4-0.7-2.3-2-2.4-3.6
		c0.1-2.5,0.6-5,1.4-7.3L237.7,32.3z"/>
	<path class="st0" d="M313.8,19.9l0.9-2.1h-49.5l-0.7,2.1h0c5.3,0.3,8.7,0.8,10.1,1.7c1.3,0.7,2.2,2,2.3,3.5
		c-0.1,2.5-0.5,4.9-1.3,7.2l-16,51.4c-1.6,5.2-3.5,8.5-5.8,10.1c-2.3,1.5-6,2.3-11,2.3l-0.7,2.1H292l0.7-2.1
		c-5-0.1-8.4-0.7-10.3-1.7c-1.3-0.6-2.2-1.9-2.3-3.3c0.2-2.5,0.8-5,1.7-7.4l16.1-51.4c1.5-5.1,3.4-8.4,5.7-10
		C306.7,20.5,310.2,19.7,313.8,19.9z"/>
	<path class="st0" d="M484.8,87.9c-0.1-0.7-0.1-2.8-0.1-6.2V16h-3.4l-68.6,67.9c-3.5,3.7-7.3,7-11.5,9.9c-2.2,1.2-4.6,2-7.1,2.3
		l-0.6,2.1h30.3l-0.1-2.1c-2.2,0.1-4.4-0.4-6.4-1.4c-1.1-0.5-1.8-1.5-2-2.7c0-1,0.2-1.9,0.6-2.8c0.8-1.5,1.7-2.8,2.9-4l6.9-6.8
		l6.1-6.2H463l-0.1,10.3c0,4.4-0.6,7.5-1.6,9.2c-0.8,1.5-2.1,2.8-3.6,3.5c-2.5,0.5-4.9,0.7-7.4,0.8l-0.7,2.1h43.9l0.6-2.1
		c-2.5,0.1-4.9-0.7-6.9-2.2C485.5,92.3,484.7,90.2,484.8,87.9z M462.8,67.4h-26.1l26.8-26.2L462.8,67.4z"/>
	<path class="st0" d="M398.3,64.9c0.8-1.3,1.9-2.4,3.3-3c1.9-0.8,3.9-1.2,6-1.2l0.6-2.3h-43.5l-0.6,2.3c2.8-0.2,5.6,0.3,8.2,1.6
		c1.4,0.7,2.4,2.1,2.5,3.7c-0.2,2.4-0.8,4.7-1.6,7l-6.5,21.2c-3.1,1-6.4,1.6-9.6,1.7c-6.2,0-12.2-2.2-16.8-6.2
		c-4.9-4.2-7.6-10.2-8-18.1c-0.5-9.2,2.3-17.9,7-26.3c4.7-8.3,13.4-14.5,20.4-18.5c7.2-3.9,15.2-6.1,23.3-6.2c7,0,9,1.9,13.1,5.1
		c4.1,3.2,4.3,8.6,5.1,16h2.6l4.8-22c-0.1-1-0.4-2-0.9-2.9l0,0c-0.4-0.5-1-0.7-1.6-0.7c-8.1-0.6-13.8-0.7-18.6-0.7
		c-5.7,0-9.8,0.4-11.4,0.4c-16.8,0.8-31.3,4.1-44.3,11.8C315,37.4,307.1,49.8,307.9,65c0.3,7,2.9,13.6,7.3,19
		c4.3,5.4,10.1,9.6,16.5,12.2c7.5,2.7,15.5,4,23.5,3.8c11.4,0.1,22.8-1.7,33.6-5.2l7.5-23.9C396.7,68.9,397.4,66.9,398.3,64.9z"/>
	<path class="st0" d="M586.2,71.4c0.3,4.6-3.3,8.6-7.9,8.8c-0.2,0-0.4,0-0.5,0H551c-4.6,0-8.4-3.7-8.4-8.3c0,0,0,0,0,0
		c0-0.2,0-0.4,0-0.5V45.1c-0.3-4.6,3.3-8.6,7.9-8.9H576c4.6,0,8.4,3.7,8.4,8.3c0,0,0,0,0,0v2.7h19.4V36.7
		c0.1-11.2-8.6-20.5-19.6-20.6h-41.2c-10.9,0.1-19.7,9.4-19.6,20.6h0v41.2c-0.1,11.3,8.7,20.5,19.6,20.6H586
		c10.9-0.1,19.7-9.4,19.6-20.6V67.4h-19.4V71.4z"/>
	<path class="st0" d="M680,16.2h-62.5v82.5H680c11.9-0.3,21.3-10.2,21.3-22.4V38.6C701.3,26.4,691.9,16.5,680,16.2z M681.9,46v22.9
		c0.2,6.2-4.7,11.3-10.9,11.4c0,0,0,0,0,0h-34.3v0V34.5H671C677.2,34.6,682.1,39.8,681.9,46C681.9,46,681.9,46,681.9,46z"/>
	<path class="st0" d="M794.8,43.4c-5.7-1.5,0.5-6.2,3.4-6.6h26.4c7.9-0.2,14.3-6.7,14.1-14.7v-7.5c0.2-7.9-6.2-14.5-14.1-14.7h-31
		c-7.8,0-15.9,4.7-15.9,12.8v7.5h15.3v-1.5c-0.2-3.3,2.4-6.1,5.7-6.3c0,0,0,0,0,0h20.1c3.3,0,5.9,2.6,5.9,5.9c0,3-2.3,5.6-5.3,5.9
		c-0.2,0-0.4,0-0.6,0h-25.4l0,0c-7.8,0-15.7,4.2-15.7,12.3v7.5h0.1V55h60.9V43.4H794.8z"/>
	<path class="st0" d="M758.8,27.5L758.8,27.5c5.9-0.5,10.2-2.4,10.2-9V11c0-8.1-6.3-11-14.1-11h-27.6c-7.8,0-15.9,4.7-15.9,12.8v7.5
		h15.3v-1.5c-0.2-3.3,2.4-6.1,5.7-6.3c0,0,0,0,0,0h16.6c3.4,0,5.9,0.7,6,4.1c-0.1,3.3-2.7,5.9-6,5.9H736v10.2h15
		c3.3,0,5.9,2.6,6,5.9c-0.2,3.4-2.7,4.1-6,4.1h-18c-3.3,0-6-2.6-6.1-5.9c0-0.1,0-0.3,0-0.4v-1.5h-15.4v7.5c0,8.1,8.1,12.8,15.9,12.8
		h29.3c8.9-0.2,14.1-4.7,14.1-12.8v-5.7C770.8,29.3,765.6,27.8,758.8,27.5z"/>
</g>
</svg>
