<?xml version="1.0" encoding="utf-8"?>
<!-- Generator: Adobe Illustrator 25.4.1, SVG Export Plug-In . SVG Version: 6.00 Build 0)  -->
<svg version="1.1" id="Layer_1" xmlns="http://www.w3.org/2000/svg" xmlns:xlink="http://www.w3.org/1999/xlink" x="0px" y="0px"
	 viewBox="0 0 280.2 100" style="enable-background:new 0 0 280.2 100;" xml:space="preserve">
<style type="text/css">
	.st0{fill:#FFFFFF;}
</style>
<g>
	<path class="st0" d="M140.6,84c-2.1-1-3.5-1-8,0c-2.7,0.6-5.4-0.3-7.3-2.2c-0.9-1.2-0.9-1.8-1-19.1l-0.1-17.9h5.9
		c8,0,9.7-0.8,11.7-5.3c0.6-1.1,0.8-2.4,0.7-3.7c-0.5-2.7-2.2-5-4.6-6.3c-1.7-0.9-2.5-0.9-7.8-0.9h-5.8l-0.1-11.9l-0.1-11.9
		l-1.2-1.6c-2.4-2.9-6.3-4-9.9-2.7c-1.8,0.9-3.1,2.3-3.8,4.2c-0.5,1.3-0.6,3.6-0.6,12.7v11.1h-3.3c-4.4,0-6.5,1-8.2,4
		c-1.7,2.4-1.7,5.6-0.1,8c1.6,3.2,3.8,4.2,8.2,4.2h3.3l0.1,18.4c0.2,17.7,0.2,18.6,1.1,21.3c1.9,5.4,5.6,10,10.6,12.9
		c5.7,2.5,12,3.3,18.2,2.1c4.3-0.6,7.2-4.6,6.7-8.8C145,87.7,143.3,85.1,140.6,84z"/>
	<path class="st0" d="M7.8,1.2C6.7,1.3,5.5,1.6,4.5,2.1c-1.8,0.7-3.2,2.2-3.8,4C0.1,7.4,0,12.9,0,50.6c0,40.1,0,43.1,0.8,44.5
		c2.1,3.9,6.9,5.4,10.8,3.3c1.1-0.6,2.1-1.4,2.8-2.5l1.2-1.8V51c0-23.7-0.1-43.6-0.3-44.3C14,3.6,11.1,1.5,7.8,1.2z"/>
	<path class="st0" d="M183.5,28.2c-2.4-0.1-4.8,0-7.1,0.5c-10,2.4-17.2,8-20.6,16.1c-2.4,6-2.7,8.6-2.7,29.3c0,18.5,0,19,0.9,20.9
		c2,3.9,6.7,5.4,10.6,3.5c2-1,3.4-2.9,3.8-5.2c0.3-1.1,0.5-9.4,0.5-20.3c0-17.4,0-18.5,0.9-21c0.8-2.9,2.9-5.4,5.6-6.7
		c3.5-1,7.1-1.3,10.7-0.6c2.8,0.5,5.2,2.3,6.4,4.9c1.8,3.6,4.2,5.4,7.4,5.4c2.3,0.1,4.6-0.9,6.1-2.7c3-3.5,2.9-6.9-0.6-11.9
		C200.6,32.9,192.4,28.3,183.5,28.2z"/>
	<path class="st0" d="M74.3,30.4c-1.1,0.9-1.9,2-2.4,3.4c-0.5,1.4-0.6,4.4-0.6,20.6c0,17.9,0,19.1-0.9,21.8c-1.8,5.8-5.9,8.3-13,7.8
		c-5.3-0.3-8.1-2.2-10.2-6.8c-0.9-1.8-0.9-2.8-1.1-22.6l-0.2-20.7l-1.1-1.7c-2.4-3.2-6.7-4.4-10.4-2.8c-1.7,0.7-3,2.1-3.7,3.7
		c-0.7,1.6-0.8,3.2-0.8,21c0,16,0.1,19.9,0.7,22.6c1,5.6,3.7,10.8,7.8,14.8c3,3.2,6.7,5.6,10.9,7c3,1,4.1,1.1,9.2,1.2
		c5.1,0,6.1-0.1,9.2-1.2c9.5-3.2,15.9-10,18.6-20.1c0.9-3.2,0.9-4.4,1.1-22.8c0.2-20.7,0.1-21.5-1.9-23.9
		C82.7,28.1,77.7,27.6,74.3,30.4z"/>
	<path class="st0" d="M258.3,29.7c-4.7-1-9.6-1.2-14.4-0.4c-9.7,2.2-17.6,9.1-21.1,18.4c-2,5.5-2.4,8.4-2.4,16.3
		c0,10.9,1.5,17.3,5.9,23.8c3.7,5.5,9.2,9.4,15.6,11c5.4,1.1,10.9,1.1,16.2,0c7.9-2.1,14.5-7.5,18.1-14.8c2.5-5.3,3.8-11,3.9-16.9
		C281.2,48,272.7,33.5,258.3,29.7z M261.6,78c-2.6,3.9-7,6.1-11.6,6c-7.2,0-11.8-3.9-13.5-11.4c-0.9-4.2-0.7-15.1,0.4-18.2
		c1.2-4.3,4.4-7.7,8.6-9.2c3.5-1.1,7.3-0.9,10.8,0.5c2.6,1.2,4.8,3.3,6.1,5.9C265.6,57.9,265.2,72.2,261.6,78z"/>
</g>
</svg>
