<?xml version="1.0" encoding="utf-8"?>
<!-- Generator: Adobe Illustrator 25.4.1, SVG Export Plug-In . SVG Version: 6.00 Build 0)  -->
<svg version="1.1" id="Layer_1" xmlns="http://www.w3.org/2000/svg" xmlns:xlink="http://www.w3.org/1999/xlink" x="0px" y="0px"
	 viewBox="0 0 321.2 83.7" style="enable-background:new 0 0 321.2 83.7;" xml:space="preserve">
<style type="text/css">
	.st0{fill:#FFFFFF;}
</style>
<path class="st0" d="M244.2,0.1L217.2,0l-14.3,20.1L189,0.1l-68.8,0.1c-14.7,0.3-26.4,12.5-26.1,27.2c0.1,3.2,0.7,6.4,1.9,9.3
	c3.7,9.6,13.6,16.1,23.5,16.4h20.9c1.3-0.1,2.6,0.3,3.6,1.1c1,1,1.4,2.6,1,4c-1.1,3.3-4.9,2.6-7.5,2.7H98.3L81.6,0.2H62l-9.6,34.9
	L43.1,0.2h-20C21.7,5.3,0,83.5,0,83.5h23.6L33,51l8.6,32.6H63l9-32.4c0.1,0.1,9,32.4,9,32.4h58.6c10.1,0.5,19.7-4.7,24.8-13.5
	c7.3-12.6,3-28.8-9.7-36c-3.8-2.2-8-3.4-12.3-3.5h-21.1l-1.7-0.1c-1.1-0.4-2.1-1.2-2.5-2.3c-0.4-1-0.4-2.2,0.1-3.2
	c1.2-2.8,4.2-2,6.7-2.2l52.6-0.1L189,40c0,0-29.1,42.1-29.8,43.6h27.3l16.5-23.4l16.2,23.2h27.4l-29.7-43.6L244.2,0.1z"/>
<path class="st0" d="M321.2,27.1C321.2,5.5,306.1,0,293,0c-13.1,0-27.1,10-27.1,26.3v6.1h19.7v-4.5c0-5.6,2.8-9.1,7.6-9.1
	s7.2,2.9,7.2,8.7c0,13.1-22.3,18.5-31.5,35c-4,7.1-4.2,21.2-4.2,21.2H320V66.6h-27C294.4,56.2,321.2,49.8,321.2,27.1z"/>
</svg>
