<?xml version="1.0" encoding="utf-8"?>
<!-- Generator: Adobe Illustrator 25.4.1, SVG Export Plug-In . SVG Version: 6.00 Build 0)  -->
<svg version="1.1" id="Layer_1" xmlns="http://www.w3.org/2000/svg" xmlns:xlink="http://www.w3.org/1999/xlink" x="0px" y="0px"
	 viewBox="0 0 716.1 100" style="enable-background:new 0 0 716.1 100;" xml:space="preserve">
<style type="text/css">
	.st0{fill:#FFFFFF;}
</style>
<g>
	<path class="st0" d="M33.4,26h26c1.3,0,1.9-1.8,1.9-5.6c0-3.7-0.6-5.6-1.9-5.6h-26c-1.2,0-1.8,1.9-1.8,5.6
		C31.6,24.1,32.2,26,33.4,26z"/>
	<path class="st0" d="M76,20.4c0,3.7,0.6,5.6,1.8,5.6h26c1.3,0,1.9-1.8,1.9-5.6c0-3.7-0.6-5.6-1.9-5.6h-26
		C76.7,14.8,76,16.7,76,20.4z"/>
	<path class="st0" d="M137.1,26H163c1.3,0,1.9-1.8,1.9-5.6c0-3.7-0.7-5.6-1.9-5.6h-25.9c-1.2,0-1.8,1.9-1.8,5.6
		C135.3,24.1,135.9,26,137.1,26z"/>
	<path class="st0" d="M237.1,14.8h-26c-1.2,0-1.8,1.9-1.8,5.6c0,3.7,0.6,5.6,1.8,5.6h26c1.3,0,1.9-1.8,1.9-5.6
		C239,16.7,238.4,14.8,237.1,14.8z"/>
	<path class="st0" d="M270.3,26h25.9c1.3,0,1.9-1.8,1.9-5.6c0-3.7-0.6-5.6-1.9-5.6h-25.9c-1.2,0-1.8,1.9-1.8,5.6
		C268.5,24.1,269.1,26,270.3,26z"/>
	<path class="st0" d="M327.8,20.4c0,3.7,0.6,5.6,1.8,5.6h25.9c1.3,0,1.9-1.8,1.9-5.6c0-3.7-0.6-5.6-1.9-5.6h-25.9
		C328.4,14.8,327.8,16.7,327.8,20.4z"/>
	<path class="st0" d="M388.8,26h26c1.3,0,1.9-1.8,1.9-5.6c0-3.7-0.6-5.6-1.9-5.6h-26c-1.2,0-1.8,1.9-1.8,5.6
		C387,24.1,387.6,26,388.8,26z"/>
	<path class="st0" d="M431.4,20.4c0,3.7,0.6,5.6,1.8,5.6h25.9c1.3,0,1.9-1.8,1.9-5.6c0-3.7-0.6-5.6-1.9-5.6h-25.9
		C432,14.8,431.4,16.7,431.4,20.4z"/>
	<path class="st0" d="M492.4,26h25.9c1.3,0,1.9-1.8,1.9-5.6c0-3.7-0.6-5.6-1.9-5.6h-25.9c-1.2,0-1.8,1.9-1.8,5.6
		C490.6,24.1,491.2,26,492.4,26z"/>
	<path class="st0" d="M549.9,20.4c0,3.7,0.6,5.6,1.8,5.6h26c1.3,0,1.9-1.8,1.9-5.6c0-3.7-0.6-5.6-1.9-5.6h-26
		C550.5,14.8,549.9,16.7,549.9,20.4z"/>
	<path class="st0" d="M610.9,26h26c1.3,0,1.9-1.8,1.9-5.6c0-3.7-0.6-5.6-1.9-5.6h-26c-1.2,0-1.8,1.9-1.8,5.6
		C609.1,24.1,609.7,26,610.9,26z"/>
	<path class="st0" d="M51.6,11.1h40.8c1.3,0,1.9-1.9,1.9-5.6S93.6,0,92.3,0H51.6c-1.2,0-1.8,1.9-1.8,5.6S50.4,11.1,51.6,11.1z"/>
	<path class="st0" d="M140.4,11.1h85.2c1.3,0,1.9-1.9,1.9-5.6S226.8,0,225.6,0h-85.2c-1.2,0-1.8,1.8-1.8,5.6
		C138.6,9.3,139.2,11.1,140.4,11.1z"/>
	<path class="st0" d="M288.5,11.1h55.6c1.3,0,1.9-1.9,1.9-5.6S345.4,0,344.1,0h-55.6c-1.2,0-1.8,1.8-1.8,5.6
		C286.7,9.3,287.3,11.1,288.5,11.1z"/>
	<path class="st0" d="M406.9,11.1h40.8c1.3,0,1.9-1.9,1.9-5.6S449,0,447.7,0h-40.8c-1.2,0-1.8,1.9-1.8,5.6S405.8,11.1,406.9,11.1z"
		/>
	<path class="st0" d="M495.8,11.1h70.3c1.3,0,1.9-1.9,1.9-5.6S567.4,0,566.1,0h-70.3c-1.2,0-1.8,1.8-1.8,5.6
		C494,9.3,494.6,11.1,495.8,11.1z"/>
	<path class="st0" d="M714.2,0h-100c-1.2,0-1.8,1.8-1.8,5.6c0,3.7,0.6,5.6,1.8,5.6h100c1.3,0,1.9-1.9,1.9-5.6
		C716.1,1.9,715.5,0,714.2,0z"/>
	<path class="st0" d="M11.9,55.6h25.9c1.3,0,1.9-1.9,1.9-5.6s-0.7-5.6-1.9-5.6H11.9c-1.2,0-1.8,1.9-1.8,5.6S10.7,55.6,11.9,55.6z"/>
	<path class="st0" d="M112,44.4H86c-1.2,0-1.8,1.9-1.8,5.6c0,3.7,0.6,5.6,1.8,5.6h25.9c1.3,0,1.9-1.9,1.9-5.6S113.2,44.4,112,44.4z"
		/>
	<path class="st0" d="M130.3,55.6h25.9c1.3,0,1.9-1.9,1.9-5.6s-0.6-5.6-1.9-5.6h-25.9c-1.2,0-1.8,1.9-1.8,5.6S129.2,55.6,130.3,55.6
		z"/>
	<path class="st0" d="M230.3,44.4h-40.8c-1.2,0-1.8,1.9-1.8,5.6c0,3.7,0.6,5.6,1.8,5.6h40.8c1.3,0,1.9-1.9,1.9-5.6
		S231.6,44.4,230.3,44.4z"/>
	<path class="st0" d="M248.8,55.6h26c1.3,0,1.9-1.9,1.9-5.6s-0.6-5.6-1.9-5.6h-26c-1.2,0-1.8,1.9-1.8,5.6S247.6,55.6,248.8,55.6z"/>
	<path class="st0" d="M367.2,55.6h26c1.3,0,1.9-1.9,1.9-5.6s-0.6-5.6-1.9-5.6h-26c-1.2,0-1.8,1.9-1.8,5.6S366,55.6,367.2,55.6z"/>
	<path class="st0" d="M467.2,44.4h-26c-1.2,0-1.8,1.9-1.8,5.6c0,3.7,0.6,5.6,1.8,5.6h0.1h26c1.2,0,1.8-1.9,1.8-5.6
		S468.5,44.4,467.2,44.4z"/>
	<path class="st0" d="M485.7,55.6h26c1.3,0,1.9-1.9,1.9-5.6s-0.6-5.6-1.9-5.6h-26c-1.2,0-1.8,1.9-1.8,5.6
		C483.9,53.7,484.5,55.6,485.7,55.6z"/>
	<path class="st0" d="M585.7,44.4h-25.9c-1.2,0-1.8,1.9-1.8,5.6c0,3.7,0.6,5.6,1.8,5.6h25.9c1.3,0,1.9-1.9,1.9-5.6
		S587,44.4,585.7,44.4z"/>
	<path class="st0" d="M604.1,55.6h85.2c1.3,0,1.9-1.9,1.9-5.6s-0.6-5.6-1.9-5.6h-85.2c-1.2,0-1.8,1.9-1.8,5.6S602.9,55.6,604.1,55.6
		z"/>
	<path class="st0" d="M31.1,74H5.1c-1.2,0-1.8,1.9-1.8,5.6s0.6,5.6,1.8,5.6h25.9c1.3,0,1.9-1.9,1.9-5.6S32.3,74,31.1,74z"/>
	<path class="st0" d="M105.1,74H79.2c-1.2,0-1.8,1.9-1.8,5.6c0,3.7,0.6,5.6,1.8,5.6h25.9c1.3,0,1.9-1.9,1.9-5.6S106.4,74,105.1,74z"
		/>
	<path class="st0" d="M149.5,74h-25.9c-1.2,0-1.8,1.9-1.8,5.6s0.6,5.6,1.8,5.6h25.9c1.3,0,1.9-1.9,1.9-5.6S150.8,74,149.5,74z"/>
	<path class="st0" d="M210.7,79.6c0-3.7-0.6-5.6-1.9-5.6H168c-1.2,0-1.8,1.9-1.8,5.6c0,3.7,0.6,5.6,1.8,5.6h40.8
		C210,85.2,210.6,83.3,210.7,79.6z"/>
	<path class="st0" d="M284.7,79.6c0-3.7-0.6-5.6-1.9-5.6h-26c-1.2,0-1.8,1.9-1.8,5.6s0.6,5.6,1.8,5.6h26
		C284.1,85.2,284.7,83.3,284.7,79.6z"/>
	<path class="st0" d="M342.1,74h-26c-1.2,0-1.8,1.9-1.8,5.6s0.6,5.6,1.8,5.6h26c1.3,0,1.9-1.9,1.9-5.6S343.4,74,342.1,74z"/>
	<path class="st0" d="M386.5,74h-26c-1.2,0-1.8,1.9-1.8,5.6s0.6,5.6,1.8,5.6h26c1.3,0,1.9-1.9,1.9-5.6S387.8,74,386.5,74z"/>
	<path class="st0" d="M460.5,74h-26c-1.2,0-1.8,1.9-1.8,5.6c0,3.7,0.6,5.6,1.8,5.6h26c1.3,0,1.9-1.9,1.9-5.6S461.8,74,460.5,74z"/>
	<path class="st0" d="M479,85.2h25.9c1.3,0,1.9-1.9,1.9-5.6s-0.6-5.6-1.9-5.6H479c-1.2,0-1.8,1.9-1.8,5.6S477.8,85.2,479,85.2z"/>
	<path class="st0" d="M564.1,74h-25.9c-1.2,0-1.8,1.9-1.8,5.6s0.6,5.6,1.8,5.6h25.9c1.3,0,1.9-1.9,1.9-5.6S565.4,74,564.1,74z"/>
	<path class="st0" d="M597.4,85.2h26c1.3,0,1.9-1.9,1.9-5.6s-0.6-5.6-1.9-5.6h-26c-1.2,0-1.8,1.9-1.8,5.6S596.2,85.2,597.4,85.2z"/>
	<path class="st0" d="M27.8,88.9h-26c-1.2,0-1.8,1.9-1.8,5.6c0,3.7,0.6,5.6,1.8,5.6h26c1.3,0,1.9-1.8,1.9-5.6
		C29.7,90.7,29,88.9,27.8,88.9z"/>
	<path class="st0" d="M101.9,88.9h-26c-1.2,0-1.8,1.9-1.8,5.6s0.6,5.6,1.8,5.6h26c1.3,0,1.9-1.8,1.9-5.6
		C103.8,90.7,103.2,88.9,101.9,88.9z"/>
	<path class="st0" d="M146.2,88.9h-25.9c-1.2,0-1.8,1.9-1.8,5.6c0,3.7,0.6,5.6,1.8,5.6h25.9c1.3,0,1.9-1.9,1.9-5.6
		S147.5,88.9,146.2,88.9z"/>
	<path class="st0" d="M220.2,88.9h-40.8c-1.2,0-1.8,1.9-1.8,5.6s0.6,5.6,1.8,5.6h40.8c1.3,0,1.9-1.8,1.9-5.6
		C222.1,90.7,221.5,88.9,220.2,88.9z"/>
	<path class="st0" d="M323.9,88.9h-55.6c-1.2,0-1.8,1.9-1.8,5.6s0.6,5.6,1.8,5.6h55.6c1.3,0,1.9-1.8,1.9-5.6
		C325.8,90.7,325.1,88.9,323.9,88.9z"/>
	<path class="st0" d="M383.1,88.9h-26c-1.2,0-1.8,1.9-1.8,5.6s0.6,5.6,1.8,5.6h26c1.3,0,1.9-1.8,1.9-5.6
		C385,90.7,384.4,88.9,383.1,88.9z"/>
	<path class="st0" d="M457.1,88.9h-25.9c-1.2,0-1.8,1.9-1.8,5.6c0,3.7,0.6,5.6,1.8,5.6h25.9c1.3,0,1.9-1.8,1.9-5.6
		C459,90.7,458.4,88.9,457.1,88.9z"/>
	<path class="st0" d="M546,88.9h-70.4c-1.2,0-1.8,1.9-1.8,5.6s0.6,5.6,1.8,5.6H546c1.3,0,1.9-1.8,1.9-5.6
		C547.9,90.7,547.3,88.9,546,88.9z"/>
	<path class="st0" d="M694.1,88.9h-100c-1.2,0-1.8,1.9-1.8,5.6s0.6,5.6,1.8,5.6h100c1.3,0,1.9-1.9,1.9-5.6S695.3,88.9,694.1,88.9z"
		/>
	<path class="st0" d="M15.2,40.8h26c1.3,0,1.9-1.9,1.9-5.6s-0.6-5.6-1.9-5.6h-26c-1.2,0-1.8,1.9-1.8,5.6S14,40.8,15.2,40.8z"/>
	<path class="st0" d="M115.2,29.6h-26c-1.2,0-1.8,1.9-1.8,5.6s0.6,5.6,1.8,5.6h26c1.3,0,1.9-1.9,1.9-5.6S116.5,29.6,115.2,29.6z"/>
	<path class="st0" d="M133.7,40.8h25.9c1.3,0,1.9-1.9,1.9-5.6s-0.6-5.6-1.9-5.6h-25.9c-1.2,0-1.8,1.9-1.8,5.6S132.5,40.8,133.7,40.8
		z"/>
	<path class="st0" d="M233.8,29.6h-26c-1.2,0-1.8,1.9-1.8,5.6s0.6,5.6,1.8,5.6h26c1.3,0,1.9-1.9,1.9-5.6S235,29.6,233.8,29.6z"/>
	<path class="st0" d="M252.1,40.8h26c1.3,0,1.9-1.9,1.9-5.6s-0.6-5.6-1.9-5.6h-26c-1.2,0-1.8,1.9-1.8,5.6S250.9,40.8,252.1,40.8z"/>
	<path class="st0" d="M370.6,40.8h25.9c1.3,0,1.9-1.9,1.9-5.6s-0.6-5.6-1.9-5.6h-25.9c-1.2,0-1.8,1.9-1.8,5.6S369.4,40.8,370.6,40.8
		z"/>
	<path class="st0" d="M470.6,29.6h-26c-1.2,0-1.8,1.9-1.8,5.6s0.6,5.6,1.8,5.6h26c1.3,0,1.9-1.9,1.9-5.6S471.9,29.6,470.6,29.6z"/>
	<path class="st0" d="M489.1,40.8H515c1.3,0,1.9-1.9,1.9-5.6s-0.6-5.6-1.9-5.6h-25.9c-1.2,0-1.8,1.9-1.8,5.6S487.8,40.8,489.1,40.8z
		"/>
	<path class="st0" d="M589.1,29.6h-26c-1.2,0-1.8,1.9-1.8,5.6s0.6,5.6,1.8,5.6h26c1.3,0,1.9-1.9,1.9-5.6S590.4,29.6,589.1,29.6z"/>
	<path class="st0" d="M607.5,40.8h26c1.3,0,1.9-1.9,1.9-5.6s-0.6-5.6-1.9-5.6h-26c-1.2,0-1.8,1.9-1.8,5.6S606.3,40.8,607.5,40.8z"/>
	<path class="st0" d="M108.5,59.2H8.5c-1.2,0-1.8,1.9-1.8,5.6c0,3.7,0.6,5.6,1.8,5.6h100c1.3,0,1.9-1.9,1.9-5.6
		S109.8,59.2,108.5,59.2z"/>
	<path class="st0" d="M127,70.4h70.4c1.3,0,1.9-1.9,1.9-5.6s-0.6-5.6-1.9-5.6H127c-1.2,0-1.8,1.9-1.8,5.6S125.8,70.4,127,70.4z"/>
	<path class="st0" d="M273.3,64.8c0-3.7-0.6-5.6-1.9-5.6h-25.9c-1.2,0-1.8,1.9-1.8,5.6s0.6,5.6,1.8,5.6h25.9
		C272.6,70.4,273.3,68.5,273.3,64.8z"/>
	<path class="st0" d="M463.9,59.2h-100c-1.2,0-1.8,1.9-1.8,5.6s0.6,5.6,1.8,5.6h100c1.3,0,1.9-1.9,1.9-5.6S465.1,59.2,463.9,59.2z"
		/>
	<path class="st0" d="M482.3,70.4h26c1.3,0,1.9-1.9,1.9-5.6s-0.6-5.6-1.9-5.6h-26c-1.2,0-1.8,1.9-1.8,5.6S481.1,70.4,482.3,70.4z"/>
	<path class="st0" d="M582.4,59.2h-26c-1.2,0-1.8,1.9-1.8,5.6s0.6,5.6,1.8,5.6h26c1.3,0,1.9-1.9,1.9-5.6S583.6,59.2,582.4,59.2z"/>
	<path class="st0" d="M600.8,70.4h26c1.3,0,1.9-1.9,1.9-5.6s-0.6-5.6-1.9-5.6h-26c-1.2,0-1.8,1.9-1.8,5.6
		C599,68.5,599.6,70.4,600.8,70.4z"/>
</g>
</svg>
