<svg id="Calque_1" data-name="Calque 1" xmlns="http://www.w3.org/2000/svg" width="1654.09" height="100" viewBox="0 0 1654.09 100"><path d="M1228.75,24.66a23.36,23.36,0,0,0,.26-3.45,20,20,0,0,0-20.2-19.81q-62.65-.63-125.41,0v.05a19.43,19.43,0,0,0-3,.22,20.2,20.2,0,0,0-17,23Z" fill="#fff"/><polygon points="245.51 24.61 390.4 24.61 390.4 1.87 245.38 1.87 245.51 24.61" fill="#fff"/><rect x="605.26" y="32.18" width="40.6" height="67" fill="#fff"/><path d="M561.51,42c-24.91-1.1-49.91-.38-74.91-.38-.34,0-.8.68-1.27,1V62.2h11.18c12.63,0,25.34-.34,37.88.38a10.75,10.75,0,0,1,7.69,6.76c1.28,5-2.76,7.4-7.56,7.74H466.88c-12.42,0-13.65-1.41-13.65-14.16V31.59h-41V71.38c.08,17.56,10.5,28.31,28.31,28.31h49.7c22.19,0,44.43.39,66.57,0a28.73,28.73,0,0,0,28-27.29l.17,0a31.66,31.66,0,0,0-8.5-22.91A21.82,21.82,0,0,0,561.51,42Z" fill="#fff"/><path d="M1035,24.53c.68-14.2-8.12-23.3-22.32-23.3H871.05a54.78,54.78,0,0,0-6.51.9l-.17,0V16.5c0,2.5.34,4.93.56,8Z" fill="#fff"/><path d="M727.52,52.38h-73V79.71H727.4c.34,7.23.63,13.27.85,19.47h40.21l0-67h-41Z" fill="#fff"/><path d="M287.3,62.28H384V41H301.37c-7.14,0-13.51-.68-15.64-8.51H245.34V69c0,20.92,9.48,30.74,30.74,30.74H381.51c3,0,5.95-.51,8.89-.51v-22H298.65C288.71,77.25,285.86,73.63,287.3,62.28Z" fill="#fff"/><path d="M584.34,24.57V1.36H483.58c-16.32,0-32.56-.3-48.89,0h.13c-14.2.21-23.21,9.86-21.68,23.21Z" fill="#fff"/><path d="M768.43,21.76a20.57,20.57,0,0,0-20.75-20.4q-60.63-.51-121.21,0l0,0c-12.84.08-20.66,9.1-20.91,23H768.29A20,20,0,0,0,768.43,21.76Z" fill="#fff"/><path d="M198.15,1.19H6.84c-2,0-4.2.43-6.8.68l0,22.7H221.07C221.75,10.33,212.86,1.19,198.15,1.19Z" fill="#fff"/><rect x="90.72" y="32.31" width="39.83" height="66.96" fill="#fff"/><rect x="0.13" y="32.01" width="40.05" height="67.26" fill="#fff"/><polygon points="180.47 32.31 180.47 99.27 221.62 99.27 221.45 32.31 180.47 32.31" fill="#fff"/><path d="M994.59,65.68C994.51,74.87,992.42,77,983,77H922.32c-3.44,0-6.55.56-10.25.56v22c34.14,0,67.3.59,100.38-.26,13.9-.34,23.17-12.07,23.17-26.31v-.13c.12-7.82.34-15.64.34-23.51v-17H994.59Z" fill="#fff"/><path d="M1551,61.9h96.76V41.41c-3.87-.21-7.57-.55-11-.55h-70c-7.69,0-15.64.76-17.43-9.19h-37.11a18.05,18.05,0,0,0-3.7.85V68.66c-.25,21.34,9.23,31.25,30.48,31.25h106.29c3,0,6-.56,8.5-.56l.08-22.4h-91.87C1552.06,76.86,1549.21,73.25,1551,61.9Z" fill="#fff"/><path d="M1430.35,24.66h46.25L1492.93,0h-46.3C1441.53,7.69,1436.47,15.52,1430.35,24.66Z" fill="#fff"/><rect x="1508.95" y="1.74" width="145.14" height="22.83" fill="#fff"/><path d="M1413.56,49.53,1400.8,68.91l-12.75-19.42-11.4-17.31H1330.4l11.65,17.31,33.41,49.86h51l.17.05c11-16.54,22-32.87,33.46-49.87L1471.25,32H1425C1421.17,37.88,1417.38,43.62,1413.56,49.53Z" fill="#fff"/><path d="M1229.13,49.61a42.8,42.8,0,0,0,0-17.39h-40.21c-.17,3.07-.47,5.79-.47,8.51a14.13,14.13,0,0,1-2,8.76c-1.66,1.87-4.51,2.46-9.52,2.46h-63.35V79c14,0,27.12,1.11,39.45,0a30.06,30.06,0,0,1,29.08,12.29c2.72,3.53,7.1,7.86,11,8.12,14.46,1,29,.38,43.58.38l2.51-3.78c-9.19-7.57-18.33-15-28.57-23.47C1221.57,66.19,1227.22,58.58,1229.13,49.61Z" fill="#fff"/><polygon points="864.93 32.18 864.93 99.18 905.4 99.18 905.31 32.18 864.93 32.18" fill="#fff"/><polygon points="1355.48 0 1309.31 0 1325.47 24.53 1371.89 24.53 1355.48 0" fill="#fff"/><rect x="1062.91" y="32.1" width="40.73" height="67.09" fill="#fff"/><rect x="1254.56" y="1.79" width="40.26" height="22.87" fill="#fff"/><polygon points="1254.56 32.18 1254.56 99.35 1294.69 99.35 1294.31 32.18 1254.56 32.18" fill="#fff"/></svg>