<?xml version="1.0" encoding="utf-8"?>
<!-- Generator: Adobe Illustrator 25.4.1, SVG Export Plug-In . SVG Version: 6.00 Build 0)  -->
<svg version="1.1" id="Layer_1" xmlns="http://www.w3.org/2000/svg" xmlns:xlink="http://www.w3.org/1999/xlink" x="0px" y="0px"
	 viewBox="0 0 344.5 100" style="enable-background:new 0 0 344.5 100;" xml:space="preserve">
<style type="text/css">
	.st0{fill:#FFFFFF;}
</style>
<g>
	<path class="st0" d="M77.1,24.5c-0.3-0.9-0.5-1.8-0.7-2.8c-0.2-0.6-0.2-1.3-0.2-1.9c0-0.5,0.1-1,0.4-1.5c0.3-0.4,0.6-0.9,1-1.2
		l-3.9-9.3c-0.2-0.5-0.4-0.9-0.8-1.3C72,5.5,71,4.7,69.8,4c-2.1-1.1-4.3-2-6.6-2.5c-3.6-0.8-7.3-1.2-11-1.2c-1.1,0-2.1-0.1-3.2-0.1
		c-1,0-1.9-0.1-3-0.1S44.2,0,43.2,0h-2.8c-2.9,0-5.7,0.1-8.5,0.5c-3.1,0.4-6,1.2-8.9,2.2c-3.6,1.4-7,3-10.2,5
		C8.3,10.4,4,13.3,0,16.5l6.8,8.9c0.1,0,0.3,0,0.4-0.1c0.2,1.8,0.3,4.7,0.6,8.3c0.3,4.1,0.5,9,0.7,14.1C8.7,52.8,9,58.1,9,62.7
		c0.2,4.8,0.4,9,0.6,12c0.2,3,0.2,5.3,0.2,7.2c-0.1,1.5-0.3,2.9-0.7,4.3c-0.3,1-0.9,2-1.6,2.8c-0.9,0.8-1.8,1.6-2.8,2.3H4.6l6.7,6h1
		c6.6,0,13.2-0.8,19.6-2.4c6.1-1.5,12-3.8,17.5-6.8c5.2-2.8,10-6.4,14.2-10.5c3.8-4,7-8.6,9.4-13.6c2.1-4.5,3.6-9.2,4.6-14
		c0.8-3.9,1.2-7.8,1.1-11.7c0.2-2.9,0.1-5.8-0.5-8.6C78,27.9,77.6,26.2,77.1,24.5z M4.1,16.8C4.1,16.8,4.1,16.8,4.1,16.8L4.1,16.8
		C4,16.8,4,16.8,4.1,16.8z M5,17.8c-0.2-0.2-0.4-0.5-0.6-0.7c0.4,0.3,0.7,0.7,0.9,1.1C5.2,18.1,5.1,17.9,5,17.8z M53.3,10.7
		c-0.2-0.3-0.4-0.5-0.7-0.8C52.9,10.2,53.1,10.4,53.3,10.7z M49.8,7.7c1,0.7,1.9,1.3,2.7,2.1c-1-0.9-2.1-1.7-3.3-2.4
		C49.4,7.5,49.6,7.6,49.8,7.7z M48.8,7.3c-0.1,0-0.1,0-0.2-0.1C48.7,7.2,48.7,7.2,48.8,7.3z M46.6,6.5c-0.1,0-0.3-0.1-0.4-0.1
		C46.3,6.4,46.5,6.4,46.6,6.5z M45.3,6.2c0.1,0,0.2,0,0.3,0.1c-0.3-0.1-0.6-0.1-0.8-0.1c-0.7-0.1-1.4-0.2-2-0.3
		C43.6,6,44.5,6.1,45.3,6.2z M19.9,29.3L19.9,29.3l4.5,6.3L19.9,29.3z M59.2,48.5c-0.9,3.9-2.3,7.7-4.2,11.2
		c-2.4,4.6-5.2,9.1-8.4,13.2c-2.2,2.9-4.7,5.4-7.7,7.5c-2.3,1.6-4.8,2.8-7.6,3.5c-1,0.2-1.9,0.4-2.9,0.6c0-0.4-0.1-0.9-0.1-1.4
		c-0.3-4.5-0.6-10.6-1-16.7c-0.4-6.1-0.7-12.4-1.1-17.6c-0.3-5.3-0.5-9.4-0.5-11.4s-0.2-4.3,0-6.7c0.1-2.4,0.6-4.9,1.4-7.1
		c0.9-2.4,2.5-4.4,4.6-5.8c2.3-1.5,5.5-2.5,9.8-2.8c0.3,0,0.7,0,1-0.1h2.7c1.5,0,3.1,0.1,4.6,0.3c1.4,0.2,2.8,0.6,4.1,1.2
		c1.3,0.6,2.5,1.5,3.5,2.5c0.1,0.1,0.2,0.2,0.3,0.3c0.7,2.2,1.3,4.5,1.7,6.8c0.7,3.6,1,7.2,1.1,10.9C60.4,40.9,60,44.8,59.2,48.5z"
		/>
	<path class="st0" d="M85.7,77.5L85,76.3C85.2,76.7,85.4,77.1,85.7,77.5z"/>
	<path class="st0" d="M128.9,86.5L128.9,86.5l2.7-0.1c-0.6-0.1-1.2-0.4-1.7-0.7c-0.4-0.3-0.7-0.6-1-0.9c0-1.7,0.1-4.8,0.1-8.7
		c0-5.1,0.1-11.6,0.2-18c0.1-6.4,0.1-12.8,0.2-17.7c0.1-5,0.1-8.4,0.1-9v-1.8c0-0.4,0-0.9,0.1-1.3c0.1-0.4,0.2-0.7,0.3-1.1
		c0.2-0.3,0.5-0.6,0.8-0.8c0.2-0.1,0.4-0.3,0.6-0.4c0.2-0.1,0.3-0.3,0.4-0.5c0.1-0.2,0.2-0.4,0.2-0.6c0-0.1,0-0.3-0.1-0.4
		c-0.6-2.9-1-5.7-1.6-8.6v-0.1c0-0.2-0.1-0.5-0.2-0.7c-0.2-0.2-0.6-0.3-1.1-0.3h-0.3c-0.6,0-2.5,0.1-5.3,0.2
		c-2.8,0.2-6.4,0.3-10.5,0.6c-4.1,0.3-8.6,0.5-13.2,0.7c-4.6,0.2-9.3,0.6-13.6,0.8c0.3,0,0.6,0,0.9,0.1c0.5,0.1,1.1,0.3,1.5,0.6
		c0.4,0.2,0.8,0.6,1.1,1c-0.1-0.2-0.3-0.3-0.5-0.5c-0.4-0.3-0.8-0.6-1.3-0.7c-0.4-0.2-0.7-0.2-1.1-0.2H86l3,7.6
		c-0.6,0.8-1.2,1.6-1.9,2.3c-0.9,1.1-1.7,2.4-2.4,3.7c-1.1,2.1-2,4.3-2.8,6.5c-0.9,2.8-1.6,5.6-2,8.5c-0.4,2.8-0.6,5.6-0.5,8.4
		c0.1,2.7,0.3,5.4,0.8,8c0.4,2.5,1,4.9,1.9,7.2c0.9,2.5,1.9,4.9,3.2,7.2c0.3,0.6,0.6,1.2,0.9,1.7c-0.2-0.3-0.4-0.6-0.5-1l2.8,5.4
		c1,1.8,2,3.6,3.2,5.4c1.1,1.8,2.4,3.4,3.8,5c1.2,1.4,2.6,2.6,4.1,3.6c1.2,0.8,2.6,1.5,4.1,1.8l-2.9-6c-1.5-0.3-2.9-0.9-4.1-1.8
		c1.3,0.8,2.7,1.4,4.1,1.8c-2.2-2.6-4.1-5.4-5.7-8.3c-0.9-2.4-1.7-4.8-2.2-7.3c-0.2-0.8-0.3-1.7-0.4-2.5c-0.3-2-0.4-4-0.4-6
		c0-1.8,0.1-3.6,0.4-5.4c0.4-3.1,1.2-6.1,2.2-9c0.8-2.5,1.7-4.5,2.3-5.9v-0.1c0.7,0,1.7-0.1,2.9-0.2c1.3-0.1,2.9-0.2,4.6-0.2
		s3.6-0.2,5.4-0.2c1.8,0,3.7-0.1,5.5-0.1h0.9c0,3.2,0.1,7,0.1,10.8v13c0,3.9-0.1,6.9-0.1,8.2c0,2.1-0.8,4-2.2,5.5
		c-0.4,0.4-0.9,0.8-1.5,1.2c-0.2,0.1-0.4,0.2-0.6,0.3h-0.2v0.1l2.3,6.2h18.7l-1.6-6.3H128.9z M89.8,19.3
		C89.8,19.3,89.8,19.3,89.8,19.3c-0.1-0.1-0.1-0.2-0.2-0.4C89.7,19.1,89.7,19.2,89.8,19.3z M94.9,89.5c-0.4-0.3-0.8-0.6-1.1-1
		C94.2,88.8,94.5,89.2,94.9,89.5z M93.5,88.3c-0.4-0.4-0.9-0.8-1.3-1.3c-1.3-1.4-2.5-2.9-3.6-4.6c0.4,0.6,0.8,1.1,1.2,1.7
		C90.9,85.6,92.2,87,93.5,88.3z M115.1,20.9c-0.3-0.2-0.7-0.4-1.1-0.5C114.4,20.5,114.7,20.6,115.1,20.9z M111.9,20.2L111.9,20.2
		c-0.1,0-0.4,0.1-0.6,0.1c-0.1,0-0.2,0-0.3,0.1c0.1,0,0.2-0.1,0.2-0.1C111.4,20.3,111.7,20.2,111.9,20.2z M93.5,40.8
		c-0.3,0.7-0.6,1.5-1,2.4c0.5-1.2,0.9-2.3,1.3-3.1C93.7,40.3,93.6,40.6,93.5,40.8z M95.6,34.4L95.6,34.4c1.4-2.3,2.9-4.2,4.2-5.9
		c1.1-1.4,2.3-2.7,3.6-4c0.9-0.9,2-1.8,3.1-2.4c1-0.6,2-1,3.1-1.4c0.2-0.1,0.5-0.2,0.8-0.2c0.1,0,0.1,0,0.2,0c0,0-0.1,0-0.1,0
		l-0.8,0.2c-1.1,0.4-2.1,0.8-3.1,1.4c-1.1,0.7-2.2,1.5-3.1,2.4c-1.3,1.3-2.5,2.6-3.6,4C98.6,30.1,97.2,32,95.6,34.4z M107.5,39.5
		c1,0,1.9-0.1,2.8-0.1C109.4,39.4,108.5,39.5,107.5,39.5z M110.5,39.4c0.9,0,1.9,0,2.7,0C112.3,39.4,111.4,39.4,110.5,39.4z
		 M116.2,39.8l-0.1-0.4h0.1C116.2,39.5,116.2,39.6,116.2,39.8z M116.1,32c-0.1,0.4-0.2,0.8-0.4,1.1c-0.2,0.3-0.4,0.6-0.7,0.7
		c-0.4,0.2-0.8,0.3-1.2,0.3c-0.3,0-0.9,0.1-1.7,0.1c-0.8,0-1.8,0-2.8,0.1c-1.1,0.1-2.3,0.1-3.6,0.1h-0.8c0.4-0.4,0.8-0.9,1.2-1.3
		c0.9-0.9,1.9-1.7,3-2.4c1-0.5,2-1,3-1.4l0.8-0.2c0.2-0.1,0.5-0.1,0.7-0.2c0.2-0.1,0.4-0.1,0.7-0.1h0.6c0.5,0,0.9,0.1,1.4,0.2
		c0,0.2,0,0.2,0.1,0.2c0,0.4,0,0.9,0,1.2C116.4,31,116.3,31.5,116.1,32z M128.6,86.5h-15.4c0.4,0,0.7-0.1,1.1-0.1L128.6,86.5
		L128.6,86.5z M128.3,18.1c-0.1,0.1-0.2,0.3-0.3,0.4c0-0.1,0.1-0.1,0.1-0.2c0.1-0.4,0.4-0.7,0.8-0.8c0.3-0.2,0.6-0.5,0.9-0.8
		c0.1-0.1,0.1-0.2,0.2-0.3c0,0.1-0.1,0.2-0.1,0.2c-0.1,0.2-0.2,0.4-0.5,0.6c-0.2,0.2-0.4,0.3-0.6,0.5
		C128.6,17.8,128.5,18,128.3,18.1z"/>
	<polygon class="st0" points="135,85.8 134.7,85.8 136.1,92.1 136.5,92.1 136.8,92.1 135.3,85.8 	"/>
	<path class="st0" d="M228.9,26.8c0.5,0.5,1,1,1.3,1.6c0.3,0.7,0.6,1.4,0.7,2.2v1l2.4-8.6c0.2-0.1,0.2-0.2,0.1-0.4
		c0-0.2-0.1-0.5-0.1-0.7c-0.1-0.8-0.3-1.6-0.7-2.3c-0.4-0.6-0.8-1.2-1.4-1.7c-0.5-0.5-1.1-0.9-1.8-1.2c-0.6-0.3-1.2-0.6-1.9-0.8
		l-2.2,9c0.6,0.2,1.2,0.4,1.8,0.7C227.8,26,228.4,26.4,228.9,26.8z"/>
	<path class="st0" d="M238.8,87c-2.4,0-4.5-0.1-6.5-0.1c-1,0-1.8,0-2.6,0v0c0,0,0,0,0-0.1c0.8,0,1.6,0,2.5,0
		C234.2,86.8,236.4,86.9,238.8,87c2.4-0.1,5,0,7.6,0c-0.5-0.3-1-0.6-1.5-1.1c-0.4-0.5-0.8-1-1.1-1.5c-0.3-0.7-0.5-1.4-0.7-2.2
		c-0.2-1-0.2-1.9-0.2-2.9c0-1.1,0.1-4.1,0.2-8.1c0.2-4,0.3-9,0.6-14.2c0.2-5.2,0.5-10.7,0.7-15.4c0.2-4.7,0.5-8.9,0.7-11.5
		c0.1-1.3,0.2-2.5,0.3-3.5c0.1,0,0.1-0.1,0.2-0.1c0.3-0.2,0.6-0.6,1-0.8l3-8.9c-0.2,0.2-0.5,0.4-0.7,0.6c-0.1,0.1-0.2,0.2-0.3,0.3
		c-0.3,0.3-0.6,0.6-0.8,0.9c-0.2,0.3-0.5,0.7-0.6,1c-0.2,0.4-0.4,0.8-0.6,1.3c-0.2,0.7-0.4,1.3-0.7,2c0.2-0.9,0.4-1.7,0.6-2.6
		c0.3-0.8,0.7-1.5,1.2-2.1c0.5-0.6,1.1-1.1,1.7-1.6c-0.2,0-0.8-0.1-1.9-0.1s-2.7-0.1-4.5-0.2c-1.8-0.1-4.2-0.2-6.8-0.2
		c-2.6-0.1-5.5-0.2-8.5-0.2c0.6,0.2,1.3,0.5,1.9,0.8c0.6,0.3,1.2,0.7,1.8,1.2c0.5,0.5,1,1.1,1.4,1.7c0.4,0.7,0.6,1.5,0.7,2.3
		c0.1,0.6,0.1,1.3,0.2,2c0-0.3-0.1-0.6-0.1-0.9l-2.4,8.6v1.3h-18.6V26c0.5-0.4,1-0.8,1.6-1.1c0.7-0.4,1.4-0.8,2.2-1.1L218,15
		c-0.4,0.2-0.8,0.3-1.2,0.6c-0.2,0.1-0.4,0.2-0.7,0.3l-0.5,0.2c-0.6,0.3-1.1,0.8-1.6,1.2c-0.4,0.4-0.8,0.8-1.1,1.3
		c-0.3,0.4-0.4,0.9-0.5,1.4c0,0.1-0.1,0.3-0.1,0.4c0-0.5,0.1-0.9,0.2-1.4c0.2-0.6,0.6-1.1,1-1.5c0.5-0.5,1.1-1,1.8-1.5
		c0.8-0.5,1.7-0.9,2.6-1.3l-23.8-1.1c0,0,0.1,0,0.1,0.1c0,0,0,0,0,0c-0.1,0-0.1-0.1-0.2-0.1l-0.8,8.1c-1.3-1.3-2.7-2.5-4.1-3.7
		c-1.7-1.3-3.5-2.5-5.4-3.4c-1.9-0.9-3.9-1.6-5.9-2c-2.3-0.5-4.6-0.7-6.9-0.7h-1c-2.4,0-4.9,0.1-7.3,0.4c-2.7,0.4-5.4,0.9-8,1.7
		c-3.2,0.9-6.3,2.1-9.4,3.5c-3.4,1.5-7.2,3.4-11.5,5.8c0.5,0.1,1,0.1,1.4,0.2c0.4,0.1,0.9,0.3,1.2,0.6c0.4,0.5,0.8,1.1,1.1,1.7
		c0.4,1.1,0.7,2.2,0.9,3.3c0.1,0.6,0.2,1.5,0.3,2.6l-0.4-2.4c-0.2-1.1-0.5-2.3-0.9-3.3c-0.3-0.6-0.6-1.2-1.1-1.7
		c-0.4-0.3-0.8-0.5-1.2-0.6c-0.4-0.1-0.9-0.1-1.4-0.2l1.5,8.6c0.4,0,0.9,0,1.3,0.2c0.4,0.1,0.9,0.3,1.2,0.6c0.5,0.4,0.8,1,1,1.6
		c0.1,1.2,0.1,2.6,0.2,4.1c0.2,4.5,0.2,9.9,0.3,15.4c0.1,5.4,0.2,11.1,0.2,15.6v10c0,1-0.1,2.1-0.4,3.1c-0.2,0.7-0.5,1.4-1,1.9
		c-0.4,0.4-0.8,0.7-1.3,0.9c-0.3,0.2-0.7,0.3-1.1,0.3h15.8v0.1h-15.9l1.5,6.3h19.5l-0.7-6.3h-4.2v-0.1h4.4c-1.1-0.8-2-1.4-2.8-2
		c-0.6-0.4-1.1-1-1.5-1.5c0,0,0,0,0-0.1v-45c0-1.5,0.3-2.9,0.9-4.2c0.6-1.3,1.5-2.5,2.6-3.4c1.2-1,2.6-1.9,4-2.5
		c1.7-0.7,3.5-1.2,5.3-1.5c0.3-0.1,0.7-0.1,0.9-0.2c0.2-0.1,0.6-0.1,0.9-0.1s0.6-0.1,0.8-0.1h0.8c1.2,0,2.4,0.2,3.5,0.5
		c1,0.3,1.9,0.7,2.7,1.3c0.3,0.2,0.5,0.4,0.8,0.7c-1.2,1.4-2.5,2.8-3.9,4c-2.2,2-4.6,3.9-7.1,5.6c-2.9,2.1-6.3,4.4-10.4,6.9L154,52
		c2.7-0.7,5.7-1.4,9-2.3c3.4-0.9,6.7-2.1,10-3.4c3.7-1.5,7.2-3.4,10.5-5.6c3.8-2.5,7.2-5.5,10.2-8.9l0.9-8.4c0.6,0.5,1.2,1,1.7,1.6
		c0.7,0.8,1.2,1.7,1.5,2.6c0.5,1.2,0.9,2.4,1,3.7v0.8l1.2-8.6c0,0.3,0,0.5,0,0.8l-1,7.7v21.5c0,0.6,0,1.2-0.1,1.9v0.1
		c0,1.1-0.1,2.4-0.1,3.5c0,1-0.1,1.9-0.1,2.8v2c0,0.4,0,0.9-0.1,1.3v0.7c0,0.5,0,1-0.1,1.5V68c0,0.5,0,1-0.1,1.5v0.6
		c0,0.5,0,0.9-0.1,1.4v1.7c0,0.5,0,1-0.1,1.5v0.2c-0.1,3-0.2,5.6-0.3,7.6c-0.1,0.3-0.2,0.6-0.3,0.9c-0.3,0.9-0.9,1.7-1.6,2.3
		c-0.5,0.4-1,0.7-1.5,0.9c-0.3,0.1-0.5,0.2-0.8,0.2h3.6V87h-3.5l-0.9,6.2h19.2l1.7-6.2h-7.3h-9.1c0-0.1,0-0.1,0-0.2h0.2H214
		c-0.5-0.2-1-0.5-1.4-0.8c-0.5-0.3-0.8-0.8-1.1-1.3c-0.3-0.6-0.5-1.2-0.7-1.9c-0.2-0.8-0.3-1.6-0.3-2.4c0-0.9,0.1-3.9,0.2-7.8
		s0.3-8.9,0.5-13.7c0.1-4.3,0.4-8.6,0.5-12h5.2c1.9,0,4.1,0,6.4-0.1s5-0.1,7.8-0.1c0,0.4-0.1,2.7-0.2,5.9c-0.1,3.2-0.2,7.5-0.4,11.9
		c-0.2,4.4-0.3,8.9-0.5,12.8c-0.1,3.2-0.3,5.8-0.4,7.6c-0.3,0.3-0.6,0.6-1,0.8c-0.6,0.4-1.3,0.7-2,0.9c-0.3,0.1-0.7,0.2-1.1,0.2h2
		c0.5,0,1.2,0.1,1.9,0.1V87c-0.7,0-1.3,0-1.9-0.1h-2l-2.1,6.2h1.9c1,0,2.6,0,4.4,0.1c1.8,0.1,3.9,0,6.2,0.1c2.3,0.1,4.7,0.1,7.2,0.1
		l2.9-6.2C243.7,87.1,241.2,87,238.8,87z M233.6,32.7c0.1,0,0.2-0.2,0.2-0.5v0.7h-0.2V32.7z M158.4,18.6c-1.5,0.6-2.9,1.5-4.1,2.6
		c-0.2,0.2-0.5,0.5-0.7,0.7c0.3-0.3,0.5-0.5,0.8-0.8C155.6,20,157,19.1,158.4,18.6c0.7-0.3,1.2-0.5,1.8-0.7
		C159.6,18.1,159,18.3,158.4,18.6z M162.4,17.3c-0.2,0-0.3,0.1-0.5,0.1c0.7-0.2,1.3-0.3,2-0.4C163.4,17.1,162.9,17.2,162.4,17.3z
		 M160.8,17.7c0.2,0,0.3-0.1,0.5-0.1C161.1,17.6,161,17.7,160.8,17.7z M178,23.1L178,23.1c-0.6-1-1.2-1.8-1.9-2.6
		c-0.7-0.7-1.4-1.4-2.2-2c-0.1-0.1-0.1-0.1-0.2-0.2c0.1,0.1,0.2,0.1,0.3,0.2c0.8,0.6,1.5,1.3,2.2,2C176.9,21.3,177.5,22.1,178,23.1
		C178.1,23,178.1,23.1,178,23.1z M198.7,18.7c-0.4-1-1-1.9-1.6-2.7c-0.5-0.6-1.1-1.2-1.7-1.6c-0.3-0.3-0.8-0.5-1.2-0.7c0,0,0,0,0,0
		c0.3,0.2,0.7,0.4,1.2,0.6c0.6,0.5,1.2,1,1.7,1.6c0.6,0.8,1.2,1.7,1.6,2.7c0.3,0.6,0.5,1.1,0.7,1.7C199.2,19.8,199,19.2,198.7,18.7z
		 M199.7,22.1c0,0.1,0,0.2,0.1,0.3c0,0,0,0.1,0,0.1c0,0,0,0,0,0C199.8,22.4,199.8,22.2,199.7,22.1z M231.5,82.2c0,0.1,0,0.1-0.1,0.2
		c0,0.1-0.1,0.2-0.1,0.3c0,0.1-0.1,0.1-0.1,0.2l0.4-1.4c0,0,0-0.1,0.1-0.1C231.6,81.7,231.5,81.9,231.5,82.2z M233.5,38.5
		c-0.5,0.1-1,0.1-1.6,0.1C232.4,38.6,233,38.6,233.5,38.5z M233.5,38.8L233.5,38.8l-2.4,7.9L233.5,38.8z M218.7,38.8
		c1.9-0.1,4.2-0.2,6.8-0.1c1.8-0.1,3.7-0.1,5.7-0.1c-2,0.1-3.9,0.1-5.7,0.1C223,38.7,220.7,38.8,218.7,38.8z"/>
	<path class="st0" d="M283.6,88c0.5-0.6,0.9-1.2,1.3-1.9c-0.5,0.8-1,1.5-1.5,2.2C283.4,88.2,283.5,88.1,283.6,88z"/>
	<path class="st0" d="M283.4,88.3c-0.1,0.1-0.2,0.2-0.3,0.3C283.2,88.5,283.3,88.4,283.4,88.3z"/>
	<path class="st0" d="M295.3,27.6l4-7c0,0,0.1,0,0.1-0.1h-12.3l-0.1-0.1v0.1l-4.5,8.7l0.1,0.1c0.2,0.1,0.3,0.2,0.5,0.4
		c0.1,0.1,0.2,0.1,0.2,0.2c0.1,0.1,0.2,0.3,0.3,0.4l0.1,0.1c0,0,0.1,0.1,0.1,0.2c0.1,0.2,0.2,0.3,0.3,0.5c0.1,0.2,0.1,0.2,0.2,0.2
		v0.1c0.1,0.1,0.2,0.3,0.2,0.5c-2.2-2.1-4.5-4.1-7-5.9c-2.6-1.9-5.4-3.6-7.6-5c-2.3-1.4-4.2-2.4-5.5-3.2c-0.3-0.2-0.7-0.3-0.9-0.5
		c-0.3-0.1-0.5-0.2-0.8-0.3c-0.2-0.1-0.5-0.1-0.7-0.2c-0.2-0.1-0.5-0.1-0.7-0.1c-0.6,0-1.1,0.1-1.6,0.3c-0.7,0.5-1.3,1-1.9,1.7
		c-0.8,0.9-1.5,1.8-2.1,2.8c-0.7,1.1-1.6,2.4-2.6,3.8c0.6,0,1.3,0.1,1.9,0.2c0.4,0.1,0.8,0.4,1.1,0.7c0.3,0.4,0.4,0.9,0.5,1.4
		c0.1,0.7,0.2,1.4,0.2,2.1c0,0.9-0.2,3.9-0.3,8c-0.2,4.2-0.5,9.4-0.7,14.8s-0.6,10.8-0.8,15.4c-0.2,4.6-0.5,8-0.6,9.6
		c0,1.3-0.3,2.5-0.7,3.7c-0.2,0.6-0.5,1.1-0.8,1.6l0.4-0.9c0.1-0.2,0.2-0.4,0.2-0.6v-0.1l0.1-0.6l0.2-0.4V80c0.1-0.3,0.1-0.7,0.2-1
		c0.1-0.3,0.1-0.5,0.1-0.8V78c0.2-1.7,0.5-5.3,0.7-9.8c0.2-4.5,0.6-10,0.8-15.4s0.6-10.6,0.7-14.8c0.2-4.1,0.3-7.2,0.3-8v-0.6
		c0-0.2,0-0.5-0.1-0.7c-0.1-0.6-0.2-1-0.2-1.4l-0.2-0.5v-0.1c-0.1-0.2-0.2-0.3-0.3-0.4c-0.2-0.1-0.2-0.2-0.4-0.3
		c-0.2-0.1-0.4-0.2-0.6-0.2h-0.1c-0.2-0.1-0.4-0.1-0.7-0.2h-0.1c-0.2,0-0.6-0.1-0.9-0.1l-3.2,8.5c0.1-0.1,0.4-0.1,0.8,0
		c0.2,0.2,0.5,0.3,0.7,0.3c0.1,0,0.2,0,0.2,0.1c0,0.1,0.1,0.1,0.2,0.1s0.2,0.1,0.3,0.2c0.1,0.1,0.2,0.1,0.2,0.2l0.1,0.1l0.2,0.2
		l0.1,0.1v0.1c0.1,0.1,0.1,0.2,0.2,0.3c0,0.1,0,0.1,0.1,0.2c0.1,0.2,0.1,0.4,0.2,0.7c0,0.2,0.1,0.5,0.1,0.7v1.5c0,1-0.1,3.7-0.3,7.5
		c-0.2,4-0.4,9.1-0.7,14.2c-0.3,5.1-0.6,10.4-0.8,14.8c-0.2,4.4-0.5,7.7-0.6,9.2v0.1c-0.3,0.1-0.5,0.3-0.8,0.4
		c-0.9,0.3-1.9,0.5-2.9,0.7c0.1,0,0.8,0,1.8,0.2c0.5,0.1,1,0.1,1.7,0.2c0,0.1,0,0.2-0.1,0.4c-0.7-0.1-1.3-0.1-1.8-0.2
		c-1-0.2-1.7-0.2-1.8-0.2l-3,6.3c0.1,0,0.7,0.1,1.7,0.2c1,0.1,2.3,0.2,3.7,0.4c1.5,0.2,3.1,0.2,4.7,0.4c1.6,0.2,3.2,0.2,4.5,0.2
		l3.5-6.2c-1.4-0.1-3-0.2-4.6-0.3c-1.6-0.1-3.3-0.2-4.9-0.4c-0.6-0.1-1.1-0.1-1.6-0.2l0.2-0.3c0.5,0,1,0.1,1.6,0.2
		c1.5,0.2,3.2,0.3,4.9,0.4l4.6,0.2c-0.6-0.3-1-0.8-1.4-1.3c-0.4-0.6-0.8-1.3-1-2c-0.3-0.7-0.5-1.5-0.6-2.2c-0.2-0.7-0.2-1.3-0.2-2
		c0.1-0.6,0.2-3,0.3-6.3c0.2-3.2,0.4-7.5,0.7-12c0.2-4.5,0.6-9.1,0.7-13.2c0.1-3.4,0.3-6.4,0.5-8.6c0.3,0.1,0.5,0.2,0.7,0.3
		c0.3,0.1,0.7,0.2,1,0.4c1.7,0.8,3.2,1.7,4.6,2.9c2.2,1.7,4.3,3.6,6.3,5.5c2.2,2.1,4.2,4.5,5.9,7c1.6,2.2,2.9,4.7,3.7,7.4
		c0,0.1,0,0.2,0.1,0.2c0.1,0.3,0.2,0.5,0.2,0.8c0,0.2,0.1,0.2,0.1,0.4s0.1,0.3,0.1,0.6V65c0.1,0.4,0.1,0.7,0.2,1.1v0.2
		c0,0.2,0.1,0.4,0.1,0.6c0,0.1,0,0.2,0.1,0.4l-0.1,0.1V68c0,0.2,0.1,0.5,0.1,0.8V72c0,0.3,0,0.6-0.1,0.8v0.3l4.6-7
		c0-0.2,0-0.3,0.1-0.5c0-0.2,0-0.5,0.1-0.7c0-0.3,0-0.7,0.1-1c0,0.8-0.1,1.6-0.2,2.4l-4.5,6.9c0,0.2-0.1,0.4-0.1,0.7
		s-0.1,0.6-0.1,0.8v0.1c-0.1,0.5-0.2,1.1-0.2,1.5v0.1c-0.1,0.3-0.1,0.6-0.2,0.9c-0.1,0.3-0.1,0.4-0.2,0.6c-0.1,0.2-0.1,0.2-0.1,0.3
		c0,0.1-0.1,0.3-0.1,0.5s-0.1,0.3-0.1,0.5c0,0.1,0,0.1,0,0.2l-0.1,0.1c0,0.2-0.1,0.3-0.2,0.5c-0.1,0.4-0.2,0.9-0.3,1.4
		c0,0.1,0,0.2-0.1,0.2c-0.1,0.2-0.1,0.3-0.2,0.5l-0.5,1.5c0,0.1,0,0.1-0.1,0.2c-0.1,0.1-0.1,0.3-0.2,0.5c-0.2,0.5-0.3,1-0.6,1.6V86
		c-0.1,0.1-0.2,0.3-0.2,0.5c-0.1,0.4-0.2,0.7-0.4,1l4-5.7c-0.1,0.2-0.2,0.4-0.2,0.6l-3.8,5.2c0,0.1-0.1,0.2-0.1,0.3
		c0,0.1-0.1,0.2-0.2,0.3V88l0,0l0,0c-0.1,0.2-0.2,0.4-0.2,0.7l-0.7,1.7c-0.1,0.1-0.1,0.2-0.2,0.4c-0.9,2.1-2,4.3-3.2,6.6l-0.4,0.6
		c0.1-0.1,0.1-0.1,0.2-0.2c0,0.1-0.1,0.2-0.1,0.3l0.3-0.4c0.3-0.2,0.5-0.5,0.8-0.7c0.4-0.4,0.9-0.8,1.2-1.3c0.4-0.5,0.9-1,1.3-1.5
		c0.4-0.5,0.9-1.1,1.3-1.8c0.9-1.3,1.8-2.5,2.6-3.7c-0.3,0.3-0.6,0.7-0.9,1c-0.4,0.5-0.9,0.9-1.3,1.3c-0.3,0.3-0.6,0.6-0.9,0.8
		c0-0.1,0.1-0.2,0.1-0.3c1.1-1,2.2-2.1,3.1-3.3c1.4-1.8,2.7-3.6,3.8-5.5c1.3-2.2,2.5-4.6,3.4-7c1-2.6,1.8-5.3,2.3-8
		c0.5-2.8,0.9-6,1.2-9.4s0.5-7,0.7-10.4c0.2-3.4,0.3-6.8,0.4-9.8c0.1-3,0.4-5.5,0.4-7.5C295.3,29.4,295.3,28.5,295.3,27.6z
		 M250.9,86.4L251,86h0.1C251,86.2,250.9,86.3,250.9,86.4z M288.6,21.6c0.1,0.3,0.3,0.5,0.4,0.6c0,0,0,0-0.1,0
		c-0.1-0.1-0.2-0.3-0.3-0.5C288.6,21.7,288.6,21.7,288.6,21.6z M262.7,31.1c0.1-0.1,0.3-0.2,0.5-0.3c-0.1,0-0.1,0-0.2,0.1
		C262.9,31,262.8,31,262.7,31.1z M264,30.9c-0.2-0.1-0.4-0.1-0.6-0.1c0,0-0.1,0-0.2,0c0.1,0,0.3-0.1,0.4,0c0.2,0,0.4,0,0.6,0.1
		c0.3,0,0.5,0.1,0.7,0.2c0.1,0,0.1,0,0.2,0.1c-0.1,0-0.3-0.1-0.4-0.1C264.5,31,264.2,30.9,264,30.9z M278.1,40.5
		c-2.1-2-4.3-3.9-6.6-5.7c-1.5-1.2-3.2-2.2-4.9-3c-0.3-0.2-0.7-0.2-1-0.4c-0.1-0.1-0.3-0.2-0.4-0.2c0.2,0.1,0.4,0.1,0.6,0.2
		c0.3,0.2,0.7,0.2,1,0.4c1.7,0.8,3.4,1.8,4.9,3c2.3,1.8,4.5,3.7,6.6,5.7c2.2,2.2,4.2,4.6,6,7.2C282.4,45.1,280.4,42.7,278.1,40.5z
		 M288.9,60.8c0-0.2-0.1-0.4-0.1-0.7l0.1-0.1c0-0.2,0-0.4-0.1-0.6v-0.3l-0.1-0.7c0.2,1.2,0.3,2.4,0.4,3.7c0-0.2,0-0.4-0.1-0.6
		C289,61.2,289,61,288.9,60.8z M288.8,67.1c0-0.2,0.1-0.4,0.1-0.7c-0.1,0.7-0.1,1.4-0.2,2.1c0-0.2,0-0.4,0-0.6
		C288.7,67.6,288.8,67.3,288.8,67.1z M287.1,74.3c0.1-0.4,0.2-0.8,0.3-1.2c0-0.1,0.1-0.2,0.1-0.3C287.4,73.3,287.2,73.8,287.1,74.3z
		 M288.1,71.5l0.2-1.2c0.1-0.2,0.1-0.5,0.2-0.6c-0.1,0.7-0.2,1.4-0.4,2C288.1,71.6,288.1,71.6,288.1,71.5z M290.8,39.8
		c0-0.7,0.1-1.3,0.1-2c-0.1-0.2-0.1-0.4-0.1-0.6v-5.1C291,34.2,291,36.8,290.8,39.8z"/>
	<path class="st0" d="M280.4,87.5l-0.3,0.5L280.4,87.5C280.4,87.5,280.4,87.5,280.4,87.5z"/>
	<path class="st0" d="M329.5,93.1c-2.4-0.8-4.7-1.8-6.9-3c-2.9-1.7-5.6-3.7-8-6c-3.1-3.1-5.8-6.5-8-10.2c-0.3-0.5-0.6-1-0.8-1.5
		c-0.1-0.2-0.2-0.2-0.2-0.4c-0.2-0.4-0.4-0.7-0.6-1.1c-0.1-0.1-0.1-0.2-0.2-0.3c-0.2-0.4-0.4-0.9-0.6-1.3v-0.1
		c-0.3-0.7-0.6-1.3-0.8-2c-0.1-0.2-0.2-0.4-0.2-0.6c-0.2-0.6-0.4-1.1-0.6-1.7c0-0.1-0.1-0.2-0.1-0.3c0-0.1,0-0.1-0.1-0.2
		c-0.2-0.7-0.4-1.3-0.6-2c-0.1-0.2-0.1-0.3-0.2-0.6c-0.1-0.3-0.2-0.6-0.2-0.9c-0.1-0.3-0.1-0.5-0.2-0.7c0-0.1-0.1-0.2-0.1-0.3v-0.2
		c-0.2-0.7-0.3-1.3-0.3-2c0-0.1,0-0.3-0.1-0.4c-0.1-0.5-0.1-1.1-0.2-1.6v-0.3l-5,7.4V63c0.1,0.5,0.1,1,0.2,1.5c0,0.1,0,0.3,0.1,0.4
		c0.1,0.7,0.2,1.3,0.3,2c0,0.2,0.1,0.3,0.1,0.6c0.1,0.6,0.2,1,0.3,1.6c0,0.2,0.1,0.3,0.1,0.5c0.1,0.7,0.3,1.3,0.6,2
		c0.1,0.2,0.1,0.3,0.2,0.4c0.1,0.6,0.3,1.1,0.6,1.6c0.1,0.2,0.1,0.3,0.2,0.5c0.2,0.6,0.5,1.3,0.8,2c0,0.1,0.1,0.2,0.2,0.2
		c0.2,0.6,0.6,1.1,0.8,1.8c0.1,0.2,0.2,0.4,0.2,0.6c0.3,0.7,0.7,1.3,1.1,2c2.2,3.6,4.8,6.9,7.7,9.8c2.3,2.2,4.9,4.2,7.7,5.8
		c2.1,1.2,4.3,2.1,6.6,2.8c1.5,0.5,3,0.8,4.5,1.1l6.5-5.9c-1.6-0.2-3.2-0.5-4.7-1L329.5,93.1z"/>
	<path class="st0" d="M300.4,55.2c0.1-0.1,0.1-0.2,0.1-0.2c-0.1-0.7-0.1-1.4-0.2-2.1v-0.4c0-0.6,0-1.2-0.1-1.8v-3
		c0-0.6,0.1-1.2,0.1-1.8v-0.1l0.1-0.2v-0.1c0.1-0.6,0.1-1.2,0.2-1.9v-0.5c0.1-0.6,0.2-1.2,0.2-1.8V41l0.2-1.5v-0.2
		c0-0.2,0.1-0.4,0.1-0.5l0.7-1.1c0-0.1,0.1-0.2,0.1-0.2c0.1-0.3,0.2-0.7,0.2-1.1c0-0.1,0-0.1,0.1-0.2v-0.1c0.1-0.4,0.2-0.8,0.3-1.1
		c0-0.1,0.1-0.2,0.1-0.2c0.1-0.2,0.2-0.6,0.2-0.8c0-0.1,0-0.1,0.1-0.2v-0.1c0.1-0.3,0.2-0.6,0.3-0.9v-0.1l-5.1,8.3
		c-0.1,0.2-0.2,0.6-0.3,0.9c0,0.1-0.1,0.2-0.1,0.2c-0.1,0.2-0.2,0.5-0.2,0.8c0,0.1-0.1,0.2-0.1,0.2c-0.1,0.3-0.2,0.7-0.3,1.1
		c0,0.1-0.1,0.2-0.1,0.3l-0.2,0.9l-0.2,0.3v0.1c-0.1,0.5-0.2,1.1-0.3,1.5c0,0.1,0,0.2-0.1,0.2c-0.1,0.5-0.2,1.1-0.3,1.6v0.2
		c-0.1,0.6-0.2,1.1-0.2,1.8c0,0.1,0,0.2-0.1,0.3c-0.1,0.6-0.1,1.2-0.2,1.8l-0.1,0.1v0.1c-0.1,0.6-0.1,1.2-0.1,1.9v0.3
		c0,0.7-0.1,1.3-0.1,2V58c0,0.6,0,1.2,0.1,1.9v0.3c0,0.7,0.1,1.3,0.2,2v0.2L300.4,55.2z"/>
	<path class="st0" d="M298.5,30.4l0.1-0.2c0,0,0,0,0,0C298.5,30.2,298.5,30.2,298.5,30.4z"/>
	<path class="st0" d="M344.4,24.4c0-0.1,0-0.1-0.1-0.2c0,0-0.1-0.1-0.2-0.1h-0.2c-0.2,0-0.4,0-0.7,0.1c-0.3,0-0.6,0.1-0.9,0.2
		c-0.3,0.1-0.6,0.2-1.1,0.2c-0.4,0.1-0.9,0.2-1.3,0.2h-0.6c-0.8,0-1.9-0.1-3.2-0.2c-1.3-0.1-2.8-0.2-4.5-0.4s-3.7-0.4-5.8-0.6
		c-2.1-0.2-4.5-0.6-6.9-0.9c-1.8-0.2-3.4-0.5-4.8-0.7c-1.4-0.2-2.6-0.3-3.7-0.4c-1.1-0.1-2-0.2-2.7-0.2c-0.6-0.1-1.3-0.1-2-0.1
		c-0.2,0-0.5,0-0.3-0.1c-0.2,0.1-0.4,0.1-0.6,0.1s-0.3,0.1-0.5,0.1s-0.2,0.1-0.4,0.1c0.7,0.3,1.2,0.8,1.6,1.5
		c0.2,0.4,0.4,0.8,0.5,1.2c0,0,0,0,0,0c0-0.1-0.1-0.2-0.1-0.2l-0.1-0.2l-0.1-0.2l-0.1-0.2c0-0.1-0.1-0.2-0.2-0.2
		c-0.1-0.1-0.1-0.2-0.2-0.2l-0.2-0.2l-0.2-0.2l-0.2-0.2l-0.2-0.2l-0.2-0.2c-0.1-0.1-0.2-0.1-0.3-0.2c-0.1,0-0.1-0.1-0.2-0.1
		l-5.1,8.5c0.1,0.1,0.2,0.2,0.3,0.2c0,0.2,0.1,0.2,0.2,0.2c0.1,0.1,0.2,0.1,0.2,0.2l0.2,0.2c0.1,0.1,0.2,0.1,0.2,0.2l0.2,0.2
		c0,0.1,0.1,0.1,0.1,0.2c0,0,0,0.1,0.1,0.1c0,0,0,0.1,0.1,0.1c0,0,0.1,0.1,0.1,0.2s0.1,0.2,0.1,0.2c0,0.1,0.1,0.2,0.1,0.2
		s0,0.1,0.1,0.1v0.1c0,0.1,0.1,0.2,0.1,0.2c0,0.1,0,0.2,0.1,0.2c0,0.1,0,0.2,0.1,0.2l-0.1,0.1v0.9v0.1v0.3c0,0.1,0,0.2-0.1,0.3V35
		c0,0.1,0,0.2-0.1,0.2c0,0.1,0,0.2-0.1,0.3v0.2c0,0.2-0.1,0.2-0.1,0.4c0,0.2,0,0.1-0.1,0.2v0.1c0,0.1,0,0.1-0.1,0.2
		c-0.1,0.1,0,0.1-0.1,0.2c-0.1,0.1-0.1,0.2-0.1,0.3c0,0.2-0.1,0.2-0.1,0.2c0,0.1-0.1,0.2-0.2,0.4l-0.1,0.1c0,0,0,0.1-0.1,0.1V38
		c-0.1,0.1-0.1,0.2-0.2,0.3l-0.2,0.5c0,0.1,0,0.1-0.1,0.2c-0.1,0.1-0.1,0.2-0.2,0.3c-0.1,0.1-0.1,0.3-0.2,0.4c0,0,0,0.1-0.1,0.1
		c-0.2,0.3-0.3,0.7-0.5,1.1l5.2-8.3c0.1-0.1,0.1-0.2,0.2-0.3c0.1-0.1,0.1-0.1,0.1-0.2c0-0.1,0-0.1,0.1-0.2c0.1-0.1,0.1-0.2,0.2-0.2
		c0-0.1,0-0.1,0.1-0.2v-0.1c0.2-0.3,0.3-0.7,0.5-1.1c0-0.1,0.1-0.1,0.1-0.2l0.4-0.6c0.1-0.2,0.1-0.4,0.2-0.7c0-0.1,0.1-0.2,0.1-0.3
		c0-0.1,0.1-0.3,0.2-0.4c0.1-0.1,0.1-0.2,0.1-0.3s0.1-0.4,0.2-0.6v-0.1l-1.8,2.8l1.8-3c0.1-0.2,0.1-0.4,0.2-0.7
		c0.1-0.2,0.1-0.4,0.1-0.6V25v-0.2l0.1-0.1c0,0.1,0,0.2,0,0.3c0,1-0.2,1.9-0.5,2.8c-0.4,1.3-0.9,2.5-1.5,3.7c-1,2.1-1.7,4.3-2.2,6.6
		c-0.7,3.4-1.2,6.9-1.3,10.3c-0.1,4.2,0.3,8.3,1.1,12.4c1,4.6,2.8,8.9,5.2,12.9c2.2,3.7,5,7.2,8,10.2c2.4,2.3,5.1,4.3,8,6
		c2.2,1.2,4.5,2.2,6.9,3c1.6,0.5,3.1,0.8,4.8,1.1c-3.2-1.8-6.3-3.9-9-6.4c-3-2.7-5.5-5.8-7.6-9.3c-2.4-3.9-4.1-8.1-5.2-12.5
		c-1.1-4.6-1.7-9.3-1.8-14c0.9,0,1.9,0,2.8,0.2c0.9,0.1,1.9,0.2,2.8,0.5c0.8,0.2,1.7,0.6,2.4,1c0.8,0.4,1.5,1,2,1.7l6.1-7.7
		c-0.6-0.7-1.3-1.3-2.1-1.7c-0.8-0.5-1.6-0.8-2.5-1c-0.4-0.1-0.8-0.2-1.2-0.3c0.6,0.1,1.2,0.2,1.7,0.4c0.9,0.3,1.7,0.6,2.5,1
		c0.7,0.4,1.4,0.9,2,1.5c-0.1,0-0.1,0.1-0.2,0.1l-6.1,7.7l1.4-1.1c0.4-0.3,0.8-0.7,1.1-1l0.8-0.8c0.2-0.2,0.4-0.5,0.7-0.7
		c1.6-2,3.2-4,4.8-6.1l0.1-0.1c0.6-0.5,1.1-1,1.5-1.5c0.3-0.3,0.5-0.6,0.7-1c0.1-0.2,0.1-0.3,0.1-0.5l3.8-4.8l1.3-1.6v-0.1v-0.1
		c0-0.2-0.1-0.4-0.1-0.6s-0.1-0.3-0.1-0.5v-0.1c0-0.2-0.1-0.3-0.2-0.5c0-0.1,0-0.1-0.1-0.2c-0.1-0.2-0.1-0.2-0.2-0.4
		c-0.1-0.2-0.1-0.2-0.1-0.2c0-0.1-0.1-0.2-0.2-0.4c-0.1-0.2-0.1-0.2-0.2-0.2c-0.1-0.1-0.2-0.2-0.2-0.4c-0.1-0.1-0.1-0.2-0.2-0.3
		c-0.1-0.2-0.2-0.2-0.2-0.4c-0.1-0.2-0.2-0.2-0.2-0.3c-0.1-0.1-0.2-0.2-0.3-0.4c-0.1-0.2-0.2-0.2-0.2-0.3l-0.4-0.4l-0.3-0.3
		c-0.2-0.2-0.3-0.2-0.5-0.4s-0.3-0.2-0.5-0.3l-0.1-0.1c-0.3-0.2-0.6-0.4-0.9-0.6c-0.1,0-0.1-0.1-0.2-0.1l-1-0.5
		c-0.1,0-0.1,0-0.2-0.1c-0.4-0.2-0.7-0.3-1.1-0.4h-0.1c-0.4-0.2-0.9-0.2-1.3-0.4c-0.2-0.1-0.4-0.1-0.6-0.2c-0.2-0.1-0.4-0.1-0.6-0.1
		s-0.4,0-0.6-0.1H326c-0.8,0-1.5,0.1-2.3,0.3c0.8-0.2,1.7-0.4,2.5-0.4h0.6c0.2,0.1,0.4,0.1,0.6,0.1s0.4,0,0.6,0.1
		c0.2,0.1,0.4,0.1,0.6,0.2c1.8,0.4,3.5,1.2,5,2.3c1.1,0.8,2,1.8,2.7,3c0.5,0.8,0.9,1.7,1.1,2.7c0.1,0.4,0.2,0.9,0.2,1.3
		c1-1.9,2-3.5,2.7-4.8c0.7-1.3,1.4-2.4,2-3.2c0.6-0.8,1-1.5,1.3-2.1c0.2-0.4,0.3-0.8,0.4-1.3C344.5,24.5,344.4,24.5,344.4,24.4z
		 M324.1,35.7c0.1,0,0.2,0.1,0.3,0.1c0.4,0.2,0.7,0.4,1,0.6c0.2,0.1,0.2,0.2,0.4,0.2c0.2,0.2,0.5,0.2,0.7,0.4
		c0.1,0.1,0.2,0.1,0.3,0.2c0.2,0.1,0.3,0.2,0.5,0.3c0.1,0,0.1,0.1,0.2,0.1c0,0,0.1,0,0.1,0.1c0.1,0.1,0.2,0.2,0.2,0.2
		c0.2,0.2,0.3,0.2,0.5,0.4l0.2,0.2l0.4,0.4l0.2,0.2c0.2,0.2,0.2,0.3,0.3,0.4c0.1,0.1,0.2,0.2,0.2,0.2s0.1,0.2,0.2,0.2
		c0.1,0,0.1,0.2,0.2,0.2c0.1,0.1,0.1,0.1,0.1,0.2c0,0.1,0.1,0.1,0.1,0.2c0.1,0.1,0.2,0.3,0.2,0.4c0.1,0.1,0.1,0.2,0.2,0.2
		c0.1,0.1,0.1,0.3,0.2,0.4v0.1c-1-0.2-2.1-0.4-3.2-0.5l-4.5-0.5c-1.4-0.2-2.9-0.2-4.3-0.2c-1.2,0-2.4-0.1-3.1-0.1
		c-0.6,0.1-1.2-0.1-1.7-0.3c-0.3-0.2-0.5-0.5-0.5-0.9c0.1-0.5,0.3-1,0.5-1.5c0.2-0.2,0.4-0.3,0.6-0.5c0.8-0.6,1.7-1.1,2.6-1.5
		c1-0.4,2-0.6,3.1-0.6h0.6c0.2,0,0.4,0,0.6,0.1c0.2,0,0.4,0.1,0.6,0.1s0.4,0.1,0.6,0.1C323.2,35.4,323.6,35.5,324.1,35.7z"/>
</g>
</svg>
