<svg id="Layer_1" data-name="Layer 1" xmlns="http://www.w3.org/2000/svg" width="336.4" height="100" viewBox="0 0 336.4 100"><path d="M299,38V0h-27.1V34.39C271.87,57.39,299,54.08,299,38Z" fill="#fff"/><path d="M326.75.64h-15.1V39.8c0,29.76-51.84,29.52-51.84.62V0H248.33c-7.48,0-13.9,4.73-13.9,12.05l0,46.45c0,11.34,7.82,18.09,19.3,18.09h65.11c9.69,0,17.51-6.65,17.51-16.3V12.69C336.4,6.91,332.11.64,326.75.64Z" fill="#fff"/><path d="M96.6,74.72S83.1,22.77,80.78,15.24c-2.12-7.33-6.65-10.55-13-10.55S56.83,8,54.51,15.24c-2.12,7.48-15.63,59.48-15.63,59.48L21.21,5.51H0s20.36,73.8,23.21,82.43C25.33,94.6,30.54,100,38,100c8.78,0,12.88-6.37,14.67-12.06,2-5.89,15.15-54.56,15.15-54.56S81,82.1,82.83,87.94c2,5.69,6,12.06,14.65,12.06,7.67,0,12.69-5.35,15-12.06,2.72-8.63,23.11-82.43,23.11-82.43H114.2Z" fill="#fff"/><polygon points="146.3 99.31 166.46 99.32 166.46 34 146.3 34 146.3 99.31" fill="#fff"/><path d="M156,0a11.43,11.43,0,0,0-11.71,11.17,1.48,1.48,0,0,0,0,.21A11.59,11.59,0,0,0,156,22.77c6.85,0,12.21-5.07,12.21-11.38S162.89,0,156,0Z" fill="#fff"/><path d="M197.14,0A11.59,11.59,0,0,0,185.2,11.24v.15c0,6.17,5.35,11.38,11.91,11.38S209.2,17.7,209.2,11.39,203.85,0,197.14,0Z" fill="#fff"/><polygon points="187.2 99.31 207.34 99.32 207.34 34 187.2 34 187.2 99.31" fill="#fff"/></svg>