<svg id="Layer_1" data-name="Layer 1" xmlns="http://www.w3.org/2000/svg" width="672.59" height="100" viewBox="0 0 672.59 100"><g id="Layer_1-2" data-name="Layer 1"><path d="M280,22.32a18.81,18.81,0,0,0-16.94,8.57V23.64H248.41l-.2,76.36h15.62V73.42a20.06,20.06,0,0,0,17.08,8.67c16.45,0,24.77-14.2,24.77-29.37C305.68,36.61,297.7,22.32,280,22.32ZM276.8,70c-10.08,0-13.56-8.77-13.56-17.92s3.52-18.21,13.46-18.21S290.21,43.07,290.21,52l.15-.39C290.36,60.84,286.88,70,276.8,70Z" fill="#fff"/><polygon points="139.5 1.91 120.7 1.91 104.89 26.82 89.67 1.91 69.85 1.91 94.91 39.06 67.55 79.59 87.13 79.59 104.7 52.62 121.73 79.59 141.95 79.59 114.59 39.06 139.5 1.91" fill="#fff"/><path d="M216.79,34c-19.48-5-23.25-5.24-23.25-11.8s6.31-8.86,11.75-8.86c8.22,0,14.88,2.4,15.41,11.8h16.6c0-18-15-25.11-31.23-25.11C192.12,0,177,7.64,177,23.54c0,14.59,11.69,19.14,23.2,22.23s23.2,4.79,23.2,12.87-9.2,9.79-15.22,9.79c-9.16,0-17.23-4-17.23-14.39H174.3c-.24,19.19,16,27.7,33.19,27.7,21,0,32.45-10.72,32.45-25C239.94,38.86,222.47,35.39,216.79,34Z" fill="#fff"/><polygon points="64.56 15.22 64.56 1.66 3.28 1.66 3.28 16.25 41.75 16.25 0 66.37 0 79.83 65.69 79.83 65.69 65.44 22.76 65.44 64.56 15.22" fill="#fff"/><path d="M340.72,22.32a28.49,28.49,0,0,0-2.92,0,28,28,0,0,0-26.1,29.77c0,17.42,11.06,29.66,28.83,29.66a25.26,25.26,0,0,0,26.58-19H353.89a12.77,12.77,0,0,1-12.24,7.34c-8.61,0-13.41-4.5-13.85-14.29h40.38C369.21,38.47,360,22.32,340.72,22.32ZM327.8,46v-.54a12.19,12.19,0,0,1,12.88-11.35c7.44,0,10.91,4.11,12.33,12Z" fill="#fff"/><path d="M558.54,23.49V52.86c0,11.31-3.62,16.21-12,16.21-7,0-9.79-4.61-9.79-13.91V23.3H521.24V58.39c0,14,4.12,23.25,20.61,23.25a20.26,20.26,0,0,0,17.28-9.39h.29v7.83h14.69l-.05-56.59Z" fill="#fff"/><path d="M651.93,22.32a20.4,20.4,0,0,0-17,9.4,16.79,16.79,0,0,0-16.55-9.4,20.31,20.31,0,0,0-17.13,9H601V23.64H586.34l-.09,56.44h15.46V47.33c0-11.06,7.44-13,10.48-13,9.84,0,9.45,7.54,9.45,14.1V80.08H637.2V48.6c0-7.09,1.52-14.29,10.38-14.29s9.49,6.17,9.49,13.76v32h15.52V42.54C672.59,27.9,664,22.32,651.93,22.32Z" fill="#fff"/><path d="M460.11,6.36H444.69V23.3h-9.4V33.68h9.4V66.86c0,11.21,8.32,13.41,17.82,13.41a60.91,60.91,0,0,0,9.05-.53V67.6a26.76,26.76,0,0,1-4.89.49c-5.24,0-6.56-1.37-6.56-6.61V34.07h11.5V23.69h-11.4Z" fill="#fff"/><path d="M404.5,70.09c-9.74,0-12.92-9.3-12.92-17.81S395,34,404.8,34h.05a10.56,10.56,0,0,1,11.3,9.79h15.32c-1-14.44-13.21-21.44-26.58-21.44-18.3,0-28.83,13-28.83,30.59V55.6a27.41,27.41,0,0,0,28.49,26.29,25.31,25.31,0,0,0,27.22-23.2H416.84A11.94,11.94,0,0,1,404.5,70.09Z" fill="#fff"/><path d="M494.18,34.21V23.69H479V80.08h15.52v-25c0-9.93,3.82-18.11,15.17-18.11a23.74,23.74,0,0,1,5.58.54V22.86a12.82,12.82,0,0,0-3.37-.54A19.91,19.91,0,0,0,494.18,34.21Z" fill="#fff"/></g></svg>