<svg id="Layer_1" data-name="Layer 1" xmlns="http://www.w3.org/2000/svg" width="320.48" height="100" viewBox="0 0 320.48 100"><polygon points="9.41 24.75 59.57 65.5 59.57 1.58 48.95 1.58 49.12 42.68 0 2.1 0.18 66.19 9.41 66.19 9.41 24.75" fill="#fff"/><path d="M137.77,66.56,101.9,2.11,79.43,42.86H67.06v9.75h7.48L66.36,66.55H78.2l7.66-13.93h31.87l7.33,13.93ZM90.23,42.69h-.07l11.53-21.07,11.52,21.07Z" fill="#fff"/><polygon points="228.7 31.71 253.6 61.32 278.34 31.54 278.51 66.55 289.65 66.55 289.65 1.4 253.78 43.55 218.24 2.27 218.24 66.55 228.7 66.55 228.7 31.71" fill="#fff"/><rect x="310.03" y="0.7" width="10.45" height="65.84" fill="#fff"/><path d="M172.44,70h0a35,35,0,1,0-35-35h0A35,35,0,0,0,172.44,70Zm.17-59.4A24.48,24.48,0,1,1,148.05,35,24.49,24.49,0,0,1,172.61,10.63Z" fill="#fff"/><path d="M27.08,89.56H15.14v3.57H21.5v.06c0,.16,0,.32.05.47a1.48,1.48,0,0,1-.88,1.46,8.51,8.51,0,0,1-3.21.42H14.32a6,6,0,0,1-3.47-.71A3.28,3.28,0,0,1,10,92.21V89.8c0-1.44.27-2.38.78-2.82s1.7-.66,3.54-.66h3.14a7.55,7.55,0,0,1,3.33.45,1.8,1.8,0,0,1,.73,1.68l5.42-.08v-1a8.4,8.4,0,0,0-.4-2.73,3.83,3.83,0,0,0-1.23-1.71,5.12,5.12,0,0,0-2.19-.88,25.69,25.69,0,0,0-4.29-.27h-6c-3.15,0-5.33.53-6.52,1.5S4.48,86,4.48,88.53v4.82A8.61,8.61,0,0,0,5,96.49a4.82,4.82,0,0,0,1.55,2.1,5.53,5.53,0,0,0,2.23,1,19.83,19.83,0,0,0,4.07.3h6c3.05,0,5.18-.36,6.41-1a3.74,3.74,0,0,0,1.84-3.54Z" fill="#fff"/><path d="M51.71,83.5c-1.21-.94-3.14-1.41-5.87-1.41H30.33V99.73H47.39a6.81,6.81,0,0,0,4.67-1.35,5.65,5.65,0,0,0,1.47-4.3V88A5.33,5.33,0,0,0,51.71,83.5Zm-3.57,9a2.77,2.77,0,0,1-.79,2.19,3.72,3.72,0,0,1-2.52.7H35.71v-9h8.45a5.09,5.09,0,0,1,3,.73,2.69,2.69,0,0,1,1,2.28Z" fill="#fff"/><rect x="56.82" y="91.14" width="7.99" height="4.52" fill="#fff"/><path d="M88.36,91.26A6.63,6.63,0,0,0,89,87.87c0-2.2-.5-3.71-1.52-4.55s-2.91-1.23-5.71-1.23H67.63V99.73H73V95.21h8a3.44,3.44,0,0,1,1.94.4A1.68,1.68,0,0,1,83.5,97v2.69h5.4V96.12a3.29,3.29,0,0,0-.71-2.18,3.64,3.64,0,0,0-2.09-1.18A3.38,3.38,0,0,0,88.36,91.26Zm-5.24-1a1.92,1.92,0,0,1-1.52.5H73V86.48H81.6a2,2,0,0,1,1.49.48,2.05,2.05,0,0,1,.46,1.51A2.84,2.84,0,0,1,83.12,90.29Z" fill="#fff"/><path d="M114,83.1a5.7,5.7,0,0,0-2.37-.95,25.92,25.92,0,0,0-4.49-.28h-6.34a25.81,25.81,0,0,0-4.48.28A5.74,5.74,0,0,0,94,83.1a4.19,4.19,0,0,0-1.48,2.1,11.15,11.15,0,0,0-.45,3.5v4.82a9.84,9.84,0,0,0,.45,3.24,4.22,4.22,0,0,0,1.48,2,5.66,5.66,0,0,0,2.34.95,25.3,25.3,0,0,0,4.52.28h6.29a26.15,26.15,0,0,0,4.51-.28,5.7,5.7,0,0,0,2.35-.95,4.44,4.44,0,0,0,1.45-2,10.3,10.3,0,0,0,.45-3.31V88.49a10.49,10.49,0,0,0-.42-3.35A4.32,4.32,0,0,0,114,83.1Zm-3.55,6.53,0,2.58a3.15,3.15,0,0,1-.93,2.66c-.62.48-1.89.72-3.8.72h-3.42a7,7,0,0,1-3.81-.71,3.17,3.17,0,0,1-1-2.62v-2.5A3.36,3.36,0,0,1,98.43,87c.61-.48,1.88-.72,3.82-.72h3.51c1.91,0,3.15.24,3.8.72A3.15,3.15,0,0,1,110.49,89.63Z" fill="#fff"/><polygon points="133.44 93.11 127.15 82.09 119.2 82.09 119.2 99.73 124.43 99.73 124.43 87.16 131.67 99.73 135.19 99.73 142.47 87.16 142.47 99.73 147.69 99.73 147.69 82.09 139.85 82.09 133.44 93.11" fill="#fff"/><path d="M182.84,88.74,174,88.59a3.28,3.28,0,0,1-1.67-.43,1.29,1.29,0,0,1-.45-1,1.15,1.15,0,0,1,.51-1.05,4.3,4.3,0,0,1,2-.32h6.21a1.86,1.86,0,0,1,1.34.44,1.79,1.79,0,0,1,.44,1.32v.07h5.24v-1A4.4,4.4,0,0,0,186.3,83a6.89,6.89,0,0,0-4.41-1.12h-8.22a18.44,18.44,0,0,0-4.06.31,4.2,4.2,0,0,0-2,1,3.8,3.8,0,0,0-.95,1.63,8.85,8.85,0,0,0-.3,2.51c0,2,.38,3.31,1.12,4s2.2,1.14,4.3,1.21l8.56.21a4.59,4.59,0,0,1,2.09.46,1.28,1.28,0,0,1,.5,1.13,1.36,1.36,0,0,1-.43,1.12,2.32,2.32,0,0,1-1.43.33h-6.77a4,4,0,0,1-2-.34,1.57,1.57,0,0,1-.49-1.34v-.33H166.4c0,.35-.09.55-.09.78v.51c0,1.8.49,3,1.49,3.69s3,1,5.92,1h7.17a24.72,24.72,0,0,0,3.54-.2,5.25,5.25,0,0,0,1.93-.65,4.13,4.13,0,0,0,1.54-1.72,7.24,7.24,0,0,0,.45-2.84c0-2.06-.4-3.53-1.23-4.38A5.85,5.85,0,0,0,182.84,88.74Z" fill="#fff"/><polygon points="202.04 89.1 196.24 82.09 189.62 82.09 199.35 93.39 199.35 99.73 204.75 99.73 204.75 93.39 214.5 82.09 208.11 82.09 202.04 89.1" fill="#fff"/><path d="M232.64,88.74l-8.86-.15a3.25,3.25,0,0,1-1.67-.43,1.29,1.29,0,0,1-.45-1,1.16,1.16,0,0,1,.5-1.05,4.44,4.44,0,0,1,2.1-.32h6.2a1.86,1.86,0,0,1,1.34.44,1.79,1.79,0,0,1,.44,1.32v.07h5.24v-1A4.43,4.43,0,0,0,236.14,83a6.86,6.86,0,0,0-4.4-1.12H223.5a18.35,18.35,0,0,0-4.05.31,4.2,4.2,0,0,0-2,1,4,4,0,0,0-1,1.63,9.22,9.22,0,0,0-.29,2.51c0,2,.38,3.31,1.12,4s2.2,1.14,4.3,1.21l8.46.2a4.63,4.63,0,0,1,2.1.46,1.61,1.61,0,0,1,.06,2.25,2.26,2.26,0,0,1-1.41.33H224a3.92,3.92,0,0,1-2-.34,1.57,1.57,0,0,1-.49-1.34v-.33h-5.33c0,.35-.08.55-.08.78v.51c0,1.8.49,3,1.48,3.69s3,1,5.92,1h7.19a24.5,24.5,0,0,0,3.53-.2,5.25,5.25,0,0,0,1.93-.65,4.07,4.07,0,0,0,1.54-1.72,7.06,7.06,0,0,0,.45-2.84c0-2.06-.41-3.53-1.24-4.38A5.81,5.81,0,0,0,232.64,88.74Z" fill="#fff"/><polygon points="240.63 86.41 248.02 86.41 248.02 99.73 253.41 99.73 253.41 86.41 260.79 86.41 260.79 82.09 240.63 82.09 240.63 86.41" fill="#fff"/><polygon points="269.8 92.76 282.9 92.76 282.9 89.05 269.8 89.05 269.8 86.38 283.7 86.38 283.7 82.09 264.42 82.09 264.42 99.73 283.91 99.73 283.91 95.47 269.8 95.47 269.8 92.76" fill="#fff"/><polygon points="301.76 93.11 295.46 82.09 287.51 82.09 287.51 99.73 292.75 99.73 292.75 87.16 299.99 99.73 303.5 99.73 310.8 87.16 310.8 99.73 316 99.73 316 82.09 308.16 82.09 301.76 93.11" fill="#fff"/></svg>