<svg id="Ebene_2" data-name="Ebene 2" xmlns="http://www.w3.org/2000/svg" width="850.21" height="100" viewBox="0 0 850.21 100"><path d="M25,30.94C25,23,35.56,16.76,60.12,16.76c25.65,0,40.45,9,40.45,10.76a7.63,7.63,0,0,1-.3,1.77l2.49,1.17L115,11.07l-2.49-.65a3.57,3.57,0,0,1-2.84.92c-1.89,0-21.1-9.85-48.48-9.85-30.61,0-58.46,9.07-58.46,30.83,0,43,91.44,11.53,91.44,36.9,0,7.14-9.76,13.88-38.41,13.88-20.13,0-40.45-5.44-40.45-13.1.07-.69.17-1.38.31-2.07l-2.49-1L0,88.93l2,.3c.79-.39,1.26-1,2.19-1,3.64,0,14.66,10.1,53.05,10.1,40.29,0,60.46-13.2,60.46-30.3C117.74,21.08,25,52.2,25,30.94Z" fill="#fff"/><path d="M233.42,81.84H156.27V56.41h49.45a7.86,7.86,0,0,1,4.1.8,2.34,2.34,0,0,1,1.24,2.32h2.16V37.76H211c0,2.34-1.56,3.36-5.31,3.36H156.27v-23H232.1c3.74,0,5.32,1,5.32,3.37h2.2V0h-2.2c0,1.81-1.56,2.83-5.32,2.83H129.87V4.61c3.48,0,4.1,1,4.1,3.89V91.39c0,2.85-.55,3.9-4.1,3.9v1.88H233.45c3.74,0,5.32,1.06,5.32,2.83H241V78.74h-2.23C238.73,80.81,237.17,81.84,233.42,81.84Z" fill="#fff"/><path d="M323.18,44.26H321V67h2.2c0-1.86,1.87-3.1,5-3.1H355.4V74.63C350.69,77.46,339.05,83,319.21,83,295,83,273.56,72.31,273.56,49.38c0-21.9,21.39-32.64,47.84-32.64,20.93,0,37.94,8,37.94,12.05A7.75,7.75,0,0,1,359,31l2.2,1.17L376.49,10.9l-2.2-.78a4.75,4.75,0,0,1-3.54,1.43c-1.1,0-7.25-2.34-15.58-5.31A138.29,138.29,0,0,0,321,1.45c-32.67,0-69.88,14.76-69.88,48.44s31.79,48.44,68,48.44c27.16,0,51.4-9.85,61.34-14.49V82.07c-2.06-.39-2.86-1.15-2.86-3.24V53.28c0-2.89,1.42-3.88,3-4.15V47.36H328.19C325.07,47.36,323.18,46,323.18,44.26Z" fill="#fff"/><path d="M514,90.43,468.3,10a7.33,7.33,0,0,1-1.4-3.35c0-.9.94-1.68,3.32-1.95V2.89H435.9V4.66c2.05.27,3.29.9,3.29,2.34a9.09,9.09,0,0,1-1.77,3.88l-43,79.55c-2.22,4.13-3.14,4.79-6,4.91v1.77h28V95.34c-1.42-.16-2.37-.78-2.37-1.93,0-1.7,2.39-4.29,11.51-21.09h54c10.56,18.54,12,20.36,12,21.76,0,.6-.8,1.26-2.85,1.26v1.77h31.34V95.34C516.8,95.34,516.16,94.44,514,90.43Zm-81-33,18.62-33.93,18.83,33.93Z" fill="#fff"/><path d="M547.34,2.78V97.11H850.21V2.78ZM560.19,69C557.67,52.2,613.43,29.82,686.09,18l-4.82,1.24-9.1,2.32c-37.07,9-63,25.3-60.9,39.76,2.21,14.83,33.18,22.84,72.64,20.09,2.18-.16,10-.53,11.64-.6C622.57,90.84,562.69,85.79,560.19,69Zm181.62,3.64v-.09c-16.1,3.65-36.3,6.75-36.3,6.75v-42l10.38,34.23s24.81-4,43.62-11.83c16.27-6.8,26.46-15.34,25.78-24.45-1.11-14.78-32.54-22.66-71.35-20.15-2.58.16-11.16.59-12.86.68,72.93-10,132.8-5,135.31,11.81C838.55,41.89,798.51,60.21,741.81,72.63Z" fill="#fff"/></svg>