<?xml version="1.0" encoding="utf-8"?>
<!-- Generator: Adobe Illustrator 25.4.1, SVG Export Plug-In . SVG Version: 6.00 Build 0)  -->
<svg version="1.1" id="Layer_1" xmlns="http://www.w3.org/2000/svg" xmlns:xlink="http://www.w3.org/1999/xlink" x="0px" y="0px"
	 viewBox="0 0 562.9 100" style="enable-background:new 0 0 562.9 100;" xml:space="preserve">
<style type="text/css">
	.st0{fill:#FFFFFF;}
</style>
<g>
	<path class="st0" d="M223.4,2.5L201.1,55l-9.6-52.5h-19.4L147,79.8L134.1,2.5h-24.2L73.1,85.9l5.5-34.8H42.1l-2.8,18h15.3l-1.8,9.6
		c-8.7,3.5-23.6,2.2-29.9-9.2c-4-7.2-7.7-23.2,9.2-38c13.8-12,37.6-14.2,51.3-7.9c0,0,1.8-10,3.1-19.4c-26.4-9.2-47-1.5-60.7,7
		l0-0.1C7,22.6-2,40.3,0.4,64.3c2.8,27.9,38.9,45.4,69.5,27.8c0.3-0.2,0.5-0.3,0.7-0.4l-2.9,6.5h20.5l12.9-28.6h22.7l5,28.6h33.4
		l17.1-53.5l10.9,53.5h13.1L228.9,39l2.6,59.2h19.7h0.1L247,2.5H223.4z M108.9,51.1l8.3-18.6l3.6,18.6H108.9z"/>
	<polygon class="st0" points="252.7,98.2 307.5,98.2 310.8,77.7 276.5,77.7 279.2,60.6 309,60.6 312.3,40.1 282.2,40.1 284.8,23.1 
		319.1,23.1 322.4,2.5 268,2.5 	"/>
	<polygon class="st0" points="539.9,2.5 520.5,33.8 508.2,2.5 485.8,2.5 508.9,53 501.8,98.2 521.4,98.2 527.5,58.2 562.9,2.5 	"/>
	<path class="st0" d="M466.9,3.4c-21.8-5-44.4,12.3-50.5,38.8h0c-6.1,26.5,6.6,52,28.4,57c21.8,5,44.5-12.3,50.5-38.8
		S488.7,8.4,466.9,3.4z M474.6,59.6c-5.3,15.9-18,25-28.4,20.4c-10.4-4.7-14.5-21.3-9.2-37.2c5.3-15.9,18-25.1,28.4-20.4
		C475.7,27,479.9,43.7,474.6,59.6z"/>
	<path class="st0" d="M388.9,3.1c-10.6-0.2-36.8,0-36.8,0h0.2L337.1,98h44.2c18.2,0,44.8-26.8,20.6-48.8
		C426.8,23.4,402.1,3.2,388.9,3.1z M377.4,79.5h-17.3l3-19h0h16.5C395.2,60.5,394.8,79.5,377.4,79.5z M379.8,41h-13.7l3-17.8H382
		C395.9,23.2,393,41,379.8,41z"/>
</g>
</svg>
