<?xml version="1.0" encoding="utf-8"?>
<!-- Generator: Adobe Illustrator 25.4.1, SVG Export Plug-In . SVG Version: 6.00 Build 0)  -->
<svg version="1.1" id="Capa_1" xmlns="http://www.w3.org/2000/svg" xmlns:xlink="http://www.w3.org/1999/xlink" x="0px" y="0px"
	 viewBox="0 0 352.8 100" style="enable-background:new 0 0 352.8 100;" xml:space="preserve">
<style type="text/css">
	.st0{fill:#FFFFFF;}
</style>
<g>
	<path class="st0" d="M61.5,54.9c-8.6-5.7-18.7-8.4-29-7.8v-0.3C56.2,44.2,68,36.5,68,23.8C67.8,17.1,64,11,58,8
		c-7.5-4.3-16-6.5-24.6-6.2c-7.6-0.3-15.1,1.6-21.6,5.5c-4.9,2.5-8.1,7.4-8.4,12.9c0,2.9,1.4,5.7,3.8,7.3c2.4,2,5.5,3,8.6,3
		c2.7,0,5.4-0.9,7.5-2.6c2.2-1.6,3.4-4.3,3.3-7c0-3-2-5.7-6-8.2c-1.5-0.9-2.3-1.6-2.3-2.5c0-0.9,1.2-1.7,3.5-2.6
		c2.4-0.9,4.9-1.4,7.4-1.3c4-0.4,7.9,1.4,10.3,4.6c2.3,4.4,3.3,9.4,3,14.4c0.3,5.2-1.1,10.4-4,14.7c-4.1,4-9.8,5.9-15.5,5.2
		l-7.6-0.3c-2.2,0-3.3,0.9-3.3,2.7c0,1.5,1.1,2.3,3.2,2.3l10.4-0.4c12.5,0,18.8,7.6,18.8,22.8c0,15.3-5.2,23-15.7,23
		c-3.2,0-6.3-0.5-9.3-1.4c-3-0.9-4.6-2-4.6-3.3c0-0.7,0.5-1.3,1.6-1.8c5.4-2.7,8.1-6.1,8.1-10.2c0.1-2.9-1.2-5.6-3.5-7.3
		c-2.4-1.9-5.4-2.8-8.4-2.8c-3.3-0.1-6.5,1-9,3.2C1.3,73.7-0.1,76.8,0,80c0.3,5.7,3.4,10.9,8.3,13.8c7,4.5,15.3,6.6,23.6,6.1
		c10,0.5,19.9-2.2,28.3-7.7c6.6-4.2,10.7-11.5,10.7-19.4C70.8,65.7,67.4,59.1,61.5,54.9z"/>
	<path class="st0" d="M165.3,1.3h-54.9V6h13.7v87.4h-13.7v4.8h48.5c7.6,0.1,15.3-0.6,22.7-2.2c6.8-1.8,13-5.2,18.1-10
		c5.5-4.7,10-10.5,13-17.1c2.8-6.3,4.3-13.1,4.2-20c0.4-12.8-4.7-25.2-13.9-34.1C192.8,5.5,179.2,0.6,165.3,1.3z M182.8,83.1
		c-2.7,6.9-10.6,10.3-23.7,10.3h-8.5V6h13.3c4.5-0.2,8.9,0.8,12.9,2.7c3.9,2.5,6.7,6.6,7.6,11.2c2,9.2,2.9,18.6,2.5,28
		C187.5,59.8,186.1,71.7,182.8,83.1z"/>
	<path class="st0" d="M338,13c-9.1-8.4-21-13-33.3-13c-12.9-0.2-25.3,4.8-34.4,13.8c-9.6,9.3-14.8,22.2-14.3,35.5l0,0
		c-0.4,13.2,4.5,26.1,13.6,35.7c19.1,18.8,49.7,19.2,69.2,0.8c9.5-9.5,14.5-22.6,13.9-36C353.6,36.1,348.2,22.5,338,13z M321.5,80.2
		c-0.3,4.3-2.3,8.3-5.6,11.2c-3.4,2.4-7.4,3.6-11.6,3.4c-4.6,0.4-9.1-1.1-12.5-4.3c-2.8-3.2-4.5-7.2-4.9-11.4
		c-0.8-9.8-1.1-19.6-0.9-29.4c-0.2-10.1,0.2-20.1,1.1-30.2c0.3-4.3,2.3-8.3,5.5-11.2c3.4-2.5,7.6-3.7,11.8-3.5
		c4.6-0.4,9.2,1.1,12.6,4.3c2.7,3.2,4.3,7.2,4.7,11.4c0.8,9.7,1.1,19.5,0.9,29.3C322.9,59.9,322.5,70.1,321.5,80.2z"/>
</g>
</svg>
