<?xml version="1.0" encoding="utf-8"?>
<!-- Generator: Adobe Illustrator 26.5.0, SVG Export Plug-In . SVG Version: 6.00 Build 0)  -->
<svg version="1.1" id="Capa_1" xmlns="http://www.w3.org/2000/svg" xmlns:xlink="http://www.w3.org/1999/xlink" x="0px" y="0px"
	 viewBox="0 0 448.2 100" style="enable-background:new 0 0 448.2 100;" xml:space="preserve">
<style type="text/css">
	.st0{fill:#FFFFFF;}
</style>
<g>
	<path class="st0" d="M74.2,2.2c-0.2,0-0.5,0-0.7,0c-1.1,0-2.1,0.1-3.1,0.3c-1,0.1-1.9,0.2-2.8,0.2c-0.3,0-0.6,0-0.8,0
		c-0.6-0.1-1.2-0.1-1.8-0.2c-1-0.2-2-0.3-3-0.3c-1.1,0-2,0.2-2.9,0.5c-4.6,1.7-8.5,8.7-9.3,10.1c-0.3,0.6-0.7,1.2-1.1,1.8
		c-0.8,1.3-1.6,2.7-2.1,4.2c-0.4,1.3-0.7,2.6-0.9,4c-0.2,1-0.3,2-0.6,3c-1.3,4.9-3.2,10-5.9,15.7c-0.7,1.4-1.2,2.9-1.7,4.3
		c-0.7,1.9-1.4,3.8-2.3,5.5c-0.3-1.2-0.6-2.5-1-3.7c-1-3.8-2-7.8-3.1-11.6c-0.4-1.4-0.9-2.8-1.3-4.2c-1.3-4.1-2.6-8-3-12.2
		c-0.2-1.8-0.4-3.6-0.7-5.4c-0.2-1.3-0.4-2.5-0.5-3.8l-0.1-1c-0.2-2.5-0.5-5.3-2-7.5c-1-1.4-3-1.6-4.5-1.6c-1.2,0-2.4,0.1-3.3,0.2
		l-0.8,0.1c-1.8,0.2-3.4,0.5-4.8,1.1H10c-0.3,0-1,0.4-2.2,1.2L7.3,3C5.7,4.1,3.7,5.5,3,8.1c-0.3,2.7-0.6,5.4-0.7,8
		c-0.1,1.6-0.1,3.2-0.2,4.8C2,25,1.9,29.1,1,33.1c-0.4,4.8-0.4,9.6-0.5,14.2v3.4c0,1.7-0.1,3.6-0.3,5.5c-0.3,4.4-0.6,9,0.3,13
		c0.8,3.2,4.5,6.9,8.2,6.9c1.3,0,2.6-0.5,3.6-1.4l0.5-0.4v-0.6c0-3.6,0.3-7.3,0.5-10.8c0.1-2.2,0.3-4.5,0.3-6.8
		c0.1-3,0.3-5.9,0.5-8.9c0.2-3.1,0.3-6.2,0.5-9.2c0.1-1.7,0.3-3.3,0.5-5c0.2-1.4,0.4-2.7,0.5-4.1c0.1-0.6,0.2-2.6,0.2-3
		c0.2,1,0.3,2,0.4,3.1c0.2,1.7,0.4,3.4,0.9,4.8c1.2,3.2,1.9,6.6,2.6,10c0.4,1.7,0.7,3.5,1.1,5.2l0.1,0.5c1.2,4.9,2.5,10,3.2,15.1
		c0.2,1.1,0.2,2.1,0.3,3.1c0.2,3.1,0.4,6.4,3.2,9.2c0.7,0.8,1.6,1.2,2.6,1.2c2.5,0,5-2.5,7-4.6c0.5-0.5,1-1,1.3-1.3
		c2.7-2.3,3.8-5.9,4.7-9.1c0.3-1.1,0.6-2.2,1-3.2c1.9-5.1,4.1-10.3,6.2-15.2c1.9-4.3,3.8-8.8,5.4-13.1c1.1-2.2,1.9-4.5,2.7-6.7
		c1-2.8,1.9-5.4,3.3-7.7c0.5-0.9,1.5-1.6,2.5-2c0.5,2,0.7,4.1,0.7,6c0.4,12,0.7,23,0.8,33.4c0,2.9,0.2,5.8,0.2,8.7
		c0.1,2.9,0.2,5.9,0.3,8.8v0.9c0,3.7,0,9.8,5.7,9.8l0,0c0.4,0,0.7,0,1.1-0.1c4.3-0.6,4.2-8.1,4.2-13.1c0-0.7,0-1.3,0-1.8l0-0.5
		c0.2-5.2,0.4-10.6,0.3-16c0-3.1-0.1-6.1-0.2-9.2c-0.2-8.3-0.4-16.1,0.4-24.2c0-0.5,0.2-1.2,0.3-2c0.5-3.8,1.3-9-1-11.7
		C76.8,2.9,75.6,2.3,74.2,2.2z"/>
	<path class="st0" d="M216.9,74.4c-1-3.3-0.9-6.2-0.8-9.6c0-0.8,0-1.5,0.1-2.3c0.2-10.1,0.2-18.2,0.1-25.7c0-2.4,0.2-4.7,0.4-7.1
		c0.1-1.5,0.3-2.9,0.3-4.4c0.1-1.2-0.2-2.2-0.9-2.9c-1.1-1.1-2.7-1.2-4.1-1.2c-0.5,0-1,0-1.5-0.1l-0.7-0.1l-0.5,0.5
		c-2.2,2.1-3.4,4.8-4.4,7.1c-0.3,0.6-0.4,1.2-0.5,1.9c0-0.1-0.1-0.1-0.1-0.2c-1.9-3.2-7.1-4.8-8.9-5.2c-1.1-0.2-2.3-0.3-3.5-0.3
		c-4.2,0-8,1.3-10.6,3.6c-2.9,2.6-6.8,6.1-9,9.9c-2.3,3.9-2.2,9.2-2.1,13.5l0,1.6c0.1,8.7,3.4,20.6,12.3,25.7
		c1.9,1.1,4.2,1.7,6.8,1.7c2.8,0,5.6-0.7,7.9-1.9c1.7-0.9,3-2.7,4.2-4.4c0.8-1.1,1.6-2.2,2.4-2.9c0.5,3,1.9,5.3,3.3,7.8
		c1.4,2.4,3.7,5.5,6.8,5.5l0,0c0.5,0,1.1-0.1,1.6-0.3c4.6-1.7,3-6,2.1-8.5C217.2,75.3,217.1,74.8,216.9,74.4z M204.2,36.9
		c-0.1,3.2-1.4,6.5-2.7,9.6c-0.5,1.2-1,2.5-1.4,3.7c-1.9,5.3-3.8,9.4-6.2,12.8c-0.3,0.4-0.6,0.9-1,1.5c-1.2,1.8-3.1,4.9-4.6,4.9
		c-0.6,0-1.2-0.7-1.7-1.2c-2.5-3.3-4.8-6.7-5-10.5c-0.3-5.5,0.3-9.7,1.8-13.3c1.2-3,5.3-8.6,8-8.7h0c0.9,0,2.2,0.4,3.5,0.8
		c1.7,0.5,3.5,1,5.1,1c2.1,0,3.3-0.9,4-2C204.2,35.9,204.2,36.4,204.2,36.9z"/>
	<path class="st0" d="M168.6,24.8c-1-0.6-2-0.9-3-0.9c-3.7,0-5.2,4.4-6.2,7.1c-0.4,1.2-0.9,2.4-1.5,3.6c-0.7,1.5-1.3,3-1.8,4.7
		c-0.5,2.6-0.4,5.3-0.4,7.8l0,2.6c0,4.2,0.1,10.7-3.2,12.8c-2.3,1.5-6.3,2.5-10,2.5c-2.4,0-4.4-0.4-5.9-1.1
		c-2.4-1.2-3.2-2.1-4.1-5.1c-0.9-2.8-1.1-3.6,0-6c2.1-4.7,5.9-7.1,10.2-9.9l0.5-0.3c0.8-0.5,1.6-1,2.4-1.4c1.3-0.8,2.7-1.6,4-2.6
		l0.5-0.3c1.5-1.1,3.2-2.3,3.4-4.1c0.1-0.9-0.2-1.9-1-2.7c-0.9-1-2.1-1.5-3.4-1.5c-1.1,0-2.2,0.4-3.2,0.7c-0.5,0.2-1,0.4-1.6,0.5
		l-0.8,0.2c-2.6,0.6-5.3,1.3-7.8,2.8c-2.2,1.3-7.7,4.9-11.4,9.3c-6,6.9-7.4,20.5-0.4,27.5c3.8,3.8,8.1,4.8,13,5.7
		c0.6,0.1,1.1,0.2,1.7,0.3c1.6,0.3,3.2,0.7,5,0.7c0.2,0,0.5,0,0.5,0c0.2,0,0.5,0,0.7,0c1.3,0,2.6-0.3,3.8-0.5
		c0.9-0.2,1.7-0.4,2.8-0.5c0.5,0,1.1,0.4,1.8,0.8c-0.1,0.8-0.4,1.5-0.6,2.1c-0.3,0.7-0.5,1.5-0.7,2.3c-0.3,1.3-0.7,2.6-1.3,3.4
		c-2.1,3-6.2,4-9.9,4.6c-1,0.2-2.1,0.2-3.2,0.2c-2,0-3.9-0.2-6-0.5c-1.8-0.2-3.6-0.4-5.5-0.5c-0.2,0-0.5,0-0.7,0
		c-2.5,0-6.8,0.4-8,2.8c-0.4,0.9-0.7,2.3,0.7,4.2c1.6,2.3,3.6,2.3,5.3,2.4c0.5,0,1.1,0,1.6,0.1c3.1,0.4,5.7,0.8,8.3,1
		c1.5,0.1,2.8,0.2,4.2,0.2l0,0c3.7,0,7.3-0.4,11.8-1.3c4.3-0.9,10.2-2.9,13.9-7.2c3.3-3.8,3.3-7.8,3.4-12V78c0-3.3,0.3-6.7,0.5-9.9
		c0.2-2.7,0.4-5.4,0.5-8.2c0.2-6,0.5-12,0.9-17c0.1-1.4,0.2-2.7,0.3-4c0.2-1.9,0.4-3.9,0.4-5.9c0-0.4,0.1-1.1,0.3-1.8
		C170.1,29,170.7,26,168.6,24.8z"/>
	<path class="st0" d="M118.9,85.3c1.5,0.2,3,0.3,4.6,0.3h0c1.1,0,2.1-0.1,3.1-0.3c2.5-0.5,4.5-2.5,4.7-4.6c0.1-0.8,0-2.8-2.6-4.1
		c-2.7-1.3-6-1.7-9.1-2.1c-1.2-0.2-2.4-0.3-3.5-0.5c-5.2-1-9.5-2.1-13.5-4.3c-0.5-0.2-1-0.4-1.5-0.6c-3.4-1.3-8.6-3.2-9.1-6.4
		c-0.7-4.5,0.3-6.4,4.2-7.9c1.4-0.5,2.8-0.9,4.4-1.3c3.1-0.8,6.2-1.7,8.9-3.6c3.2-2.3,5.2-6.1,5.9-10.7c0.6-4.3-0.9-8-4.6-11.8
		c-1.6-1.6-4.1-2.4-7.9-2.4c-2.5,0-5,0.3-6.7,0.6c-0.3,0.1-0.5,0.1-0.6,0.2c-1.4,0.6-2.4,1.7-3.2,2.6c-0.3,0.3-0.6,0.7-1,1
		c-1,1.1-2.4,1.9-3.9,2.7l-0.5,0.3c-4.6,2.5-6.5,5.8-6.6,11.5c0,1.3-0.1,2.5-0.2,3.8c-0.2,4.1-0.4,8.3,0.2,12.3c0.1,1,0.2,2,0.3,3
		c0.3,3,0.6,6.2,2.1,9c2,3.6,6.3,5.3,10,6.7c0.8,0.3,1.5,0.6,2.2,0.9c4,1.7,9.3,3.8,15.1,4.9c1.7,0.4,3.4,0.4,5,0.4c1,0,2,0,3.1,0.1
		L118.9,85.3z M91.2,45.1c-0.1-0.8,0.5-1.9,1-2.9c0.2-0.4,0.4-0.8,0.6-1.2c1.2-2.8,3-3.2,6.3-3.9l0.5-0.1c0.5-0.2,1.9-0.5,2.9-0.5
		c0.2,0,0.4,0,0.5,0c0,0,0,0,0,0c0.3,1.5,0.2,2.9-0.2,4.1c-1,2.7-5.3,3.4-8.3,3.9c-0.3,0.1-0.7,0.2-1.1,0.2
		C92.6,45,91.9,45.2,91.2,45.1L91.2,45.1C91.3,45.1,91.3,45.1,91.2,45.1z"/>
	<path class="st0" d="M295.7,38.6c0-0.8,0-1.6,0-2.4c0-1.8,0-3.7-0.4-5.6c-1.4-6-3.3-10.4-5.9-13.2l-0.6-0.7c-2.7-3-6.5-7.2-11-7.7
		c-3.4-0.4-6.8-1.3-10.1-2.2c-1.5-0.4-2.9-0.8-4.3-1.1c-1.4-0.3-2.7-0.7-4-1c-4-1-8.1-2.1-12.3-2.6c-0.3,0-1.2-0.3-2-0.6
		C243,0.8,240.5,0,238.5,0c-1.3,0-2.3,0.4-3,1.1c-0.4,0.4-0.8,1.1-0.8,2.2c0,0.2,0,0.3,0,0.5c0,0.5,0,1,0.1,1.4
		c1,9.2,10.4,10.2,15,10.7c3.9,0.4,7.3,1.1,10.6,2.1c0.8,0.2,1.5,0.4,2.4,0.7c2.7,0.8,5.8,1.6,7.9,3c2.6,1.6,4.8,4.9,6.7,7.8
		c0.3,0.5,0.7,1.1,1.1,1.6c1.6,2.3,2.9,4.3,2.9,7v1.6c0,3.6,0,7.4-0.5,10.9c-0.5,3.1-1.5,3.7-4.8,5.6c-1.7,0.9-3.1,2-4.6,3
		c-1.8,1.3-3.5,2.5-5.5,3.4c-1.2,0.5-2.4,1.1-3.6,1.6c-2.3,1-4.7,2.1-7.1,3.1c-2.2,0.9-4.2,1.5-6,2.1c-0.3,0.1-0.6,0.1-0.7,0.2
		c0,0-0.2-0.3,0-1.5c0.2-2.1,0.7-4.1,1.2-6.3c0.4-1.6,0.8-3.2,1-4.9l0.3-2.2c1.2-7.6,2.5-15.4,2.7-23.3c-0.2-3.6-1.5-7.2-3.7-10.6
		c-1.5-2.2-3.2-4.4-5.9-4.4c-1.2,0-2.5,0.4-3.9,1.3c-2.2,1.3-2.4,5-2.4,8.8c0,1.8,0.6,3.2,1.2,4.6c0.3,0.8,0.6,1.5,0.8,2.3
		c0.7,2.8-0.2,6-1.1,9c-0.4,1.4-0.8,2.8-1,4.1c-1.1,6-2,12.1-2.9,17.9c-0.8,5-1.5,10.1-2.4,15c-0.5,2.1-1.4,7.2,0.5,9.6
		c0.7,0.8,1.6,1.3,2.7,1.3h0c0.8,0,1.5-0.2,2.4-0.6c3-1.3,6-2.8,8.8-4.2c1.5-0.8,3-1.5,4.5-2.2c5.5-2.7,10.8-4.9,15.7-6.7
		c1.5-0.5,3.1-0.9,4.8-1.2c0.8-0.2,1.6-0.3,2.5-0.5c2.4-0.6,4.5-1.8,6.5-2.9l0.6-0.3c0.8-0.4,1.6-0.9,2.5-1.3c3.6-1.9,7.6-4,9.8-7.6
		c2.3-3.9,2.4-9.5,2.4-14.1v-0.8c0-1.9-0.2-3.8-0.3-5.7C295.8,41,295.7,39.8,295.7,38.6z"/>
	<path class="st0" d="M393.4,64.4c-0.3,0-0.5,0-0.8,0c-2.2,0-4.5,0.4-7,1.2c-1,0.3-1.9,0.5-2.9,0.7c-1.3,0.3-2.7,0.6-4.1,1.1
		c-1.5,0.6-3,0.9-4.5,0.9c-7.5,0-12.7-8.2-14.8-15.2c-2.7-8.9,2.9-19.4,9.7-23.9c1-0.6,2.2-1,3.7-1c3.4,0,7,1.7,9,3.1l0.5,0.4
		c1.3,0.9,2.9,2.1,4.8,2.1c0.4,0,0.8,0,1.1-0.2c1.4-0.4,2.6-1.4,3.2-2.6c0.5-1,0.5-2,0-3l-0.1-0.2l-0.1-0.1c-5-6-12.7-9.6-20.6-9.6
		c-2.3,0-4.5,0.3-6.6,0.9c-0.2,0-0.5,0.1-1.6,0.5c-0.4,0.2-0.6,0.3-0.8,0.4c-9,4.6-13.4,18-13.6,26.1c-0.1,4.6,0.7,9.7,2.5,15.5
		c1.5,4.6,3.7,7.6,7.1,11.1c4.1,4.3,10.1,6.6,16.8,6.6l0,0c4.5,0,9-1.1,12.9-3.2c0.1,0,9.8-6.3,9-9.9
		C396,65.6,395.4,64.5,393.4,64.4z"/>
	<path class="st0" d="M444.7,69.5c-0.4-0.4-0.8-0.7-1.2-1c-1.5-1.5-3.1-3.2-5.2-4.4c-0.8-0.4-1-0.8-1-0.9c0,0,0.1-0.2,0.5-0.5
		l0.5-0.4c1.3-1,2.8-2,3.7-3.6c1.9-3.4,0.6-7.6-4-12.4c-3-3.1-8.3-4.3-12.2-4.3c-0.2,0-0.9,0-0.9,0l-0.2,0.1c-1.4,0.4-2.8,1.1-4,1.7
		c-1,0.5-2,1-3.1,1.3c-0.9,0.3-1.9,0.5-2.9,0.7c-1.1,0.2-2.3,0.4-3.4,0.9l-0.7,0.3c-0.8,0.3-1.9,0.8-2.6,0.8c-0.2,0-0.2,0-0.3-0.2
		c-0.3-1.1-0.4-2.2-0.5-3.3c-0.1-1.2-0.2-2.3-0.5-3.5c-1.4-5.9-1.3-11.3-1-16.2l0-0.6c0.1-1.5,0.2-3.2-0.8-4.3
		c-0.4-0.4-1-0.9-2.1-0.9c-0.3,0-0.6,0-1,0.1c-2.1,0.4-3.8,1.5-4.6,2.9c-0.9,0.8-1.3,2.8-1.3,2.8v0.4c-0.9,3.1-0.3,6.3,0.2,9.4
		c0.3,1.7,0.6,3.3,0.6,4.9c0.1,5.2,0.5,10.3,1.3,16c0.7,5.2,0.8,10.7,0.8,15.9v1.4c0,2.8,0.7,4.7,2.4,6.9l0,0l0.7,0.8l1-0.4
		c0.4-0.2,0.8-0.3,1.2-0.4c1.3-0.5,2.9-1,3.9-2.4c1.3-1.8,1.1-4.5,1-6.9c0-0.8-0.1-1.5-0.1-2.1c0-1.3,0.2-2.4,0.4-3.4c0,0,0,0,0-0.1
		c0.1,0,0.2,0.1,0.2,0.1c0.2,0.1,0.5,0.2,0.8,0.2c4.1,1.1,8.2,2.9,12.2,4.6L424,70c0.3,0.1,1.3,0.7,2.3,1.3
		c4.5,2.6,12.8,7.5,17.5,7.5c1.4,0,2.5-0.4,3.2-1.2c0.8-0.8,1.1-1.9,1.1-3.2C448.1,72.2,446.2,70.7,444.7,69.5z M428.6,57l-0.3,0.1
		c-1.2,0.2-2.5,0.3-3.8,0.3c-2.3,0-4.3-0.3-5.7-0.9c-1-0.5-1.4-0.9-1.4-1.1c0-0.5,1.1-1.4,2.7-2.1c0.6,0,1.3-0.1,1.8-0.3
		c1.2-0.1,2.5-0.2,3.8-0.2c2.5,0,4.2,0.5,5.2,1.4c0.5,0.5,0.6,0.8,0.6,0.9C431.5,55.7,429.4,56.7,428.6,57z"/>
	<path class="st0" d="M348.9,69.5l-0.1-0.4c-0.6-2.6-1.3-5.2-2-7.8l-0.2-0.7c-1.3-4.4-2.8-9.4-2-13.7c0.9-4,1.6-8.5-0.4-11.4
		c-0.9-1.3-2.3-2.1-4.1-2.4c-0.2,0-0.4,0-0.5,0c-1,0-1.9,0.4-2.6,1.1c-2,2-1.9,6.4-1.8,9.8c0,0.9,0,1.8,0,2.3
		c-0.1,1.8-0.5,3.6-1,5.4c-0.2,1-0.4,1.9-0.6,2.9c-0.1,0.6-0.2,1.2-0.3,1.8c-0.3,1.7-0.5,3.2-1.1,4.6c-1.8,3.6-4.9,5.5-9.4,5.5
		c-5.4,0-8.7-0.8-10.9-4.9c-1.9-3.5-2.9-9.3-3-13.4c-0.1-2.4,0-4.9,0.2-7.3c0.2-2.7,0.3-5.5,0.2-8.2c-0.3-6.2-5.2-6.3-9-6.4l-1.9,0
		v1.4c0,2.3,0.2,4.5,0.3,6.6l0.1,1.6c0.2,3,0.2,6.1,0.2,9.1c0,8,0,16.2,4,23.8c2.7,4.6,8.5,8,13.1,9.4c1.6,0.5,3.2,0.7,4.9,0.7
		c3,0,6-0.7,9.9-2.4c0.5-0.2,1.1-0.5,1.7-0.7c1.6-0.8,3.2-1.5,4.8-1.6c0.7,0.8,1.3,1.9,1.8,3c0.2,0.4,0.4,0.7,0.6,1.1
		c0.8,1.6,2,3.7,4.4,3.7l0,0c0.4,0,0.7-0.1,1.1-0.2c1.9-0.5,3.5-2.1,4.3-4.2c1-2.4,0.3-4.8-0.2-6.9C349.1,70.4,349,70,348.9,69.5z"
		/>
</g>
</svg>
