<svg id="Layer_1" data-name="Layer 1" xmlns="http://www.w3.org/2000/svg" width="628.76" height="100" viewBox="0 0 628.76 100"><g id="Layer_1-2" data-name="Layer 1"><path d="M388.46,0a51.91,51.91,0,0,0-38.08,14.83,49.06,49.06,0,0,0-15.22,36.38,48.53,48.53,0,0,0,4.92,21.83,49,49,0,0,0,10.77,13.61,54.81,54.81,0,0,0,15.87,8.69c6,2.46,11.72,3.12,20.79,3.12A105,105,0,0,0,408.11,96a92.48,92.48,0,0,0,18.24-6.33l.19-23.62a25.41,25.41,0,0,1,.66-6.62,6.72,6.72,0,0,1,3.21-3.59,21,21,0,0,1,7.37-1.51V51.81H391.29v2.55h2.46a11.53,11.53,0,0,1,5.95,1.42,7.6,7.6,0,0,1,3.22,2.93,23.48,23.48,0,0,1,.75,7.37V90.46a52.08,52.08,0,0,1-6.9,2.17,35.08,35.08,0,0,1-7.08.66,24.49,24.49,0,0,1-15.31-4.82,23.72,23.72,0,0,1-10.49-13.89,80.42,80.42,0,0,1-3.21-24.09,82.54,82.54,0,0,1,2.93-22.11,32.39,32.39,0,0,1,10.11-16.82,26.74,26.74,0,0,1,17.76-6.05C399,5.51,402.73,8,409,12.79a41.88,41.88,0,0,1,14.18,21h2.64V0h-2.64A12.49,12.49,0,0,1,420,5.51a5.42,5.42,0,0,1-3.59,1.42,39.43,39.43,0,0,1-8.22-2.65A54.79,54.79,0,0,0,388.46,0Z" fill="#fff"/><path d="M292.45,14C283,5.3,270.78.86,256,.86c-.61,0-1.21,0-1.83,0h-1c-.85,0-1.69-.05-2.52-.05h0a50.21,50.21,0,0,0-35.19,13.28,45.32,45.32,0,0,0-15.31,35A47.9,47.9,0,0,0,212,81.39q14.93,17.28,42.14,17.29h.09q27.18,0,42.05-18.05A48.63,48.63,0,0,0,307.48,49,45.85,45.85,0,0,0,292.45,14ZM276.2,74c-2.36,6.33-5.1,11-9.35,13.79a22.24,22.24,0,0,1-12.67,3.59,21.18,21.18,0,0,1-17.48-7.65c-5.86-7.37-8.6-19.09-8.6-34.68,0-13,1.89-23.15,5.77-30,4.63-8.5,11.34-12.76,20.31-12.85h.19a23.28,23.28,0,0,1,12.95,3.69,26.65,26.65,0,0,1,9.16,12.75c2.46,5.95,3.69,14.93,3.69,27A68.61,68.61,0,0,1,276.2,74Z" fill="#fff"/><path d="M199,69h-2.83A29.82,29.82,0,0,1,183.88,86.3c-5.76,4.16-8.5,6.24-18,6.24h-6.14a13.48,13.48,0,0,1-6.42-1.14,5.59,5.59,0,0,1-2.65-2.93,35.4,35.4,0,0,1-.76-9.63V50.77a17,17,0,0,1,9.08,1.8,15.64,15.64,0,0,1,6.8,7A35.76,35.76,0,0,1,169.52,73h2.93V22.9h-2.93a32.6,32.6,0,0,1-5.58,16.82,12.57,12.57,0,0,1-12,5.76h-2.08V7.78h10.59a65.87,65.87,0,0,1,16,1.23,22.78,22.78,0,0,1,11.24,6.61c2.74,3,4.73,7.94,6.24,14.83h2.83V2.2H110.56V4.85h3.49a13.63,13.63,0,0,1,7.85,2,6.42,6.42,0,0,1,2.83,3.78,44.86,44.86,0,0,1,.38,7.94V81.48a26.58,26.58,0,0,1-.85,8.88,6.41,6.41,0,0,1-3,3.41,15.69,15.69,0,0,1-7.18,1.41h-3.49v2.65h84Z" fill="#fff"/><path d="M76.82,4.85h.6c5.65,0,8.56,1.33,11,4,1.89,2,2.74,5.85,2.74,11.62v41.1L38.17,2.2h-34V4.85c3.21.09,1.6.56,3.4,1.32a21.38,21.38,0,0,1,6,5l2.36,2.55V81.2c0,5.1-1.22,8.69-3.49,10.77S6,95.18,0,95.18v2.65H38.17V95.18H35.62a17.07,17.07,0,0,1-9.73-2.83c-2.83-2-4.25-5.67-4.25-11.15V20.44L94.4,100H97V20.44a24.54,24.54,0,0,1,1.33-9.54,8.16,8.16,0,0,1,3.68-4.07,13.85,13.85,0,0,1,6.81-2V2.2h-32Z" fill="#fff"/><path d="M613.63,14C604.19,5.3,592,.86,577.19.86c-.61,0-1.21,0-1.83,0h-1c-.85,0-1.69-.05-2.52-.05h0a50.21,50.21,0,0,0-35.19,13.28,45.32,45.32,0,0,0-15.31,35,47.9,47.9,0,0,0,11.82,32.32q14.93,17.28,42.14,17.29h.09c18.15,0,32.13-6.05,42.15-18.05A48.62,48.62,0,0,0,628.75,49,45.57,45.57,0,0,0,613.63,14ZM597.38,74c-2.36,6.33-5.1,11-9.35,13.79a22.24,22.24,0,0,1-12.67,3.59h0a21.17,21.17,0,0,1-17.48-7.65c-5.86-7.37-8.6-19.09-8.6-34.68,0-13,1.89-23.15,5.77-30,4.63-8.5,11.34-12.76,20.31-12.85h.19a23.28,23.28,0,0,1,13,3.69,26.72,26.72,0,0,1,9.16,12.75c2.46,5.95,3.69,14.93,3.69,27A68.61,68.61,0,0,1,597.38,74Z" fill="#fff"/><path d="M520.18,69h-2.83A29.79,29.79,0,0,1,505.06,86.3c-5.76,4.16-8.5,6.24-18.05,6.24h-6.14a13.48,13.48,0,0,1-6.42-1.14,5.59,5.59,0,0,1-2.65-2.93,35.4,35.4,0,0,1-.76-9.63V50.77a17,17,0,0,1,9.08,1.8,15.64,15.64,0,0,1,6.8,7A35.94,35.94,0,0,1,490.7,73h2.93V22.9H490.7a32.6,32.6,0,0,1-5.58,16.82,12.57,12.57,0,0,1-12,5.76H471V7.78h10.59A65.87,65.87,0,0,1,497.6,9a22.78,22.78,0,0,1,11.24,6.61c2.74,3,4.72,7.94,6.24,14.83h2.83V2.2H431.74V4.85h3.49a13.58,13.58,0,0,1,7.84,2,6.39,6.39,0,0,1,2.84,3.78,44.86,44.86,0,0,1,.38,7.94V81.48a26.58,26.58,0,0,1-.85,8.88,6.41,6.41,0,0,1-3,3.41,15.69,15.69,0,0,1-7.18,1.41h-3.49v2.65h84Z" fill="#fff"/><path d="M320.71,58.71h1.39a9.32,9.32,0,1,0-.83-18.62h-.56c-.28,0-.55,0-.83,0a9.32,9.32,0,0,0,.83,18.62Z" fill="#fff"/></g></svg>