<svg id="Layer_1" data-name="Layer 1" xmlns="http://www.w3.org/2000/svg" width="773.06" height="100" viewBox="0 0 773.06 100"><path d="M17.6,97.6a39.46,39.46,0,0,1-14-8.13C1.2,87.33,0,85,0,82.4A7.5,7.5,0,0,1,2.27,77a7.35,7.35,0,0,1,5.46-2.33,7.07,7.07,0,0,1,4.54,1.6,39.39,39.39,0,0,0,10.4,6.4,32.63,32.63,0,0,0,12,2,23.94,23.94,0,0,0,12.86-3.34q5.4-3.33,5.4-8.26a10.6,10.6,0,0,0-5.33-9.4q-5.34-3.41-16.93-5.14Q1.46,54.27,1.47,31.33a24.54,24.54,0,0,1,4.4-14.6,27.77,27.77,0,0,1,12-9.46A42.39,42.39,0,0,1,34.8,4,48.68,48.68,0,0,1,50.6,6.53,38.47,38.47,0,0,1,62.93,13.2c2.58,2.05,3.87,4.4,3.87,7.07a7.54,7.54,0,0,1-2.27,5.4A7.21,7.21,0,0,1,59.2,28a5.86,5.86,0,0,1-3.6-1.2,34.89,34.89,0,0,0-9.67-5.13A31.93,31.93,0,0,0,34.8,19.33q-8.4,0-13,3.14a9.52,9.52,0,0,0-4.6,8.2,9.55,9.55,0,0,0,4.73,8.66q4.74,2.94,14.87,4.8,11.46,2,18.33,5.14A23.45,23.45,0,0,1,65.47,57.8q3.47,5.4,3.46,14.33A24,24,0,0,1,64.2,86.87,30.53,30.53,0,0,1,51.6,96.6,42.18,42.18,0,0,1,34.67,100,55.77,55.77,0,0,1,17.6,97.6Z" fill="#fff"/><path d="M132.26,29.53q6.94,3.54,6.94,9.4a8.05,8.05,0,0,1-1.74,5.14,5.5,5.5,0,0,1-4.53,2.2,8.55,8.55,0,0,1-3.47-.6,12.85,12.85,0,0,1-2.6-1.6,18.47,18.47,0,0,0-2.46-1.67,17.15,17.15,0,0,0-3.94-1.2,22.28,22.28,0,0,0-4.2-.53q-10,0-15.66,6.2t-5.67,16.2q0,9.6,5.73,15.93a18.92,18.92,0,0,0,14.67,6.33q6.54,0,9.73-1.6a16.22,16.22,0,0,0,2.2-1.4,16.14,16.14,0,0,1,2.6-1.53,7.32,7.32,0,0,1,2.94-.53,6.75,6.75,0,0,1,5.26,2.13A7.84,7.84,0,0,1,140,87.87q0,3.19-3.74,6a29.14,29.14,0,0,1-9.86,4.46A49.73,49.73,0,0,1,113.33,100a33.79,33.79,0,0,1-18.07-4.8A32.21,32.21,0,0,1,83.2,81.93a41.22,41.22,0,0,1-4.27-18.86,40.24,40.24,0,0,1,4.47-19.2A32.86,32.86,0,0,1,95.86,30.73,35,35,0,0,1,114,26Q125.32,26,132.26,29.53Z" fill="#fff"/><path d="M195.4,28.27a6.76,6.76,0,0,1,2.73,5.33c0,2.76-.71,4.82-2.13,6.2a7,7,0,0,1-5.07,2.07,13.15,13.15,0,0,1-4.53-.94l-1.8-.53a10.82,10.82,0,0,0-3-.4,11.87,11.87,0,0,0-6.67,2.13,15.67,15.67,0,0,0-5.27,6.47,23.91,23.91,0,0,0-2.06,10.33v31.6a8,8,0,0,1-2.27,5.8,8.2,8.2,0,0,1-11.47,0,8,8,0,0,1-2.26-5.8V35.47a8,8,0,0,1,2.26-5.8,8.2,8.2,0,0,1,11.47,0,8,8,0,0,1,2.27,5.8V37.2a20.15,20.15,0,0,1,8.8-8.33A27.05,27.05,0,0,1,188.66,26,10.23,10.23,0,0,1,195.4,28.27Z" fill="#fff"/><path d="M268,66.53a8.45,8.45,0,0,1-5.6,2h-44a20.09,20.09,0,0,0,7.33,12.34,20.47,20.47,0,0,0,12.93,4.46,28.6,28.6,0,0,0,8.54-1,21.74,21.74,0,0,0,4.86-2.13c1.2-.75,2-1.27,2.47-1.53a10.17,10.17,0,0,1,4.53-1.2,6.51,6.51,0,0,1,4.8,2,6.36,6.36,0,0,1,2,4.66q0,3.6-3.73,6.54a31.89,31.89,0,0,1-10,5.2,41.35,41.35,0,0,1-32.2-2.54,32.69,32.69,0,0,1-12.87-12.86A37.55,37.55,0,0,1,202.53,64a40.88,40.88,0,0,1,4.8-20.13A34.07,34.07,0,0,1,220,30.6,32.68,32.68,0,0,1,236.8,26a31.16,31.16,0,0,1,16.6,4.8,35.86,35.86,0,0,1,12.46,12.93,34.71,34.71,0,0,1,4.67,17.6A6.83,6.83,0,0,1,268,66.53ZM218.53,55.2h34.93v-.93a13.72,13.72,0,0,0-5.46-9.6,17.3,17.3,0,0,0-11.2-4Q221.34,40.67,218.53,55.2Z" fill="#fff"/><path d="M345.33,66.53a8.45,8.45,0,0,1-5.6,2h-44a20.13,20.13,0,0,0,7.33,12.34A20.5,20.5,0,0,0,316,85.33a28.57,28.57,0,0,0,8.53-1,21.84,21.84,0,0,0,4.87-2.13c1.2-.75,2-1.27,2.46-1.53a10.17,10.17,0,0,1,4.54-1.2,6.54,6.54,0,0,1,4.8,2,6.4,6.4,0,0,1,2,4.66q0,3.6-3.74,6.54a31.89,31.89,0,0,1-10,5.2,41.35,41.35,0,0,1-32.2-2.54A32.6,32.6,0,0,1,284.4,82.47,37.45,37.45,0,0,1,279.86,64a40.88,40.88,0,0,1,4.8-20.13A34.07,34.07,0,0,1,297.33,30.6a32.68,32.68,0,0,1,16.8-4.6,31.14,31.14,0,0,1,16.6,4.8A36,36,0,0,1,343.2,43.73a34.8,34.8,0,0,1,4.66,17.6A6.83,6.83,0,0,1,345.33,66.53ZM295.86,55.2H330.8v-.93a13.77,13.77,0,0,0-5.47-9.6,17.28,17.28,0,0,0-11.2-4Q298.66,40.67,295.86,55.2Z" fill="#fff"/><path d="M418.13,34.07q5.19,8.07,5.2,22.33V90.53a8,8,0,0,1-2.27,5.8,8.2,8.2,0,0,1-11.47,0,8,8,0,0,1-2.26-5.8V56.4q0-7.34-3.07-11.53t-10.53-4.2q-7.74,0-12.14,4.46a15.43,15.43,0,0,0-4.4,11.27V90.53a8,8,0,0,1-2.26,5.8,8.2,8.2,0,0,1-11.47,0,8,8,0,0,1-2.27-5.8V35.47a8,8,0,0,1,2.27-5.8,8.2,8.2,0,0,1,11.47,0,8,8,0,0,1,2.26,5.8v2.26a32.25,32.25,0,0,1,9.4-8.26A24.38,24.38,0,0,1,399.33,26Q412.92,26,418.13,34.07Z" fill="#fff"/><path d="M435.33,83.6q0-3.46,3.46-5.87a7.09,7.09,0,0,1,3.87-1.2A7.52,7.52,0,0,1,448,79.07a28.2,28.2,0,0,0,8.34,6.13,24.83,24.83,0,0,0,10.46,2q10.41-.4,10.4-7.87a6.38,6.38,0,0,0-3.53-5.86,49.4,49.4,0,0,0-11-4,94.85,94.85,0,0,1-12.6-4.27,22.18,22.18,0,0,1-8.4-6.47q-3.54-4.32-3.53-11.66a17.69,17.69,0,0,1,3.66-11.14,24.22,24.22,0,0,1,9.6-7.33A31.13,31.13,0,0,1,464,26a38.88,38.88,0,0,1,13.6,2.53A23.65,23.65,0,0,1,488.26,36,7.43,7.43,0,0,1,490,40.8a6.19,6.19,0,0,1-2.53,5.07,6.72,6.72,0,0,1-4.27,1.46,6.53,6.53,0,0,1-4.8-1.86,16.89,16.89,0,0,0-6.2-4.67,20.57,20.57,0,0,0-8.6-1.73q-10.12,0-10.13,7.33a6.24,6.24,0,0,0,1.87,4.73,12.63,12.63,0,0,0,4.73,2.8q2.87,1,8.07,2.47a88.05,88.05,0,0,1,12,4.13,20.6,20.6,0,0,1,8.13,6.54q3.33,4.4,3.33,11.6a17.85,17.85,0,0,1-3.86,11.4,24.52,24.52,0,0,1-9.94,7.4A32.2,32.2,0,0,1,465.33,100a45.23,45.23,0,0,1-16.4-2.93,27.24,27.24,0,0,1-12.4-9.47A6.49,6.49,0,0,1,435.33,83.6Z" fill="#fff"/><path d="M560.66,34.07q5.07,8.07,5.07,22.33V90.53a8,8,0,0,1-2.27,5.8,8.2,8.2,0,0,1-11.47,0,8,8,0,0,1-2.26-5.8V56.4q0-7.34-2.87-11.53t-10.07-4.2q-7.47,0-11.66,4.46a15.82,15.82,0,0,0-4.2,11.27V90.53a8,8,0,0,1-2.27,5.8,8.2,8.2,0,0,1-11.47,0,8,8,0,0,1-2.26-5.8V8.13a8,8,0,0,1,2.26-5.8,8.22,8.22,0,0,1,11.47,0,8,8,0,0,1,2.27,5.8V37.6a32.58,32.58,0,0,1,9.13-8.2A23.06,23.06,0,0,1,542.39,26Q555.59,26,560.66,34.07Z" fill="#fff"/><path d="M646.79,82.2a33.89,33.89,0,0,1-13.13,13.13,38.45,38.45,0,0,1-36.73,0A33.94,33.94,0,0,1,583.86,82.2a38.09,38.09,0,0,1-4.8-19.13,38.15,38.15,0,0,1,4.8-19.14,34.53,34.53,0,0,1,13.07-13.2,38,38,0,0,1,36.73,0,34.47,34.47,0,0,1,13.13,13.2,38.15,38.15,0,0,1,4.8,19.14A38.09,38.09,0,0,1,646.79,82.2ZM632.86,51.4a20.1,20.1,0,0,0-7.33-7.93,20,20,0,0,0-20.4,0,20,20,0,0,0-7.34,7.93,24.46,24.46,0,0,0-2.73,11.67,24.09,24.09,0,0,0,2.73,11.6,20.12,20.12,0,0,0,7.34,7.86,20,20,0,0,0,20.4,0,20.17,20.17,0,0,0,7.33-7.86,24.09,24.09,0,0,0,2.73-11.6A24.46,24.46,0,0,0,632.86,51.4Z" fill="#fff"/><path d="M702.73,85.4a7.06,7.06,0,0,1,1.53,4.73c0,2.4-1.31,4.43-3.93,6.07a16.32,16.32,0,0,1-8.87,2.47,25.78,25.78,0,0,1-13.93-3.54q-5.67-3.52-5.67-15V43.33h-6.13a7.28,7.28,0,0,1-7.47-7.46,6.87,6.87,0,0,1,2.13-5.14,7.39,7.39,0,0,1,5.34-2.06h6.13V20.13A8,8,0,0,1,680,12a7.52,7.52,0,0,1,5.6,2.33,8,8,0,0,1,2.27,5.8v8.54h9.47a7.28,7.28,0,0,1,7.46,7.46,6.87,6.87,0,0,1-2.13,5.14,7.34,7.34,0,0,1-5.33,2.06h-9.47V79.47a5.08,5.08,0,0,0,1.47,4.06,5.87,5.87,0,0,0,4,1.27,11.68,11.68,0,0,0,2.93-.53,7.89,7.89,0,0,1,3.07-.67A4.45,4.45,0,0,1,702.73,85.4Z" fill="#fff"/><path d="M716.79,83.6c0-2.31,1.15-4.27,3.47-5.87a7,7,0,0,1,3.86-1.2,7.54,7.54,0,0,1,5.34,2.54,28,28,0,0,0,8.33,6.13,24.91,24.91,0,0,0,10.47,2q10.4-.4,10.4-7.87a6.37,6.37,0,0,0-3.54-5.86,49.2,49.2,0,0,0-11-4,95.87,95.87,0,0,1-12.6-4.27,22.34,22.34,0,0,1-8.4-6.47q-3.52-4.32-3.53-11.66a17.64,17.64,0,0,1,3.67-11.14,24.08,24.08,0,0,1,9.6-7.33,31.07,31.07,0,0,1,12.6-2.6,39,39,0,0,1,13.6,2.53A23.67,23.67,0,0,1,769.72,36a7.39,7.39,0,0,1,1.74,4.8,6.2,6.2,0,0,1-2.54,5.07,6.67,6.67,0,0,1-4.26,1.46,6.5,6.5,0,0,1-4.8-1.86,17,17,0,0,0-6.2-4.67,20.61,20.61,0,0,0-8.6-1.73q-10.14,0-10.14,7.33a6.24,6.24,0,0,0,1.87,4.73,12.63,12.63,0,0,0,4.73,2.8q2.87,1,8.07,2.47a88.05,88.05,0,0,1,12,4.13,20.6,20.6,0,0,1,8.13,6.54q3.33,4.4,3.34,11.6a17.8,17.8,0,0,1-3.87,11.4,24.56,24.56,0,0,1-9.93,7.4A32.24,32.24,0,0,1,746.79,100a45.27,45.27,0,0,1-16.4-2.93A27.24,27.24,0,0,1,718,87.6,6.49,6.49,0,0,1,716.79,83.6Z" fill="#fff"/></svg>