<svg id="Layer_1" data-name="Layer 1" xmlns="http://www.w3.org/2000/svg" width="387.5" height="100" viewBox="0 0 387.5 100"><polygon points="20.85 56.2 11.23 0.01 0 0.01 20.85 99.99 41.59 0.01 30.37 0.01 20.85 56.2" fill="#fff"/><rect x="46.19" y="0.01" width="11.23" height="99.97" fill="#fff"/><path d="M101.16,43.1V11.34C96.56,1.13,88.63,0,88.63,0H67.46V100H78.69V48.33L94.31,100h10.35L92.17,52.72C99.11,48.55,101.16,43.1,101.16,43.1ZM89.92,44.92H78.69V10.18H89.92Z" fill="#fff"/><polygon points="104.68 10.17 115.8 10.17 115.8 99.99 127.03 99.99 127.03 10.17 138.25 10.17 138.25 0.01 104.68 0.01 104.68 10.17" fill="#fff"/><path d="M178.68,99.89v.1h11.13l2.35-13.48h15.69L210.1,100h11.23l-21-100Zm15.73-22.36,6-34.43,5.13,34.43Z" fill="#fff"/><polygon points="237.05 0.01 225.83 0.01 225.83 99.99 253.84 99.99 253.84 89.83 237.05 89.83 237.05 0.01" fill="#fff"/><polygon points="376.16 0.01 366.65 43.1 356.17 0.01 345.9 0.01 360.55 58.82 360.55 99.99 371.78 99.99 371.78 58.82 387.5 0.01 376.16 0.01" fill="#fff"/><path d="M325.76,0C313,0,308.89,11.34,308.89,11.34c.11.16,0,75.18,0,77.32,1.69,12.15,16.87,11.33,16.87,11.33,16.83,0,16.82-11.33,16.82-11.33V11.34C338.23-.55,325.76,0,325.76,0Zm5.59,89.8H320.12V11.34h11.23Z" fill="#fff"/><path d="M165.31,88.65H154V0H142.64V88.65S147.34,100,160.07,100s16.36-11.34,16.36-11.34V0H165.31Z" fill="#fff"/><path d="M295.55,51.7s0-1.22,0-2.18c4-.3,4.39-4.6,4.39-4.6s0-26.68,0-33.58C298.23,3.18,288.82,0,288.82,0H266.25V100h22.57c10.47-2.73,11.12-10.18,11.12-10.18s0-26.7,0-33.61C299.14,51.84,295.55,51.7,295.55,51.7Zm-18-40.29h11.31V44.93H277.51Zm11.31,78.4H277.48V55.07h11.34Z" fill="#fff"/></svg>