<svg id="Layer_1" data-name="Layer 1" xmlns="http://www.w3.org/2000/svg" width="693.98" height="100" viewBox="0 0 693.98 100"><path d="M654.43,49.75,693.85,1.57l-44.17.26L632.4,22.89,615.18,1.83,571,1.57l39.45,48.18L571,98l44.21-.25,17.28-21.09,17.28,21L694,98Zm-22,21.74L613.75,94.41l-35.84.2,36.63-44.79L577.9,4.87l35.72.18,18.81,23,18.8-23L687,4.94,650.21,49.75l36.73,44.86-35.75-.2Z" fill="#fff"/><path d="M157.84,61.28h27V37h-27V31.2h53.84L202,1.22H127.86V97.85H202l9.69-30H157.84Zm49.37,9.81-7.58,23.48H131.1v-90h68.53L207.21,28H154.59V40.29l27-.12V58h-27V71.09Z" fill="#fff"/><path d="M523.51,67.86V61.28h26.74V37H523.51V31.2h53.28l-9.59-30H493.82V97.85h73.34l9.56-30ZM564.79,94.6H497.12V4.54h67.67L572.27,28h-52V40.22H547V58H520.27V71.09h52Z" fill="#fff"/><path d="M481.31,48.86c4.81-6.57,2.88-21.31,2.75-21.85C482,1.83,457.18,1.53,456,1.53H395.39V97.65H432V30h12.53c3.1,2.16,3,4.62,3,4.71v.46c.58,3.22.19,5.67-1.14,7.2-1.74,2.08-4.95,2.39-6.69,2.39a13.26,13.26,0,0,1-2.09-.13l-1.91-.33V74l15,23.77H493.4L471.23,58.29A36.24,36.24,0,0,0,481.31,48.86Zm6.52,45.64h-35.4L438.88,73.05v-25c2.73.1,7.2-.33,9.92-3.53,1.94-2.32,2.56-5.6,1.87-9.75,0-1.05-.25-4.83-4.82-7.76l-.41-.26H428.8V94.43H398.7V4.79h57.43c2.34,0,22.92.62,24.75,22.6.53,3.83,1.28,15-2.16,19.59a32.42,32.42,0,0,1-10.37,9.23l-1.54.77Z" fill="#fff"/><path d="M308.35,1.43l-6.68,35.83h25V97.83h35.89V37.21h24.91L380.79,1.37ZM359.19,34v60.6H329.91V34H305.59l5.47-29.26h67L383.51,34Z" fill="#fff"/><path d="M262.23,30.48l0,0a18.72,18.72,0,0,1,16,8.84l1.06,1.72,22.22-21.69-.93-1.15a49.35,49.35,0,1,0-7.18,69.41A48.81,48.81,0,0,0,300.11,81l1-1.14L279.31,57.52l-1.11,1.76a18.83,18.83,0,1,1-16-28.8Zm0,41a22.12,22.12,0,0,0,17.64-8.73L296.67,80A46.07,46.07,0,1,1,293,15h0a47.23,47.23,0,0,1,4.1,4.15L279.81,35.94a22.1,22.1,0,1,0-17.59,35.53Z" fill="#fff"/><path d="M64.82,38.4l-24.6-37L0,1l64.88,99L126.32,1.94,88.08,1.6ZM120.49,5.13,64.82,94,6.06,4.36l32.41.31L64.88,44.42l25-39.52Z" fill="#fff"/></svg>