<?xml version="1.0" encoding="utf-8"?>
<!-- Generator: Adobe Illustrator 25.4.1, SVG Export Plug-In . SVG Version: 6.00 Build 0)  -->
<svg version="1.1" id="Layer_1" xmlns="http://www.w3.org/2000/svg" xmlns:xlink="http://www.w3.org/1999/xlink" x="0px" y="0px"
	 viewBox="0 0 290.2 100" style="enable-background:new 0 0 290.2 100;" xml:space="preserve">
<style type="text/css">
	.st0{fill:#FFFFFF;}
</style>
<g>
	<path class="st0" d="M58.9,17.1c0.5-0.3,4.8-1.6,4.9-1.7c0.4-0.4-0.2-1.5,0.2-1.7s1.3-0.1,1.6-0.3c1.7-1,4.2-1,5.9-2.1
		c0.5-0.3,1-1.1,1.5-1.4c1-0.4,2.4-0.4,3.5-0.9c0.6-0.2,0.8-1.2,1.1-1.6c0.7-0.6,1.4-1.1,2.2-1.6C80.9,4.9,75.3,6,77.4,4
		c2-2,9.8-1.2,10.5-1.9L88,1.8c0.5-0.5,1.8,0.1,1.8-1.4V0c0,0-5,0.5-5.4,0.6C81.2,1.4,77,1,74,1.9c-1.3,0.4-8.1,1.5-8.6,2l-1.2,0.8
		c-5.7,1.1-11.4,1.8-17,2.7c-2.8,0.5-6.9,0.6-9.4,1.4c-2.2,0.8-5.8,0.9-8.1,1.5c-1.8,0.5-6.7-0.6-8.2,0.1c-0.5,0.6-0.7,1.4-0.6,2.1
		c0.2,0.2,0.9,0.2,1.1,0.3s0.6,0.3,0.5,0.7c-0.2,0.4-2.2-0.1-2.7,0.8c-0.6,1,1.6,2.5,2,3.1c0.6,1-1.7,1.4-1.2,2.7h1
		c0.5,0,0.9,0.2,1.2,0.6l0.4,0.3c0.9,1.3,22.4-2.3,22.4-2.3S39.5,72.5,14,75.4c-5.8,0.6-12-6.8-12.4-7c-0.4-0.2-0.9-0.2-1.4,0
		c-0.4,0.7-0.3,1.6,0.2,2.3C3.4,73.9,12,81,20.6,80.8C47.3,80.2,58,17.6,58,17.6C58.4,17.7,58.6,17.3,58.9,17.1z"/>
	<path class="st0" d="M90,13.4c-0.1-0.8-0.2-1.6-0.1-2.4l-1.2-1c-0.4-0.4-3.6,1.5-4.9,1.5c-2.8,0-2.1,0.9-3.5,2.3
		c-0.1,0.1-0.2-0.1-0.3-0.1c-0.3-0.3-0.3-0.3-0.3-0.9v-0.4c-0.5,0-1,0.2-1.5,0.4c-0.8,0.5-1.5,2.4-1.9,3.2c-0.8,1.7-2.1,2.9-3,4.6
		c-0.3,0.7-0.7,3.2-1.2,3.7c-2.1,2.1-6,8.5-7.3,11.1c-0.1,0.3-0.7,2.3-0.7,2.3c-1.4,2-2.7,4.2-3.8,6.4c-0.1,0.4-2.3,1.3-2.8,1.5
		c-0.4,0.2-1,0.1-1.3,0.4s-0.1,0.2-0.1,0.2l-0.2,0.1v0.1c0,2.7,1.9,0.8,2.5,1.5c0.1,0.5,0,1-0.1,1.5c-2.2,4.5-4.2,9.1-7,13.4
		c-0.1,0.3-0.2,0.6-0.3,0.9c-1,2-2.6,4.2-3.4,5.8c-0.3,0.6-0.4,1.3-0.7,2.1c0,0.1-0.2,1.4-0.3,1.2c0,1.7-1.8,4.7-1.2,6
		c0.2,0.4,0.1-0.3,0.3-0.4c0.4-0.3,1.1-0.5,1.4-1s0.8-3.1,1-3.2c0.7-0.5,1-1.4,1-0.2c0,0.5,0,1-0.1,1.5c-0.1,0.2,0.1,0.5,0,0.7
		l-0.2,0.4v0.7l0.2-0.3l0.1-0.3c0.1-0.2,0-0.3,0.1-0.6c0.2-0.4,0-0.3,0-0.3l0.2-0.2c0.4-0.3,0.1-1,0.4-1.4c0.4-0.6,0.8-1.3,1.2-2
		l0.9-1.6c0.1-0.3,0.2-0.8,0.4-0.6c1,1,0.8,3.8,0.3,5.3c-0.1,0.3-0.2,0.7-0.3,1c0.1,0.1,0.2-0.2,0.3-0.3c1.4-0.7,0.4-2.2,0.7-2.5
		c1.4-1.4,1.6-3.9,3.1-5.3c2.4-2.4,6.9-18,9.2-20.3c1.9-1.8,11.7-3.9,13.6-5.8c1.2-1.2,1.2,2.2,1.2,2.6c0,1.2-0.1,10.4,0,10.6
		c0.3,0.9,0.9,1.5,1.2,2.4c0.5,1.4-0.4,6.8,1,8.3c0.2,0.2,0.1-0.3,0.1-0.3c0.3-0.6,0.6-1.2,0.7-1.8c0-0.3,0.1-1,0.3-0.9
		s1.5,4.7,1.6,4.8c0.3,0.3,0,0.9,0.2,1.3c0.1,0.2,0.4,0.4,0.4,0.4c0,0.1,0.1,0.4,0.1,0.3c0.3-0.6,0.2-1.6,0.6-2.3
		c0.4-0.8,0.3-2.1,0.7-2.5c0.7-0.7,1.6,1.7,1.7,1.8c0.1,0.1,0.6,0.6,0.7,0.4v-3c0-4.6,0-30,0.1-30.3c0.2-0.3,1.2-15.9,1.2-17.7
		C91.5,14,91.2,14.5,90,13.4z M80.3,29.5c-0.3,1.4,0.2,5.7-0.1,6.3s-1.5,1-2.7,1.7c-1.5,0.9-3.1,1.7-4.7,2.3
		c-0.6,0.1-0.5,1.4-2.5,1.4l-0.1-0.2c0-1.5,3.3-6.1,3.8-8.2c0.4-0.2,0.5-1.4,0.6-1.5c1-0.7,2.5-4.1,3.9-5.5l1.5-1.5
		c0.1-0.1,0.3-0.2,0.4-0.1C80.5,26.1,80.5,27.8,80.3,29.5z"/>
	<path class="st0" d="M129,64.8c-0.5-1.4-0.8-2.8-0.9-4.3c0-1,0.1-8.9,0.3-9.2c0-0.1,0.7-3,0.7-3.2c0-0.2,1.8-7,2-7.5
		c0.5-0.9-0.1-2.9,0.7-3.7v-1.3c0-1.7-1.6-0.1-3-0.8c-0.4-0.2-0.5-0.9-1.2-0.8s-1,1-1.6,1.3l-1.8,0.8l-0.1,0.2h-0.2
		c-3.7,1-7.3,2.7-10.4,5c-0.9,0.7-1.5,3.1-2.4,3.6c-0.5,0.4-0.9,0.8-1.3,1.2c-0.1,0.1-0.5,0.3-0.4,0.4c0.3,0.6,2.7-1,3.1-1.2
		c1.5-0.8,3-1.5,4.5-2.3c0.4-0.2,3.3,0.2,4.3-0.5c0.3,0,0.6,0,0.9,0.1l0.2,0.2c0.7,0.6-0.2,2.6-0.6,3.8c-0.5,1.5-1.6,9.1-0.3,9.7
		c0.2,0.1,0.7,2,0.1,2.4c-1.1,0.7-2.3,1.1-3.4,1.7c-0.5,0.3-3.7-0.2-4.3-0.2c-0.8-0.1-1.6-0.3-2.4-0.5c-0.8-0.2-1.3-0.9-2-1.2
		c-4.9-1.9-8-8-8-13.4V45c0-8.1,7.9-18.8,15.5-21.4h0.1c1.6-0.4,3.1-1.6,4.6-2.2c1.3-0.5,2.8,0,4.2-0.3c1.8-0.5,1.6-1.4,0.8-2.2
		c-0.5-0.5,1.4-1.1,1.4-1.8h-0.2c-0.1,0-0.4,0.1-0.5,0c-0.5-0.2-1.2-0.2-1.6-0.4c-1-1.1-1.8-2.3-2.3-3.6h-0.4c-0.3,0-0.7,0-1,0
		c-0.5-0.4-1.1-0.8-1.5-1.3c-0.3-0.2,0,0.2-0.3,0c-0.3-0.1-0.6-0.2-0.9-0.2h-0.1l0,0c-0.2,0-0.5,0.2-0.7,0.2c-1.2,0.4-2.3,0.7-3.5,1
		c-1.6,0.5-2.9,0.8-4.4,1.4c-1.3,0.5-2.5,2.2-3.5,3.1c-7.4,6.3-13.4,17-12.6,27.8c0.3,2.9,0.7,5.7,1.3,8.6c0.6,1.2,1.2,2.5,1.6,3.8
		c0.1,0.4,6.6,6.1,7.2,6.6c1.2,0.8,3.2,0.7,4.2,1.7c0.7,0.8,8.8,0.8,9.5-0.2c0.8-1.1,1.8-2,3-2.7c1-0.5,0.9-2.7,2.2-2.2
		c0.1,0,2.5,4.3,5.1,5c0.1,0,0.5,0.8,0.8,0.5c0.1-0.1-0.1-0.1-0.1-0.2C129.2,65.5,129.1,65.2,129,64.8z"/>
	<path class="st0" d="M209.3,15.5c0.1-0.2,0.5-0.3,0.6-0.6c0,0,0.1-1-0.2-0.8v-1h-0.4c0-0.1,0.1-0.9-0.2-0.6v-0.4
		c-0.7,0-1.7-0.4-2.5-0.4c-0.1,0-1.7-0.2-1.6-0.4h-0.4c0.2-0.2-0.5-0.5-0.8-0.4v-0.4l-0.2-0.2h-0.6c0.2-0.2-0.5-0.5-0.6-0.6
		c-0.3-0.3-0.2-1-0.6-1.2c-0.4-0.2-0.9,0.5-1.2,0.2c0.4,1-1,0.8-1.3,1.4c-0.6,1.1,0.2,2.7-0.4,3.9l-2,1.7c-0.1,0.1-0.1,0.1,0,0.2
		c-0.7,0-1.8,1.2-1.9,1.2c0.1,0.1-0.1,0.3-0.2,0.4c-0.4,0.4-1.3,0.8-1.5,1.4c-0.6,1.2-2.3,2.3-2.9,3.5c-1,2-3.4,5.5-5.4,6.6
		c-0.4,0.2-1,2.2-1.6,1.9c0.1,0.3-1.5,1.8-1.8,2.3c-0.6,1.3-2.7,5.2-3.5,6.4c-0.4,0.6-1.7,1-1.5,1.5c0,0-2.1,1.3-1.9,1.8
		c-0.3-0.2-3.2,2.2-3.5,2.5c-0.6,0.6-2.8,0.5-3.1,1c-0.3,0.5,1,2.1,0.6,3.1c-0.3,0.6-1.4,0.9-1.4,1.5h1c1,0,1.5-0.6,2.3-0.6
		c0.1,0,0.3-0.1,0.2,0.2c-1.9,3.1-4,6.2-6.2,9.1c-0.8,0-1.6-0.1-2.3-0.2c-0.2-0.2-0.4-1-0.6-0.8c0-0.4,0-3.8,0-3.9
		c1-2,0.9-4.6,1.9-6.6c1.3-2.7,4-10.2,5.2-12c0.3-0.4,0.8-0.7,0.6-1.3h0.2c0.9-3.1,2.8-6.2,3.9-9.3c0.4-1.5,1-2.9,1.7-4.2l0.8-0.6
		c-0.1-0.3,0.8-1.7,0.4-2.1c-0.1-0.1-0.7-0.6-0.6-0.8h-0.4l-0.2-0.2v-0.4c-0.6,0.6,0.5-3.6-0.2-2.9c0-1.6-3.2-1.3-4.5-1.3l-0.2-0.2
		v-0.4c-0.2,0.1-0.4-0.2-0.6-0.2c-0.8,0-1.6,0-2.3,0.2c-1.3,0.8-4,7.9-5.2,9.1l-0.6,1.5c-0.2,0.3-0.8,0.6-0.6,1h-0.2
		c0.6,1.7-1,3-1.8,4.1c-0.1,0.2-1.1,6.4-1.1,7.3h-0.4c0,0.2-0.2,1-0.4,0.8c0.2,0.8-1.1,2.5-1.4,3.3c-2.6,7.9-1.8,5.1-7.4,10.6
		c-1,1-1.8,2.6-3.1,3.5c-0.6,0.3-1.2,0.7-1.8,1.1c0,0.1,0,0.1,0,0.2h-0.4c0.3,0.3-1.4,0.7-1.2,1c-0.1,0-2.5,2.4-4.2,1.5
		c-2.4-1.2,2.2-10,1.9-10.8c0.3-0.3,0.6-0.6,0.8-1c0.5-1,0.3-2.9,1-3.9c1.5-2.2,3.1-3.1,3.1-6.4l0.2-0.4h0.4
		c0.2-0.4,0.3-0.8,0.4-1.2c0,0,0.1,0,0.2,0c0,0,0,0,0,0l1-1c1-1,1.1-3,1.7-4.3c0.3-0.6,1.4-1.1,1.7-1.7c0.3-0.6-0.2-2.2,0.2-3.1
		c0.1-0.1,0.4-1,0.6-0.8c-0.1-0.4,3.5-5.2,3.3-5.6h0.4c-0.2-0.5,1.7-3.9,1.7-4.1h-0.4v-0.4c-0.3,0.3-1-1-1.1-1.2
		c-0.1-0.1-0.1-0.1-0.2,0v-0.4h-0.4c0.2-0.2-0.2-0.2-0.2-0.2s-0.1-1.2-0.4-1c-0.2-0.7-0.4-1.3-0.6-1.9H153c0.7-1.5-2.3-1-3.1-0.8
		c-0.3,0.2-1.3,1.4-1.6,1.2H148c0.3,0.3-0.2,0.2-0.2,0.2c-0.4,0.3-0.7,0.7-1,1.2c-0.2,0.7-2.7,3.6-2.3,4.8c-0.2,0.1-0.4,0.2-0.6,0.4
		c-0.5,0.8-0.9,1.7-1.3,2.5c-0.4,0.6-2.7,6.8-3.1,7.9c-0.1,0.2,0.1,1,0,1.2c-0.8,1.5-1.8,3.1-2.5,4.6c-1.1,2.2-1.9,6.2-3.3,8.9
		c-0.9,1.8-1.9,6.4-2.5,10.1c-0.1,2.1-0.1,4.2,0,6.4c0,0.9,0,1.8,0.2,2.7c0.1,0.1,0.5,0.9,0.6,0.8c-0.2,0.6,0.9,0.9,1.2,1.2
		c0.2,0.4,0.4,0.8,0.6,1.2c0.1,0.1,0.6,0.2,0.4,0.4c1.8-0.6,4.5,0.9,7-0.8c0.5-0.3,4.4-2.7,4.4-2.7l0.6-0.8c0.6-0.8,1.6-1.3,2.1-2.3
		c0.5-1,2.5-4.3,3.5-4.3c-1.6,0.2-0.4,9.4-0.4,10.4h0.4c0,0.4,0.2,2,0.8,1.7c-0.1,0.4,1,1.1,1.4,1.4c2.2,1.5,5.5-2.2,6.4-1.4
		c0.1,0.1-0.8,1.8-1,2.3c-1,2.5-2.2,5-3.5,7.3c-0.5,0.5-1.9,2.3-1.9,3.1c0,0.5-0.1,0.7,0.2,1c0,0-0.1,0.4,0.2,0.2v0.4
		c0.2-0.2,0.8,1,0.8,1c0.4,0.4,2.6-0.6,2.3-1.3c0.2,0.2,0.3-0.7,0.6-0.8c0.9-0.3,1.1,0.7,1.4,0.6c0.9-0.5,2.7-3.3,2.7-1.2h0.4v-0.4
		c0.1,0.1,0.7-0.3,0.8-0.4c1.5-1.7,2.7-3.6,3.8-5.6c0.1-0.4,1.1-1.7,1.3-1.5v-0.5c0.2,0.2,0.4-0.4,0.4-0.4c0.3-0.2,0.6-0.4,1-0.6
		c0.1-0.1,0.2-0.3,0.4-0.2c-0.2-0.5,0.2-1,0.6-1.3c2.4-2.4,7.6-13.4,9.5-17.2c1-1.4,2-2.7,3.1-4l2.1-0.2c0.1,0,0.8-0.2,0.6-0.4
		c0.3,0.1,5-3.7,6.6-3.7c-0.1-0.1,0.6-0.5,0.8-0.6c0.7-0.3,1.4-0.5,2.1-0.6v-0.4c0.2,0,1.6-0.7,1.9-0.4c0.8,0.8-0.8,6.9-0.8,7
		c0.1,0.9,0.3,1.8,0.6,2.7h0.4c0,2.7,0.4,5.3,0.4,8.1v0.8c0.1,0.1,1-0.1,1.1,0c1.1,1,0.2,5.8,1.8,7.3c0.1,0,0,0.1,0,0.2
		c0,0.4,0.2,0.6,0.6,0.6c0,0.7,0,0.8-0.4,1.2c0.1,0.3,0.2,0.7,0.2,1c0.5-0.2,0.4,0.6,0.4,0.6c0.6,0.6,0,2-0.4,2.7c0,0-0.1,1.3,0.2,1
		c-0.2,0.7,0.4,0.3,0.4,1h0.4c-0.1,0.1,0.5,0.5,0.6,0.8c0.2,0.5,0.3,1,0.4,1.5h0.2V76h0.4l0.2,0.4v0.4c0.4,0.4,0.5-1.2,0.2-1.7
		c-0.4-0.8,0.2-2.7,0.2-3.7c0.1-2.5,0.4-5,0.8-7.5c0.8-2.5,0.5-16.1,0.8-17.2c1-5.5,1.6-11.1,1.5-16.6c0-3.7,0.5-7.4,1.4-10.9
		C208.7,17.8,208.9,16.7,209.3,15.5z M196.9,25.8c-0.2,1.2-0.8,1.8-0.8,3.1c0,2.5-0.6,2.2-2.4,2.7c-1.8,0.5-3.9,3.3-5.5,3.3h0
		c0.1,0,0.5-1.5,0.7-1.9c1-1.7,2.1-3.8,3.2-5.4C193.1,26.3,198,20,196.9,25.8z"/>
	<path class="st0" d="M219.9,70.1c-0.1,0.4,0.1,2-0.1,2.2c-0.6,0.5-1.1,1.1-1.6,1.7c-0.1,0.2-0.2,0.7,0,0.8c0.5,0.2,1,0.3,1.6,0.3
		c0.5-0.2,0.4-1.7,0.4-2.4v-0.2c1.8-1.3,1.1-2.7,1.3-4.3c0,0.1-0.1,0.2-0.1,0.2C220.8,69,220.3,69.6,219.9,70.1z"/>
	<path class="st0" d="M233.8,27.1c1.3-0.4,1.2,1.2,1.6,1c0-0.5,0.4-0.9,0.6-1.3c1.9-4.2,2.8-4.7,8-4.7h0.1c0,0-0.1-0.1,0.1-0.3
		c0.5,0,1,0,1.5,0h0.4c0.7,0.6,1.4,1,2.2,1.4h0.2c0.1,0.2-0.1,0.4,0.3,0.5l2.2,0.8c0.3,0.6,0.6,1.2,1,1.7c0,0.4,0,0.9-0.1,1.3
		c-1.7,2.1-4.4,6.8-6.1,9.1c-0.3,0.3-0.8,0.2-1.3,0.2c-2.7,0-3.8-0.6-5-2.2c0,0-1-0.6-1.3-0.4c-0.2,0.2-0.2,0.6-0.4,0.8
		c-0.5,0.4-0.6,0.9-0.6,1.7l0.4,0.2c-0.2,0.1,0,0.5,0.5,0.6c0.5,0.1,2.4,1.9,2.1,2.2c-2.2,2.2-3.3-1.4-4.5,1.6
		c-0.2,0.6-0.5,1.3-0.3,1.6c0.2,0.2,6.7,4.4,7.3,4.7c0.3,0.2,8.2,9,8.3,9.4h0.1l0.5,0.3c2.4,0.7,4,3.1,6.9,4.4l0.3,0.5
		c0.3,0.4,1.6,0.6,1.9,0.9c0.7,0.7,1.4,1.7,2.5,2.8c2.3,2.2,6.1,6.6,8.9,8c3.6,1.8,11,9.2,13.6,10.2c0.1,0,3.7,3.5,3.8,3.6
		c0.1,0.1,0.2,0.4,0.5,0.3s0-0.5,0-0.8c0-0.6-1.1-0.6-1.3-1.3c0,0,0-0.1,0-0.1c-0.5-0.2-5.9-5.8-5.9-5.8c-0.1-0.5-0.3-1-0.5-1.4
		c-1-0.8-2.1-1.4-3.3-1.8c-0.5-0.2-1.7-2.2-2-2.5c-2.8-2.8-7-6.7-10.7-8.3c-0.3-0.1-0.5-0.8-0.9-0.6c-0.1-0.7-1.6-2-2.4-2.5
		c-0.1-0.1-0.1-0.3-0.3-0.2c-1-2.4-3.7-3.4-5.2-5.2l-1.7-0.4c-0.1,0,0-0.1,0-0.2c-0.5-0.8-1.1-1.6-1.7-2.3c-2-2.1-4.6-3.6-6.2-5.2
		c-0.8-0.8-2.4-2-3.1-2.8c-0.7-0.8-1.5-1.5-2.3-2.2c-0.3-0.3-0.5-0.8-0.5-1.3c0-0.3,0-0.5-0.1-0.8l-0.2-0.5l-0.1-0.1l0.3,0.1
		c0,0,0,0,0.1,0.2l0.3,0.7c0.1,0.4,0.6,0.5,0.9,0.8c0.6,0.4,1.3,0.6,1.6,1.2c0.5,1.2,2.3,1.1,2.7,1.4c0.5,0.5,1.9,1.9,2.5,1.9
		c-0.1,0.2,0.4,0.4,0.5,0.4l0.8,0.5c0.2,0.1,1.2-0.1,1.3,0c0.5,0.5,0.9,1,1.3,1.6c0.1,0.2,0.7,0.6,0.6,0.8h0.4c-0.2,0.2,0.8,0.9,1,1
		c0.2,0.1,0.4,0.8,0.4,0.8c0.6,0.5,1.2,1,1.7,1.5l0.3,0.5c0.3,0.3,1.2,0.8,1.3,0.9c1.1,1.9,2.3,1.7,3,2.5c1,1.3,1.7,3.1,3.4,4.3
		c1.1,0.8,3.1,1.5,4.2,2.2c0.4,0.2,4.5,4.2,4.5,4.2c1.5,0.5,7.7,5.3,8.1,6.4s7.2,4.1,6.8,5.4c0.1-0.8,0-1.5-0.3-2.2
		c-1.8-1.8-9.5-9-10.2-10c-0.7-0.9-1.6-1.8-2.5-2.5c-0.2-0.1-1.1-0.8-1-1c-4-1.8-8.5-8.1-12.8-9.9c-0.1,0-0.2,0.1-0.2,0
		c-1.1-1.4-2.3-2.7-3.7-3.9c-1.6-1.6-2.5-4.6-4.4-6.4c-0.2-0.3-3.6-3.3-3.6-3.4h0.3l0.6-0.1c0.7-0.3,1.4-0.8,1.9-1.4
		c1.2-0.9,2.6-1.7,4.1-2.2c0.3-0.1,0.6-1.2,0.8-1.4c0.8-1.1,2.4-1.4,3.4-2.8c1.5-2,2.7-4.2,3.5-6.6c0.3-1-0.2-2.8,0.1-3.6
		c-0.1-0.3,0.3-1.6,0.1-2c-0.4-0.7,0.3-1.8-0.3-2.4c-0.5-0.4-0.9-1-1.3-1.5c-0.1-0.4-0.3-0.9-0.5-1.3c-0.8-0.5-1.5-1.2-1.9-2
		c-0.1-0.2-2.2-0.6-2.2-1.4c-0.3,0.2-1.2-1.2-1.3-1.3c-0.9-0.9-1.6-0.9-2.8-1.6c-0.7-0.4-11.1-2-12.1-1.5c-0.6,0.3-1.4,1.3-2.2,1.7
		c-1.3,0.7-7.8-0.1-10.3,1.7l-0.5,0.3c-0.4,0.3-1.1,0.2-1.7,0.4c-0.6,0.3-0.7,0.8-1.3,1c-2.4,0.7-4.7,1.5-7,2.5
		c-0.4,0.2-0.9,0.4-1.2,0.6c-1.1,0.5-2.2,0.9-3.3,1.2c-0.4,0.2-0.8,0.4-1.1,0.6c-0.3,0.3,0,0.1-0.3,0.3c0.5,1.6-2.9,3.7-3.9,4.7
		c-0.2,0.1-0.5,2.1-0.3,2.4c0,0,0.6,0.2,0.5,0.3c0.6-0.2,0.3,0,0.6,0.2c1.3,0.7,1.3,1.2,2.3,2.2c0,0,1.5,0.1,1.6,0.1
		c0.5,0.3,0.3,0,0.8,0.2c0,0,0.5,0.5,0.6,0.4c-0.3,1.5,4.4,0.5,4.5,0.3c0.5-0.5,1-0.4,1.5-0.8c0.3-0.2,1-1.2,1.3-1
		c0,1.1-0.2,2.1-0.5,3.1c-0.8,1.4-0.9,3.6-1.3,4.2c-0.6,1.1-1.2,2.1-1.7,3.3c-0.5,1.1,0.4,2.5-0.5,3.6l-0.4,0.6
		c-0.4,0.6-2.7,8-3.3,9.6c-0.3,0.8,0.4,2.5,0,3.9c-0.2,0.8-0.9,0.8-1.4,1.5c-0.2,0.2-0.1,0.4-0.3,0.8c-0.2,0.4-0.2,1.1-0.3,1.2
		c-0.4,0.8-0.7,1.6-0.9,2.5c-0.2,0.4-0.8,0.6-1,1c-0.1,0.6,0,1.3,0.3,1.8c0.1,0.2-0.5,0.4-0.6,0.5s0.1,2,0,2.2
		c-0.9,2.2-4.8,7.5-3,9.4c0.2,0.2-0.6,1.5-0.6,2.2v1c0,0-0.1,0.2,0,0.2l0.2,0.1c0.1,0,0.1-0.1,0.2,0c0.7,0.7-0.4,1.2,1.4,0
		c0.7-0.4,0.8,0.7,1.1,0.5v-0.8c0.3-0.8,0.6-1.5,1-2.2c0.1-0.2,0.1-1.8,0.1-1.9c1.5-2.6,1.9,1.2,2.5,0.8c0.6-0.3,1.7-3.9,2.7-4.9
		c0,0,2-5.2,2.4-6c0.2-0.3,0.9-1.6,1.3-1.3c0,0,0,1.4,0,1.5c0,0.1,0.3,0.5,0.4,0.8c0-0.1,0-0.1,0.1-0.2c0.5-0.9,1-1.8,1.4-2.8
		c0.5-1.4,0.9-7,1.1-7.5c0.7-1.6,1-3.3,1-5c0-0.2-0.1-0.4,0-0.5c1.6-1.6,2.6-13,4.7-16.1l2.2-2.9C232.5,31.8,233.5,27.2,233.8,27.1z
		"/>
	<path class="st0" d="M221.8,67.5c0,0,0-0.2-0.1-0.3c-0.2,0.4-0.2,0.8-0.3,1.2C221.6,68.1,221.6,67.7,221.8,67.5z"/>
	<path class="st0" d="M286.3,89.5c-0.1,0-0.2,0-0.3-0.1c-0.8-0.9-1.6-1.7-2.5-2.5c-0.3-0.3-0.7-0.6-0.9-0.9c0,0-0.1,0-0.1,0
		c0-0.5-0.2-0.4-0.6-0.6c-1.8-1-5.6-5.8-6.8-7.5c-0.6-0.9-2.7-1.7-3.6-2.3c-0.4-0.2-0.4-0.9-0.8-1.2c-1.7-1.7-7.1-4.5-9-5.4
		c-0.4-0.2-0.3-1-0.8-1.2c-0.7-0.3-1-1.3-1.4-1.5s-4.2-3.7-5-4.2c-0.2-0.1-0.5-0.2-0.6-0.4c-0.2-0.6-0.6-1.2-1-1.7
		c-1.2-0.7-1.8-0.7-2.8-1.7c-0.1-0.1-0.5-1.2-0.7-1.6c-0.3-0.4-0.7-0.7-1.2-0.9c-0.8-0.3-3.7-4.1-4.6-5c-0.4-0.5-0.8-1-1.2-1.5
		c-0.1-0.1,0-0.4-0.1-0.4c-2.4-0.8-4.5-3.5-6.2-4.4c-1.3-0.6-2.5-0.5-3.9-1c-0.4-0.1-0.8,0.1-1.3-0.1v0c0.1,0.1-0.5,0.2-0.5,0.2
		s0,0.2,0,0.2v0.1c0,1,0.3,2.7,0.8,3c1.3,0.9,2.9,0.7,4.8,1.2h0.1c0.5,0.7,1,1.5,1.4,2.3c2.2,1.1,3.9,2.9,5.6,4.7l0.3,0.3
		c0.7,0.7,2.5,3.6,2.6,3.6l1.3,0.8c0.1,0.1,0.1-0.1,0.2,0c0.2,0.1,0.6,0.4,0.5,0.4h0.4c0.1,1.2,10.1,8.5,11.6,10.4
		c0.2,0.3,0.7,0.3,1,0.5c2.5,1.2,4.2,3.2,6.3,4c0.4,0.1,3.8,4,5.3,4.9c0.7,0.6,1.4,1.3,1.9,2.1c0,0,1.4,0.6,1.7,0.8
		c0,0,0.7,0,0.8,0.1c1.1,1.8,8.7,5.5,9.7,7.8c0.1,0.3,0.7,0.3,0.9,0.4c0.7,0.5,1.4,1.1,1.8,1.8c0.1,0.2,0.5,0.2,0.6,0
		C290.9,92,286.7,89.6,286.3,89.5z"/>
	<path class="st0" d="M288.6,97.7c-0.3-0.6-1.6-0.3-1.8-0.9c-0.2-0.6-0.8-0.9-1.2-1.4c-0.1-0.1-0.2-0.1-0.3-0.2
		c-2.8-2.7-6.9-5.3-10.8-9.2c-0.9-0.9-3-1.2-3.9-2.1c-0.3-0.4-0.8-0.2-1-0.6c0,0-1.7-1.5-1.9-1.7c-0.4-0.3-1.1-1.7-1.5-1.9
		c-0.5-0.3-1.6-0.7-1.9-1.2c-0.1-0.2-0.5,0.1-0.6-0.1s-3.1-2.7-3.3-2.8s-0.3-1.4-0.5-1.6c-0.6-0.6-1.8-1.2-2.5-1.9
		c-0.1-0.1-2.1-0.4-2.4-0.6c-0.8-0.5-1.2-1.8-1.8-2.5c-1.6-1.6-9.6-8.8-10.4-10.4c-1-2-0.2-3.1-2.2-4.8c-1.4-1-3.1-1.7-4.8-1.9
		c-0.5-0.1-2.6-2-3.2-2.3h-1.8c-0.1,0-0.4,0.3-0.5,0.3c0,0.3,0,0.5,0,0.8c0.5,0.8,2.2,1.1,2.7,1.7c0.5,0.5,0.8,1.8,1.7,2.6
		c1.1,0.3,2.1,0.6,3.1,1c0.6,0.9,0.4,1.5,0.9,2.3c0.4,0.6,1.5,0.5,1.8,1.2c0.5,1.1,8.5,9.7,10,10.2c0.1,0,0.1,0.2,0.1,0.2
		c3.3,4,5,3.5,7.6,5.2v0.1c0.4,0.9,1,1.8,1.6,2.6c2,1,3.9,3.1,5.8,4.4c0.1,0,0.1,0,0.1,0v0.1c0,0,7.6,5.9,7.9,6
		c0.5,0.2,1,0.5,1.4,0.9c0.1,0.1,0.2-0.1,0.2,0c0.4,1,4.3,3.2,5.3,4.2c1,1.1,2.3,1.9,3.7,2.5c0.8,0.5,1.5,1,2.2,1.5
		c0.3,0.3,0.9,0.5,1.2,0.8s0.7,0.4,0.9,0.6c0.2,0.2,0.3,0.3,0.4,0.5v0.2l0.1,0.1c0.2,0.2-0.2,0.1,0.1,0.3c0.1,0.1,0.1,0.2,0.2,0.2
		l0.1-0.3V99c0-0.4-0.1-0.4-0.3-0.7C288.9,98,288.8,98,288.6,97.7z"/>
	<path class="st0" d="M289.3,99.9L289.3,99.9C289.3,100,289.3,100,289.3,99.9z"/>
</g>
</svg>
