<?xml version="1.0" encoding="utf-8"?>
<!-- Generator: Adobe Illustrator 25.4.1, SVG Export Plug-In . SVG Version: 6.00 Build 0)  -->
<svg version="1.1" id="Layer_1" xmlns="http://www.w3.org/2000/svg" xmlns:xlink="http://www.w3.org/1999/xlink" x="0px" y="0px"
	 viewBox="0 0 589.7 100" style="enable-background:new 0 0 589.7 100;" xml:space="preserve">
<style type="text/css">
	.st0{fill:#FFFFFF;}
</style>
<g>
	<path class="st0" d="M103.5,2.3L103.5,2.3L65.1,97.7h18.7l6.9-18.6h24.5l1.6,18.6h18.1L124,2.3H103.5z M96.6,62.8l13.9-37.9
		l3.2,37.9H96.6z"/>
	<polygon class="st0" points="210.2,2.3 182.8,69.5 177.4,2.5 153,2.5 137.2,97.7 154.5,97.7 164.8,24 171.3,97.7 185.4,97.7 
		215.2,23.9 201.7,97.7 218.8,97.7 234.8,2.5 	"/>
	<path class="st0" d="M65.3,83.5c4.5-6.4,7.6-13.7,9.3-21.4l3-17.2H42l-3,17.8h18.2c-1.3,4.8-3.7,9.1-7.2,12.7
		c-3.7,3.5-8.6,5.3-13.6,5c-5,0.3-9.9-2.2-12.6-6.4c-3-5-4.5-10.7-4.2-16.5c-0.2-9.2,2.1-18.3,6.5-26.3c4.3-7.7,10.4-11.5,18.3-11.5
		c4-0.3,8,1,11.1,3.5c2.6,2.4,3.9,6.5,3.9,12.3H79c0-12.2-3.2-21.2-9.7-26.9c-7-5.9-15.9-9-25-8.6c-12.9-0.3-25,6-32.2,16.8
		C4,27.9,0,41.5,0,57.5c0,13.5,3.2,24,9.6,31.4C16,96.3,24.9,100,36.3,100c4.1-0.1,8.1-1,11.8-2.6C55,94.5,60.9,89.7,65.3,83.5
		L65.3,83.5z"/>
	<polygon class="st0" points="225.1,97.7 275,97.7 278.1,78.1 246.4,78.1 250,57.8 278.1,57.8 280.9,39.3 252.9,39.3 256.2,22.1 
		287.2,22.1 290.2,2.4 240.8,2.4 	"/>
	<path class="st0" d="M485.7,2.4l-38.4,95.4H466l6.8-18.6h24.5l1.7,18.6h18L506.2,2.4H485.7z M478.8,62.8l13.9-37.9l3.3,37.9H478.8z
		"/>
	<path class="st0" d="M399.4,44.9h-35.7l-3,17.8H379c-1.3,4.8-3.7,9.1-7.1,12.7c-3.7,3.5-8.6,5.3-13.6,5c-5.1,0.3-9.9-2.2-12.6-6.4
		c-3-5-4.4-10.7-4.2-16.5c-0.2-9.2,2.1-18.3,6.5-26.3c4.3-7.7,10.4-11.5,18.3-11.5c4-0.3,8,1,11.1,3.5c2.6,2.4,3.9,6.5,3.9,12.3
		h19.7c0-12.2-3.2-21.2-9.7-26.9c-7-5.9-15.9-9-25-8.6c-12.9-0.3-25,6.1-32.2,16.8c-8.1,11.2-12.1,24.7-12.1,40.7
		c0,13.5,3.2,24,9.6,31.4c6.4,7.4,15.3,11.1,26.7,11.1c4.1-0.1,8.1-1,11.8-2.6c6.9-2.9,12.9-7.7,17.2-13.8
		c4.5-6.4,7.7-13.7,9.4-21.4L399.4,44.9z"/>
	<path class="st0" d="M584.6,45.2c3.5-5.1,5.2-11.2,5.1-17.4c0-9-2-15.5-6.1-19.5s-9.8-6-17.1-6h-31.7v0l-15.8,95.3h18.2l6.1-36.3
		h8.5l14.1,36.3h20.9l-15.6-40.2C576.6,54.6,581.2,50.4,584.6,45.2z M566.7,41c-3.3,2.3-7.3,3.5-11.4,3.3l-9.4,0l4.2-23.5h10
		c2.9-0.2,5.8,0.5,8.3,2c1.8,1.3,2.7,4,2.7,8.1C571.5,34.8,569.8,38.5,566.7,41z"/>
	<polygon class="st0" points="417.1,78.1 420.8,57.8 448.8,57.8 451.6,39.4 423.6,39.4 426.9,22.1 457.9,22.1 460.9,2.4 411.5,2.4 
		395.8,97.7 445.7,97.7 448.8,78.1 	"/>
</g>
</svg>
