<svg id="Layer_1" data-name="Layer 1" xmlns="http://www.w3.org/2000/svg" width="461.14" height="100" viewBox="0 0 461.14 100"><path d="M183.76,23.89c21.52,0,24.43,3.11,25.29,13.7H232c-.58-36-6.68-34.88-46.09-36C146.16,1.51,140.2,1.51,140,50c0,45.58.41,49.25,44.55,49.66,37,.55,47.5-.55,47.26-35.78l-22.93-.07C209.15,76.11,204.7,78.17,184,78s-22.31-4.8-22.55-27.11S162.23,23.89,183.76,23.89Z" fill="#fff"/><path d="M308.16,62.65c24,.06,45.64,0,45.85-30.85C353.05,1.78,340,.1,307.37,0,267,1.17,260.69,4.7,260.08,36.36h23.5c-.24-13.12,2.51-16.17,23.79-16s23.78,1.85,24.3,11.11-.76,11.17-23,10.93v0c-26.56-.24-46.92,2.13-47.4,36.06V98.94h93.15V78.38h-70.7C283.72,67.68,284.1,62.58,308.16,62.65Z" fill="#fff"/><path d="M412,.51C365.52,1,363,5,362.78,49.62c-.44,42.94.48,49.93,49.18,50.38,48.7-.45,48.87-9.18,49.18-50.38C461.14,5.07,455.52.27,412,.51Zm24,50.07c-.31,20-2,26-24,26.18s-23.82-6-24-26.18.72-26.8,24-26.73v-.14C435.23,23.71,436.26,30.57,436,50.58Z" fill="#fff"/><polygon points="52.84 76.97 47.98 76.97 20.97 3.94 0 3.94 35.16 98.9 65.76 98.9 100.96 3.94 79.92 3.94 52.84 76.97" fill="#fff"/><rect x="108.7" y="3.94" width="21.01" height="95" fill="#fff"/></svg>