<svg id="Layer_1" data-name="Layer 1" xmlns="http://www.w3.org/2000/svg" width="2860.35" height="100" viewBox="0 0 2860.35 100"><path d="M1168.76,3a468.78,468.78,0,0,0-52.17-3,511.58,511.58,0,0,0-53.66,3c-12,1-22.88,2.92-34.33,4.7h-.74l-19.39,52.8h138.67c-.74,1.83-4.46,13.16-5.21,14.07-17.16,1-35.07,1.95-52.8,1.95s-35.81-1-51.49-1.95c-11.9-.91-22.37-2.92-32-3.72h-.75l-7.49,21.63h.74a316,316,0,0,0,31.35,4.69c17.16,1,34.33,1.89,52.18,1.89s35.75-.92,53.66-1.89c12-.92,23.85-2.92,35.07-4.69l19.5-52.8h-138c.69-2.92,4.46-13.16,4.46-14.14a508.61,508.61,0,0,1,52.81-1.88,465.92,465.92,0,0,1,52.17,1.88,289.59,289.59,0,0,1,31.35,3.78h.86l8.18-21.68h-1.49A289.28,289.28,0,0,0,1168.76,3Z" transform="translate(0 0)" fill="#fff"/><path d="M175.11,3a483.66,483.66,0,0,0-52.17-3C105,0,84.78,1.89,71.45,3H69.22c-11.15,1-32,2.92-44.73,4.7L17.11,28.2a26.59,26.59,0,0,0,9.72-.91C25.34,30.21,0,99.77,0,99.77H35S49,62.13,49.83,60.3h47c72.31,0,92.44-5.72,93.19-6.64h.8L207.15,7.55h-.74A287.15,287.15,0,0,0,175.11,3ZM161.61,37.7c-15.67.92-35,1.83-58.12,1.83H57.15a112,112,0,0,1,5.21-14.07,479.68,479.68,0,0,1,52.8-1.89,443,443,0,0,1,50.74,1.89C165.33,27.12,161.61,36.73,161.61,37.7Z" transform="translate(0 0)" fill="#fff"/><path d="M901.89,35.76c-11.9,1-21.63,1.94-34.33,1.94.75-1.94,2.23-8.52,2.23-8.52H834.73s-2.24,7.55-2.24,8.52c-11.44-1-24.6-1-34.32-1.94C798.91,33.92,810.87,0,810.87,0H775.63L757,53.66h.8a287.43,287.43,0,0,0,31.29,4.75c10.41.92,23.8.92,35,1.89-.51,1.83-14,39.53-14,39.53h35s13.44-38.62,14.19-39.53c13.44,0,25.34-1,38.16-1.89,11.89-1,21.62-3,32.78-4.75L949.6,0h-35S902.63,34.84,901.89,35.76Z" transform="translate(0 0)" fill="#fff"/><path d="M660.35,3c-14.93-1-29.06-3-48.45-3S577.57,1.89,562,3c-12,1-23.85,2.92-35.07,4.7h-.68l-32.9,90.21h35.07S542,62.13,542,60.24h96.8c-1.49,2.92-14.13,37.64-14.13,37.64h35L692.51,7.55h-.86A289.61,289.61,0,0,0,660.35,3Zm-14,36.68H550a119.43,119.43,0,0,1,5.21-14.08,442.51,442.51,0,0,1,49.25-2.06,403.64,403.64,0,0,1,46.91,1.89c-.68,1.89-4.4,12.24-5.15,14.07Z" transform="translate(0 0)" fill="#fff"/><path d="M400.46,74l-.06.4c-17.16,1-35,1.89-53.66,1.89-17.16,0-34.33-.92-50.69-1.89C297.54,72.48,323.63,0,323.63,0H288.56L255,92.28h.75a317.35,317.35,0,0,0,32,4.57c16.42.92,33.59,1.89,51.49,1.89s36.56-1,53.72-1.89c11.9-1,23.86-2.91,35.07-4.69h.69l7.49-22.88-1.49.91C424.31,71.17,413.1,73.11,400.46,74Z" transform="translate(0 0)" fill="#fff"/><path d="M2246.05,3h.12a456.82,456.82,0,0,0-51.49-3A511.58,511.58,0,0,0,2141,3c-12,1-23.86,2.92-35,4.7h-.8l-30.55,84.61h.74c10.41,1.88,20.88,3.72,32.09,4.69,16.36.91,33.53,1.89,51.49,1.89s36.5-1,54.41-1.89c11.44-1,22.88-3,34.32-4.69h.52l30.6-84.73h-.74A303.54,303.54,0,0,0,2246.05,3Zm-26,71.52c-17.16,1-35.07,1.88-52.86,1.88s-35-.91-50.69-1.88c.75-1.84,17.16-48,17.91-48.92a466.38,466.38,0,0,1,52.06-2.06,441.92,441.92,0,0,1,50.68,1.89c-.74,2-17.16,48-17.16,49Z" transform="translate(0 0)" fill="#fff"/><polygon points="1953.26 99.83 1988.27 99.83 2024.08 0.97 1988.84 0.97 1953.26 99.83" fill="#fff"/><path d="M2503.2,3h.12a469,469,0,0,0-52.18-3A483.66,483.66,0,0,0,2399,3a13.32,13.32,0,0,1,.74-3h-35l-35.81,98.86H2364s26.08-72.49,26.83-73.35a482.84,482.84,0,0,1,53-2,442.18,442.18,0,0,1,50.69,1.89c-.74,1.89-26.83,73.34-26.83,73.34h35l33.52-91.53h-1.43A288.15,288.15,0,0,0,2503.2,3Z" transform="translate(0 0)" fill="#fff"/><path d="M1410.35,3a469.71,469.71,0,0,0-52.23-3,511.73,511.73,0,0,0-53.66,3c-11.9,1-23.85,2.92-34.32,4.7h-.75l-8.18,21.62h1.43A335,335,0,0,1,1297,25.57c11.15-1,22.88-1.89,35.75-1.89C1332,26.6,1305.15,100,1305.15,100h35s27.06-75.34,27.63-76.32c12,0,23.86.92,35,1.89a302,302,0,0,1,31.3,3.61h.74l8.24-21.63h-1.49A286.07,286.07,0,0,0,1410.35,3Z" transform="translate(0 0)" fill="#fff"/><path d="M2859.55,7.55l.12.12a303.49,303.49,0,0,0-32-4.7,442.92,442.92,0,0,0-51.49-3,511.73,511.73,0,0,0-53.66,3c-11.9,1-23.85,2.92-35,4.7h-.74l-8.3,21.51h2.23A314,314,0,0,1,2715,25.46a479.68,479.68,0,0,1,52.8-1.89,443,443,0,0,1,50.74,1.89A102,102,0,0,0,2814,39.53H2708.24l-7.44,20.71h105.09c-.74,1.89-4.46,13.22-4.46,14.13-17.16.92-35,1.89-52.86,1.89s-35.76-1-52.18-1.89c-11.44-1-22.36-3-31.29-3.78h-.74l-8.24,21.69h.74a319.24,319.24,0,0,0,32,4.57c16.42,1,33.58,1.89,51.49,1.89s36.56-.91,53.72-1.89c11.9-.91,23.86-2.91,35-4.69h.74l30.55-84.61Z" transform="translate(0 0)" fill="#fff"/><path d="M1644.39,3h.17c-14.87-1-29.06-3-48.39-3s-34.33,1.89-49.89,3c-12,1-23.91,2.92-35.07,4.7l-33.64,90.21h35.07s13.39-35.75,14.19-37.64H1623c-.8,2.92-14.19,37.64-14.19,37.64h35.07L1677.4,7.55h-1.49A290.75,290.75,0,0,0,1644.39,3Zm-14,36.68H1534.1a110,110,0,0,1,5.2-14.08,441.61,441.61,0,0,1,49.2-2.06,404.76,404.76,0,0,1,47,1.89c-.75,2-4.46,12.3-5.21,14.13Z" transform="translate(0 0)" fill="#fff"/><path d="M1886,3h.11A468.78,468.78,0,0,0,1834,0a511.58,511.58,0,0,0-53.66,3c-12,1-23.17,2.92-34.33,4.7h-.74l-8.18,21.62h1.43a340.73,340.73,0,0,1,34.33-3.72c11.44-1,23.85-1.89,35.81-1.89-.8,2.92-27.58,76.32-27.58,76.32h35s26.84-75.34,27.58-76.32c12.64,0,23.85.92,35.07,1.89A304.46,304.46,0,0,1,1910,29.29h.69l8.18-21.62h-1.49A290.84,290.84,0,0,0,1886,3Z" transform="translate(0 0)" fill="#fff"/></svg>