<svg id="Layer_1" data-name="Layer 1" xmlns="http://www.w3.org/2000/svg" width="1241.03" height="100" viewBox="0 0 1241.03 100"><g id="Capa_1" data-name="Capa 1"><polygon points="89.62 1 89.62 72.89 15.61 1 0 1 0 99.71 18.27 99.71 18.27 26.58 93.37 99.71 107.66 99.71 107.66 1 104.25 1 89.62 1" fill="#fff"/><polygon points="272.87 1 272.87 72.89 198.83 1 183.25 1 183.25 99.71 201.53 99.71 201.53 26.58 276.65 99.71 290.94 99.71 290.94 1 287.54 1 272.87 1" fill="#fff"/><polygon points="652.63 1 652.63 72.89 578.62 1 563.04 1 563.04 99.71 581.29 99.71 581.29 26.58 656.45 99.71 670.7 99.71 670.7 1 667.27 1 652.63 1" fill="#fff"/><polygon points="136.32 1 136.32 99.71 154.56 99.71 154.56 1 151.19 1 136.32 1" fill="#fff"/><polygon points="311.65 1 311.65 17.98 355.68 17.98 355.68 99.71 374.66 99.71 374.66 17.98 418.75 17.98 418.75 1 415.4 1 311.65 1" fill="#fff"/><polygon points="439.49 1 439.49 99.71 535.91 99.71 535.91 82.69 457.59 82.69 457.59 57.11 518.16 57.11 518.16 40.13 457.59 40.13 457.59 17.98 535.91 17.98 535.91 1 532.48 1 439.49 1" fill="#fff"/><path d="M771.79,1H698.45V99.71h73.34A36.79,36.79,0,0,0,802.33,85.3c6.68-8.8,10.23-20.82,10.23-35S809,24.14,802.33,15.4A36.85,36.85,0,0,0,771.79,1Zm.53,81.69H716.2V18h56.12c17.6,0,23.82,17.6,23.82,32.27s-6.25,32.44-23.82,32.44Z" fill="#fff"/><path d="M932.07,1H852.4a21,21,0,0,0-20.89,21V78.94A21,21,0,0,0,852.4,100h79.7A21.06,21.06,0,0,0,953,78.94V22A21,21,0,0,0,932.07,1Zm3.4,77.64a4.21,4.21,0,0,1-4.22,4H853.13a4,4,0,0,1-4.19-3.89V22.06A4.1,4.1,0,0,1,853,18h78.33a4.19,4.19,0,0,1,4.19,4.08Z" fill="#fff"/><path d="M1201.47,40.91c-18.29-6.52-28.71-10.13-28.71-17.67,0-5.19,6.76-10.23,22.64-10.23,14.83,0,24.37,3.51,35.15,5.55l-.09-15.42A150.65,150.65,0,0,0,1196.31,0c-32.15,0-53.23,9.55-53.23,25.8,0,15.69,17.47,22.63,41.41,31.48,17.91,6.55,24.1,10.23,24.1,16.48,0,7-6.72,12.5-22.91,12.5-14.76,0-33.7-2.87-42.68-6.4V96.56a237.19,237.19,0,0,0,40.27,3.14c40,0,57.76-11.41,57.76-27.22C1241.09,57.08,1226.92,50.06,1201.47,40.91Z" fill="#fff"/><path d="M1109,7.29C1099.54,3,1081.73.35,1066.14.35h-59.5V99.48h59.49c15.59,0,33.32-2.7,42.82-7,23-10.37,30.41-26.88,30.41-42.6S1131.88,17.63,1109,7.29Zm-51.17,78.44h-19v-72h19c29.17,0,47.66,12.8,47.66,36.19S1087.07,85.73,1057.79,85.73Z" fill="#fff"/></g></svg>