<svg id="Layer_1" data-name="Layer 1" xmlns="http://www.w3.org/2000/svg" width="419.77" height="100" viewBox="0 0 419.77 100"><path d="M329.6,51.94C315.67,45.33,312,41.67,312,37.26s1.46-8.07,6.59-8.07,8.08,3.67,8.08,9.53l17.61,0s2.21-11-4.4-19.8-23.47-13.25-35.21-6.6-13.94,20.59-13.94,25,.74,19.07,13.94,25.67c21.13,10.56,20.54,12.47,20.54,16.14s-2.19,8.07-8.06,8.07-9.54-3.66-9.54-11H290c0,18.34,8.06,30.82,27.87,30.82s28.6-17.6,28.6-28.61S343.53,58.54,329.6,51.94Z" transform="translate(-290 -7)" fill="#fff"/><path d="M463.84,10.12V63L429.37,9.39H408.09V65.14l-36-55h-22l.74,96.83h24.21V92.28h21.26l8.81,14h27.14v-47L463.11,107h24.21V59.26l30.8,47h28.61L485.12,10.12ZM375.09,73.21V59.26l9.53,13.95Z" transform="translate(-290 -7)" fill="#fff"/><path d="M567.27,65.87c9.58-14.67,16.88-10.27,16.88-10.27l28.6-45.48H490.24l60.89,95.36s8.81-11.74,11.73-16.87C562.14,86.41,557.7,80.54,567.27,65.87Z" transform="translate(-290 -7)" fill="#fff"/><path d="M698.06,53.24c-3.06,1.58-7.59.61-8.44-4.41C700.25,41.74,703.06,37.7,704,32.09s-4-5.88-9.16-2.7-12.09,11.37-12.36,21.77c-3.29,4.76-6.72,10.26-12.1,10,6.12-11.37,7.34-16.87,6.49-20.91s-5.26-4-15.29,11c1-9,4.77-17.11,5.5-19.32s.86-4-1.47-3.42-5.37,6.11-9.41,16.13A91.53,91.53,0,0,1,643.81,66c-2,2.32-5.25,3.3-5-2.82s4.15-11,5-13.68-.61-7.22-2.33-6.12-7.2,11.61-9.89,16.26a62.73,62.73,0,0,1-7.22,10.15c-1.22,1.22-3.66.86-2.68-2.94s3.53-7.7,4.76-9.66,3.79-6,1.1-7.08-9.16,2.32-11.36,17.23c-1.84,3.79-4.16,6.23-7,7.21,1.1-5.37,2.45-18.58-2.81-16,.86-2.94-.61-4.27-3.42-3.79s-14.43,7.09-15.16,21.88c-2.57,4.53-9,10.27-12.47,10.27s-5.38-3-5.14-6.36,4.53-7.81,6.61-8.79a2.4,2.4,0,0,0,2.69,1.71c.73,0,3.06-2.69,3.91-6.85s.37-6.24-1.71-7-7.83,2.93-11.25,7.83-9.29,14.42-1.84,22.86,14.92-.74,20.3-10.77c1.46,5.51,5.62,7.83,8.68,7.83s7.94-3.79,9.9-8.19c2.93.12,7.09-3.67,8.93-7.21-.12,3.9,4.77,7.57,7.69,7s6.73-8,9.06-13c0,6.48-.37,11.36,4.28,11.24s11.85-13.32,19.8-27.87c-3.67,17.73-6.36,24-7,29.09s.49,12.72,2.69,12.72,4.16-10.88,4.77-20.53c4.64-1.35,5.62-1.72,6.47-1.72s4,1.35,8.81-2.08,7.57-7.82,11-12.34c2.57,6.23,7,8.43,14.19,4.39s11-15.28,11.61-18.09C705.63,47.37,701.1,51.65,698.06,53.24ZM603,75.6c-.25,4.77-3.55,6.12-5,6.12s-4.16-.25-4.16-4.9S598,66.68,602.35,62.4c1.71-1.59-.12,2.57-.61,7.22S602,76.21,603,75.6ZM660.8,62c1.35-7.09,6.61-14.91,9.17-14.91s-.73,8.06-2.2,11S663.8,61.3,660.8,62Zm36.28-29.45h0c2.31-2,3.29.85,1,4.14s-7.47,8.08-8.81,8.57C689.86,38.8,694.79,34.53,697.08,32.58Z" transform="translate(-290 -7)" fill="#fff"/><path d="M693.81,24.63c1.07-1.11,7.91-6,10-7.59s2.08-2.55,2.08-5.49S705,6.77,703.18,7s-6.71,5.38-9.53,8.69a18.66,18.66,0,0,0-4.52,10.51C689,29.52,692.74,25.74,693.81,24.63Z" transform="translate(-290 -7)" fill="#fff"/></svg>