<svg id="Layer_1" data-name="Layer 1" xmlns="http://www.w3.org/2000/svg" width="324.96" height="100" viewBox="0 0 324.96 100"><path d="M42.76,39.75a12.3,12.3,0,0,0,12.82,9.58c.78,0,1.62,0,2.63-.11C63.8,48.79,69,45.12,71.76,40a.5.5,0,0,0,0,.12,9.35,9.35,0,0,0,5.33,7.75A14.19,14.19,0,0,0,83.6,49.4a15.34,15.34,0,0,0,13.64-7.9q-1.29,7.35-2.59,14.69l-.18,1.47h.06l-.06.34,1.4.45a9.28,9.28,0,0,0,2.6.55c1.57,0,3.52-.7,4.16-3.72a8.57,8.57,0,0,0,.24-1.38c.22-2.18.67-4.42,1.12-6.77,0-.11,0-.22.05-.33a14,14,0,0,0,3.72,2,19,19,0,0,0,5.6.9,21.17,21.17,0,0,0,18.78-11.87,14.16,14.16,0,0,0,5.48,9,15.68,15.68,0,0,0,9.18,2.69,20,20,0,0,0,14.65-6.17l-.5,2.85L160.59,48h.1l-.08.46,1.91.11h.78a13.74,13.74,0,0,0,1.57.06,8.89,8.89,0,0,0,2.51-.34l1-.28.17-1c.22-1.23.45-2.42.67-3.65.56-3.08,1.12-6.33,1.68-9.46a12.07,12.07,0,0,1,7.58-9.56,4.67,4.67,0,0,0,3.2-5c0-.22,0-.44,0-.66l0-1.29-1.29-.28a6.43,6.43,0,0,0-2-.28,11,11,0,0,0-5.57,1.79,2.47,2.47,0,0,0-.84-.89l-.39-.23H166l-.23,1.4c-.15.89-.32,1.79-.47,2.68l-.24-.4a12.64,12.64,0,0,0-8.12-5.82,21.29,21.29,0,0,0-4.57-.53,20.93,20.93,0,0,0-18.62,11.65,13.43,13.43,0,0,0-3-6.63C128.07,16.82,124,15.1,119,15c-.06-.06-.17-.06-.34-.06l-.09,0A20.49,20.49,0,0,0,107.69,18a4.39,4.39,0,0,0-2.52-.72,7,7,0,0,0-1.51.16,4.44,4.44,0,0,1-.9.12l-1.34.05,0,.12-1-.13-.22-.05a10.41,10.41,0,0,0-2.3-.28l0,0a6.8,6.8,0,0,0-2.63.5l-.78.34-.17.89c-.28,1.46-.5,2.91-.78,4.42-.68,3.81-1.4,7.78-2.07,11.65C91,38,89.35,40,86.38,41.48a5.12,5.12,0,0,1-2.29.61,4.21,4.21,0,0,1-2.62-.89,4.62,4.62,0,0,1-2-3.21,4.48,4.48,0,0,1,.07-1.15c.11-.84.28-1.73.45-2.57.11-.68.28-1.4.39-2.08.45-2.57.9-5.2,1.35-7.78.22-1.51.5-3,.78-4.53l.34-2h-.11l.07-.4H75.05l-.22,1.4c-.28,1.85-.62,3.69-1,5.54-.18,1-.35,2.1-.53,3.16-1.25-3.95-4.43-7.2-9.38-9.41l-.45-.23A14.37,14.37,0,0,1,61,16.65c-2.1-1.33-3-2.42-3.1-3.73a2.11,2.11,0,0,1,0-.35,6.22,6.22,0,0,1,3.86-5.09A4.93,4.93,0,0,1,63.58,7a2,2,0,0,1,2,1.23c1,2,2.35,3,4,3a6.52,6.52,0,0,0,3.53-1.4l.72-.51V8.28a3,3,0,0,0,0-.6,3.47,3.47,0,0,0,0-.85C72.47,2.18,69.12,0,63.3,0h-.39A13,13,0,0,0,50.37,10.41a12.82,12.82,0,0,0-.24,2.67c-.08,3.71,1.5,8,8,10.72a20.77,20.77,0,0,1,4.75,2.57c2.23,1.78,3.36,3.74,3.43,5.91a9.3,9.3,0,0,1-1.13,4c-1.74,3.3-5.6,5.93-8.85,5.93a3.41,3.41,0,0,1-.78,0c-2.18-.34-4.76-1.4-5.71-7.11a2.44,2.44,0,0,0-.61-1.18l-.51-.67h-.84c-1.68.06-3.58.17-4.64,1.51a3.82,3.82,0,0,0-.75,2.55A9.94,9.94,0,0,0,42.76,39.75Zm63.64-6.67c.9-6.6,7.61-11,11.64-11h.34a7.82,7.82,0,0,1,6.22,3.08,8,8,0,0,1,1.25,7.27,13.23,13.23,0,0,1-9,9.3,9.26,9.26,0,0,1-3,.5l.08,0a7.45,7.45,0,0,1-5.66-2.52,8.89,8.89,0,0,1-1.88-4.17A9,9,0,0,1,106.4,33.08ZM145,24.74a11,11,0,0,1,6.5-2.63,7,7,0,0,1,2.68.54l-1,.86c-4.31,3.8-8.85,7.67-13.31,11.42a7.33,7.33,0,0,1-.07-1.15A12.32,12.32,0,0,1,145,24.74Zm17.87,10.79-.68,3.8-.25-.13a8.47,8.47,0,0,0-3.81-1.4c-1.4,0-2.41.79-3.81,1.85a13.28,13.28,0,0,1-3.64,2.07,9.4,9.4,0,0,1-3.19.56,6.3,6.3,0,0,1-3.48-1L158.41,29l6.27-5.37.28-.24C164.24,27.45,163.51,31.49,162.85,35.53Z" fill="#fff"/><path d="M230.49,64.43a12.66,12.66,0,0,0,4.93-.5c1.85-.7,1.56-2.36,1.85-3.7s-1-1.62-2-1.79c-7.72-1.34-13.32,1.06-17.41,7.61-3.48,5.6-6.84,11.25-10.36,16.79a29,29,0,0,1-4.26,6l0,0a35.91,35.91,0,0,1-.67-7.39c.17-6,.34-12.13.45-18.13.11-4.31.06-4.31-4.09-4.65-3.3-.28-3.8.06-3.8,3.36-.06,9.57,0,19.2,0,28.77-.06,7.78-.06,7.72,7.78,7.83a4.49,4.49,0,0,0,4.48-2.4c6.32-10,12.88-19.82,19.26-29.72A4,4,0,0,1,230.49,64.43Z" fill="#fff"/><path d="M54.55,78.15c-3-9.41-14.21-13.49-24-8.79-7.11,3.47-11.48,11.77-9.8,18.58S30,100,37.82,99.75c1.63,0,3-.33,3.47-2.12s.79-3.59,1.18-5.32h.07c-.9-.67-1.68-.28-2.63-.11-5.15,1.06-9.58-1.07-10.93-5.32a9.74,9.74,0,0,1,5.44-11.81,9.22,9.22,0,0,1,10,1.12c2.86,2.24,3.69,5.2,2.69,8.73-1.06,3.81-1.85,7.73-2.91,11.59-.51,1.84-.15,2.68,1.85,2.57a13.16,13.16,0,0,1,2.51,0c2.13.26,3.25-.56,3.7-2.74.61-3.13,1.68-6.27,2.41-9.4A15.83,15.83,0,0,0,54.55,78.15Z" fill="#fff"/><path d="M158.72,70.31c-5.83,4.54-8.18,11.59-6,18.14,2,6,8.28,10.07,15.56,10.07,5,0,7.06-2.63,6-7.89-3.67,1.12-7.36,2.3-11-.62a4.57,4.57,0,0,1,2.11-1.62c6-2.8,11.91-5.6,17.91-8.39,3.36-1.57,3.58-2.24,1.79-5.43C179.88,65.31,167.79,63.37,158.72,70.31Zm1.56,13.77v0a9.18,9.18,0,0,1,15.79-7.46A164.61,164.61,0,0,1,160.28,84.08Z" fill="#fff"/><path d="M100,88.22c6.1-2.74,12.2-5.43,18.36-8,2-.78,2.24-1.74,1.4-3.58a16.22,16.22,0,0,0-12.93-9.8c-10-1.62-20.43,5.93-21.27,15.56-.9,10.47,9.07,18,19.48,16.4.72-.06,1.56-.22,1.84-1.06a22.26,22.26,0,0,0,1.63-7.28c-3.86,1.18-7.48,2.4-10.9-.43C98.2,89,99.25,88.71,100,88.22Zm.11-13.84a9,9,0,0,1,10.52,2.47C108.3,78.64,97.33,83.39,94.2,84A9.44,9.44,0,0,1,100.13,74.38Z" fill="#fff"/><path d="M295.12,80.19c-.07-2.69-2.14-6.49-6-9.24-8.34-5.76-18.81-4.13-25.19,3.87-5.88,7.38-5,15.5,2.24,21.32,3.76,3,8.11,3.25,12.76,3.08,8.17-.36,16.4-8.7,16.23-19ZM276.8,93.09c-5.12,0-9.12-3.58-9.12-8.17-.06-5.3,4.76-10.19,10.13-10.3,5-.05,9.51,4,9.51,8.68C287.32,88.45,282.34,93.09,276.8,93.09Z" fill="#fff"/><path d="M317.28,68.57c-4.31,0-8.56.11-12.88,0a2.71,2.71,0,0,0-3.08,2.18c-2.35,8.4-4.93,16.74-6.83,25.3-.17.73-.5,1.68.17,2.13,1.62,1.12,3.58.28,5.37.5,1.4.12,1.62-1,1.9-2,1.68-5.71,3.42-11.42,4.88-17.19,1.07-4.36,1-4.36,5.21-4.42,5-.06,5.26.22,4.07,5.31-1.18,4.42-2.3,8.85-3.53,13.21-1.36,4.87-1.45,4.81,3.64,5.15,1.62.11,3,0,3.53-1.79a194.34,194.34,0,0,0,5-19.76C325.79,71.37,323.28,68.63,317.28,68.57Z" fill="#fff"/><path d="M18.29,91.69C13.81,90.8,9.67,89,8.38,83.91,7,78.26,8.33,73.39,12.8,69.58c3.42-2.91,7.5-3.8,11.93-3.8,4.81,0,4.76-.17,5.76-4.82.5-2.35-.41-2.79-2.41-2.79a48.45,48.45,0,0,0-9.46.84C9.22,60.84-.52,68.74,0,80.84A17.55,17.55,0,0,0,12.19,98.75c7.16,2.29,6.32,1.74,8-4.26C20.75,92.53,20.29,92.09,18.29,91.69Z" fill="#fff"/><path d="M137.8,69c-.05-2.12-1.62-1.62-2.85-1.62-2,0-2.24-.67-1.74-2.57.56-2.24,1.79-4.48.95-7.06a46.51,46.51,0,0,1-4.87,0c-2-.23-2.74.89-3.13,2.46q-3.37,13.68-6.67,27.37a10.08,10.08,0,0,0-.06,5,7.51,7.51,0,0,0,6,5.6c2.69.5,3-2.29,4.2-3.69a20.58,20.58,0,0,0,1.29-2.35v0c-4.37.16-3.75-2.24-3.14-4.71.71-2.85,1.55-5.76,2-8.67.46-3.08,1.53-4.7,5-4.26C136.57,74.66,137.86,72,137.8,69Z" fill="#fff"/><path d="M153.2,73c2-4.14,1.35-5.37-3.13-5.88-.11,0-.28-.22-.5-.39-.23-2.9,1.51-5.59,1.51-9-2,0-3.75.05-5.47,0h-.07a2.3,2.3,0,0,0-2.57,2c-2.57,9.46-5.26,18.92-7.16,28.54a8.11,8.11,0,0,0,.84,5.94c1.3,2.35,3.36,4.2,6,3.75s3.25-3.31,4.43-5.77c-3.56-.39-3.56-2.46-3-4.76.84-3.52,1.85-7,2.52-10.52.39-2.07,1.4-2.63,3.25-2.52C151.13,74.39,152.48,74.5,153.2,73Z" fill="#fff"/><path d="M85.86,67.63a11.83,11.83,0,0,0-7.61,3.69c-3.53,3.31-4.31,7.89-5.38,12.31C72.26,86,72.14,89,70,90.41c-3.19,2.12-3,5.2-3.42,8.45h0c6.16.73,11.81-3.47,13.6-9.74.84-3,1.52-6.1,2.3-9.18.28-1.13.56-2.58,1.62-3.13,2.7-1.52,3-4.31,3.7-6.83C88.32,68.24,87.54,67.51,85.86,67.63Z" fill="#fff"/><path d="M69.61,79.43c.28-1.06.57-2.3,1.57-2.85,2.8-1.62,2.85-4.42,3.41-7,.45-2-.5-2.46-2.35-2.12a13.18,13.18,0,0,0-9.35,6.83c-1.72,3-2.16,6.27-3,9.51-.68,2.46-.79,5.32-3.14,6.94-2.52,1.74-2.35,4.48-2.85,6.94-.21,1.12.79,1.57,1.79,1.46l0,0c4.87,0,10-4.48,11.42-10.08C68,85.87,68.77,82.68,69.61,79.43Z" fill="#fff"/><path d="M251.28,70.7c.84-2.23.05-2.91-2.69-2.85h0A12.1,12.1,0,0,0,240,73.78c-2.35,3.75-3,8.06-4.14,12.2-.43,1.63-.6,3.59-2,4.43-2.41,1.4-2.8,3.58-3.3,5.82-.62,2.8.05,3.36,2.8,2.68,5.87-1.45,8.84-5.54,10.41-11.08,1-3.58,1-7.78,3.64-10.58A20.17,20.17,0,0,0,251.28,70.7Z" fill="#fff"/><path d="M257.38,68.41a5.28,5.28,0,0,0-1.68.11c-1.12.34-2.24.56-2.57,2.13-2,8.56-4.15,17.13-6.33,25.63-.49,1.63-.11,2.24,1.51,2.35.79.06,1.51.17,2.24.23,2.3.15,3.75-.45,4.41-3,1.86-7.67,3.93-15.22,6-22.78C262.19,68.63,261.91,68.3,257.38,68.41Z" fill="#fff"/><path d="M234.65,68.52h0c-6.32-1.23-7.55-.56-8.78,4.59-1.79,7.39-3.47,14.78-5.54,22.11-.28,1-1,2.57.22,3.08,1.86.78,4,.45,6,.17,1.24-.17,1.24-1.68,1.52-2.75,1.39-5.37,3-10.63,4.14-16C233,76,234.65,72.38,234.65,68.52Z" fill="#fff"/><path d="M262,64.21c1.67-.33,1.62-2.07,1.84-3.41.16-.73.16-1.46-.84-1.85-3.69-1.51-6.88.56-7.22,4.81C257.77,64.83,260,64.55,262,64.21Z" fill="#fff"/><path d="M178.33,16.83s0,0,0,0h0Z" fill="#fff"/></svg>