<?xml version="1.0" encoding="utf-8"?>
<!-- Generator: Adobe Illustrator 25.4.1, SVG Export Plug-In . SVG Version: 6.00 Build 0)  -->
<svg version="1.1" id="Layer_1" xmlns="http://www.w3.org/2000/svg" xmlns:xlink="http://www.w3.org/1999/xlink" x="0px" y="0px"
	 viewBox="0 0 436.2 100" style="enable-background:new 0 0 436.2 100;" xml:space="preserve">
<style type="text/css">
	.st0{fill:#FFFFFF;}
</style>
<g>
	<path class="st0" d="M436.2,42.8c-0.4-0.3-0.2-1-0.2-1.2c0-0.2,0.1-0.5,0-0.7c-0.4-1.2-1-2.4-1.7-3.4c-1.1-1.3-2.5-2.4-4-3
		c-1.3-0.5-2.8-0.8-4.2-0.8h-12.3c-1.5,0-3.1,0.4-4.4,1.1c-0.7,0.3-1.2,0.8-1.7,1.3c-0.1,0.3-0.3,0.5-0.6,0.7
		c-0.1,0-0.5-0.3-0.6-0.5c-0.2-0.1-0.4-0.2-0.6-0.3c-0.9-0.9-2-1.6-3.2-2c-0.7-0.4-1.5-0.6-2.4-0.6h-23.5c-0.5,0-0.5,0-0.5,0.6v64.4
		c0,0.2,0,0.4,0,0.6c0,0.3,0,0.5,0.4,0.5c0.2,0,0.4,0,0.6,0h15.4c1,0,1,0,1-1.1v-46c-0.1-0.8,0.4-1.5,1.1-1.8
		c0.3-0.1,0.6-0.2,0.9-0.1c0.4,0.2,0.8,0.5,1.1,0.9c0.1,0.3,0.2,0.6,0.2,0.9V99c0,0.8,0,0.8,0.7,0.8h16.8c0.2,0,0.3,0,0.3-0.3V53
		c0-0.5-0.1-1.1,0.5-1.5c0-0.5,0.6-0.4,0.8-0.6c0.5-0.6,1.1,0,1.5,0.1c0.4,0.2,0.6,0.7,0.6,1.1V100H436V44.7c0-0.5-0.2-1.2,0.2-1.7
		C436.2,43,436.2,42.9,436.2,42.8z M406.4,42c0-0.2,0.1-0.3,0.1-0.5C406.5,41.6,406.5,41.7,406.4,42c0,0,0,0.2-0.1,0.2
		C406.4,42.1,406.4,42,406.4,42z M390.6,96.1C390.6,96.1,390.6,96.1,390.6,96.1c0.2-0.2,0.1-0.7,0.1-1.1V51.5c0-1.2,0.6-2.3,1.5-3
		c-0.9,0.7-1.5,1.8-1.5,3V95C390.7,95.4,390.9,95.9,390.6,96.1z M392.4,48.3c-0.1,0-0.1,0.1-0.2,0.1
		C392.3,48.4,392.3,48.3,392.4,48.3z M397,47.4c-1.2,0-2.4-0.1-3.5,0.3C394.6,47.3,395.8,47.4,397,47.4c0.3,0.1,0.6,0.3,0.9,0.4
		C397.6,47.7,397.3,47.5,397,47.4z M416.8,47.7c-0.9,0-1.8,0.2-2.6,0.6c-1,0.6-1.8,1.5-2.3,2.5c-0.1,0.3-0.1,0.7-0.1,1v43.8
		c0,0.6,0,0.6-0.5,0.6h-10.4c-0.1,0-0.2,0-0.3,0c0.1,0,0.1,0,0.2,0h10.3c0.5,0,0.5,0,0.5-0.6V51.8c0-0.3,0-0.7,0.1-1
		c0.5-1.1,1.3-1.9,2.3-2.5c0.8-0.4,1.7-0.6,2.6-0.6c0.4-0.1,0.7-0.1,1.1,0C417.4,47.7,417.1,47.7,416.8,47.7z M433,95
		c0,0.3,0,0.6,0,0.8c0,0.4-0.1,0.4-0.5,0.4h-10.7c-0.2,0-0.3,0-0.4-0.1c0.1,0,0.2,0,0.3,0h10.7c0.4,0,0.5-0.1,0.5-0.5
		c0-0.3,0-0.6,0-0.8V42.7c0-0.7-0.2-1.4-0.5-2.1c-0.4-1.1-1.2-2-2.2-2.6c-0.3-0.2-0.7-0.4-1.1-0.5c0.4,0.1,0.8,0.3,1.2,0.6
		c1,0.6,1.8,1.5,2.2,2.6c0.3,0.7,0.4,1.4,0.5,2.1V95z"/>
	<path class="st0" d="M257.1,33.4h-16.7c-0.2,0-0.4,0-0.6,0c-0.3,0-0.3,0.1-0.3,0.4v27.4c0,0.9-0.1,1.8-0.1,2.7h-3
		c-0.3,0-0.3-0.1-0.3-0.4V34.6c0-0.3,0-0.6,0-0.8s-0.1-0.4-0.3-0.4h-17.4c-0.3,0-0.4,0-0.4,0.4c0,0.2,0,0.3,0,0.5v37.4
		c0,0.6,0.1,1.3,0.3,1.9c0.5,1.7,1.4,3.3,2.6,4.6c1.2,1.1,2.7,1.8,4.3,2.1c1,0.2,2.1,0.3,3.1,0.3h8.1c0.9,0,1.7,0.1,2.6,0.1v2.6
		c0,0.4-0.1,0.4-0.4,0.4h-16.9c-0.5,0-0.5,0-0.5,0.6v15c0,0.6,0,0.6,0.6,0.6h25.7c1.1,0,2.1-0.2,3.1-0.5c2.5-0.7,4.6-2.5,5.8-4.7
		c0.7-1.4,1.1-2.9,1.1-4.4V62.3l0-27.7c0-0.3,0-0.6,0-0.8C257.5,33.4,257.3,33.4,257.1,33.4z M242.7,62.8V37.2
		c0-0.1,0.2-0.3,0.2-0.3c0.1,0,0.2,0,0.4,0h10.3c0.3,0,0.5,0,0.6,0.1c-0.1,0-0.3,0-0.5,0h-10.3c-0.1,0-0.2,0-0.4,0
		c-0.1,0.1-0.2,0.2-0.2,0.3L242.7,62.8c0.1,0.6-0.1,1.3-0.4,1.9c-0.6,1.2-1.6,2-2.9,2.3C241.4,66.5,242.8,64.8,242.7,62.8z
		 M242.7,83c0-0.1,0-0.2,0-0.3V78c0-0.2-0.1-0.3-0.3-0.3c0,0,0,0,0.1,0c0.3,0,0.3,0.1,0.3,0.4v4.7C242.7,82.8,242.7,82.9,242.7,83
		c-0.2,0.7-0.5,1.3-1,1.9C242.1,84.3,242.5,83.6,242.7,83z M239,67.1c0.1,0,0.1,0,0.2,0C239.2,67.1,239.1,67.1,239,67.1z
		 M238.1,67.1c-0.1,0-0.3,0.1-0.4,0.2c-0.1,0-0.1,0.1-0.2,0.1c0.1,0,0.1,0,0.2-0.1C237.8,67.2,237.9,67.1,238.1,67.1z M227.8,77.6
		c-2.2,0-4.2-1.2-5.2-3.1c-0.5-1-0.8-2.1-1-3.2c-0.2-1.2-0.2-2.5-0.2-3.7V38.1c0-0.3,0-0.6,0-0.8c0-0.2,0-0.3,0.1-0.3
		c-0.1,0.1-0.1,0.2-0.1,0.3v30.4c-0.1,1.3,0,2.5,0.2,3.8c0.2,1.1,0.5,2.2,1,3.2C223.7,76.5,225.7,77.7,227.8,77.6L227.8,77.6z
		 M254.4,90.6c-0.1,1.8-1,3.4-2.5,4.5c-0.6,0.4-1.3,0.8-2,1c-0.3,0.1-0.6,0.1-0.9,0.2h-24.3c-0.3,0-0.4,0-0.4-0.4v0
		c0,0.4,0.1,0.4,0.4,0.4H249c0.3,0,0.6-0.1,0.9-0.2c0.7-0.2,1.4-0.6,2-1C253.4,94,254.3,92.4,254.4,90.6l0-26.3l0,0V90.6z"/>
	<path class="st0" d="M214.4,73.7c-0.2-0.8-0.4-1.5-0.7-2.3c-0.4-0.8-0.9-1.5-1.4-2.2c-0.8-1.1-1.8-2.1-3-2.8
		c-0.9-0.6-1.8-1.2-2.7-1.7c-1.2-0.8-2.4-1.8-3.7-2.5c-1.9-1.1-3.7-2.4-5.6-3.5c-1.4-0.8-2.6-1.9-4-2.5c-0.3-0.1-0.4-0.5-0.4-0.8
		v-3.9c0.1-1.1,0.1-1.2,1.2-1.6c1.1-0.4,1.9-0.1,2.3,0.9c0.1,0.2,0.1,0.4,0.1,0.7v3.1c0,0.3,0.2,0.6,0.5,0.7c0.6,0.4,1.1,0.7,1.6,1
		c2,1.4,4.1,2.8,6.1,4.1c2,1.3,4,2.6,5.9,3.9c1.2,0.8,2.5,1.7,3.7,2.5c0.1,0,0.4-0.1,0.4-0.1c0-0.3,0-0.6,0-0.8v-11
		c0-3.6,0-7.2,0-10.9c0-1-0.2-2-0.5-3c-0.4-1.5-1.2-2.8-2.3-3.9c-0.5-0.4-1-0.7-1.4-1.1c-1-0.9-2.3-1.5-3.7-1.8
		c-1.4-0.3-2.8-0.5-4.2-0.5h-17c-1,0-2,0.2-3,0.5c-1.3,0.4-2.5,1-3.5,1.9c-0.5,0.4-0.8,1-1.3,1.4c-0.7,0.7-1.1,1.5-1.4,2.4
		c-0.3,0.6-0.4,1.3-0.5,1.9c0,0.7-0.3,1.3-0.3,2v15c0,0.7,0.1,1.4,0.2,2.2c0.4,0.2,0,0.9,0.4,1.1c0.8,1.9,2,3.6,3.4,5
		c1.1,1.1,2.4,2,3.8,2.7c0.9,0.5,1.8,1,2.7,1.5c1.8,1,3.6,2.2,5.2,3.2c1.6,1,3.2,2,4.8,2.8c0.3,0.1,0.5,0.5,0.5,0.8v3.7
		c0,0.3,0,0.5,0,0.8c0.2,0.6-0.1,1.3-0.7,1.6c-0.3,0.2-0.7,0.2-1,0.1c-0.2,0-0.3,0-0.5,0c-0.8-0.2-1.3-0.9-1.1-1.7v-3.8
		c0-0.2,0.1-0.3-0.2-0.5c-1.2-0.7-2.4-1.4-3.6-2.1c-0.9-0.5-1.8-1.1-2.7-1.6c-1.3-0.8-2.6-1.6-3.9-2.4c-1-0.6-2-1.2-3-1.8l-3.6-2.2
		c-0.3-0.2-0.5-0.1-0.5,0.2v19.2c0,0.9,0,1.8,0.2,2.7c0.2,1,0.5,2,0.8,3c0.7,2.1,2.1,4,3.9,5.4c0.8,0.5,1.7,0.9,2.6,1.1
		c0.7,0.2,1.4,0.3,2.1,0.3h19.4c0.2,0,0.5,0,0.7,0c1.5-0.5,3-1.1,4.4-1.8c1.2-0.8,2.2-1.7,3-2.8c1.1-1.5,1.7-3.4,1.7-5.3
		c0.1-4.2,0-8.4,0-12.6C214.7,76,214.6,74.8,214.4,73.7z M211.5,73.9c0,0.1,0,0.2,0.1,0.3C211.5,74.1,211.5,74,211.5,73.9
		c0,0,0-0.1-0.1-0.2C211.4,73.8,211.4,73.8,211.5,73.9z M195,46.7C195,46.7,195,46.7,195,46.7c0.1,0.1,0.2,0.1,0.3,0.1
		C195.2,46.8,195.1,46.8,195,46.7z M201.8,54.6c-0.6-0.4-1.2-0.7-1.8-1c-0.5-0.2-0.9-0.7-0.8-1.3v-1.8c0-1.2-0.6-2.3-1.6-2.9
		c-0.4-0.3-0.9-0.5-1.4-0.7c0,0,0.1,0,0.1,0c0.5,0.2,1,0.4,1.4,0.7c0.9,0.7,1.5,1.7,1.6,2.9v1.8c-0.1,0.6,0.2,1.1,0.8,1.3
		c0.6,0.3,1.2,0.6,1.8,1l4.4,2.8c0.1,0,0.1,0.1,0.2,0.1c-0.1-0.1-0.2-0.1-0.3-0.2C204.7,56.5,203.3,55.5,201.8,54.6z M211.6,60.4
		c-0.1,0-0.1-0.1-0.2-0.1C211.4,60.3,211.5,60.4,211.6,60.4z M208.5,58.7c-0.1,0-0.1-0.1-0.2-0.1c0.1,0.1,0.2,0.1,0.3,0.2
		c0.8,0.5,1.7,1,2.6,1.5C210.3,59.8,209.4,59.3,208.5,58.7z M195.5,73.3c-0.9-0.5-1.8-1.1-2.6-1.7c-0.8-0.6-1.7-1.1-2.5-1.6
		c-0.8-0.5-1.5-1-2.2-1.6c-1.4-0.9-2.8-1.8-4.2-2.7c-0.4-0.2-0.8-0.5-1.1-0.8c-1.4-1.2-2.6-2.6-3.4-4.3c-0.3-0.6-0.5-1.2-0.5-1.8
		V42.6c0.1-1,0.4-2,1-2.9c0.7-1.2,1.7-2.2,2.9-2.8c0.6-0.3,1.3-0.5,2-0.5h19.3c0.4,0,0.7,0.1,1.1,0.2c-0.3-0.1-0.6-0.1-0.9-0.1H185
		c-0.7,0-1.4,0.2-2,0.5c-1.3,0.6-2.3,1.6-3,2.8c-0.6,0.9-0.9,1.9-1,2.9v16.2c0,0.6,0.2,1.3,0.5,1.8c0.8,1.7,2,3.1,3.4,4.3
		c0.4,0.3,0.7,0.5,1.1,0.8c1.4,0.9,2.8,1.8,4.2,2.7c0.8,0.6,1.5,1.1,2.3,1.6c0.9,0.5,1.7,1,2.6,1.6c0.9,0.5,1.8,1.2,2.6,1.7
		c1.2,0.8,2.4,1.6,3.6,2.3c0.4,0.2,0.7,0.7,0.6,1.1v6.4c0,0.3-0.1,0.6-0.2,0.8c-0.6,1.3-1.7,2.3-3,2.8c1.2-0.6,2.2-1.5,2.8-2.8
		c0.1-0.3,0.2-0.6,0.2-0.9v-6.4c0-0.5-0.2-0.9-0.6-1.1C197.9,74.9,196.7,74.1,195.5,73.3z M195.4,96.5c-3,0-5.9-0.1-8.9,0
		c-2.5,0.1-4.9-1.1-6.4-3.1c-0.6-0.9-1-1.9-1.1-3c-0.3-1.6-0.3-3.2-0.2-4.8c0.4-3.9,0.1-7.9,0.2-11.8c0-0.3,0-0.4,0.1-0.4
		c0,0.1-0.1,0.2-0.1,0.4c-0.1,3.9,0.2,7.9-0.2,11.8c-0.2,1.6-0.1,3.2,0.2,4.8c0.1,1.1,0.5,2.1,1.1,3c1.5,2,3.9,3.2,6.5,3.1
		L195.4,96.5L195.4,96.5z M204.5,96.4h-9H204.5c0.7,0,1.3-0.1,1.9-0.2c0.3-0.1,0.6-0.1,0.9-0.3c-0.3,0.1-0.6,0.2-0.9,0.3
		C205.8,96.4,205.2,96.4,204.5,96.4z M211.5,90.6c0.1-0.4,0.1-0.8,0.1-1.1C211.5,89.8,211.5,90.2,211.5,90.6z M211.4,90.8
		C211.4,90.8,211.4,90.8,211.4,90.8C211.4,90.8,211.4,90.8,211.4,90.8z"/>
	<path class="st0" d="M299.8,43c-0.1-0.4-0.1-0.8-0.2-1.2c-0.4-1.6-1.1-3.2-2.1-4.5c-2.2-2.4-5.4-3.8-8.7-3.9h-17.8
		c-0.7,0-1.5,0-2.2,0.2c-1.3,0.3-2.5,0.8-3.7,1.5c-0.3,0.2-0.5,0.5-0.8,0.7c-0.9,0.6-1.6,1.3-2,2.3c-1,1.5-1.5,3.2-1.5,5v14
		c-0.1,1.1,0,2.2,0.2,3.2c0.1,0.7,0.3,1.3,0.6,1.9c0.6,1.2,1.4,2.4,2.3,3.5c1.1,1.4,2.5,2.7,4.1,3.6c0.7,0.4,1.4,0.7,2.1,1.1
		c1.5,0.9,3,1.8,4.5,2.8c0.9,0.5,1.9,1.1,2.8,1.6c1.3,0.8,2.6,1.7,3.9,2.4c0.4,0.1,0.6,0.5,0.6,0.8v4.9c0,0.8-0.3,1.2-1.1,1.2
		c-0.2,0-0.5,0-0.7,0c-0.6,0-1.2-0.4-1.4-1c-0.1-0.6-0.2-1.1-0.2-1.7v-1.9c0-1.3,0-1.3-1.3-2c-0.1-0.1-0.2-0.2-0.3-0.2
		c-0.9-0.5-1.9-1.1-2.8-1.6c-1.1-0.7-2.2-1.4-3.5-2.2c-1.3-0.8-2.6-1.5-3.8-2.3c-1.6-1-3.1-2-4.7-3c-0.7-0.4-0.8-0.4-0.8,0.4v19
		c0,1.3,0.2,2.7,0.5,4c0.2,0.9,0.5,1.8,0.9,2.6c0.3,0.9,0.9,1.7,1.5,2.3c0.3,0.3,0.6,0.6,0.9,0.9c0.6,0.7,1.4,1.2,2.3,1.5
		c1.1,0.5,2.2,0.7,3.4,0.7H290c0.2,0.1,0.5,0.1,0.7,0c1.2-0.5,2.5-0.9,3.7-1.5c1.3-0.7,2.5-1.7,3.4-2.8c0.4-0.5,0.8-1,1-1.6
		c0.6-1.4,0.9-3,1-4.5V77.1c0.1-1.1,0-2.2-0.2-3.2c-0.2-1.2-0.6-2.3-1.2-3.4c-1-1.7-2.4-3.1-4.1-4.1c-0.5-0.4-1.1-0.6-1.6-0.9
		c-1.3-0.9-2.6-1.8-4-2.6c-1.6-1-3.2-2.1-4.8-3.1c-1.8-1.1-3.5-2.3-5.4-3.4c-0.3-0.1-0.4-0.4-0.4-0.8v-3.9c0-1.1,0.3-1.4,1.3-1.7
		c0.2-0.1,0.5-0.1,0.7-0.1c0.9,0.1,1.6,0.8,1.6,1.8v2.9c-0.1,0.4,0.1,0.7,0.5,0.9c1.8,1.1,3.4,2.3,5.2,3.4l6.1,4l5.9,3.9
		c0.1,0.1,0.3,0.1,0.4,0.1c0.1,0,0.1-0.1,0.1-0.3V54.7l0-10.4V43z M265.2,39.7c0.6-1.1,1.6-2,2.8-2.6c0.7-0.3,1.4-0.4,2.1-0.6h19.1
		c0.7,0.1,1.3,0.2,2,0.5c1.1,0.4,2.1,1,2.9,1.8c0.5,0.4,0.9,0.9,1.3,1.5c-0.4-0.5-0.8-1-1.3-1.4c-0.9-0.8-1.9-1.4-3-1.8
		c-0.6-0.2-1.3-0.4-2-0.5h-19.1c-0.7,0.1-1.5,0.3-2.2,0.6C266.8,37.7,265.8,38.6,265.2,39.7c-0.2,0.3-0.3,0.6-0.4,0.8
		C264.9,40.2,265,39.9,265.2,39.7z M276.7,85.6c0.9,0.9,2.1,1.4,3.3,1.5c0.5,0.1,1,0,1.4-0.2c1.4-0.4,2.5-1.3,3.2-2.5
		c0.1-0.2,0.2-0.4,0.3-0.6c-0.1,0.3-0.2,0.5-0.3,0.8c-0.7,1.2-1.8,2.1-3.2,2.6c-0.5,0.2-0.9,0.3-1.4,0.2c-1.2-0.1-2.4-0.6-3.3-1.5
		c-0.9-0.9-1.4-2.2-1.4-3.5v-0.1C275.3,83.5,275.8,84.7,276.7,85.6z M264.1,73.8c0-0.5,0-0.6,0.5-0.3c1,0.5,1.9,1.1,2.9,1.7
		s1.9,1.2,2.9,1.7c1.5,1,3.1,1.8,4.7,2.8c0.3,0.2,0.3,0.3,0.3,0.5c0-0.1-0.1-0.2-0.3-0.3c-1.5-1-3.1-1.8-4.7-2.8
		c-1-0.6-1.9-1.2-2.9-1.7s-1.9-1.1-2.9-1.7c-0.5-0.3-0.5-0.2-0.5,0.3c0,0.9,0,1.8,0,2.7C264.1,75.7,264.1,74.7,264.1,73.8z
		 M263.9,84.1c-0.1-1.7,0.3-3.4,0.3-5.1c0-0.1,0-0.2,0-0.4c0,0.2,0,0.3,0,0.5c0.1,1.7-0.4,3.4-0.2,5.1c0.1,1.7-0.1,3.3,0,5
		C263.8,87.5,263.9,85.8,263.9,84.1z M282,47.4c-0.2-0.1-0.5-0.3-0.8-0.3c0.3,0.1,0.6,0.2,0.9,0.4c0.7,0.4,1.2,0.9,1.5,1.6
		C283.3,48.3,282.7,47.7,282,47.4z M283.8,49.1c0,0,0,0.1,0.1,0.1c0.4,0.8,0.5,1.6,0.4,2.4c0,0.5,0,1,0.1,1.4
		c-0.2-0.4-0.3-0.9-0.2-1.5C284.3,50.7,284.1,49.8,283.8,49.1z"/>
	<path class="st0" d="M101.1,68.3c-0.6-0.5-1.2-1.2-1.8-1.6c-1.2-0.8-2.5-1.6-3.7-2.4c-1-0.6-1.8-1.3-2.8-1.9c-2-1-3.7-2.4-5.7-3.6
		c-1.3-0.7-2.4-1.8-3.8-2.4c-0.5-0.2-0.7-0.7-0.7-1.1c0-0.2,0-0.3,0-0.5c0.1-1,0-2-0.2-3c-0.1-0.4,0-0.8,0.2-1.1
		c0.1-0.3,0.4-0.5,0.7-0.6c0.5-0.2,1-0.3,1.6-0.3c0.5,0,0.9,0.4,1,0.8c0.1,0.6,0.2,1.2,0.2,1.8c0,0.6,0,1.2,0,1.8
		c-0.1,0.6,0.2,1.1,0.7,1.3c0.6,0.3,1.1,0.7,1.6,1l5.3,3.5l5.9,3.9c1.3,0.8,2.5,1.7,3.7,2.5c0.2,0.1,0.3,0.2,0.5,0.3
		c0.1-0.2,0.1-0.4,0.1-0.5V54.2c0-3.7-0.1-7.3,0-11c-0.1-1.3-0.4-2.6-0.9-3.8c-0.7-1.6-1.9-3-3.3-4c-0.9-0.7-2-1.3-3.1-1.6
		c-1.2-0.4-2.4-0.6-3.6-0.6H75.6c-0.9-0.1-1.8,0-2.6,0.2c-0.9,0.2-1.7,0.5-2.6,0.8c-1.1,0.6-2.1,1.3-2.9,2.2
		c-1.4,1.5-2.3,3.5-2.3,5.6v17c0,1.1,0.3,2.2,0.8,3.1c0.5,1,1.1,2,1.8,2.8c0.8,1.1,1.7,2,2.8,2.9c1.3,0.9,2.7,1.8,4.2,2.6l3.6,2.2
		c1.3,0.8,2.7,1.6,4,2.5c1.1,0.7,2.3,1.3,3.4,2.1c0.2,0.2,0.3,0.2,0.3,0.5v4.9c0,0.1,0,0.1,0,0.2c0,0,0,0,0,0
		c-0.1,0.7-0.7,1.3-1.4,1.2c-0.4,0-0.9,0.1-1.1-0.1c-0.6-0.4-1-1.1-1-1.8v-3.6c0-0.2,0.1-0.3-0.2-0.5c-1.3-0.8-2.7-1.6-4-2.4
		l-3.7-2.3c-1.3-0.8-2.6-1.6-3.9-2.4c-1-0.6-2-1.2-3-1.8c-0.7-0.4-1.4-0.8-2-1.3c0,0-0.3,0.1-0.3,0.2c0,0.3,0,0.6,0,0.9v20.2
		c0,0.6,0.1,1.3,0.2,1.9c0.1,0.8,0.4,1.7,0.8,2.4c0.5,0.9,1,1.8,1.6,2.7c0.8,1,1.7,1.8,2.7,2.4c1.3,0.7,2.8,1.1,4.2,1.1h18.6
		c1.4,0,2.7-0.4,3.9-1c1.9-0.7,3.5-2,4.7-3.5c1.1-1.4,1.7-3,1.8-4.7V74.4c0-1.2-0.4-2.4-1-3.5C102.6,69.9,101.9,69,101.1,68.3z
		 M87.7,48.4c0.7,0.8,1.1,1.7,1.1,2.8v1.7c0,0.1,0,0.2,0.1,0.3c-0.1-0.1-0.1-0.2-0.1-0.4v-1.7C88.7,50.1,88.4,49.1,87.7,48.4z
		 M68.5,59.1V42.5c0-1.1,0.4-2.2,1.1-3.1c0.7-1.1,1.8-1.9,3-2.4c0.6-0.2,1.2-0.4,1.8-0.5h18.8c1.5,0.1,3,0.5,4.2,1.4
		c0.8,0.5,1.5,1.1,2.1,1.8c-0.6-0.7-1.3-1.3-2.1-1.8c-1.2-0.9-2.7-1.3-4.2-1.4H74.5c-0.6,0-1.3,0.2-1.8,0.5c-1.2,0.5-2.3,1.3-3,2.4
		c-0.7,0.9-1.1,2-1.1,3.2L68.5,59.1c0.1,0.7,0.2,1.2,0.5,1.8c0,0.1,0.1,0.2,0.1,0.3C69.1,61,69,60.9,69,60.8
		C68.7,60.3,68.6,59.7,68.5,59.1z M69.7,73.8c1.5,0.9,2.9,1.8,4.4,2.7c0.9,0.6,1.8,1.1,2.8,1.6l2.8,1.6c0.1,0.1,0.2,0.2,0.2,0.4v2.2
		c-0.1,1.7,0.8,3.3,2.4,4.1c0.7,0.4,1.5,0.6,2.3,0.7c0.5,0,1-0.1,1.5-0.3c-0.5,0.2-1,0.3-1.6,0.3c-0.8,0-1.6-0.3-2.3-0.7
		c-1.5-0.8-2.4-2.3-2.4-4v-2.3c0-0.1-0.1-0.3-0.2-0.4c-0.9-0.5-1.8-1.1-2.8-1.6c-0.9-0.5-1.9-1.1-2.8-1.6
		C72.5,75.7,71.1,74.8,69.7,73.8l-1-0.4c0,0,0-0.1,0-0.1C69.1,73.4,69.4,73.6,69.7,73.8z"/>
	<path class="st0" d="M144.1,33.4h-16.4c-0.2,0-0.3,0-0.3,0.3v16.9c0,0.5-0.2,0.9-0.5,1.3c-0.4,0.5-1,1.1-1.4,1.7
		c-0.2,0.2-0.3,0.6-0.6,0.5c-0.3-0.1-0.2-0.4-0.2-0.7V34c0-0.6,0.1-0.6-0.6-0.6h-16.4c-0.1,0-0.2,0-0.4,0c-0.1,0-0.2,0.2-0.2,0.3
		c0,0.3,0,0.6,0,0.9v31.9v32.5c0,0.6,0,0.6,0.6,0.6H124c0.6,0,0.6,0.1,0.6-0.6V79c0-0.1,0.1-0.2,0.1-0.2c0.1,0,0.2,0,0.3,0
		c0.4,0.3,0.7,0.9,1.1,1.1c1,0.4,1.1,1.1,1.1,2v16.8c0,0.4,0.1,0.5,0.5,0.5h16.5c0.6,0,0.6,0.1,0.6-0.6V75.4c0.1-0.5-0.1-1-0.4-1.4
		c-1.2-1.3-2.3-2.8-3.4-4.2l-2.6-3l-0.2-0.2c-0.3-0.4-0.2-0.9,0.2-1.2c1.1-1.1,2.1-2.4,3.1-3.6c0.8-1,1.8-1.9,2.7-2.9
		c0.4-0.4,0.6-1,0.6-1.5V34.1C144.9,33.4,144.9,33.4,144.1,33.4z M134.7,66.6c0.1,0.1,0.2,0.2,0.2,0.3
		C134.9,66.8,134.8,66.8,134.7,66.6c-0.3-0.3-0.5-0.4-0.5-0.6C134.3,66.2,134.4,66.3,134.7,66.6z M120.9,36.7c0.8,0,0.8,0,0.8,0.7
		c0,4.5-0.2,9,0,13.5c0.2,3.5,0.1,6.9,0.2,10.4c0,0.1,0,0.2,0.1,0.3l-0.1,0.1c-0.1-0.1-0.1-0.2-0.1-0.3c-0.1-3.5,0-6.9-0.2-10.4
		c-0.2-4.5,0-9,0-13.5c0-0.7,0-0.7-0.8-0.7h-10.2c0,0-0.1,0-0.1,0c0.1,0,0.1,0,0.3,0H120.9z M110.1,95V66.2l0.1-8.6v8.6l0,28.9
		c0,0.3,0,0.5,0.1,0.6C110.1,95.6,110.1,95.5,110.1,95z M129.8,95.2V80.6c0.3-1.2-0.5-1.9-1.3-2.5c-0.4-0.2-0.7-0.5-1-0.8
		c-0.3-0.3-0.7-0.8-1.1-1.1l-4.9-4.6l-0.1,0c0,0,0,0,0,0l0.2,0.1c1.6,1.5,3.2,3.1,4.9,4.6c0.4,0.3,0.8,0.9,1.1,1.1l1,0.8
		c0.8,0.6,1.6,1.3,1.3,2.5v14.5c0,0.4,0,0.6,0.2,0.7C129.8,95.9,129.8,95.7,129.8,95.2z M141.9,56.7c0,0.6-0.3,1.2-0.8,1.6
		c-0.7,0.9-1.6,1.7-2.3,2.5c-0.6,0.8-1.3,1.5-2,2.2c0.7-0.7,1.3-1.5,1.9-2.3c0.7-0.9,1.6-1.6,2.3-2.5c0.5-0.4,0.7-1,0.8-1.6V37.5
		c0-0.6,0-0.6-0.5-0.6h0.1c0.6,0,0.6,0,0.6,0.6V56.7z"/>
	<path class="st0" d="M371.6,33.4h-29.9c-0.2,0-0.5,0-0.7,0c-0.1,0-0.2,0.1-0.3,0.2v33l0,32c0,0.3,0,0.6,0,0.8s0.1,0.4,0.3,0.4h29.9
		c0.7,0,0.6,0,0.6-0.6V83.9c0-0.2,0-0.3,0-0.5c0-0.3-0.1-0.3-0.3-0.3h-11.8c-0.3,0-0.5,0-0.5-0.4v-6.5c0-0.4,0.2-0.4,0.5-0.4h11.6
		c0.3,0,0.5-0.1,0.5-0.4c0-0.2,0-0.3,0-0.5V59.2c0-0.2,0-0.4,0-0.6c0-0.1-0.2-0.3-0.3-0.3c-0.3,0-0.6,0-0.8,0H360
		c-0.4,0-0.5-0.1-0.5-0.5v-5.4c0-0.4,0-1,0-1.4c0-0.4,0.2-0.4,0.4-0.4h11.3c0.7,0,0.7,0,0.7-0.7V33.7
		C371.9,33.5,371.8,33.4,371.6,33.4z M368.4,96.8c0,0.4-0.2,0.4-0.4,0.4h-22.4c-0.2,0-0.3,0-0.7,0c-0.4,0-0.6,0-0.6-0.4
		c0,0.3,0.3,0.3,0.5,0.3H368c0.3,0,0.4,0,0.4-0.4V96.8z M355.9,61.9c-0.2-0.1-0.2-0.2-0.2-0.7v-13c0-0.7,0-0.8,0.4-0.9
		c-0.3,0.1-0.3,0.2-0.3,0.8v13.1C355.8,61.6,355.8,61.8,355.9,61.9z M368.6,62.6v8.9c0,0.6,0,0.6-0.6,0.6h-11.1c-0.3,0-0.6,0-0.8,0
		c-0.2,0-0.3,0.1-0.3,0.4v0c0-0.3,0.1-0.3,0.3-0.3h11.8c0.6,0,0.6,0,0.6-0.7L368.6,62.6c-0.1-0.4-0.1-0.6-0.2-0.6
		C368.6,62,368.6,62.2,368.6,62.6z M368.5,37.7v9.1c0,0.3-0.1,0.4-0.3,0.4c0.2,0,0.2-0.2,0.2-0.4L368.5,37.7
		c-0.1-0.1-0.1-0.1-0.1-0.2c-0.1-0.1-0.2-0.2-0.3-0.2c-0.2,0-0.4,0-0.6,0h-22.8c0,0-0.1,0-0.1,0c0,0,0.1,0,0.1,0h22.9
		c0.2,0,0.4,0,0.6,0c0.1,0,0.2,0.1,0.3,0.2C368.5,37.5,368.5,37.6,368.5,37.7z"/>
	<path class="st0" d="M337.7,33.9c0-0.6-0.2-0.6-0.2-0.6h-34.3c-0.4,0-0.5,0-0.5,0.5v16.4c0,0.3,0.1,0.5,0.4,0.5h6.4c1,0,1,0,1,1
		v47.5c0,0,0,0.1,0,0.1c0,0,0,0,0,0c0,0.2,0.2,0.3,0.3,0.3h17.8c0.2,0,0.3,0,0.5,0c0.3,0,0.4-0.1,0.4-0.4v-24h0V51.8
		c0-1.1,0-1.1,1.1-1.1h5.7c0.4,0,0.9,0.1,1.1-0.1c0.2-0.2,0.1-0.8,0.1-1.1V33.9z M306.5,47.2c-0.1,0-0.2,0-0.3-0.1
		C306.2,47.2,306.3,47.2,306.5,47.2l7.2,0c0.1,0,0.1,0,0.2,0c-0.1,0-0.1,0-0.2,0H306.5z M334.1,47.1c0,0.4-0.2,0.4-0.4,0.4h-7.8
		c-0.1,0.5-0.1,1.1-0.1,1.6v46.2c0,1,0,1-0.9,1H315c-0.9,0-0.9,0-0.9-1v0c0,1,0,1,0.9,1h9.9c0.9,0,0.9,0,0.9-1V49.1
		c0-0.5,0.1-1.1,0.1-1.6h7.8C333.9,47.5,334.1,47.5,334.1,47.1l0-9.8c0-0.2,0-0.3-0.1-0.3c0.1,0,0.1,0.2,0.1,0.3V47.1z"/>
	<path class="st0" d="M39,44.1c0-1-0.2-1.9-0.5-2.9c-1.5-4.8-5.9-8-10.9-8.1H0.3c-0.2,0-0.3,0-0.3,0.3v32.8v32.6
		c0,0.7,0,0.7,0.6,0.7h28.9c0.2,0,0.5,0,0.7-0.1c2.2-0.6,4.2-1.8,5.8-3.4c0.3-0.4,0.6-0.8,0.9-1.2c0.3-0.4,0.6-0.9,0.9-1.3
		c0.3-0.5,0.5-1,0.7-1.5c0.3-0.7,0.2-1.5,0.5-2.3c0.1-0.3,0.1-0.6,0-0.8V44.1z M23.8,81.2c-0.1,0.1-0.1,0.3-0.2,0.5
		C23.6,81.5,23.7,81.3,23.8,81.2c0-0.1,0.1-0.2,0.1-0.2C23.8,81.1,23.8,81.2,23.8,81.2z M17.1,50.7c0-1,0-1,1-1h0.7
		c0.8,0,1.4,0.4,1.7,1.1c0.2,0.5,0.4,1.1,0.4,1.6v27.1c-0.1,0.8-0.3,1.6-0.6,2.3c-0.3,0.6-0.9,1-1.6,1h-1.1c-0.3,0-0.5-0.3-0.5-0.6
		V66.2L17.1,50.7z M14.3,46.9C14.3,47,14.3,47,14.3,46.9C14.3,47,14.3,47,14.3,46.9z M14.3,47.1c0,0.1,0,0.1,0,0.2
		C14.3,47.2,14.3,47.1,14.3,47.1z M14.3,50.3c0,1,0.2,1.9,0.2,2.9v0.1C14.5,52.3,14.3,51.3,14.3,50.3L14.3,50.3z M15.1,85.4h5.4
		c0.4,0,0.7-0.1,1-0.2c0.6-0.4,1.1-0.9,1.4-1.5c0.2-0.4,0.4-0.7,0.6-1.1c0,0,0,0.1,0,0.1c-0.2,0.4-0.4,0.8-0.6,1.1
		c-0.3,0.6-0.8,1.1-1.4,1.5c-0.3,0.2-0.6,0.3-1,0.2h-5.3c-0.5,0-0.6,0-0.6-0.3C14.6,85.4,14.7,85.4,15.1,85.4z M3.1,36.7
		c0,0.1,0,0.2,0,0.3v29.6l0-28.8c0-0.2,0-0.5,0-0.7C3,36.9,3.1,36.8,3.1,36.7z M33,94.6c-1,0.7-2.1,1.3-3.2,1.7
		c-0.6,0.2-1.2,0.4-1.8,0.4H3.5c-0.2,0-0.4,0-0.4-0.3v0c0,0.2,0.1,0.2,0.4,0.2h24.6c0.6,0,1.2-0.1,1.8-0.4c1.2-0.4,2.2-1,3.2-1.7
		c0.8-0.6,1.4-1.4,2-2.3c0,0,0,0,0,0C34.5,93.1,33.8,94,33,94.6z"/>
	<path class="st0" d="M61,33.4H43.7c-0.2,0-0.3,0-0.3,0.3v32.6l-0.1,32c0,1,0,1,1.1,1h16c0.4,0,0.8-0.1,1.3-0.1V33.9
		C61.6,33.4,61.6,33.4,61,33.4z M58.6,95.6c0,0.4-0.1,0.4-0.4,0.4H46.8c-0.7,0-0.7,0-0.7-0.7V38.4c0-0.4-0.1-0.9,0.1-1.1l0,0
		c-0.2,0.2-0.1,0.7-0.1,1.1v56.8c0,0.7,0,0.7,0.7,0.7h11.3C58.4,96,58.5,95.8,58.6,95.6l-0.1-29l0.1,28.2
		C58.6,95,58.6,95.3,58.6,95.6z"/>
	<path class="st0" d="M44.7,11.8c0.1,0.1,0.1,0.1,0.1,0.2v9.4c0,0.4,0,0.5,0.5,0.5h3.4c0.2,0,0.3-0.1,0.3-0.3V0.5
		C49,0.2,49,0,48.6,0h-3.9c-0.3,0-0.6,0.2-0.7,0.5l-6.1,13.6L31.5,0.4c0,0-0.2-0.4-0.5-0.4h-3.9c-0.4,0-0.4,0.1-0.4,0.5V11h0v10.3
		c0,0.6,0,0.6,0.6,0.6h3.3c0.4,0,0.4-0.2,0.4-0.5V11l4.9,10.4c0.1,0.4,0.5,0.6,0.9,0.6h2.5c0.5,0.1,0.9-0.2,1-0.7
		c0.8-1.8,3.7-8,4.3-9.4L44.7,11.8z"/>
	<path class="st0" d="M142.8,0.2c-0.5,0.2-0.4,0.9-0.6,1.3c0,0-5.1,11-5.4,12.3c-0.1,0.2-0.2,0.5-0.4,0.6c-0.5,0.2-0.3-0.4-0.5-0.5
		c-0.2-0.1-0.2-0.4-0.3-0.6c0,0-5.1-11.8-5.5-12.7c-0.1-0.3-0.4-0.5-0.7-0.5h-3.6c-0.7,0-0.7,0-0.7,0.7V11l-0.1,9.9c0,1,0,1,1,1h1.6
		c0.6,0,1.2-0.1,1.8-0.1v-9.6c0-0.2,0.1-0.4,0.1-0.5c0.1,0.2,0.2,0.3,0.2,0.5c0.2,0.6,3.6,8.1,4.1,9.3c0.1,0.3,0.4,0.4,0.6,0.4h3.4
		c0.3,0,0.3-0.1,0.4-0.4c0.9-1.4,4.1-8.8,4.4-9.5c0.1-0.1,0.1-0.3,0.2-0.4c0.1,0.1,0.1,0.3,0.1,0.4v9.4c0,0.2,0,0.4,0.4,0.4h3.6
		c0.2,0,0.4,0,0.4-0.3V0.2c-1-0.1-2-0.1-3-0.1C143.9,0.1,143.4,0.1,142.8,0.2z"/>
	<path class="st0" d="M112.7,22.4c1.2,0.1,2.5,0,3.6-0.4c2.3-0.8,4.4-2.3,5.8-4.3c0.8-1.3,1.5-2.7,1.8-4.1c0.3-0.8,0.4-1.7,0.2-2.6
		c-0.2-0.8-0.1-1.6-0.4-2.5c-0.4-1.1-0.8-2.2-1.4-3.2c-0.2-0.4-0.5-0.7-0.8-1c-0.3-0.3-0.7-0.6-0.8-1.1c-0.6-0.1-0.8-0.7-1.2-1
		c-0.5-0.3-0.9-0.6-1.4-0.9c-0.8-0.5-1.7-0.8-2.6-1c-1.1-0.2-2.1-0.3-3.2-0.3c-1.3,0-2.6,0.3-3.8,0.9c-2,0.8-3.7,2.1-4.8,3.9
		c-0.5,0.8-1,1.6-1.3,2.4c-0.4,0.9-0.6,1.8-0.7,2.7c-0.2,1.6,0,3.2,0.5,4.8c0.3,1,0.8,1.9,1.3,2.8c0.7,0.9,1.4,1.8,2.3,2.5
		c0.6,0.6,1.4,1,2.1,1.4C109.3,22.2,111,22.5,112.7,22.4z M105.9,11c0.1-1.4,0.6-2.7,1.4-3.8C108,6.2,109,5.5,110,5
		c0.7-0.4,1.4-0.6,2.2-0.6h1.6c1.4,0.1,2.6,0.6,3.6,1.5c0.6,0.5,1.2,1.1,1.6,1.8c0.4,0.6,0.7,1.3,0.8,2c0.2,0.5,0.2,1.1,0.2,1.7
		c-0.1,1.5-0.6,2.9-1.5,4.1c-1,1.2-2.3,2.1-3.8,2.5c-0.6,0.1-1.1,0.2-1.7,0.2v0c-1,0.1-1.9-0.1-2.8-0.5c-1.1-0.5-2-1.2-2.8-2.2
		C106.3,14.3,105.8,12.6,105.9,11z"/>
	<path class="st0" d="M219.5,22.1c-0.8-1.2-1.5-2.4-2.3-3.7c-0.7-1.3-1.4-2.6-2.3-3.9c-0.1-0.2-0.1-0.3,0.2-0.4
		c1.4-0.6,2.5-1.6,3.3-2.9c0.2-0.3,0.4-0.7,0.5-1.1c0.3-0.9,0.5-1.8,0.5-2.8c0.1-1.4-0.4-2.8-1.2-3.9c-0.7-1-1.6-1.8-2.7-2.4
		c-1.1-0.6-2.4-0.9-3.7-0.9h-7.5c-0.3,0-0.4,0-0.4,0.4c0,0.2,0,0.4,0,0.6v20.5c0,0.2,0,0.3,0,0.5c0,0.3,0,0.5,0.4,0.5h3.1
		c0.4,0,0.5,0,0.5-0.5v-5.2l0-1.1v-4.3c0-0.1,0.2-0.2,0.2-0.3c0.1,0.1,0.2,0.2,0.3,0.3c1,1.5,2,3.1,2.8,4.7c1.2,2.1,2.4,4.1,3.6,6.2
		c0,0.1,0.2,0.2,0.3,0.2h4.3C219.8,22.4,219.6,22.2,219.5,22.1z M212.8,10.3h-4.4c-0.4,0-0.4-0.2-0.4-0.4V7.4c0-0.8,0.1-1.6,0-2.4
		c0-0.3,0-0.4,0.4-0.4c1.5,0,2.9-0.1,4.4,0c0.8,0,1.5,0.4,1.9,1.1c0.7,1.1,0.7,2.5,0,3.5C214.2,9.8,213.5,10.3,212.8,10.3z"/>
	<path class="st0" d="M176.6,20.1c1.1-1.2,1.8-2.8,1.8-4.4V1c0-0.2,0-0.6,0-0.7c0-0.1-0.2-0.3-0.3-0.3h-3.7c-0.3,0-0.3,0.1-0.3,0.3
		v14.9c0,0.5-0.1,1-0.3,1.4c0,0,0,0,0,0.1c-0.8,1.4-2.5,2-4,1.2c-1-0.4-1.6-1.4-1.6-2.5V0.2l-3.6-0.1c-0.6,0-0.6,0-0.6,0.7v7.7
		c0,2.5,0,5.1,0,7.6c0.1,0.9,0.4,1.8,0.7,2.7c0.9,1.4,2.2,2.5,3.7,3.3c1.5,0.7,3.2,0.8,4.8,0.3C174.6,21.9,175.7,21.2,176.6,20.1z"
		/>
	<path class="st0" d="M81.4,15.2c0.3,1,0.9,2,1.6,2.8c1,1,1.8,2.3,3.2,2.8c1.6,1.1,3.4,1.7,5.3,1.6c0.8,0,1.7,0,2.5-0.2
		c0.8-0.2,1.5-0.4,2.3-0.7c1-0.5,2-1.1,2.8-1.8c1-0.8,1.8-1.9,2.5-3c0.2-0.4,0.2-0.5-0.3-0.5h-4c-0.3,0-0.5,0.1-0.7,0.2
		c-0.9,0.7-1.9,1.1-3,1.4c-1.5,0.3-3.1,0.2-4.5-0.4c-0.8-0.4-1.5-0.9-2-1.6c-1.2-1.2-1.9-2.8-1.9-4.5c0-1.2,0.4-2.5,1-3.5
		c0.4-0.6,0.8-1.1,1.3-1.6c1.2-1.1,2.8-1.8,4.4-1.9c0.7-0.1,1.5,0,2.1,0.3c0.8,0.2,1.6,0.6,2.2,1.1c0.3,0.4,0.8,0.6,1.3,0.5h1.8
		l2.2,0.1c0.3,0,0.3-0.2,0.2-0.4c-0.1-0.2-0.3-0.4-0.4-0.7c-0.7-1.1-1.6-2-2.6-2.8c-0.6-0.6-1.4-1-2.2-1.3c-1.6-0.7-3.3-1-5.1-1
		c-0.8,0-1.5,0.1-2.3,0.3c-1,0.3-2,0.6-2.9,1.1c-1.3,0.8-2.4,1.8-3.3,3c-0.4,0.4-0.7,0.9-1,1.4c-0.4,0.8-0.8,1.6-1,2.5
		c-0.2,1.4-0.3,2.7-0.2,4.1C80.9,13.5,81.1,14.4,81.4,15.2z"/>
	<path class="st0" d="M6.5,21.9L8.7,22h0.8c0.6,0,1.4,0.2,1.8-0.1c0.4-0.3,0.7-0.9,1-1.4c0.4-0.5,0.7-1,1-1.6
		c0.1-0.3,0.2-0.3,0.4-0.3h7.2c0.3,0,0.3,0.1,0.3,0.3v2.6c0,0.4,0.1,0.4,0.4,0.4h3.2c0.4,0,0.4-0.2,0.4-0.5L25.2,0.1h-1.9
		c-0.5-0.1-1,0-1.6,0.1c-0.3,0.2-12.9,18.5-14,20C7.3,20.8,6.9,21.3,6.5,21.9z M17.2,13.4c1-1.3,2.1-2.6,3.1-4
		c0.1-0.2,0.3-0.5,0.4-0.7c0-0.1,0.1-0.1,0.2-0.1c0,0,0,0,0.1,0c0.1,0,0.2,0.1,0.2,0.3v2.6l-0.1,2.7l-2.8,0.1h-0.7L17,14.2
		C17,13.9,17.1,13.6,17.2,13.4z"/>
	<path class="st0" d="M191.3,22c0,0.4,0.1,0.5,0.5,0.5h10.7c0.3,0,0.5,0,0.5-0.4v-3.5c0-0.4-0.1-0.4-0.5-0.4h-6.4
		c-0.3,0-0.5,0-0.5-0.4v-3.6c0-0.4,0-0.5,0.5-0.5c1.1,0,2,0,3.2,0c1.2,0,2.4-0.1,3.6-0.1V9.8c0-0.1,0.1-0.1,0-0.2
		c-0.1-0.1-0.2-0.3-0.3-0.3c-0.3,0-0.6,0-0.8,0H196c-0.4,0-0.4-0.2-0.4-0.5v-4c0-0.5,0.2-0.5,0.5-0.5h6.2c0.6,0,0.6,0,0.6-0.6V0.7
		c0-0.6,0-0.6-0.6-0.6H192c-0.6,0-0.6-0.1-0.6,0.6v10.6h0V22z"/>
	<path class="st0" d="M160,1.4c-1.1-0.9-2.5-1.4-4-1.4h-6.3c-1,0-1,0-1,1v9.9c0,3.5,0,7,0,10.5c0,0.3,0,0.5,0.4,0.5h3.7
		c0.4,0,0.4-0.2,0.4-0.5V17c0-0.8,0.1-1.6,0.1-2.4h2.4c1,0,2-0.3,2.9-0.7c1.3-0.6,2.4-1.6,3.2-2.8c0.6-1,1-2.1,1.1-3.3
		c0.1-1.1-0.1-2.2-0.7-3.2C161.9,3.3,161.1,2.2,160,1.4z M158.8,7.6c-0.1,0.4-0.3,0.8-0.5,1.2c-0.3,0.4-0.6,0.7-1,1
		c-0.3,0.2-0.6,0.3-1,0.3h-2.6c-0.3,0-0.4-0.1-0.4-0.4V7.2V7l0.1-2.7c0.9,0,1.9-0.1,2.9,0c1.2,0.2,2,1.1,2.2,2.3
		C158.6,7,159,7.2,158.8,7.6z"/>
	<path class="st0" d="M4,22c0.5,0,0.5-0.1,0.5-0.5v-7.6c0-0.4,0.1-0.4,0.5-0.4h6.4c0.5,0,0.5-0.1,0.5-0.5V9.3c0-0.4-0.1-0.4-0.5-0.4
		H5.1c-0.6,0-0.6,0-0.6-0.7V4.5c0-0.4,0.2-0.4,0.5-0.4h6.4c0.3,0,0.5,0,0.5-0.4V0.5c0-0.4-0.2-0.4-0.5-0.4H0.8c-0.6,0-0.6,0-0.6,0.7
		v10.2l0,11C1.5,21.9,2.8,21.9,4,22z"/>
	<path class="st0" d="M63.8,6.3c1.2,2.3,2.3,4.6,3.5,6.9c0.2,0.4,0.4,0.8,0.4,1.3v3.3c0,1.2,0,2.4,0,3.7c0,0.3,0,0.5,0.4,0.5h3.4
		c0.4,0,0.4-0.2,0.4-0.5v-6.7c0-0.5,0.1-1,0.4-1.4c2.2-4.3,4.3-8.5,6.5-12.9C78.8,0.2,78.9,0,78.5,0h-4.2c-0.3,0-0.2,0.2-0.3,0.3
		c-1.3,2.4-2.5,4.9-3.6,7.3C70.2,8,70,8.3,69.8,8.6c-0.2-0.3-0.4-0.6-0.5-0.8C68,5.4,66.8,3,65.7,0.7c-0.2-0.3-0.3-0.6-0.7-0.6h-4
		c-0.3,0-0.3,0.2-0.2,0.4L63.8,6.3z"/>
	<path class="st0" d="M179.4,4.6h2.3c0.9,0,0.9,0,0.9,0.9v16.5c0,0.3,0,0.5,0.4,0.5h3.4c0.4,0,0.4-0.2,0.4-0.5v-8.4
		c0-2.8,0-5.6,0-8.4c0-0.3,0-0.5,0.4-0.5c1.1,0,2.3-0.1,3.4-0.1V1.1c0-1,0-1-0.9-1h-10.3c-0.3,0-0.4,0-0.4,0.4v3.8
		C179,4.6,179.2,4.6,179.4,4.6z"/>
	<path class="st0" d="M55.5,21.3c0,0.6,0,0.6,0.6,0.6h9.3c0-1.2,0.1-2.4,0.1-3.6c0-0.4-0.1-0.4-0.4-0.4h-4.5c-0.6,0-0.6,0-0.6-0.6
		V0.6c0-0.5-0.1-0.5-0.5-0.5h-3.6c-0.5,0-0.5,0.1-0.5,0.5V11h0V21.3z"/>
	<path class="st0" d="M50.6,21.9h3.6c0.2,0,0.4-0.1,0.4-0.3V0.1l-3.7-0.1c-0.6,0-0.6,0-0.6,0.7v10.2l0,8.3v2.3
		C50.2,21.7,50.2,21.9,50.6,21.9z"/>
</g>
</svg>
