<svg id="Layer_1" data-name="Layer 1" xmlns="http://www.w3.org/2000/svg" width="579.81" height="100" viewBox="0 0 579.81 100"><polygon points="180.64 0 0 0 0 7.14 173.5 7.14 173.5 46.43 0 46.43 0 100 7.14 100 7.14 53.57 180.64 53.57 180.64 0" fill="#fff"/><polygon points="399.16 0 399.16 7.14 572.67 7.14 572.67 46.43 399.16 46.43 399.16 100 406.3 100 406.3 53.57 579.81 53.57 579.81 0 399.16 0" fill="#fff"/><polygon points="272.75 92.86 180.64 92.86 180.64 100 280.29 100 280.29 7.14 372.39 7.14 372.39 0 272.75 0 272.75 92.86" fill="#fff"/></svg>