<svg id="Layer_1" data-name="Layer 1" xmlns="http://www.w3.org/2000/svg" width="423.14" height="100" viewBox="0 0 423.14 100"><g id="Capa_1" data-name="Capa 1"><path d="M16,21.55,14,84.74c0,10.59,10.13,8.52,10.13,10.59,0,1.46-1.45,1.78-4.19,1.78H3.37c-2.23,0-3.37-.64-3.37-1.6,0-3.07,9.86,0,10.18-10l2.09-69.95c0-6.74-10.65-4-10.65-7.14,0-1,.95-1.46,3.05-1.46h17.2L42.2,76.3,61.85,6.64l14,.34c2.25,0,3.37.48,3.37,1.78,0,2.89-8,0-8.2,7.38l2.89,69.63c.16,3.7.8,6.27,2,7.07,2.57,2,6.58,1,6.58,2.89,0,1.14-1,1.46-3,1.46H58.28c-2.09,0-3.07-.32-3.07-1.46,0-2.89,9,0,9-7.72V86L61.65,21.53,41.7,92c-1.12,4.17-1.28,4.65-2.55,4.65-1.62,0-2-1.6-2.74-5Z" fill="#fff"/><path d="M170.67,35.85v10.3c0,2.73-.66,4.65-2.89,4.65-5.63,0-4.83-16.4-14.49-16.4-7.88,0-15.58,12-15.58,29.59,0,18.49,7.22,29.11,17.52,29.11,12.23,0,12-13.83,14.78-13.83,1.14,0,1.62,1,1.62,2.25,0,10-10.78,18.48-19.61,18.48-13.19,0-24.29-14.31-24.29-34.9,0-21.52,12.71-34.71,27.82-34.71C162.47,30.39,167.12,32.3,170.67,35.85Z" fill="#fff"/><path d="M187,6.11c3.21,0,5.47,3.37,5.47,8s-2,7.56-5.31,7.56c-2.89,0-5.63-2.9-5.63-7.4,0-4.83,2.58-8.2,5.47-8.2Z" fill="#fff"/><path d="M213.39,33l.32,6.43c7.54-6.59,12.37-9.48,19.45-9.48,10.46,0,16.56,7.06,16.56,19V85.06c0,3.69.16,5.78,1.78,7.4,2,2,6.58.64,6.58,3.05,0,1.12-1,1.6-2.89,1.6H236.77c-2.41,0-3.85-.32-3.85-1.76s7.38,0,7.38-7.4V48.72c0-8.36-4.81-13.34-11.41-13.34a14.11,14.11,0,0,0-14.77,13.44,1.62,1.62,0,0,0,0,.22V85.91c0,3.87.48,6.29,2.41,7.25,2.39,1.27,7.22.16,7.22,2.25,0,1.44-1.27,1.76-3.69,1.76H179.29c-2.73,0-4.19-.32-4.19-1.6,0-2,4-1.14,6-2.89,1.27-1.3,1.27-3.06,1.27-6.77V47.11c0-8-7.24-5.47-7.24-8,0-1,14.64-9.16,15-9.16,1,0,1.6,1,1.6,3.21l-.16,52.89c0,5.31,1,7.41,6.44,7.41,6.59,0,6.91-2.42,6.91-7.73v-39c0-6-.64-6-5-6-1.44,0-2.55-.5-2.55-1.45s14.78-10.78,15.1-10.78c1,0,1,1.3,1,4.35Z" fill="#fff"/><path d="M364.47,33.28l.15,12.85c0,1.62-.47,2.41-1.77,2.41-4.83,0-2.42-14.94-14.47-14.94a10,10,0,0,0-10,9.95c0,.22,0,.44,0,.66,0,3.22,1.77,6.75,6.44,9.8l11.41,7.72c6.59,4.51,9.48,9.66,9.48,16.88a20.83,20.83,0,0,1-21.21,20.44h-.34C332.94,99,328,96,328,92.6V82.48c0-4,.66-6.44,2.42-6.44,4.51,0,3.55,18.81,16,18.81,5.78,0,11.09-5.62,11.09-13a13.47,13.47,0,0,0-6.58-11.25l-12.07-8.36c-5.31-3.69-8.68-8.52-8.68-14.94,0-9.82,8.84-17.38,20.59-17.38,4.49,0,7.38.66,13.83,3.39Z" fill="#fff"/><path d="M380.43,9.16V38.75c6.42-5.47,11.53-8.2,17.95-8.2,12,0,17.68,8.36,17.68,21.39V88.43c0,6.92,7.08,5.15,7.08,6.92,0,1.28-1.43,1.76-5.62,1.76H401.76c-2,0-2.58-.32-2.58-1.44,0-2.41,7.24,0,7.24-7.24V51.78c0-9.82-4.5-15.45-12-15.45-8,0-14,6.59-14,15.45v35c0,8.7,8.5,6.61,8.5,8.7,0,1.28-1.14,1.6-4,1.6H365.54c-1.77,0-2.57-.48-2.57-1.28,0-2,8,0,8-9V16.56c0-7.24-8-5-8-7.24,0-1,15.44-9.32,15.76-9.32,1.78,0,1.82,2.25,1.82,9.16Z" fill="#fff"/><path d="M130,84.58c-2.74,0-2.58,7.22-6.61,7.22-2.57,0-3.69-2.41-3.69-6.11V43.79c0-9.65-1.61-12.86-11.41-12.86-10.45,0-27.81,9-27.81,21.07,0,3,1.27,4,3,4,11.73,0,7.38-21.71,21.37-21.71,3.55,0,4.83,1.77,4.83,5.46V56.46L95.57,67.08C85,75.06,80.79,80.43,80.79,87.33c0,5.81,5.3,12,10.93,12s11-3.35,18.64-11.25c1.45,7.22,4,11.25,9.17,11.25,3.85,0,11.74-5.78,11.74-13.19,0-1-.48-1.59-1.28-1.59ZM97.11,92.44c-3.71,0-6.29-2.89-6.29-8.36,0-6.75,5.63-14.15,18.82-23.31V83.28c-1.62,2.41-6.77,9.16-12.55,9.16Z" fill="#fff"/><path d="M302.13,29.75c-13.48,0-25.45,13.67-25.45,33.44a51.82,51.82,0,0,0,4,19.61l.32.8c-1.6,4.67-4.17,7.72-7.39,7.72s-4.67-3.21-4.67-8.36V37.79h8.68c2.74,0,4-.66,4-2.73s-1.59-2.74-4-2.74h-8.68V16.08c0-1.3-.16-2.41-.81-2.41-1.12,0-4.65,7.22-7.23,11.25-3.05,4.67-8,9.48-8,10.93s1.28,2,3.53,2h3.06V83c0,10.14,3.55,15.6,10.45,15.6,5.31,0,10.46-3.71,13.51-10.61l.16-.48c5.79,6.58,11.09,10.93,19.13,10.93,13.19,0,25.58-15.44,25.58-34.25,0-20-12.23-34.4-26.21-34.4Zm.8,65.1c-8.68,0-16.08-12-16.08-32.32,0-18.64,5.15-28.61,14.65-28.61s16.56,10.93,16.56,31.52c0,18.64-5.79,29.41-15.13,29.41Z" fill="#fff"/></g></svg>