<?xml version="1.0" encoding="utf-8"?>
<!-- Generator: Adobe Illustrator 25.4.1, SVG Export Plug-In . SVG Version: 6.00 Build 0)  -->
<svg version="1.1" id="Layer_1" xmlns="http://www.w3.org/2000/svg" xmlns:xlink="http://www.w3.org/1999/xlink" x="0px" y="0px"
	 viewBox="0 0 1257.6 100" style="enable-background:new 0 0 1257.6 100;" xml:space="preserve">
<style type="text/css">
	.st0{fill:#FFFFFF;}
</style>
<g>
	<polygon class="st0" points="0,100 27.2,100 27.2,70.3 27.2,70.2 124.2,70.9 124.2,47.2 28,47.2 28,26.7 127.7,26.7 127.7,0 0,0 	
		"/>
	<rect x="338.3" y="0.2" class="st0" width="28.4" height="99.6"/>
	<polygon class="st0" points="847.5,38.4 767.4,38.4 767.4,0.2 738.1,0.2 738.1,99.8 767.2,99.8 767.2,63.5 847.2,63.5 847.2,99.8 
		876.5,99.8 876.8,0.1 847.5,0.1 	"/>
	<polygon class="st0" points="991.8,0.1 964.4,0.1 964.4,99.8 1092.8,99.8 1092.8,73.2 991.8,73.2 	"/>
	<path class="st0" d="M191.4,0.2l-58,99.8h30.7l19-29.3h82.3L283,100h34.2L257.7,0.2H191.4z M194.7,46.3l13.2-20.8h35.5l11.2,20.8
		H194.7z"/>
	<path class="st0" d="M538.8,46V29.9c0-14.9-15-29.4-29.6-29.4H397.5v99.4H424V71.1h55.1L505,99.9h35.6L514.4,72
		C527.4,70.2,538.8,59.5,538.8,46z M502.4,48.6C502.4,48.6,502.4,48.6,502.4,48.6c-0.6,0-1.2,0-1.8-0.1v0h-76.7v-22h76.8
		c6.3,0,11.4,5.1,11.4,11.4C512.4,43.6,508,48.4,502.4,48.6z"/>
	<path class="st0" d="M610.4,28h59.5c7.2,0.1,13.4,4.8,15.4,11.7h28l-0.1-0.1c-0.2-21.6-17.6-39.1-39.2-39.5h-71.4c0,0,0,0,0,0
		c-21.3-0.1-38.7,17-38.8,38.3v23.1c0,0,0,0,0,0c0.1,21.3,17.5,38.5,38.8,38.3H674c21.5,0,38.3-16,38.3-40.5h-27.1
		c-1,7.7-7.6,13.5-15.4,13.5h-59.5c-8.5,0-15.5-6.9-15.5-15.4v-14C594.9,34.9,601.8,28,610.4,28z"/>
	<rect x="907.8" y="0.4" class="st0" width="28.4" height="99.4"/>
	<path class="st0" d="M1226,0.2h-111.6v99.3h112.3c0,0,30.8-6.2,30.9-51C1257.7,6.4,1230.2,0.9,1226,0.2z M1218.1,73.3h-0.1
		l-76.4-0.2V26.4h76.7c6.8,1.3,15.3,2.5,15.5,22.5C1233.8,72.8,1218.1,73.3,1218.1,73.3z"/>
</g>
</svg>
