<svg id="Layer_1" data-name="Layer 1" xmlns="http://www.w3.org/2000/svg" width="325.57" height="100" viewBox="0 0 325.57 100"><path d="M273.87,25.42H229.09a.29.29,0,0,0-.28.22l-9.29,44a.27.27,0,0,0,.22.32h44.74a.27.27,0,0,0,.28-.22l9.33-44A.29.29,0,0,0,273.87,25.42ZM258.64,36.25l-4.9,23.14v0a.28.28,0,0,1-.27.21H235.18a.27.27,0,0,1-.28-.27l4.91-23.14a.28.28,0,0,1,.27-.23h18.29a.28.28,0,0,1,.28.27A.17.17,0,0,1,258.64,36.25Z" transform="translate(0 0)" fill="#fff"/><path d="M220.73,30.41h0l-5.05-4.89a.32.32,0,0,0-.21-.08H177a.29.29,0,0,0-.28.22l-9.32,44a.29.29,0,0,0,.2.33H206a.25.25,0,0,0,.17,0l7.3-5.2a.25.25,0,0,0,.11-.17l2.57-12.13a.29.29,0,0,0-.08-.26l-5.27-5.1a.28.28,0,0,1,0-.4h0l7.67-5.49a.44.44,0,0,0,.12-.18l2.19-10.38A.28.28,0,0,0,220.73,30.41Zm-18,22.77-1.29,6.15a.29.29,0,0,1-.28.22H182.51a.27.27,0,0,1-.29-.26v-.12l1.31-6.11a.28.28,0,0,1,.27-.23h18.62a.28.28,0,0,1,.28.29Zm3.6-17L205,42.32a.28.28,0,0,1-.27.22H186.12a.3.3,0,0,1-.3-.28v-.07l1.3-6.11a.29.29,0,0,1,.28-.23H206a.3.3,0,0,1,.29.3Z" transform="translate(0 0)" fill="#fff"/><path d="M169.31,25.71a.29.29,0,0,0-.29-.28H124.69a.29.29,0,0,0-.28.21l-5.1,24.26a.28.28,0,0,1-.15.2L89,64a.3.3,0,0,1-.26,0,.29.29,0,0,1-.07-.4L137,.45a.28.28,0,0,0,0-.29A.27.27,0,0,0,136.7,0l-84,38.69h-.19a.28.28,0,0,1-.2-.33L54.9,25.74v-.07a.27.27,0,0,0-.27-.27H41.82a.26.26,0,0,0-.26.22L34.42,59.28a.29.29,0,0,1-.28.22H15.78a.28.28,0,0,1-.21-.33l7.12-33.4v-.06a.29.29,0,0,0-.29-.28H9.61a.29.29,0,0,0-.28.21L0,69.66v.06A.27.27,0,0,0,.28,70h45a.28.28,0,0,0,.27-.22l4.17-19.69a.31.31,0,0,1,.16-.21L80,36.06a.25.25,0,0,1,.26,0,.29.29,0,0,1,.08.39L31.91,99.54a.26.26,0,0,0,0,.32.27.27,0,0,0,.37.1l84.2-38.74a.25.25,0,0,1,.17,0h0a.28.28,0,0,1,.21.33l-1.7,8.06v.06a.27.27,0,0,0,.28.27h44.33a.28.28,0,0,0,.28-.22l2.09-9.87v-.06a.27.27,0,0,0-.27-.28h-31.1a.29.29,0,0,1-.21-.34l1.3-6.11v0a.27.27,0,0,1,.33-.18h20.4a.28.28,0,0,0,.27-.22l2-9.78v0a.27.27,0,0,0-.27-.28H134.35a.28.28,0,0,1-.21-.33l1.29-6.11a.3.3,0,0,1,.28-.23h31.23a.29.29,0,0,0,.28-.21l2.09-9.88Z" transform="translate(0 0)" fill="#fff"/><path d="M325.28,25.44H312.39a.27.27,0,0,0-.19.08l-11.55,11,0,0a.28.28,0,0,1-.37-.11l-6.79-10.82a.31.31,0,0,0-.25-.13h-13a.3.3,0,0,0-.29.22l-1.2,5.71a.37.37,0,0,0,0,.21l9.92,15.94a.27.27,0,0,1,0,.36L272,63.8a.28.28,0,0,0-.08.15l-1.22,5.7v.06A.28.28,0,0,0,271,70h12.89a.27.27,0,0,0,.19-.08l11.58-11A.29.29,0,0,1,296,59l6.76,10.83A.28.28,0,0,0,303,70h12.91a.3.3,0,0,0,.29-.22L317.42,64a.28.28,0,0,0,0-.22l-9.88-15.85a.27.27,0,0,1,0-.36l16.75-16a.31.31,0,0,0,.08-.15l1.2-5.61v-.06A.29.29,0,0,0,325.28,25.44Z" transform="translate(0 0)" fill="#fff"/></svg>