<svg id="Capa_1" data-name="Capa 1" xmlns="http://www.w3.org/2000/svg" width="403.59" height="100" viewBox="0 0 403.59 100"><path d="M165.72,69a10,10,0,0,1-4.24-4.15L143.84,25.56a2.66,2.66,0,0,0-1.6-.66,2,2,0,0,0-1.42.66L127.13,51.31H109.51c-1.26.44-1.32,1.19-.19,2.26A8.45,8.45,0,0,1,114.13,56a5.8,5.8,0,0,1,1.75,5A11.46,11.46,0,0,1,114,66.26q-1.52,2.22-6.42,3.16a9.57,9.57,0,0,1-9.29-5.76A31.65,31.65,0,0,1,95.55,49.8q0-9.72,2.78-14.48t9.29-5.14A24.54,24.54,0,0,1,116,31.41c2.24.82,5.16,3.42,8.74,7.83.57,1,1.1,1.19,1.61.56a24.77,24.77,0,0,0-3-12.73c-.38-.69-1.16-.88-2.36-.57A8.47,8.47,0,0,1,116.49,28a13.37,13.37,0,0,1-2.6-.23q-.7-.19-6.27-.94-12.16,0-19.66,6.86c-.23.2-.44.41-.65.62a29.45,29.45,0,0,0-3-6.26,2.08,2.08,0,0,0-2-.85H44.45a2,2,0,0,0-.49-.09L31.41,25.84c-2.51-.25-5-.37-7.54-.37a59.67,59.67,0,0,0-7.55.47,21,21,0,0,0-6.79,2q-5.46,3.21-5.8,6.79a9.53,9.53,0,0,0,.95,5.75q1.26,2.17,6.83,6.13A100.75,100.75,0,0,0,22,53.2a22.72,22.72,0,0,1,7.08,5.37c1.44,1.83,1.22,3.68-.66,5.57a11.58,11.58,0,0,1-6.75,2.31,16.72,16.72,0,0,1-7.35-1.7A35.89,35.89,0,0,1,7.88,61Q5.2,58.94,1,55.84c-.75,0-1.1.59-1,1.79L6.89,70.17a1.36,1.36,0,0,0,1.79.62,22.9,22.9,0,0,1,5.47-.57,25,25,0,0,1,6,.28q1.65.44,9.77.43a19.5,19.5,0,0,0,7.64-2.13A21.54,21.54,0,0,0,41.7,66q1.21-1.19,2-5.1a11.37,11.37,0,0,0-1-7.35,21.26,21.26,0,0,0-6.22-7,42.77,42.77,0,0,0-9.95-5.81q-5.43-2.25-7.45-4.52c-1.36-1.51-1.81-2.88-1.37-4.11a3.93,3.93,0,0,1,2.55-2.49,30.47,30.47,0,0,1,9.62.37A81.16,81.16,0,0,1,39,32.44a18.48,18.48,0,0,1,7.55,5V66.4q0,1.51-3.59,2.55c-.63.31-.94.66-.94,1s.5.7,1.51,1H82.35a2.08,2.08,0,0,0,2-.85,30.08,30.08,0,0,0,3-5.5c.46.47.93.94,1.45,1.4a27.43,27.43,0,0,0,18.88,6.83,17.13,17.13,0,0,0,9.45-1.88h18.75c.88-.76.76-1.39-.37-1.89-2-1.26-2.83-2.26-2.46-3l.1-.94,12.16-22.45L155,64.51a2.86,2.86,0,0,1-.19,2.55,6.18,6.18,0,0,1-2.73,1.79q-2.84.95-.76,2.08h14.9C167.2,70.05,167,69.42,165.72,69ZM83.1,61.17a22,22,0,0,1-5.52,3.72,26,26,0,0,1-10,2.45h-3q-6,0-6-4V50.55a2.89,2.89,0,0,1,1.88-.84c.76-.07,2.42.37,5,1.32a25.77,25.77,0,0,1,8.21,5.37,1.21,1.21,0,0,0,.38,0,1.33,1.33,0,0,0,1.13-1.51V41.69a1.21,1.21,0,0,0,0-.38,1.33,1.33,0,0,0-1.51-1.13,25.6,25.6,0,0,1-8.21,5.37c-2.58,1-4.24,1.39-5,1.33A3,3,0,0,1,58.58,46V34.71q0-4.53,6-4.53h3a29.07,29.07,0,0,1,10,2.26A19.43,19.43,0,0,1,83.1,36c.41.42.89.93,1.41,1.49A20.3,20.3,0,0,0,80.46,49.8a21.74,21.74,0,0,0,3.43,10.58C83.6,60.66,83.33,60.92,83.1,61.17Z" fill="#fff"/><path d="M402.83,27.73H391c-.94.63-.94,1.19,0,1.7,2.26.88,3.4,2.32,3.4,4.34V53q-29.91-25.56-39.81-25.85c-.63,0-.94.26-.94.76a6.22,6.22,0,0,0,2,2.45,16.24,16.24,0,0,1,3.26,4.2,23.93,23.93,0,0,1,2.31,6.17V67.91a3.44,3.44,0,0,1-.78,2.23l-.64-.25a33.82,33.82,0,0,1-13.86-13.68c-1.64-2.57-2.71-4-3.21-4.33a3.17,3.17,0,0,1-1.13-1.14,11.53,11.53,0,0,0,8.93-20q-3.69-3.55-12.7-3.56H293.33c-1,.88-1,1.64,0,2.27q4.53.75,4.53,3.77V53.67q0,8-3,10.84a10.27,10.27,0,0,1-7.34,2.83A10.65,10.65,0,0,1,280,64.51a9.9,9.9,0,0,1-3.28-7.16V33.2q0-3,4.53-3.77c1.13-.63,1.13-1.39,0-2.27H221.09a2.46,2.46,0,0,0-2.17.95L215.05,34c.12.88,1.13.82,3-.18q4.53-2.55,13.58-3.59h3V64.51q0,3-4.53,4.53l-.13,0-.15,0a10,10,0,0,1-4.25-4.15L208,25.56a2.66,2.66,0,0,0-1.61-.66,2,2,0,0,0-1.41.66L183.9,65.15a34.17,34.17,0,0,0-3-9.31l-9.06-24.15-1.51-6a20.61,20.61,0,0,1,1.51-13.58q3-6,10.38-10.75C182.35.44,182,0,181.1,0a30.77,30.77,0,0,0-16.32,7.59q-6.51,6-7.64,12-1.51,6,0,15.09l7.17,21.13q6.78,15.18,6,23.25T157.89,98.84c-.12.88.38,1.26,1.51,1.14q12.73-4.82,20-14a31.13,31.13,0,0,0,4.86-15.09H200c.88-.76.75-1.39-.38-1.89-2-1.26-2.83-2.26-2.45-3l.09-.94,12.17-22.45,9.71,21.88a2.9,2.9,0,0,1-.18,2.55,6.21,6.21,0,0,1-2.74,1.79q-2.84.95-.75,2.08h37.35q1.69-1.32,0-1.89-4.53-1.5-4.53-4.53V30.18h3q8.16.95,12.64,3.1V57.35a13,13,0,0,0,5.54,10.35q5.4,4.17,15,4.36,8.67,0,13.77-4.39t4.9-8.91V33.2c0-1.93,1.93-3.1,5.73-3.52,3.15.45,4.74,2.12,4.74,5v29.8q0,3-4.53,4.15c-1.13.38-1.13,1.14,0,2.27h22.64c1.13-1.13,1.13-1.89,0-2.27q-4.53-1.12-4.53-4.15V33.2a3.62,3.62,0,0,1,1-2.5,7.41,7.41,0,0,1,5.05-1.08,8.19,8.19,0,0,1,5.85,2.31c1.63,1.54,2.45,4,2.45,7.31a8.28,8.28,0,0,1-2.74,6.29c-1.82,1.71-3.68,2.38-5.56,2l-2.17-.38q-1.89-1.23-1.23,2A28.6,28.6,0,0,0,334,60.36a22.53,22.53,0,0,0,9.25,9.25,42.08,42.08,0,0,0,13.11,3.69A3.39,3.39,0,0,0,357,74h13.58q1.69-1.32,0-1.89-4.15-1.14-4.15-4.15V46.59l31.69,25.85c.88.25,1.32-.1,1.32-1V33.77c0-2,1.13-3.46,3.39-4.34C403.84,28.92,403.84,28.36,402.83,27.73Z" fill="#fff"/></svg>