<?xml version="1.0" encoding="utf-8"?>
<!-- Generator: Adobe Illustrator 25.4.1, SVG Export Plug-In . SVG Version: 6.00 Build 0)  -->
<svg version="1.1" id="Layer_1" xmlns="http://www.w3.org/2000/svg" xmlns:xlink="http://www.w3.org/1999/xlink" x="0px" y="0px"
	 viewBox="0 0 450.7 100" style="enable-background:new 0 0 450.7 100;" xml:space="preserve">
<style type="text/css">
	.st0{fill:#FFFFFF;}
</style>
<g>
	<path class="st0" d="M129.6,19.3H86.4V100H106V36.2c0-0.6,0.2-1.2,0.7-1.7c0.4-0.4,1-0.7,1.6-0.7h12.4c5-0.1,9.7,1.8,13.3,5.2
		c3.3,3,5.1,7.2,5.2,11.6c0,4.4-2.1,8.6-5.6,11.3c-3.7,2.8-8.3,4.3-13,4.1H116v14.6h13.1c8.4,0.2,16.6-3,22.7-8.8
		c6-5.4,9.4-13.2,9.2-21.3c0.2-8.4-3.2-16.4-9.2-22.2C146,22.4,137.9,19.1,129.6,19.3z"/>
	<path class="st0" d="M213.6,19.3h-43.2V100H190V36.2c0-0.6,0.2-1.2,0.7-1.7c0.4-0.4,1-0.7,1.6-0.7h12.4c5-0.1,9.7,1.8,13.3,5.2
		c3.3,3,5.1,7.2,5.2,11.6c0,4.4-2.1,8.6-5.6,11.3c-3.7,2.8-8.3,4.2-13,4.1H200v14.6h13.1c8.4,0.2,16.6-3,22.7-8.8
		c6-5.4,9.4-13.2,9.2-21.3c0.2-8.4-3.2-16.4-9.2-22.2C230,22.4,221.9,19.1,213.6,19.3z"/>
	<path class="st0" d="M9.2,28.5C3.3,33.9,0,41.6,0,49.6c0,7.9,3.1,14.9,9.7,21.5c5.9,6.2,14,9.7,22.5,9.6h12.5V66.1h-5.3
		c-4.6,0.1-9.1-1.6-12.5-4.6c-3.3-3-5.2-7.2-5.2-11.7c-0.1-4.4,1.8-8.7,5.1-11.6c3.4-2.9,7.8-4.5,12.3-4.4h13.3
		c0.6,0,1.2,0.2,1.6,0.7c0.4,0.4,0.7,1,0.7,1.7v44.5h19.5V19.3H32C23.5,19.1,15.2,22.4,9.2,28.5z"/>
	<rect x="254.5" class="st0" width="19.5" height="80.7"/>
	<path class="st0" d="M380.5,11.2H392c0.6,0,1.2,0.3,1.6,0.7c0.4,0.4,0.7,1,0.7,1.7v53.5c0,0.6-0.2,1.2-0.7,1.7
		c-0.4,0.4-1,0.7-1.6,0.7h-11.5v11.3h30.6V0h-30.7V11.2z"/>
	<path class="st0" d="M437.7,11.9c0.4-0.4,1-0.7,1.6-0.7h11.4V0h-30.6v80.8h30.6V69.5h-11.4c-0.6,0-1.2-0.2-1.6-0.7
		c-0.4-0.4-0.7-1-0.7-1.7V13.6C437,13,437.2,12.4,437.7,11.9z"/>
	<path class="st0" d="M310.8,61.5c-3.4-3-5.3-7.4-5.2-11.9c-0.1-4.3,1.8-8.4,5-11.3c3.5-3,8-4.5,12.6-4.3h12.4
		c0.9,0,1.7,0.5,2.1,1.3c0.4,0.8,0.3,1.8-0.3,2.5l-14,18.2h21.4l14.9-20.4V19.3h-38.4c-9.7-0.2-19.1,3.2-26.5,9.4
		c-7.6,6.3-11.1,13.2-11.1,21c-0.2,9,4,17.5,11.3,22.7c7.6,5.7,16.8,8.6,26.3,8.3h38.4V66.1h-36.5C318.6,66.2,314.1,64.5,310.8,61.5
		z"/>
</g>
</svg>
