<?xml version="1.0" encoding="utf-8"?>
<!-- Generator: Adobe Illustrator 25.4.1, SVG Export Plug-In . SVG Version: 6.00 Build 0)  -->
<svg version="1.1" id="Layer_1" xmlns="http://www.w3.org/2000/svg" xmlns:xlink="http://www.w3.org/1999/xlink" x="0px" y="0px"
	 viewBox="0 0 308.3 100" style="enable-background:new 0 0 308.3 100;" xml:space="preserve">
<style type="text/css">
	.st0{fill:#FFFFFF;}
</style>
<path class="st0" d="M260.7,1.5h-36.2v27.3c-7.9-16.2-24.4-27.3-43.6-27.3h-36.2V56h-13.9V1.5H99.5L71.2,50.6
	c-2.8-8.6-9-17.4-22.5-17.4c-9.4,0-15.9,2.7-20.3,5.8c1.9-5.5,6.8-10.3,12-13.1c9.9-5.5,24.7-4.5,24.7-4.5V0c0,0-28.8-1.5-45,13
	C3.9,27.5,0,42.4,0,57.6C0,68.5,2.5,100,36.8,100c23.1,0,31.6-12.7,34.7-23.4h34.1v21.8h25.2V76.6h13.9v21.9h36.2
	c19.2,0,35.8-11.1,43.6-27.3v27.3h36.2c26.8,0,48.5-21.7,48.5-48.5C309.2,23.2,287.5,1.5,260.7,1.5z M38.1,80.3
	c-6.6,0-11-6.2-11-15.8c0-9.6,5.1-12.4,9.9-12.4c7,0,10.2,5.6,10.2,13.2C47.2,72.8,44.7,80.3,38.1,80.3z M105.6,56H90.8l14.8-27V56z
	 M176,79h-6V20.8h6c12,0,21.9,13.1,21.9,29.1C197.9,65.9,188,79,176,79z M255.8,79h-6V20.8h6c12,0,21.9,13.1,21.9,29.1h0
	C277.7,65.9,267.8,79,255.8,79z"/>
</svg>
