<svg id="Layer_1" data-name="Layer 1" xmlns="http://www.w3.org/2000/svg" width="340.62" height="100" viewBox="0 0 340.62 100"><g id="Layer_2" data-name="Layer 2"><polygon points="0.13 1.86 48.81 1.86 48.81 16.4 32.19 16.4 32.19 59.1 15.97 59.1 15.97 16.4 0 16.4 0.13 1.86" fill="#fff"/><polygon points="53.35 1.86 69.32 1.86 69.32 59.23 53.09 59.23 53.35 1.86" fill="#fff"/><rect x="74.25" y="22.89" width="14.41" height="11.29" fill="#fff"/><path d="M92.34,46.59l16.83-2a8.15,8.15,0,0,0,2.24,4.66,5.74,5.74,0,0,0,3.86,1.36,7.08,7.08,0,0,0,6.36-3.86q1.66-2.84,2.49-12A20.82,20.82,0,0,1,117.89,39a18.71,18.71,0,0,1-7.39,1.36A19.18,19.18,0,0,1,96.68,35a18.28,18.28,0,0,1-5.63-13.74,19.28,19.28,0,0,1,2.87-10.32,18.31,18.31,0,0,1,7.89-7,29.6,29.6,0,0,1,12.63-2.38c6.1,0,11,1,14.67,2.93a21.19,21.19,0,0,1,8.83,9.31q3.3,6.39,3.3,16.86,0,15.41-6.94,22.57t-19.23,7.16a33.78,33.78,0,0,1-11.51-1.59,17.67,17.67,0,0,1-7-4.6A20.46,20.46,0,0,1,92.34,46.59ZM123.5,21.21A10.09,10.09,0,0,0,121,14a8.09,8.09,0,0,0-6.07-2.61,7.33,7.33,0,0,0-5.59,2.39q-2.22,2.37-2.22,7.1c0,3.15.77,5.59,2.31,7.3a7.47,7.47,0,0,0,5.75,2.52,8,8,0,0,0,5.94-2.44Q123.5,25.75,123.5,21.21Z" fill="#fff"/><path d="M144.84,46.59l16.82-2a8.15,8.15,0,0,0,2.24,4.66,5.77,5.77,0,0,0,3.87,1.36,7,7,0,0,0,6.35-3.86q1.66-2.84,2.5-12A20.82,20.82,0,0,1,170.39,39a18.76,18.76,0,0,1-7.4,1.36A19.1,19.1,0,0,1,149.18,35a18.22,18.22,0,0,1-5.62-13.7,19.19,19.19,0,0,1,2.87-10.32,18.31,18.31,0,0,1,7.89-7A29.45,29.45,0,0,1,167,1.55q9.13,0,14.66,2.93a21.07,21.07,0,0,1,8.82,9.27q3.3,6.39,3.3,16.86,0,15.41-6.93,22.57t-19.24,7.15a33.51,33.51,0,0,1-11.47-1.58,17.67,17.67,0,0,1-7-4.6A20.37,20.37,0,0,1,144.84,46.59ZM176,21.21A10.09,10.09,0,0,0,173.5,14a8.1,8.1,0,0,0-6.06-2.61,7.33,7.33,0,0,0-5.59,2.39q-2.22,2.37-2.22,7.1c0,3.19.76,5.62,2.3,7.3a7.49,7.49,0,0,0,5.76,2.52,8,8,0,0,0,5.94-2.44C175.2,26.58,176,24.24,176,21.21Z" fill="#fff"/><polygon points="214.57 1.73 222.51 1.73 196.55 60.79 189.52 60.79 214.57 1.73" fill="#fff"/><path d="M243.56,61.75V51.12H212.72V35.43L244.63,0h17.56V35h7.64V51.12h-7.64V61.75Zm3.89-14.53h0V57.86h10.86V47.23H266V38.86h-7.64v-35H246.36l-29.74,33V47.23m30.82-8.37H224.8L247.44,14M233.61,35h9.95V24L233.62,35Z" fill="#fff"/><path d="M316.61,61.75l-3-9.39H295l-3,9.39H268.56L293,1h23.16l24.45,60.78Zm-.21-13.29,3,9.39h15.4l-21.24-53h-17.9l-21.32,53h14.9l3-9.39H315v2l-1.85.6,1.85-.6v-2Zm-2.63-8.41H295l9.33-28.66m-4,24.77h8l-4-12.24Z" fill="#fff"/><path d="M34.56,86.13l4,.4a7.62,7.62,0,0,1-3.36,5,11.71,11.71,0,0,1-6.64,1.8,12,12,0,0,1-8-2.49,8.75,8.75,0,0,1-3-7.12,10.31,10.31,0,0,1,1.29-5.24,8,8,0,0,1,3.92-3.38A14.36,14.36,0,0,1,28.56,74,12.21,12.21,0,0,1,35,75.5a6.85,6.85,0,0,1,3.19,4.33l-4,.48a5,5,0,0,0-2-2.81,6.19,6.19,0,0,0-3.48-.94,7.23,7.23,0,0,0-5,1.7Q21.75,80,21.75,83.63t1.86,5.43a6.93,6.93,0,0,0,4.88,1.69,6.76,6.76,0,0,0,4-1.14A5.2,5.2,0,0,0,34.56,86.13Z" fill="#fff"/><path d="M40.5,83.65c0-3.43,1.24-6,3.71-7.61A13.29,13.29,0,0,1,51.77,74a12.6,12.6,0,0,1,8.1,2.5A8.37,8.37,0,0,1,63,83.39,9.81,9.81,0,0,1,61.62,89a9,9,0,0,1-4.06,3.18,14.63,14.63,0,0,1-5.8,1.14,12.59,12.59,0,0,1-8.16-2.5A8.64,8.64,0,0,1,40.5,83.65Zm4.19,0a6.74,6.74,0,0,0,2,5.33A8.1,8.1,0,0,0,56.8,89a6.88,6.88,0,0,0,2-5.42,6.56,6.56,0,0,0-2-5.21,8.12,8.12,0,0,0-10.1,0A6.69,6.69,0,0,0,44.69,83.65Z" fill="#fff"/><path d="M67.78,92.91V74.4h3.65V77a8,8,0,0,1,3-2.18A10.26,10.26,0,0,1,78.7,74a9.71,9.71,0,0,1,4.38.85,5,5,0,0,1,2.41,2.39A9.43,9.43,0,0,1,92.91,74a8.74,8.74,0,0,1,5.5,1.52,5.64,5.64,0,0,1,1.92,4.7V92.91h-4V81.25a6.6,6.6,0,0,0-.4-2.71A2.91,2.91,0,0,0,94.5,77.2a5.61,5.61,0,0,0-2.45-.5,6.59,6.59,0,0,0-4.2,1.3,4.92,4.92,0,0,0-1.68,4.15V92.91H82.06v-12a3.67,3.67,0,0,0-4.25-4.16,7.26,7.26,0,0,0-3.18.69,4.43,4.43,0,0,0-2.12,2,9,9,0,0,0-.65,3.87v9.61Z" fill="#fff"/><path d="M106.38,100V74.4h3.71v2.4a8.68,8.68,0,0,1,3-2.12,10.11,10.11,0,0,1,4-.7,11.64,11.64,0,0,1,5.43,1.22,8.25,8.25,0,0,1,3.55,3.44,10.09,10.09,0,0,1,1.2,4.87,9.87,9.87,0,0,1-1.33,5.12,8.58,8.58,0,0,1-3.84,3.48,12,12,0,0,1-5.31,1.22,9.49,9.49,0,0,1-3.65-.67A8.2,8.2,0,0,1,110.48,91v9Zm3.69-16.25q0,3.57,1.87,5.28a6.54,6.54,0,0,0,4.55,1.72A6.66,6.66,0,0,0,121.14,89c1.29-1.18,1.94-3,1.93-5.48a6.92,6.92,0,0,0-1.88-5.3,6.39,6.39,0,0,0-4.52-1.76,6.5,6.5,0,0,0-4.6,1.87A7.08,7.08,0,0,0,110.07,83.75Z" fill="#fff"/><path d="M147.89,92.91V90.19a9.69,9.69,0,0,1-7.62,3.14,12.35,12.35,0,0,1-4-.63,6.8,6.8,0,0,1-2.71-1.58,5.3,5.3,0,0,1-1.26-2.37,13,13,0,0,1-.24-2.92V74.4h4.07V84.66a13.62,13.62,0,0,0,.25,3.31A3.32,3.32,0,0,0,138,90a6.05,6.05,0,0,0,3.07.7,8.33,8.33,0,0,0,3.44-.72,4.57,4.57,0,0,0,2.27-2,7.79,7.79,0,0,0,.67-3.62V74.4h4.1V92.91Z" fill="#fff"/><path d="M166.8,90.1l.59,2.77a18.54,18.54,0,0,1-3.07.28,8.77,8.77,0,0,1-3.44-.54,3.47,3.47,0,0,1-1.72-1.42,8.79,8.79,0,0,1-.5-3.7V76.84h-3V74.4h3V69.81l4-1.88V74.4h4.09v2.44h-4.09V87.66a4.43,4.43,0,0,0,.21,1.73,1.56,1.56,0,0,0,.71.61,3.3,3.3,0,0,0,1.39.22Q165.89,90.2,166.8,90.1Z" fill="#fff"/><path d="M187.23,87l4.21.4a8,8,0,0,1-3.69,4.4,13.56,13.56,0,0,1-6.87,1.57c-3.52,0-6.3-.84-8.36-2.51a8.5,8.5,0,0,1-3.09-7,8.88,8.88,0,0,1,3.13-7.25,12.28,12.28,0,0,1,8.1-2.58,11.92,11.92,0,0,1,7.9,2.53,8.69,8.69,0,0,1,3,7.11v.83H173.64a6.27,6.27,0,0,0,2.24,4.68,7.73,7.73,0,0,0,5,1.62,7.59,7.59,0,0,0,3.82-.91A6.19,6.19,0,0,0,187.23,87Zm-13.37-5.08h13.42a5.48,5.48,0,0,0-1.54-3.5,7.08,7.08,0,0,0-5-1.81A7.6,7.6,0,0,0,176,78,5.2,5.2,0,0,0,173.86,81.87Z" fill="#fff"/><path d="M196.56,92.91V74.4h3.66v2.8a8.42,8.42,0,0,1,2.59-2.59,5.57,5.57,0,0,1,2.62-.63,9.77,9.77,0,0,1,4.18,1l-1.4,2.91a7.23,7.23,0,0,0-3-.68,4.66,4.66,0,0,0-2.39.62,3.4,3.4,0,0,0-1.52,1.72,9.74,9.74,0,0,0-.68,3.66V92.9Z" fill="#fff"/></g></svg>