<svg id="Layer_1" data-name="Layer 1" xmlns="http://www.w3.org/2000/svg" width="504.55" height="75.07" viewBox="0 0 504.55 75.07"><path d="M196.76,47.05A3.93,3.93,0,1,0,200.69,51,3.92,3.92,0,0,0,196.76,47.05Zm-136.7,0A3.93,3.93,0,1,0,64,51,3.93,3.93,0,0,0,60.06,47.05ZM82.84,51a3.93,3.93,0,1,0,3.93-3.93A3.93,3.93,0,0,0,82.84,51Zm40.07-3.93A3.93,3.93,0,1,0,126.84,51,3.93,3.93,0,0,0,122.91,47.05ZM260.75,9.34H16.5A7.51,7.51,0,0,0,9,16.85V75.69a7.5,7.5,0,0,0,7.51,7.5H260.75a7.5,7.5,0,0,0,7.51-7.5V16.85a7.51,7.51,0,0,0-7.51-7.51ZM42,59.62l-4.72-7.85v7.85H27.85V29.77H42c4.71,0,9.43,3.14,9.43,9.43s-4.72,7.85-6.29,7.85L53,59.62Zm15.71,0c-3.14,0-6.28-3.14-6.28-7.85A6.07,6.07,0,0,1,57.7,45.5c.58,0,2.68,0,3.15,0,3.14,0,1.57-3.14,0-3.14H54.56V36.05H67.13c3.14,0,4.32,3.15,4.32,6.29s.39,17.28.39,17.28Zm40.86,0H86c-9.43,0-11-7.85-11-12.57,0-2.89,1.57-11,11-11h3.14V29.77h9.43V59.62Zm11,0H101.7V36.05h7.86Zm13.35,0A11.79,11.79,0,1,1,134.7,47.84,11.77,11.77,0,0,1,122.91,59.62ZM163,39.2q-4.71,0-4.71,4.71v6.28c0,6.29-1.57,9.43-14.15,9.43V50.19c3.15,0,6.29,0,6.29-4.71V37.62c0-3.14,1.57-7.85,12.57-7.85Zm23.57,20.42h-9.43V45.48c0-1.57-3.14-1.57-3.14,0V59.62h-7.86V29.77H174v7.85c3.14-3.14,12.57-1.57,12.57,4.72Zm7.86,0c-3.15,0-6.29-3.14-6.29-7.85,0-5.36,4.72-6.29,6.29-6.27.57,0,2.67,0,3.14,0,3.14,0,1.57-3.14,0-3.14h-6.29V36.05h12.57c3.15,0,4.33,3.15,4.33,6.29s.39,17.28.39,17.28Zm39.21-10.5h-8.26a3.93,3.93,0,1,0,0,3.69h7.21a11.8,11.8,0,1,1,1.09-5,10.86,10.86,0,0,1-.07,1.28Zm12.64,10.5-3.14-9.43h-1.57v9.43h-6.29V29.77h6.29V42.34h1.57l3.14-4.72h7.86l-4.72,7.86,6.29,14.14ZM38.06,40.77A3.93,3.93,0,1,0,42,44.69,3.93,3.93,0,0,0,38.06,40.77Z" transform="translate(-8.99 -9.34)" fill="#fff"/><path d="M287.71,54.19h70.71V69.9H287.71Z" transform="translate(-8.99 -9.34)" fill="#fff"/><path d="M364.71,54.19h70.71V69.9H364.71Z" transform="translate(-8.99 -9.34)" fill="#fff"/><path d="M441.7,54.19h70.71V69.9H441.7Z" transform="translate(-8.99 -9.34)" fill="#fff"/><path d="M326.82,23.43h23V28h-9.21V44.15H336V28h-9.21Z" transform="translate(-8.99 -9.34)" fill="#fff"/><path d="M360.14,36.09v8.06h-4.61V23.43h16.12q6.9,0,6.9,6.31a7.7,7.7,0,0,1-1,4.39,8.14,8.14,0,0,1,1,4.26v5.76H374V38.39a2,2,0,0,0-2.3-2.3Zm0-4.6H374V28H360.14Z" transform="translate(-8.99 -9.34)" fill="#fff"/><path d="M412.44,36.09V32.64h7.95v3.45Z" transform="translate(-8.99 -9.34)" fill="#fff"/><path d="M448.44,28H430.16v3.45h11.51q6.91,0,6.91,6.33t-6.91,6.33h-9.2q-5.85,0-6.75-4.61H444V36.09h-11.5q-6.92,0-6.91-6.24,0-6.42,6.91-6.42h9.2Q447.57,23.43,448.44,28Zm-22.72,11.5a9.24,9.24,0,0,1-.16-1.81,6.66,6.66,0,0,1,1.06-3.94q1.65,2.3,5.85,2.3h-2.31v3.45Zm21.78-5.75a6.82,6.82,0,0,0,1.08-4,10.54,10.54,0,0,0-.14-1.73H444v3.46h-2.3Q445.84,31.49,447.5,33.79Z" transform="translate(-8.99 -9.34)" fill="#fff"/><path d="M452.29,37.24v-6.9q0-6.91,6.91-6.91h6.9q6.91,0,6.91,6.91v6.9q0,6.91-6.91,6.91h-6.9Q452.3,44.15,452.29,37.24Zm13.81,2.3a2,2,0,0,0,2.31-2.3v-6.9A2,2,0,0,0,466.1,28h-6.9a2,2,0,0,0-2.3,2.31v6.9a2,2,0,0,0,2.3,2.3Z" transform="translate(-8.99 -9.34)" fill="#fff"/><path d="M383.42,37.27h5.94c0,1.49.84,2.51,2,2.51h10.7c.84,0,1.12-.61,1.12-1.44s.37-2.65-1.3-2.65H388.81a5.65,5.65,0,0,1-5.44-5.9c0-4.55,3-6.22,5.07-6.22h15.78c1.91,0,3.67.89,3.67,5.76h-5.62c0-1.07-.56-1.82-2.51-1.82h-8.38c-1.39,0-1.9.1-1.9,2.28s1.25,2,2.18,2h13.26c2.27,0,4.41,2.31,4.41,5.89s-1.72,6.62-5.39,6.62H388.2c-1.85,0-4.78-.91-4.78-7Z" transform="translate(-8.99 -9.34)" fill="#fff"/><path d="M84,52.2a3.93,3.93,0,1,0,3.93-3.93A3.93,3.93,0,0,0,84,52.2Zm40.07-3.93A3.93,3.93,0,1,0,128,52.2,3.93,3.93,0,0,0,124.05,48.27Zm73.85,0a3.93,3.93,0,1,0,3.93,3.93A3.93,3.93,0,0,0,197.9,48.27ZM39.2,42a3.93,3.93,0,1,0,3.92,3.93A3.93,3.93,0,0,0,39.2,42Zm22,6.28a3.93,3.93,0,1,0,3.93,3.93A3.92,3.92,0,0,0,61.19,48.27Zm200.7-37.71H17.63a7.5,7.5,0,0,0-7.5,7.51V76.91a7.5,7.5,0,0,0,7.5,7.5H261.89a7.5,7.5,0,0,0,7.5-7.5V18.07A7.5,7.5,0,0,0,261.89,10.56ZM43.12,60.84,38.41,53v7.85H29V31H43.12c4.72,0,9.43,3.14,9.43,9.43s-4.71,7.85-6.28,7.85l7.85,12.57Zm15.72,0c-3.15,0-6.29-3.14-6.29-7.85,0-5.36,4.72-6.29,6.29-6.27.57,0,2.67,0,3.14,0,3.14,0,1.57-3.14,0-3.14H55.69V37.28H68.27c3.14,0,4.32,3.14,4.32,6.28S73,60.84,73,60.84Zm40.85,0H87.12c-9.43,0-11-7.85-11-12.57,0-2.89,1.57-11,11-11h3.14V31h9.43Zm11,0h-7.86V37.27h7.86Zm13.36,0a11.79,11.79,0,1,1,11.78-11.78A11.78,11.78,0,0,1,124.05,60.84Zm40.07-20.42q-4.73,0-4.72,4.71v6.29c0,6.28-1.57,9.42-14.14,9.42V51.42c3.14,0,6.28,0,6.28-4.72V38.85c0-3.15,1.58-7.86,12.58-7.86Zm23.57,20.42h-9.43V46.7c0-1.57-3.15-1.57-3.15,0V60.84h-7.85V31h7.85v7.86c3.15-3.15,12.58-1.58,12.58,4.71Zm7.85,0c-3.14,0-6.28-3.14-6.28-7.85a6.07,6.07,0,0,1,6.28-6.27c.57,0,2.68,0,3.14,0,3.15,0,1.58-3.14,0-3.14H192.4V37.28H205c3.14,0,4.32,3.14,4.32,6.28s.39,17.28.39,17.28Zm39.22-10.5h-8.27a3.93,3.93,0,1,0,0,3.69h7.21a11.8,11.8,0,1,1,1.09-5c0,.43,0,.86-.06,1.28Zm12.64,10.5-3.15-9.42h-1.57v9.42H236.4V31h6.28V43.56h1.57l3.15-4.71h7.85l-4.71,7.85,6.28,14.14Z" transform="translate(-8.99 -9.34)" fill="#fff"/><path d="M288.85,55.41h70.71V71.12H288.85Z" transform="translate(-8.99 -9.34)" fill="#fff"/><path d="M365.84,55.41h70.71V71.12H365.84Z" transform="translate(-8.99 -9.34)" fill="#fff"/><path d="M442.84,55.41h70.7V71.12h-70.7Z" transform="translate(-8.99 -9.34)" fill="#fff"/><path d="M328,24.65h23v4.61h-9.2V45.37h-4.61V29.26H328Z" transform="translate(-8.99 -9.34)" fill="#fff"/><path d="M361.27,37.31v8.06h-4.6V24.65h16.11q6.9,0,6.91,6.31a7.74,7.74,0,0,1-1,4.4,8.13,8.13,0,0,1,1,4.25v5.76h-4.61V39.61a2,2,0,0,0-2.3-2.3Zm0-4.6h13.81V29.26H361.27Z" transform="translate(-8.99 -9.34)" fill="#fff"/><path d="M413.57,37.31V33.86h7.95v3.45Z" transform="translate(-8.99 -9.34)" fill="#fff"/><path d="M449.57,29.26H431.3v3.45h11.51q6.9,0,6.9,6.33t-6.9,6.33H433.6c-3.9,0-6.14-1.53-6.74-4.6h18.25V37.31H433.6q-6.9,0-6.9-6.23,0-6.43,6.9-6.43h9.21q5.9,0,6.76,4.61ZM426.86,40.77A9.41,9.41,0,0,1,426.7,39,6.73,6.73,0,0,1,427.75,35c1.11,1.54,3.06,2.3,5.85,2.3h-2.3v3.46ZM448.63,35a6.8,6.8,0,0,0,1.08-4,9.36,9.36,0,0,0-.14-1.72h-4.46v3.45h-2.3C445.58,32.71,447.53,33.48,448.63,35Z" transform="translate(-8.99 -9.34)" fill="#fff"/><path d="M453.43,38.46v-6.9q0-6.9,6.9-6.91h6.91q6.9,0,6.91,6.91v6.9q0,6.91-6.91,6.91h-6.91Q453.43,45.37,453.43,38.46Zm13.81,2.31a2,2,0,0,0,2.3-2.31v-6.9a2,2,0,0,0-2.3-2.3h-6.91a2,2,0,0,0-2.3,2.3v6.9a2,2,0,0,0,2.3,2.31Z" transform="translate(-8.99 -9.34)" fill="#fff"/><path d="M384.56,38.49h5.94c0,1.49.83,2.51,2,2.51h10.7c.83,0,1.11-.6,1.11-1.44s.37-2.65-1.3-2.65H389.94A5.65,5.65,0,0,1,384.51,31c0-4.55,3-6.22,5.06-6.22h15.79c1.9,0,3.66.88,3.66,5.75h-5.61c0-1.07-.56-1.82-2.51-1.82h-8.38c-1.4,0-1.91.1-1.91,2.29s1.26,2,2.19,2h13.25c2.28,0,4.41,2.31,4.41,5.89s-1.71,6.62-5.38,6.62H389.34c-1.86,0-4.78-.91-4.78-7Z" transform="translate(-8.99 -9.34)" fill="#fff"/><path d="M83.54,51.68a3.93,3.93,0,1,0,3.93-3.93A3.93,3.93,0,0,0,83.54,51.68Zm113.92-3.93a3.93,3.93,0,1,0,3.93,3.93A3.93,3.93,0,0,0,197.46,47.75Zm-136.7,0a3.93,3.93,0,1,0,3.93,3.93A3.93,3.93,0,0,0,60.76,47.75ZM261.45,10H17.2a7.51,7.51,0,0,0-7.51,7.51V76.38a7.51,7.51,0,0,0,7.51,7.51H261.45A7.51,7.51,0,0,0,269,76.38V17.55A7.51,7.51,0,0,0,261.45,10ZM42.69,60.32,38,52.46v7.86H28.55V30.47H42.69c4.71,0,9.42,3.14,9.42,9.42s-4.71,7.86-6.28,7.86l7.86,12.57Zm15.71,0c-3.14,0-6.28-3.14-6.28-7.86,0-5.35,4.71-6.28,6.28-6.26.57,0,2.68,0,3.14,0,3.15,0,1.57-3.14,0-3.14H55.26V36.75H67.83c3.14,0,4.32,3.14,4.32,6.29s.39,17.28.39,17.28Zm40.86,0H86.68c-9.42,0-11-7.86-11-12.57,0-2.89,1.57-11,11-11h3.15V30.47h9.43V60.32Zm11,0H102.4V36.75h7.85Zm13.36,0A11.79,11.79,0,1,1,135.4,48.54,11.77,11.77,0,0,1,123.61,60.32Zm40.07-20.43c-3.14,0-4.72,1.58-4.72,4.72v6.28c0,6.29-1.57,9.43-14.14,9.43V50.89c3.15,0,6.29,0,6.29-4.71V38.32c0-3.14,1.57-7.85,12.57-7.85Zm23.57,20.43h-9.43V46.18c0-1.57-3.14-1.57-3.14,0V60.32h-7.86V30.47h7.86v7.85c3.14-3.14,12.57-1.57,12.57,4.72Zm7.86,0c-3.15,0-6.29-3.14-6.29-7.86,0-5.35,4.71-6.28,6.29-6.26.57,0,2.67,0,3.14,0,3.14,0,1.57-3.14,0-3.14H192V36.75h12.57c3.15,0,4.32,3.14,4.32,6.29s.4,17.28.4,17.28Zm39.21-10.51h-8.26a3.93,3.93,0,1,0,0,3.69h7.21a11.8,11.8,0,1,1,1.09-5c0,.43,0,.85-.07,1.27ZM247,60.32l-3.14-9.43h-1.58v9.43H236V30.47h6.28V43h1.58L247,38.32h7.86l-4.72,7.86,6.29,14.14ZM38.76,41.47a3.93,3.93,0,1,0,3.93,3.92A3.92,3.92,0,0,0,38.76,41.47Zm84.85,6.28a3.93,3.93,0,1,0,3.93,3.93A3.93,3.93,0,0,0,123.61,47.75Z" transform="translate(-8.99 -9.34)" fill="#fff"/><path d="M288.41,54.89h70.71V70.6H288.41Z" transform="translate(-8.99 -9.34)" fill="#fff"/><path d="M365.4,54.89h70.71V70.6H365.4Z" transform="translate(-8.99 -9.34)" fill="#fff"/><path d="M442.4,54.89h70.71V70.6H442.4Z" transform="translate(-8.99 -9.34)" fill="#fff"/><path d="M327.52,24.13h23v4.6h-9.21V44.85h-4.61V28.73h-9.2Z" transform="translate(-8.99 -9.34)" fill="#fff"/><path d="M360.84,36.79v8.06h-4.61V24.13h16.11q6.92,0,6.91,6.31a7.7,7.7,0,0,1-1,4.39,8.14,8.14,0,0,1,1,4.26v5.76h-4.6V39.09a2,2,0,0,0-2.31-2.3Zm0-4.6h13.81V28.73H360.84Z" transform="translate(-8.99 -9.34)" fill="#fff"/><path d="M413.13,36.79V33.34h8v3.45Z" transform="translate(-8.99 -9.34)" fill="#fff"/><path d="M449.14,28.73H430.86v3.46h11.51q6.9,0,6.91,6.33t-6.91,6.33h-9.21q-5.84,0-6.74-4.61h18.25V36.79H433.16q-6.9,0-6.9-6.24,0-6.42,6.9-6.42h9.21c3.93,0,6.18,1.54,6.77,4.6ZM426.42,40.24a9.34,9.34,0,0,1-.16-1.82,6.64,6.64,0,0,1,1.06-3.93q1.65,2.3,5.84,2.3h-2.3v3.45Zm21.77-5.75a6.75,6.75,0,0,0,1.09-4,10.54,10.54,0,0,0-.14-1.73h-4.47v3.46h-2.3C445.15,32.19,447.09,33,448.19,34.49Z" transform="translate(-8.99 -9.34)" fill="#fff"/><path d="M453,37.94V31q0-6.91,6.91-6.91h6.9q6.92,0,6.91,6.91v6.9q0,6.9-6.91,6.91h-6.9Q453,44.85,453,37.94Zm13.81,2.3a2,2,0,0,0,2.3-2.3V31a2,2,0,0,0-2.3-2.31h-6.9A2,2,0,0,0,457.6,31v6.9a2,2,0,0,0,2.3,2.3Z" transform="translate(-8.99 -9.34)" fill="#fff"/><path d="M384.12,38h5.94c0,1.48.84,2.51,2,2.51h10.7c.84,0,1.12-.61,1.12-1.44s.37-2.65-1.3-2.65H389.51a5.66,5.66,0,0,1-5.44-5.9c0-4.55,3-6.22,5.06-6.22h15.79c1.9,0,3.67.88,3.67,5.76H403c0-1.07-.56-1.82-2.51-1.82h-8.38c-1.39,0-1.9.1-1.9,2.28s1.25,2,2.18,2h13.26c2.27,0,4.41,2.31,4.41,5.89S408.31,45,404.64,45H388.9c-1.86,0-4.78-.9-4.78-7Z" transform="translate(-8.99 -9.34)" fill="#fff"/></svg>