<svg id="Layer_1" data-name="Layer 1" xmlns="http://www.w3.org/2000/svg" width="361.2" height="100" viewBox="0 0 361.2 100"><path d="M15.25,39l35.58,61h48.3L63.54,39Zm38,55.92L22.88,42.81H59.73L90.12,94.92Z" fill="#fff"/><path d="M0,100H44.48L28,71.7Zm10.17-3.81L26.48,79.67,36.85,96.19Z" fill="#fff"/><path d="M113.17,39H68.69l16.5,28.3ZM103,42.79,86.69,59.32,76.31,42.79Z" fill="#fff"/><path d="M149.51,63.15c-2.79-.46-7.08-.15-12.27-.24-2.13,0-7.81-.35-11.21,0a4,4,0,0,0-2.81,1.51l1.3-5.29A9.85,9.85,0,0,1,128,52.29c1.48-1.1,4.35-1.07,9.24-1.07h4.61c4.92,0,9.55-.09,10.68.89.54.38.67,1.43.72,2.62a20.7,20.7,0,0,1-.14,4.38h8a60.69,60.69,0,0,0,.72-8.72c-.17-3.53-1.8-5.89-4.92-7.07a18.89,18.89,0,0,0-8.79-1.78h-6.53a99.39,99.39,0,0,0-12.07.63A19,19,0,0,0,122,44.72c-3.72,2.37-5.28,6.36-6.12,11.46L111.41,79.5a34.68,34.68,0,0,0-.62,6.35c.26,3.6,1.46,6.19,3.61,7.75A14.43,14.43,0,0,0,121.11,96q5.1.38,10.22.24c4.17,0,8.38.31,11,0s5.53-.24,7.8-1.39c1.43-.78,2.67-3.12,3.71-4.46A16.71,16.71,0,0,0,156.29,86a39.2,39.2,0,0,0,1.55-5.3,42.1,42.1,0,0,0,1.07-8.8c-.13-2.72-.83-4.74-2.12-6.06C155.34,64.21,152.3,63.61,149.51,63.15Zm-.76,15.55c-.72,4.92-2.09,6.74-4.11,8a10.72,10.72,0,0,1-4.51,1.15c-1.89.21-13.12.21-15,0s-2.56-.08-3.34-.56c-.94-.86-1.52-.87-1.75-2.57,0-.8.15-2,.37-3.67a7.74,7.74,0,0,1,.43-2.33c.7-4.1,1.46-5.8,3.38-7.09,1.69-1.16,5.1-1.19,10.73-1.19h5.23c2.66,0,5-.27,6.68.3a3.47,3.47,0,0,1,2.56,3.37C149.48,75.36,149.26,76,148.75,78.7Z" fill="#fff"/><path d="M208.13,64.83a10.91,10.91,0,0,0,2.61-3.95,21.28,21.28,0,0,0,1.38-5.13,31.07,31.07,0,0,0,.33-5.1,8.78,8.78,0,0,0-1.38-5.18c-1-1.18-.85-2-2.14-2.51a21.27,21.27,0,0,0-4.53-1.11c-2-.21-6.63-.31-11.4-.31-3.47,0-10.25.1-12.72.3-4.83.34-5.78,1.45-8,3.31-3.69,3-5.76,7.06-6.25,15a38.76,38.76,0,0,0,.26,3.93A5,5,0,0,0,168.05,67c1,.85.72,1.06-.27,1.63a13,13,0,0,0-3.89,2.93,13.71,13.71,0,0,0-2.18,3.92c-.42,1.27-.55,3.18-1.08,5.55-.4,2.56-.64,3.26-.72,4.62.24,2.91,1.59,5.93,3,7.18a9.53,9.53,0,0,0,5.6,2.9,88.93,88.93,0,0,0,10.7.5h5.27a97.88,97.88,0,0,0,11.36-.57,18.66,18.66,0,0,0,6.54-2c2-1.06,2.64-2.48,3.77-4.46s1.36-3.45,2.09-6.8c.06-.31,0-1,.17-2a33.5,33.5,0,0,0,0-4.25c-.09-3.65-.09-6.82-3.37-8.17h0l.12,0C207,67.31,206.79,66.28,208.13,64.83Zm-8.87,16.64a17.34,17.34,0,0,1-1.55,5c-.7,1.25-1.93,1.39-3,1.87-2.35.88-5.74.58-10.08.58-4.17,0-8.33-.09-9.92-.26A12.1,12.1,0,0,1,170,87.27c-1-.47-1.34-1.28-1.5-2.67a31.89,31.89,0,0,1,.45-3.9,22.33,22.33,0,0,1,1.74-5.29,5.43,5.43,0,0,1,2.58-2.62,13.61,13.61,0,0,1,4.47-1.16c1.82-.21,5.26-.19,8.63-.19h0a69.25,69.25,0,0,1,8.88.33c1.86.3,3.06.75,3.59,1.35s1,2.81,1,4A18.78,18.78,0,0,1,199.26,81.47Zm4.38-25.11a14.27,14.27,0,0,1-1.54,4.57,4.88,4.88,0,0,1-2.36,2.44c-2.16.93-6.29,1.05-11.81,1.05-6.17,0-10.92-.08-12.27-.94a3.84,3.84,0,0,1-1.31-2.81c.17-2.27.35-4.08.57-5.43a10.19,10.19,0,0,1,1.47-3.87c.78-1.23,1.85-1.18,3.57-1.66s6.53-.71,11.77-.71c3.12,0,5.54.07,7.26.23a10.09,10.09,0,0,1,3.82.91A2.73,2.73,0,0,1,204,52.69,18.11,18.11,0,0,1,203.64,56.36Z" fill="#fff"/><path d="M259,44.88a10.83,10.83,0,0,0-4-2.1,26.79,26.79,0,0,0-5.48-1q-3.12-.27-7-.27-5.19,0-8.74.3a26,26,0,0,0-6.35,1.27,12.15,12.15,0,0,0-4.5,2.62,17.63,17.63,0,0,0-4.66,6.56,43.3,43.3,0,0,0-2.56,8.8L212.77,76.2a60.42,60.42,0,0,0-.89,8.16c.22,3.46-.07,6,1.51,7.76a10.65,10.65,0,0,0,6.09,3.17,71.67,71.67,0,0,0,12.59.9,109.59,109.59,0,0,0,11.17-.5,19,19,0,0,0,7-2.09c4.74-2.71,6.64-8.37,8.23-17l2.93-15.18a58.57,58.57,0,0,0,.71-8C262,49.52,261,46.68,259,44.88Zm-5.25,15.69-3,15.92c-1.14,5.43-2.26,8-4.2,9.79A8.73,8.73,0,0,1,241.87,88a84.41,84.41,0,0,1-9.27.37c-3.42,0-5.88-.07-7.36-.21a10,10,0,0,1-3.67-1,4.14,4.14,0,0,1-1.7-1.59,7.44,7.44,0,0,1-.72-3.14c.09-1.6.32-2.41.69-5l3.25-17.26a18,18,0,0,1,1.79-5A10.64,10.64,0,0,1,226.94,52a7.39,7.39,0,0,1,2.33-1.52,14.22,14.22,0,0,1,4-.86c1.56-.14,4.15-.2,7.77-.2h0q5.91,0,8.36.27A7.87,7.87,0,0,1,253.24,51c.94.67,1,1.81,1.07,4A33.32,33.32,0,0,1,253.71,60.57Z" fill="#fff"/><path d="M308.53,44.88a11,11,0,0,0-4-2.1,26.91,26.91,0,0,0-5.48-1c-2.09-.18-4.43-.27-7-.27q-5.19,0-8.74.3a25.85,25.85,0,0,0-6.34,1.27,12.11,12.11,0,0,0-4.51,2.62,17.63,17.63,0,0,0-4.66,6.56,42.65,42.65,0,0,0-2.55,8.8L262.33,76.2a62.07,62.07,0,0,0-.89,8.16c.23,3.46-.07,6,1.51,7.76A10.68,10.68,0,0,0,269,95.29a71.74,71.74,0,0,0,12.59.9,109.59,109.59,0,0,0,11.17-.5,18.91,18.91,0,0,0,7-2.09c4.75-2.71,6.64-8.37,8.23-17l2.94-15.18a61.73,61.73,0,0,0,.71-8C311.55,49.52,310.51,46.68,308.53,44.88Zm-5.26,15.69-3,15.92c-1.14,5.43-2.26,8-4.2,9.79A8.7,8.7,0,0,1,291.44,88a84.6,84.6,0,0,1-9.28.37q-5.13,0-7.36-.21a9.92,9.92,0,0,1-3.66-1,4.23,4.23,0,0,1-1.71-1.59,7.59,7.59,0,0,1-.72-3.14c.09-1.6.32-2.41.69-5l3.26-17.26a17.42,17.42,0,0,1,1.79-5A10.61,10.61,0,0,1,276.5,52a7.39,7.39,0,0,1,2.33-1.52,14.22,14.22,0,0,1,4-.86c1.56-.14,4.15-.2,7.77-.2q5.91,0,8.36.27A7.84,7.84,0,0,1,302.8,51c.95.67,1,1.81,1.07,4A32.32,32.32,0,0,1,303.27,60.57Z" fill="#fff"/><path d="M358.09,44.88a10.83,10.83,0,0,0-4-2.1,26.91,26.91,0,0,0-5.48-1q-3.12-.27-7-.27-5.18,0-8.73.3a26,26,0,0,0-6.35,1.27A12.27,12.27,0,0,0,322,45.73a17.61,17.61,0,0,0-4.65,6.56,42.67,42.67,0,0,0-2.56,8.8L311.89,76.2a62.06,62.06,0,0,0-.88,8.16c.22,3.46-.07,6,1.5,7.76a10.7,10.7,0,0,0,6.1,3.17,71.63,71.63,0,0,0,12.58.9,109.59,109.59,0,0,0,11.17-.5,18.85,18.85,0,0,0,7-2.09c4.75-2.71,6.65-8.37,8.24-17l2.93-15.18a60.18,60.18,0,0,0,.71-8C361.11,49.52,360.07,46.68,358.09,44.88Zm-5.25,15.69-3,15.92c-1.15,5.43-2.26,8-4.2,9.79A8.76,8.76,0,0,1,341,88a84.5,84.5,0,0,1-9.28.37q-5.13,0-7.35-.21a9.92,9.92,0,0,1-3.67-1A4.23,4.23,0,0,1,319,85.61a7.59,7.59,0,0,1-.72-3.14c.09-1.6.32-2.41.7-5l3.25-17.26a17.73,17.73,0,0,1,1.79-5A10.61,10.61,0,0,1,326.06,52a7.62,7.62,0,0,1,2.33-1.52,14.29,14.29,0,0,1,4-.86c1.56-.14,4.15-.2,7.78-.2,3.94,0,6.72.09,8.36.27A7.77,7.77,0,0,1,352.37,51c.94.67,1,1.81,1.07,4A33.32,33.32,0,0,1,352.84,60.57Z" fill="#fff"/><polygon points="130.53 17.92 148.83 17.92 148.83 28.98 158.36 28.98 158.36 1.15 148.83 1.15 148.83 11.82 130.53 11.82 130.53 1.15 121 1.15 121 28.98 130.53 28.98 130.53 17.92" fill="#fff"/><path d="M170.43,22.88h18.95l3.68,6.1h11.05L187.34,1.15H176.28L159.51,29h7.24ZM179.9,7.16l6,10H173.87Z" fill="#fff"/><path d="M254.44,18.9a51.1,51.1,0,0,0,10.1.93c12.11,0,17.63-4.35,17.73-9.72C282.39,3.67,275.12,0,263,0c-3.15,0-4.25.14-8.58.39s-9.15.76-9.15.76V29h9.15Zm0-13.35s2.23-.26,4.24-.39,2.54-.11,4-.11c5.62,0,9,1.79,8.91,5.1,0,2.75-2.6,5-8.22,5a49.36,49.36,0,0,1-5.95-.48,12.13,12.13,0,0,1-3-.79Z" fill="#fff"/><path d="M214.41,5.55s2.23-.26,4.24-.39,2.54-.11,4-.11c5.62,0,9.35,1.79,9.29,5.1,0,2.75-3,4.22-8.6,4.22a42.07,42.07,0,0,1-5.49-.47c-.09,0-1.92,3-1.92,3L229.66,29h13.72L231.26,18.55c7.59-1.27,11.35-4.72,11.36-8.44C242.63,2.88,235.44-.14,223,0c-3.14,0-4.24.14-8.57.39s-9.15.76-9.15.76V29h9.15Z" fill="#fff"/><path d="M102.91,24.31C87.65,23.08,82.2,18.8,82.2,18.8l-3.31,6.86s7.36,4.6,22.66,4.46,17.42-3.77,17.7-8.66c.35-6.09-8.16-8.49-8.16-8.49s-4.67-1-9.53-1.72c-5.58-.8-11.39-1.7-10.66-3.9,0-.08,1.64-3.23,13.34-1A56,56,0,0,1,114.9,9.54s3.19-5.87,3-6.1S111.5-.14,98.89,0C79.34.23,79.44,8.39,79.44,8.39s-2,7.59,13.24,9.15c9.33,1,16,2.51,15.93,4.78S104.66,24.46,102.91,24.31Z" fill="#fff"/></svg>