<?xml version="1.0" encoding="utf-8"?>
<!-- Generator: Adobe Illustrator 25.4.1, SVG Export Plug-In . SVG Version: 6.00 Build 0)  -->
<svg version="1.1" id="Layer_1" xmlns="http://www.w3.org/2000/svg" xmlns:xlink="http://www.w3.org/1999/xlink" x="0px" y="0px"
	 viewBox="0 0 678.9 100" style="enable-background:new 0 0 678.9 100;" xml:space="preserve">
<style type="text/css">
	.st0{fill:#FFFFFF;}
</style>
<g>
	<path class="st0" d="M241.6,81.3C241.6,81.3,241.6,81.3,241.6,81.3l0-58.8h-24.7c0,0-0.2,51.8-0.2,57c0,2,0.3,4.1,0.9,6
		c2.1,7.3,8.5,12.5,16.1,13c0.6,0.1,1.3,0.1,1.9,0.1h22.8V87.5h-10.1C244.7,87.6,241.7,84.9,241.6,81.3z"/>
	<path class="st0" d="M284.6,81.2C284.6,81.2,284.6,81.2,284.6,81.2c0-0.1,0-0.2,0-0.2V22.5h-24.3c0,0-0.2,51.8-0.2,57
		c-0.3,9.8,7.2,18.2,17,19c0.6,0.1,1.2,0.1,1.9,0.1h22.8V87.5h-10.5C287.7,87.6,284.7,84.8,284.6,81.2z"/>
	<path class="st0" d="M305.8,98.8h24.5V40.1H306C306,40.1,305.8,93.5,305.8,98.8z"/>
	<path class="st0" d="M305.8,35.3l24.5-0.1v-13L306,22.3C306,22.3,305.8,30.1,305.8,35.3z"/>
	<path class="st0" d="M160.3,32c-0.2,0.5-0.4,1.1-0.6,1.7c-0.8,2.5-1.1,5.2-1.1,7.8v37.3c0,11.4,6.1,19.5,16.4,19.5h36.7v-11h-21.9
		c-3.7-0.1-6.7-3.1-6.7-6.9c0,0,0,0,0,0V65.8h25.1v-11l-25.1-0.1L183.1,40c0-3.6,2.9-6.5,6.5-6.5h22.1V22.4H175
		C168.6,22.1,162.7,26,160.3,32z"/>
	<path class="st0" d="M0,98.8h24.5v-93l-24.3,0C0.2,5.8,0,93.5,0,98.8z"/>
	<path class="st0" d="M135.5,20.4V5.3L95.8,30.7v-8H83.2v35c0,0.9-1.6,2.5-3.1,0.3c0,0-16.8-24.1-22.9-31.4
		c-5.1-6.1-22.7-5.8-22.8,8.6c0,9.1,0,62.5,0,62.5H47V53.5c0-2.4,2.2-1.6,3.5-0.1c0.6,0.7,27.7,41.9,28.9,43.6
		c2.8,3.7,16.4,6.5,16.4-7.6c0-10.1,0-40,0-56.1h12.3c1.1,0.2,2.2,0.7,3,1.4c0,1.2-0.2,39.7-0.2,44.8c0.1,10.6,8.7,19.2,19.3,19.1
		h23.1V87.5h-10.5c-3.6,0.1-6.6-2.7-6.7-6.3V37.8c0-3.1,2.5-5.6,5.6-5.6c3.7,0,11.7-0.1,11.7-0.1v-9.5h-15.7
		C136.6,22.6,135.6,21.6,135.5,20.4z"/>
	<path class="st0" d="M399.9,0c0,0-18.5,71.3-19,72.9c-0.7,2.1-2.7,2.8-3.7,0.4c-1.3-2.6-15.4-50.7-15.4-50.7h-25.6
		c0,0,19.1,62.7,20,64.6c9.1,19.4,29.1,11.7,33.2-2.6C393.6,69.8,411.7,0,411.7,0H399.9z"/>
	<polygon class="st0" points="573.4,21.6 573.4,21.6 573.4,21.6 	"/>
	<path class="st0" d="M573.4,21.6c-11.2,0-22,4.6-29.7,12.7c-0.4,0.5-0.8,0.9-1.3,1.4c-9.5,11-11.8,26.5-6,39.9
		c0.3,0.6,0.5,1.2,0.8,1.7c4.9,9.8,13.7,17.1,24.2,20.3c0.6,0.2,1.3,0.3,1.9,0.5c3.3,0.8,6.6,1.2,10,1.2c22.2,0,40.2-17.4,40.2-38.9
		S595.6,21.6,573.4,21.6z M573.4,90.3c-2.3,0-4.5-0.8-6.3-2.3c-0.2-0.2-0.4-0.4-0.6-0.6c-0.6-0.7-1.2-1.4-1.7-2.2
		c-0.2-0.3-0.4-0.5-0.5-0.8c-3.1-5.4-4.4-14.1-4.4-23.9c0-1,0-2,0-3c0.2-9,1.2-16.8,4.3-21.7c0.2-0.3,0.3-0.5,0.5-0.8
		c2-2.8,5.3-4.5,8.8-4.3l0.1-0.1c9.7,0,13.5,13.3,13.5,29.8S582.4,90.3,573.4,90.3z"/>
	<path class="st0" d="M503.7,35.3l24.5-0.1v-13l-24.3,0.1C503.8,22.3,503.7,30.1,503.7,35.3z"/>
	<path class="st0" d="M666.3,22.7v35c0,0.9-1.6,2.5-3.1,0.3c0,0-16.8-24.1-22.9-31.4c-5.1-6.1-22.8-5.8-22.8,8.6
		c0,9.1,0,62.5,0,62.5h12.6V53.5c0-2.4,2.2-1.6,3.5-0.1c0.6,0.7,27.7,41.9,28.9,43.6c0.7,0.8,1.5,1.5,2.5,1.9
		c0.4,0.2,0.8,0.4,1.2,0.5c5,1.7,12.7,0.6,12.7-10c0-14.1,0-66.7,0-66.7L666.3,22.7z"/>
	<path class="st0" d="M503.7,98.8h24.5V40.1h-24.3C503.8,40.1,503.7,93.5,503.7,98.8z"/>
	<path class="st0" d="M409.9,98.8h24.5V40.1h-24.3C410.1,40.1,409.9,93.5,409.9,98.8z"/>
	<path class="st0" d="M409.9,35.3l24.5-0.1v-13l-24.3,0.1C410.1,22.3,409.9,30.1,409.9,35.3z"/>
	<path class="st0" d="M498,64.6c-2.5-11.7-11.7-14-26-17.7c0,0-7.6-2.4-7.6-6.9c0-2.6,1.5-4.9,3.9-5.9c0.2-0.1,0.5-0.2,0.7-0.3
		c1.2-0.4,2.5-0.6,3.8-0.6l17.8,0.1v-11h-24.4v-0.1c-14.7,0-26.2,10.5-26.2,25.5c0,15.4,17,20.4,26,21.3c5.7,0.6,11.1,4.5,11.1,10.1
		c-0.1,4.4-3.6,8-8,8.1l-26.3-0.1v11.1H472c0.5,0,0.9,0,1.4,0c14-0.5,25.2-12,25.3-26c0-2.1-0.1-4.1-0.4-6.2
		C498.2,65.5,498.1,65.1,498,64.6z"/>
</g>
</svg>
