<svg id="Pokémon_mini" data-name="Pokémon mini" xmlns="http://www.w3.org/2000/svg" width="733.24" height="100" viewBox="0 0 733.24 100"><path d="M36.82,12.55H0v87.3H20.72V69h16.1S57.65,67.31,57.65,50.4V33.49S57.51,12.55,36.82,12.55Zm0,24.39V44.3a7.21,7.21,0,0,1-5.08,7.37h-11V29.45h11A7.16,7.16,0,0,1,36.82,36.94Z" transform="translate(0 0)" fill="#fff"/><path d="M91,33.46l-1.25,0c-5.75,0-28.66,1.8-28.66,33C61.1,102.17,91,99.85,91,99.85s29.23-.31,29.23-33.37S91.38,33.49,91,33.46Zm0,47.76s-11.15.14-11.15-14.72C79.91,48.65,91,50.61,91,50.4h0s10.7-1.73,10.7,16.1C101.76,83,91.06,81.22,91.06,81.22Z" transform="translate(0 0)" fill="#fff"/><polygon points="162.17 33.42 147.74 57.89 147.74 7.43 128.99 7.43 128.99 99.92 147.74 99.92 147.74 68.99 162.23 99.92 182.25 99.92 162.23 62.78 182.25 33.42 162.17 33.42" fill="#fff"/><path d="M212.51,33.49c-22.1,0-27.14,16.82-27.14,33S195.12,99.85,214,99.85s20.59-3.79,20.59-3.79V84.89H211c-8.17,0-6.56-10.93-6.56-10.93h35.17V61.73S239.6,33.49,212.51,33.49Zm10.75,28.28H204.53V51.67s0-3.69,9.3-3.69,9.43,3.69,9.43,3.69Z" transform="translate(0 0)" fill="#fff"/><polygon points="227.72 10.34 219.42 0 194.04 16.27 193.72 16.44 193.67 16.44 200.75 26.45 227.72 10.34" fill="#fff"/><path d="M316.15,33.5c-14.64,0-16.94,7.67-17.31,10.1.09-2.43-.8-10.1-15.72-10.1-13.59,0-16.75,6.36-17.48,9.33.29-3,.07-9.33-7.26-9.33h-9.51V99.92h16.57V61.7s.69-10,9.18-10,8.51,10,8.51,10V99.92h15.66V61.7s.35-10,8.86-10,8.5,10.1,8.5,10.1V100h16.22V51.7S333.53,33.5,316.15,33.5Z" transform="translate(0 0)" fill="#fff"/><path d="M372.72,33.52h-1.31c-5.72,0-28.66,1.82-28.66,33,0,35.66,30,33.37,30,33.37s29.22-.31,29.22-33.37S373,33.55,372.72,33.52Zm0,47.75s-11.16.14-11.16-14.73c0-17.89,11.12-15.9,11.12-16.1h0s10.71-1.74,10.71,16.1C383.43,83.07,372.72,81.27,372.72,81.27Z" transform="translate(0 0)" fill="#fff"/><path d="M448.58,33.5C431.64,33.5,429,44.33,429,44.33s1.61-10.83-5.08-10.83H411V99.92H429V61.7s-.46-10,9.54-10,10,10,10,10V99.92H465.4V51.7S465.52,33.5,448.58,33.5Z" transform="translate(0 0)" fill="#fff"/><path d="M585.93,33.5H508.41a7.38,7.38,0,0,0-7.09,7.07V96.09a3.72,3.72,0,0,0,3.42,3.83h11.33a3.72,3.72,0,0,0,3.62-3.83V61.77c0-4.81,3.77-4.37,3.77-4.37H534c5.08,0,3.93,4.37,3.93,4.37V96.56a3.72,3.72,0,0,0,4,3.36h10.58c3.26,0,3.75-3.83,3.75-3.83V61.77c0-4.81,3.73-4.37,3.73-4.37h11.22c3.26,0,3.6,4.37,3.6,4.37V96.13h0a3.75,3.75,0,0,0,3.73,3.79H590.2a3.53,3.53,0,0,0,3.21-3.82V40.57C593.41,33.21,585.93,33.5,585.93,33.5Z" transform="translate(0 0)" fill="#fff"/><path d="M622.69,66.56c-.23.12-3.68,0-7.43,0a3.71,3.71,0,0,0-3.85,3.55v26a3.79,3.79,0,0,0,3.73,3.84h7.64c3.12,0,3.5-3.84,3.5-3.84v-26a1.88,1.88,0,0,0,0-.58v0A3.27,3.27,0,0,0,622.69,66.56Z" transform="translate(0 0)" fill="#fff"/><path d="M626.35,40.55v-.32h0a3.46,3.46,0,0,0-3.57-3.35h-7.64a3.69,3.69,0,0,0-3.64,3.69V51.7a.67.67,0,0,0,0,.2h0a3.67,3.67,0,0,0,3.84,3.5c.1,0,3.56,0,7.5,0a3.53,3.53,0,0,0,.65,0h.07a3.28,3.28,0,0,0,2.79-3.69Z" transform="translate(0 0)" fill="#fff"/><path d="M688.84,36.83h-36.7s-7.48,0-7.48,7.44.36,52.23,0,51.82a3.86,3.86,0,0,0,3.8,3.83h10.82a3.93,3.93,0,0,0,3.81-3.83V61.77s.11-4.37,3.67-4.37h11s3.78-.44,3.78,4.37V96.09a3.53,3.53,0,0,0,3.21,3.82h7.94a3.68,3.68,0,0,0,3.45-3.84V44.33S696.09,36.83,688.84,36.83Z" transform="translate(0 0)" fill="#fff"/><path d="M729.59,66.56c-.23.12-3.66,0-7.42,0a3.72,3.72,0,0,0-3.84,3.55v26a3.79,3.79,0,0,0,3.73,3.82h7.65c3.09,0,3.47-3.84,3.47-3.84v-26a2.81,2.81,0,0,0,0-.58v0A3.29,3.29,0,0,0,729.59,66.56Z" transform="translate(0 0)" fill="#fff"/><path d="M722.22,55.4c.12,0,3.62,0,7.5,0a3.64,3.64,0,0,0,.66,0,3.3,3.3,0,0,0,2.83-3.69V40.18a3.43,3.43,0,0,0-3.55-3.3H722a3.67,3.67,0,0,0-3.64,3.69V51.9h0A3.67,3.67,0,0,0,722.22,55.4Z" transform="translate(0 0)" fill="#fff"/></svg>