<?xml version="1.0" encoding="utf-8"?>
<!-- Generator: Adobe Illustrator 25.4.1, SVG Export Plug-In . SVG Version: 6.00 Build 0)  -->
<svg version="1.1" id="Capa_1" xmlns="http://www.w3.org/2000/svg" xmlns:xlink="http://www.w3.org/1999/xlink" x="0px" y="0px"
	 viewBox="0 0 1046.7 100" style="enable-background:new 0 0 1046.7 100;" xml:space="preserve">
<style type="text/css">
	.st0{fill:#FFFFFF;}
</style>
<g>
	<path class="st0" d="M435.9,0.5C400.2,0.3,364.4,0.4,328.8,1c-4.2,0.7-7.8,3.5-9.7,7.3c-8.3,27.1-15.6,54.5-23.6,81.6
		c-2,6.4-0.4,9.6,6.9,9.4c6.6-0.3,13.2-0.3,19.9,0c7.8,0.6,11.1-2.5,12.8-9.8c5-21.7,10.7-43.2,16-64.8c1.5-6.4,4-10.8,12.6-6.1
		C356,45,348.4,71.3,340.4,99.3c11.2,0,20-0.6,28.7,0c7.7,0.4,11.2-2.1,13-9.6c5.3-21.9,11.4-43.7,17.1-65.5
		c1.4-5.5,3.5-9.7,11.5-5.8c-0.9,3.7-1.6,7.4-2.7,11.2c-5.8,20-11.5,39.9-17.5,59.9c-2.1,7.1,0.2,10.2,7.5,9.9
		c7.3-0.3,14.8,0.5,22.1-0.3c3.3-0.3,8.2-3,8.9-5.7c7.2-25.5,13.9-51.1,20.2-76.9C451.6,5.8,447,0.5,435.9,0.5z"/>
	<path class="st0" d="M743.3,0.2c-10.1,0-18.9,0.5-27.6,0c-7.2-0.4-10.4,2.5-12.1,9.2c-5.3,21.5-11.4,43-16.7,64.5
		c-1.7,6.4-4.1,9.9-12.3,5.9C681.8,54,689,28.1,696.8,0.3c-10.9,0-19.3,0.6-27.6,0c-7.8-0.5-11.1,2.5-12.8,9.7
		c-5.2,21.1-11.2,42.1-16.8,63.4c-1.6,6.2-4,10.9-12.9,6.4c7.4-25.7,14.7-51.4,22.7-79.3c-12.5,0-22.9-0.4-33.1,0
		c-3.2,0.9-5.8,3.3-7,6.5c-7,24.5-13.9,49-20,73.7c-3.1,12.5,1.5,17.8,14.5,17.8c34.6,0.2,69.2-0.1,103.8,0.2
		c7.2,0.1,10.2-2.6,12-9.3c7-26.3,14.5-52.5,21.8-78.8C742.1,7.8,742.4,4.7,743.3,0.2z"/>
	<path class="st0" d="M296.7,0.5c-23.6-0.2-47.1-0.4-70.7,0c-3.6,0.6-6.7,2.9-8.2,6.2c-7.6,24.8-14.7,49.7-21.5,74.5
		c-3,11.1,2.5,17.5,13.9,17.8c11.4,0.3,22.8,0,34.2,0l0.2,0.2c11.4,0,22.8,0.4,34.2-0.3c3.1-0.2,8.2-2.9,8.9-5.3
		c7.4-26.2,14.3-52.6,20.7-79.1C310.4,6,306.2,0.5,296.7,0.5z M255.9,71.6c-1.9,9.8-1.2,9.9-11.7,10.3c-2.9,0.1-8.9,1.1-8.2-1.3
		c4.6-18.1,10.3-43.6,16.1-61c1.1-3.4,16.7-2.6,17.5-1.5C268.1,24.4,257.9,61.2,255.9,71.6z"/>
	<path class="st0" d="M919.7,0.5c-6.9-0.4-9.6,2.5-11.2,8.9c-5,20.9-11.7,51.1-17.4,71.9c-0.5,2.5-8,3.8-8.5-1.8
		c-2.4-21-4.2-50.1-6.8-71c-0.2-2.9,0-6.9-2.7-6.9c-9.7,0.3-17.5,0-29.1,0.3c-2.9,0.1-3.9,5-3.9,6.4c2.2,25.6,3.4,51.6,5.9,77.2
		c0.9,9.5,6.9,12.8,18.4,12.8c16.6,0,27.3-0.2,42.9-0.2c10.5,0,15.3-0.1,17.2-8.6c2.9-12.5,6.7-24.8,10.1-37.3
		c4.5-16.5,8.9-33.1,13.9-51.7C937.3,0.5,928.6,0.8,919.7,0.5z"/>
	<path class="st0" d="M573.2,36h-34.6c2.3-18.1,2.3-18.1,18.1-18.1h25.4c14.8,0,15.6-0.8,16-16c-0.9-0.5-1.9-0.9-3-1.1
		c-17.7-0.2-35.4-0.3-53-0.3c-32.9,0-32.9,0-40.7,30.7c-4,15.7-0.3,20.4,16.3,20.4h35c-2,5.9-3.6,11.9-5,18
		c-1.3,8.1-5.6,11.3-14.2,10.8c-11-0.7-22-0.2-33.1-0.2c-14,0-16.4,2.6-15,18.6c28.5,0,57.1,0.2,85.7-0.3c2.6,0,6.6-4.3,7.5-7.3
		c3.8-12.3,6.8-24.5,9.8-37.4S587.2,36,573.2,36z"/>
	<path class="st0" d="M214.5,1.5H107.4c0,27,22.2,11.4,33.4,18.6c-0.2,1.8-0.4,3.5-0.8,5.3c-5.4,18.2-10.8,36.4-16,54.6
		c-2.7,9.4,1.2,16.4,9.7,18.5c15.1,3.6,24.2,0.6,26.9-9.1c4.8-18,9.2-36.1,14.2-54c5.5-19.7,0.3-17.3,23.7-17.5
		C212.3,17.8,213.9,16.1,214.5,1.5z"/>
	<path class="st0" d="M499.5,0.5c-10.3,0-19.4,0.2-28.3,0c-6.4-0.2-9.1,2.4-10.7,8.2C454,33,446.9,57.1,440.2,81.3
		c-3.2,11.5,1.1,17.2,13.1,17.7c3.3-0.2,6.6-0.2,9.9,0c8.4,1.2,11.4-3,13.3-10.4c6.4-25.2,13.5-50.5,20.2-75.8
		C497.8,9.4,498.4,5.9,499.5,0.5z"/>
	<path class="st0" d="M103.4,11.3c-0.9-7.4-5.6-11.1-13.6-11.1c-17.7,0.2-35.4,0.4-53,0.2c-7.4-0.1-10,3-11.7,9.7
		c-6,22.9-12.6,45.6-19.1,68.4C4.4,84.4,2.4,91.5,0,99.2h38.7l6.5-24.9h27.6l1.8,25h37.7l-1.6-15C107.4,57.6,106.6,38,103.4,11.3z
		 M49.6,57.8l10.6-41.4h8.5l3.1,41.4H49.6z"/>
	<path class="st0" d="M837.2,84.2c-3.1-26.7-4-46.3-7.2-73.1C829,3.7,824.4,0,816.4,0c-17.7,0.2-35.3,0.4-53,0.2
		c-7.4-0.2-10,3-11.7,9.6c-6,22.9-12.6,45.7-19.1,68.4c-1.7,6.1-3.7,13.1-6.1,20.8h38.7l6.5-24.9h27.6l1.8,25h37.7L837.2,84.2
		L837.2,84.2z M776.2,57.8l10.7-41.4h8.5l3.1,41.4H776.2z"/>
	<path class="st0" d="M1045.3,0.7C1045.3,0.7,1045.3,0.7,1045.3,0.7c-0.2,0-0.4,0-0.6,0c-26.6,0-54.3-0.1-80.9,0.3
		c-2.2,0-5.7,4.2-6.5,7.1c-7.1,24.1-13.9,48.2-20.2,72.5c-3.2,12.1,1.4,17.8,14.2,17.8c19.8,0.2,49.4,0.1,70,0
		c1.3-0.1,2.5-0.9,3-2.2l2-11.1c0.4-1.3-0.2-2.7-1.5-3.1h-0.1c-0.3,0-0.6,0-0.8,0H975c1.6-5.4,2.9-10.9,4-16.4
		c1.1-8,5.3-10.1,13.3-10.2h33.7c1.7,0,3.1-1.2,3.3-2.8l2-14.6c0.1-1.1-0.7-2.1-1.8-2.2c0,0-0.1,0-0.1,0h-41
		c0.8-15.8,1.4-16.3,14.8-16.4h37.3c1.3,0,2.4-0.9,2.8-2.1l3.3-14.1C1046.9,2.2,1046.3,1.1,1045.3,0.7z"/>
</g>
</svg>
