<svg id="Layer_1" data-name="Layer 1" xmlns="http://www.w3.org/2000/svg" width="972.75" height="100" viewBox="0 0 972.75 100"><path d="M122.7,76.4s-11.45-19.12-11.51-19C102.08,44,92.86,38.1,77.32,38.1H40.89L28.16,21H87.42L77.2,1.82s-42.79-.7-63.39,0A13.18,13.18,0,0,0,1.38,20.87c-.14.13,18,24.8,18,24.8C27.31,54.29,33,56.82,51.43,57.34H86.79l12.45,19.2H41.57L60.84,99.75s49.76,0,50-.2c14.8,0,15.19-17.5,11.92-23Z" fill="#fff"/><path d="M184.31,21C177.13,6.67,174,2.87,152.39,1.82l-61.76,0L146.2,99.47h22.49L146.2,57.32s18.83.27,28.29-.35c16.4.35,22.39-4.4,17.6-18.73ZM135,38.14,127.2,21.06h32.17l7.55,17.08Z" fill="#fff"/><path d="M282.64,76.72s-26.88-.41-40.42-.2c-1.94-4.67-7.78-19.18-7.78-19.18H275l-5.27-19h-42l-7.78-17.23h43.53L258.19,1.71l-47.42.15c-11.77,0-18.62,12.06-16.42,19.34l24.26,55.63C226.17,91.3,233.37,97.28,247.2,99c15.56,1.94,42.35.48,42.35.48h0Z" fill="#fff"/><path d="M311.69,76.56,295.35,21.08h29.29L321,1.86s-18.75-.27-31,.24c-11.85.21-19.86,9-18,19.1,0-.14,16,55.32,16,55.13,5,12.27,15.27,23.18,29.49,23l25.29.17-4.26-23Z" fill="#fff"/><polygon points="381.66 1.96 325.75 1.86 329.49 21.04 347.91 21.04 363.64 99.47 382.45 99.47 369.79 21.04 384.17 21.04 381.66 1.96" fill="#fff"/><path d="M526,.34C514.25-.1,490.24,0,490.24,0l-4.05,95c-6.29-7.71-19.35-23.83-30-37.81l.1.08c8.73,0,18.94-10.15,18.85-18.26-.45-5.84-.39-12.32-1.07-18.06-1.95-12.33-15-18.94-24.81-19.14-20.07.43-60.51,0-60.51,0l12.72,97.61h21l-8.13-78.41h36.47L451,38.14h-9.2c-13.07,0-14.24,9.73-8.61,19,9.84,15.25,30.87,42.52,30.87,42.52h25.83l-.08-.1,17.55.16V76.5h29.53l-1.07,23.25h19.45s7.31-37.39,7.18-61.36C563.05,17.29,547.59,1.92,526,.34Zm-16.32,54.8-.62-34.06c21.4,0,29.63,4.67,30.29,17.08l0-.06.35,17.22Z" fill="#fff"/><path d="M636.78,1.86,604.39,70.28a13.63,13.63,0,0,1-13.46,6.24c4.14-26.16,13.38-74.66,13.38-74.66h-23s-15.41,92.89-15.41,97.89c0,0,25.17.37,35-2,12.16-2.84,19.78-12.25,28-29.55C649.54,24.56,660,1.86,660,1.86Z" fill="#fff"/><polygon points="667.14 1.96 638.96 99.75 663.88 99.63 693.62 1.86 667.14 1.96" fill="#fff"/><path d="M770.28,2.27C748.77,2,707.2,2.11,707.2,2.11V2l-31,97.79h51.9c15.36,0,33.83-23.46,33.83-23.46l26.8-55.52C794.83,7,785.22,2,770.28,2.27ZM739.76,76.52s-20.31-.19-30.46,0L726.69,21h34.68Z" fill="#fff"/><path d="M807,57.32h45.63l9.26-19.2h-45l9-17.08h48.23L883.88,1.8s-34.16-.72-53.84.59c-15.68,1.46-26.59,9.84-30.41,18.79L773.84,76.64c-7.16,14.78,2.3,22.39,10.54,22.58,15.22.45,44.12.27,44.12.27l11.52-23H797.75Z" fill="#fff"/><path d="M955.66,2.11S919,1.8,918.45,2.29l.06.06c-16.67.76-25.76,7.25-34.16,18.4-11.09,14.76-34.66,56.06-34.66,56.06-9.73,19,4.12,22.08,15.15,22.57.52.29,27.35.29,27.72,0,12.41-.27,15-1.27,21-4.77,3.07-1.71,9.73-8.93,17.51-18.24l40.21-55.31C976.73,13.49,966.3,1.76,955.66,2.11ZM907.54,76.52H874L910.3,21h36.51Z" fill="#fff"/></svg>