<svg id="Layer_1" data-name="Layer 1" xmlns="http://www.w3.org/2000/svg" width="598.2" height="100" viewBox="0 0 598.2 100"><path d="M19.7,20.44H0v79.3H39.4V60.1H99.24V.1L19.7,0Zm19.7-.24H59.6V40.44H39.4Z" transform="translate(0 0)" fill="#fff"/><polygon points="119.94 20.44 139.4 20.44 139.4 79.54 119.94 79.54 119.94 100 198.74 100 198.74 79.54 179.3 79.54 179.3 20.44 198.74 20.44 198.74 0 119.94 0 119.94 20.44" fill="#fff"/><polygon points="239.4 20.44 219.44 20.44 219.44 99.5 299 99.5 299 79.54 259.34 79.54 259.34 20.44 299 20.44 299 0 239.4 0 239.4 20.44" fill="#fff"/><path d="M339.14,20.44h-20v79.3h79.3v-20h20.44V0H339.14Zm19.8-.24h20.2V79.3h-20.2Z" transform="translate(0 0)" fill="#fff"/><rect x="438.9" y="40.14" width="39.4" height="19.7" fill="#fff"/><path d="M518.7,0V40.14h-20v59.6h99.5V0ZM578,79.54h-39.4v-20H578Zm0-39.64h-39.4v-20H578Z" transform="translate(0 0)" fill="#fff"/></svg>