<svg id="Layer_1" data-name="Layer 1" xmlns="http://www.w3.org/2000/svg" width="378.93" height="101.5" viewBox="0 0 378.93 101.5"><path d="M302.39,54.83q1.49-5.23,3.45-6.89a8.54,8.54,0,0,1,5.67-1.65l.54-1.53H284.72l-.46,1.53h0c2.92.19,4.76.58,5.53,1.15a2.84,2.84,0,0,1,1.16,2.4,19.66,19.66,0,0,1-.95,5L279.68,90.68q-1.57,5.35-3.51,6.95c-1.3,1.06-3.33,1.59-6.11,1.59l-.46,1.53h27.79l.41-1.53c-2.75,0-4.62-.44-5.61-1.15A2.71,2.71,0,0,1,291,95.75a23.09,23.09,0,0,1,1.12-5.07Z" fill="#fff" stroke="#fff" stroke-miterlimit="10" stroke-width="1.5"/><path d="M335.3,54.83q1.49-5.23,3.44-6.89a8.56,8.56,0,0,1,5.68-1.65l.54-1.53H317.62l-.45,1.53c2.92.19,4.76.58,5.53,1.15a2.84,2.84,0,0,1,1.16,2.4,19.66,19.66,0,0,1-.95,5L312.59,90.68Q311,96,309.08,97.63c-1.3,1.06-3.33,1.59-6.11,1.59l-.46,1.53H330.3l.41-1.53c-2.75,0-4.62-.44-5.61-1.15a2.69,2.69,0,0,1-1.16-2.32,22.53,22.53,0,0,1,1.12-5.07Z" fill="#fff" stroke="#fff" stroke-miterlimit="10" stroke-width="1.5"/><path d="M350.53,44.76l-.45,1.53c2.92.19,4.76.58,5.53,1.15a2.84,2.84,0,0,1,1.16,2.4,19.66,19.66,0,0,1-.95,5L345.5,90.68Q343.92,96,342,97.63t-6.12,1.59l-.45,1.53h27.79l.41-1.53c-2.75,0-4.62-.44-5.61-1.15a2.69,2.69,0,0,1-1.16-2.32A23.07,23.07,0,0,1,358,90.68l10.25-35.85q1.49-5.23,3.44-6.89a8.62,8.62,0,0,1,5.68-1.65l.54-1.53Z" fill="#fff" stroke="#fff" stroke-miterlimit="10" stroke-width="1.5"/><polygon points="67.59 63.74 37.98 93.35 23.18 63.74 10.85 63.74 0.98 100.75 13.31 100.75 18.25 81.01 28.11 100.75 45.38 100.75 62.65 83.48 57.72 100.75 70.05 100.75 79.92 63.74 67.59 63.74" fill="#fff" stroke="#fff" stroke-miterlimit="10" stroke-width="1.5"/><polygon points="102.13 63.74 72.52 100.75 84.86 100.75 107.06 73.61 114.46 85.95 99.66 85.95 94.72 93.35 119.4 93.35 124.33 100.75 139.13 100.75 116.93 63.74 102.13 63.74" fill="#fff" stroke="#fff" stroke-miterlimit="10" stroke-width="1.5"/><path d="M214.58,68.47q1-4.73-3.9-4.73H151.47l-9.87,37h12.34l7.91-29.6h39.47l-2,7.4h-33l24.67,22.2h14.8L188.47,86h17.27q4.11,0,5.76-4.94Z" fill="#fff" stroke="#fff" stroke-miterlimit="10" stroke-width="1.5"/><polygon points="279.76 63.74 260.02 63.74 227.43 84.15 232.88 63.74 220.55 63.74 210.68 100.75 223.01 100.75 227.18 85.23 247.68 100.75 267.42 100.75 243.78 84.71 279.76 63.74" fill="#fff" stroke="#fff" stroke-miterlimit="10" stroke-width="1.5"/><path d="M79.48,33.92l3.4-12.76q1.28-5.1-5.11-5.1H30.3l2.07-7.65h54L88,.75H26.74q-5.1,0-6.38,5.1L17,18.61q-1.28,5.12,4.67,5.11H69.11L67,31.37H13L11.43,39H72.67Q77.77,39,79.48,33.92Z" fill="#fff" stroke="#fff" stroke-miterlimit="10" stroke-width="1.5"/><path d="M88,39h62.31l1.49-7.66H97.66l2.07-7.65h45.35l1.59-7.66H101.75l2.07-7.65h54L159.43.75H98.19q-5.1,0-6.38,5.1L84.37,33.92C83.37,37.33,84.58,39,88,39Z" fill="#fff" stroke="#fff" stroke-miterlimit="10" stroke-width="1.5"/><path d="M159.43,39h58.7q3.62,0,5.31-4.89l4.89-18.08h-23l-1.6,7.66h11.8L213,31.37H169.11l6.17-23h56.56l1.6-7.66h-63.8q-5.1,0-6.38,5.1l-7.44,28.07Q154.34,39,159.43,39Z" fill="#fff" stroke="#fff" stroke-miterlimit="10" stroke-width="1.5"/><polygon points="238.54 39.03 261.51 10.96 269.16 23.72 253.85 23.72 248.75 31.37 274.27 31.37 279.37 39.03 294.68 39.03 271.71 0.75 256.4 0.75 225.78 39.03 238.54 39.03" fill="#fff" stroke="#fff" stroke-miterlimit="10" stroke-width="1.5"/></svg>