<svg id="Layer_1" data-name="Layer 1" xmlns="http://www.w3.org/2000/svg" width="204.12" height="100" viewBox="0 0 204.12 100"><path d="M9.15,41.28c.19.16.36.46.64.44,2.53,0,5.05,0,7.57,0,0-4.36,0-8.71,0-13.07l-3.11,0c0-4.87,0-9.73,0-14.6H24.59c0,3,0,5.91,0,8.88l13.12,0c0-4.11,0-8.22,0-12.34L28.53.28,9.36.32,0,11c0,7,0,14,.06,20.93C3,35.07,6.13,38.14,9.15,41.28Z" fill="#fff"/><path d="M52.9,72.27a.73.73,0,0,0,.68.31c2.39,0,4.78,0,7.18,0q0-6.67,0-13.37c-1.31,0-2.61,0-3.92,0Q56.75,29.7,56.7.23L42.61.26q0,30.89.12,61.78Z" fill="#fff"/><path d="M64.35,72.54l7.49,0c3.4-3.51,6.89-7,10.25-10.5C82.11,41.41,82,20.8,82,.19L67.92.21q.06,29.49.11,59H64.34Q64.34,65.88,64.35,72.54Z" fill="#fff"/><rect x="86.64" y="0.17" width="14.08" height="72.32" transform="translate(-0.06 0.16) rotate(-0.1)" fill="#fff"/><path d="M110.58,13.84l0,20.36h-6.1l0,13.71,10.06,0c3.4-3.41,6.85-6.76,10.24-10.17l0-27.46c-3.41-3.4-6.87-6.74-10.28-10.13H104.46l0,13.7Z" fill="#fff"/><polygon points="160.54 72.37 160.51 58.67 143.58 58.7 143.5 13.79 160.44 13.76 160.41 0.05 129.4 0.11 129.52 72.42 160.54 72.37" fill="#fff"/><rect x="165.23" y="0.03" width="14.09" height="72.32" transform="translate(-0.06 0.3) rotate(-0.1)" fill="#fff"/><path d="M204.05,44.92c-2.78-2.9-5.7-5.68-8.52-8.55l8.52-9c0-5.65,0-11.3,0-16.95L193.69,0l-11,0,0,13.7h7l0,16h-7.05l0,13.71,7,0,0,28.93,14.27,0C204.09,63.17,204.12,54.05,204.05,44.92Z" fill="#fff"/><rect x="147.34" y="27.47" width="10.28" height="13.7" transform="translate(-0.06 0.26) rotate(-0.1)" fill="#fff"/><path d="M37.77,61.94q0-11.53,0-23.06a.6.6,0,0,0-.2-.56l-9-9.26c-.17-.13-.31-.37-.56-.34-2.26,0-4.53,0-6.8,0,0,4.35,0,8.71,0,13.06.78,0,1.57,0,2.35,0l0,17.08c-3.46,0-6.92,0-10.38,0,0-3,0-5.92,0-8.89L0,50c0,4.12,0,8.23,0,12.35l9.2,10.25,19.16,0Z" fill="#fff"/><path d="M41.24,87.8v3.81l8.18,0v4.57l-16.94,0,0-12.94,21.7,0v-3.8l-20.75,0a7.32,7.32,0,0,0-3.14.46,3.76,3.76,0,0,0-2.55,3.34c0,4.26,0,8.52,0,12.78a3.41,3.41,0,0,0,1.06,2.55A5.57,5.57,0,0,0,32.69,100l21.51,0,0-12.18Z" fill="#fff"/><path d="M81.76,91.14a3.92,3.92,0,0,0,2.65-3c.07-1.2,0-2.4,0-3.6a5.59,5.59,0,0,0-.4-2.83,5.09,5.09,0,0,0-4.55-2.3l-20.75,0,0,20.55h4.76l0-8.37,8,0L79,99.92l5.89,0-7.46-8.36C78.84,91.5,80.37,91.71,81.76,91.14ZM63.51,87.76V83.2l16.18,0v4.57Z" fill="#fff"/><path d="M97,79.34C93.69,86.21,90.3,93.05,86.94,99.9h5.51c2.74-5.58,5.51-11.15,8.22-16.74h2.16c2.74,5.59,5.52,11.15,8.28,16.72h5.51c-3.38-6.84-6.79-13.67-10.17-20.52Z" fill="#fff"/><polygon points="143.04 79.25 118.87 79.3 118.91 99.85 123.67 99.84 123.65 91.46 140.59 91.44 140.58 87.63 123.64 87.66 123.64 83.09 143.05 83.06 143.04 79.25" fill="#fff"/><path d="M172.69,79.21l-7,0c-2.22,2.06-4.31,4.25-6.49,6.34l-6.48-6.33-7,0c3.24,3.22,6.54,6.39,9.78,9.61L144.83,99.79l7,0c2.53-2.37,4.94-4.87,7.43-7.27,2.5,2.39,4.93,4.88,7.46,7.24h7L162.86,89C166.1,85.68,169.44,82.49,172.69,79.21Z" fill="#fff"/></svg>