<svg id="Layer_1" data-name="Layer 1" xmlns="http://www.w3.org/2000/svg" width="611.07" height="100" viewBox="0 0 611.07 100"><path d="M341.06,18.05H359.3a2,2,0,0,0,1.93-2V6.22h0a1.92,1.92,0,0,0-1.93-1.93H341.06a1.92,1.92,0,0,0-1.93,1.93v9.9A1.92,1.92,0,0,0,341.06,18.05Z" transform="translate(0 0)" fill="#fff"/><path d="M248.66,18.05h18.42a1.82,1.82,0,0,0,1.82-1.8v-10a1.84,1.84,0,0,0-1.82-1.84H248.66a1.84,1.84,0,0,0-1.84,1.84v10A1.84,1.84,0,0,0,248.66,18.05Z" transform="translate(0 0)" fill="#fff"/><path d="M438.07,18.05h18.2a2,2,0,0,0,1.93-2V6.22h0a2,2,0,0,0-1.95-1.95H438.07a2,2,0,0,0-1.95,2V16.1h0A2,2,0,0,0,438.07,18.05Z" transform="translate(0 0)" fill="#fff"/><path d="M170.31,22.38h-16a2.93,2.93,0,0,0-3,2.8V65.37c0,7.33-6.5,13-14.56,13s-12.83-5.8-12.83-11.2v-42a2.92,2.92,0,0,0-3-2.8h-16a2.93,2.93,0,0,0-3,2.8v46c0,10,9.17,24.49,26.92,24.49l-.09-.09A29.39,29.39,0,0,0,151.2,85.53v9.16a2.92,2.92,0,0,0,3,2.8h16a2.93,2.93,0,0,0,3.14-2.7V25.18A2.92,2.92,0,0,0,170.31,22.38Z" transform="translate(0 0)" fill="#fff"/><path d="M584.13,24.25v-.07A29.29,29.29,0,0,0,561.6,34.39V25.18a2.93,2.93,0,0,0-3.05-2.8h-16a2.92,2.92,0,0,0-3,2.8V50.56c-5-16.17-20.94-27.94-40.41-27.94-20.18,0-36.5,12.68-40.91,29.71V26.74a2.93,2.93,0,0,0-2.93-2.9H392.6c-12.87,0-23.4,9.64-23.4,21.4s10.53,21.43,23.4,21.43H398a7.85,7.85,0,1,1,1.17,15.65,7.62,7.62,0,0,1-1.17,0H361.23V26.74a2.92,2.92,0,0,0-2.93-2.9H342.05a2.9,2.9,0,0,0-1.61.48,2.23,2.23,0,0,0-.78-.41,2.09,2.09,0,0,0-.66-.07H323a4.33,4.33,0,0,0-3.88,2.79L304.8,75.56l-17.14-49a4.52,4.52,0,0,0-4-2.8h-16a2,2,0,0,0-1.05.1,3.81,3.81,0,0,0-.59-.05H249.74a2.92,2.92,0,0,0-2.92,2.9v56h-8.95c-5.52,0-5.78-4-5.78-7.83V41.52h9.66a2,2,0,0,0,2-1.86h0V29a2,2,0,0,0-2-1.86h-9.67V6.22a1.91,1.91,0,0,0-2-1.84H212a1.93,1.93,0,0,0-2,1.84V27.13h-8.79V2.9h0A2.9,2.9,0,0,0,198.3,0H182a2.9,2.9,0,0,0-2.9,2.9V94.58h0a2.9,2.9,0,0,0,2.9,2.91H198.3a2.91,2.91,0,0,0,2.91-2.91v-53H210V80.89c0,10.72,8,16.6,17.62,16.6H266a2.93,2.93,0,0,0,2.92-2.91V36.4L282.81,76c.15.56.3,1.15.5,1.75,6.11,20.89,21.45,19.74,21.45,19.74s15.34,1.15,21.45-19.74l12.92-44.15v61a2.93,2.93,0,0,0,2.92,2.91h62.26c13.8,0,25.09-10.34,25.09-23s-11.18-23-25.09-23h-7A6.29,6.29,0,0,1,396.05,39a6.84,6.84,0,0,1,1.28,0h38.79V94.58h0a2.9,2.9,0,0,0,2.9,2.91h16.25a2.94,2.94,0,0,0,2.93-2.91V70.89C462.61,87.77,478.93,100,499.11,100c19.47,0,35.36-11.34,40.41-27.36v22a2.92,2.92,0,0,0,3,2.8h16a2.94,2.94,0,0,0,3.06-2.79h0V54.5c0-7.33,6.5-13,14.56-13S589,47.3,589,52.7v42a2.93,2.93,0,0,0,3,2.78h16a2.94,2.94,0,0,0,3.06-2.78v-46C611.07,38.79,601.9,24.25,584.13,24.25Zm-85,60v0c-14.89,0-18.94-9.9-18.94-22.64s5.22-23.06,18.94-23.06,19,10.32,19,23.06S514,84.23,499.11,84.23Z" transform="translate(0 0)" fill="#fff"/><path d="M91.41,3A11.43,11.43,0,0,0,84.74.11H81.1l-.72.17h-.17a11.17,11.17,0,0,0-4.33,2.45L68.14,9.82l-9.75,8.92-11,10.08-11-10.08L26.62,9.82,18.89,2.73A11.45,11.45,0,0,0,14.56.28h-.18L13.67.11H10A11.4,11.4,0,0,0,3.37,3,9.79,9.79,0,0,0,0,9a5.68,5.68,0,0,0,0,1V94.71a3,3,0,0,0,3.05,2.8h16a2.93,2.93,0,0,0,3-2.8V34.56L44,54.6a5,5,0,0,0,6.7,0l21.88-20V94.71a3,3,0,0,0,3.06,2.8h16a2.93,2.93,0,0,0,3-2.79h0V9.08h-.1A9.73,9.73,0,0,0,91.41,3Z" transform="translate(0 0)" fill="#fff"/></svg>