<?xml version="1.0" encoding="utf-8"?>
<!-- Generator: Adobe Illustrator 25.4.1, SVG Export Plug-In . SVG Version: 6.00 Build 0)  -->
<svg version="1.1" id="Layer_1" xmlns="http://www.w3.org/2000/svg" xmlns:xlink="http://www.w3.org/1999/xlink" x="0px" y="0px"
	 viewBox="0 0 474.2 100" style="enable-background:new 0 0 474.2 100;" xml:space="preserve">
<style type="text/css">
	.st0{fill:#FFFFFF;}
</style>
<g>
	<path class="st0" d="M52.2,4.1C49.3,1.5,45.6,0,41.7,0c-3.5,0-6.8,1.4-9.3,3.8C30,6.1,28.2,9,27.3,12.2L0,99.5h21.9l5.7-18.8H57
		l5.4,18.8h21.9L58,13.4C57,9.8,55,6.6,52.2,4.1z M32.8,62.5l9.6-42.6l8.8,42.6L32.8,62.5z"/>
	<polygon class="st0" points="134.4,0.5 74.6,0.5 74.6,19.2 93.8,19.2 93.8,100 115.3,100 115.3,19.2 134.4,19.2 	"/>
	<path class="st0" d="M177.4,4.1c-2.9-2.6-6.6-4.1-10.5-4.1c-3.5,0-6.8,1.4-9.3,3.9c-2.4,2.3-4.1,5.2-5.1,8.4l-27.3,87.3h21.9
		l5.7-18.8h29.5l5.4,18.8h21.9l-26.2-86.2C182.2,9.8,180.2,6.6,177.4,4.1z M158,62.5l9.6-42.6l8.7,42.6L158,62.5z"/>
	<path class="st0" d="M271,43.9c3.6-4.3,5.6-9.9,5.5-15.5c0-7.4-3-14-9-19.6c-5.7-5.5-13.3-8.5-21.2-8.5h-20.9
		c-2.8,0-5.6,1.4-8.4,4.2c-2.8,2.8-4.2,5.7-4.2,8.7v86.2h20.7V18.7h12.2c2.3,0,4.5,1.2,6.5,3.6c1.8,2.1,2.9,4.7,3,7.5
		c0,4.2-3.5,7.6-10.4,10.4s-10.4,6.3-10.4,10.6c0.1,1.2,0.4,2.4,0.9,3.5c0.6,1.5,1.4,3.2,2.4,5.1l22,40.4h24.8l-27.4-46
		C262.5,51.6,267.2,48.2,271,43.9z"/>
	<rect x="287.3" y="0.3" class="st0" width="21.6" height="99.6"/>
	<path class="st0" d="M391.2,45.4c-1.8-1.1-5.7-3.4-17.9-7c-6.7-1.9-10-4.9-10-9c0-2.8,1.4-5.1,4.3-6.7c3-1.7,6.3-2.6,9.7-2.5
		c3.9,0,7.7,0.6,11.4,1.8c3.8,1.2,5.3,3,10.5,5.3V5c-4.2-1.9-8.7-3.2-13.3-3.9c-4.6-0.6-9.3-0.9-14-0.9c-10.8,0-19.7,2.8-26.8,8.4
		s-10.6,12.5-10.6,20.8c0,10.3,4.1,21.2,12.5,26.3c2.9,1.8,6.8,4.3,18,7.6c7.8,2.5,11.7,5.4,11.7,8.6c0,2.5-1.1,1.4-3.3,3.1
		c-2.2,1.7-5.8,2.5-10.9,2.5c-3.9,0-9.3-1-16.2-2.9c-3.1-0.9-4.4-2.3-10.2-3.9V93c5,1.7,10.2,3,15.4,4c4.8,0.9,9.6,1.3,14.4,1.3
		c10.4,0,19-2.3,25.7-6.9c7.7-5.2,11.5-12.6,11.5-22.3C403.2,58.3,399.2,50.4,391.2,45.4z"/>
	<polygon class="st0" points="404.7,3.3 404.7,26.1 424.5,26.1 424.5,99.5 454.4,99.5 454.4,26.1 474.2,26.1 474.2,3.3 	"/>
</g>
</svg>
