<svg id="Layer_1" data-name="Layer 1" xmlns="http://www.w3.org/2000/svg" width="421.43" height="100" viewBox="0 0 421.43 100"><rect x="182.99" y="35.56" width="21" height="18.92" fill="#fff"/><polygon points="207.76 19.04 217.04 19.04 217.04 99.89 235.96 99.89 235.96 0 207.76 0.11 207.76 19.04" fill="#fff"/><rect x="77.74" y="0.11" width="18.92" height="99.89" fill="#fff"/><polygon points="33.65 71.29 18.92 0.11 0 0.11 20.63 100 46.66 100 67.3 0.11 48.37 0.11 33.65 71.29" fill="#fff"/><path d="M262,.11,247.35,14.75v70.7l14.41,14.44h33.87L309.9,85.62v-71L295.38.11ZM291,81H266.27V19H291Z" fill="#fff"/><polygon points="123.52 0.11 108.96 14.76 108.96 85.44 123.23 99.89 157.19 99.89 171.46 85.62 171.46 58.9 152.54 58.9 152.54 80.97 127.8 80.97 127.8 19.04 152.57 19.04 152.57 36.16 171.49 36.16 171.49 14.64 156.96 0.11 123.52 0.11" fill="#fff"/><path d="M336.07.11,321.43,14.75v70.7l14.44,14.44h33.88L384,85.62v-71L369.52.11ZM365.13,81H340.35V19h24.78Z" fill="#fff"/><polygon points="393.24 0.11 393.24 19.04 402.54 19.04 402.54 99.89 421.43 99.89 421.43 0 393.24 0.11" fill="#fff"/></svg>