<?xml version="1.0" encoding="utf-8"?>
<!-- Generator: Adobe Illustrator 25.4.1, SVG Export Plug-In . SVG Version: 6.00 Build 0)  -->
<svg version="1.1" id="Layer_1" xmlns="http://www.w3.org/2000/svg" xmlns:xlink="http://www.w3.org/1999/xlink" x="0px" y="0px"
	 viewBox="0 0 151.1 100" style="enable-background:new 0 0 151.1 100;" xml:space="preserve">
<style type="text/css">
	.st0{fill:#FFFFFF;}
	.st1{fill-rule:evenodd;clip-rule:evenodd;fill:#FFFFFF;}
</style>
<g id="Layer_1-2">
	<g id="Calque_1">
		<polygon class="st0" points="95.5,28.6 114.1,14.5 92.3,23.2 86.1,16.8 88.1,25.7 69.5,39.8 91.3,31.1 97.5,37.5 		"/>
		<path class="st0" d="M72.2,46.3c0.3-1.3,0.8-1.1,2.1-1.3l1.2-0.2l-0.4,2.1l-1.2,0.2C72.6,47.3,72,47.6,72.2,46.3z M69.6,44.4
			l-1,5.2c-0.3,1.5,0.2,1.9,1.5,1.7L78,50l1.7-9.1l-7.9,1.2C70.6,42.2,69.6,43.2,69.6,44.4z M119.6,36.3l-0.1,0.5l8.1-1.3
			c0.7-0.2,1.3-0.7,1.4-1.5c0.1-0.7-0.3-1.2-0.9-1.1l-2.1,0.3l-3.3,0.5l-0.8,0.1C120.7,34.2,119.8,35.1,119.6,36.3L119.6,36.3z
			 M62.6,59.7l0.1-0.4c0.3,0.1,0.7,0.1,1,0.1l8.4-1.3c-0.3,1.7-2.5,2.1-5.9,2.6l-3.9,0.6l-2.1,11.2l5.1-0.8
			C77.8,70.4,82.5,64,84,56.3l15.2-2.4l2.4-13.2l1.2-0.2c1.4-0.2,1.2-0.5,0.9,1l-2.2,12.1l11-1.7l0.1-0.8c0.9,0.4,1.9,0.5,2.8,0.3
			l18.9-3l1.8-9.5l-1.2-0.9c1-1.2,1.8-2.6,2.1-4.1l0.3-1.5c0.9-5.6-4.2-7.1-6.6-6.7L120,27.3c-2.2,0.5-4.2,1.7-5.6,3.4
			c-1.3-1.3-3.1-1.9-4.9-1.8l-12.1,1.9l1.4,3l10.9-1.7c1.6-0.2,2.6,0.4,2.9,1.6c-0.1,0.3-2.9,15.2-2.9,15.2l-3.9,0.6l2.1-11.3
			c0.3-1.5-0.2-1.9-1.5-1.7l-7.5,1.2l-2.5,13.2l-4.3,0.7l2.8-15.1l-3.5-4.2l-12.7,4.6l6-1h0.1l-3.8,20.7c-1,5.2-6.6,10.3-11.5,11
			l-5.1,0.8l0.8-4.1l3.9-0.6c3.4-0.5,7.2-3.9,7.9-7.5l0.4-2.2l-10.1,1.6c-2.2,0.3-3.3-1-2.9-3.2l1.8-9.7c0.3-1.7,1.3-3.1,2.8-3.9
			v-0.3l5.1-3.8l-3,0.5c-2.5,0.5-4.7,1.8-6.2,3.8c-1.3-1.5-3.2-2.3-5.2-2.1l-10.9,1.8l1.8-9.5l7.9-1.3c4.2-0.7,8.9-5.4,9.7-9.9
			l1.2-6.4c0.8-4.4-2.3-8-6.5-7.2L45.4,7.1l-3.7,19.8l-15.9,2.5c-1.5,0.4-2.6,1.5-2.9,3l-5.9,32c-0.3,1.4,0.6,2.4,2,2.2l30.4-4.8
			l2.4-13.2l1.2-0.2c1.4-0.2,1.2-0.5,0.9,1l-2.3,12L62.6,59.7z M40,52.4l-10.1,1.6l0.4-2.1l8.2-1.3l2-10.7l-8.2,1.3l0.4-2.1
			l10.1-1.6L40,52.4z M39.3,55.7l-0.8,4.5l-18,2.8L26.1,33L41,30.6l-0.7,4.1l-10.6,1.7l-1.6,8.7l8.6-1.4l-0.8,4.1l-8.6,1.4l-1.6,8.7
			L39.3,55.7z M60,56.9l-4.3,0.7l2.1-11.3c0.3-1.4-0.2-1.9-1.5-1.7l-7.5,1.2L46.3,59L42,59.7l3.2-17.3h0.1l14.3-2.3
			c2.2-0.3,3.3,1,2.9,3.2L60,56.9z M87.9,35.6l4.2-0.7l-3.2,17.3L84.6,53L87.9,35.6L87.9,35.6z M114,43.8l1.5-8
			c0.7-2.7,2.8-4.8,5.5-5.4l10-1.6c1.7-0.3,2.9,1.6,2.5,3.5l-0.5,2.6c-0.5,2-2,3.6-3.9,4.1l-10.4,1.7l-0.2,0.9
			c-0.2,0.7,0.2,1.5,0.9,1.7l0,0c0.2,0,0.4,0,0.6,0l11.7-1.8l-0.8,4.3l-13.2,2.1c-1.7,0.4-3.5-0.7-3.8-2.4c0,0,0,0,0,0l0,0
			C113.9,44.8,113.9,44.3,114,43.8z M51.8,21.3l1.5-7.8l5.5-0.9c0.7-0.1,1.1,0.3,0.9,1.1l-1,5.4c-0.1,0.7-0.7,1.3-1.4,1.5L51.8,21.3
			z"/>
		<path class="st0" d="M86.8,25l-1.2-4.6L85,20.5l-0.2,1.1c-0.1,0.8-0.7,1.4-1.5,1.5l-4.5,0.7c-0.7,0.1-1.2-0.4-1-1.1L80,10.5
			c0.2-0.8,0.8-1.4,1.6-1.5L86,8.3c0.7-0.1,1.2,0.4,1,1.1L86.8,11l9.1-1.4l0.3-1.8c0.9-4.7-2.3-8.3-6.7-7.6l-8.7,1.4
			c-4.4,0.7-9.2,5.5-10,10.2l-2.4,13c-0.9,4.7,2.3,8.2,6.8,7.5l2.9-0.5L86.8,25z"/>
		<path class="st0" d="M93.3,22.2c0.2-0.5,0.4-1,0.5-1.5l0.3-1.7l-3.6,0.6L93.3,22.2z"/>
		<path class="st1" d="M138.1,84c-1-0.9-2.3-1.4-3.6-1.3h-15c-0.6,0-1.2,0.1-1.7,0.2c-1.1,0.3-2.1,0.9-2.8,1.8
			c-0.8,0.8-1.2,1.9-1.3,3.1c0,3.9,0,7.8,0,11.8c0,0.3,0.1,0.3,0.3,0.3h4.8c0.4,0,0.5-0.1,0.5-0.4V89.1c-0.1-0.8,0.4-1.5,1.1-1.8
			c0.4-0.1,0.8-0.2,1.3-0.2h2.2c0.4,0,0.5,0.1,0.5,0.5v12c0,0.3,0.1,0.4,0.4,0.4h4.5c0.4,0,0.4-0.1,0.4-0.4V87.5
			c0-0.2,0-0.4,0.3-0.3c1,0.1,2,0,2.9,0.1c1,0.1,1.8,1,1.8,2v10.2c0,0.3,0.1,0.5,0.4,0.5h4.7c0.4,0,0.4-0.1,0.4-0.4V88.3
			C140.2,86.7,139.5,85.1,138.1,84z M138.5,98.7h-2.3c-0.3,0-0.4-0.1-0.4-0.4v-9.2c0-1.1-0.5-2.2-1.5-2.8c-0.5-0.3-1.1-0.5-1.7-0.5
			h-3.9c-0.3,0-0.4,0.1-0.4,0.4v12c0,0.4-0.1,0.5-0.5,0.5c-0.6,0-1.3,0-1.9,0c-0.4,0-0.4-0.1-0.4-0.4V86.4c0-0.4-0.1-0.5-0.5-0.5
			h-3.8c-1.1,0-2.2,0.5-2.8,1.5c-0.3,0.5-0.5,1.2-0.5,1.8v9c0,0.4-0.1,0.5-0.5,0.4h-2.3c-0.2,0-0.3,0-0.3-0.3V87.8
			c0.1-1.7,1.3-3.1,2.9-3.6c0.6-0.1,1.2-0.2,1.8-0.2h15c1.5,0,2.9,0.8,3.6,2.1c0.4,0.6,0.5,1.3,0.5,2.1v10.1
			C138.9,98.6,138.8,98.7,138.5,98.7L138.5,98.7z M24.4,82.7h-14c-1.1,0-2.2,0-3.3,0.2c-1.2,0.2-2.4,0.7-3.4,1.4
			c-1.1,0.8-2,1.9-2.7,3.2c-0.9,1.7-1.2,3.7-0.8,5.7c0.3,1.8,1.3,3.5,2.7,4.7c1.5,1.4,3.4,2.1,5.4,2.2h16.2c0.3,0,0.4-0.1,0.4-0.4
			V96c0-0.4-0.1-0.5-0.5-0.5H9.6c-1.3,0-2.6-0.6-3.4-1.6c-0.6-0.8-0.9-1.8-0.8-2.8c0.1-1.1,0.6-2.1,1.4-2.8c0.7-0.6,1.6-1,2.5-1
			h15.2c0.3,0,0.4-0.1,0.4-0.4v-3.8C24.9,82.8,24.7,82.7,24.4,82.7z M23.6,85.6c0,0.4-0.1,0.5-0.5,0.5H9.4c-2.1,0.1-4,1.4-4.8,3.4
			c-0.7,1.8-0.5,3.8,0.7,5.3c0.7,1,1.8,1.7,3.1,1.9c0.3,0.1,0.5,0.1,0.8,0.1h14c0.4,0,0.5,0.1,0.5,0.4c0,0.4,0,0.8,0,1.1
			c0,0.3-0.1,0.4-0.4,0.4H8.3c-1.7,0-3.3-0.7-4.6-1.8c-1.1-0.9-1.9-2.1-2.3-3.5c-1.1-4,1.1-8.1,5.1-9.2c0.2-0.1,0.4-0.1,0.6-0.2
			C7.6,84,8,84,8.5,84h14.7c0.4,0,0.5,0.1,0.5,0.5C23.5,84.8,23.5,85.2,23.6,85.6L23.6,85.6z M83.6,95.5c-0.2-1.1-0.6-2.1-1.2-3
			c-0.1-0.1-0.1-0.4,0-0.5c0,0,0,0,0,0l0,0c0.3-0.4,0.6-0.8,0.8-1.3c0.5-1.1,0.7-2.4,0.4-3.6c-0.6-2.6-2.9-4.4-5.5-4.4H58.7
			c-0.3,0-0.4,0-0.4,0.4v16.5c0,0.3,0.1,0.4,0.4,0.4h4.8c0.3,0,0.5-0.1,0.5-0.4v-5c0-0.4,0.1-0.4,0.4-0.4h11c0.4,0,0.8,0,1.2,0.1
			c0.9,0.2,1.5,0.9,1.6,1.8v3.6c0,0.3,0.1,0.4,0.3,0.4h4.9c0.3,0,0.3-0.1,0.3-0.4v-3.1C83.8,96.2,83.7,95.8,83.6,95.5L83.6,95.5z
			 M82,98.8h-2.3c-0.3,0-0.3-0.1-0.3-0.3v-2.7c-0.1-1.2-0.8-2.2-1.9-2.7c-0.5-0.2-1-0.3-1.5-0.2H63c-0.4,0-0.5,0.1-0.5,0.5v5.1
			c0,0.3-0.1,0.4-0.4,0.4h-2.2c-0.3,0-0.4-0.1-0.4-0.4V84.4c0-0.4,0.1-0.6,0.5-0.6h18c2.5,0.1,4.4,2.2,4.4,4.6
			c0,1.2-0.6,2.4-1.5,3.2c-0.2,0.2-0.4,0.4-0.1,0.7c0.4,0.4,0.7,0.9,1,1.4c0.3,0.6,0.5,1.3,0.5,2v2.6C82.4,98.7,82.4,98.8,82,98.8
			L82,98.8z M47.7,84.3c-1.2-1-2.8-1.5-4.3-1.6c-5.6,0-11.2,0-16.8,0c-0.4,0-0.5,0.1-0.5,0.4v16.4c0,0.4,0.1,0.4,0.4,0.4h16.8
			c0.3,0,0.6,0,0.9-0.1c2.2-0.4,4.2-1.7,5.4-3.5c0.8-1.2,1.4-2.6,1.5-4.1c0.2-1.4,0-2.7-0.5-4C50.2,86.7,49.1,85.3,47.7,84.3z
			 M49.4,94.6c-0.3,0.6-0.7,1.2-1.2,1.8c-0.5,0.7-1.2,1.2-2,1.6c-0.9,0.5-1.8,0.8-2.8,0.8c-2.6,0-5.2,0-7.8,0h-7.9
			c-0.3,0-0.4-0.1-0.4-0.4v-14c0-0.3,0.1-0.4,0.4-0.4h15.5c1.6,0,3.2,0.7,4.3,1.8c1,0.9,1.8,2,2.2,3.2c0.2,0.5,0.3,1.1,0.3,1.7
			C50.1,92,49.9,93.3,49.4,94.6L49.4,94.6z M110.4,85.3c-0.7-0.7-1.5-1.3-2.4-1.8c-1-0.5-2.1-0.8-3.3-0.8H93.2c-0.6,0-1.2,0-1.8,0.1
			c-1.7,0.3-3.3,1.1-4.6,2.3c-0.9,0.8-1.5,1.8-2,2.9c-1.8,4.4,0.3,9.5,4.7,11.3c0,0,0,0,0,0c1,0.4,2.1,0.7,3.3,0.7h11.6
			c0.6,0,1.1-0.1,1.7-0.2c1.2-0.3,2.3-0.8,3.2-1.5c1.2-0.9,2.1-2.1,2.7-3.4c0.7-1.5,0.9-3.2,0.6-4.9
			C112.3,88.2,111.5,86.6,110.4,85.3L110.4,85.3z M111.4,92.8c-0.3,1.6-1.2,3.1-2.4,4.2c-0.8,0.7-1.8,1.2-2.8,1.4
			c-0.8,0.2-1.6,0.3-2.4,0.2H92.8c-4.1,0-7.4-3.3-7.4-7.4c0-1.7,0.6-3.3,1.6-4.6c1-1.4,2.5-2.3,4.1-2.7c0.6-0.1,1.1-0.2,1.7-0.2
			h11.9c1.6,0,3.1,0.6,4.3,1.7c0.9,0.7,1.5,1.6,2,2.6c0.6,1.4,0.8,3,0.5,4.6L111.4,92.8z M150.7,84.6h-5.8c0.1-0.2,0.3-0.3,0.6-0.2
			h2.4c0.3,0,0.6,0,0.9-0.1c1.7-0.5,2.6-2.3,2.2-3.9c-0.3-1.6-1.6-2.7-3.2-2.7c-1.9,0-3.7,0-5.6,0c-0.4,0-0.5,0.2-0.5,0.5v2.1
			c0,0.3,0.1,0.4,0.4,0.4h4.5c0.5,0,0.7,0.2,0.7,0.5s-0.2,0.5-0.7,0.5h-2.4c-0.3,0-0.7,0.1-1,0.1c-1.4,0.4-2.3,1.7-2.3,3.2
			c-0.1,0.8,0,1.7,0,2.5c0,0.2,0.1,0.3,0.3,0.3h9.5c0.3,0,0.4-0.1,0.4-0.4v-2.3C151.1,84.6,151,84.6,150.7,84.6L150.7,84.6z
			 M150.5,86.8c0,0.3-0.1,0.4-0.3,0.3h-8.3c-0.4,0-0.5-0.1-0.5-0.5c0-0.8,0.1-1.7,0.2-2.5c0.2-0.9,0.9-1.6,1.7-1.9
			c0.4-0.1,0.9-0.1,1.4-0.2h2.4c0.6,0,1-0.4,1.1-0.9s-0.4-1-0.9-1.1c-0.4-0.1-0.8-0.1-1.2-0.1h-3.3c-0.3,0-0.4-0.1-0.4-0.4
			c0-0.3,0-0.6,0-0.9c0-0.4,0.1-0.5,0.5-0.5h4.6c0.4,0,0.7,0,1.1,0.1c1,0.2,1.8,1,2,2c0.4,1.4-0.4,3-1.8,3.4c0,0,0,0,0,0l0,0h-0.2
			c-0.1,0-0.2,0-0.4,0h-2.7c-0.6,0-1.2,0.5-1.3,1.1c0,0.3,0.1,0.4,0.4,0.3h5.8c0.3,0,0.4,0.1,0.4,0.4S150.5,86.4,150.5,86.8
			L150.5,86.8z M56.2,89.5c-0.6-0.3-1.3-0.4-2-0.4c-1.4,0-2.4,1.2-2.4,2.5c0,0.2,0,0.4,0.1,0.6c0.4,1.2,1.6,1.9,2.8,1.8
			c0.2,0,0.5,0,0.7-0.1c1-0.1,1.9-1,2-2C57.5,90.9,57,89.9,56.2,89.5z M56,92c-0.1,0.4-0.5,0.7-1,0.7c-0.5,0-0.9,0-1.4-0.1
			c-0.4-0.2-0.7-0.6-0.7-1.1c0-0.6,0.4-1,1-1.1h0.6c0.4,0,0.9-0.1,1.3,0.3C56.1,91.1,56.2,91.6,56,92L56,92z M76.9,86h-14
			c-0.3,0-0.3,0.1-0.3,0.4v3.8c0,0.3,0.1,0.4,0.4,0.4h13.3c0.6,0.1,1.2,0,1.7-0.2c1-0.4,1.6-1.5,1.3-2.6
			C79.1,86.7,78.1,85.9,76.9,86L76.9,86z M77.7,89c-0.3,0.2-0.6,0.2-0.9,0.2H64.4c-0.5,0-0.6-0.1-0.5-0.6c0-0.4,0-0.7,0-1.1
			c0-0.3,0.1-0.4,0.4-0.4h13c0.5,0,1,0.4,1,0.9C78.2,88.5,78.1,88.8,77.7,89L77.7,89z M44.8,87.2c-0.8-0.7-1.8-1.1-2.9-1.2
			c-3.7-0.1-7.5,0-11.2,0c-0.3,0-0.4,0.1-0.4,0.4v9.9c0,0.4,0.1,0.4,0.4,0.4H42c0.4,0,0.8-0.1,1.2-0.2c2-0.7,3.4-2.5,3.5-4.6
			C47,90.2,46.3,88.3,44.8,87.2L44.8,87.2z M42.4,95.6H32c-0.3,0-0.4,0-0.4-0.4v-7.5c0-0.3,0.1-0.4,0.4-0.4h9.7c2-0.1,3.7,1.3,4,3.3
			c0.5,2.2-0.9,4.5-3.1,5c0,0,0,0,0,0L42.4,95.6z M102.8,86h-8.4c-1-0.1-2.1,0.1-3,0.6c-2.6,1.4-3.7,4.6-2.3,7.2l0,0l0,0
			c0.9,1.9,2.9,3,5,2.9h7.7c0.6,0,1.3,0,1.9-0.1c2.4-0.3,4.3-2.2,4.6-4.6c0.2-1.2-0.1-2.3-0.7-3.3C106.6,87,104.7,86,102.8,86
			L102.8,86z M105.8,94.4c-0.9,0.7-2,1.1-3.1,1.1h-8.4c-1,0-2-0.2-2.8-0.7c-1-0.6-1.6-1.7-1.8-2.8c-0.2-1.2,0.1-2.4,0.9-3.3
			c0.7-0.9,1.7-1.5,2.8-1.5h9.8c1.9,0.1,3.5,1.4,3.9,3.2C107.5,91.9,107,93.5,105.8,94.4L105.8,94.4z"/>
	</g>
</g>
</svg>
