<?xml version="1.0" encoding="utf-8"?>
<!-- Generator: Adobe Illustrator 25.4.1, SVG Export Plug-In . SVG Version: 6.00 Build 0)  -->
<svg version="1.1" id="Layer_1" xmlns="http://www.w3.org/2000/svg" xmlns:xlink="http://www.w3.org/1999/xlink" x="0px" y="0px"
	 viewBox="0 0 1100 100" style="enable-background:new 0 0 1100 100;" xml:space="preserve">
<style type="text/css">
	.st0{fill:#FFFFFF;}
</style>
<g>
	<polygon class="st0" points="933.3,33.5 900.1,0 866.8,0 866.8,100 900.1,100 900.1,50 933.3,83.5 933.3,100 966.6,100 966.6,0 
		933.3,0 	"/>
	<polygon class="st0" points="1100,16.8 1099.9,0 1066.8,0 1050.3,16.6 1033.5,0 1000.2,0 1000.2,16.6 1025.1,41.6 1000.2,66.5 
		1000.2,99.8 1033.4,99.8 1033.4,73.7 1050.2,58.3 1066.8,73.7 1066.8,100 1100,100 1100,66.7 1075.3,41.8 	"/>
	<polygon class="st0" points="33.4,0 0,0 0,100 100,100 100,83.3 33.4,83.3 	"/>
	<path class="st0" d="M150,0l-16.6,16.7v66.7L150,100h66.8l16.7-16.7V16.7L216.8,0H150z M200,83.3h-33.3V16.7H200L200,83.3z"/>
	<polygon class="st0" points="333.4,50 316.7,34.7 300,50 300,0 266.7,0 266.7,100 283.3,100 316.7,66.7 350,100 366.7,100 366.7,0 
		333.4,0 	"/>
	<path class="st0" d="M433.2,0h-33.3v100h33.3V58.1l41.8,41.9h25.2V83.3L466.8,50h16.5l16.8-16.7V16.7L483.4,0H433.2z M466.8,33.3
		h-33.6V16.7h33.6V33.3z"/>
	<polygon class="st0" points="566.8,50 600.1,50 600.1,33.3 566.8,33.3 566.8,16.7 633.4,16.7 633.4,0 539.4,0 533.4,0 533.4,100 
		633.4,100 633.4,83.3 566.8,83.3 	"/>
	<polygon class="st0" points="666.7,16.5 666.7,33.5 683.3,50 733.6,50 733.6,83.5 666.7,83.5 666.7,100 750.2,100 766.8,83.5 
		766.8,50 750,33.5 700,33.5 700,16.5 766.8,16.5 766.8,0 683.3,0 	"/>
</g>
</svg>
