<?xml version="1.0" encoding="utf-8"?>
<!-- Generator: Adobe Illustrator 25.4.1, SVG Export Plug-In . SVG Version: 6.00 Build 0)  -->
<svg version="1.1" id="Layer_1" xmlns="http://www.w3.org/2000/svg" xmlns:xlink="http://www.w3.org/1999/xlink" x="0px" y="0px"
	 viewBox="0 0 767.2 100" style="enable-background:new 0 0 767.2 100;" xml:space="preserve">
<style type="text/css">
	.st0{fill:#FFFFFF;}
</style>
<g>
	<path class="st0" d="M97.5,91.9c-0.7-0.5-1.6-0.7-2.5-0.7c-3.6-0.7-5.6-2-6.3-4c-0.7-2.7-1-5.5-0.9-8.3l-3.6-69
		c0-2.1-0.2-4.2-0.7-6.3c-0.5-1.7-2-2.5-4.9-2.8c-2-0.1-4,0.7-5.4,2.2c-1.1,1.3-2.2,3.1-3.6,4.9L25.3,70.4l-7.4,10.5
		c-1.6,2.2-3.1,4.3-4.7,6.3c-1.7,2-4.1,3.2-6.7,3.6c-1.4,0.2-2.9,0.5-4.3,0.9C0.9,92.2,0,93.6,0,95.1c0,1.1,0.5,1.8,1.1,2
		c0.8,0.3,1.6,0.4,2.5,0.5c2.5,0,5.1-0.2,7.8-0.5s5.2-0.5,7.9-0.5c2.3,0,4.7,0.2,7,0.5c2.2,0.2,4.7,0.2,7,0.5c1,0,2-0.2,2.9-0.7
		s1.4-1.5,1.3-2.5c0-1.7-1.4-3-3.1-2.9l0,0c-2-0.3-3.9-0.6-5.8-1.1c-2-0.5-2.9-1.8-3.1-4.3c1-3.8,2.7-7.4,4.9-10.5
		c2.9-4.5,4.9-7.8,6.3-9.6h27.5c0.2,2.9,0.2,5.8,0.4,8.8c0.2,2.9,0.2,5.8,0.2,8.7c-0.2,4-1.1,6.5-3.1,7.2c-1.9,0.7-3.8,1.1-5.8,1.1
		c-1.7-0.1-3.1,1.2-3.2,2.8l0,0c0,0.2,0,0.3,0,0.5c-0.1,0.8,0.3,1.5,0.9,2c0.7,0.4,1.5,0.5,2.2,0.4c3.8,0,7.6-0.2,11.4-0.4
		c3.8-0.2,7.6-0.5,11.4-0.5c2.5,0,5.1,0.2,7.6,0.2c2.5,0.2,5.1,0.2,7.6,0.2c1,0,2-0.2,2.9-0.5c1.1-0.3,1.7-1.4,1.6-2.5l0,0
		C98.4,93,98.2,92.2,97.5,91.9z M41.2,59l22-32l1.1,32H41.2z"/>
	<path class="st0" d="M296.8,9.9c1.1-0.9,1.8-2.2,2-3.6l0,0c0.1-0.7-0.3-1.4-0.9-1.8c-0.5-0.5-1.3-0.7-2-0.7c-1.2,0-2.4,0-3.6,0.2
		c-1.2,0-2.4,0.2-3.6,0.5l-9.2,0.7h-9.4c-2.2,0-4.5-0.2-7-0.2c-2.3-0.2-4.6-0.3-6.9-0.2c-1,0-2.1,0.3-2.9,0.9
		c-0.9,0.6-1.4,1.6-1.3,2.7c0.4,2,2,3.1,4.7,2.9c2.2-0.4,4.3,1,4.7,3.2c0,0.1,0,0.3,0,0.4c0,0.8,0,1.5-0.2,2.2
		c-0.2,0.7-0.5,1.4-0.7,2.2L243,79.8c-0.5,2.5-1.3,5-2.2,7.4c-1.1,2.2-3.2,3.7-5.6,4c-1.3,0.2-2.9,0.5-4.7,0.9
		c-1.6,0.2-2.8,1.5-2.9,3.1c0,0.8,0.4,1.6,1.1,2c0.7,0.5,1.6,0.7,2.5,0.7c2.9,0,6-0.2,9-0.5c3.1-0.2,6.1-0.4,9.2-0.4
		c3.4,0,6.5,0.2,9.9,0.4c3.4,0.2,6.5,0.2,9.9,0.5c1.6,0,3.1,0,4.7-0.2c1.6,0,2.9-1.3,2.9-2.9c0-1.5-1.2-2.7-2.7-2.9
		c-1.7-0.2-3.4-0.5-5-0.9c-1.6-0.5-2.5-2-2.7-4.7c0-1.1,0.2-2.3,0.5-3.4c0.2-1.1,0.7-2.2,0.9-3.4l17.5-60.8c0.4-1.9,1.2-3.7,2.2-5.4
		c1.4-1.4,3.2-2.2,5.2-2.4C294,10.8,295.4,10.4,296.8,9.9z"/>
	<path class="st0" d="M374.4,70.2c1.6-4.9,3.6-8.1,5.8-9c1.9-0.8,4-1.3,6-1.3c1.8,0,2.7-1.1,2.7-3.4c0-0.8-0.4-1.6-1.1-2
		s-1.4-0.7-2.2-0.7c-3.4,0-7,0.2-10.3,0.5c-3.6,0.2-7,0.4-10.5,0.4c-3.4,0-6.7-0.2-9.9-0.4c-3.4-0.2-6.7-0.5-9.9-0.5
		c-1.1,0-2.2,0.2-3.1,0.7c-1,0.4-1.7,1.4-1.6,2.5c0.1,1.4,1.3,2.6,2.7,2.7c1.8,0.2,3.5,0.5,5.2,1.1c1.8,0.4,2.7,2,2.7,4.5
		c-0.4,3.7-1.2,7.3-2.5,10.8c-1.3,4.5-2.7,8.1-3.6,11c-0.3,1.7-1.1,3.2-2.2,4.5c-1.3,1-3,1.5-4.7,1.3c-8.1-0.2-14.4-2.7-18.4-7.8
		c-4.4-5.5-6.6-12.3-6.3-19.3c0-7.3,1.6-14.4,4.5-21.1c2.9-6.6,6.9-12.7,11.9-17.9c5.4-5.2,11.6-9.5,18.4-12.8
		c6.8-3.4,14.2-5.3,21.8-5.6c3.4,0,5.4,0.7,6.3,2c0.9,2.1,1.2,4.4,0.9,6.7c0,0.8,0,1.7-0.2,2.5c0,0.9-0.2,1.6-0.2,2.5
		c0,1.3,0.2,2.6,0.7,3.8c0.6,1.2,1.8,1.9,3.1,1.8c1.6-0.1,3-1,3.8-2.5c0.7-1.4,1.3-2.9,1.8-4.5c0.5-1.1,1.1-3.4,2.2-7
		c0.9-3.6,1.6-5.8,1.8-6.7c-0.3-1.5-1.8-2.4-4.5-3c-3-0.6-6-1-9-1.1c-3.1-0.2-5.2-0.2-6.3-0.2c-12.4,0.2-24.7,2.6-36.3,7
		c-12.1,4.4-23.1,11.3-32.3,20.4c-8.9,8.7-13.9,20.6-13.9,33c-0.1,7.4,2.4,14.7,7.2,20.4c4.7,5.5,10.7,9.6,17.5,12.1
		c6.9,2.7,14.3,4,21.8,4c4.6,0,9.1-0.3,13.7-0.9c4.5-0.5,9.1-1.4,13.5-2.5c1.5-0.2,2.9-0.6,4.3-1.3c1.3-0.7,2.3-1.9,2.7-3.4
		c1.1-3.4,2.2-7,3.4-10.5C372.6,77.2,373.5,73.6,374.4,70.2z"/>
	<path class="st0" d="M389.8,6.9L389.8,6.9C389.8,6.9,389.8,7,389.8,6.9L389.8,6.9z"/>
	<path class="st0" d="M469.2,94.2c0-1.1-0.2-2-0.9-2.2c-0.7-0.5-1.6-0.7-2.5-0.7c-3.6-0.7-5.6-2-6.3-4c-0.7-2.7-1-5.5-0.9-8.3
		L455,10c0-2.1-0.2-4.2-0.7-6.3c-0.5-1.6-2-2.5-4.9-2.7c-2-0.1-4,0.7-5.4,2.2c-1.1,1.4-2.2,3.1-3.6,4.9L396,70.4l-7.4,10.5
		c-1.6,2.2-3.1,4.3-4.7,6.3c-1.7,2-4.1,3.2-6.7,3.6c-1.4,0.2-2.9,0.5-4.3,0.9c-1.4,0.5-2.3,1.9-2.2,3.4c0,1.1,0.5,1.8,1.1,2
		c0.8,0.3,1.6,0.4,2.5,0.5c2.5,0,5.1-0.2,7.8-0.5s5.2-0.5,7.9-0.5c2.3,0,4.6,0.2,7,0.5c2.5,0.2,4.7,0.2,7,0.5c1,0,2-0.2,2.9-0.7
		s1.4-1.5,1.4-2.5c0-1.7-1.4-3-3.1-2.9l0,0c-2-0.3-3.9-0.6-5.8-1.1c-2-0.5-2.9-1.8-3.1-4.3c1-3.8,2.7-7.4,4.9-10.5
		c2.9-4.5,4.9-7.8,6.3-9.6h27.8c0.2,2.9,0.2,5.8,0.5,8.8c0.2,2.9,0.2,5.8,0.2,8.7c-0.2,4-1.1,6.5-3.1,7.2c-1.9,0.7-3.8,1.1-5.8,1.1
		c-1.7-0.1-3.1,1.2-3.1,2.8c0,0.2,0,0.4,0,0.5c-0.1,0.8,0.3,1.5,0.9,2c0.7,0.4,1.5,0.5,2.2,0.5c3.8,0,7.6-0.2,11.4-0.5
		s7.6-0.5,11.4-0.5c2.5,0,5.2,0.2,7.6,0.2c2.5,0.2,5.2,0.2,7.6,0.2c1,0,2-0.2,2.9-0.5C468.9,96.2,469.4,95.2,469.2,94.2L469.2,94.2z
		 M411.8,59l22-32l1.1,32H411.8z"/>
	<path class="st0" d="M213.2,75.3l14.1-56.7c0.3-2.1,1-4,2-5.8c1.3-1.6,3.1-2.6,5.2-2.7c1.4-0.1,2.7-0.4,4-0.9
		c0.7,0.2,1.6-0.7,1.6-2.5h0.1c0.1-0.8-0.3-1.5-0.9-2c-0.6-0.5-1.3-0.7-2-0.7c-2.9,0-5.8,0-8.7,0.2s-5.8,0.2-8.8,0.2
		c-1.6,0-3.8-0.2-6.9-0.2c-2.2-0.3-4.3,0.1-6.3,1.1c-0.2,0.2-0.4,0.6-0.5,0.9c-0.2,0.5-0.4,0.7-0.4,0.9l-38.1,57.6L166,8
		c0.1-0.9,0-1.8-0.2-2.7s-0.9-1.1-2-1.3c-3.1,0-6.5,0-9.6,0.2h-9.6c-1.8,0-3.6-0.2-5.4-0.2c-1.8-0.2-3.6-0.3-5.4-0.2
		c-1.1,0-2.3,0.2-3.4,0.4c-1,0.4-1.8,1.4-1.8,2.5c0.5,2.2,2.2,3.4,5.2,3.1c3.1,0,4.7,1.1,5.2,3.1c-0.1,1.6-0.4,3.2-0.9,4.7
		c-0.7,1.6-1.1,3.1-1.6,4.5c-3.4,9.4-6.7,18.6-10.1,28s-6.7,18.6-10.3,28c-0.8,3-2.2,5.8-4,8.3c-1.3,1.6-4,2.7-8.3,3.4
		c-1.1,0.1-2.2,0.5-3.2,1.1c-1,0.5-1.5,1.6-1.3,2.7c-0.1,0.9,0.3,1.8,1.1,2.3c0.9,0.3,1.8,0.5,2.7,0.5c2.5,0,4.9,0,7.4-0.2
		s4.9-0.2,7.4-0.2c2.2,0,4.5,0.2,6.7,0.5c2.2,0.2,4.5,0.2,6.7,0.4c1,0,2-0.2,2.9-0.7s1.5-1.4,1.6-2.5c0-1.7-1.3-3.1-3-3.1l0,0h-0.1
		c-2-0.2-4.1-0.5-6.1-0.9c-2-0.5-3.1-2.2-3.1-5.4c0.8-6.7,2.4-13.2,4.7-19.5c2.9-8.5,5.8-17,9.2-25.1c3.1-8.1,5.4-13.5,6.5-16.4
		l1.6,65.9c0,1.7,0.2,3.3,0.7,4.9c0.5,1.1,1.8,1.8,4,1.8c2.1,0,4.1-0.9,5.4-2.5c1.3-1.5,2.5-3.2,3.6-4.9l44.4-65.2l-14.5,55.1
		c-0.5,2.4-1.1,4.8-2,7.2c-0.8,2.3-2.8,4-5.2,4.5c-1.7,0.1-3.3,0.4-4.9,0.7c-1.7,0.3-3,1.7-3.1,3.4c-0.1,0.9,0.4,1.8,1.1,2.2
		c0.7,0.5,1.6,0.7,2.5,0.7c3.1,0,6.5-0.2,9.6-0.5s6.5-0.4,9.6-0.4c3.4,0,6.7,0.2,9.9,0.4c3.4,0.2,6.7,0.5,9.9,0.5
		c1.2,0,2.3-0.2,3.4-0.7c1-0.5,1.6-1.6,1.5-2.7c-0.2-1.6-0.9-2.7-2.5-2.9c-1.6-0.3-3.2-0.6-4.7-1.1c-1.6-0.5-2.5-1.8-2.5-4.3
		c0-1.7,0.2-3.5,0.7-5.2C212.5,78.5,212.7,76.9,213.2,75.3z"/>
	<g>
		<path class="st0" d="M497.2,8l-0.5,25.6l8.7-5.6l-0.2,71.1l23.8-0.2V1.1h-21L497.2,8z M526.6,4.1v92.4h-18.4V23.3l-8.6,5.6l0.2-19
			l9-5.8H526.6z"/>
		<polygon class="st0" points="510.7,93.9 523.9,93.9 523.9,6.7 509.6,6.5 502.4,11.2 502.2,24 510.9,18.4 		"/>
		<path class="st0" d="M607.1,46.6c3.1-7.6,3.4-16,0.7-23.8C603.9,12.3,595,4.4,584,2c-7.7-1.7-15.6-1-22.9,2
			c-6.4,2.7-11.8,7.4-15.2,13.5c-3.6,6.2-5.2,13.4-4.5,20.6c0.7,7.9,4,15.3,9.4,21.1l4.3,4.7L569,45.1l-3.4-3.1
			c-1.8-1.6-2-5.6-1.6-7.8c0.4-3.7,2.6-7,5.9-8.7c4.5-2.5,11.9-2.5,14.8,2.5c4.5,7.2-0.7,14.6-5.2,20.4c-2.5,3.2-5.2,6.3-7.8,9.2
			l-36.5,41.9h72.4V76.9h-22.4c3.4-3.8,6.7-7.6,9.6-11.2C600,60.1,604.2,53.7,607.1,46.6z M579.5,79.4l25.1,0.2v17.3h-64.1
			l32.7-37.7c2.7-3.1,5.4-6.1,7.8-9.2c5.6-7,10.5-15.2,5.4-23.5c-3.6-6.1-12.3-6.5-18.2-3.6c-3.9,2.3-6.6,6.3-7.2,10.8
			c-0.4,3.1,0,7.8,2.5,10.1l1.8,1.6l-10.8,14.4l-2-2.2c-5-5.4-8.1-12.2-8.7-19.5c-1.3-13.4,6.1-26.1,18.4-31.6
			c6.7-2.8,14.2-3.5,21.3-1.8c10.1,2.2,18.4,9.3,22,19c2.5,7.2,2.2,15-0.7,22c-2.9,6.7-6.9,13-11.9,18.4
			C588.5,69.1,584,74,579.5,79.4z"/>
		<path class="st0" d="M582.9,6.7c-30.7-6.5-47.8,27.1-28.2,48.7l7.4-9.9c-5.6-5.1-4.9-20,5.4-25.1c7.4-3.8,17.3-2.5,21.5,4.5
			c8.1,13.2-4.9,26-13.5,35.6l-28.9,33.4h55.8V82.1h-28.2C586,67,597.9,56.7,602.4,44.6c0.6-1.5,1.1-3.1,1.5-4.7
			C607.2,25,597.8,10.1,582.9,6.7z"/>
		<path class="st0" d="M653,0c-10.8-0.3-21.1,4.9-27.1,13.9c-7.2,10.1-9.2,23.3-9.2,35.4c0,12.3,2,25.3,9.2,35.6
			c10.4,15,31,18.6,45.9,8.2c3.1-2.2,5.9-4.9,8.1-8c7.2-10.1,9.2-22.9,9.2-35c0.3-12.1-1.7-25.5-8.9-36C674.2,5,663.9-0.3,653,0z
			 M619.5,55c0.4,7.1,1.7,14.2,4.3,20.8C621.1,69.3,619.9,62.1,619.5,55z M652.8,17.5c12.5,0.5,17.4,14,18.2,27.9
			c-0.8-13.9-5.7-27.3-18.2-27.7c-18.9-0.6-19.6,30-15.7,47.3C633.2,47.8,633.8,17.1,652.8,17.5z M656.5,21c-0.1,0-0.2,0-0.2-0.1
			C656.4,20.9,656.4,20.9,656.5,21z M640.8,49.8c0-8.5,0.9-16.8,3.8-21.5c1.8-2.9,4.9-4.7,8.3-4.7c3.6,0.3,6.7,2.4,8.3,5.6
			c2.7,4.7,3.8,12.3,3.8,20.6c0.2,7.2-0.4,15.2-2.7,20.2c-1.5,3.7-5.2,6.1-9.2,6c-3.9,0.5-7.6-2-8.9-5.8
			C641.9,63.6,640.8,56.7,640.8,49.8z M645.3,92.8c0.1,0.1,0.2,0.1,0.2,0.1C645.4,92.9,645.3,92.9,645.3,92.8z M646.4,93.2
			c0.2,0,0.4,0,0.5,0.1C646.7,93.3,646.6,93.2,646.4,93.2z M650.1,93.8c0.3,0,0.6,0,0.8,0.1C650.6,93.9,650.4,93.9,650.1,93.8z
			 M652.9,78.9H652c-0.3,0-0.6,0-0.9-0.1c0.2,0,0.4,0,0.6,0h0.9c4.7,0.4,9.2-2.1,11.4-6.2c1.6-3.3,2.7-6.9,3.1-10.5
			c0.9-5.1,1.2-10.3,0.9-15.5c0-8.4-2-21.9-10.9-25.4c9,3.4,11.2,17,11.6,25.6c0,5.2-0.4,10.3-1.3,15.3c-0.5,3.6-1.6,7.2-3.1,10.5
			C662.1,76.8,657.6,79.3,652.9,78.9z M663.9,91.8c1.9-0.8,3.7-1.8,5.4-3c2.5-1.8,4.7-4,6.6-6.5C672.7,86.7,668.5,89.9,663.9,91.8z
			 M685.7,63.7c0.7-4.3,0.9-8.7,0.9-13c0-12.1-1.8-25.1-8.5-35C672.5,7.3,663,2.4,653,2.7c-10-0.3-19.4,4.6-24.9,13
			c-0.5,0.7-1,1.5-1.5,2.2c0.5-0.8,1-1.6,1.5-2.4c5.6-8.3,14.9-13.2,24.9-13c10.1-0.3,19.6,4.6,25.1,13c7,9.9,8.7,22.9,8.7,34.8
			C686.8,54.7,686.5,59.2,685.7,63.7z"/>
		<path class="st0" d="M758.2,15c-6-9.1-16.3-14.4-27.2-14.1c-10.8-0.3-21.1,4.9-27.1,13.9c-7.2,10.1-9.2,23.3-9.2,35.4
			c0,12.3,2,25.3,9.2,35.6c10.4,15,31,18.6,45.9,8.2c3.1-2.2,5.9-4.9,8.1-8c7.2-10.1,9.2-22.9,9.2-35
			C767.4,38.8,765.3,25.3,758.2,15z M708.2,18c5-7.6,13.7-12.1,22.8-11.9c0.1,0,0.2,0,0.3,0c-9.2-0.2-17.8,4.3-22.9,11.9
			c-5.6,7.8-8.3,18.6-8.3,32.5s2.7,24.6,8.3,32.5c5,7.1,12.7,11.2,20.8,11.8c-5.1-0.3-10.1-2-14.5-5.2c-2.5-1.8-4.7-4-6.5-6.6
			c-5.6-7.8-8.3-18.8-8.3-32.5S702.6,25.8,708.2,18z M718.9,50.4c0-8.5,0.9-16.8,3.8-21.5c1.8-2.9,4.9-4.7,8.3-4.7
			c3.6,0.3,6.8,2.5,8.3,5.8c2.7,4.7,3.8,12.3,3.8,20.6c0.2,7.2-0.4,15.2-2.7,20c-1.5,3.7-5.2,6.2-9.2,6c-3.9,0.6-7.7-1.9-8.9-5.8
			C720,64.2,718.9,57.3,718.9,50.4z M706.1,84.5c-7-9.9-8.7-22.4-8.7-34.1C697.4,62.1,699.4,74.7,706.1,84.5
			c5.6,8.3,14.9,13.2,24.9,13C721,97.9,711.6,92.9,706.1,84.5z M745.6,63c-0.5,3.6-1.5,7.2-3.1,10.5c-2.2,4.2-6.7,6.7-11.5,6.3h-0.9
			c-1.9,0-3.7-0.6-5.2-1.6c1.5,0.8,3.1,1.3,4.8,1.3h0.9c4.7,0.4,9.2-2.1,11.4-6.3c1.6-3.3,2.7-6.9,3.1-10.5
			c0.9-5.1,1.1-10.3,0.9-15.5c0-8-1.8-20.6-9.7-24.8c8.3,4,10.3,16.9,10.7,25.3C746.7,52.7,746.3,57.9,745.6,63z M748,63.4
			c3-17.3,0.8-44.3-17.2-44.8c-12.8-0.4-17.2,13.6-17.6,27.9c0.4-14.3,4.8-28.3,17.6-28.1C748.9,19.1,751,46.3,748,63.4z
			 M758.6,80.5c4.8-8.8,6-19.3,6-29.1c0.2-10.9-1.3-22.8-6.9-32.4c5.6,9.5,7.1,21.3,7.1,32.2C764.9,61.2,763.4,71.6,758.6,80.5z"/>
	</g>
</g>
</svg>
