<svg id="Layer_1" data-name="Layer 1" xmlns="http://www.w3.org/2000/svg" width="484.67" height="100" viewBox="0 0 484.67 100"><path d="M37.91,2.21A40.88,40.88,0,0,0,24.49,0H0V72.2H11.22V7H21.64s7.59,0,10.11,3.32C34,13.11,34.44,18.33,34.44,22c0,3.79-.32,9.64-1.58,11.69a8.29,8.29,0,0,1-7.9,4H18v6.48H28s9,.31,12.8-3.48c4.74-4.74,5.84-11.22,5.84-19.9C46.6,12.8,43.76,4.9,37.91,2.21Z" transform="translate(0 0)" fill="#fff"/><rect x="55.61" width="11.22" height="72.2" fill="#fff"/><polygon points="153.87 57.35 140.13 16.9 126.86 16.9 126.86 16.9 147.55 70.93 135.7 100 145.02 100 179.15 16.9 168.72 16.9 153.87 57.35" fill="#fff"/><path d="M211.69,30.17c-3.79-.15-6.95-.63-9-.79A6.81,6.81,0,0,1,197,25.59a28.48,28.48,0,0,1-1.11-8.21,12.68,12.68,0,0,1,2.21-7.11C200.16,8.06,201.74,7,207.27,7c2.52,0,14.06.48,14.06.48V.63L205.53.16a67.26,67.26,0,0,0-7.9.47,15.5,15.5,0,0,0-8.37,3.79c-2.37,2.37-4.74,7.43-4.74,16.43s2.21,12,3.79,13.91a14.57,14.57,0,0,0,10.27,4.89c3.79.16,6.95.63,9,.79a7.11,7.11,0,0,1,5.69,3.79,30.84,30.84,0,0,1,1.26,8.53c0,2.06-1.1,8.06-2.37,9.33-2,2.21-4.74,3.31-10.27,3.31-2.52,0-14.37-.47-14.37-.47v6.79h0l17.22.63s4.9-.15,7.9-.63A15.5,15.5,0,0,0,221,67.93c2.37-2.37,4.74-8.85,4.74-17.85S223.54,37,222,35.07A14.64,14.64,0,0,0,211.69,30.17Z" transform="translate(0 0)" fill="#fff"/><path d="M249,7H237.76V59.87s.31,4.9.47,6.48c.32,1.74,2.68,5.69,9.16,5.69l11.69-.16V65.09s-3.16.15-5,.15-4.27-.15-4.74-3.31a60.35,60.35,0,0,1-.48-7.11V23.54h12.8V16.75h-12.8Z" transform="translate(0 0)" fill="#fff"/><rect x="357.82" y="16.9" width="11.22" height="55.29" fill="#fff"/><rect x="357.82" width="11.22" height="10.11" fill="#fff"/><path d="M421.48,20.7c-3.16-2.53-9-4.27-16.74-4.27S391.15,18,387.83,20.7c-3.16,2.52-7.11,8.05-7.11,23.85s3.95,21.33,7.11,23.85c3.32,2.53,9.17,4.27,16.91,4.27,7.58,0,13.58-1.74,16.74-4.27,3.32-2.52,7.27-8.05,7.27-23.85S424.64,23.22,421.48,20.7Zm-8.37,41.39a11.85,11.85,0,0,1-16.11,0c-1.58-1.9-3.48-5.85-3.48-17.54S395.42,28.91,397,27a11.85,11.85,0,0,1,16.11,0c1.58,1.9,3.48,5.85,3.48,17.54S414.69,60.19,413.11,62.09Z" transform="translate(0 0)" fill="#fff"/><path d="M479.14,20.22c-4.73-3.79-13.27-3.32-13.27-3.32l-25.27.48V72.2h11.21L452,24.64h0L463,24.17a10.4,10.4,0,0,1,7.9,2.84,11.69,11.69,0,0,1,2.53,8.06V72h11.21V34.12C484.67,27,482.46,22.75,479.14,20.22Z" transform="translate(0 0)" fill="#fff"/><path d="M335.23,7H324.17V59.87s.31,4.9.47,6.48c.32,1.74,2.69,5.69,9.17,5.69l11.69-.16V65.09s-3.16.15-5.06.15-4.27-.15-4.74-3.31a58.28,58.28,0,0,1-.47-7.11V23.54h12.64V16.75H335.23Z" transform="translate(0 0)" fill="#fff"/><path d="M115.48,20.06c-4.74-3.63-13.27-3.31-13.27-3.31l-17.85.47v7.42l14.85-.47a10.4,10.4,0,0,1,7.9,2.84,11.69,11.69,0,0,1,2.53,8.06h0l.31,29.7-7.42.48c-4.27,0-7.9-.32-10-1.9-2.37-1.58-3.31-4-3.31-8.85a9.94,9.94,0,0,1,2.37-7.42,9.21,9.21,0,0,1,7.58-2.69H103V38.07h-7s-8.53-.47-13.27,3.32c-3.32,2.53-5.53,6.79-5.53,13.9,0,7.43,2.69,12.8,7.43,14.69a54.35,54.35,0,0,0,14.69,1.9L121,71.41V34C121,26.86,118.8,22.75,115.48,20.06Z" transform="translate(0 0)" fill="#fff"/><path d="M305.37,20.06c-4.58-3.63-13.11-3.31-13.11-3.31l-17.85.47v7.42l14.85-.47A10.6,10.6,0,0,1,297.15,27a11.69,11.69,0,0,1,2.53,8.06h0v29.7l-7.42.48c-4.11,0-7.9-.32-9.95-1.9-2.37-1.58-3.32-4-3.32-8.85a9.94,9.94,0,0,1,2.37-7.42,9.21,9.21,0,0,1,7.58-2.69h3.95V38.07h-6.95s-8.53-.47-13.27,3.32c-3.32,2.53-5.53,6.79-5.53,13.9,0,7.43,2.68,12.8,7.42,14.69a54.47,54.47,0,0,0,14.7,1.9l21.64-.47V34C310.9,26.86,308.69,22.75,305.37,20.06Z" transform="translate(0 0)" fill="#fff"/></svg>