<?xml version="1.0" encoding="utf-8"?>
<!-- Generator: Adobe Illustrator 25.4.1, SVG Export Plug-In . SVG Version: 6.00 Build 0)  -->
<svg version="1.1" id="Layer_1" xmlns="http://www.w3.org/2000/svg" xmlns:xlink="http://www.w3.org/1999/xlink" x="0px" y="0px"
	 viewBox="0 0 423.6 100" style="enable-background:new 0 0 423.6 100;" xml:space="preserve">
<style type="text/css">
	.st0{fill:#FFFFFF;}
</style>
<g>
	<path class="st0" d="M281.2,43.7c-1.4-1.5-3.1-2.6-5-3.3c0,0,0.1,0,0.1,0c-0.6-0.2-1.2-0.4-1.8-0.6c4.6-1.4,8-3.7,10.2-6.6
		c2.4-3.4,3.6-7.4,3.4-11.5c0-2.1-0.2-4-0.6-5.7c-0.9-3.9-2.9-7-5.8-9.2c-1.7-1.2-3.8-2.2-6.2-3c-3.8-1.2-8.5-1.7-14.1-1.8
		c-0.1,0-0.1,0-0.2,0h0h-27.8l0,0l0.1-0.2h0l0,0h-12.4L210.1,29l-11.4,28.5L176.5,1.8h0l0,0h-12.3v0h0l0.2,0.4
		c-1.8-0.5-3.6-0.9-5.5-1.2c-4-0.6-8.1-0.9-12.2-0.9c-0.9,0-1.8,0-2.6,0.1c-7.4,0.3-13.3,2.1-17.6,5.3c-1.2,0.9-2.2,1.9-3.1,3.1
		c-2.7,3.3-4,7.4-4,12.4c0,5.5,1.6,9.8,4.8,13c0.3,0.3,0.7,0.6,1,0.9c0,0,0,0,0.1,0c3.3,2.7,8.2,4.8,14.8,6.2l4.1,1
		c7.2,1.6,11.8,3.2,14,4.9c2.2,1.8,3.4,4.5,3.2,7.3c0.1,3.3-1.7,6.3-4.5,7.9c-3,1.9-7.2,2.8-12.7,2.8c-4.2,0-8.4-0.6-12.5-1.7
		c-4.2-1.1-8.2-2.7-12.1-4.7V35.3c0,0,0,0,0,0v-3c0-10.8-2.5-18.9-7.6-24.3c-5.1-5.4-12.8-8-23.1-8c0,0,0,0,0,0c0,0,0,0,0,0
		c-3.9,0-7.9,0.4-11.8,1.2C72.7,2.2,68.5,3.4,64.5,5v10.8c0,0,0,0,0,0v0c7-3.9,15-5.9,23-5.8c5.6,0,10.1,1.1,13.5,3.4
		c0.5,0.3,0.9,0.7,1.4,1c3.5,2.9,5.3,7.1,5.3,12.5V28H91.3c-10.6,0-18.6,2-24,6.1c-0.5,0.3-0.9,0.7-1.3,1.1v-0.7v0
		c0-10.6-2.8-19-8.3-25.1C52.1,3.1,44.5,0,35,0c-8.1,0-14.9,2-20.4,5.9c-1.8,1.3-3.6,2.8-5.1,4.5C3.1,17.2,0,26.4,0,38.1
		c0,11.2,3.3,20.2,9.9,26.8c6.7,6.6,15.7,9.9,27,9.9c4.5,0,9-0.5,13.5-1.4c4.4-0.9,8.7-2.3,12.9-4.1v-3.4c0.7,1,1.5,1.9,2.4,2.8
		c4.3,4.1,10.1,6.1,17.4,6.1c5,0.2,10.1-0.9,14.6-3.1c4.2-2.2,7.6-5.5,10-9.6V73h11.7v-2.4c4.1,1.3,8.2,2.4,12.4,3.1
		c3.9,0.7,7.9,1.1,11.9,1.1c9.2,0,16.4-1.9,21.6-5.8c5.1-3.6,8.1-9.4,7.9-15.7c0-5.8-1.8-10.3-5.2-13.6c-2.8-2.6-7-4.7-12.8-6.3
		c0,0,0.1,0,0.1,0c-1.5-0.5-3.2-0.9-5-1.2l-4-0.9c-6.3-1.4-10.5-2.9-12.5-4.4c-0.5-0.4-0.9-0.8-1.3-1.2c-1.2-1.4-1.8-3.2-1.7-5.1
		c-0.2-3.3,1.5-6.3,4.3-8c2.9-1.8,7.2-2.7,13-2.7c3.7,0,7.4,0.4,11.1,1.3c3.6,0.9,7,2.2,10.3,3.9v0c0,0,0,0,0,0v-0.4l7.7,18.7
		c0,0,0,0,0,0l15.8,38.5l-2.1,5.3c-2.2,5.7-4.1,9.3-5.9,10.8c-1.8,1.5-4.3,2.3-7.5,2.3h-6.9v9.8h9.3c5.3,0,9.5-1.3,12.6-3.9
		c3.1-2.6,6.3-8.1,9.6-16.6l31-77.2V73h18.3V46.1h5.2c2.5-0.1,5,0.6,7.2,2c1.8,1.3,3.6,3.7,5.3,7.2l8.6,17.6h19.5l-9.9-20.1
		C285.7,49.5,283.7,46.4,281.2,43.7z M34.8,10c0.1,0,0.1,0,0.2,0c0.1,0,0.3,0,0.4,0c2,0,3.9,0.3,5.6,0.8c3,0.9,5.7,2.5,7.9,4.9
		c3.5,3.8,5.3,8.9,5.4,15.3l-41.6,0.1c0.6-6.7,2.9-11.9,6.8-15.6c1.5-1.4,3.1-2.5,4.9-3.4C27.4,10.7,30.9,10,34.8,10z M50.8,63.3
		c-4.3,1.1-8.7,1.6-13.1,1.6c-7.7,0-13.8-2.1-18.1-6.3c-2.8-2.7-4.8-6.1-6-10.4c0,0,0,0,0.1,0c-0.7-2.6-1.2-5.3-1.3-8h49.7
		c-1.9,3.4-2.8,7.4-2.8,12.1c0,2.7,0.4,5.2,1,7.5C57.2,61.2,54,62.4,50.8,63.3z M107.7,39.8c0,7.6-2,13.8-5.9,18.4
		c-3.9,4.6-9.6,7.1-15.6,6.9c-4.7,0-8.4-1.2-11.1-3.7c-2.8-2.5-4.3-6.1-4.1-9.9c0-5.2,1.8-8.9,5.4-11c0.9-0.5,1.9-1,3.1-1.4
		c0,0,0,0,0.1,0c3.3-1.1,8-1.7,13.9-1.8c0,0,0,0,0.1,0c0.8,0,1.7,0,2.6,0h1.5h10.1V39.8z M251.4,15.3h7.7c3.8,0,6.6,0.7,8.2,2.1
		c1.7,1.4,2.5,3.7,2.5,6.9s-0.8,5.6-2.5,7c-1.7,1.4-4.4,2.2-8.2,2.2h-7.7V15.3z"/>
	<path class="st0" d="M353.3,12.4c-1-1.6-2.3-3.1-3.8-4.4c-4.8-4-11.8-6-20.8-6h0h-30.3v39v32h18.3V48.3h12.1c9,0,15.9-2,20.8-6
		s7.2-9.7,7.2-17.2C356.7,20.1,355.5,15.8,353.3,12.4z M316.6,15.3h10.1c3.5,0,6.3,0.9,8.2,2.6c2,1.9,3.1,4.6,2.9,7.3
		c0.2,2.8-0.9,5.4-2.9,7.3c-1.9,1.7-4.7,2.6-8.2,2.6h-10.1V15.3z"/>
	<path class="st0" d="M395.1,33.6L395.1,33.6v5.7v6.5h11.1v13.8c-1.4,0.5-2.9,0.9-4.4,1.1c-1.8,0.2-3.5,0.4-5.3,0.4
		c-7,0-12.4-2-16.2-6.1c-3.3-3.6-5.2-8.5-5.6-14.6c0-0.1,0-0.3,0-0.4c0-0.8-0.1-1.5-0.1-2.3c0-7.6,2-13.4,5.9-17.4
		c3.9-4.1,9.6-6.1,16.8-6.1c4,0,7.9,0.6,11.8,1.7c4.1,1.2,8.1,2.9,11.8,5V6c-3.9-1.8-8-3.1-12.2-4c-4.5-0.9-9-1.3-13.6-1.3
		c-12.2,0-21.9,3.3-28.9,9.8c-7,6.6-10.5,15.6-10.5,27c0,1,0,2,0.1,3c0.6,9.9,4,17.8,10.3,23.9c6.9,6.6,16.3,9.9,28.1,9.9
		c5.1,0,10.2-0.5,15.2-1.7c4.9-1.1,9.7-2.8,14.2-5V33.6H395.1z"/>
</g>
</svg>
