<svg id="Layer_1" data-name="Layer 1" xmlns="http://www.w3.org/2000/svg" width="389.45" height="100" viewBox="0 0 389.45 100"><path d="M763.78,75.14H374.33" transform="translate(-374.33 -24.74)" fill="none" stroke="#fff" stroke-miterlimit="10" stroke-width="3.77"/><path d="M399.09,37h12.67c-.45-5.24-3.71-9.39-9.29-9.39A14.27,14.27,0,0,0,396.66,29l-.84-2.7a17,17,0,0,1,6.85-1.55c8.55,0,12.91,6.2,12.91,14.08,0,8.91-5.89,14-13.11,14a17.48,17.48,0,0,1-7.1-1.41l.78-2.79A14.87,14.87,0,0,0,402,49.83c6,0,9.6-4.36,9.84-10H399.12Z" transform="translate(-374.33 -24.74)" fill="#fff"/><path d="M444.7,26.32v26h-4.64V30h-8.91v6.77c0,7.31-.7,12.19-4.09,14.41a7.72,7.72,0,0,1-5.16,1.55l-.48-3.72A5.67,5.67,0,0,0,424,48c2.43-1.78,2.7-5.44,2.7-11.23V26.32Z" transform="translate(-374.33 -24.74)" fill="#fff"/><path d="M460.73,40.19c.09,6.4,4.18,9,8.91,9a16.94,16.94,0,0,0,7.2-1.35l.81,3.4A21,21,0,0,1,469,52.82c-8,0-12.8-5.27-12.8-13.11s4.65-14,12.21-14c8.49,0,10.74,7.47,10.74,12.26a16.28,16.28,0,0,1-.16,2.2Zm13.8-3.38c0-3.1-1.22-7.75-6.55-7.75-4.77,0-6.88,4.4-7.25,7.75Z" transform="translate(-374.33 -24.74)" fill="#fff"/><path d="M495.34,26.32v11.3h1.12l9.79-11.3H512L500.65,38.1c4.19.43,6.73,3.22,8.76,7.9a59.55,59.55,0,0,0,2.8,6.34h-4.94A33.54,33.54,0,0,1,504.85,47c-1.78-4.2-4.2-6.2-8.6-6.2h-.91V52.27h-4.65V26.32Z" transform="translate(-374.33 -24.74)" fill="#fff"/><path d="M540.54,26.32v3.77h-8.12V52.34h-4.65V30.09h-8.1V26.32Z" transform="translate(-374.33 -24.74)" fill="#fff"/><path d="M550.31,34.83c0-3.35-.1-6-.2-8.51h4.25l.2,4.46h.11A10.25,10.25,0,0,1,564,25.73c6.3,0,11,5.33,11,13.23,0,9.3-5.7,13.95-11.82,13.95a9.19,9.19,0,0,1-8.06-4.06H555V63h-4.65V34.83ZM555,41.75a10.58,10.58,0,0,0,.22,1.94,7.32,7.32,0,0,0,7.1,5.53c5,0,7.9-4.07,7.9-10,0-5.21-2.74-9.67-7.75-9.67a7.53,7.53,0,0,0-7.14,5.85,8,8,0,0,0-.33,1.94v4.46Z" transform="translate(-374.33 -24.74)" fill="#fff"/><path d="M610.09,39.09c0,9.62-6.66,13.82-13,13.82-7,0-12.48-5.16-12.48-13.39,0-8.71,5.71-13.82,12.91-13.82,7.47,0,12.52,5.44,12.52,13.39Zm-20.64.26c0,5.7,3.27,10,7.9,10s7.91-4.24,7.91-10.1c0-4.4-2.2-10-7.75-10s-8.06,5.19-8.06,10.13Z" transform="translate(-374.33 -24.74)" fill="#fff"/><path d="M626.27,26.32V36.81h12.39V26.32h4.65v26h-4.65V40.64H626.27V52.4h-4.65V26.32Z" transform="translate(-374.33 -24.74)" fill="#fff"/><path d="M661.05,26.32v11c0,4.14,0,6.72-.28,10.43h.17c1.55-3.1,2.47-5,4.19-8l8.12-13.45h5.54V52.34h-4.52v-11c0-4.25.11-6.45.32-10.65h-.18c-1.66,3.34-2.79,5.44-4.29,8.08-2.48,4-5.32,9-8.12,13.59h-5.43v-26Z" transform="translate(-374.33 -24.74)" fill="#fff"/><path d="M696.8,26.32v11.3h1.13l9.77-11.3h5.75L702.11,38.1c4.2.43,6.73,3.22,8.77,7.9a56.71,56.71,0,0,0,2.79,6.34h-4.94A33.54,33.54,0,0,1,706.31,47c-1.78-4.2-4.2-6.2-8.6-6.2h-.91V52.27h-4.65V26.32Z" transform="translate(-374.33 -24.74)" fill="#fff"/><path d="M738.45,52.34l-.38-3.27h-.14a9.73,9.73,0,0,1-8,3.87A7.4,7.4,0,0,1,722,46.1c0-.22,0-.43,0-.64,0-6.29,5.59-9.73,15.64-9.67v-.54c0-2.14-.59-6-5.91-6A12.86,12.86,0,0,0,725,31.17l-1.08-3.1a16.18,16.18,0,0,1,8.55-2.31c7.95,0,9.88,5.44,9.88,10.65v9.73a36.8,36.8,0,0,0,.44,6.2h-4.32Zm-.7-13.25c-5.16-.11-11,.8-11,5.87a4.2,4.2,0,0,0,3.84,4.51h.62a6.47,6.47,0,0,0,6.29-4.36,5,5,0,0,0,.27-1.54Z" transform="translate(-374.33 -24.74)" fill="#fff"/><path d="M425,89.38v3.78h-15v9.3a41.9,41.9,0,0,1,4.27-.25,16.5,16.5,0,0,1,9,2.33,9.53,9.53,0,0,1,4.43,8.5,10.23,10.23,0,0,1-2.88,7.53c-2.85,2.79-7.55,3.88-12.29,3.88a55,55,0,0,1-7-.41V89.38Zm-15,31.33a18.93,18.93,0,0,0,3.76.26,10.12,10.12,0,0,0,7.33-2.69,7.16,7.16,0,0,0,1.91-5.1,6.56,6.56,0,0,0-2.84-5.69,11.68,11.68,0,0,0-6.66-1.78c-1,0-2.44.11-3.57.2Z" transform="translate(-374.33 -24.74)" fill="#fff"/><path d="M444.46,89.38v15.5h1.39l11.92-15.5h5.42l-13.15,16c5.73.78,7.94,4.28,9.74,9a91.87,91.87,0,0,0,3.91,9.86h-4.85a59.24,59.24,0,0,1-3.1-8.2c-1.55-4.65-3.83-7.75-9.72-7.75h-1.44v16h-4.43V89.38Z" transform="translate(-374.33 -24.74)" fill="#fff"/><path d="M548,107.05c0,11.4-4.23,17.69-11.67,17.69-6.55,0-11-6.2-11.09-17.25s4.85-17.43,11.66-17.43C543.93,90.06,548,96.42,548,107.05Zm-18.22.51c0,8.72,2.68,13.66,6.81,13.66,4.65,0,6.87-5.4,6.87-13.94,0-8.26-2.12-13.68-6.82-13.68C532.63,93.57,529.74,98.42,529.74,107.56Z" transform="translate(-374.33 -24.74)" fill="#fff"/><path d="M581.05,107.05c0,11.4-4.23,17.69-11.66,17.69-6.56,0-11-6.2-11.1-17.25S563.14,90.06,570,90.06C577,90.06,581.05,96.42,581.05,107.05Zm-18.2.51c0,8.72,2.68,13.66,6.82,13.66,4.64,0,6.86-5.4,6.86-13.94,0-8.26-2.12-13.68-6.82-13.68C565.73,93.57,562.85,98.42,562.85,107.56Z" transform="translate(-374.33 -24.74)" fill="#fff"/><path d="M601.71,94.87h-.13L595.76,98l-.88-3.47,7.32-3.92h3.88v33.59h-4.39V94.87Z" transform="translate(-374.33 -24.74)" fill="#fff"/><path d="M647.23,107.05c0,11.4-4.23,17.69-11.67,17.69-6.54,0-11-6.2-11.09-17.25s4.85-17.43,11.67-17.43C643.2,90.06,647.23,96.42,647.23,107.05Zm-18.21.51c0,8.72,2.69,13.66,6.81,13.66,4.65,0,6.86-5.4,6.86-13.94,0-8.26-2.11-13.68-6.82-13.68C631.91,93.57,629,98.42,629,107.56Z" transform="translate(-374.33 -24.74)" fill="#fff"/><path d="M670,108.53v3.38H657.26v-3.38Z" transform="translate(-374.33 -24.74)" fill="#fff"/><path d="M702.78,107.05c0,11.4-4.23,17.69-11.65,17.69-6.56,0-11-6.2-11.1-17.25s4.85-17.43,11.65-17.43C698.76,90.06,702.78,96.42,702.78,107.05Zm-18.21.51c0,8.72,2.68,13.66,6.8,13.66,4.65,0,6.87-5.4,6.87-13.94,0-8.26-2.11-13.68-6.8-13.68C687.45,93.57,684.57,98.42,684.57,107.56Z" transform="translate(-374.33 -24.74)" fill="#fff"/><path d="M723.43,94.87h-.09L717.5,98l-.87-3.47L724,90.62h3.86v33.55h-4.39V94.87Z" transform="translate(-374.33 -24.74)" fill="#fff"/></svg>