<?xml version="1.0" encoding="utf-8"?>
<!-- Generator: Adobe Illustrator 25.4.1, SVG Export Plug-In . SVG Version: 6.00 Build 0)  -->
<svg version="1.1" id="Layer_1" xmlns="http://www.w3.org/2000/svg" xmlns:xlink="http://www.w3.org/1999/xlink" x="0px" y="0px"
	 viewBox="0 0 337.8 100" style="enable-background:new 0 0 337.8 100;" xml:space="preserve">
<style type="text/css">
	.st0{fill:#FFFFFF;}
</style>
<g>
	<path class="st0" d="M51.4,35.1H23c-2,0-6.8-1.5-6.8-5.8v-9.5c0-4.5,3.4-6.3,6.8-6.3h28.4V0H14.9C4.4,0,0,9.7,0,14.9v18
		c-0.4,8.3,6.1,15.4,14.5,15.8c0,0,0,0,0,0h36.9V35.1z"/>
	<path class="st0" d="M70.7,48.6h31.1c5.2,0,16.2-3,16.2-15.8v-18C118,6.7,111.7,0,101.8,0H70.7c-7.4,0-16.2,4.5-16.2,14.9v18
		C54.5,39.2,59,48.6,70.7,48.6z M70.7,19.8c0-3.5,1.9-6.2,6.3-6.2l18.5-0.1c4,0,5.8,3.4,5.8,6.4v9c0,0.1,0,0.3,0,0.5
		c0,3.2-2.6,5.8-5.9,5.8H77c-3.5,0-6.3-2.8-6.3-6.3V19.8z"/>
	<polygon class="st0" points="51.3,82.9 33.3,51.3 14.9,51.3 43.9,100 59,100 87.8,51.3 72.5,51.3 	"/>
	<path class="st0" d="M233.8,48.6h36.9V35.1h-27.9c-2,0-6.8-1.5-6.8-5.8v-9.5c0-4.5,3.4-6.3,6.8-6.3h27.9V0h-36.5
		c-10.5,0-14.8,9.7-14.9,14.9v18C219,41.2,225.5,48.3,233.8,48.6z"/>
	<path class="st0" d="M136.5,48.2h25.2V35.1h-17.6c-3.6,0-6.8-2.2-6.8-6.3V0h-16.2v33.3C121.2,45,129.3,48.2,136.5,48.2z"/>
	<path class="st0" d="M177.9,48.2h38.3V35.1h-29.7c-3.5,0-6.8-1.8-6.8-6.3h36.5V16.7h-36.5v-4.5h36.5V0h-52.7l0,33.3v0.2
		c0,0,0,0,0,0C163.4,41.6,169.9,48.1,177.9,48.2z"/>
	<path class="st0" d="M303.6,51.3h-46.4l0,48.7h16.7V65.3h22.5c3.5,0.1,6.3,1,6.3,5.8V100h16.7V66.7c0,0,0,0,0,0
		C319.2,58.1,312.2,51.2,303.6,51.3z"/>
	<path class="st0" d="M238.3,51.3h-31.1c-7.4,0-16.7,4.5-16.7,14.9v18c0,0.1,0,0.2,0,0.3c0,0,0,0,0,0c0.3,8.9,7.8,15.8,16.7,15.4
		h31.1c5.2,0,16.2-3,16.2-15.8v-18C254.5,58.1,248.1,51.3,238.3,51.3z M237.9,80.2c0,0.2,0,0.3,0,0.5c0,3.2-2.6,5.9-5.9,5.8h-18.5
		c-3.5,0-6.3-2.8-6.3-6.3v-9c0-3.4,1.9-6.2,6.3-6.2l18.5-0.1c4,0,5.8,3.4,5.8,6.4V80.2z"/>
	<rect x="90.5" y="51.3" class="st0" width="16.7" height="48.7"/>
	<path class="st0" d="M321.6,0h-31.1c-7.4,0-16.7,4.5-16.7,14.9v18c0,0.1,0,0.2,0,0.3c0.3,8.9,7.8,15.8,16.7,15.4h31.1
		c5.2,0,16.2-3,16.2-15.8v-18C337.8,6.7,331.5,0,321.6,0z M321.2,28.8c0,0.1,0,0.3,0,0.5c0,3.2-2.6,5.8-5.9,5.8h-18.5
		c-3.5,0-6.3-2.8-6.3-6.3v-9c0-3.5,1.9-6.2,6.3-6.2l18.5-0.1c4,0,5.9,3.4,5.9,6.4V28.8z"/>
	<path class="st0" d="M152.7,69.8h-26.1c-4.3,0-4.5-4.5,0-4.5h39.6v-14h-39.6c-20.8,0-20.9,30.6,0,30.6h24.3c4.4,0,4.7,4.5,0,4.5
		h-39.2V100h41C173,100,173,69.8,152.7,69.8z"/>
	<rect x="170.7" y="51.3" class="st0" width="16.7" height="48.7"/>
</g>
</svg>
